{
	"asset":{
		"generator":"Khronos glTF Blender I/O v4.4.55",
		"version":"2.0"
	},
	"scene":0,
	"scenes":[
		{
			"name":"Scene",
			"nodes":[
				0
			]
		}
	],
	"nodes":[
		{
			"mesh":0,
			"name":"01_planet",
			"rotation":[
				0,
				0.6946644186973572,
				0,
				0.7193339467048645
			]
		}
	],
	"materials":[
		{
			"doubleSided":true,
			"name":"moon",
			"pbrMetallicRoughness":{
				"baseColorTexture":{
					"index":0
				},
				"metallicFactor":0,
				"roughnessFactor":0.5
			}
		},
		{
			"doubleSided":true,
			"name":"685_machanism",
			"pbrMetallicRoughness":{
				"baseColorTexture":{
					"index":1
				},
				"metallicFactor":0,
				"roughnessFactor":0.5
			}
		}
	],
	"meshes":[
		{
			"name":"Sphere.004",
			"primitives":[
				{
					"attributes":{
						"POSITION":0,
						"NORMAL":1,
						"TEXCOORD_0":2
					},
					"indices":3,
					"material":0
				},
				{
					"attributes":{
						"POSITION":4,
						"NORMAL":5,
						"TEXCOORD_0":6
					},
					"indices":7,
					"material":1
				}
			]
		}
	],
	"textures":[
		{
			"sampler":0,
			"source":0
		},
		{
			"sampler":0,
			"source":1
		}
	],
	"images":[
		{
			"mimeType":"image/png",
			"name":"766the_moon_trammel",
			"uri":"766the_moon_trammel.png"
		},
		{
			"mimeType":"image/png",
			"name":"685mechanism",
			"uri":"685mechanism.png"
		}
	],
	"accessors":[
		{
			"bufferView":0,
			"componentType":5126,
			"count":496,
			"max":[
				0.2853928804397583,
				2.3008809089660645,
				0.28689631819725037
			],
			"min":[
				-0.28363871574401855,
				1.7021077871322632,
				-0.28213515877723694
			],
			"type":"VEC3"
		},
		{
			"bufferView":1,
			"componentType":5126,
			"count":496,
			"type":"VEC3"
		},
		{
			"bufferView":2,
			"componentType":5126,
			"count":496,
			"type":"VEC2"
		},
		{
			"bufferView":3,
			"componentType":5123,
			"count":720,
			"type":"SCALAR"
		},
		{
			"bufferView":4,
			"componentType":5126,
			"count":36,
			"max":[
				0.060744404792785645,
				1.7499990463256836,
				0.05570526048541069
			],
			"min":[
				-0.07858586311340332,
				0.007158517837524414,
				-0.10411092638969421
			],
			"type":"VEC3"
		},
		{
			"bufferView":5,
			"componentType":5126,
			"count":36,
			"type":"VEC3"
		},
		{
			"bufferView":6,
			"componentType":5126,
			"count":36,
			"type":"VEC2"
		},
		{
			"bufferView":7,
			"componentType":5123,
			"count":60,
			"type":"SCALAR"
		}
	],
	"bufferViews":[
		{
			"buffer":0,
			"byteLength":5952,
			"byteOffset":0,
			"target":34962
		},
		{
			"buffer":0,
			"byteLength":5952,
			"byteOffset":5952,
			"target":34962
		},
		{
			"buffer":0,
			"byteLength":3968,
			"byteOffset":11904,
			"target":34962
		},
		{
			"buffer":0,
			"byteLength":1440,
			"byteOffset":15872,
			"target":34963
		},
		{
			"buffer":0,
			"byteLength":432,
			"byteOffset":17312,
			"target":34962
		},
		{
			"buffer":0,
			"byteLength":432,
			"byteOffset":17744,
			"target":34962
		},
		{
			"buffer":0,
			"byteLength":288,
			"byteOffset":18176,
			"target":34962
		},
		{
			"buffer":0,
			"byteLength":120,
			"byteOffset":18464,
			"target":34963
		}
	],
	"samplers":[
		{
			"magFilter":9728,
			"minFilter":9984
		}
	],
	"buffers":[
		{
			"byteLength":18584,
			"uri":"01_planet.bin"
		}
	]
}
