{
	"asset":{
		"generator":"Khronos glTF Blender I/O v4.4.55",
		"version":"2.0"
	},
	"scene":0,
	"scenes":[
		{
			"name":"Scene",
			"nodes":[
				0
			]
		}
	],
	"nodes":[
		{
			"mesh":0,
			"name":"alchemist_aparatus_749x21"
		}
	],
	"materials":[
		{
			"doubleSided":true,
			"name":"alchemist",
			"pbrMetallicRoughness":{
				"baseColorTexture":{
					"index":0
				},
				"metallicFactor":0,
				"roughnessFactor":0.5
			}
		},
		{
			"alphaMode":"BLEND",
			"doubleSided":true,
			"name":"glass",
			"pbrMetallicRoughness":{
				"baseColorFactor":[
					1,
					1,
					1,
					0.29999998211860657
				],
				"baseColorTexture":{
					"index":1
				},
				"metallicFactor":0,
				"roughnessFactor":0.5
			}
		}
	],
	"meshes":[
		{
			"name":"Icosphere.032",
			"primitives":[
				{
					"attributes":{
						"POSITION":0,
						"NORMAL":1,
						"TEXCOORD_0":2
					},
					"indices":3,
					"material":0
				},
				{
					"attributes":{
						"POSITION":4,
						"NORMAL":5,
						"TEXCOORD_0":6
					},
					"indices":7,
					"material":1
				}
			]
		}
	],
	"textures":[
		{
			"sampler":0,
			"source":0
		},
		{
			"sampler":0,
			"source":1
		}
	],
	"images":[
		{
			"mimeType":"image/png",
			"name":"749alchemist_aparatus",
			"uri":"749alchemist_aparatus.png"
		},
		{
			"mimeType":"image/png",
			"name":"887test_tubes",
			"uri":"887test_tubes.png"
		}
	],
	"accessors":[
		{
			"bufferView":0,
			"componentType":5126,
			"count":230,
			"max":[
				0.22174623608589172,
				0.46010562777519226,
				0.2331574410200119
			],
			"min":[
				-0.22174625098705292,
				0.028611749410629272,
				-0.2331574410200119
			],
			"type":"VEC3"
		},
		{
			"bufferView":1,
			"componentType":5126,
			"count":230,
			"type":"VEC3"
		},
		{
			"bufferView":2,
			"componentType":5126,
			"count":230,
			"type":"VEC2"
		},
		{
			"bufferView":3,
			"componentType":5123,
			"count":234,
			"type":"SCALAR"
		},
		{
			"bufferView":4,
			"componentType":5126,
			"count":426,
			"max":[
				0.7840168476104736,
				1.2401666641235352,
				0.2612675726413727
			],
			"min":[
				-0.24848061800003052,
				0.0011872351169586182,
				-0.2612675726413727
			],
			"type":"VEC3"
		},
		{
			"bufferView":5,
			"componentType":5126,
			"count":426,
			"type":"VEC3"
		},
		{
			"bufferView":6,
			"componentType":5126,
			"count":426,
			"type":"VEC2"
		},
		{
			"bufferView":7,
			"componentType":5123,
			"count":510,
			"type":"SCALAR"
		}
	],
	"bufferViews":[
		{
			"buffer":0,
			"byteLength":2760,
			"byteOffset":0,
			"target":34962
		},
		{
			"buffer":0,
			"byteLength":2760,
			"byteOffset":2760,
			"target":34962
		},
		{
			"buffer":0,
			"byteLength":1840,
			"byteOffset":5520,
			"target":34962
		},
		{
			"buffer":0,
			"byteLength":468,
			"byteOffset":7360,
			"target":34963
		},
		{
			"buffer":0,
			"byteLength":5112,
			"byteOffset":7828,
			"target":34962
		},
		{
			"buffer":0,
			"byteLength":5112,
			"byteOffset":12940,
			"target":34962
		},
		{
			"buffer":0,
			"byteLength":3408,
			"byteOffset":18052,
			"target":34962
		},
		{
			"buffer":0,
			"byteLength":1020,
			"byteOffset":21460,
			"target":34963
		}
	],
	"samplers":[
		{
			"magFilter":9728,
			"minFilter":9984
		}
	],
	"buffers":[
		{
			"byteLength":22480,
			"uri":"alchemist_aparatus_749x21.bin"
		}
	]
}
