{
	"asset":{
		"generator":"Khronos glTF Blender I/O v4.4.55",
		"version":"2.0"
	},
	"scene":0,
	"scenes":[
		{
			"name":"Scene",
			"nodes":[
				0
			]
		}
	],
	"nodes":[
		{
			"mesh":0,
			"name":"Alchemist_device_177x00",
			"translation":[
				-1.7964868545532227,
				0,
				-1.4582085609436035
			]
		}
	],
	"materials":[
		{
			"alphaMode":"BLEND",
			"doubleSided":true,
			"name":"177alchemist",
			"pbrMetallicRoughness":{
				"baseColorTexture":{
					"index":0
				},
				"metallicFactor":0,
				"roughnessFactor":0.5
			}
		},
		{
			"alphaMode":"BLEND",
			"doubleSided":true,
			"name":"177alchemist.001",
			"pbrMetallicRoughness":{
				"baseColorFactor":[
					0.800000011920929,
					0.800000011920929,
					0.800000011920929,
					0.25
				],
				"metallicFactor":0,
				"roughnessFactor":0.5
			}
		}
	],
	"meshes":[
		{
			"name":"Alchemist_device_177x00.001",
			"primitives":[
				{
					"attributes":{
						"POSITION":0,
						"NORMAL":1,
						"TEXCOORD_0":2
					},
					"indices":3,
					"material":0
				},
				{
					"attributes":{
						"POSITION":4,
						"NORMAL":5,
						"TEXCOORD_0":6
					},
					"indices":7,
					"material":1
				}
			]
		}
	],
	"textures":[
		{
			"sampler":0,
			"source":0
		}
	],
	"images":[
		{
			"mimeType":"image/png",
			"name":"177alchemist_device",
			"uri":"177alchemist_device.png"
		}
	],
	"accessors":[
		{
			"bufferView":0,
			"componentType":5126,
			"count":368,
			"max":[
				0.9824605584144592,
				0.8591569066047668,
				2.1269683837890625
			],
			"min":[
				-1.402504324913025,
				0.0012494772672653198,
				-1.3676469326019287
			],
			"type":"VEC3"
		},
		{
			"bufferView":1,
			"componentType":5126,
			"count":368,
			"type":"VEC3"
		},
		{
			"bufferView":2,
			"componentType":5126,
			"count":368,
			"type":"VEC2"
		},
		{
			"bufferView":3,
			"componentType":5123,
			"count":918,
			"type":"SCALAR"
		},
		{
			"bufferView":4,
			"componentType":5126,
			"count":657,
			"max":[
				1.3103530406951904,
				1.7565295696258545,
				0.9119958281517029
			],
			"min":[
				-0.9119958281517029,
				0.6982566118240356,
				-1.5030760765075684
			],
			"type":"VEC3"
		},
		{
			"bufferView":5,
			"componentType":5126,
			"count":657,
			"type":"VEC3"
		},
		{
			"bufferView":6,
			"componentType":5126,
			"count":657,
			"type":"VEC2"
		},
		{
			"bufferView":7,
			"componentType":5123,
			"count":2244,
			"type":"SCALAR"
		}
	],
	"bufferViews":[
		{
			"buffer":0,
			"byteLength":4416,
			"byteOffset":0,
			"target":34962
		},
		{
			"buffer":0,
			"byteLength":4416,
			"byteOffset":4416,
			"target":34962
		},
		{
			"buffer":0,
			"byteLength":2944,
			"byteOffset":8832,
			"target":34962
		},
		{
			"buffer":0,
			"byteLength":1836,
			"byteOffset":11776,
			"target":34963
		},
		{
			"buffer":0,
			"byteLength":7884,
			"byteOffset":13612,
			"target":34962
		},
		{
			"buffer":0,
			"byteLength":7884,
			"byteOffset":21496,
			"target":34962
		},
		{
			"buffer":0,
			"byteLength":5256,
			"byteOffset":29380,
			"target":34962
		},
		{
			"buffer":0,
			"byteLength":4488,
			"byteOffset":34636,
			"target":34963
		}
	],
	"samplers":[
		{
			"magFilter":9728,
			"minFilter":9984
		}
	],
	"buffers":[
		{
			"byteLength":39124,
			"uri":"Alchemist_device_177x00.bin"
		}
	]
}
