{
	"asset":{
		"generator":"Khronos glTF Blender I/O v4.4.55",
		"version":"2.0"
	},
	"scene":0,
	"scenes":[
		{
			"extras":{
				"MustardUI_Settings":{},
				"gltf_action_filter":[
					{
						"keep":0,
						"action":{
							"name":"ForwardLoomAction",
							"type":"Action"
						}
					},
					{
						"keep":0,
						"action":{
							"name":"LoomLow",
							"type":"Action"
						}
					},
					{
						"keep":0,
						"action":{
							"name":"LoomUp",
							"type":"Action"
						}
					},
					{
						"keep":0,
						"action":{
							"name":"UpperLoomAction",
							"type":"Action"
						}
					},
					{
						"keep":0,
						"action":{
							"name":"ArmatureAction",
							"type":"Action"
						}
					},
					{
						"keep":0,
						"action":{
							"name":"idle",
							"type":"Action"
						}
					},
					{
						"keep":0,
						"action":{
							"name":"spinning_wheel_651x00.001Action",
							"type":"Action"
						}
					},
					{
						"keep":0,
						"action":{
							"name":"spinning_wheel_651x00.001Action.001",
							"type":"Action"
						}
					},
					{
						"keep":1,
						"action":{
							"name":"spinning_wheel_651",
							"type":"Action"
						}
					},
					{
						"keep":0,
						"action":{
							"name":"spinning_wheel_651x00Action",
							"type":"Action"
						}
					}
				],
				"gltf_action_filter_active":8
			},
			"name":"Scene",
			"nodes":[
				0
			]
		}
	],
	"nodes":[
		{
			"extras":{
				"daz_importer":{}
			},
			"mesh":0,
			"name":"bale_of_wool_653x00"
		}
	],
	"materials":[
		{
			"doubleSided":true,
			"name":"whool",
			"pbrMetallicRoughness":{
				"baseColorTexture":{
					"index":0
				},
				"metallicFactor":0,
				"roughnessFactor":0.5
			}
		}
	],
	"meshes":[
		{
			"name":"Cube.001",
			"primitives":[
				{
					"attributes":{
						"POSITION":0,
						"NORMAL":1,
						"TEXCOORD_0":2
					},
					"indices":3,
					"material":0
				}
			]
		}
	],
	"textures":[
		{
			"sampler":0,
			"source":0
		}
	],
	"images":[
		{
			"mimeType":"image/png",
			"name":"653bale_of_wool",
			"uri":"653bale_of_wool.png"
		}
	],
	"accessors":[
		{
			"bufferView":0,
			"componentType":5126,
			"count":96,
			"max":[
				0.9939597845077515,
				1.006007432937622,
				0.5
			],
			"min":[
				-0.9939597845077515,
				0.006007492542266846,
				-0.5
			],
			"type":"VEC3"
		},
		{
			"bufferView":1,
			"componentType":5126,
			"count":96,
			"type":"VEC3"
		},
		{
			"bufferView":2,
			"componentType":5126,
			"count":96,
			"type":"VEC2"
		},
		{
			"bufferView":3,
			"componentType":5123,
			"count":180,
			"type":"SCALAR"
		}
	],
	"bufferViews":[
		{
			"buffer":0,
			"byteLength":1152,
			"byteOffset":0,
			"target":34962
		},
		{
			"buffer":0,
			"byteLength":1152,
			"byteOffset":1152,
			"target":34962
		},
		{
			"buffer":0,
			"byteLength":768,
			"byteOffset":2304,
			"target":34962
		},
		{
			"buffer":0,
			"byteLength":360,
			"byteOffset":3072,
			"target":34963
		}
	],
	"samplers":[
		{
			"magFilter":9728,
			"minFilter":9984
		}
	],
	"buffers":[
		{
			"byteLength":3432,
			"uri":"bale_of_wool_653x00.bin"
		}
	]
}
