{
	"asset":{
		"generator":"Khronos glTF Blender I/O v4.4.55",
		"version":"2.0"
	},
	"scene":0,
	"scenes":[
		{
			"name":"Scene",
			"nodes":[
				0
			]
		}
	],
	"nodes":[
		{
			"mesh":0,
			"name":"bed_696x00"
		}
	],
	"materials":[
		{
			"alphaMode":"BLEND",
			"doubleSided":true,
			"name":"696bed",
			"pbrMetallicRoughness":{
				"baseColorTexture":{
					"index":0
				},
				"metallicFactor":0,
				"roughnessFactor":0.5
			}
		}
	],
	"meshes":[
		{
			"name":"Cube.001",
			"primitives":[
				{
					"attributes":{
						"POSITION":0,
						"NORMAL":1,
						"TEXCOORD_0":2,
						"TANGENT":3
					},
					"indices":4,
					"material":0
				}
			]
		}
	],
	"textures":[
		{
			"sampler":0,
			"source":0
		}
	],
	"images":[
		{
			"mimeType":"image/png",
			"name":"696bed_",
			"uri":"696bed_.png"
		}
	],
	"accessors":[
		{
			"bufferView":0,
			"componentType":5126,
			"count":472,
			"max":[
				2.5,
				1.2000000476837158,
				1.5
			],
			"min":[
				-2.5,
				0,
				-1.5
			],
			"type":"VEC3"
		},
		{
			"bufferView":1,
			"componentType":5126,
			"count":472,
			"type":"VEC3"
		},
		{
			"bufferView":2,
			"componentType":5126,
			"count":472,
			"type":"VEC2"
		},
		{
			"bufferView":3,
			"componentType":5126,
			"count":472,
			"type":"VEC4"
		},
		{
			"bufferView":4,
			"componentType":5123,
			"count":1128,
			"type":"SCALAR"
		}
	],
	"bufferViews":[
		{
			"buffer":0,
			"byteLength":5664,
			"byteOffset":0,
			"target":34962
		},
		{
			"buffer":0,
			"byteLength":5664,
			"byteOffset":5664,
			"target":34962
		},
		{
			"buffer":0,
			"byteLength":3776,
			"byteOffset":11328,
			"target":34962
		},
		{
			"buffer":0,
			"byteLength":7552,
			"byteOffset":15104,
			"target":34962
		},
		{
			"buffer":0,
			"byteLength":2256,
			"byteOffset":22656,
			"target":34963
		}
	],
	"samplers":[
		{
			"magFilter":9728,
			"minFilter":9984
		}
	],
	"buffers":[
		{
			"byteLength":24912,
			"uri":"bed_696x00.bin"
		}
	]
}
