{
	"asset":{
		"generator":"Khronos glTF Blender I/O v4.4.55",
		"version":"2.0"
	},
	"scene":0,
	"scenes":[
		{
			"name":"Scene",
			"nodes":[
				6
			]
		}
	],
	"nodes":[
		{
			"name":"Bone",
			"translation":[
				-0.844182550907135,
				0.07988109439611435,
				0.5177131295204163
			]
		},
		{
			"name":"Bone1",
			"translation":[
				-0.844182550907135,
				0.07988109439611435,
				0.5177131295204163
			]
		},
		{
			"name":"Bone2",
			"translation":[
				-0.844182550907135,
				0.07988109439611435,
				0.5177131295204163
			]
		},
		{
			"mesh":0,
			"name":"Bellow_Bag",
			"skin":0
		},
		{
			"mesh":1,
			"name":"bellows_base",
			"skin":0
		},
		{
			"mesh":2,
			"name":"Bellows_upper",
			"skin":0
		},
		{
			"children":[
				3,
				4,
				5,
				0,
				1,
				2
			],
			"name":"Armature"
		}
	],
	"animations":[
		{
			"channels":[
				{
					"sampler":0,
					"target":{
						"node":0,
						"path":"translation"
					}
				},
				{
					"sampler":1,
					"target":{
						"node":0,
						"path":"rotation"
					}
				},
				{
					"sampler":2,
					"target":{
						"node":0,
						"path":"scale"
					}
				},
				{
					"sampler":3,
					"target":{
						"node":1,
						"path":"translation"
					}
				},
				{
					"sampler":4,
					"target":{
						"node":1,
						"path":"rotation"
					}
				},
				{
					"sampler":5,
					"target":{
						"node":1,
						"path":"scale"
					}
				},
				{
					"sampler":6,
					"target":{
						"node":2,
						"path":"translation"
					}
				},
				{
					"sampler":7,
					"target":{
						"node":2,
						"path":"rotation"
					}
				},
				{
					"sampler":8,
					"target":{
						"node":2,
						"path":"scale"
					}
				}
			],
			"name":"idle",
			"samplers":[
				{
					"input":19,
					"interpolation":"LINEAR",
					"output":20
				},
				{
					"input":19,
					"interpolation":"LINEAR",
					"output":21
				},
				{
					"input":19,
					"interpolation":"LINEAR",
					"output":22
				},
				{
					"input":19,
					"interpolation":"LINEAR",
					"output":23
				},
				{
					"input":19,
					"interpolation":"LINEAR",
					"output":24
				},
				{
					"input":19,
					"interpolation":"LINEAR",
					"output":25
				},
				{
					"input":19,
					"interpolation":"LINEAR",
					"output":26
				},
				{
					"input":19,
					"interpolation":"LINEAR",
					"output":27
				},
				{
					"input":19,
					"interpolation":"LINEAR",
					"output":28
				}
			]
		}
	],
	"materials":[
		{
			"doubleSided":true,
			"name":"Material.001",
			"pbrMetallicRoughness":{
				"baseColorTexture":{
					"index":0
				},
				"metallicFactor":0,
				"roughnessFactor":0.5
			}
		},
		{
			"alphaMode":"BLEND",
			"doubleSided":true,
			"name":"Material",
			"pbrMetallicRoughness":{
				"baseColorTexture":{
					"index":1
				},
				"metallicFactor":0,
				"roughnessFactor":0.5
			}
		}
	],
	"meshes":[
		{
			"name":"Cube.001",
			"primitives":[
				{
					"attributes":{
						"POSITION":0,
						"NORMAL":1,
						"TEXCOORD_0":2,
						"JOINTS_0":3,
						"WEIGHTS_0":4
					},
					"indices":5,
					"material":0
				}
			]
		},
		{
			"name":"Plane",
			"primitives":[
				{
					"attributes":{
						"POSITION":7,
						"NORMAL":8,
						"TEXCOORD_0":9,
						"JOINTS_0":10,
						"WEIGHTS_0":11
					},
					"indices":12,
					"material":0
				}
			]
		},
		{
			"name":"Plane.001",
			"primitives":[
				{
					"attributes":{
						"POSITION":13,
						"NORMAL":14,
						"TEXCOORD_0":15,
						"JOINTS_0":16,
						"WEIGHTS_0":17
					},
					"indices":18,
					"material":1
				}
			]
		}
	],
	"textures":[
		{
			"sampler":0,
			"source":0
		},
		{
			"sampler":0,
			"source":1
		}
	],
	"images":[
		{
			"mimeType":"image/png",
			"name":"shape431",
			"uri":"shape431.png"
		},
		{
			"mimeType":"image/png",
			"name":"shape431_1",
			"uri":"shape431_1.png"
		}
	],
	"skins":[
		{
			"inverseBindMatrices":6,
			"joints":[
				0,
				1,
				2
			],
			"name":"Armature"
		}
	],
	"accessors":[
		{
			"bufferView":0,
			"componentType":5126,
			"count":64,
			"max":[
				-0.08540934324264526,
				0.6200000643730164,
				0.9145906567573547
			],
			"min":[
				-0.91459059715271,
				0.04999999701976776,
				0.08540940284729004
			],
			"type":"VEC3"
		},
		{
			"bufferView":1,
			"componentType":5126,
			"count":64,
			"type":"VEC3"
		},
		{
			"bufferView":2,
			"componentType":5126,
			"count":64,
			"type":"VEC2"
		},
		{
			"bufferView":3,
			"componentType":5121,
			"count":64,
			"type":"VEC4"
		},
		{
			"bufferView":4,
			"componentType":5126,
			"count":64,
			"type":"VEC4"
		},
		{
			"bufferView":5,
			"componentType":5123,
			"count":132,
			"type":"SCALAR"
		},
		{
			"bufferView":6,
			"componentType":5126,
			"count":3,
			"type":"MAT4"
		},
		{
			"bufferView":7,
			"componentType":5126,
			"count":130,
			"max":[
				0,
				0.19999998807907104,
				1
			],
			"min":[
				-1.3000000715255737,
				0,
				0
			],
			"type":"VEC3"
		},
		{
			"bufferView":8,
			"componentType":5126,
			"count":130,
			"type":"VEC3"
		},
		{
			"bufferView":9,
			"componentType":5126,
			"count":130,
			"type":"VEC2"
		},
		{
			"bufferView":10,
			"componentType":5121,
			"count":130,
			"type":"VEC4"
		},
		{
			"bufferView":11,
			"componentType":5126,
			"count":130,
			"type":"VEC4"
		},
		{
			"bufferView":12,
			"componentType":5123,
			"count":336,
			"type":"SCALAR"
		},
		{
			"bufferView":13,
			"componentType":5126,
			"count":74,
			"max":[
				0.11495888233184814,
				1.1242674589157104,
				1
			],
			"min":[
				-0.9277163743972778,
				0.1167384460568428,
				-6.47357438765539e-08
			],
			"type":"VEC3"
		},
		{
			"bufferView":14,
			"componentType":5126,
			"count":74,
			"type":"VEC3"
		},
		{
			"bufferView":15,
			"componentType":5126,
			"count":74,
			"type":"VEC2"
		},
		{
			"bufferView":16,
			"componentType":5121,
			"count":74,
			"type":"VEC4"
		},
		{
			"bufferView":17,
			"componentType":5126,
			"count":74,
			"type":"VEC4"
		},
		{
			"bufferView":18,
			"componentType":5123,
			"count":168,
			"type":"SCALAR"
		},
		{
			"bufferView":19,
			"componentType":5126,
			"count":15,
			"max":[
				0.625
			],
			"min":[
				0.041666666666666664
			],
			"type":"SCALAR"
		},
		{
			"bufferView":20,
			"componentType":5126,
			"count":15,
			"type":"VEC3"
		},
		{
			"bufferView":21,
			"componentType":5126,
			"count":15,
			"type":"VEC4"
		},
		{
			"bufferView":22,
			"componentType":5126,
			"count":15,
			"type":"VEC3"
		},
		{
			"bufferView":23,
			"componentType":5126,
			"count":15,
			"type":"VEC3"
		},
		{
			"bufferView":24,
			"componentType":5126,
			"count":15,
			"type":"VEC4"
		},
		{
			"bufferView":25,
			"componentType":5126,
			"count":15,
			"type":"VEC3"
		},
		{
			"bufferView":26,
			"componentType":5126,
			"count":15,
			"type":"VEC3"
		},
		{
			"bufferView":27,
			"componentType":5126,
			"count":15,
			"type":"VEC4"
		},
		{
			"bufferView":28,
			"componentType":5126,
			"count":15,
			"type":"VEC3"
		}
	],
	"bufferViews":[
		{
			"buffer":0,
			"byteLength":768,
			"byteOffset":0,
			"target":34962
		},
		{
			"buffer":0,
			"byteLength":768,
			"byteOffset":768,
			"target":34962
		},
		{
			"buffer":0,
			"byteLength":512,
			"byteOffset":1536,
			"target":34962
		},
		{
			"buffer":0,
			"byteLength":256,
			"byteOffset":2048,
			"target":34962
		},
		{
			"buffer":0,
			"byteLength":1024,
			"byteOffset":2304,
			"target":34962
		},
		{
			"buffer":0,
			"byteLength":264,
			"byteOffset":3328,
			"target":34963
		},
		{
			"buffer":0,
			"byteLength":192,
			"byteOffset":3592
		},
		{
			"buffer":0,
			"byteLength":1560,
			"byteOffset":3784,
			"target":34962
		},
		{
			"buffer":0,
			"byteLength":1560,
			"byteOffset":5344,
			"target":34962
		},
		{
			"buffer":0,
			"byteLength":1040,
			"byteOffset":6904,
			"target":34962
		},
		{
			"buffer":0,
			"byteLength":520,
			"byteOffset":7944,
			"target":34962
		},
		{
			"buffer":0,
			"byteLength":2080,
			"byteOffset":8464,
			"target":34962
		},
		{
			"buffer":0,
			"byteLength":672,
			"byteOffset":10544,
			"target":34963
		},
		{
			"buffer":0,
			"byteLength":888,
			"byteOffset":11216,
			"target":34962
		},
		{
			"buffer":0,
			"byteLength":888,
			"byteOffset":12104,
			"target":34962
		},
		{
			"buffer":0,
			"byteLength":592,
			"byteOffset":12992,
			"target":34962
		},
		{
			"buffer":0,
			"byteLength":296,
			"byteOffset":13584,
			"target":34962
		},
		{
			"buffer":0,
			"byteLength":1184,
			"byteOffset":13880,
			"target":34962
		},
		{
			"buffer":0,
			"byteLength":336,
			"byteOffset":15064,
			"target":34963
		},
		{
			"buffer":0,
			"byteLength":60,
			"byteOffset":15400
		},
		{
			"buffer":0,
			"byteLength":180,
			"byteOffset":15460
		},
		{
			"buffer":0,
			"byteLength":240,
			"byteOffset":15640
		},
		{
			"buffer":0,
			"byteLength":180,
			"byteOffset":15880
		},
		{
			"buffer":0,
			"byteLength":180,
			"byteOffset":16060
		},
		{
			"buffer":0,
			"byteLength":240,
			"byteOffset":16240
		},
		{
			"buffer":0,
			"byteLength":180,
			"byteOffset":16480
		},
		{
			"buffer":0,
			"byteLength":180,
			"byteOffset":16660
		},
		{
			"buffer":0,
			"byteLength":240,
			"byteOffset":16840
		},
		{
			"buffer":0,
			"byteLength":180,
			"byteOffset":17080
		}
	],
	"samplers":[
		{
			"magFilter":9728,
			"minFilter":9984
		}
	],
	"buffers":[
		{
			"byteLength":17260,
			"uri":"bellows_431.bin"
		}
	]
}
