{
	"asset":{
		"generator":"Khronos glTF Blender I/O v5.2.39",
		"version":"2.0"
	},
	"scene":0,
	"scenes":[
		{
			"name":"Scene",
			"nodes":[
				0
			]
		}
	],
	"nodes":[
		{
			"mesh":0,
			"name":"bench_right.001"
		}
	],
	"materials":[
		{
			"doubleSided":true,
			"name":"Shape897",
			"pbrMetallicRoughness":{
				"baseColorTexture":{
					"index":0
				},
				"metallicFactor":0,
				"roughnessFactor":0.5
			}
		}
	],
	"meshes":[
		{
			"name":"Shape897_1.001",
			"primitives":[
				{
					"attributes":{
						"POSITION":0,
						"NORMAL":1,
						"TEXCOORD_0":2
					},
					"indices":3,
					"material":0
				}
			]
		}
	],
	"textures":[
		{
			"sampler":0,
			"source":0
		}
	],
	"images":[
		{
			"mimeType":"image/png",
			"name":"897seat",
			"uri":"897seat.png"
		}
	],
	"accessors":[
		{
			"bufferView":0,
			"componentType":5126,
			"count":115,
			"max":[
				0.7382890582084656,
				1.9805896282196045,
				0.699999988079071
			],
			"min":[
				-0.8268584609031677,
				0,
				-0.699999988079071
			],
			"type":"VEC3"
		},
		{
			"bufferView":1,
			"componentType":5126,
			"count":115,
			"type":"VEC3"
		},
		{
			"bufferView":2,
			"componentType":5126,
			"count":115,
			"type":"VEC2"
		},
		{
			"bufferView":3,
			"componentType":5123,
			"count":186,
			"type":"SCALAR"
		}
	],
	"bufferViews":[
		{
			"buffer":0,
			"byteLength":1380,
			"byteOffset":0,
			"target":34962
		},
		{
			"buffer":0,
			"byteLength":1380,
			"byteOffset":1380,
			"target":34962
		},
		{
			"buffer":0,
			"byteLength":920,
			"byteOffset":2760,
			"target":34962
		},
		{
			"buffer":0,
			"byteLength":372,
			"byteOffset":3680,
			"target":34963
		}
	],
	"samplers":[
		{
			"magFilter":9728,
			"minFilter":9984
		}
	],
	"buffers":[
		{
			"byteLength":4052,
			"uri":"bench_right.bin"
		}
	]
}
