{
	"asset": {
		"generator": "flag_sprite_track_rebuild",
		"version": "2.0"
	},
	"scene": 0,
	"scenes": [
		{
			"name": "Scene",
			"nodes": [
				21
			]
		}
	],
	"nodes": [
		{
			"name": "FlagBone00",
			"translation": [
				0.19291672110557556,
				1.0102840960025787,
				0.10516522824764252
			]
		},
		{
			"name": "FlagBone01",
			"translation": [
				0.44385477900505066,
				1.0102840662002563,
				0.4508921802043915
			]
		},
		{
			"name": "FlagBone02",
			"translation": [
				0.8285397291183472,
				1.0102840960025787,
				0.5404438972473145
			]
		},
		{
			"name": "FlagBone03",
			"translation": [
				1.3658915758132935,
				1.0102840960025787,
				0.422105073928833
			]
		},
		{
			"name": "FlagBone04",
			"translation": [
				1.7087310552597046,
				1.0102841258049011,
				0.17365500330924988
			]
		},
		{
			"name": "FlagBone05",
			"translation": [
				2.437666177749634,
				1.0102841258049011,
				0.15683715045452118
			]
		},
		{
			"name": "FlagBone06",
			"translation": [
				2.8339765071868896,
				1.0102840662002563,
				0.21431683003902435
			]
		},
		{
			"name": "FlagBone07",
			"translation": [
				3.1188113689422607,
				1.0102840662002563,
				0.53892982006073
			]
		},
		{
			"name": "FlagBone08",
			"translation": [
				3.293149948120117,
				1.010284036397934,
				1.2635995149612427
			]
		},
		{
			"name": "FlagBone09",
			"translation": [
				3.4595487117767334,
				1.0102840662002563,
				1.5184370279312134
			]
		},
		{
			"name": "FlagBone10",
			"translation": [
				4.102345943450928,
				1.0102841258049011,
				1.5012636184692383
			]
		},
		{
			"name": "FlagBone11",
			"translation": [
				4.671324729919434,
				1.0102840662002563,
				1.1365846395492554
			]
		},
		{
			"name": "FlagBone12",
			"translation": [
				5.223443984985352,
				1.0102841258049011,
				1.0603232383728027
			]
		},
		{
			"name": "FlagBone13",
			"translation": [
				5.592414379119873,
				1.0102840960025787,
				1.4768617153167725
			]
		},
		{
			"name": "FlagBone14",
			"translation": [
				5.608465671539307,
				1.0102840662002563,
				1.1618624925613403
			]
		},
		{
			"name": "FlagBone15",
			"translation": [
				5.6530537605285645,
				1.010284036397934,
				1.7740026712417603
			]
		},
		{
			"name": "FlagBone16",
			"translation": [
				5.956258296966553,
				1.0102840662002563,
				1.7133615016937256
			]
		},
		{
			"name": "FlagBone17",
			"translation": [
				6.380744934082031,
				1.0102840662002563,
				1.3555798530578613
			]
		},
		{
			"name": "StaticBone"
		},
		{
			"name": "blue_flag_222_base",
			"mesh": 0,
			"skin": 0
		},
		{
			"name": "blue_flag_222",
			"mesh": 1,
			"skin": 0
		},
		{
			"name": "Armature",
			"children": [
				0,
				1,
				2,
				3,
				4,
				5,
				6,
				7,
				8,
				9,
				10,
				11,
				12,
				13,
				14,
				15,
				16,
				17,
				18,
				19,
				20
			]
		}
	],
	"animations": [
		{
			"name": "idle",
			"channels": [
				{
					"sampler": 0,
					"target": {
						"node": 0,
						"path": "translation"
					}
				},
				{
					"sampler": 1,
					"target": {
						"node": 1,
						"path": "translation"
					}
				},
				{
					"sampler": 2,
					"target": {
						"node": 2,
						"path": "translation"
					}
				},
				{
					"sampler": 3,
					"target": {
						"node": 3,
						"path": "translation"
					}
				},
				{
					"sampler": 4,
					"target": {
						"node": 4,
						"path": "translation"
					}
				},
				{
					"sampler": 5,
					"target": {
						"node": 5,
						"path": "translation"
					}
				},
				{
					"sampler": 6,
					"target": {
						"node": 6,
						"path": "translation"
					}
				},
				{
					"sampler": 7,
					"target": {
						"node": 7,
						"path": "translation"
					}
				},
				{
					"sampler": 8,
					"target": {
						"node": 8,
						"path": "translation"
					}
				},
				{
					"sampler": 9,
					"target": {
						"node": 9,
						"path": "translation"
					}
				},
				{
					"sampler": 10,
					"target": {
						"node": 10,
						"path": "translation"
					}
				},
				{
					"sampler": 11,
					"target": {
						"node": 11,
						"path": "translation"
					}
				},
				{
					"sampler": 12,
					"target": {
						"node": 12,
						"path": "translation"
					}
				},
				{
					"sampler": 13,
					"target": {
						"node": 13,
						"path": "translation"
					}
				},
				{
					"sampler": 14,
					"target": {
						"node": 14,
						"path": "translation"
					}
				},
				{
					"sampler": 15,
					"target": {
						"node": 15,
						"path": "translation"
					}
				},
				{
					"sampler": 16,
					"target": {
						"node": 16,
						"path": "translation"
					}
				},
				{
					"sampler": 17,
					"target": {
						"node": 17,
						"path": "translation"
					}
				}
			],
			"samplers": [
				{
					"input": 11,
					"interpolation": "LINEAR",
					"output": 12
				},
				{
					"input": 11,
					"interpolation": "LINEAR",
					"output": 13
				},
				{
					"input": 11,
					"interpolation": "LINEAR",
					"output": 14
				},
				{
					"input": 11,
					"interpolation": "LINEAR",
					"output": 15
				},
				{
					"input": 11,
					"interpolation": "LINEAR",
					"output": 16
				},
				{
					"input": 11,
					"interpolation": "LINEAR",
					"output": 17
				},
				{
					"input": 11,
					"interpolation": "LINEAR",
					"output": 18
				},
				{
					"input": 11,
					"interpolation": "LINEAR",
					"output": 19
				},
				{
					"input": 11,
					"interpolation": "LINEAR",
					"output": 20
				},
				{
					"input": 11,
					"interpolation": "LINEAR",
					"output": 21
				},
				{
					"input": 11,
					"interpolation": "LINEAR",
					"output": 22
				},
				{
					"input": 11,
					"interpolation": "LINEAR",
					"output": 23
				},
				{
					"input": 11,
					"interpolation": "LINEAR",
					"output": 24
				},
				{
					"input": 11,
					"interpolation": "LINEAR",
					"output": 25
				},
				{
					"input": 11,
					"interpolation": "LINEAR",
					"output": 26
				},
				{
					"input": 11,
					"interpolation": "LINEAR",
					"output": 27
				},
				{
					"input": 11,
					"interpolation": "LINEAR",
					"output": 28
				},
				{
					"input": 11,
					"interpolation": "LINEAR",
					"output": 29
				}
			]
		}
	],
	"materials": [
		{
			"doubleSided": true,
			"name": "Material",
			"pbrMetallicRoughness": {
				"baseColorTexture": {
					"index": 0
				},
				"metallicFactor": 0,
				"roughnessFactor": 0.5
			}
		}
	],
	"meshes": [
		{
			"name": "blue_flag_222_base",
			"primitives": [
				{
					"attributes": {
						"POSITION": 0,
						"TEXCOORD_0": 1,
						"JOINTS_0": 8,
						"WEIGHTS_0": 9
					},
					"indices": 2,
					"material": 0
				}
			]
		},
		{
			"name": "blue_flag_222",
			"primitives": [
				{
					"attributes": {
						"POSITION": 3,
						"TEXCOORD_0": 4,
						"JOINTS_0": 6,
						"WEIGHTS_0": 7
					},
					"indices": 5,
					"material": 0
				}
			]
		}
	],
	"textures": [
		{
			"sampler": 0,
			"source": 0
		}
	],
	"images": [
		{
			"mimeType": "image/png",
			"name": "222blue_flag",
			"uri": "222blue_flag.png"
		}
	],
	"skins": [
		{
			"name": "Armature",
			"joints": [
				0,
				1,
				2,
				3,
				4,
				5,
				6,
				7,
				8,
				9,
				10,
				11,
				12,
				13,
				14,
				15,
				16,
				17,
				18
			],
			"inverseBindMatrices": 10
		}
	],
	"accessors": [
		{
			"bufferView": 0,
			"componentType": 5126,
			"count": 16,
			"type": "VEC3",
			"min": [
				-0.23207199573516846,
				0.02770787477493286,
				-0.2430214285850525
			],
			"max": [
				0.22084365785121918,
				1.9928603172302246,
				0.20989421010017395
			]
		},
		{
			"bufferView": 1,
			"componentType": 5126,
			"count": 16,
			"type": "VEC2"
		},
		{
			"bufferView": 2,
			"componentType": 5123,
			"count": 84,
			"type": "SCALAR"
		},
		{
			"bufferView": 3,
			"componentType": 5126,
			"count": 36,
			"type": "VEC3",
			"min": [
				0.19291672110557556,
				0.05548018217086792,
				0.10516522824764252
			],
			"max": [
				6.380744934082031,
				1.9650880098342896,
				1.7740026712417603
			]
		},
		{
			"bufferView": 4,
			"componentType": 5126,
			"count": 36,
			"type": "VEC2"
		},
		{
			"bufferView": 5,
			"componentType": 5123,
			"count": 102,
			"type": "SCALAR"
		},
		{
			"bufferView": 6,
			"componentType": 5121,
			"count": 36,
			"type": "VEC4"
		},
		{
			"bufferView": 7,
			"componentType": 5126,
			"count": 36,
			"type": "VEC4"
		},
		{
			"bufferView": 8,
			"componentType": 5121,
			"count": 16,
			"type": "VEC4"
		},
		{
			"bufferView": 9,
			"componentType": 5126,
			"count": 16,
			"type": "VEC4"
		},
		{
			"bufferView": 10,
			"componentType": 5126,
			"count": 19,
			"type": "MAT4"
		},
		{
			"bufferView": 11,
			"componentType": 5126,
			"count": 25,
			"type": "SCALAR",
			"min": [
				0.0
			],
			"max": [
				0.6
			]
		},
		{
			"bufferView": 12,
			"componentType": 5126,
			"count": 25,
			"type": "VEC3"
		},
		{
			"bufferView": 13,
			"componentType": 5126,
			"count": 25,
			"type": "VEC3"
		},
		{
			"bufferView": 14,
			"componentType": 5126,
			"count": 25,
			"type": "VEC3"
		},
		{
			"bufferView": 15,
			"componentType": 5126,
			"count": 25,
			"type": "VEC3"
		},
		{
			"bufferView": 16,
			"componentType": 5126,
			"count": 25,
			"type": "VEC3"
		},
		{
			"bufferView": 17,
			"componentType": 5126,
			"count": 25,
			"type": "VEC3"
		},
		{
			"bufferView": 18,
			"componentType": 5126,
			"count": 25,
			"type": "VEC3"
		},
		{
			"bufferView": 19,
			"componentType": 5126,
			"count": 25,
			"type": "VEC3"
		},
		{
			"bufferView": 20,
			"componentType": 5126,
			"count": 25,
			"type": "VEC3"
		},
		{
			"bufferView": 21,
			"componentType": 5126,
			"count": 25,
			"type": "VEC3"
		},
		{
			"bufferView": 22,
			"componentType": 5126,
			"count": 25,
			"type": "VEC3"
		},
		{
			"bufferView": 23,
			"componentType": 5126,
			"count": 25,
			"type": "VEC3"
		},
		{
			"bufferView": 24,
			"componentType": 5126,
			"count": 25,
			"type": "VEC3"
		},
		{
			"bufferView": 25,
			"componentType": 5126,
			"count": 25,
			"type": "VEC3"
		},
		{
			"bufferView": 26,
			"componentType": 5126,
			"count": 25,
			"type": "VEC3"
		},
		{
			"bufferView": 27,
			"componentType": 5126,
			"count": 25,
			"type": "VEC3"
		},
		{
			"bufferView": 28,
			"componentType": 5126,
			"count": 25,
			"type": "VEC3"
		},
		{
			"bufferView": 29,
			"componentType": 5126,
			"count": 25,
			"type": "VEC3"
		}
	],
	"bufferViews": [
		{
			"buffer": 0,
			"byteOffset": 0,
			"byteLength": 192,
			"target": 34962
		},
		{
			"buffer": 0,
			"byteOffset": 192,
			"byteLength": 128,
			"target": 34962
		},
		{
			"buffer": 0,
			"byteOffset": 320,
			"byteLength": 168,
			"target": 34963
		},
		{
			"buffer": 0,
			"byteOffset": 488,
			"byteLength": 432,
			"target": 34962
		},
		{
			"buffer": 0,
			"byteOffset": 920,
			"byteLength": 288,
			"target": 34962
		},
		{
			"buffer": 0,
			"byteOffset": 1208,
			"byteLength": 204,
			"target": 34963
		},
		{
			"buffer": 0,
			"byteOffset": 1412,
			"byteLength": 144,
			"target": 34962
		},
		{
			"buffer": 0,
			"byteOffset": 1556,
			"byteLength": 576,
			"target": 34962
		},
		{
			"buffer": 0,
			"byteOffset": 2132,
			"byteLength": 64,
			"target": 34962
		},
		{
			"buffer": 0,
			"byteOffset": 2196,
			"byteLength": 256,
			"target": 34962
		},
		{
			"buffer": 0,
			"byteOffset": 2452,
			"byteLength": 1216
		},
		{
			"buffer": 0,
			"byteOffset": 3668,
			"byteLength": 100
		},
		{
			"buffer": 0,
			"byteOffset": 3768,
			"byteLength": 300
		},
		{
			"buffer": 0,
			"byteOffset": 4068,
			"byteLength": 300
		},
		{
			"buffer": 0,
			"byteOffset": 4368,
			"byteLength": 300
		},
		{
			"buffer": 0,
			"byteOffset": 4668,
			"byteLength": 300
		},
		{
			"buffer": 0,
			"byteOffset": 4968,
			"byteLength": 300
		},
		{
			"buffer": 0,
			"byteOffset": 5268,
			"byteLength": 300
		},
		{
			"buffer": 0,
			"byteOffset": 5568,
			"byteLength": 300
		},
		{
			"buffer": 0,
			"byteOffset": 5868,
			"byteLength": 300
		},
		{
			"buffer": 0,
			"byteOffset": 6168,
			"byteLength": 300
		},
		{
			"buffer": 0,
			"byteOffset": 6468,
			"byteLength": 300
		},
		{
			"buffer": 0,
			"byteOffset": 6768,
			"byteLength": 300
		},
		{
			"buffer": 0,
			"byteOffset": 7068,
			"byteLength": 300
		},
		{
			"buffer": 0,
			"byteOffset": 7368,
			"byteLength": 300
		},
		{
			"buffer": 0,
			"byteOffset": 7668,
			"byteLength": 300
		},
		{
			"buffer": 0,
			"byteOffset": 7968,
			"byteLength": 300
		},
		{
			"buffer": 0,
			"byteOffset": 8268,
			"byteLength": 300
		},
		{
			"buffer": 0,
			"byteOffset": 8568,
			"byteLength": 300
		},
		{
			"buffer": 0,
			"byteOffset": 8868,
			"byteLength": 300
		}
	],
	"samplers": [
		{
			"magFilter": 9728,
			"minFilter": 9984
		}
	],
	"buffers": [
		{
			"byteLength": 9168,
			"uri": "blue_flag_222.bin"
		}
	]
}
