# Blender 3.6.2
# www.blender.org
mtllib book_0x282_05.mtl
o Cube.001
v 0.000000 0.000000 0.375000
v 0.000000 0.583333 0.375000
v 0.000000 0.000000 0.000000
v 0.000000 0.583333 0.000000
v 0.250000 0.000000 0.375000
v 0.250000 0.583333 0.375000
v 0.250000 0.000000 0.000000
v 0.250000 0.583333 0.000000
v 0.062500 0.583333 0.375000
v 0.187500 0.583333 0.375000
v 0.187500 0.000000 0.375000
v 0.062500 0.000000 0.375000
v 0.062500 0.000000 0.312500
v 0.187500 0.000000 0.312500
v 0.062500 0.583333 0.312500
v 0.187500 0.583333 0.312500
vn -1.0000 -0.0000 -0.0000
vn -0.0000 -0.0000 -1.0000
vn 1.0000 -0.0000 -0.0000
vn -0.0000 -0.0000 1.0000
vn -0.0000 -1.0000 -0.0000
vn -0.0000 1.0000 -0.0000
vt 0.279581 0.206963
vt 0.279581 0.501920
vt 0.001968 0.501920
vt 0.001968 0.206963
vt 0.837914 0.169601
vt 0.837914 0.333315
vt 0.681654 0.333315
vt 0.681654 0.169601
vt 0.278727 0.222778
vt 0.278727 0.359664
vt 0.043169 0.359664
vt 0.043169 0.222778
vt 0.358443 0.417400
vt 0.322119 0.417400
vt 0.322119 0.086228
vt 0.358443 0.086228
vt 0.357451 0.086713
vt 0.357451 0.415459
vt 0.323165 0.415459
vt 0.323165 0.086713
vt 0.358846 0.415264
vt 0.358846 0.087434
vt 0.321923 0.087434
vt 0.321923 0.415264
vt 0.319194 0.458232
vt 0.319194 0.168283
vt 0.280810 0.168283
vt 0.280810 0.458232
vt 0.321867 0.086826
vt 0.321867 0.415064
vt 0.358521 0.415064
vt 0.358521 0.086826
vt 0.720644 0.500215
vt 0.720644 0.541610
vt 0.680823 0.541610
vt 0.680823 0.293241
vt 0.840107 0.293241
vt 0.840107 0.541610
vt 0.800286 0.500215
vt 0.800286 0.541610
vt 0.721125 0.541675
vt 0.681436 0.541675
vt 0.721125 0.500356
vt 0.681436 0.293761
vt 0.840190 0.293761
vt 0.840190 0.541675
vt 0.800501 0.500356
vt 0.800501 0.541675
s 0
usemtl Material
f 1/1/1 2/2/1 4/3/1 3/4/1
f 3/5/2 4/6/2 8/7/2 7/8/2
f 7/9/3 8/10/3 6/11/3 5/12/3
f 9/13/4 2/14/4 1/15/4 12/16/4
f 5/17/4 6/18/4 10/19/4 11/20/4
f 9/21/3 12/22/3 13/23/3 15/24/3
f 15/25/4 13/26/4 14/27/4 16/28/4
f 11/29/1 10/30/1 16/31/1 14/32/1
f 13/33/5 12/34/5 1/35/5
f 1/35/5 3/36/5 13/33/5
f 7/37/5 5/38/5 14/39/5
f 5/38/5 11/40/5 14/39/5
f 10/41/6 6/42/6 16/43/6
f 6/42/6 8/44/6 16/43/6
f 7/37/5 14/39/5 13/33/5 3/36/5
f 4/45/6 2/46/6 15/47/6
f 2/46/6 9/48/6 15/47/6
f 15/47/6 16/43/6 8/44/6 4/45/6
