# Blender 3.6.2
# www.blender.org
mtllib book_0x282_27.mtl
o Cube.001
v 0.000000 0.000000 0.437500
v 0.000000 0.000000 0.000000
v 1.062500 0.000000 0.437500
v 1.062500 0.000000 0.000000
v 0.062500 0.166667 0.437500
v 0.000000 0.083333 0.437500
v 0.062500 0.083333 0.437500
v 0.000000 0.083333 0.000000
v 0.062500 0.166667 0.000000
v 0.062500 0.083333 0.000000
v 1.062500 0.083333 0.437500
v 1.000000 0.166667 0.437500
v 1.000000 0.083333 0.437500
v 1.000000 0.166667 0.000000
v 1.062500 0.083333 0.000000
v 1.000000 0.083333 0.000000
v 0.562500 0.166667 0.437500
v 0.500000 0.166667 0.437500
v 0.562500 0.083333 0.437500
v 0.500000 0.083333 0.437500
v 0.500000 0.166667 0.000000
v 0.562500 0.166667 0.000000
v 0.500000 0.083333 0.000000
v 0.562500 0.083333 0.000000
vn -0.0000 -0.0000 -1.0000
vn 1.0000 -0.0000 -0.0000
vn -1.0000 -0.0000 -0.0000
vn -0.0000 -1.0000 -0.0000
vn -0.0000 1.0000 -0.0000
vn -0.0000 -0.0000 1.0000
vt 0.519875 0.666699
vt 0.479858 0.666699
vt 0.159723 0.625927
vt 0.160300 0.667441
vt 0.199888 0.667441
vt 0.199888 0.958111
vt 0.160300 0.958111
vt 0.802164 0.667783
vt 0.836576 0.667783
vt 0.836576 0.956528
vt 0.802164 0.956528
vt 0.044886 0.211268
vt 0.278289 0.211268
vt 0.278289 0.374601
vt 0.044886 0.374601
vt 0.763700 1.000072
vt 0.763700 0.710894
vt 0.800215 0.710894
vt 0.800215 1.000072
vt 0.838499 0.667917
vt 0.838499 0.956097
vt 0.801716 0.956097
vt 0.801716 0.667917
vt 0.237740 0.710374
vt 0.237740 0.999065
vt 0.201362 0.999065
vt 0.201362 0.710374
vt 0.199694 0.668530
vt 0.199694 0.957031
vt 0.161910 0.957031
vt 0.161910 0.668530
vt 0.200811 0.709055
vt 0.479248 0.709055
vt 0.479248 1.000098
vt 0.200811 1.000098
vt 0.521897 0.712312
vt 0.799331 0.712312
vt 0.799331 1.000000
vt 0.521897 1.000000
vt 0.557805 0.710052
vt 0.557805 1.000000
vt 0.522402 1.000000
vt 0.522402 0.710052
vt 0.519270 0.668805
vt 0.519270 0.957873
vt 0.481526 0.957873
vt 0.481526 0.668805
vt 0.478958 0.708646
vt 0.478958 1.000180
vt 0.442722 1.000180
vt 0.442722 0.708646
vt 0.520092 0.666959
vt 0.480148 0.666959
vt 0.160597 0.625613
vt 0.840009 0.625927
vt 0.840009 0.666699
vt 0.799993 0.666699
vt 0.839644 0.625613
vt 0.199740 0.666699
vt 0.159723 0.666699
vt 0.519875 0.707472
vt 0.799993 0.707472
vt 0.839644 0.666959
vt 0.799700 0.666959
vt 0.479858 0.707472
vt 0.199740 0.707472
vt 0.200541 0.666959
vt 0.160597 0.666959
vt 0.520092 0.708306
vt 0.799700 0.708306
vt 0.480148 0.708306
vt 0.200541 0.708306
s 0
usemtl Material.002
f 23/1/1 24/2/1 4/3/1
f 4/4/2 15/5/2 11/6/2 3/7/2
f 1/8/3 6/9/3 8/10/3 2/11/3
f 2/12/4 4/13/4 3/14/4 1/15/4
f 5/16/3 9/17/3 10/18/3 7/19/3
f 7/20/5 10/21/5 8/22/5 6/23/5
f 14/24/2 12/25/2 13/26/2 16/27/2
f 16/28/5 13/29/5 11/30/5 15/31/5
f 14/32/5 22/33/5 17/34/5 12/35/5
f 21/36/5 9/37/5 5/38/5 18/39/5
f 21/40/2 18/41/2 20/42/2 23/43/2
f 23/44/5 20/45/5 19/46/5 24/47/5
f 24/48/3 19/49/3 17/50/3 22/51/3
f 19/52/6 20/53/6 1/54/6
f 4/3/1 2/55/1 23/1/1
f 2/55/1 8/56/1 10/57/1
f 1/54/6 3/58/6 19/52/6
f 2/55/1 10/57/1 23/1/1
f 16/59/1 15/60/1 4/3/1
f 21/61/1 23/1/1 10/57/1 9/62/1
f 3/58/6 11/63/6 13/64/6
f 24/2/1 16/59/1 4/3/1
f 24/2/1 22/65/1 14/66/1 16/59/1
f 3/58/6 13/64/6 19/52/6
f 7/67/6 6/68/6 1/54/6
f 17/69/6 19/52/6 13/64/6 12/70/6
f 20/53/6 7/67/6 1/54/6
f 20/53/6 18/71/6 5/72/6 7/67/6
