# Blender 3.6.2
# www.blender.org
mtllib book_0x282_23.mtl
o Cube.001
v 0.000000 0.000000 0.500000
v 0.000000 0.583333 0.500000
v 0.000000 0.000000 0.000000
v 0.000000 0.583333 0.000000
v 0.187500 0.000000 0.500000
v 0.187500 0.583333 0.500000
v 0.187500 0.000000 0.000000
v 0.187500 0.583333 0.000000
v 0.062500 0.583333 0.500000
v 0.125000 0.583333 0.500000
v 0.125000 0.000000 0.500000
v 0.062500 0.000000 0.500000
v 0.062500 0.000000 0.437500
v 0.125000 0.000000 0.437500
v 0.062500 0.583333 0.437500
v 0.125000 0.583333 0.437500
vn -1.0000 -0.0000 -0.0000
vn -0.0000 -0.0000 -1.0000
vn 1.0000 -0.0000 -0.0000
vn -0.0000 -0.0000 1.0000
vn -0.0000 -1.0000 -0.0000
vn -0.0000 1.0000 -0.0000
vt 0.319405 0.211605
vt 0.319405 0.498457
vt 0.004699 0.498457
vt 0.004699 0.211605
vt 0.839194 0.004563
vt 0.839194 0.206958
vt 0.720346 0.206958
vt 0.720346 0.004563
vt 0.929318 0.235677
vt 0.986136 0.235677
vt 0.986136 0.485677
vt 0.929318 0.485677
vt 0.278772 0.500459
vt 0.278772 0.209481
vt 0.318696 0.209481
vt 0.318696 0.500459
vt 0.398650 0.130232
vt 0.398650 0.419583
vt 0.362175 0.419583
vt 0.362175 0.130232
vt 0.394895 0.416051
vt 0.394895 0.131099
vt 0.364895 0.131099
vt 0.364895 0.416051
vt 0.357692 0.455288
vt 0.357692 0.165189
vt 0.320424 0.165189
vt 0.320424 0.455288
vt 0.364895 0.417910
vt 0.394895 0.417910
vt 0.394895 0.130662
vt 0.364895 0.130662
vt 0.761361 0.499956
vt 0.761361 0.540555
vt 0.722278 0.540555
vt 0.722278 0.170291
vt 0.839525 0.170291
vt 0.839525 0.540555
vt 0.800443 0.499956
vt 0.800443 0.540555
vt 0.761852 0.500354
vt 0.761852 0.542969
vt 0.722500 0.542969
vt 0.722500 0.169244
vt 0.840556 0.169244
vt 0.840556 0.542969
vt 0.801204 0.500354
vt 0.801204 0.542969
s 0
usemtl Material
f 1/1/1 2/2/1 4/3/1 3/4/1
f 3/5/2 4/6/2 8/7/2 7/8/2
f 7/9/3 8/10/3 6/11/3 5/12/3
f 2/13/4 1/14/4 12/15/4 9/16/4
f 5/17/4 6/18/4 10/19/4 11/20/4
f 9/21/3 12/22/3 13/23/3 15/24/3
f 15/25/4 13/26/4 14/27/4 16/28/4
f 10/29/1 16/30/1 14/31/1 11/32/1
f 13/33/5 12/34/5 1/35/5
f 1/35/5 3/36/5 13/33/5
f 7/37/5 5/38/5 14/39/5
f 5/38/5 11/40/5 14/39/5
f 7/37/5 14/39/5 13/33/5 3/36/5
f 16/41/6 10/42/6 6/43/6
f 6/43/6 8/44/6 16/41/6
f 4/45/6 2/46/6 15/47/6
f 2/46/6 9/48/6 15/47/6
f 4/45/6 15/47/6 16/41/6 8/44/6
