# Blender 3.6.2
# www.blender.org
mtllib book_642_12.mtl
o Cube.001
v 0.837500 0.000000 0.000000
v 0.837500 0.000000 0.875000
v -1.287500 0.000000 0.000000
v -1.287500 0.000000 0.875000
v 0.712500 0.333333 0.000000
v 0.837500 0.166667 0.000000
v 0.712500 0.166667 0.000000
v 0.837500 0.166667 0.875000
v 0.712500 0.333333 0.875000
v 0.712500 0.166667 0.875000
v -1.287500 0.166667 0.000000
v -1.162500 0.333333 0.000000
v -1.162500 0.166667 0.000000
v -1.162500 0.333333 0.875000
v -1.287500 0.166667 0.875000
v -1.162500 0.166667 0.875000
v -0.287500 0.333333 0.000000
v -0.162500 0.333333 0.000000
v -0.287500 0.166667 0.000000
v -0.162500 0.166667 0.000000
v -0.162500 0.333333 0.875000
v -0.287500 0.333333 0.875000
v -0.162500 0.166667 0.875000
v -0.287500 0.166667 0.875000
vn -0.0000 -0.0000 1.0000
vn -1.0000 -0.0000 -0.0000
vn 1.0000 -0.0000 -0.0000
vn -0.0000 -1.0000 -0.0000
vn -0.0000 1.0000 -0.0000
vn -0.0000 -0.0000 -1.0000
vt 0.519875 0.666699
vt 0.479858 0.666699
vt 0.159723 0.625927
vt 0.199888 0.667441
vt 0.160300 0.958111
vt 0.160300 0.667441
vt 0.836576 0.667783
vt 0.802164 0.956528
vt 0.802164 0.667783
vt 0.278289 0.211268
vt 0.044886 0.374601
vt 0.044886 0.211268
vt 0.763700 0.710894
vt 0.800215 1.000072
vt 0.763700 1.000072
vt 0.838499 0.956097
vt 0.801716 0.667917
vt 0.838499 0.667917
vt 0.237740 0.999065
vt 0.201362 0.710374
vt 0.237740 0.710374
vt 0.199694 0.957031
vt 0.161910 0.668530
vt 0.199694 0.668530
vt 0.479248 0.709055
vt 0.200811 1.000098
vt 0.200811 0.709055
vt 0.799331 0.712312
vt 0.521897 1.000000
vt 0.521897 0.712312
vt 0.557805 1.000000
vt 0.522402 0.710052
vt 0.557805 0.710052
vt 0.519270 0.668805
vt 0.481526 0.957873
vt 0.481526 0.668805
vt 0.478958 1.000180
vt 0.442722 0.708646
vt 0.478958 0.708646
vt 0.520092 0.666959
vt 0.480148 0.666959
vt 0.160597 0.625613
vt 0.840009 0.625927
vt 0.840009 0.666699
vt 0.799993 0.666699
vt 0.839644 0.625613
vt 0.199740 0.666699
vt 0.159723 0.666699
vt 0.799993 0.707472
vt 0.519875 0.707472
vt 0.839644 0.666959
vt 0.799700 0.666959
vt 0.479858 0.707472
vt 0.200541 0.666959
vt 0.160597 0.666959
vt 0.799700 0.708306
vt 0.520092 0.708306
vt 0.480148 0.708306
vt 0.199888 0.958111
vt 0.836576 0.956528
vt 0.278289 0.374601
vt 0.800215 0.710894
vt 0.801716 0.956097
vt 0.201362 0.999065
vt 0.161910 0.957031
vt 0.479248 1.000098
vt 0.799331 1.000000
vt 0.522402 1.000000
vt 0.519270 0.957873
vt 0.442722 1.000180
vt 0.199740 0.707472
vt 0.200541 0.708306
s 0
usemtl Material.002
f 23/1/1 24/2/1 4/3/1
f 15/4/2 3/5/2 4/6/2
f 6/7/3 2/8/3 1/9/3
f 4/10/4 1/11/4 2/12/4
f 9/13/3 7/14/3 5/15/3
f 10/16/5 6/17/5 7/18/5
f 12/19/2 16/20/2 14/21/2
f 13/22/5 15/23/5 16/24/5
f 22/25/5 12/26/5 14/27/5
f 9/28/5 18/29/5 21/30/5
f 18/31/2 23/32/2 21/33/2
f 23/34/5 19/35/5 24/36/5
f 19/37/3 22/38/3 24/39/3
f 19/40/6 20/41/6 1/42/6
f 4/3/1 2/43/1 23/1/1
f 2/43/1 8/44/1 10/45/1
f 1/42/6 3/46/6 19/40/6
f 2/43/1 10/45/1 23/1/1
f 16/47/1 15/48/1 4/3/1
f 23/1/1 9/49/1 21/50/1
f 3/46/6 11/51/6 13/52/6
f 24/2/1 16/47/1 4/3/1
f 22/53/1 16/47/1 24/2/1
f 3/46/6 13/52/6 19/40/6
f 7/54/6 6/55/6 1/42/6
f 19/40/6 12/56/6 17/57/6
f 20/41/6 7/54/6 1/42/6
f 18/58/6 7/54/6 20/41/6
f 15/4/2 11/59/2 3/5/2
f 6/7/3 8/60/3 2/8/3
f 4/10/4 3/61/4 1/11/4
f 9/13/3 10/62/3 7/14/3
f 10/16/5 8/63/5 6/17/5
f 12/19/2 13/64/2 16/20/2
f 13/22/5 11/65/5 15/23/5
f 22/25/5 17/66/5 12/26/5
f 9/28/5 5/67/5 18/29/5
f 18/31/2 20/68/2 23/32/2
f 23/34/5 20/69/5 19/35/5
f 19/37/3 17/70/3 22/38/3
f 23/1/1 10/45/1 9/49/1
f 22/53/1 14/71/1 16/47/1
f 19/40/6 13/52/6 12/56/6
f 18/58/6 5/72/6 7/54/6
