# Blender 3.6.2
# www.blender.org
mtllib book_0x282_06.mtl
o Cube
v 1.187500 0.000000 0.000000
v 1.187500 0.000000 0.437500
v 0.000000 0.000000 0.000000
v 0.000000 0.000000 0.437500
v 1.125000 0.166667 0.000000
v 1.187500 0.083333 0.000000
v 1.125000 0.083333 0.000000
v 1.187500 0.083333 0.437500
v 1.125000 0.166667 0.437500
v 1.125000 0.083333 0.437500
v 0.000000 0.083333 0.000000
v 0.062500 0.166667 0.000000
v 0.062500 0.083333 0.000000
v 0.062500 0.166667 0.437500
v 0.000000 0.083333 0.437500
v 0.062500 0.083333 0.437500
v 0.625000 0.166667 0.437500
v 0.562500 0.166667 0.437500
v 0.625000 0.083333 0.437500
v 0.562500 0.083333 0.437500
v 0.562500 0.166667 0.000000
v 0.625000 0.166667 0.000000
v 0.562500 0.083333 0.000000
v 0.625000 0.083333 0.000000
vn -0.0000 1.0000 -0.0000
vn -1.0000 -0.0000 -0.0000
vn -0.0000 -0.0000 -1.0000
vn -0.0000 -1.0000 -0.0000
vn -0.0000 -0.0000 1.0000
vn 1.0000 -0.0000 -0.0000
vt 0.159585 0.712897
vt 0.482959 0.712897
vt 0.482959 0.998435
vt 0.159585 0.998435
vt 0.843399 0.672517
vt 0.877625 0.672517
vt 0.877625 0.961002
vt 0.843399 0.961002
vt 0.479432 0.667120
vt 0.159140 0.666396
vt 0.120057 0.625143
vt 0.125000 0.500000
vt 0.375000 0.500000
vt 0.375000 0.750000
vt 0.125000 0.750000
vt 0.481167 0.667249
vt 0.159461 0.667269
vt 0.119460 0.626645
vt 0.122304 0.668938
vt 0.160491 0.668938
vt 0.160491 0.956693
vt 0.122304 0.956693
vt 0.199276 0.709635
vt 0.199276 0.959635
vt 0.160625 0.959635
vt 0.160625 0.709635
vt 0.159194 0.670381
vt 0.159194 0.958381
vt 0.121495 0.958381
vt 0.121495 0.670381
vt 0.806721 0.958346
vt 0.806721 0.708346
vt 0.836326 0.708346
vt 0.836326 0.958346
vt 0.842357 0.962548
vt 0.842357 0.669100
vt 0.879702 0.669100
vt 0.879702 0.962548
vt 0.559052 0.709793
vt 0.559052 0.959793
vt 0.520890 0.959793
vt 0.520890 0.709793
vt 0.519118 0.668129
vt 0.519118 0.958187
vt 0.480391 0.958187
vt 0.480391 0.668129
vt 0.480718 0.710827
vt 0.480718 0.960827
vt 0.442837 0.960827
vt 0.442837 0.710827
vt 0.521958 0.707029
vt 0.842116 0.707029
vt 0.842116 1.002079
vt 0.521958 1.002079
vt 0.879904 0.625420
vt 0.518272 0.666445
vt 0.879863 0.666821
vt 0.839976 0.666821
vt 0.480683 0.667640
vt 0.480326 0.712758
vt 0.161077 0.713673
vt 0.161077 0.667664
vt 0.120206 0.666719
vt 0.519702 0.709948
vt 0.519326 0.665788
vt 0.840139 0.666429
vt 0.839913 0.709948
vt 0.880662 0.626645
vt 0.520310 0.667484
vt 0.880267 0.668054
vt 0.841452 0.668054
vt 0.523597 0.708934
vt 0.522997 0.667596
vt 0.842202 0.667968
vt 0.840642 0.709601
vt 0.119460 0.667269
vt 0.480262 0.666309
vt 0.479642 0.711241
vt 0.158854 0.711241
vt 0.159248 0.665532
s 0
usemtl Material
f 5/1/1 22/2/1 17/3/1 9/4/1
f 4/5/2 15/6/2 11/7/2 3/8/2
f 24/9/3 7/10/3 1/11/3
f 3/12/4 1/13/4 2/14/4 4/15/4
f 20/16/5 16/17/5 4/18/5
f 1/19/6 6/20/6 8/21/6 2/22/6
f 5/23/6 9/24/6 10/25/6 7/26/6
f 7/27/1 10/28/1 8/29/1 6/30/1
f 14/31/2 12/32/2 13/33/2 16/34/2
f 16/35/1 13/36/1 11/37/1 15/38/1
f 21/39/6 18/40/6 20/41/6 23/42/6
f 23/43/1 20/44/1 19/45/1 24/46/1
f 24/47/2 19/48/2 17/49/2 22/50/2
f 21/51/1 12/52/1 14/53/1 18/54/1
f 1/11/3 3/55/3 23/56/3
f 3/55/3 11/57/3 13/58/3
f 20/59/5 18/60/5 14/61/5 16/62/5
f 3/55/3 13/58/3 23/56/3
f 7/10/3 6/63/3 1/11/3
f 17/64/5 19/65/5 10/66/5 9/67/5
f 23/56/3 24/9/3 1/11/3
f 4/18/5 2/68/5 19/69/5
f 2/68/5 8/70/5 10/71/5
f 21/72/3 23/73/3 13/74/3 12/75/3
f 2/68/5 10/71/5 19/69/5
f 16/17/5 15/76/5 4/18/5
f 19/69/5 20/16/5 4/18/5
f 24/77/3 22/78/3 5/79/3 7/80/3
