# Blender 3.6.2
# www.blender.org
mtllib book_642_13.mtl
o Cube.001
v 0.875000 0.000000 0.875000
v 0.875000 0.333333 0.875000
v 0.875000 0.000000 -0.125000
v 0.875000 0.333333 -0.125000
v 0.875000 0.166667 0.875000
v 0.875000 0.500000 0.875000
v 0.875000 0.500000 -0.125000
v 0.875000 0.166667 -0.125000
v 0.125000 0.500000 0.875000
v -0.000000 0.375000 0.875000
v 0.100613 0.497598 0.875000
v 0.077164 0.490485 0.875000
v 0.055553 0.478934 0.875000
v 0.036611 0.463388 0.875000
v 0.021066 0.444446 0.875000
v 0.009515 0.422835 0.875000
v 0.002402 0.399386 0.875000
v -0.000000 0.375000 -0.125000
v 0.125000 0.500000 -0.125000
v 0.002402 0.399386 -0.125000
v 0.009515 0.422835 -0.125000
v 0.021066 0.444446 -0.125000
v 0.036611 0.463388 -0.125000
v 0.055553 0.478934 -0.125000
v 0.077164 0.490485 -0.125000
v 0.100613 0.497598 -0.125000
v 0.000000 0.125000 0.875000
v 0.125000 0.000000 0.875000
v 0.002402 0.100614 0.875000
v 0.009515 0.077165 0.875000
v 0.021066 0.055554 0.875000
v 0.036612 0.036612 0.875000
v 0.055554 0.021066 0.875000
v 0.077165 0.009515 0.875000
v 0.100614 0.002402 0.875000
v 0.125000 0.000000 -0.125000
v 0.000000 0.125000 -0.125000
v 0.100614 0.002402 -0.125000
v 0.077165 0.009515 -0.125000
v 0.055554 0.021066 -0.125000
v 0.036612 0.036612 -0.125000
v 0.021066 0.055554 -0.125000
v 0.009515 0.077165 -0.125000
v 0.002402 0.100614 -0.125000
v 0.125000 0.333327 0.875000
v 0.055554 0.333317 0.875000
v 0.125000 0.166652 0.875000
v 0.055554 0.166639 0.875000
v 0.125000 0.333329 -0.125000
v 0.055554 0.333327 -0.125000
v 0.125000 0.166655 -0.125000
v 0.055554 0.166647 -0.125000
vn -0.0000 -1.0000 -0.0000
vn -0.0000 -0.0000 -1.0000
vn 1.0000 -0.0000 -0.0000
vn -0.0000 -0.0000 1.0000
vn -0.0000 1.0000 -0.0000
vn -0.0980 0.9952 -0.0000
vn -0.2903 0.9569 -0.0000
vn -0.4714 0.8819 -0.0000
vn -0.6344 0.7730 -0.0000
vn -0.7730 0.6344 -0.0000
vn -0.8819 0.4714 -0.0000
vn -0.9569 0.2903 -0.0000
vn -0.9952 0.0980 -0.0000
vn -0.0980 -0.9952 -0.0000
vn -0.2903 -0.9569 -0.0000
vn -0.4714 -0.8819 -0.0000
vn -0.6344 -0.7730 -0.0000
vn -0.7730 -0.6344 -0.0000
vn -0.8819 -0.4714 -0.0000
vn -0.9569 -0.2903 -0.0000
vn -0.9952 -0.0980 -0.0000
vn -1.0000 -0.0000 -0.0000
vt 0.040125 0.214146
vt 0.279007 0.371271
vt 0.040125 0.371271
vt 0.279952 0.208276
vt 0.040448 0.166674
vt 0.279952 0.166671
vt 0.320990 0.415607
vt 0.358954 0.126634
vt 0.358954 0.415607
vt 0.359461 0.416554
vt 0.320211 0.125242
vt 0.359461 0.125242
vt 0.080035 0.166848
vt 0.319856 0.125238
vt 0.319855 0.166850
vt 0.279960 0.499676
vt 0.040297 0.208371
vt 0.279960 0.208371
vt 0.319918 0.458365
vt 0.280176 0.125218
vt 0.319918 0.125218
vt 0.040297 0.499676
vt 0.032505 0.208371
vt 0.032505 0.499676
vt 0.025012 0.208371
vt 0.025012 0.499676
vt 0.018106 0.208371
vt 0.018106 0.499676
vt 0.012053 0.208371
vt 0.012053 0.499676
vt 0.007085 0.208371
vt 0.007085 0.499676
vt 0.003394 0.208371
vt 0.003394 0.499676
vt 0.001121 0.208371
vt 0.001121 0.499676
vt 0.000354 0.208371
vt 0.032358 0.214146
vt 0.032358 0.371271
vt 0.024889 0.214146
vt 0.024889 0.371271
vt 0.018006 0.214146
vt 0.018006 0.371271
vt 0.011973 0.214146
vt 0.011973 0.371271
vt 0.007022 0.214146
vt 0.007022 0.371271
vt 0.003342 0.214146
vt 0.003342 0.371271
vt 0.001077 0.214146
vt 0.001077 0.371271
vt 0.000312 0.214146
vt 0.720253 0.166848
vt 0.799988 0.333293
vt 0.720253 0.333293
vt 0.024843 0.127588
vt 0.032230 0.125812
vt 0.039912 0.166821
vt 0.007171 0.139083
vt 0.012069 0.134354
vt 0.018035 0.166818
vt 0.274034 0.166729
vt 0.130600 0.208230
vt 0.130600 0.166728
vt 0.024843 0.247673
vt 0.018035 0.244789
vt 0.039912 0.208435
vt 0.130600 0.125225
vt 0.274034 0.083728
vt 0.274034 0.125228
vt 0.080035 0.125234
vt 0.057829 0.166845
vt 0.057829 0.125231
vt 0.024753 0.127540
vt 0.032100 0.125759
vt 0.039742 0.166904
vt 0.017981 0.208654
vt 0.012046 0.241225
vt 0.007175 0.236481
vt 0.057524 0.125105
vt 0.079762 0.166596
vt 0.057524 0.166598
vt 0.279952 0.125066
vt 0.040448 0.083462
vt 0.279952 0.083462
vt 0.319925 0.166593
vt 0.079761 0.125105
vt 0.319925 0.125103
vt 0.024753 0.248012
vt 0.017981 0.245119
vt 0.039742 0.208652
vt 0.279007 0.214146
vt 0.040448 0.208276
vt 0.320990 0.126634
vt 0.320211 0.416554
vt 0.280176 0.458365
vt 0.000354 0.499676
vt 0.000312 0.371271
vt 0.799988 0.166848
vt 0.039912 0.125213
vt 0.018035 0.130472
vt 0.018035 0.208433
vt 0.000535 0.156422
vt 0.012068 0.240908
vt 0.001292 0.224928
vt 0.003533 0.230783
vt 0.007171 0.236179
vt 0.000535 0.218840
vt 0.001292 0.150333
vt 0.003533 0.144479
vt 0.274034 0.208230
vt 0.039912 0.250049
vt 0.032230 0.249449
vt 0.130600 0.083728
vt 0.039741 0.125157
vt 0.017981 0.166905
vt 0.017981 0.130434
vt 0.012046 0.134327
vt 0.007174 0.139072
vt 0.000574 0.219086
vt 0.003555 0.144485
vt 0.001326 0.150359
vt 0.000573 0.156467
vt 0.001326 0.225194
vt 0.003555 0.231068
vt 0.040448 0.125067
vt 0.039742 0.250396
vt 0.032100 0.249794
s 0
usemtl Material
f 36/1/1 1/2/1 28/3/1
f 3/4/2 51/5/2 8/6/2
f 7/7/3 2/8/3 4/9/3
f 3/10/3 5/11/3 1/12/3
f 45/13/4 5/14/4 2/15/4
f 7/16/5 9/17/5 6/18/5
f 2/19/3 8/20/3 4/21/3
f 19/22/6 11/23/6 9/17/6
f 26/24/7 12/25/7 11/23/7
f 25/26/8 13/27/8 12/25/8
f 24/28/9 14/29/9 13/27/9
f 23/30/10 15/31/10 14/29/10
f 22/32/11 16/33/11 15/31/11
f 21/34/12 17/35/12 16/33/12
f 20/36/13 10/37/13 17/35/13
f 28/3/14 38/38/14 36/1/14
f 35/39/15 39/40/15 38/38/15
f 34/41/16 40/42/16 39/40/16
f 33/43/17 41/44/17 40/42/17
f 32/45/18 42/46/18 41/44/18
f 31/47/19 43/48/19 42/46/19
f 30/49/20 44/50/20 43/48/20
f 29/51/21 37/52/21 44/50/21
f 27/53/22 18/54/22 37/55/22
f 34/56/4 35/57/4 47/58/4
f 31/59/4 32/60/4 48/61/4
f 2/62/4 9/63/4 45/64/4
f 12/65/4 13/66/4 45/67/4
f 47/68/4 1/69/4 5/70/4
f 47/71/4 46/72/4 48/73/4
f 25/74/2 26/75/2 49/76/2
f 52/77/2 41/78/2 42/79/2
f 50/80/2 51/81/2 52/82/2
f 4/83/2 19/84/2 7/85/2
f 8/86/2 49/87/2 4/88/2
f 39/89/2 40/90/2 51/91/2
f 36/1/1 3/92/1 1/2/1
f 3/4/2 36/93/2 51/5/2
f 7/7/3 6/94/3 2/8/3
f 3/10/3 8/95/3 5/11/3
f 45/13/4 47/71/4 5/14/4
f 7/16/5 19/22/5 9/17/5
f 2/19/3 5/96/3 8/20/3
f 19/22/6 26/24/6 11/23/6
f 26/24/7 25/26/7 12/25/7
f 25/26/8 24/28/8 13/27/8
f 24/28/9 23/30/9 14/29/9
f 23/30/10 22/32/10 15/31/10
f 22/32/11 21/34/11 16/33/11
f 21/34/12 20/36/12 17/35/12
f 20/36/13 18/97/13 10/37/13
f 28/3/14 35/39/14 38/38/14
f 35/39/15 34/41/15 39/40/15
f 34/41/16 33/43/16 40/42/16
f 33/43/17 32/45/17 41/44/17
f 32/45/18 31/47/18 42/46/18
f 31/47/19 30/49/19 43/48/19
f 30/49/20 29/51/20 44/50/20
f 29/51/21 27/98/21 37/52/21
f 27/53/22 10/99/22 18/54/22
f 35/57/4 28/100/4 47/58/4
f 47/58/4 48/61/4 33/101/4
f 33/101/4 34/56/4 47/58/4
f 32/60/4 33/101/4 48/61/4
f 48/61/4 46/102/4 27/103/4
f 46/102/4 13/66/4 14/104/4
f 17/105/4 46/102/4 16/106/4
f 14/104/4 15/107/4 46/102/4
f 15/107/4 16/106/4 46/102/4
f 17/105/4 10/108/4 46/102/4
f 10/108/4 27/103/4 46/102/4
f 27/103/4 29/109/4 48/61/4
f 29/109/4 30/110/4 48/61/4
f 30/110/4 31/59/4 48/61/4
f 2/62/4 6/111/4 9/63/4
f 13/66/4 46/102/4 45/67/4
f 45/67/4 9/112/4 11/113/4
f 11/113/4 12/65/4 45/67/4
f 47/68/4 28/114/4 1/69/4
f 47/71/4 45/13/4 46/72/4
f 26/75/2 19/115/2 49/76/2
f 49/76/2 50/116/2 24/117/2
f 24/117/2 25/74/2 49/76/2
f 23/118/2 24/117/2 50/116/2
f 52/77/2 40/90/2 41/78/2
f 23/118/2 50/116/2 22/119/2
f 50/116/2 52/77/2 37/120/2
f 21/121/2 50/116/2 20/122/2
f 21/121/2 22/119/2 50/116/2
f 18/123/2 20/122/2 50/116/2
f 44/124/2 37/120/2 52/77/2
f 37/120/2 18/123/2 50/116/2
f 42/79/2 43/125/2 52/77/2
f 43/125/2 44/124/2 52/77/2
f 50/80/2 49/87/2 51/81/2
f 4/83/2 49/126/2 19/84/2
f 8/86/2 51/81/2 49/87/2
f 40/90/2 52/77/2 51/91/2
f 51/91/2 36/127/2 38/128/2
f 38/128/2 39/89/2 51/91/2
