# Blender 3.6.2
# www.blender.org
mtllib book_642_21.mtl
o Cube
v -1.479166 0.000000 0.875000
v -1.479166 0.000000 0.000000
v 0.895834 0.000000 0.875000
v 0.895834 0.000000 0.000000
v -1.354166 0.333333 0.875000
v -1.479166 0.166667 0.875000
v -1.354166 0.166667 0.875000
v -1.479166 0.166667 0.000000
v -1.354166 0.333333 0.000000
v -1.354166 0.166667 0.000000
v 0.895834 0.166667 0.875000
v 0.770834 0.333333 0.875000
v 0.770834 0.166667 0.875000
v 0.770834 0.333333 0.000000
v 0.895834 0.166667 0.000000
v 0.770834 0.166667 0.000000
v -0.354166 0.333333 0.000000
v -0.229166 0.333333 0.000000
v -0.354166 0.166667 0.000000
v -0.229166 0.166667 0.000000
v -0.229166 0.333333 0.875000
v -0.354166 0.333333 0.875000
v -0.229166 0.166667 0.875000
v -0.354166 0.166667 0.875000
vn -0.0000 1.0000 -0.0000
vn 1.0000 -0.0000 -0.0000
vn -0.0000 -0.0000 1.0000
vn -0.0000 -1.0000 -0.0000
vn -0.0000 -0.0000 -1.0000
vn -1.0000 -0.0000 -0.0000
vt 0.482959 0.712897
vt 0.159585 0.998435
vt 0.159585 0.712897
vt 0.877625 0.672517
vt 0.843399 0.961002
vt 0.843399 0.672517
vt 0.479432 0.667120
vt 0.159140 0.666396
vt 0.120057 0.625143
vt 0.125000 0.500000
vt 0.375000 0.750000
vt 0.125000 0.750000
vt 0.481167 0.667249
vt 0.159461 0.667269
vt 0.119460 0.626645
vt 0.160491 0.668938
vt 0.122304 0.956693
vt 0.122304 0.668938
vt 0.199276 0.959635
vt 0.160625 0.709635
vt 0.199276 0.709635
vt 0.159194 0.958381
vt 0.121495 0.670381
vt 0.159194 0.670381
vt 0.806721 0.708346
vt 0.836326 0.958346
vt 0.806721 0.958346
vt 0.842357 0.669100
vt 0.879702 0.962548
vt 0.842357 0.962548
vt 0.559052 0.959793
vt 0.520890 0.709793
vt 0.559052 0.709793
vt 0.519118 0.958187
vt 0.480391 0.668129
vt 0.519118 0.668129
vt 0.480718 0.710827
vt 0.442837 0.960827
vt 0.442837 0.710827
vt 0.842116 0.707029
vt 0.521958 1.002079
vt 0.521958 0.707029
vt 0.879904 0.625420
vt 0.518272 0.666445
vt 0.879863 0.666821
vt 0.839976 0.666821
vt 0.480326 0.712758
vt 0.161077 0.667664
vt 0.480683 0.667640
vt 0.120206 0.666719
vt 0.519326 0.665788
vt 0.839913 0.709948
vt 0.519702 0.709948
vt 0.880662 0.626645
vt 0.520310 0.667484
vt 0.880267 0.668054
vt 0.841452 0.668054
vt 0.522997 0.667596
vt 0.840642 0.709601
vt 0.523597 0.708934
vt 0.119460 0.667269
vt 0.479642 0.711241
vt 0.159248 0.665532
vt 0.480262 0.666309
vt 0.482959 0.998435
vt 0.877625 0.961002
vt 0.375000 0.500000
vt 0.160491 0.956693
vt 0.160625 0.959635
vt 0.121495 0.958381
vt 0.836326 0.708346
vt 0.879702 0.669100
vt 0.520890 0.959793
vt 0.480391 0.958187
vt 0.480718 0.960827
vt 0.842116 1.002079
vt 0.161077 0.713673
vt 0.840139 0.666429
vt 0.842202 0.667968
vt 0.158854 0.711241
s 0
usemtl Material
f 22/1/1 9/2/1 5/3/1
f 15/4/2 3/5/2 4/6/2
f 24/7/3 7/8/3 1/9/3
f 3/10/4 2/11/4 4/12/4
f 20/13/5 16/14/5 4/15/5
f 6/16/6 2/17/6 1/18/6
f 9/19/6 7/20/6 5/21/6
f 10/22/1 6/23/1 7/24/1
f 12/25/2 16/26/2 14/27/2
f 13/28/1 15/29/1 16/30/1
f 18/31/6 23/32/6 21/33/6
f 20/34/1 24/35/1 23/36/1
f 24/37/2 17/38/2 22/39/2
f 12/40/1 18/41/1 21/42/1
f 1/9/3 3/43/3 23/44/3
f 3/43/3 11/45/3 13/46/3
f 18/47/5 16/48/5 20/49/5
f 3/43/3 13/46/3 23/44/3
f 7/8/3 6/50/3 1/9/3
f 19/51/5 9/52/5 17/53/5
f 23/44/3 24/7/3 1/9/3
f 4/15/5 2/54/5 19/55/5
f 2/54/5 8/56/5 10/57/5
f 23/58/3 12/59/3 21/60/3
f 2/54/5 10/57/5 19/55/5
f 16/14/5 15/61/5 4/15/5
f 19/55/5 20/13/5 4/15/5
f 22/62/3 7/63/3 24/64/3
f 22/1/1 17/65/1 9/2/1
f 15/4/2 11/66/2 3/5/2
f 3/10/4 1/67/4 2/11/4
f 6/16/6 8/68/6 2/17/6
f 9/19/6 10/69/6 7/20/6
f 10/22/1 8/70/1 6/23/1
f 12/25/2 13/71/2 16/26/2
f 13/28/1 11/72/1 15/29/1
f 18/31/6 20/73/6 23/32/6
f 20/34/1 19/74/1 24/35/1
f 24/37/2 19/75/2 17/38/2
f 12/40/1 14/76/1 18/41/1
f 18/47/5 14/77/5 16/48/5
f 19/51/5 10/78/5 9/52/5
f 23/58/3 13/79/3 12/59/3
f 22/62/3 5/80/3 7/63/3
