{
	"asset":{
		"generator":"Khronos glTF Blender I/O v4.4.55",
		"version":"2.0"
	},
	"scene":0,
	"scenes":[
		{
			"name":"Scene",
			"nodes":[
				0
			]
		}
	],
	"nodes":[
		{
			"mesh":0,
			"name":"bottle_616x14"
		}
	],
	"materials":[
		{
			"doubleSided":true,
			"name":"616bottle",
			"pbrMetallicRoughness":{
				"baseColorTexture":{
					"index":0
				},
				"metallicFactor":0,
				"roughnessFactor":0.5
			}
		}
	],
	"meshes":[
		{
			"name":"Cylinder.018",
			"primitives":[
				{
					"attributes":{
						"POSITION":0,
						"NORMAL":1,
						"TEXCOORD_0":2,
						"TANGENT":3
					},
					"indices":4,
					"material":0
				}
			]
		}
	],
	"textures":[
		{
			"sampler":0,
			"source":0
		}
	],
	"images":[
		{
			"mimeType":"image/png",
			"name":"616bottle",
			"uri":"616bottle.png"
		}
	],
	"accessors":[
		{
			"bufferView":0,
			"componentType":5126,
			"count":1050,
			"max":[
				0.6750712990760803,
				1.4705981016159058,
				0.30193275213241577
			],
			"min":[
				-0.30000001192092896,
				0.007800459861755371,
				-0.32735177874565125
			],
			"type":"VEC3"
		},
		{
			"bufferView":1,
			"componentType":5126,
			"count":1050,
			"type":"VEC3"
		},
		{
			"bufferView":2,
			"componentType":5126,
			"count":1050,
			"type":"VEC2"
		},
		{
			"bufferView":3,
			"componentType":5126,
			"count":1050,
			"type":"VEC4"
		},
		{
			"bufferView":4,
			"componentType":5123,
			"count":1470,
			"type":"SCALAR"
		}
	],
	"bufferViews":[
		{
			"buffer":0,
			"byteLength":12600,
			"byteOffset":0,
			"target":34962
		},
		{
			"buffer":0,
			"byteLength":12600,
			"byteOffset":12600,
			"target":34962
		},
		{
			"buffer":0,
			"byteLength":8400,
			"byteOffset":25200,
			"target":34962
		},
		{
			"buffer":0,
			"byteLength":16800,
			"byteOffset":33600,
			"target":34962
		},
		{
			"buffer":0,
			"byteLength":2940,
			"byteOffset":50400,
			"target":34963
		}
	],
	"samplers":[
		{
			"magFilter":9728,
			"minFilter":9984
		}
	],
	"buffers":[
		{
			"byteLength":53340,
			"uri":"bottle_616x14.bin"
		}
	]
}
