{
	"asset":{
		"generator":"Khronos glTF Blender I/O v4.4.55",
		"version":"2.0"
	},
	"scene":0,
	"scenes":[
		{
			"name":"Scene",
			"nodes":[
				0
			]
		}
	],
	"nodes":[
		{
			"mesh":0,
			"name":"bottle_616x05",
			"scale":[
				1.5448302030563354,
				1.5448302030563354,
				1.5448302030563354
			]
		}
	],
	"materials":[
		{
			"doubleSided":true,
			"name":"bottle_texture",
			"pbrMetallicRoughness":{
				"baseColorTexture":{
					"index":0
				},
				"metallicFactor":0,
				"roughnessFactor":0.5
			}
		}
	],
	"meshes":[
		{
			"name":"Green_Bottle",
			"primitives":[
				{
					"attributes":{
						"POSITION":0,
						"NORMAL":1,
						"TEXCOORD_0":2,
						"TANGENT":3
					},
					"indices":4,
					"material":0
				}
			]
		}
	],
	"textures":[
		{
			"sampler":0,
			"source":0
		}
	],
	"images":[
		{
			"mimeType":"image/png",
			"name":"bottle_616x05",
			"uri":"bottle_616x05.png"
		}
	],
	"accessors":[
		{
			"bufferView":0,
			"componentType":5126,
			"count":347,
			"max":[
				0.15870000422000885,
				0.6929000020027161,
				0.15870000422000885
			],
			"min":[
				-0.15870000422000885,
				0.0011439896188676357,
				-0.15870003402233124
			],
			"type":"VEC3"
		},
		{
			"bufferView":1,
			"componentType":5126,
			"count":347,
			"type":"VEC3"
		},
		{
			"bufferView":2,
			"componentType":5126,
			"count":347,
			"type":"VEC2"
		},
		{
			"bufferView":3,
			"componentType":5126,
			"count":347,
			"type":"VEC4"
		},
		{
			"bufferView":4,
			"componentType":5123,
			"count":552,
			"type":"SCALAR"
		}
	],
	"bufferViews":[
		{
			"buffer":0,
			"byteLength":4164,
			"byteOffset":0,
			"target":34962
		},
		{
			"buffer":0,
			"byteLength":4164,
			"byteOffset":4164,
			"target":34962
		},
		{
			"buffer":0,
			"byteLength":2776,
			"byteOffset":8328,
			"target":34962
		},
		{
			"buffer":0,
			"byteLength":5552,
			"byteOffset":11104,
			"target":34962
		},
		{
			"buffer":0,
			"byteLength":1104,
			"byteOffset":16656,
			"target":34963
		}
	],
	"samplers":[
		{
			"magFilter":9728,
			"minFilter":9984
		}
	],
	"buffers":[
		{
			"byteLength":17760,
			"uri":"bottle_616x05.bin"
		}
	]
}
