{
	"asset":{
		"generator":"Khronos glTF Blender I/O v4.4.55",
		"version":"2.0"
	},
	"scene":0,
	"scenes":[
		{
			"name":"Scene",
			"nodes":[
				0
			]
		}
	],
	"nodes":[
		{
			"mesh":0,
			"name":"bottle_616x02"
		}
	],
	"materials":[
		{
			"doubleSided":true,
			"name":"616bottle",
			"pbrMetallicRoughness":{
				"baseColorTexture":{
					"index":0
				},
				"metallicFactor":0,
				"roughnessFactor":0.5
			}
		}
	],
	"meshes":[
		{
			"name":"Cylinder.008",
			"primitives":[
				{
					"attributes":{
						"POSITION":0,
						"NORMAL":1,
						"TEXCOORD_0":2,
						"TANGENT":3
					},
					"indices":4,
					"material":0
				}
			]
		}
	],
	"textures":[
		{
			"sampler":0,
			"source":0
		}
	],
	"images":[
		{
			"mimeType":"image/png",
			"name":"616bottle",
			"uri":"616bottle.png"
		}
	],
	"accessors":[
		{
			"bufferView":0,
			"componentType":5126,
			"count":789,
			"max":[
				0.30000001192092896,
				1.2045449018478394,
				0.30000001192092896
			],
			"min":[
				-0.30000001192092896,
				0.00406724214553833,
				-0.30000001192092896
			],
			"type":"VEC3"
		},
		{
			"bufferView":1,
			"componentType":5126,
			"count":789,
			"type":"VEC3"
		},
		{
			"bufferView":2,
			"componentType":5126,
			"count":789,
			"type":"VEC2"
		},
		{
			"bufferView":3,
			"componentType":5126,
			"count":789,
			"type":"VEC4"
		},
		{
			"bufferView":4,
			"componentType":5123,
			"count":1140,
			"type":"SCALAR"
		}
	],
	"bufferViews":[
		{
			"buffer":0,
			"byteLength":9468,
			"byteOffset":0,
			"target":34962
		},
		{
			"buffer":0,
			"byteLength":9468,
			"byteOffset":9468,
			"target":34962
		},
		{
			"buffer":0,
			"byteLength":6312,
			"byteOffset":18936,
			"target":34962
		},
		{
			"buffer":0,
			"byteLength":12624,
			"byteOffset":25248,
			"target":34962
		},
		{
			"buffer":0,
			"byteLength":2280,
			"byteOffset":37872,
			"target":34963
		}
	],
	"samplers":[
		{
			"magFilter":9728,
			"minFilter":9984
		}
	],
	"buffers":[
		{
			"byteLength":40152,
			"uri":"bottle_616x02.bin"
		}
	]
}
