{
	"asset":{
		"generator":"Khronos glTF Blender I/O v4.4.55",
		"version":"2.0"
	},
	"scene":0,
	"scenes":[
		{
			"name":"Scene",
			"nodes":[
				0
			]
		}
	],
	"nodes":[
		{
			"mesh":0,
			"name":"bottle_616x15"
		}
	],
	"materials":[
		{
			"doubleSided":true,
			"name":"616bottle",
			"pbrMetallicRoughness":{
				"baseColorTexture":{
					"index":0
				},
				"metallicFactor":0,
				"roughnessFactor":0.5
			}
		}
	],
	"meshes":[
		{
			"name":"Cylinder.019",
			"primitives":[
				{
					"attributes":{
						"POSITION":0,
						"NORMAL":1,
						"TEXCOORD_0":2,
						"TANGENT":3
					},
					"indices":4,
					"material":0
				}
			]
		}
	],
	"textures":[
		{
			"sampler":0,
			"source":0
		}
	],
	"images":[
		{
			"mimeType":"image/png",
			"name":"616bottle",
			"uri":"616bottle.png"
		}
	],
	"accessors":[
		{
			"bufferView":0,
			"componentType":5126,
			"count":790,
			"max":[
				0.30000001192092896,
				1.2039157152175903,
				0.30000001192092896
			],
			"min":[
				-0.30000001192092896,
				0.0034380555152893066,
				-0.30000001192092896
			],
			"type":"VEC3"
		},
		{
			"bufferView":1,
			"componentType":5126,
			"count":790,
			"type":"VEC3"
		},
		{
			"bufferView":2,
			"componentType":5126,
			"count":790,
			"type":"VEC2"
		},
		{
			"bufferView":3,
			"componentType":5126,
			"count":790,
			"type":"VEC4"
		},
		{
			"bufferView":4,
			"componentType":5123,
			"count":1140,
			"type":"SCALAR"
		}
	],
	"bufferViews":[
		{
			"buffer":0,
			"byteLength":9480,
			"byteOffset":0,
			"target":34962
		},
		{
			"buffer":0,
			"byteLength":9480,
			"byteOffset":9480,
			"target":34962
		},
		{
			"buffer":0,
			"byteLength":6320,
			"byteOffset":18960,
			"target":34962
		},
		{
			"buffer":0,
			"byteLength":12640,
			"byteOffset":25280,
			"target":34962
		},
		{
			"buffer":0,
			"byteLength":2280,
			"byteOffset":37920,
			"target":34963
		}
	],
	"samplers":[
		{
			"magFilter":9728,
			"minFilter":9984
		}
	],
	"buffers":[
		{
			"byteLength":40200,
			"uri":"bottle_616x15.bin"
		}
	]
}
