# Blender 4.0.1
# www.blender.org
mtllib bottle_616x09.mtl
o Whiskey_Bottle
v -0.049703 0.499946 -0.071553
v -0.034874 0.613352 -0.034874
v 0.049703 0.499946 -0.071553
v 0.034874 0.613352 -0.034874
v 0.049703 0.499946 0.071553
v 0.034874 0.613352 0.034874
v -0.049703 0.499946 0.071553
v -0.034874 0.613352 0.034874
v -0.000000 0.692900 -0.038439
v 0.027181 0.692900 -0.027181
v 0.038439 0.692900 -0.000000
v 0.027181 0.692900 0.027181
v -0.000000 0.692900 0.038439
v -0.027181 0.692900 0.027181
v -0.038439 0.692900 -0.000000
v -0.027181 0.692900 -0.027181
v -0.044891 0.627647 0.044891
v 0.044891 0.627647 0.044891
v 0.044891 0.627647 -0.044891
v -0.044891 0.627647 -0.044891
v -0.000000 0.627647 -0.063485
v -0.063485 0.627647 -0.000000
v -0.000000 0.627647 0.063485
v 0.063485 0.627647 -0.000000
v -0.000000 0.499946 -0.091715
v 0.069327 0.499946 0.000000
v -0.000000 0.499946 0.091715
v -0.069327 0.499946 0.000000
v -0.000000 0.613352 -0.049319
v -0.049319 0.613352 -0.000000
v -0.000000 0.613352 0.049319
v 0.049319 0.613352 -0.000000
v -0.000000 0.692900 -0.063485
v 0.044891 0.692900 -0.044891
v 0.063485 0.692900 -0.000000
v 0.044891 0.692900 0.044891
v -0.000000 0.692900 0.063485
v -0.044891 0.692900 0.044891
v -0.063485 0.692900 -0.000000
v -0.044891 0.692900 -0.044891
v -0.000000 0.638856 -0.038439
v 0.027181 0.638856 -0.027181
v 0.038439 0.638856 -0.000000
v 0.027181 0.638856 0.027181
v -0.000000 0.638856 0.038439
v -0.027181 0.638856 0.027181
v -0.038439 0.638856 -0.000000
v -0.027181 0.638856 -0.027181
v 0.000000 0.324076 0.226719
v -0.100364 0.324076 0.187412
v -0.141336 0.324076 0.000000
v -0.100364 0.324076 -0.187412
v 0.100364 0.324076 -0.187412
v 0.000000 0.324076 -0.226719
v 0.100364 0.324076 0.187412
v 0.141336 0.324076 0.000000
v -0.000000 -0.011086 -0.156683
v -0.000000 -0.011086 0.156683
v -0.000000 -0.011086 0.000000
v -0.076816 0.462453 -0.161280
v -0.040783 0.513342 -0.040783
v 0.040783 0.513342 0.040783
v 0.076816 0.462453 -0.161280
v -0.040783 0.513342 0.040783
v 0.076816 0.462453 0.161280
v -0.076816 0.462453 0.161280
v 0.040783 0.513342 -0.040783
v -0.000000 0.462457 -0.191184
v -0.000000 0.513342 -0.057675
v 0.106301 0.462220 0.000000
v -0.057675 0.513342 0.000000
v -0.000000 0.462457 0.191184
v -0.000000 0.513342 0.057675
v -0.106301 0.462220 0.000000
v 0.057675 0.513342 0.000000
v -0.089602 0.413252 -0.176595
v -0.094349 0.324076 -0.182280
v 0.094349 0.324076 -0.182280
v 0.089602 0.413252 -0.176595
v 0.094349 0.324076 0.182280
v 0.089602 0.413252 0.176595
v -0.089602 0.413252 0.176595
v -0.094349 0.324076 0.182280
v -0.000000 0.413262 -0.211327
v -0.000000 0.324076 -0.218813
v 0.126472 0.412652 0.000000
v 0.133429 0.324076 0.000000
v -0.000000 0.413262 0.211327
v -0.000000 0.324076 0.218813
v -0.126472 0.412652 0.000000
v -0.133429 0.324076 0.000000
v -0.094349 0.038914 -0.182280
v -0.067683 -0.011086 -0.130135
v -0.086539 0.003559 -0.167007
v 0.067683 -0.011086 -0.130135
v 0.094349 0.038914 -0.182280
v 0.086539 0.003559 -0.167007
v 0.067683 -0.011086 0.130135
v 0.094349 0.038914 0.182280
v 0.086539 0.003559 0.167007
v -0.094349 0.038914 0.182280
v -0.067683 -0.011086 0.130135
v -0.086539 0.003559 0.167007
v -0.000000 0.038914 -0.218813
v -0.000000 0.003559 -0.200615
v 0.133429 0.038914 -0.000000
v 0.095073 -0.011086 -0.000000
v 0.122195 0.003559 -0.000000
v -0.000000 0.038914 0.218813
v -0.000000 0.003559 0.200615
v -0.133429 0.038914 -0.000000
v -0.095073 -0.011086 -0.000000
v -0.122195 0.003559 -0.000000
v 0.100364 0.038914 0.187412
v 0.141336 0.038914 -0.000000
v 0.100364 0.038914 -0.187412
v 0.000000 0.038914 -0.226719
v -0.100364 0.038914 -0.187412
v -0.141336 0.038914 -0.000000
v -0.100364 0.038914 0.187412
v 0.000000 0.038914 0.226719
vn -0.9211 -0.0770 -0.3815
vn 0.3827 -0.0000 0.9239
vn -0.3827 -0.0000 -0.9239
vn 0.9239 -0.0000 -0.3827
vn -0.9239 -0.0000 0.3827
vn 0.9239 -0.0000 0.3827
vn 0.3827 -0.0000 -0.9239
vn -0.9239 -0.0000 -0.3827
vn -0.3827 -0.0000 0.9239
vn -0.3815 -0.0770 -0.9211
vn -0.9211 -0.0770 0.3815
vn -0.3815 -0.0770 0.9211
vn 0.3815 -0.0770 0.9211
vn 0.9211 -0.0770 0.3815
vn 0.3815 -0.0770 -0.9211
vn -0.2823 0.6753 0.6814
vn 0.2823 0.6753 0.6814
vn 0.6814 0.6753 -0.2823
vn 0.9211 -0.0770 -0.3815
vn -0.2823 0.6753 -0.6814
vn -0.6814 0.6753 0.2823
vn -0.6814 0.6753 -0.2823
vn 0.2823 0.6753 -0.6814
vn 0.6814 0.6753 0.2823
vn -0.0000 -1.0000 -0.0000
vn -0.0000 1.0000 -0.0000
vn -0.9242 -0.3364 -0.1807
vn -0.6653 -0.7334 -0.1396
vn -0.1377 -0.9274 0.3478
vn 0.6653 -0.7334 -0.1396
vn 0.1377 -0.9274 0.3478
vn -0.1377 -0.9274 -0.3478
vn 0.6444 -0.7354 -0.2095
vn 0.1377 -0.9274 -0.3478
vn 0.6653 -0.7334 0.1396
vn -0.6653 -0.7334 0.1396
vn 0.3381 -0.3576 -0.8705
vn -0.3647 -0.0000 0.9311
vn -0.3381 -0.3576 -0.8705
vn -0.9242 -0.3364 0.1807
vn 0.3381 -0.3576 0.8705
vn 0.9242 -0.3364 -0.1807
vn -0.3381 -0.3576 0.8705
vn -0.9759 -0.0709 -0.2064
vn -0.3601 -0.0782 0.9296
vn 0.3601 -0.0782 0.9296
vn 0.9759 -0.0709 0.2064
vn 0.9759 -0.0709 -0.2064
vn 0.3601 -0.0782 -0.9296
vn -0.9759 -0.0709 0.2064
vn -0.3601 -0.0782 -0.9296
vn 0.9242 -0.3364 0.1807
vn 0.1476 -0.9210 -0.3604
vn 0.6444 -0.7354 0.2095
vn 0.1476 -0.9210 0.3604
vn -0.1476 -0.9210 0.3604
vn -0.6444 -0.7354 0.2095
vn -0.1476 -0.9210 -0.3604
vn -0.6444 -0.7354 -0.2095
vn -0.4757 0.8738 -0.1009
vn -0.9344 0.2948 -0.1999
vn -0.1221 0.9419 0.3129
vn -0.3258 0.4336 0.8401
vn 0.1221 0.9419 0.3129
vn 0.3258 0.4336 0.8401
vn 0.4757 0.8738 0.1009
vn 0.9344 0.2948 0.1999
vn 0.4757 0.8738 -0.1009
vn 0.9344 0.2948 -0.1999
vn 0.1221 0.9419 -0.3129
vn 0.3258 0.4336 -0.8401
vn -0.4757 0.8738 0.1009
vn -0.9344 0.2948 0.1999
vn -0.1221 0.9419 -0.3129
vn -0.3258 0.4336 -0.8401
vn 0.3647 -0.0000 -0.9311
vn 0.9769 -0.0000 0.2136
vn -0.3647 -0.0000 -0.9311
vn -0.9769 -0.0000 -0.2136
vn -0.9769 -0.0000 0.2136
vn 0.3647 -0.0000 0.9311
vn 0.9769 -0.0000 -0.2136
vt 0.272704 0.364581
vt 0.405561 0.364581
vt 0.405561 0.356107
vt 0.272704 0.356107
vt 0.139847 0.347633
vt 0.006990 0.347633
vt 0.006990 0.339158
vt 0.139847 0.339158
vt 0.139846 0.330684
vt 0.006990 0.330684
vt 0.006990 0.322210
vt 0.139846 0.322210
vt 0.405561 0.347633
vt 0.272704 0.347633
vt 0.272704 0.339158
vt 0.405561 0.339158
vt 0.405561 0.347633
vt 0.538418 0.347633
vt 0.538418 0.339158
vt 0.405561 0.339158
vt 0.139846 0.347633
vt 0.139846 0.339158
vt 0.538418 0.364581
vt 0.538418 0.356107
vt 0.139846 0.364581
vt 0.139846 0.356107
vt 0.006990 0.364581
vt 0.006990 0.356107
vt 0.139847 0.364581
vt 0.139847 0.356107
vt 0.405561 0.364581
vt 0.405561 0.356107
vt 0.272704 0.330684
vt 0.405561 0.330684
vt 0.538418 0.330684
vt 0.405561 0.330684
vt 0.272704 0.322210
vt 0.405561 0.322210
vt 0.538418 0.322210
vt 0.239811 0.424584
vt 0.272704 0.423670
vt 0.405561 0.423670
vt 0.405561 0.410172
vt 0.272704 0.410172
vt 0.405561 0.373055
vt 0.272704 0.373055
vt 0.139846 0.373055
vt 0.006990 0.373055
vt 0.006990 0.410172
vt 0.139846 0.410172
vt 0.405561 0.373055
vt 0.405561 0.410172
vt 0.139847 0.373055
vt 0.139847 0.410172
vt 0.538418 0.373055
vt 0.538418 0.410172
vt 0.538418 0.423670
vt 0.405561 0.423670
vt 0.297836 0.310479
vt 0.116073 0.310479
vt 0.116073 0.303858
vt 0.297836 0.303858
vt 0.591089 0.310479
vt 0.479599 0.310479
vt 0.479599 0.302449
vt 0.591089 0.302449
vt 0.004583 0.065102
vt 0.116073 0.065102
vt 0.116073 0.071723
vt 0.004583 0.071723
vt 0.479599 0.065102
vt 0.591089 0.065102
vt 0.591089 0.071723
vt 0.479599 0.071723
vt 0.297836 0.310479
vt 0.116073 0.310479
vt 0.116073 0.302449
vt 0.297836 0.302449
vt 0.004583 0.302449
vt 0.004583 0.073132
vt 0.116073 0.073132
vt 0.004583 0.310479
vt 0.139846 0.423670
vt 0.479599 0.065102
vt 0.591089 0.065102
vt 0.591089 0.073132
vt 0.479599 0.073132
vt 0.139847 0.423670
vt 0.006990 0.423670
vt 0.479599 0.303858
vt 0.272704 0.437168
vt 0.405561 0.437168
vt 0.006990 0.437168
vt 0.139846 0.437168
vt 0.139847 0.437168
vt 0.405561 0.437168
vt 0.538418 0.437168
vt 0.004583 0.303858
vt 0.297836 0.071723
vt 0.297836 0.073132
vt 0.591089 0.303858
vt 0.297836 0.065102
vt 0.297836 0.065102
s 0
usemtl bottle_texture
f 75/1/1 62/2/1 6/3/1 32/4/1
f 20/5/2 21/6/2 33/7/2 40/8/2
f 16/9/3 9/10/3 41/11/3 48/12/3
f 17/13/4 22/14/4 39/15/4 38/16/4
f 18/17/3 23/18/3 37/19/3 36/20/3
f 19/21/5 24/14/5 35/15/5 34/22/5
f 22/14/6 20/5/6 40/8/6 39/15/6
f 23/18/7 17/13/7 38/16/7 37/19/7
f 24/14/8 18/17/8 36/20/8 35/15/8
f 21/6/9 19/21/9 34/22/9 33/7/9
f 62/2/10 73/23/10 31/24/10 6/3/10
f 67/25/11 75/1/11 32/4/11 4/26/11
f 69/27/12 67/25/12 4/26/12 29/28/12
f 61/29/13 69/27/13 29/28/13 2/30/13
f 71/1/14 61/29/14 2/30/14 30/4/14
f 73/23/15 64/31/15 8/32/15 31/24/15
f 19/21/16 21/6/16 29/28/16 4/26/16
f 21/6/17 20/5/17 2/30/17 29/28/17
f 22/14/18 17/13/18 8/32/18 30/4/18
f 64/31/19 71/1/19 30/4/19 8/32/19
f 23/18/20 18/17/20 6/3/20 31/24/20
f 24/14/21 19/21/21 4/26/21 32/4/21
f 18/17/22 24/14/22 32/4/22 6/3/22
f 17/13/23 23/18/23 31/24/23 8/32/23
f 20/5/24 22/14/24 30/4/24 2/30/24
f 10/9/25 9/10/25 33/7/25 34/22/25
f 11/33/25 10/9/25 34/22/25 35/15/25
f 12/34/25 11/33/25 35/15/25 36/20/25
f 13/35/25 12/34/25 36/20/25 37/19/25
f 14/36/25 13/35/25 37/19/25 38/16/25
f 15/33/25 14/36/25 38/16/25 39/15/25
f 16/9/25 15/33/25 39/15/25 40/8/25
f 9/10/25 16/9/25 40/8/25 33/7/25
f 14/36/5 15/33/5 47/37/5 46/38/5
f 12/34/2 13/35/2 45/39/2 44/38/2
f 10/9/4 11/33/4 43/37/4 42/12/4
f 15/33/8 16/9/8 48/12/8 47/37/8
f 13/35/9 14/36/9 46/38/9 45/39/9
f 11/33/6 12/34/6 44/38/6 43/37/6
f 9/10/7 10/9/7 42/12/7 41/11/7
f 59/40/26 112/40/26 102/40/26 58/40/26
f 59/40/26 107/40/26 95/40/26 57/40/26
f 107/40/26 59/40/26 58/40/26 98/40/26
f 86/41/27 81/42/27 65/43/27 70/44/27
f 5/45/28 26/46/28 70/44/28 65/43/28
f 3/47/29 25/48/29 68/49/29 63/50/29
f 28/46/30 7/51/30 66/52/30 74/44/30
f 25/48/31 1/53/31 60/54/31 68/49/31
f 27/55/32 5/45/32 65/43/32 72/56/32
f 7/51/33 28/46/33 71/1/33 64/31/33
f 7/51/34 27/55/34 72/56/34 66/52/34
f 1/53/35 28/46/35 74/44/35 60/54/35
f 26/46/36 3/47/36 63/50/36 70/44/36
f 88/57/37 82/58/37 66/52/37 72/56/37
f 91/59/25 83/60/25 50/61/25 51/62/25
f 89/63/25 80/64/25 55/65/25 49/66/25
f 109/67/26 101/68/26 120/69/26 121/70/26
f 92/71/26 104/72/26 117/73/26 118/74/26
f 87/75/25 78/76/25 53/77/25 56/78/25
f 53/77/38 54/79/38 117/80/38 116/81/38
f 78/76/25 85/82/25 54/79/25 53/77/25
f 81/42/39 88/57/39 72/56/39 65/43/39
f 79/83/40 86/41/40 70/44/40 63/50/40
f 99/84/26 109/85/26 121/86/26 114/87/26
f 76/88/41 84/89/41 68/49/41 60/54/41
f 77/64/25 91/59/25 51/62/25 52/90/25
f 82/58/42 90/41/42 74/44/42 66/52/42
f 112/40/26 59/40/26 57/40/26 93/40/26
f 84/89/43 79/83/43 63/50/43 68/49/43
f 87/91/44 80/92/44 81/42/44 86/41/44
f 85/93/45 78/94/45 79/83/45 84/89/45
f 77/95/46 85/93/46 84/89/46 76/88/46
f 91/91/47 77/95/47 76/88/47 90/41/47
f 83/96/48 91/91/48 90/41/48 82/58/48
f 89/97/49 83/96/49 82/58/49 88/57/49
f 78/94/50 87/91/50 86/41/50 79/83/50
f 80/92/51 89/97/51 88/57/51 81/42/51
f 90/41/52 76/88/52 60/54/52 74/44/52
f 27/55/53 7/51/53 64/31/53 73/23/53
f 28/46/54 1/53/54 61/29/54 71/1/54
f 1/53/55 25/48/55 69/27/55 61/29/55
f 25/48/56 3/47/56 67/25/56 69/27/56
f 3/47/57 26/46/57 75/1/57 67/25/57
f 5/45/58 27/55/58 73/23/58 62/2/58
f 26/46/59 5/45/59 62/2/59 75/1/59
f 107/40/60 98/40/60 100/40/60 108/40/60
f 108/40/61 100/40/61 99/40/61 106/40/61
f 57/40/62 95/40/62 97/40/62 105/40/62
f 105/40/63 97/40/63 96/40/63 104/40/63
f 93/40/64 57/40/64 105/40/64 94/40/64
f 94/40/65 105/40/65 104/40/65 92/40/65
f 112/40/66 93/40/66 94/40/66 113/40/66
f 113/40/67 94/40/67 92/40/67 111/40/67
f 102/40/68 112/40/68 113/40/68 103/40/68
f 103/40/69 113/40/69 111/40/69 101/40/69
f 58/40/70 102/40/70 103/40/70 110/40/70
f 110/40/71 103/40/71 101/40/71 109/40/71
f 95/40/72 107/40/72 108/40/72 97/40/72
f 97/40/73 108/40/73 106/40/73 96/40/73
f 98/40/74 58/40/74 110/40/74 100/40/74
f 100/40/75 110/40/75 109/40/75 99/40/75
f 50/61/76 49/98/76 121/70/76 120/69/76
f 52/90/77 51/62/77 119/99/77 118/74/77
f 49/66/78 55/65/78 114/87/78 121/86/78
f 55/65/79 56/78/79 115/100/79 114/87/79
f 56/78/80 53/77/80 116/81/80 115/100/80
f 54/101/81 52/90/81 118/74/81 117/73/81
f 51/62/82 50/61/82 120/69/82 119/99/82
f 80/64/25 87/75/25 56/78/25 55/65/25
f 104/67/26 96/68/26 116/81/26 117/80/26
f 101/68/26 111/102/26 119/99/26 120/69/26
f 85/63/25 77/64/25 52/90/25 54/101/25
f 106/103/26 99/84/26 114/87/26 115/100/26
f 96/68/26 106/103/26 115/100/26 116/81/26
f 83/60/25 89/82/25 49/98/25 50/61/25
f 111/102/26 92/71/26 118/74/26 119/99/26
