{
	"asset":{
		"generator":"Khronos glTF Blender I/O v4.4.55",
		"version":"2.0"
	},
	"scene":0,
	"scenes":[
		{
			"name":"Scene",
			"nodes":[
				0
			]
		}
	],
	"nodes":[
		{
			"mesh":0,
			"name":"bottle_616x12"
		}
	],
	"materials":[
		{
			"doubleSided":true,
			"name":"616bottle",
			"pbrMetallicRoughness":{
				"baseColorTexture":{
					"index":0
				},
				"metallicFactor":0,
				"roughnessFactor":0.5
			}
		}
	],
	"meshes":[
		{
			"name":"Cylinder.016",
			"primitives":[
				{
					"attributes":{
						"POSITION":0,
						"NORMAL":1,
						"TEXCOORD_0":2,
						"TANGENT":3
					},
					"indices":4,
					"material":0
				}
			]
		}
	],
	"textures":[
		{
			"sampler":0,
			"source":0
		}
	],
	"images":[
		{
			"mimeType":"image/png",
			"name":"616bottle",
			"uri":"616bottle.png"
		}
	],
	"accessors":[
		{
			"bufferView":0,
			"componentType":5126,
			"count":621,
			"max":[
				0.20452360808849335,
				1.1019678115844727,
				0.20452359318733215
			],
			"min":[
				-0.20452351868152618,
				0.004143118858337402,
				-0.20452354848384857
			],
			"type":"VEC3"
		},
		{
			"bufferView":1,
			"componentType":5126,
			"count":621,
			"type":"VEC3"
		},
		{
			"bufferView":2,
			"componentType":5126,
			"count":621,
			"type":"VEC2"
		},
		{
			"bufferView":3,
			"componentType":5126,
			"count":621,
			"type":"VEC4"
		},
		{
			"bufferView":4,
			"componentType":5123,
			"count":780,
			"type":"SCALAR"
		}
	],
	"bufferViews":[
		{
			"buffer":0,
			"byteLength":7452,
			"byteOffset":0,
			"target":34962
		},
		{
			"buffer":0,
			"byteLength":7452,
			"byteOffset":7452,
			"target":34962
		},
		{
			"buffer":0,
			"byteLength":4968,
			"byteOffset":14904,
			"target":34962
		},
		{
			"buffer":0,
			"byteLength":9936,
			"byteOffset":19872,
			"target":34962
		},
		{
			"buffer":0,
			"byteLength":1560,
			"byteOffset":29808,
			"target":34963
		}
	],
	"samplers":[
		{
			"magFilter":9728,
			"minFilter":9984
		}
	],
	"buffers":[
		{
			"byteLength":31368,
			"uri":"bottle_616x12.bin"
		}
	]
}
