{
	"asset":{
		"generator":"Khronos glTF Blender I/O v4.4.55",
		"version":"2.0"
	},
	"scene":0,
	"scenes":[
		{
			"name":"Scene",
			"nodes":[
				0
			]
		}
	],
	"nodes":[
		{
			"mesh":0,
			"name":"Boulder_343x2"
		}
	],
	"materials":[
		{
			"doubleSided":true,
			"name":"boulder_00",
			"pbrMetallicRoughness":{
				"baseColorTexture":{
					"index":0
				},
				"metallicFactor":0,
				"roughnessFactor":0.5
			}
		}
	],
	"meshes":[
		{
			"name":"Plane.028",
			"primitives":[
				{
					"attributes":{
						"POSITION":0,
						"TEXCOORD_0":1
					},
					"indices":2,
					"material":0
				}
			]
		}
	],
	"textures":[
		{
			"sampler":0,
			"source":0
		}
	],
	"images":[
		{
			"mimeType":"image/png",
			"name":"343boulder",
			"uri":"343boulder.png"
		}
	],
	"accessors":[
		{
			"bufferView":0,
			"componentType":5126,
			"count":1159,
			"max":[
				4.341911315917969,
				2.592763662338257,
				4.723335266113281
			],
			"min":[
				0.07154464721679688,
				0,
				0.04220724105834961
			],
			"type":"VEC3"
		},
		{
			"bufferView":1,
			"componentType":5126,
			"count":1159,
			"type":"VEC2"
		},
		{
			"bufferView":2,
			"componentType":5123,
			"count":6936,
			"type":"SCALAR"
		}
	],
	"bufferViews":[
		{
			"buffer":0,
			"byteLength":13908,
			"byteOffset":0,
			"target":34962
		},
		{
			"buffer":0,
			"byteLength":9272,
			"byteOffset":13908,
			"target":34962
		},
		{
			"buffer":0,
			"byteLength":13872,
			"byteOffset":23180,
			"target":34963
		}
	],
	"samplers":[
		{
			"magFilter":9728,
			"minFilter":9984
		}
	],
	"buffers":[
		{
			"byteLength":37052,
			"uri":"boulder_343x02.bin"
		}
	]
}
