{
	"asset":{
		"generator":"Khronos glTF Blender I/O v4.4.55",
		"version":"2.0"
	},
	"scene":0,
	"scenes":[
		{
			"name":"Scene",
			"nodes":[
				0
			]
		}
	],
	"nodes":[
		{
			"mesh":0,
			"name":"Boulder_343x0"
		}
	],
	"materials":[
		{
			"doubleSided":true,
			"name":"boulder_00",
			"pbrMetallicRoughness":{
				"baseColorTexture":{
					"index":0
				},
				"metallicFactor":0,
				"roughnessFactor":0.5
			}
		}
	],
	"meshes":[
		{
			"name":"Plane.026",
			"primitives":[
				{
					"attributes":{
						"POSITION":0,
						"TEXCOORD_0":1
					},
					"indices":2,
					"material":0
				}
			]
		}
	],
	"textures":[
		{
			"sampler":0,
			"source":0
		}
	],
	"images":[
		{
			"mimeType":"image/png",
			"name":"343boulder",
			"uri":"343boulder.png"
		}
	],
	"accessors":[
		{
			"bufferView":0,
			"componentType":5126,
			"count":479,
			"max":[
				4.525120258331299,
				2.3023910522460938,
				4.414462089538574
			],
			"min":[
				0.026691913604736328,
				0,
				0.025070667266845703
			],
			"type":"VEC3"
		},
		{
			"bufferView":1,
			"componentType":5126,
			"count":479,
			"type":"VEC2"
		},
		{
			"bufferView":2,
			"componentType":5123,
			"count":2862,
			"type":"SCALAR"
		}
	],
	"bufferViews":[
		{
			"buffer":0,
			"byteLength":5748,
			"byteOffset":0,
			"target":34962
		},
		{
			"buffer":0,
			"byteLength":3832,
			"byteOffset":5748,
			"target":34962
		},
		{
			"buffer":0,
			"byteLength":5724,
			"byteOffset":9580,
			"target":34963
		}
	],
	"samplers":[
		{
			"magFilter":9728,
			"minFilter":9984
		}
	],
	"buffers":[
		{
			"byteLength":15304,
			"uri":"boulder_343x00.bin"
		}
	]
}
