{
	"asset":{
		"generator":"Khronos glTF Blender I/O v4.4.55",
		"version":"2.0"
	},
	"scene":0,
	"scenes":[
		{
			"name":"Scene",
			"nodes":[
				0
			]
		}
	],
	"nodes":[
		{
			"mesh":0,
			"name":"boulder_342x0"
		}
	],
	"materials":[
		{
			"doubleSided":true,
			"name":"boulder",
			"pbrMetallicRoughness":{
				"baseColorTexture":{
					"index":0
				},
				"metallicFactor":0,
				"roughnessFactor":0.5
			}
		}
	],
	"meshes":[
		{
			"name":"Plane.024",
			"primitives":[
				{
					"attributes":{
						"POSITION":0,
						"TEXCOORD_0":1
					},
					"indices":2,
					"material":0
				}
			]
		}
	],
	"textures":[
		{
			"sampler":0,
			"source":0
		}
	],
	"images":[
		{
			"mimeType":"image/png",
			"name":"342boulder",
			"uri":"342boulder.png"
		}
	],
	"accessors":[
		{
			"bufferView":0,
			"componentType":5126,
			"count":440,
			"max":[
				2.6217801570892334,
				4.279886245727539,
				2.7860453128814697
			],
			"min":[
				0.022778749465942383,
				0.018424630165100098,
				0.025213956832885742
			],
			"type":"VEC3"
		},
		{
			"bufferView":1,
			"componentType":5126,
			"count":440,
			"type":"VEC2"
		},
		{
			"bufferView":2,
			"componentType":5123,
			"count":1608,
			"type":"SCALAR"
		}
	],
	"bufferViews":[
		{
			"buffer":0,
			"byteLength":5280,
			"byteOffset":0,
			"target":34962
		},
		{
			"buffer":0,
			"byteLength":3520,
			"byteOffset":5280,
			"target":34962
		},
		{
			"buffer":0,
			"byteLength":3216,
			"byteOffset":8800,
			"target":34963
		}
	],
	"samplers":[
		{
			"magFilter":9728,
			"minFilter":9984
		}
	],
	"buffers":[
		{
			"byteLength":12016,
			"uri":"boulder_342x00.bin"
		}
	]
}
