{
	"asset":{
		"generator":"Khronos glTF Blender I/O v4.4.55",
		"version":"2.0"
	},
	"scene":0,
	"scenes":[
		{
			"name":"Scene",
			"nodes":[
				0
			]
		}
	],
	"nodes":[
		{
			"mesh":0,
			"name":"broken_dish_546x01"
		}
	],
	"materials":[
		{
			"doubleSided":true,
			"name":"Material",
			"pbrMetallicRoughness":{
				"baseColorTexture":{
					"index":0
				},
				"metallicFactor":0,
				"roughnessFactor":0.5
			}
		}
	],
	"meshes":[
		{
			"name":"Plane.002",
			"primitives":[
				{
					"attributes":{
						"POSITION":0,
						"NORMAL":1,
						"TEXCOORD_0":2
					},
					"indices":3,
					"material":0
				}
			]
		}
	],
	"textures":[
		{
			"sampler":0,
			"source":0
		}
	],
	"images":[
		{
			"mimeType":"image/png",
			"name":"546broken_dish",
			"uri":"546broken_dish.png"
		}
	],
	"accessors":[
		{
			"bufferView":0,
			"componentType":5126,
			"count":556,
			"max":[
				0.41782474517822266,
				0.0933392271399498,
				0.6787995100021362
			],
			"min":[
				-0.42114338278770447,
				0.004234302788972855,
				-0.20778830349445343
			],
			"type":"VEC3"
		},
		{
			"bufferView":1,
			"componentType":5126,
			"count":556,
			"type":"VEC3"
		},
		{
			"bufferView":2,
			"componentType":5126,
			"count":556,
			"type":"VEC2"
		},
		{
			"bufferView":3,
			"componentType":5123,
			"count":1212,
			"type":"SCALAR"
		}
	],
	"bufferViews":[
		{
			"buffer":0,
			"byteLength":6672,
			"byteOffset":0,
			"target":34962
		},
		{
			"buffer":0,
			"byteLength":6672,
			"byteOffset":6672,
			"target":34962
		},
		{
			"buffer":0,
			"byteLength":4448,
			"byteOffset":13344,
			"target":34962
		},
		{
			"buffer":0,
			"byteLength":2424,
			"byteOffset":17792,
			"target":34963
		}
	],
	"samplers":[
		{
			"magFilter":9728,
			"minFilter":9984
		}
	],
	"buffers":[
		{
			"byteLength":20216,
			"uri":"broken_dish_546x01.bin"
		}
	]
}
