{
	"asset":{
		"generator":"Khronos glTF Blender I/O v4.4.55",
		"version":"2.0"
	},
	"scene":0,
	"scenes":[
		{
			"name":"Scene",
			"nodes":[
				0
			]
		}
	],
	"nodes":[
		{
			"mesh":0,
			"name":"broken_dish_546x15"
		}
	],
	"materials":[
		{
			"doubleSided":true,
			"name":"Material",
			"pbrMetallicRoughness":{
				"baseColorTexture":{
					"index":0
				},
				"metallicFactor":0,
				"roughnessFactor":0.5
			}
		}
	],
	"meshes":[
		{
			"name":"Plane.016",
			"primitives":[
				{
					"attributes":{
						"POSITION":0,
						"NORMAL":1,
						"TEXCOORD_0":2
					},
					"indices":3,
					"material":0
				}
			]
		}
	],
	"textures":[
		{
			"sampler":0,
			"source":0
		}
	],
	"images":[
		{
			"mimeType":"image/png",
			"name":"546broken_dish",
			"uri":"546broken_dish.png"
		}
	],
	"accessors":[
		{
			"bufferView":0,
			"componentType":5126,
			"count":500,
			"max":[
				0.40658047795295715,
				0.09471431374549866,
				0.3187553584575653
			],
			"min":[
				-0.4320923089981079,
				0,
				-0.38046345114707947
			],
			"type":"VEC3"
		},
		{
			"bufferView":1,
			"componentType":5126,
			"count":500,
			"type":"VEC3"
		},
		{
			"bufferView":2,
			"componentType":5126,
			"count":500,
			"type":"VEC2"
		},
		{
			"bufferView":3,
			"componentType":5123,
			"count":996,
			"type":"SCALAR"
		}
	],
	"bufferViews":[
		{
			"buffer":0,
			"byteLength":6000,
			"byteOffset":0,
			"target":34962
		},
		{
			"buffer":0,
			"byteLength":6000,
			"byteOffset":6000,
			"target":34962
		},
		{
			"buffer":0,
			"byteLength":4000,
			"byteOffset":12000,
			"target":34962
		},
		{
			"buffer":0,
			"byteLength":1992,
			"byteOffset":16000,
			"target":34963
		}
	],
	"samplers":[
		{
			"magFilter":9728,
			"minFilter":9984
		}
	],
	"buffers":[
		{
			"byteLength":17992,
			"uri":"broken_dish_546x15.bin"
		}
	]
}
