{
	"asset":{
		"generator":"Khronos glTF Blender I/O v4.4.55",
		"version":"2.0"
	},
	"scene":0,
	"scenes":[
		{
			"name":"Scene",
			"nodes":[
				0
			]
		}
	],
	"nodes":[
		{
			"mesh":0,
			"name":"broken_dish_546x05"
		}
	],
	"materials":[
		{
			"doubleSided":true,
			"name":"Material",
			"pbrMetallicRoughness":{
				"baseColorTexture":{
					"index":0
				},
				"metallicFactor":0,
				"roughnessFactor":0.5
			}
		}
	],
	"meshes":[
		{
			"name":"Plane.006",
			"primitives":[
				{
					"attributes":{
						"POSITION":0,
						"NORMAL":1,
						"TEXCOORD_0":2
					},
					"indices":3,
					"material":0
				}
			]
		}
	],
	"textures":[
		{
			"sampler":0,
			"source":0
		}
	],
	"images":[
		{
			"mimeType":"image/png",
			"name":"546broken_dish",
			"uri":"546broken_dish.png"
		}
	],
	"accessors":[
		{
			"bufferView":0,
			"componentType":5126,
			"count":514,
			"max":[
				0.16826824843883514,
				0.096316397190094,
				0.22752982378005981
			],
			"min":[
				-0.24960729479789734,
				-0.0006246715784072876,
				-0.28436166048049927
			],
			"type":"VEC3"
		},
		{
			"bufferView":1,
			"componentType":5126,
			"count":514,
			"type":"VEC3"
		},
		{
			"bufferView":2,
			"componentType":5126,
			"count":514,
			"type":"VEC2"
		},
		{
			"bufferView":3,
			"componentType":5123,
			"count":1020,
			"type":"SCALAR"
		}
	],
	"bufferViews":[
		{
			"buffer":0,
			"byteLength":6168,
			"byteOffset":0,
			"target":34962
		},
		{
			"buffer":0,
			"byteLength":6168,
			"byteOffset":6168,
			"target":34962
		},
		{
			"buffer":0,
			"byteLength":4112,
			"byteOffset":12336,
			"target":34962
		},
		{
			"buffer":0,
			"byteLength":2040,
			"byteOffset":16448,
			"target":34963
		}
	],
	"samplers":[
		{
			"magFilter":9728,
			"minFilter":9984
		}
	],
	"buffers":[
		{
			"byteLength":18488,
			"uri":"broken_dish_546x05.bin"
		}
	]
}
