{
	"asset":{
		"generator":"Khronos glTF Blender I/O v4.4.55",
		"version":"2.0"
	},
	"scene":0,
	"scenes":[
		{
			"name":"Scene",
			"nodes":[
				0
			]
		}
	],
	"nodes":[
		{
			"mesh":0,
			"name":"broken_pillar_544x02"
		}
	],
	"materials":[
		{
			"doubleSided":true,
			"name":"standstone.003",
			"pbrMetallicRoughness":{
				"baseColorTexture":{
					"index":0
				},
				"metallicFactor":0,
				"roughnessFactor":0.5
			}
		}
	],
	"meshes":[
		{
			"name":"Plane.036",
			"primitives":[
				{
					"attributes":{
						"POSITION":0,
						"TEXCOORD_0":1
					},
					"indices":2,
					"material":0
				}
			]
		}
	],
	"textures":[
		{
			"sampler":0,
			"source":0
		}
	],
	"images":[
		{
			"mimeType":"image/png",
			"name":"544broken_columns",
			"uri":"544broken_columns.png"
		}
	],
	"accessors":[
		{
			"bufferView":0,
			"componentType":5126,
			"count":371,
			"max":[
				1.4567559957504272,
				1.4631267786026,
				1.421947956085205
			],
			"min":[
				-0.0003706812858581543,
				-0.6092256307601929,
				0.004783987998962402
			],
			"type":"VEC3"
		},
		{
			"bufferView":1,
			"componentType":5126,
			"count":371,
			"type":"VEC2"
		},
		{
			"bufferView":2,
			"componentType":5123,
			"count":864,
			"type":"SCALAR"
		}
	],
	"bufferViews":[
		{
			"buffer":0,
			"byteLength":4452,
			"byteOffset":0,
			"target":34962
		},
		{
			"buffer":0,
			"byteLength":2968,
			"byteOffset":4452,
			"target":34962
		},
		{
			"buffer":0,
			"byteLength":1728,
			"byteOffset":7420,
			"target":34963
		}
	],
	"samplers":[
		{
			"magFilter":9728,
			"minFilter":9984
		}
	],
	"buffers":[
		{
			"byteLength":9148,
			"uri":"broken_pillar_544x02.bin"
		}
	]
}
