{
	"asset":{
		"generator":"Khronos glTF Blender I/O v4.4.55",
		"version":"2.0"
	},
	"scene":0,
	"scenes":[
		{
			"name":"Scene",
			"nodes":[
				0
			]
		}
	],
	"nodes":[
		{
			"mesh":0,
			"name":"broken_door_211x00"
		}
	],
	"materials":[
		{
			"doubleSided":true,
			"name":"211broken",
			"pbrMetallicRoughness":{
				"baseColorTexture":{
					"index":0
				},
				"metallicFactor":0,
				"roughnessFactor":0.5
			}
		}
	],
	"meshes":[
		{
			"name":"Cube.001",
			"primitives":[
				{
					"attributes":{
						"POSITION":0,
						"NORMAL":1,
						"TEXCOORD_0":2,
						"TANGENT":3
					},
					"indices":4,
					"material":0
				}
			]
		}
	],
	"textures":[
		{
			"sampler":0,
			"source":0
		}
	],
	"images":[
		{
			"mimeType":"image/png",
			"name":"211broken_door",
			"uri":"211broken_door.png"
		}
	],
	"accessors":[
		{
			"bufferView":0,
			"componentType":5126,
			"count":144,
			"max":[
				0.30560410022735596,
				5.005633354187012,
				1
			],
			"min":[
				-0.7056041955947876,
				-0.005633354187011719,
				-1.6000001430511475
			],
			"type":"VEC3"
		},
		{
			"bufferView":1,
			"componentType":5126,
			"count":144,
			"type":"VEC3"
		},
		{
			"bufferView":2,
			"componentType":5126,
			"count":144,
			"type":"VEC2"
		},
		{
			"bufferView":3,
			"componentType":5126,
			"count":144,
			"type":"VEC4"
		},
		{
			"bufferView":4,
			"componentType":5123,
			"count":216,
			"type":"SCALAR"
		}
	],
	"bufferViews":[
		{
			"buffer":0,
			"byteLength":1728,
			"byteOffset":0,
			"target":34962
		},
		{
			"buffer":0,
			"byteLength":1728,
			"byteOffset":1728,
			"target":34962
		},
		{
			"buffer":0,
			"byteLength":1152,
			"byteOffset":3456,
			"target":34962
		},
		{
			"buffer":0,
			"byteLength":2304,
			"byteOffset":4608,
			"target":34962
		},
		{
			"buffer":0,
			"byteLength":432,
			"byteOffset":6912,
			"target":34963
		}
	],
	"samplers":[
		{
			"magFilter":9728,
			"minFilter":9984
		}
	],
	"buffers":[
		{
			"byteLength":7344,
			"uri":"broken_door_211x00.bin"
		}
	]
}
