{
	"asset":{
		"generator":"Khronos glTF Blender I/O v4.4.55",
		"version":"2.0"
	},
	"scene":0,
	"scenes":[
		{
			"name":"Scene",
			"nodes":[
				0
			]
		}
	],
	"nodes":[
		{
			"mesh":0,
			"name":"broken_dish_546x10"
		}
	],
	"materials":[
		{
			"doubleSided":true,
			"name":"Material",
			"pbrMetallicRoughness":{
				"baseColorTexture":{
					"index":0
				},
				"metallicFactor":0,
				"roughnessFactor":0.5
			}
		}
	],
	"meshes":[
		{
			"name":"Plane.011",
			"primitives":[
				{
					"attributes":{
						"POSITION":0,
						"NORMAL":1,
						"TEXCOORD_0":2
					},
					"indices":3,
					"material":0
				}
			]
		}
	],
	"textures":[
		{
			"sampler":0,
			"source":0
		}
	],
	"images":[
		{
			"mimeType":"image/png",
			"name":"546broken_dish",
			"uri":"546broken_dish.png"
		}
	],
	"accessors":[
		{
			"bufferView":0,
			"componentType":5126,
			"count":473,
			"max":[
				0.20409809052944183,
				0.15295179188251495,
				0.15114271640777588
			],
			"min":[
				-0.26041826605796814,
				0,
				-0.26724573969841003
			],
			"type":"VEC3"
		},
		{
			"bufferView":1,
			"componentType":5126,
			"count":473,
			"type":"VEC3"
		},
		{
			"bufferView":2,
			"componentType":5126,
			"count":473,
			"type":"VEC2"
		},
		{
			"bufferView":3,
			"componentType":5123,
			"count":1164,
			"type":"SCALAR"
		}
	],
	"bufferViews":[
		{
			"buffer":0,
			"byteLength":5676,
			"byteOffset":0,
			"target":34962
		},
		{
			"buffer":0,
			"byteLength":5676,
			"byteOffset":5676,
			"target":34962
		},
		{
			"buffer":0,
			"byteLength":3784,
			"byteOffset":11352,
			"target":34962
		},
		{
			"buffer":0,
			"byteLength":2328,
			"byteOffset":15136,
			"target":34963
		}
	],
	"samplers":[
		{
			"magFilter":9728,
			"minFilter":9984
		}
	],
	"buffers":[
		{
			"byteLength":17464,
			"uri":"broken_dish_546x10.bin"
		}
	]
}
