{
	"asset":{
		"generator":"Khronos glTF Blender I/O v4.4.55",
		"version":"2.0"
	},
	"scene":0,
	"scenes":[
		{
			"name":"Scene",
			"nodes":[
				0
			]
		}
	],
	"nodes":[
		{
			"mesh":0,
			"name":"broken_door_211x03"
		}
	],
	"materials":[
		{
			"doubleSided":true,
			"name":"211broken",
			"pbrMetallicRoughness":{
				"baseColorTexture":{
					"index":0
				},
				"metallicFactor":0,
				"roughnessFactor":0.5
			}
		}
	],
	"meshes":[
		{
			"name":"Cube.004",
			"primitives":[
				{
					"attributes":{
						"POSITION":0,
						"NORMAL":1,
						"TEXCOORD_0":2,
						"TANGENT":3
					},
					"indices":4,
					"material":0
				}
			]
		}
	],
	"textures":[
		{
			"sampler":0,
			"source":0
		}
	],
	"images":[
		{
			"mimeType":"image/png",
			"name":"211broken_door",
			"uri":"211broken_door.png"
		}
	],
	"accessors":[
		{
			"bufferView":0,
			"componentType":5126,
			"count":159,
			"max":[
				0.6176427602767944,
				5.005762100219727,
				1.3409699201583862
			],
			"min":[
				-0.8026562333106995,
				-0.005761861801147461,
				-1
			],
			"type":"VEC3"
		},
		{
			"bufferView":1,
			"componentType":5126,
			"count":159,
			"type":"VEC3"
		},
		{
			"bufferView":2,
			"componentType":5126,
			"count":159,
			"type":"VEC2"
		},
		{
			"bufferView":3,
			"componentType":5126,
			"count":159,
			"type":"VEC4"
		},
		{
			"bufferView":4,
			"componentType":5123,
			"count":264,
			"type":"SCALAR"
		}
	],
	"bufferViews":[
		{
			"buffer":0,
			"byteLength":1908,
			"byteOffset":0,
			"target":34962
		},
		{
			"buffer":0,
			"byteLength":1908,
			"byteOffset":1908,
			"target":34962
		},
		{
			"buffer":0,
			"byteLength":1272,
			"byteOffset":3816,
			"target":34962
		},
		{
			"buffer":0,
			"byteLength":2544,
			"byteOffset":5088,
			"target":34962
		},
		{
			"buffer":0,
			"byteLength":528,
			"byteOffset":7632,
			"target":34963
		}
	],
	"samplers":[
		{
			"magFilter":9728,
			"minFilter":9984
		}
	],
	"buffers":[
		{
			"byteLength":8160,
			"uri":"broken_door_211x03.bin"
		}
	]
}
