{
	"asset":{
		"generator":"Khronos glTF Blender I/O v4.4.55",
		"version":"2.0"
	},
	"scene":0,
	"scenes":[
		{
			"name":"Scene",
			"nodes":[
				0
			]
		}
	],
	"nodes":[
		{
			"mesh":0,
			"name":"bucket_810x00"
		}
	],
	"materials":[
		{
			"doubleSided":true,
			"name":"810bucket",
			"pbrMetallicRoughness":{
				"baseColorTexture":{
					"index":0
				},
				"metallicFactor":0,
				"roughnessFactor":0.5
			}
		}
	],
	"meshes":[
		{
			"name":"Cylinder.020",
			"primitives":[
				{
					"attributes":{
						"POSITION":0,
						"NORMAL":1,
						"TEXCOORD_0":2,
						"TANGENT":3
					},
					"indices":4,
					"material":0
				}
			]
		}
	],
	"textures":[
		{
			"sampler":0,
			"source":0
		}
	],
	"images":[
		{
			"mimeType":"image/png",
			"name":"810bucket",
			"uri":"810bucket.png"
		}
	],
	"accessors":[
		{
			"bufferView":0,
			"componentType":5126,
			"count":390,
			"max":[
				0.4389398396015167,
				0.7768399715423584,
				0.42724940180778503
			],
			"min":[
				-0.4389398396015167,
				0.0048181116580963135,
				-0.3999999165534973
			],
			"type":"VEC3"
		},
		{
			"bufferView":1,
			"componentType":5126,
			"count":390,
			"type":"VEC3"
		},
		{
			"bufferView":2,
			"componentType":5126,
			"count":390,
			"type":"VEC2"
		},
		{
			"bufferView":3,
			"componentType":5126,
			"count":390,
			"type":"VEC4"
		},
		{
			"bufferView":4,
			"componentType":5123,
			"count":612,
			"type":"SCALAR"
		}
	],
	"bufferViews":[
		{
			"buffer":0,
			"byteLength":4680,
			"byteOffset":0,
			"target":34962
		},
		{
			"buffer":0,
			"byteLength":4680,
			"byteOffset":4680,
			"target":34962
		},
		{
			"buffer":0,
			"byteLength":3120,
			"byteOffset":9360,
			"target":34962
		},
		{
			"buffer":0,
			"byteLength":6240,
			"byteOffset":12480,
			"target":34962
		},
		{
			"buffer":0,
			"byteLength":1224,
			"byteOffset":18720,
			"target":34963
		}
	],
	"samplers":[
		{
			"magFilter":9728,
			"minFilter":9984
		}
	],
	"buffers":[
		{
			"byteLength":19944,
			"uri":"bucket_810x00.bin"
		}
	]
}
