{
	"asset":{
		"generator":"Khronos glTF Blender I/O v4.4.55",
		"version":"2.0"
	},
	"scene":0,
	"scenes":[
		{
			"name":"Scene",
			"nodes":[
				0
			]
		}
	],
	"nodes":[
		{
			"mesh":0,
			"name":"bucket_810x06"
		}
	],
	"materials":[
		{
			"doubleSided":true,
			"name":"810bucket",
			"pbrMetallicRoughness":{
				"baseColorTexture":{
					"index":0
				},
				"metallicFactor":0,
				"roughnessFactor":0.5
			}
		}
	],
	"meshes":[
		{
			"name":"Cylinder.026",
			"primitives":[
				{
					"attributes":{
						"POSITION":0,
						"NORMAL":1,
						"TEXCOORD_0":2,
						"TANGENT":3
					},
					"indices":4,
					"material":0
				}
			]
		}
	],
	"textures":[
		{
			"sampler":0,
			"source":0
		}
	],
	"images":[
		{
			"mimeType":"image/png",
			"name":"810bucket",
			"uri":"810bucket.png"
		}
	],
	"accessors":[
		{
			"bufferView":0,
			"componentType":5126,
			"count":431,
			"max":[
				0.5413690209388733,
				0.9046177864074707,
				0.2822020351886749
			],
			"min":[
				-0.6566541790962219,
				0.004024982452392578,
				-0.28220200538635254
			],
			"type":"VEC3"
		},
		{
			"bufferView":1,
			"componentType":5126,
			"count":431,
			"type":"VEC3"
		},
		{
			"bufferView":2,
			"componentType":5126,
			"count":431,
			"type":"VEC2"
		},
		{
			"bufferView":3,
			"componentType":5126,
			"count":431,
			"type":"VEC4"
		},
		{
			"bufferView":4,
			"componentType":5123,
			"count":573,
			"type":"SCALAR"
		}
	],
	"bufferViews":[
		{
			"buffer":0,
			"byteLength":5172,
			"byteOffset":0,
			"target":34962
		},
		{
			"buffer":0,
			"byteLength":5172,
			"byteOffset":5172,
			"target":34962
		},
		{
			"buffer":0,
			"byteLength":3448,
			"byteOffset":10344,
			"target":34962
		},
		{
			"buffer":0,
			"byteLength":6896,
			"byteOffset":13792,
			"target":34962
		},
		{
			"buffer":0,
			"byteLength":1146,
			"byteOffset":20688,
			"target":34963
		}
	],
	"samplers":[
		{
			"magFilter":9728,
			"minFilter":9984
		}
	],
	"buffers":[
		{
			"byteLength":21836,
			"uri":"bucket_810x06.bin"
		}
	]
}
