{
	"asset":{
		"generator":"Khronos glTF Blender I/O v4.4.55",
		"version":"2.0"
	},
	"scene":0,
	"scenes":[
		{
			"name":"Scene",
			"nodes":[
				0
			]
		}
	],
	"nodes":[
		{
			"mesh":0,
			"name":"candle_338x06"
		}
	],
	"materials":[
		{
			"alphaMode":"BLEND",
			"doubleSided":true,
			"name":"336Light",
			"pbrMetallicRoughness":{
				"baseColorTexture":{
					"index":0
				},
				"metallicFactor":0,
				"roughnessFactor":0.5
			}
		}
	],
	"meshes":[
		{
			"name":"candle_336x06.001",
			"primitives":[
				{
					"attributes":{
						"POSITION":0,
						"NORMAL":1,
						"TEXCOORD_0":2
					},
					"indices":3,
					"material":0
				}
			]
		}
	],
	"textures":[
		{
			"sampler":0,
			"source":0
		}
	],
	"images":[
		{
			"mimeType":"image/png",
			"name":"336light_source",
			"uri":"336light_source.png"
		}
	],
	"accessors":[
		{
			"bufferView":0,
			"componentType":5126,
			"count":393,
			"max":[
				0.25425004959106445,
				1.0446627140045166,
				0.30896618962287903
			],
			"min":[
				-0.25424376130104065,
				0.0024044185411185026,
				-0.32727769017219543
			],
			"type":"VEC3"
		},
		{
			"bufferView":1,
			"componentType":5126,
			"count":393,
			"type":"VEC3"
		},
		{
			"bufferView":2,
			"componentType":5126,
			"count":393,
			"type":"VEC2"
		},
		{
			"bufferView":3,
			"componentType":5123,
			"count":840,
			"type":"SCALAR"
		}
	],
	"bufferViews":[
		{
			"buffer":0,
			"byteLength":4716,
			"byteOffset":0,
			"target":34962
		},
		{
			"buffer":0,
			"byteLength":4716,
			"byteOffset":4716,
			"target":34962
		},
		{
			"buffer":0,
			"byteLength":3144,
			"byteOffset":9432,
			"target":34962
		},
		{
			"buffer":0,
			"byteLength":1680,
			"byteOffset":12576,
			"target":34963
		}
	],
	"samplers":[
		{
			"magFilter":9728,
			"minFilter":9984
		}
	],
	"buffers":[
		{
			"byteLength":14256,
			"uri":"candle_338x06.bin"
		}
	]
}
