# Blender 4.4.0
# www.blender.org
mtllib Candle_336x06.mtl
o candle_336x06
v 0.040181 -0.000000 -0.097006
v 0.097006 -0.000000 -0.040181
v 0.097006 0.000000 0.040181
v 0.040181 0.000000 0.097006
v -0.040181 0.000000 0.097006
v -0.097006 0.000000 0.040181
v -0.097006 -0.000000 -0.040181
v -0.040181 -0.000000 -0.097006
v 0.061994 -0.000000 -0.149666
v 0.149666 -0.000000 -0.061994
v 0.149666 0.000000 0.061994
v 0.061994 0.000000 0.149666
v -0.061994 0.000000 0.149666
v -0.149666 0.000000 0.061994
v -0.149666 -0.000000 -0.061994
v -0.061994 -0.000000 -0.149666
v 0.022910 0.300235 -0.022910
v 0.032399 0.300235 -0.000000
v 0.022910 0.300235 0.022910
v 0.000000 0.300235 0.032399
v -0.022910 0.300235 0.022910
v -0.032399 0.300235 -0.000000
v -0.022910 0.300235 -0.022910
v 0.000000 0.300235 -0.032400
v -0.134818 0.031615 -0.055843
v -0.134818 0.031615 0.055843
v 0.022910 0.016428 -0.022910
v 0.032399 0.016428 -0.000000
v 0.022910 0.016428 0.022910
v 0.000000 0.016428 0.032399
v -0.022910 0.016428 0.022910
v -0.032399 0.016428 -0.000000
v -0.022910 0.016428 -0.022910
v 0.000000 0.016428 -0.032400
v 0.040181 0.016428 -0.097006
v 0.097006 0.016428 -0.040181
v -0.055843 0.031615 0.134818
v 0.097006 0.016428 0.040181
v 0.040181 0.016428 0.097006
v -0.040181 0.016428 0.097006
v -0.097006 0.016428 0.040181
v 0.055843 0.031615 0.134818
v -0.097006 0.016428 -0.040181
v -0.040181 0.016428 -0.097006
v 0.172629 0.031615 -0.071505
v 0.071505 0.031615 -0.172629
v 0.134818 0.031615 0.055843
v 0.071505 0.031615 0.172629
v 0.172629 0.031615 0.071505
v -0.071505 0.031615 0.172629
v -0.172629 0.031615 0.071505
v -0.055843 0.031615 -0.134818
v -0.071505 0.031615 -0.172629
v -0.172629 0.031615 -0.071505
v 0.134818 0.031615 -0.055843
v 0.055843 0.031615 -0.134818
v 0.016126 0.300235 -0.016126
v 0.022806 0.300235 -0.000000
v 0.016126 0.300235 0.016126
v 0.000000 0.300235 0.022806
v -0.016126 0.300235 0.016126
v -0.022806 0.300235 -0.000000
v -0.016126 0.300235 -0.016126
v 0.000000 0.300235 -0.022806
v 0.000000 0.286175 0.007298
v 0.018245 0.294415 -0.000000
v 0.012901 0.294415 -0.012901
v 0.012901 0.294415 0.012901
v 0.000000 0.294415 0.018245
v -0.012901 0.294415 0.012901
v -0.018245 0.294415 -0.000000
v -0.012901 0.294415 -0.012901
v 0.000000 0.294415 -0.018245
v 0.000000 0.294415 -0.000000
v 0.000000 0.286175 -0.007298
v 0.000000 0.286175 -0.000000
v 0.000000 0.361013 0.007298
v 0.000000 0.361013 -0.007298
v 0.000000 0.361013 -0.000000
v 0.000000 0.094372 -0.231728
v 0.000000 0.094372 -0.192638
v 0.000000 0.066731 -0.164997
v 0.000000 0.027641 -0.164997
v 0.000000 -0.000000 -0.192638
v 0.000000 0.066731 -0.259369
v 0.000000 -0.000000 -0.231728
v 0.000000 0.027641 -0.259369
v -0.008750 0.094372 -0.231728
v -0.008750 0.094372 -0.192638
v -0.008750 0.066731 -0.164997
v -0.008750 0.027641 -0.164997
v -0.008750 -0.000000 -0.192638
v -0.008750 0.066731 -0.259369
v -0.008750 -0.000000 -0.231728
v -0.008750 0.027641 -0.259369
v 0.008750 0.094372 -0.231728
v 0.008750 0.094372 -0.192638
v 0.008750 0.066731 -0.164997
v 0.008750 0.027641 -0.164997
v 0.008750 -0.000000 -0.192638
v 0.008750 0.066731 -0.259369
v 0.008750 -0.000000 -0.231728
v 0.008750 0.027641 -0.259369
v 0.000000 0.061374 -0.177931
v 0.000000 0.032999 -0.177931
v 0.000000 0.081438 -0.226370
v 0.000000 0.081438 -0.197995
v 0.000000 0.012934 -0.226370
v 0.000000 0.032999 -0.246435
v 0.000000 0.012934 -0.197995
v 0.000000 0.061374 -0.246435
v -0.008750 0.061374 -0.177931
v -0.008750 0.032999 -0.177931
v -0.008750 0.081438 -0.226370
v -0.008750 0.081438 -0.197995
v -0.008750 0.012934 -0.226370
v -0.008750 0.032999 -0.246435
v -0.008750 0.012934 -0.197995
v -0.008750 0.061374 -0.246435
v 0.008750 0.061374 -0.177931
v 0.008750 0.032999 -0.177931
v 0.008750 0.081438 -0.226370
v 0.008750 0.081438 -0.197995
v 0.008750 0.012934 -0.226370
v 0.008750 0.032999 -0.246435
v 0.008750 0.012934 -0.197995
v 0.008750 0.061374 -0.246435
v 0.007298 0.286175 -0.000000
v -0.007298 0.286175 -0.000000
v 0.000000 0.286175 -0.000000
v 0.007298 0.361013 -0.000000
v -0.007298 0.361013 -0.000000
v 0.000000 0.361013 -0.000000
vn -0.0000 1.0000 -0.0000
vn -0.0000 -1.0000 -0.0000
vn 0.3827 -0.0000 -0.9239
vn -0.9239 -0.0000 -0.3827
vn -0.3827 -0.0000 0.9239
vn 0.9239 -0.0000 0.3827
vn -0.3827 -0.0000 -0.9239
vn -0.9239 -0.0000 0.3827
vn 0.3827 -0.0000 0.9239
vn 0.9239 -0.0000 -0.3827
vn 0.2635 -0.9279 0.2635
vn -0.2635 -0.9279 0.2635
vn -0.2635 -0.9279 -0.2635
vn -0.0000 -0.9279 -0.3727
vn -0.0000 -0.9279 0.3727
vn -0.8091 0.5877 -0.0000
vn -0.3727 -0.9279 -0.0000
vn 0.2635 -0.9279 -0.2635
vn 0.3727 -0.9279 -0.0000
vn -0.0000 0.5877 0.8091
vn 0.5721 0.5877 -0.5721
vn 0.8091 0.5877 -0.0000
vn -0.5721 0.5877 -0.5721
vn 0.5721 0.5877 0.5721
vn -0.0000 0.5877 -0.8091
vn -0.5721 0.5877 0.5721
vn -0.3100 0.5864 -0.7483
vn 0.7483 0.5864 -0.3100
vn 0.3100 0.5864 0.7483
vn -0.7483 0.5864 -0.3100
vn -0.7483 0.5864 0.3100
vn -0.3100 0.5864 0.7483
vn 0.7483 0.5864 0.3100
vn 0.3100 0.5864 -0.7483
vn -1.0000 -0.0000 -0.0000
vn -0.0000 -0.0000 1.0000
vn -0.0000 -0.7071 -0.7071
vn -0.0000 -0.7071 0.7071
vn -0.0000 0.7071 -0.7071
vn -0.0000 0.7071 0.7071
vn -0.0000 -0.0000 -1.0000
vn 1.0000 -0.0000 -0.0000
vt 0.896005 0.394862
vt 0.918851 0.392915
vt 0.900557 0.397792
vt 0.907862 0.387232
vt 0.900557 0.381142
vt 0.918851 0.386018
vt 0.879236 0.384071
vt 0.856391 0.386018
vt 0.874685 0.381142
vt 0.867379 0.387232
vt 0.856391 0.392915
vt 0.907862 0.391702
vt 0.895484 0.384564
vt 0.885564 0.387724
vt 0.899593 0.387724
vt 0.896005 0.384071
vt 0.867379 0.391702
vt 0.874685 0.397792
vt 0.879236 0.394862
vt 0.984982 0.390007
vt 0.984129 0.386499
vt 0.922996 0.383447
vt 0.911426 0.384789
vt 0.913340 0.386021
vt 0.899303 0.386853
vt 0.888375 0.384564
vt 0.894937 0.387724
vt 0.859489 0.386360
vt 0.875969 0.381968
vt 0.823723 0.393066
vt 0.831613 0.387724
vt 0.823723 0.386853
vt 0.943374 0.384882
vt 0.935484 0.390223
vt 0.943374 0.391095
vt 0.872700 0.399069
vt 0.844575 0.390438
vt 0.853440 0.391368
vt 0.854886 0.390438
vt 0.883215 0.386167
vt 0.902962 0.388457
vt 0.891105 0.385296
vt 0.899273 0.396966
vt 0.875969 0.396966
vt 0.844597 0.383783
vt 0.824409 0.388252
vt 0.844597 0.388252
vt 0.917035 0.390827
vt 0.923003 0.388839
vt 0.914563 0.388839
vt 0.923642 0.393444
vt 0.902541 0.399069
vt 0.902541 0.379864
vt 0.915753 0.386360
vt 0.923642 0.385489
vt 0.851599 0.385489
vt 0.872700 0.379864
vt 0.851599 0.393444
vt 0.915753 0.392573
vt 0.899273 0.381968
vt 0.859489 0.392573
vt 0.761422 0.387261
vt 0.897595 0.386516
vt 0.897595 0.387003
vt 0.917287 0.386516
vt 0.911519 0.387003
vt 0.917287 0.387003
vt 0.903362 0.386516
vt 0.903362 0.387003
vt 0.911519 0.386516
vt 0.897595 0.387490
vt 0.917287 0.387490
vt 0.903362 0.387490
vt 0.911519 0.387490
vt 0.900294 0.387003
vt 0.900294 0.386516
vt 0.910401 0.387003
vt 0.914588 0.386516
vt 0.914588 0.387003
vt 0.904480 0.386516
vt 0.904480 0.387003
vt 0.910401 0.386516
vt 0.900294 0.387490
vt 0.914588 0.387490
vt 0.904480 0.387490
vt 0.910401 0.387490
vt 0.889673 0.384564
vt 0.918373 0.382937
vt 0.890183 0.382460
vt 0.831613 0.392194
vt 0.935484 0.385753
vt 0.846020 0.391368
vt 0.899694 0.390560
vt 0.824409 0.383783
vt 0.920531 0.390827
s 0
usemtl bottle_texture
f 3/1/1 12/2/1 11/3/1
f 5/4/1 14/5/1 13/6/1
f 7/7/1 16/8/1 15/9/1
f 8/10/1 9/11/1 16/8/1
f 4/12/1 13/6/1 12/2/1
f 41/13/2 44/14/2 40/15/2
f 6/16/1 15/9/1 14/5/1
f 1/17/1 10/18/1 9/11/1
f 2/19/1 11/3/1 10/18/1
f 1/17/1 5/4/1 4/12/1
f 4/12/1 2/19/1 1/17/1
f 17/20/3 34/20/3 24/20/3
f 23/20/4 32/20/4 22/20/4
f 21/21/5 30/21/5 20/21/5
f 19/20/6 28/20/6 18/20/6
f 24/20/7 33/20/7 23/20/7
f 22/20/8 31/20/8 21/20/8
f 20/20/9 29/20/9 19/20/9
f 18/20/10 27/20/10 17/20/10
f 42/22/11 38/23/11 47/24/11
f 37/25/12 41/26/12 40/27/12
f 52/28/13 43/7/13 25/29/13
f 56/30/14 44/31/14 52/32/14
f 37/33/15 39/34/15 42/35/15
f 11/3/16 45/36/16 10/18/16
f 25/37/17 41/38/17 26/39/17
f 56/40/18 36/41/18 35/42/18
f 47/43/19 36/19/19 55/44/19
f 40/45/2 35/46/2 39/47/2
f 36/48/2 39/49/2 35/50/2
f 48/51/2 47/43/2 49/52/2
f 51/53/2 37/54/2 50/55/2
f 53/56/2 25/29/2 54/57/2
f 46/58/2 52/28/2 53/56/2
f 50/55/2 42/59/2 48/51/2
f 9/11/20 53/56/20 16/8/20
f 14/5/21 50/55/21 13/6/21
f 15/9/22 51/53/22 14/5/22
f 54/57/2 26/60/2 51/53/2
f 49/52/2 55/44/2 45/36/2
f 45/36/2 56/61/2 46/58/2
f 12/2/23 49/52/23 11/3/23
f 16/8/24 54/57/24 15/9/24
f 13/6/25 48/51/25 12/2/25
f 10/18/26 46/58/26 9/11/26
f 8/10/1 6/16/1 5/4/1
f 17/20/1 64/20/1 57/20/1
f 22/20/1 63/20/1 23/20/1
f 20/20/1 61/20/1 21/20/1
f 18/20/1 59/20/1 19/20/1
f 23/20/1 64/20/1 24/20/1
f 22/20/1 61/20/1 62/20/1
f 20/20/1 59/20/1 60/20/1
f 18/20/1 57/20/1 58/20/1
f 59/20/27 69/20/27 60/20/27
f 61/20/28 71/20/28 62/20/28
f 63/20/29 73/20/29 64/20/29
f 59/20/30 66/20/30 68/20/30
f 74/20/1 67/20/1 73/20/1
f 74/20/1 72/20/1 71/20/1
f 70/20/1 74/20/1 71/20/1
f 68/20/1 74/20/1 69/20/1
f 57/20/31 66/20/31 58/20/31
f 57/20/32 73/20/32 67/20/32
f 63/20/33 71/20/33 72/20/33
f 61/20/34 69/20/34 70/20/34
f 65/62/35 79/62/35 76/62/35
f 76/62/35 78/62/35 75/62/35
f 93/63/36 87/64/36 85/64/36
f 90/65/37 81/66/37 82/67/37
f 94/68/1 84/66/1 86/69/1
f 89/70/2 80/69/2 81/66/2
f 88/68/38 85/64/38 80/69/38
f 92/70/39 83/67/39 84/66/39
f 95/63/40 86/69/40 87/64/40
f 91/65/41 82/67/41 83/67/41
f 101/71/38 80/69/38 85/64/38
f 99/72/39 84/66/39 83/67/39
f 102/73/40 87/64/40 86/69/40
f 98/72/41 83/67/41 82/67/41
f 103/71/36 85/64/36 87/64/36
f 97/74/37 82/67/37 81/66/37
f 100/74/1 86/69/1 84/66/1
f 96/73/2 81/66/2 80/69/2
f 109/75/41 119/76/41 111/75/41
f 107/77/40 112/78/40 104/79/40
f 110/77/2 116/80/2 108/81/2
f 106/81/1 115/82/1 107/77/1
f 111/75/39 114/80/39 106/81/39
f 105/79/38 118/82/38 110/77/38
f 108/81/37 117/76/37 109/75/37
f 104/79/36 113/78/36 105/79/36
f 106/81/39 127/83/39 111/75/39
f 110/77/38 121/84/38 105/79/38
f 109/75/37 124/85/37 108/81/37
f 105/79/36 120/84/36 104/79/36
f 111/75/41 125/83/41 109/75/41
f 104/79/40 123/86/40 107/77/40
f 108/81/2 126/86/2 110/77/2
f 107/77/1 122/85/1 106/81/1
f 97/74/35 122/85/35 123/86/35
f 92/70/42 116/80/42 118/82/42
f 103/71/35 124/85/35 125/83/35
f 91/65/42 118/82/42 113/78/42
f 100/74/35 124/85/35 102/73/35
f 89/70/42 112/78/42 115/82/42
f 99/72/35 126/86/35 100/74/35
f 88/68/42 119/76/42 93/63/42
f 97/74/35 120/84/35 98/72/35
f 93/63/42 117/76/42 95/63/42
f 96/73/35 127/83/35 122/85/35
f 90/65/42 113/78/42 112/78/42
f 101/71/35 125/83/35 127/83/35
f 89/70/42 114/80/42 88/68/42
f 98/72/35 121/84/35 99/72/35
f 95/63/42 116/80/42 94/68/42
f 128/62/36 133/62/36 130/62/36
f 130/62/36 132/62/36 129/62/36
f 3/1/1 4/12/1 12/2/1
f 5/4/1 6/16/1 14/5/1
f 7/7/1 8/10/1 16/8/1
f 8/10/1 1/17/1 9/11/1
f 4/12/1 5/4/1 13/6/1
f 41/13/2 43/87/2 44/14/2
f 6/16/1 7/7/1 15/9/1
f 1/17/1 2/19/1 10/18/1
f 2/19/1 3/1/1 11/3/1
f 1/17/1 8/10/1 5/4/1
f 4/12/1 3/1/1 2/19/1
f 17/20/3 27/20/3 34/20/3
f 23/20/4 33/20/4 32/20/4
f 21/21/5 31/21/5 30/21/5
f 19/20/6 29/20/6 28/20/6
f 24/20/7 34/20/7 33/20/7
f 22/20/8 32/20/8 31/20/8
f 20/20/9 30/20/9 29/20/9
f 18/20/10 28/20/10 27/20/10
f 42/22/11 39/88/11 38/23/11
f 37/25/12 26/89/12 41/26/12
f 52/28/13 44/10/13 43/7/13
f 56/30/14 35/90/14 44/31/14
f 37/33/15 40/91/15 39/34/15
f 11/3/16 49/52/16 45/36/16
f 25/37/17 43/92/17 41/38/17
f 56/40/18 55/93/18 36/41/18
f 47/43/19 38/1/19 36/19/19
f 40/45/2 44/94/2 35/46/2
f 36/48/2 38/95/2 39/49/2
f 48/51/2 42/59/2 47/43/2
f 51/53/2 26/60/2 37/54/2
f 53/56/2 52/28/2 25/29/2
f 46/58/2 56/61/2 52/28/2
f 50/55/2 37/54/2 42/59/2
f 9/11/20 46/58/20 53/56/20
f 14/5/21 51/53/21 50/55/21
f 15/9/22 54/57/22 51/53/22
f 54/57/2 25/29/2 26/60/2
f 49/52/2 47/43/2 55/44/2
f 45/36/2 55/44/2 56/61/2
f 12/2/23 48/51/23 49/52/23
f 16/8/24 53/56/24 54/57/24
f 13/6/25 50/55/25 48/51/25
f 10/18/26 45/36/26 46/58/26
f 8/10/1 7/7/1 6/16/1
f 17/20/1 24/20/1 64/20/1
f 22/20/1 62/20/1 63/20/1
f 20/20/1 60/20/1 61/20/1
f 18/20/1 58/20/1 59/20/1
f 23/20/1 63/20/1 64/20/1
f 22/20/1 21/20/1 61/20/1
f 20/20/1 19/20/1 59/20/1
f 18/20/1 17/20/1 57/20/1
f 59/20/27 68/20/27 69/20/27
f 61/20/28 70/20/28 71/20/28
f 63/20/29 72/20/29 73/20/29
f 59/20/30 58/20/30 66/20/30
f 74/20/1 66/20/1 67/20/1
f 74/20/1 73/20/1 72/20/1
f 70/20/1 69/20/1 74/20/1
f 68/20/1 66/20/1 74/20/1
f 57/20/31 67/20/31 66/20/31
f 57/20/32 64/20/32 73/20/32
f 63/20/33 62/20/33 71/20/33
f 61/20/34 60/20/34 69/20/34
f 65/62/35 77/62/35 79/62/35
f 76/62/35 79/62/35 78/62/35
f 93/63/36 95/63/36 87/64/36
f 90/65/37 89/70/37 81/66/37
f 94/68/1 92/70/1 84/66/1
f 89/70/2 88/68/2 80/69/2
f 88/68/38 93/63/38 85/64/38
f 92/70/39 91/65/39 83/67/39
f 95/63/40 94/68/40 86/69/40
f 91/65/41 90/65/41 82/67/41
f 101/71/38 96/73/38 80/69/38
f 99/72/39 100/74/39 84/66/39
f 102/73/40 103/71/40 87/64/40
f 98/72/41 99/72/41 83/67/41
f 103/71/36 101/71/36 85/64/36
f 97/74/37 98/72/37 82/67/37
f 100/74/1 102/73/1 86/69/1
f 96/73/2 97/74/2 81/66/2
f 109/75/41 117/76/41 119/76/41
f 107/77/40 115/82/40 112/78/40
f 110/77/2 118/82/2 116/80/2
f 106/81/1 114/80/1 115/82/1
f 111/75/39 119/76/39 114/80/39
f 105/79/38 113/78/38 118/82/38
f 108/81/37 116/80/37 117/76/37
f 104/79/36 112/78/36 113/78/36
f 106/81/39 122/85/39 127/83/39
f 110/77/38 126/86/38 121/84/38
f 109/75/37 125/83/37 124/85/37
f 105/79/36 121/84/36 120/84/36
f 111/75/41 127/83/41 125/83/41
f 104/79/40 120/84/40 123/86/40
f 108/81/2 124/85/2 126/86/2
f 107/77/1 123/86/1 122/85/1
f 97/74/35 96/73/35 122/85/35
f 92/70/42 94/68/42 116/80/42
f 103/71/35 102/73/35 124/85/35
f 91/65/42 92/70/42 118/82/42
f 100/74/35 126/86/35 124/85/35
f 89/70/42 90/65/42 112/78/42
f 99/72/35 121/84/35 126/86/35
f 88/68/42 114/80/42 119/76/42
f 97/74/35 123/86/35 120/84/35
f 93/63/42 119/76/42 117/76/42
f 96/73/35 101/71/35 127/83/35
f 90/65/42 91/65/42 113/78/42
f 101/71/35 103/71/35 125/83/35
f 89/70/42 115/82/42 114/80/42
f 98/72/35 120/84/35 121/84/35
f 95/63/42 117/76/42 116/80/42
f 128/62/36 131/62/36 133/62/36
f 130/62/36 133/62/36 132/62/36
