# Blender 4.4.0
# www.blender.org
mtllib Candle_336x15.mtl
o Candle_336x15
v -0.000000 1.357417 -0.066127
v 0.045585 1.357417 -0.046759
v 0.064468 1.357417 -0.000000
v 0.045585 1.357417 0.046758
v -0.000000 1.357417 0.066126
v -0.045586 1.357417 0.046758
v -0.064468 1.357417 -0.000000
v -0.045586 1.357417 -0.046759
v -0.000000 1.345658 -0.174520
v 0.120308 1.345658 -0.123404
v 0.170142 1.345658 -0.000000
v 0.120308 1.345658 0.123404
v -0.000000 1.345658 0.174519
v -0.120308 1.345658 0.123404
v -0.170142 1.345658 -0.000000
v -0.120308 1.345658 -0.123404
v -0.000000 1.398326 -0.174520
v 0.120308 1.398326 -0.123404
v 0.170142 1.398326 -0.000000
v 0.120308 1.398326 0.123404
v -0.000000 1.398326 0.174519
v -0.120308 1.398326 0.123404
v -0.170142 1.398326 -0.000000
v -0.120308 1.398326 -0.123404
v -0.000000 1.398326 -0.191060
v 0.131710 1.398326 -0.135100
v 0.186267 1.398326 -0.000000
v 0.131710 1.398326 0.135099
v -0.000000 1.398326 0.191059
v -0.131711 1.398326 0.135099
v -0.186267 1.398326 -0.000000
v -0.131711 1.398326 -0.135100
v -0.000000 1.314935 -0.178447
v 0.123016 1.314935 -0.126181
v 0.173970 1.314935 -0.000000
v 0.123016 1.314935 0.126181
v -0.000000 1.314935 0.178447
v -0.123016 1.314935 0.126181
v -0.173971 1.314935 -0.000000
v -0.123016 1.314935 -0.126181
v -0.000000 1.271046 -0.043296
v 0.029847 1.271046 -0.030615
v 0.042210 1.271046 -0.000000
v 0.029847 1.271046 0.030615
v -0.000000 1.271046 0.043296
v -0.029847 1.271046 0.030615
v -0.042210 1.271046 -0.000000
v -0.029847 1.271046 -0.030615
v -0.000000 0.052636 -0.043296
v 0.029847 0.052636 -0.030615
v 0.042210 0.052636 -0.000000
v 0.029847 0.052636 0.030615
v -0.000000 0.052636 0.043296
v -0.029847 0.052636 0.030615
v -0.042210 0.052636 -0.000000
v -0.029847 0.052636 -0.030615
v -0.000000 0.052636 -0.061746
v 0.042565 0.052636 -0.043661
v 0.060196 0.052636 -0.000000
v 0.042565 0.052636 0.043660
v -0.000000 0.052636 0.061745
v -0.042565 0.052636 0.043660
v -0.060197 0.052636 -0.000000
v -0.042565 0.052636 -0.043661
v -0.000000 0.023376 -0.137331
v 0.094671 0.023376 -0.097107
v 0.133885 0.023376 -0.000000
v 0.094671 0.023376 0.097107
v -0.000000 0.023376 0.137330
v -0.094672 0.023376 0.097107
v -0.133886 0.023376 -0.000000
v -0.094672 0.023376 -0.097107
v -0.000000 -0.013199 -0.137331
v 0.094671 -0.013199 -0.097107
v 0.133885 -0.013199 -0.000000
v 0.094671 -0.013199 0.097107
v -0.000000 -0.013199 0.137330
v -0.094672 -0.013199 0.097107
v -0.133886 -0.013199 -0.000000
v -0.094672 -0.013199 -0.097107
v 0.011255 1.321899 -0.143588
v 0.011255 1.647043 -0.143588
v 0.107440 1.321899 -0.101562
v 0.107440 1.647043 -0.101562
v 0.147282 1.321899 -0.000101
v 0.147282 1.647043 -0.000101
v 0.107440 1.321899 0.101359
v 0.107440 1.647043 0.101359
v 0.011255 1.321899 0.143386
v 0.011255 1.647043 0.143386
v -0.084930 1.321899 0.101359
v -0.084930 1.647043 0.101359
v -0.124771 1.321899 -0.000101
v -0.124771 1.647043 -0.000101
v -0.084930 1.321899 -0.101562
v -0.084930 1.647043 -0.101562
v 0.011255 1.674013 -0.200609
v 0.145664 1.674013 -0.141882
v 0.201337 1.674013 -0.000101
v 0.145664 1.674013 0.141679
v 0.011255 1.674013 0.200406
v -0.123153 1.674013 0.141679
v -0.178827 1.674013 -0.000101
v -0.123153 1.674013 -0.141882
v 0.011255 1.878221 -0.200609
v 0.145664 1.878221 -0.141882
v 0.201337 1.878221 -0.000101
v 0.145664 1.878221 0.141679
v 0.011255 1.878221 0.200406
v -0.123153 1.878221 0.141679
v -0.178827 1.878221 -0.000101
v -0.123153 1.878221 -0.141882
v 0.011255 1.947575 -0.189659
v 0.138323 1.947575 -0.134139
v 0.190957 1.947575 -0.000101
v 0.138323 1.947575 0.133936
v 0.011255 1.947575 0.189457
v -0.115813 1.947575 0.133936
v -0.168446 1.947575 -0.000101
v -0.115813 1.947575 -0.134139
v 0.011255 2.122346 -0.104329
v 0.081123 2.122346 -0.073802
v 0.110064 2.122346 -0.000101
v 0.081123 2.122346 0.073599
v 0.011255 2.122346 0.104127
v -0.058613 2.122346 0.073599
v -0.087553 2.122346 -0.000101
v -0.058613 2.122346 -0.073802
v 0.011255 2.291569 -0.104329
v 0.081123 2.291569 -0.073802
v 0.110064 2.291569 -0.000101
v 0.081123 2.291569 0.073599
v 0.011255 2.291569 0.104127
v -0.058613 2.291569 0.073599
v -0.087553 2.291569 -0.000101
v -0.058613 2.291569 -0.073802
v 0.012452 1.627415 -0.095574
v 0.012452 1.751833 -0.095574
v 0.076451 1.627415 -0.067611
v 0.076451 1.751833 -0.067611
v 0.102961 1.627415 -0.000101
v 0.102961 1.751833 -0.000101
v 0.076451 1.627415 0.067408
v 0.076451 1.751833 0.067408
v 0.012452 1.627415 0.095372
v 0.012452 1.751833 0.095372
v -0.051548 1.627415 0.067408
v -0.051548 1.751833 0.067408
v -0.078057 1.627415 -0.000101
v -0.078057 1.751833 -0.000101
v -0.051548 1.627415 -0.067611
v -0.051548 1.751833 -0.067611
v 0.013213 1.909683 0.033070
v 0.013213 1.752483 0.033070
v 0.013213 1.909683 -0.028257
v 0.013213 1.752483 -0.028257
v 0.043876 1.910516 0.002407
v 0.043876 1.753317 0.002407
v -0.017451 1.910516 0.002407
v -0.017451 1.753317 0.002407
vn -0.1105 0.9929 0.0446
vn -0.3910 -0.0000 0.9204
vn 0.0458 0.9931 0.1077
vn 0.1105 0.9929 -0.0446
vn -0.1105 0.9929 -0.0446
vn -0.0458 0.9931 0.1077
vn 0.1105 0.9929 0.0446
vn 0.0458 0.9931 -0.1077
vn -0.0458 0.9931 -0.1077
vn -0.0000 1.0000 -0.0000
vn 0.3910 -0.0000 0.9204
vn 0.9272 -0.0000 -0.3744
vn -0.3910 -0.0000 -0.9204
vn -0.9272 -0.0000 0.3744
vn 0.9272 -0.0000 0.3744
vn 0.3910 -0.0000 -0.9204
vn -0.9272 -0.0000 -0.3744
vn 0.9187 -0.1355 -0.3710
vn -0.1301 -0.9430 -0.3062
vn -0.9187 -0.1355 -0.3710
vn -0.3873 -0.1379 0.9116
vn 0.9187 -0.1355 0.3710
vn 0.3873 -0.1379 -0.9116
vn -0.3873 -0.1379 -0.9116
vn -0.9187 -0.1355 0.3710
vn 0.3873 -0.1379 0.9116
vn -0.3135 -0.9411 0.1266
vn 0.1301 -0.9430 0.3062
vn 0.3135 -0.9411 -0.1266
vn -0.3135 -0.9411 -0.1266
vn -0.1301 -0.9430 0.3062
vn 0.3135 -0.9411 0.1266
vn 0.1301 -0.9430 -0.3062
vn 0.1516 0.9218 0.3568
vn 0.3650 0.9193 -0.1474
vn -0.3650 0.9193 -0.1474
vn -0.1516 0.9218 0.3568
vn 0.3650 0.9193 0.1474
vn 0.1516 0.9218 -0.3568
vn -0.1516 0.9218 -0.3568
vn -0.3650 0.9193 0.1474
vn -0.0000 -1.0000 -0.0000
vn 0.4004 -0.0000 -0.9163
vn 0.9308 -0.0000 -0.3655
vn 0.9308 -0.0000 0.3655
vn 0.4004 -0.0000 0.9163
vn -0.4004 -0.0000 0.9163
vn -0.9308 -0.0000 0.3655
vn 0.4397 -0.8814 -0.1727
vn -0.9308 -0.0000 -0.3655
vn -0.4004 -0.0000 -0.9163
vn -0.1836 -0.8886 0.4203
vn -0.1836 -0.8886 -0.4203
vn 0.1836 -0.8886 -0.4203
vn 0.4398 -0.8814 0.1727
vn -0.4398 -0.8814 0.1727
vn 0.1836 -0.8886 0.4203
vn -0.4398 -0.8814 -0.1727
vn -0.3963 0.1432 -0.9069
vn -0.3655 0.4084 0.8365
vn -0.9219 0.1380 0.3620
vn 0.3963 0.1432 0.9069
vn 0.9219 0.1380 -0.3620
vn -0.9219 0.1380 -0.3620
vn -0.3963 0.1432 0.9069
vn 0.9219 0.1380 0.3620
vn 0.3963 0.1432 -0.9069
vn 0.8548 0.3957 0.3357
vn 0.3655 0.4084 -0.8365
vn -0.3655 0.4084 -0.8365
vn -0.8548 0.3957 0.3357
vn 0.3655 0.4084 0.8365
vn 0.8548 0.3957 -0.3357
vn -0.8548 0.3957 -0.3357
vn 1.0000 -0.0000 -0.0000
vn -0.0000 -0.0000 -1.0000
vn -0.9273 -0.0000 -0.3744
vn 0.4398 -0.8814 -0.1727
vn -0.4397 -0.8814 -0.1727
vt 0.760945 0.397832
vt 0.760524 0.400394
vt 0.771817 0.412083
vt 0.770801 0.413144
vt 0.760323 0.398382
vt 0.761338 0.399443
vt 0.771053 0.428728
vt 0.771473 0.426166
vt 0.766730 0.400002
vt 0.766309 0.397441
vt 0.755905 0.399966
vt 0.754890 0.401027
vt 0.770398 0.395953
vt 0.770819 0.398515
vt 0.767199 0.399453
vt 0.766184 0.398392
vt 0.771557 0.400951
vt 0.769310 0.405637
vt 0.770085 0.407884
vt 0.150213 0.914845
vt 0.151842 0.913142
vt 0.152518 0.909030
vt 0.151722 0.901209
vt 0.151047 0.897097
vt 0.147235 0.880904
vt 0.145606 0.879201
vt 0.145779 0.897525
vt 0.144149 0.899228
vt 0.141465 0.883320
vt 0.140790 0.887432
vt 0.143301 0.885015
vt 0.143976 0.889127
vt 0.150300 0.898289
vt 0.151930 0.899993
vt 0.140938 0.881438
vt 0.138691 0.886124
vt 0.139466 0.888371
vt 0.129675 0.738418
vt 0.128045 0.736715
vt 0.126415 0.746641
vt 0.128045 0.748344
vt 0.129675 0.746641
vt 0.130350 0.742529
vt 0.125740 0.742529
vt 0.126415 0.738418
vt 0.137475 0.745818
vt 0.138474 0.741117
vt 0.140523 0.739462
vt 0.024836 0.944739
vt 0.026466 0.943035
vt 0.027141 0.938924
vt 0.026466 0.934812
vt 0.024836 0.933109
vt 0.023206 0.934812
vt 0.022531 0.938924
vt 0.027655 0.943829
vt 0.029295 0.936105
vt 0.032661 0.933388
vt 0.023206 0.943035
vt 0.030997 0.908925
vt 0.028751 0.913611
vt 0.029525 0.915858
vt 0.064093 0.976217
vt 0.061904 0.984774
vt 0.061904 0.976217
vt 0.771369 0.406006
vt 0.772332 0.403198
vt 0.772410 0.401104
vt 0.770273 0.402829
vt 0.769232 0.407731
vt 0.140750 0.886494
vt 0.141713 0.883685
vt 0.141791 0.881591
vt 0.139654 0.883316
vt 0.138613 0.888218
vt 0.140448 0.741471
vt 0.139524 0.744164
vt 0.138293 0.745965
vt 0.137550 0.743810
vt 0.139705 0.739316
vt 0.032538 0.936687
vt 0.031021 0.941112
vt 0.028998 0.944070
vt 0.027778 0.940530
vt 0.031318 0.933147
vt 0.030809 0.913980
vt 0.031772 0.911172
vt 0.031850 0.909078
vt 0.029714 0.910803
vt 0.028673 0.915705
vt 0.064093 0.984774
s 0
usemtl 336Light
f 6/1/1 15/2/1 14/1/1
f 10/3/2 17/4/2 9/4/2
f 5/5/3 12/6/3 4/6/3
f 2/7/4 11/8/4 10/7/4
f 8/9/5 15/10/5 7/10/5
f 5/11/6 14/12/6 13/11/6
f 4/13/7 11/14/7 3/14/7
f 1/4/8 10/3/8 9/4/8
f 1/15/9 16/16/9 8/16/9
f 24/9/10 31/10/10 23/10/10
f 9/15/11 24/16/11 16/16/11
f 15/2/12 22/1/12 14/1/12
f 13/5/13 20/6/13 12/6/13
f 11/8/14 18/7/14 10/7/14
f 16/9/15 23/10/15 15/10/15
f 14/12/16 21/11/16 13/11/16
f 12/13/17 19/14/17 11/14/17
f 27/8/18 34/7/18 26/7/18
f 21/11/10 30/12/10 29/11/10
f 20/13/10 27/14/10 19/14/10
f 17/4/10 26/3/10 25/4/10
f 17/15/10 32/16/10 24/16/10
f 22/1/10 31/2/10 30/1/10
f 21/5/10 28/6/10 20/6/10
f 18/7/10 27/8/10 26/7/10
f 40/16/19 41/15/19 48/16/19
f 31/10/20 40/9/20 39/10/20
f 30/12/21 37/11/21 29/11/21
f 27/14/22 36/13/22 35/14/22
f 26/3/23 33/4/23 25/4/23
f 32/16/24 33/15/24 40/16/24
f 31/2/25 38/1/25 30/1/25
f 28/6/26 37/5/26 36/6/26
f 44/13/15 51/14/15 43/14/15
f 39/2/27 46/1/27 38/1/27
f 36/6/28 45/5/28 44/6/28
f 35/8/29 42/7/29 34/7/29
f 39/10/30 48/9/30 47/10/30
f 38/12/31 45/11/31 37/11/31
f 35/14/32 44/13/32 43/14/32
f 34/3/33 41/4/33 33/4/33
f 56/9/10 63/10/10 55/10/10
f 42/3/16 49/4/16 41/4/16
f 48/16/13 49/15/13 56/16/13
f 47/2/14 54/1/14 46/1/14
f 44/6/11 53/5/11 52/6/11
f 43/8/12 50/7/12 42/7/12
f 47/10/17 56/9/17 55/10/17
f 46/12/2 53/11/2 45/11/2
f 61/5/34 68/6/34 60/6/34
f 53/11/10 62/12/10 61/11/10
f 52/13/10 59/14/10 51/14/10
f 49/4/10 58/3/10 57/4/10
f 49/15/10 64/16/10 56/16/10
f 54/1/10 63/2/10 62/1/10
f 53/5/10 60/6/10 52/6/10
f 50/7/10 59/8/10 58/7/10
f 65/15/13 80/16/13 72/16/13
f 58/7/35 67/8/35 66/7/35
f 64/9/36 71/10/36 63/10/36
f 61/11/37 70/12/37 69/11/37
f 60/13/38 67/14/38 59/14/38
f 57/4/39 66/3/39 65/4/39
f 57/15/40 72/16/40 64/16/40
f 62/1/41 71/2/41 70/1/41
f 76/17/42 78/18/42 80/19/42
f 71/2/14 78/1/14 70/1/14
f 69/5/11 76/6/11 68/6/11
f 67/8/12 74/7/12 66/7/12
f 72/9/17 79/10/17 71/10/17
f 70/12/2 77/11/2 69/11/2
f 68/13/15 75/14/15 67/14/15
f 66/3/16 73/4/16 65/4/16
f 82/20/43 83/21/43 81/20/43
f 84/21/44 85/22/44 83/21/44
f 86/23/45 87/24/45 85/23/45
f 88/25/46 89/26/46 87/25/46
f 90/27/47 91/28/47 89/27/47
f 92/29/48 93/30/48 91/29/48
f 84/21/49 99/22/49 86/22/49
f 94/31/50 95/32/50 93/31/50
f 96/33/51 81/34/51 95/33/51
f 87/35/42 91/36/42 95/37/42
f 100/38/46 109/39/46 101/39/46
f 90/27/52 102/28/52 92/28/52
f 82/34/53 104/33/53 97/34/53
f 82/20/54 98/21/54 84/21/54
f 88/24/55 99/23/55 100/24/55
f 92/29/56 103/30/56 94/30/56
f 90/26/57 100/25/57 101/26/57
f 96/32/58 103/31/58 104/32/58
f 112/40/59 113/41/59 105/41/59
f 98/42/44 107/43/44 99/43/44
f 103/44/50 112/40/50 104/40/50
f 101/39/47 110/45/47 102/45/47
f 99/43/45 108/38/45 100/38/45
f 97/41/43 106/42/43 98/42/43
f 104/40/51 105/41/51 97/41/51
f 102/45/48 111/44/48 103/44/48
f 118/45/60 125/39/60 126/45/60
f 111/44/61 118/45/61 119/44/61
f 108/38/62 117/39/62 109/39/62
f 107/43/63 114/42/63 115/43/63
f 111/44/64 120/40/64 112/40/64
f 110/45/65 117/39/65 118/45/65
f 107/43/66 116/38/66 108/38/66
f 106/42/67 113/41/67 114/42/67
f 128/40/50 135/44/50 136/40/50
f 115/43/68 124/38/68 116/38/68
f 114/42/69 121/41/69 122/42/69
f 120/40/70 121/41/70 113/41/70
f 119/44/71 126/45/71 127/44/71
f 116/38/72 125/39/72 117/39/72
f 115/43/73 122/42/73 123/43/73
f 119/44/74 128/40/74 120/40/74
f 135/46/10 133/47/10 131/48/10
f 125/39/47 134/45/47 126/45/47
f 123/43/45 132/38/45 124/38/45
f 122/42/43 129/41/43 130/42/43
f 128/40/51 129/41/51 121/41/51
f 126/45/48 135/44/48 127/44/48
f 124/38/46 133/39/46 125/39/46
f 123/43/44 130/42/44 131/43/44
f 138/49/43 139/50/43 137/49/43
f 140/50/44 141/51/44 139/50/44
f 142/51/45 143/52/45 141/51/45
f 144/52/46 145/53/46 143/52/46
f 146/53/47 147/54/47 145/53/47
f 148/54/48 149/55/48 147/54/48
f 150/56/10 146/57/10 142/58/10
f 150/55/50 151/59/50 149/55/50
f 152/59/51 137/49/51 151/59/51
f 143/60/42 147/61/42 151/62/42
f 154/63/75 155/64/75 153/65/75
f 158/63/76 159/64/76 157/65/76
f 6/1/1 7/2/1 15/2/1
f 10/3/2 18/3/2 17/4/2
f 5/5/3 13/5/3 12/6/3
f 2/7/4 3/8/4 11/8/4
f 8/9/5 16/9/5 15/10/5
f 5/11/6 6/12/6 14/12/6
f 4/13/7 12/13/7 11/14/7
f 1/4/8 2/3/8 10/3/8
f 1/15/9 9/15/9 16/16/9
f 24/9/10 32/9/10 31/10/10
f 9/15/11 17/15/11 24/16/11
f 15/2/12 23/2/12 22/1/12
f 13/5/13 21/5/13 20/6/13
f 11/8/14 19/8/14 18/7/14
f 16/9/15 24/9/15 23/10/15
f 14/12/16 22/12/16 21/11/16
f 12/13/77 20/13/77 19/14/77
f 27/8/18 35/8/18 34/7/18
f 21/11/10 22/12/10 30/12/10
f 20/13/10 28/13/10 27/14/10
f 17/4/10 18/3/10 26/3/10
f 17/15/10 25/15/10 32/16/10
f 22/1/10 23/2/10 31/2/10
f 21/5/10 29/5/10 28/6/10
f 18/7/10 19/8/10 27/8/10
f 40/16/19 33/15/19 41/15/19
f 31/10/20 32/9/20 40/9/20
f 30/12/21 38/12/21 37/11/21
f 27/14/22 28/13/22 36/13/22
f 26/3/23 34/3/23 33/4/23
f 32/16/24 25/15/24 33/15/24
f 31/2/25 39/2/25 38/1/25
f 28/6/26 29/5/26 37/5/26
f 44/13/15 52/13/15 51/14/15
f 39/2/27 47/2/27 46/1/27
f 36/6/28 37/5/28 45/5/28
f 35/8/29 43/8/29 42/7/29
f 39/10/30 40/9/30 48/9/30
f 38/12/31 46/12/31 45/11/31
f 35/14/32 36/13/32 44/13/32
f 34/3/33 42/3/33 41/4/33
f 56/9/10 64/9/10 63/10/10
f 42/3/16 50/3/16 49/4/16
f 48/16/13 41/15/13 49/15/13
f 47/2/14 55/2/14 54/1/14
f 44/6/11 45/5/11 53/5/11
f 43/8/12 51/8/12 50/7/12
f 47/10/17 48/9/17 56/9/17
f 46/12/2 54/12/2 53/11/2
f 61/5/34 69/5/34 68/6/34
f 53/11/10 54/12/10 62/12/10
f 52/13/10 60/13/10 59/14/10
f 49/4/10 50/3/10 58/3/10
f 49/15/10 57/15/10 64/16/10
f 54/1/10 55/2/10 63/2/10
f 53/5/10 61/5/10 60/6/10
f 50/7/10 51/8/10 59/8/10
f 65/15/13 73/15/13 80/16/13
f 58/7/35 59/8/35 67/8/35
f 64/9/36 72/9/36 71/10/36
f 61/11/37 62/12/37 70/12/37
f 60/13/38 68/13/38 67/14/38
f 57/4/39 58/3/39 66/3/39
f 57/15/40 65/15/40 72/16/40
f 62/1/41 63/2/41 71/2/41
f 80/19/42 73/66/42 74/67/42
f 74/67/42 75/68/42 76/17/42
f 76/17/42 77/69/42 78/18/42
f 78/18/42 79/70/42 80/19/42
f 80/19/42 74/67/42 76/17/42
f 71/2/14 79/2/14 78/1/14
f 69/5/11 77/5/11 76/6/11
f 67/8/12 75/8/12 74/7/12
f 72/9/17 80/9/17 79/10/17
f 70/12/2 78/12/2 77/11/2
f 68/13/15 76/13/15 75/14/15
f 66/3/16 74/3/16 73/4/16
f 82/20/43 84/21/43 83/21/43
f 84/21/44 86/22/44 85/22/44
f 86/23/45 88/24/45 87/24/45
f 88/25/46 90/26/46 89/26/46
f 90/27/47 92/28/47 91/28/47
f 92/29/48 94/30/48 93/30/48
f 84/21/78 98/21/78 99/22/78
f 94/31/50 96/32/50 95/32/50
f 96/33/51 82/34/51 81/34/51
f 95/37/42 81/71/42 83/72/42
f 83/72/42 85/73/42 87/35/42
f 87/35/42 89/74/42 91/36/42
f 91/36/42 93/75/42 95/37/42
f 95/37/42 83/72/42 87/35/42
f 100/38/46 108/38/46 109/39/46
f 90/27/52 101/27/52 102/28/52
f 82/34/53 96/33/53 104/33/53
f 82/20/54 97/20/54 98/21/54
f 88/24/55 86/23/55 99/23/55
f 92/29/56 102/29/56 103/30/56
f 90/26/57 88/25/57 100/25/57
f 96/32/79 94/31/79 103/31/79
f 112/40/59 120/40/59 113/41/59
f 98/42/44 106/42/44 107/43/44
f 103/44/50 111/44/50 112/40/50
f 101/39/47 109/39/47 110/45/47
f 99/43/45 107/43/45 108/38/45
f 97/41/43 105/41/43 106/42/43
f 104/40/51 112/40/51 105/41/51
f 102/45/48 110/45/48 111/44/48
f 118/45/60 117/39/60 125/39/60
f 111/44/61 110/45/61 118/45/61
f 108/38/62 116/38/62 117/39/62
f 107/43/63 106/42/63 114/42/63
f 111/44/64 119/44/64 120/40/64
f 110/45/65 109/39/65 117/39/65
f 107/43/66 115/43/66 116/38/66
f 106/42/67 105/41/67 113/41/67
f 128/40/50 127/44/50 135/44/50
f 115/43/68 123/43/68 124/38/68
f 114/42/69 113/41/69 121/41/69
f 120/40/70 128/40/70 121/41/70
f 119/44/71 118/45/71 126/45/71
f 116/38/72 124/38/72 125/39/72
f 115/43/73 114/42/73 122/42/73
f 119/44/74 127/44/74 128/40/74
f 131/48/10 130/76/10 129/77/10
f 129/77/10 136/78/10 135/46/10
f 135/46/10 134/79/10 133/47/10
f 133/47/10 132/80/10 131/48/10
f 131/48/10 129/77/10 135/46/10
f 125/39/47 133/39/47 134/45/47
f 123/43/45 131/43/45 132/38/45
f 122/42/43 121/41/43 129/41/43
f 128/40/51 136/40/51 129/41/51
f 126/45/48 134/45/48 135/44/48
f 124/38/46 132/38/46 133/39/46
f 123/43/44 122/42/44 130/42/44
f 138/49/43 140/50/43 139/50/43
f 140/50/44 142/51/44 141/51/44
f 142/51/45 144/52/45 143/52/45
f 144/52/46 146/53/46 145/53/46
f 146/53/47 148/54/47 147/54/47
f 148/54/48 150/55/48 149/55/48
f 142/58/10 140/81/10 138/82/10
f 138/82/10 152/83/10 150/56/10
f 150/56/10 148/84/10 146/57/10
f 146/57/10 144/85/10 142/58/10
f 142/58/10 138/82/10 150/56/10
f 150/55/50 152/59/50 151/59/50
f 152/59/51 138/49/51 137/49/51
f 151/62/42 137/86/42 139/87/42
f 139/87/42 141/88/42 143/60/42
f 143/60/42 145/89/42 147/61/42
f 147/61/42 149/90/42 151/62/42
f 151/62/42 139/87/42 143/60/42
f 154/63/75 156/91/75 155/64/75
f 158/63/76 160/91/76 159/64/76
