# Blender 4.4.0
# www.blender.org
mtllib candle_336x08.mtl
o Candle_336x8
v -0.526733 0.351839 0.037677
v -0.561873 0.318651 0.034225
v -0.475016 0.187963 0.037069
v -0.325655 0.096172 0.087051
v 0.194849 0.002635 0.186181
v 0.274890 0.050026 0.143520
v -0.166315 0.004588 0.173454
v 0.001577 0.004588 0.186181
v -0.402783 0.254339 0.045822
v -0.321134 0.217142 0.080804
v -0.162411 0.202173 0.172463
v 0.060144 0.200221 0.186181
v 0.171013 0.201770 0.186181
v 0.395929 0.281805 0.082789
v 0.448640 0.260331 0.031304
v 0.583344 0.119770 0.023665
v 0.548204 0.011144 0.025663
v 0.526729 0.019506 0.025663
v 0.552108 0.106104 0.023665
v 0.477923 0.190050 0.031413
v 0.442783 0.180289 0.033384
v -0.526733 0.351839 -0.061723
v -0.561873 0.318651 -0.058271
v -0.475016 0.187963 -0.061115
v -0.325655 0.096172 -0.111098
v 0.194849 0.002635 -0.210227
v 0.274890 0.050026 -0.167566
v -0.166315 0.004588 -0.197500
v 0.001577 0.004588 -0.210227
v -0.402783 0.254339 -0.069868
v -0.321134 0.217142 -0.104850
v -0.162411 0.202173 -0.196509
v 0.060144 0.200221 -0.210227
v 0.171013 0.201770 -0.210227
v 0.395929 0.281805 -0.106836
v 0.448640 0.260331 -0.055350
v 0.583344 0.119770 -0.047711
v 0.548204 0.011144 -0.049710
v 0.526729 0.019506 -0.049710
v 0.552108 0.106104 -0.047711
v 0.477923 0.190050 -0.055459
v 0.442783 0.180289 -0.057431
v -0.528467 0.478196 0.017626
v -0.528467 0.318563 0.017626
v -0.528467 0.478196 -0.044650
v -0.528467 0.318563 -0.044650
v -0.497329 0.478196 -0.013512
v -0.497329 0.318563 -0.013512
v -0.559605 0.478196 -0.013512
v -0.559605 0.318563 -0.013512
v 0.052236 0.209106 0.144079
v 0.116005 0.210355 0.116082
v -0.099496 0.210615 0.107215
v 0.052236 0.209106 -0.168126
v 0.116005 0.210355 -0.140128
v -0.099496 0.210615 -0.131262
v 0.006947 0.228987 0.105223
v 0.091705 0.229259 0.106805
v -0.065024 0.229316 0.098581
v 0.006947 0.228987 -0.129270
v 0.091705 0.229259 -0.130852
v -0.065024 0.229316 -0.122627
v 0.008491 0.242956 0.063359
v 0.062985 0.243131 0.064376
v -0.037782 0.243168 0.059088
v 0.008491 0.242956 -0.087405
v 0.062985 0.243131 -0.088422
v -0.037782 0.243168 -0.083135
v 0.009813 0.243018 0.026973
v 0.038004 0.243109 0.027499
v -0.014124 0.243128 0.024764
v 0.009813 0.243018 -0.051019
v 0.038004 0.243109 -0.051545
v -0.014124 0.243128 -0.048810
v 0.009832 0.270089 0.026973
v 0.038022 0.270179 0.027499
v -0.014106 0.270198 0.024764
v 0.009832 0.270089 -0.051019
v 0.038022 0.270179 -0.051545
v -0.014106 0.270198 -0.048810
v 0.012982 0.277916 0.010291
v 0.028997 0.275986 0.010592
v -0.000605 0.279660 0.009027
v 0.012982 0.277916 -0.034337
v 0.028997 0.275986 -0.034639
v -0.000605 0.279660 -0.033073
vn 0.6130 -0.7901 -0.0000
vn -0.5236 -0.8520 -0.0000
vn -0.3353 0.9421 -0.0000
vn -0.4983 -0.8670 -0.0000
vn 0.7220 0.6919 -0.0000
vn 0.3773 0.9261 -0.0000
vn -0.0000 -1.0000 -0.0000
vn -0.0139 0.9911 -0.1322
vn 0.9515 -0.3078 -0.0000
vn -0.0101 -0.9999 -0.0000
vn -0.0423 0.9759 -0.2139
vn -0.3629 -0.9318 -0.0000
vn 0.5095 -0.8605 -0.0000
vn 0.4146 0.9100 -0.0000
vn -0.9596 0.2812 -0.0000
vn 0.0939 0.9956 -0.0000
vn -0.6866 0.7270 -0.0000
vn -0.7493 -0.6622 -0.0000
vn 0.6183 0.7860 -0.0000
vn -0.8328 -0.5535 -0.0000
vn 0.2676 -0.9635 -0.0000
vn 0.1025 0.0443 0.9937
vn 0.1025 0.0443 -0.9937
vn -0.3352 0.9421 -0.0000
vn 0.0661 0.9787 0.1941
vn -0.1330 0.9911 -0.0000
vn -0.0802 -0.0187 0.9966
vn -0.0873 -0.0363 0.9955
vn -0.2834 0.0600 0.9571
vn -0.4705 0.0137 0.8823
vn -0.0756 0.0065 0.9971
vn -0.0000 -0.0000 1.0000
vn 0.4449 0.0533 0.8940
vn 0.4936 0.0948 0.8645
vn -0.3037 0.2079 0.9298
vn -0.4946 0.0633 0.8668
vn -0.0614 0.0184 0.9979
vn 0.6917 -0.0319 0.7215
vn 0.4677 -0.2028 0.8603
vn 0.0498 0.0223 0.9985
vn 0.0081 0.0207 0.9998
vn -0.0094 0.0214 0.9997
vn 0.0290 -0.0664 0.9974
vn 0.4677 -0.2028 -0.8603
vn 0.6917 -0.0319 -0.7215
vn -0.0094 0.0214 -0.9997
vn 0.0081 0.0207 -0.9998
vn -0.0802 -0.0187 -0.9966
vn -0.2834 0.0600 -0.9571
vn -0.0873 -0.0363 -0.9955
vn -0.3037 0.2079 -0.9298
vn -0.0756 0.0065 -0.9971
vn -0.4705 0.0137 -0.8823
vn 0.4449 0.0533 -0.8940
vn -0.0000 -0.0000 -1.0000
vn 0.4936 0.0948 -0.8645
vn -0.4946 0.0633 -0.8668
vn -0.0614 0.0184 -0.9979
vn 0.0290 -0.0664 -0.9974
vn 0.0498 0.0223 -0.9985
vn 1.0000 -0.0000 -0.0000
vn -0.0115 0.8847 0.4661
vn 0.2802 0.6885 -0.6690
vn 0.6140 0.7893 -0.0000
vn -0.4769 0.8790 -0.0000
vn 0.0007 0.9916 0.1290
vn 0.1542 0.9880 -0.0000
vn 0.4349 0.9005 -0.0000
vn -0.4532 0.8914 -0.0000
vn -0.0248 0.9486 0.3156
vn -0.0248 0.9486 -0.3156
vn -0.1297 0.8132 -0.5673
vn -0.0756 0.5294 0.8450
vn -0.0032 1.0000 0.0016
vn -0.0032 1.0000 -0.0016
vn -0.0009 1.0000 -0.0000
vn 0.0017 1.0000 -0.0000
vn -0.0090 0.9486 -0.3162
vn -0.0090 0.9486 0.3162
vn 1.0000 -0.0007 -0.0000
vn -1.0000 0.0007 -0.0000
vn -0.0919 0.0001 0.9958
vn -0.0919 0.0001 -0.9958
vn 0.0044 1.0000 -0.0019
vn 0.0044 1.0000 0.0019
vn 0.0747 0.8973 -0.4351
vn 0.0994 0.8935 0.4380
vn -0.0092 0.9442 -0.3292
vn 0.5411 0.8410 -0.0000
vn -0.0187 -0.0000 -0.9998
vn -0.0187 -0.0000 0.9998
vn 0.1196 0.9928 -0.0000
vn 0.1273 0.9919 -0.0000
vn -0.0411 0.8715 0.4887
vn -0.5739 0.8189 -0.0000
vn 0.0661 0.9787 -0.1941
vn 0.0007 0.9916 -0.1290
vn -0.0139 0.9911 0.1322
vn 0.2802 0.6885 0.6690
vn -0.0115 0.8847 -0.4661
vn -0.0423 0.9759 0.2139
vn -0.0756 0.5294 -0.8450
vn -0.1297 0.8132 0.5673
vn -0.0411 0.8715 -0.4887
vn -0.0092 0.9442 0.3292
vn 0.0994 0.8935 -0.4380
vn 0.0747 0.8973 0.4351
vt 0.054624 0.447488
vt 0.058009 0.453947
vt 0.040494 0.452785
vt 0.043524 0.448332
vt 0.057064 0.458981
vt 0.052971 0.454625
vt 0.045729 0.445235
vt 0.060843 0.450946
vt 0.058127 0.457916
vt 0.049113 0.445235
vt 0.050294 0.453850
vt 0.060134 0.445560
vt 0.053010 0.445138
vt 0.045807 0.453947
vt 0.059701 0.445974
vt 0.043485 0.454334
vt 0.041950 0.456077
vt 0.060213 0.450268
vt 0.013784 0.503265
vt 0.012512 0.502040
vt 0.058717 0.454431
vt 0.016001 0.493751
vt 0.039156 0.459077
vt 0.013405 0.491352
vt 0.064093 0.976217
vt 0.061904 0.984774
vt 0.061904 0.976217
vt 0.064093 0.984774
s 0
usemtl 336Light
f 6/1/1 42/2/1 21/2/1
f 3/3/2 25/4/2 4/4/2
f 14/5/3 34/6/3 13/6/3
f 4/4/4 28/7/4 7/7/4
f 16/8/5 36/9/5 15/9/5
f 15/9/6 35/5/6 14/5/6
f 7/7/7 29/10/7 8/10/7
f 33/11/8 55/6/8 34/6/8
f 17/12/9 37/8/9 16/8/9
f 8/10/10 26/13/10 5/13/10
f 33/11/11 56/14/11 54/11/11
f 18/15/12 38/12/12 17/12/12
f 6/1/13 26/13/13 27/1/13
f 10/16/14 30/17/14 9/17/14
f 19/18/15 39/15/15 18/15/15
f 11/14/16 31/16/16 10/16/16
f 1/19/17 23/20/17 2/20/17
f 20/21/18 40/18/18 19/18/18
f 9/22/19 22/19/19 1/19/19
f 2/23/20 24/3/20 3/3/20
f 21/2/21 41/21/21 20/21/21
f 20/21/22 16/8/22 15/9/22
f 36/9/23 37/8/23 41/21/23
f 6/1/1 27/1/1 42/2/1
f 3/3/2 24/3/2 25/4/2
f 14/5/24 35/5/24 34/6/24
f 4/4/4 25/4/4 28/7/4
f 16/8/5 37/8/5 36/9/5
f 15/9/6 36/9/6 35/5/6
f 7/7/7 28/7/7 29/10/7
f 12/11/25 52/6/25 51/11/25
f 17/12/9 38/12/9 37/8/9
f 8/10/10 29/10/10 26/13/10
f 11/14/26 56/14/26 32/14/26
f 18/15/12 39/15/12 38/12/12
f 6/1/13 5/13/13 26/13/13
f 10/16/14 31/16/14 30/17/14
f 19/18/15 40/18/15 39/15/15
f 11/14/16 32/14/16 31/16/16
f 1/19/17 22/19/17 23/20/17
f 20/21/18 41/21/18 40/18/18
f 9/22/19 30/22/19 22/19/19
f 2/23/20 23/23/20 24/3/20
f 21/2/21 42/2/21 41/21/21
f 9/22/27 1/19/27 2/20/27
f 2/20/28 3/24/28 9/22/28
f 3/3/29 4/4/29 10/16/29
f 4/4/30 7/7/30 11/14/30
f 7/7/31 8/10/31 11/14/31
f 8/10/32 5/13/32 12/11/32
f 5/13/33 6/1/33 13/6/33
f 12/11/32 5/13/32 13/6/32
f 6/1/34 21/2/34 13/6/34
f 3/3/35 10/16/35 9/17/35
f 10/16/36 4/4/36 11/14/36
f 12/11/37 11/14/37 8/10/37
f 15/9/38 14/5/38 21/2/38
f 14/5/39 13/6/39 21/2/39
f 21/2/40 20/21/40 15/9/40
f 18/15/41 17/12/41 19/18/41
f 17/12/42 16/8/42 19/18/42
f 20/21/43 19/18/43 16/8/43
f 34/6/44 35/5/44 42/2/44
f 35/5/45 36/9/45 42/2/45
f 37/8/46 38/12/46 40/18/46
f 38/12/47 39/15/47 40/18/47
f 23/20/48 22/19/48 30/22/48
f 25/4/49 24/3/49 31/16/49
f 24/24/50 23/20/50 30/22/50
f 31/16/51 24/3/51 30/17/51
f 29/10/52 28/7/52 32/14/52
f 28/7/53 25/4/53 32/14/53
f 27/1/54 26/13/54 34/6/54
f 26/13/55 29/10/55 33/11/55
f 42/2/56 27/1/56 34/6/56
f 26/13/55 33/11/55 34/6/55
f 25/4/57 31/16/57 32/14/57
f 29/10/58 32/14/58 33/11/58
f 37/8/59 40/18/59 41/21/59
f 41/21/60 42/2/60 36/9/60
f 44/25/61 45/26/61 43/27/61
f 48/25/55 49/26/55 47/27/55
f 51/11/62 58/6/62 57/11/62
f 54/11/63 61/6/63 55/6/63
f 55/6/64 58/6/64 52/6/64
f 53/14/65 62/14/65 56/14/65
f 12/11/66 53/14/66 11/14/66
f 34/6/67 52/6/67 13/6/67
f 61/6/68 64/6/68 58/6/68
f 59/14/69 68/14/69 62/14/69
f 57/11/70 65/14/70 59/14/70
f 60/11/71 68/14/71 66/11/71
f 56/14/72 60/11/72 54/11/72
f 53/14/73 57/11/73 59/14/73
f 63/11/74 70/6/74 69/11/74
f 66/11/75 73/6/75 67/6/75
f 67/6/76 70/6/76 64/6/76
f 68/14/77 71/14/77 74/14/77
f 60/11/78 67/6/78 61/6/78
f 57/11/79 64/6/79 63/11/79
f 73/6/80 76/6/80 70/6/80
f 71/14/81 80/14/81 74/14/81
f 71/14/82 75/11/82 77/14/82
f 74/14/83 78/11/83 72/11/83
f 66/11/84 74/14/84 72/11/84
f 63/11/85 71/14/85 65/14/85
f 78/11/86 86/14/86 84/11/86
f 75/11/87 82/6/87 81/11/87
f 78/11/88 85/6/88 79/6/88
f 79/6/89 82/6/89 76/6/89
f 73/6/90 78/11/90 79/6/90
f 70/6/91 75/11/91 69/11/91
f 82/6/92 84/11/92 81/11/92
f 81/11/93 86/14/93 83/14/93
f 82/6/92 85/6/92 84/11/92
f 81/11/93 84/11/93 86/14/93
f 75/11/94 83/14/94 77/14/94
f 77/14/95 86/14/95 80/14/95
f 33/11/96 54/11/96 55/6/96
f 33/11/97 32/14/97 56/14/97
f 12/11/98 13/6/98 52/6/98
f 11/14/26 53/14/26 56/14/26
f 44/25/61 46/28/61 45/26/61
f 48/25/55 50/28/55 49/26/55
f 51/11/99 52/6/99 58/6/99
f 54/11/100 60/11/100 61/6/100
f 55/6/64 61/6/64 58/6/64
f 53/14/65 59/14/65 62/14/65
f 12/11/101 51/11/101 53/14/101
f 34/6/67 55/6/67 52/6/67
f 61/6/68 67/6/68 64/6/68
f 59/14/69 65/14/69 68/14/69
f 57/11/70 63/11/70 65/14/70
f 60/11/71 62/14/71 68/14/71
f 56/14/102 62/14/102 60/11/102
f 53/14/103 51/11/103 57/11/103
f 63/11/74 64/6/74 70/6/74
f 66/11/75 72/11/75 73/6/75
f 67/6/76 73/6/76 70/6/76
f 68/14/77 65/14/77 71/14/77
f 60/11/78 66/11/78 67/6/78
f 57/11/79 58/6/79 64/6/79
f 73/6/80 79/6/80 76/6/80
f 71/14/81 77/14/81 80/14/81
f 71/14/82 69/11/82 75/11/82
f 74/14/83 80/14/83 78/11/83
f 66/11/84 68/14/84 74/14/84
f 63/11/85 69/11/85 71/14/85
f 78/11/104 80/14/104 86/14/104
f 75/11/105 76/6/105 82/6/105
f 78/11/106 84/11/106 85/6/106
f 79/6/89 85/6/89 82/6/89
f 73/6/90 72/11/90 78/11/90
f 70/6/91 76/6/91 75/11/91
f 75/11/107 81/11/107 83/14/107
f 77/14/95 83/14/95 86/14/95
