# Blender 4.4.0
# www.blender.org
mtllib Candle_336x9.mtl
o Candle_336x9
v -0.000000 0.021376 -0.075197
v -0.000000 0.845221 -0.075197
v 0.051838 0.021376 -0.053172
v 0.051838 0.845221 -0.053172
v 0.073310 0.021376 -0.000000
v 0.073310 0.845221 -0.000000
v 0.051838 0.021376 0.053172
v 0.051838 0.845221 0.053172
v -0.000000 0.021376 0.075196
v -0.000000 0.845221 0.075196
v -0.051838 0.021376 0.053172
v -0.051838 0.845221 0.053172
v -0.073310 0.021376 -0.000000
v -0.073310 0.845221 -0.000000
v -0.051838 0.021376 -0.053172
v -0.051838 0.845221 -0.053172
v 0.000348 0.917863 0.015185
v 0.000348 0.845900 0.015185
v 0.000348 0.917863 -0.012889
v 0.000348 0.845900 -0.012889
v 0.014385 0.917863 0.001148
v 0.014385 0.845900 0.001148
v -0.013689 0.917863 0.001148
v -0.013689 0.845900 0.001148
v -0.000000 0.021375 -0.092224
v 0.063576 0.021375 -0.065212
v 0.089910 0.021375 -0.000000
v 0.063576 0.021375 0.065212
v -0.000000 0.021375 0.092223
v -0.063576 0.021375 0.065212
v -0.089910 0.021375 -0.000000
v -0.063576 0.021375 -0.065212
v -0.000000 0.106045 -0.092224
v 0.063576 0.106045 -0.065212
v 0.089910 0.106045 -0.000000
v 0.063576 0.106045 0.065212
v -0.000000 0.106045 0.092223
v -0.063576 0.106045 0.065212
v -0.089910 0.106045 -0.000000
v -0.063576 0.106045 -0.065212
v -0.000000 0.106045 -0.109186
v 0.075269 0.106045 -0.077206
v 0.106446 0.106045 -0.000000
v 0.075269 0.106045 0.077205
v -0.000000 0.106045 0.109185
v -0.075269 0.106045 0.077205
v -0.106447 0.106045 -0.000000
v -0.075269 0.106045 -0.077206
v -0.000000 -0.025519 -0.109186
v 0.075269 -0.025519 -0.077206
v 0.106446 -0.025519 -0.000000
v 0.075269 -0.025519 0.077205
v -0.000000 -0.025519 0.109185
v -0.075269 -0.025519 0.077205
v -0.106447 -0.025519 -0.000000
v -0.075269 -0.025519 -0.077206
v -0.000001 -0.025519 -0.071449
v 0.049254 -0.025519 -0.050522
v 0.069656 -0.025519 -0.000000
v 0.049254 -0.025519 0.050522
v -0.000001 -0.025519 0.071448
v -0.049255 -0.025519 0.050522
v -0.069657 -0.025519 -0.000000
v -0.049255 -0.025519 -0.050522
v -0.000001 -0.078926 -0.084419
v 0.058195 -0.078926 -0.059693
v 0.082300 -0.078926 -0.000000
v 0.058195 -0.078926 0.059693
v -0.000001 -0.078926 0.084418
v -0.058196 -0.078926 0.059693
v -0.082301 -0.078926 -0.000000
v -0.058196 -0.078926 -0.059693
v -0.000001 -0.118004 -0.084419
v 0.058195 -0.118004 -0.059693
v 0.082300 -0.118004 -0.000000
v 0.058195 -0.118004 0.059693
v -0.000001 -0.118004 0.084418
v -0.058196 -0.118004 0.059693
v -0.082301 -0.118004 -0.000000
v -0.058196 -0.118004 -0.059693
v -0.000001 -0.193555 -0.032456
v 0.022373 -0.193555 -0.022950
v 0.031641 -0.193555 -0.000000
v 0.022373 -0.193555 0.022949
v -0.000001 -0.193555 0.032455
v -0.022374 -0.193555 0.022949
v -0.031642 -0.193555 -0.000000
v -0.022374 -0.193555 -0.022950
vn 0.3910 -0.0000 -0.9204
vn 0.9272 -0.0000 -0.3744
vn 0.9272 -0.0000 0.3744
vn 0.3910 -0.0000 0.9204
vn -0.3910 -0.0000 0.9204
vn -0.9272 -0.0000 0.3744
vn -0.0000 1.0000 -0.0000
vn -0.9272 -0.0000 -0.3744
vn -0.3910 -0.0000 -0.9204
vn 1.0000 -0.0000 -0.0000
vn -0.0000 -0.0000 -1.0000
vn -0.0000 -1.0000 -0.0000
vn 0.9057 0.2144 0.3657
vn 0.3816 0.2181 -0.8982
vn -0.3816 0.2181 -0.8982
vn -0.9057 0.2144 0.3657
vn 0.3816 0.2181 0.8982
vn 0.9057 0.2144 -0.3657
vn -0.9057 0.2144 -0.3657
vn -0.3816 0.2181 0.8982
vn 0.3304 -0.5349 0.7777
vn 0.7875 -0.5280 -0.3180
vn -0.7875 -0.5280 -0.3180
vn -0.3304 -0.5349 0.7777
vn 0.7875 -0.5280 0.3180
vn 0.3304 -0.5349 -0.7777
vn -0.3304 -0.5349 -0.7777
vn -0.7875 -0.5280 0.3180
vt 0.700635 0.793774
vt 0.702265 0.792071
vt 0.697024 0.793882
vt 0.697699 0.789770
vt 0.702011 0.779011
vt 0.701527 0.776067
vt 0.696369 0.779215
vt 0.694739 0.777512
vt 0.700360 0.774848
vt 0.699193 0.776067
vt 0.698710 0.779011
vt 0.693316 0.795352
vt 0.694651 0.787628
vt 0.697390 0.784911
vt 0.693089 0.789770
vt 0.693764 0.793882
vt 0.699006 0.792071
vt 0.695394 0.783955
vt 0.697024 0.785658
vt 0.064266 0.975365
vt 0.062078 0.983922
vt 0.062078 0.975365
vt 0.695394 0.795585
vt 0.693764 0.785658
vt 0.231825 0.835225
vt 0.231150 0.831113
vt 0.228049 0.844111
vt 0.227374 0.848222
vt 0.233455 0.825298
vt 0.231825 0.827001
vt 0.235085 0.827001
vt 0.235760 0.831113
vt 0.233455 0.836928
vt 0.235085 0.835225
vt 0.254419 0.793693
vt 0.255634 0.794963
vt 0.221128 0.817337
vt 0.222758 0.815634
vt 0.253916 0.790628
vt 0.254419 0.787564
vt 0.256848 0.787564
vt 0.255634 0.786294
vt 0.257352 0.790628
vt 0.256848 0.793693
vt 0.255730 0.792370
vt 0.257360 0.790667
vt 0.227108 0.847401
vt 0.227783 0.843289
vt 0.233975 0.816349
vt 0.232345 0.818052
vt 0.233722 0.827155
vt 0.231475 0.831841
vt 0.232250 0.834088
vt 0.697290 0.788210
vt 0.696055 0.792635
vt 0.694409 0.795593
vt 0.693416 0.792053
vt 0.696297 0.784670
vt 0.064266 0.983922
vt 0.233534 0.832210
vt 0.234497 0.829402
vt 0.234575 0.827308
vt 0.232439 0.829033
vt 0.231398 0.833935
s 0
usemtl 336Light
f 2/1/1 3/2/1 1/1/1
f 4/3/2 5/4/2 3/3/2
f 6/5/3 7/6/3 5/5/3
f 8/7/4 9/8/4 7/7/4
f 10/9/5 11/10/5 9/9/5
f 12/10/6 13/11/6 11/10/6
f 14/12/7 10/13/7 6/14/7
f 14/15/8 15/16/8 13/15/8
f 16/17/9 1/1/9 15/17/9
f 9/18/7 28/19/7 7/19/7
f 18/20/10 19/21/10 17/22/10
f 22/20/11 23/21/11 21/22/11
f 26/3/5 33/23/5 25/23/5
f 15/16/7 31/15/7 13/15/7
f 3/3/7 27/4/7 26/3/7
f 9/18/7 30/24/7 29/18/7
f 1/23/7 32/16/7 15/16/7
f 1/23/7 26/3/7 25/23/7
f 7/19/7 27/4/7 5/4/7
f 11/24/7 31/15/7 30/24/7
f 40/25/7 47/26/7 39/26/7
f 25/23/4 40/16/4 32/16/4
f 31/15/2 38/24/2 30/24/2
f 29/18/9 36/19/9 28/19/9
f 27/4/6 34/3/6 26/3/6
f 32/16/3 39/15/3 31/15/3
f 30/24/1 37/18/1 29/18/1
f 28/19/8 35/4/8 27/4/8
f 43/27/2 50/28/2 42/28/2
f 37/29/7 46/30/7 45/29/7
f 36/31/7 43/32/7 35/32/7
f 33/33/7 42/34/7 41/33/7
f 33/33/7 48/25/7 40/25/7
f 38/30/7 47/26/7 46/30/7
f 37/29/7 44/31/7 36/31/7
f 34/34/7 43/32/7 42/34/7
f 56/35/12 57/36/12 64/35/12
f 48/25/8 55/26/8 47/26/8
f 46/37/5 53/38/5 45/38/5
f 44/31/3 51/32/3 43/32/3
f 42/34/1 49/33/1 41/33/1
f 48/25/9 49/33/9 56/25/9
f 47/26/6 54/30/6 46/30/6
f 45/29/4 52/31/4 44/31/4
f 60/31/13 67/32/13 59/32/13
f 55/39/12 62/40/12 54/40/12
f 52/41/12 61/42/12 60/41/12
f 51/43/12 58/44/12 50/44/12
f 55/39/12 64/35/12 63/39/12
f 54/45/12 61/46/12 53/46/12
f 51/43/12 60/41/12 59/43/12
f 50/44/12 57/36/12 49/36/12
f 72/25/8 79/26/8 71/26/8
f 57/33/14 66/34/14 65/33/14
f 57/33/15 72/25/15 64/25/15
f 62/30/16 71/26/16 70/30/16
f 61/29/17 68/31/17 60/31/17
f 58/47/18 67/48/18 66/47/18
f 64/25/19 71/26/19 63/26/19
f 61/49/20 70/50/20 69/49/20
f 76/31/21 85/29/21 84/31/21
f 70/50/5 77/49/5 69/49/5
f 68/31/3 75/32/3 67/32/3
f 66/34/1 73/33/1 65/33/1
f 65/33/9 80/25/9 72/25/9
f 71/26/6 78/30/6 70/30/6
f 69/29/4 76/31/4 68/31/4
f 67/48/2 74/47/2 66/47/2
f 84/51/12 86/52/12 88/53/12
f 75/48/22 82/47/22 74/47/22
f 79/26/23 88/25/23 87/26/23
f 78/50/24 85/49/24 77/49/24
f 75/32/25 84/31/25 83/32/25
f 74/34/26 81/33/26 73/33/26
f 80/25/27 81/33/27 88/25/27
f 79/26/28 86/30/28 78/30/28
f 2/1/1 4/2/1 3/2/1
f 4/3/2 6/4/2 5/4/2
f 6/5/3 8/6/3 7/6/3
f 8/7/4 10/8/4 9/8/4
f 10/9/5 12/10/5 11/10/5
f 12/10/6 14/11/6 13/11/6
f 6/14/7 4/54/7 2/55/7
f 2/55/7 16/56/7 14/12/7
f 14/12/7 12/57/7 10/13/7
f 10/13/7 8/58/7 6/14/7
f 6/14/7 2/55/7 14/12/7
f 14/15/8 16/16/8 15/16/8
f 16/17/9 2/1/9 1/1/9
f 9/18/7 29/18/7 28/19/7
f 18/20/10 20/59/10 19/21/10
f 22/20/11 24/59/11 23/21/11
f 26/3/5 34/3/5 33/23/5
f 15/16/7 32/16/7 31/15/7
f 3/3/7 5/4/7 27/4/7
f 9/18/7 11/24/7 30/24/7
f 1/23/7 25/23/7 32/16/7
f 1/23/7 3/3/7 26/3/7
f 7/19/7 28/19/7 27/4/7
f 11/24/7 13/15/7 31/15/7
f 40/25/7 48/25/7 47/26/7
f 25/23/4 33/23/4 40/16/4
f 31/15/2 39/15/2 38/24/2
f 29/18/9 37/18/9 36/19/9
f 27/4/6 35/4/6 34/3/6
f 32/16/3 40/16/3 39/15/3
f 30/24/1 38/24/1 37/18/1
f 28/19/8 36/19/8 35/4/8
f 43/27/2 51/27/2 50/28/2
f 37/29/7 38/30/7 46/30/7
f 36/31/7 44/31/7 43/32/7
f 33/33/7 34/34/7 42/34/7
f 33/33/7 41/33/7 48/25/7
f 38/30/7 39/26/7 47/26/7
f 37/29/7 45/29/7 44/31/7
f 34/34/7 35/32/7 43/32/7
f 56/35/12 49/36/12 57/36/12
f 48/25/8 56/25/8 55/26/8
f 46/37/5 54/37/5 53/38/5
f 44/31/3 52/31/3 51/32/3
f 42/34/1 50/34/1 49/33/1
f 48/25/9 41/33/9 49/33/9
f 47/26/6 55/26/6 54/30/6
f 45/29/4 53/29/4 52/31/4
f 60/31/13 68/31/13 67/32/13
f 55/39/12 63/39/12 62/40/12
f 52/41/12 53/42/12 61/42/12
f 51/43/12 59/43/12 58/44/12
f 55/39/12 56/35/12 64/35/12
f 54/45/12 62/45/12 61/46/12
f 51/43/12 52/41/12 60/41/12
f 50/44/12 58/44/12 57/36/12
f 72/25/8 80/25/8 79/26/8
f 57/33/14 58/34/14 66/34/14
f 57/33/15 65/33/15 72/25/15
f 62/30/16 63/26/16 71/26/16
f 61/29/17 69/29/17 68/31/17
f 58/47/18 59/48/18 67/48/18
f 64/25/19 72/25/19 71/26/19
f 61/49/20 62/50/20 70/50/20
f 76/31/21 77/29/21 85/29/21
f 70/50/5 78/50/5 77/49/5
f 68/31/3 76/31/3 75/32/3
f 66/34/1 74/34/1 73/33/1
f 65/33/9 73/33/9 80/25/9
f 71/26/6 79/26/6 78/30/6
f 69/29/4 77/29/4 76/31/4
f 67/48/2 75/48/2 74/47/2
f 88/53/12 81/60/12 82/61/12
f 82/61/12 83/62/12 84/51/12
f 84/51/12 85/63/12 86/52/12
f 86/52/12 87/64/12 88/53/12
f 88/53/12 82/61/12 84/51/12
f 75/48/22 83/48/22 82/47/22
f 79/26/23 80/25/23 88/25/23
f 78/50/24 86/50/24 85/49/24
f 75/32/25 76/31/25 84/31/25
f 74/34/26 82/34/26 81/33/26
f 80/25/27 73/33/27 81/33/27
f 79/26/28 87/26/28 86/30/28
