# Blender 4.4.0
# www.blender.org
mtllib Candle_336x10.mtl
o Candle_336x10
v -0.000000 1.374949 -0.065686
v -0.000000 1.423904 -0.065686
v 0.044032 1.374949 -0.046447
v 0.044032 1.423904 -0.046447
v 0.062270 1.374949 -0.000000
v 0.062270 1.423904 -0.000000
v 0.044032 1.374949 0.046447
v 0.044032 1.423904 0.046447
v -0.000000 1.374949 0.065686
v -0.000000 1.423904 0.065686
v -0.044032 1.374949 0.046447
v -0.044032 1.423904 0.046447
v -0.062271 1.374949 -0.000000
v -0.062271 1.423904 -0.000000
v -0.044032 1.374949 -0.046447
v -0.044032 1.423904 -0.046447
v -0.000000 1.374949 -0.117924
v 0.079049 1.374949 -0.083385
v 0.111792 1.374949 -0.000000
v 0.079049 1.374949 0.083385
v -0.000000 1.374949 0.117924
v -0.079049 1.374949 0.083385
v -0.111793 1.374949 -0.000000
v -0.079049 1.374949 -0.083385
v -0.000000 1.410061 -0.117924
v 0.079049 1.410061 -0.083385
v 0.111792 1.410061 -0.000000
v 0.079049 1.410061 0.083385
v -0.000000 1.410061 0.117924
v -0.079049 1.410061 0.083385
v -0.111793 1.410061 -0.000000
v -0.079049 1.410061 -0.083385
v -0.000000 1.410061 -0.148151
v 0.099311 1.410061 -0.104758
v 0.140447 1.410061 -0.000000
v 0.099311 1.410061 0.104758
v -0.000000 1.410061 0.148150
v -0.099312 1.410061 0.104758
v -0.140448 1.410061 -0.000000
v -0.099312 1.410061 -0.104758
v -0.000000 1.311309 -0.102548
v 0.068742 1.311309 -0.072512
v 0.097215 1.311309 -0.000000
v 0.068742 1.311309 0.072512
v -0.000000 1.311309 0.102548
v -0.068742 1.311309 0.072512
v -0.097216 1.311309 -0.000000
v -0.068742 1.311309 -0.072512
v -0.000000 1.280586 -0.042827
v 0.028708 1.280586 -0.030283
v 0.040600 1.280586 -0.000000
v 0.028708 1.280586 0.030283
v -0.000000 1.280586 0.042827
v -0.028709 1.280586 0.030283
v -0.040600 1.280586 -0.000000
v -0.028709 1.280586 -0.030283
v -0.000000 0.190951 -0.042827
v 0.028708 0.190951 -0.030283
v 0.040600 0.190951 -0.000000
v 0.028708 0.190951 0.030283
v -0.000000 0.190951 0.042827
v -0.028709 0.190951 0.030283
v -0.040601 0.190951 -0.000000
v -0.028709 0.190951 -0.030283
v -0.000000 0.106683 -0.042827
v 0.028708 0.106683 -0.030283
v 0.040600 0.106683 -0.000000
v 0.028708 0.106683 0.030283
v -0.000000 0.106683 0.042827
v -0.028709 0.106683 0.030283
v -0.040601 0.106683 -0.000000
v -0.028709 0.106683 -0.030283
v 0.094036 0.134433 -0.069354
v 0.112984 0.134433 -0.021101
v 0.061911 0.131586 0.100870
v 0.023839 0.131586 0.117504
v -0.095908 0.131080 0.064587
v -0.111113 0.131080 0.025866
v -0.062953 0.132359 -0.100416
v -0.022799 0.132359 -0.117960
v 0.094036 0.100483 -0.069354
v 0.112984 0.100483 -0.021101
v 0.061911 0.103331 0.100870
v 0.023839 0.103331 0.117504
v -0.095908 0.103837 0.064587
v -0.111113 0.103837 0.025866
v -0.062953 0.102558 -0.100416
v -0.022799 0.102558 -0.117960
v 0.190428 0.020954 -0.140445
v 0.228799 0.020954 -0.042729
v 0.125373 0.017758 0.204267
v 0.048276 0.017758 0.237954
v -0.194219 0.017190 0.130793
v -0.225009 0.017190 0.052381
v -0.127483 0.018625 -0.203346
v -0.046168 0.018625 -0.238875
v 0.190428 -0.017149 -0.140445
v 0.228799 -0.017149 -0.042729
v 0.125373 -0.013953 0.204267
v 0.048276 -0.013953 0.237954
v -0.194219 -0.013385 0.130793
v -0.225009 -0.013385 0.052381
v -0.127483 -0.014821 -0.203346
v -0.046168 -0.014821 -0.238875
v -0.000972 1.382481 -0.075197
v -0.000972 1.890691 -0.075197
v 0.050866 1.382481 -0.053172
v 0.050866 1.890691 -0.053172
v 0.072338 1.382481 -0.000000
v 0.072338 1.890691 -0.000000
v 0.050866 1.382481 0.053172
v 0.050866 1.890691 0.053172
v -0.000972 1.382481 0.075196
v -0.000972 1.890691 0.075196
v -0.052810 1.382481 0.053172
v -0.052810 1.890691 0.053172
v -0.074282 1.382481 -0.000000
v -0.074282 1.890691 -0.000000
v -0.052810 1.382481 -0.053172
v -0.052810 1.890691 -0.053172
v -0.000624 1.963333 0.015185
v -0.000624 1.891370 0.015185
v -0.000624 1.963333 -0.012889
v -0.000624 1.891370 -0.012889
v 0.013413 1.963333 0.001148
v 0.013413 1.891370 0.001148
v -0.014661 1.963333 0.001148
v -0.014661 1.891370 0.001148
v -0.000000 1.228591 -0.042827
v -0.028709 1.228591 -0.030283
v -0.040600 1.228591 -0.000000
v -0.028709 1.228591 0.030283
v -0.000000 1.228591 0.042827
v 0.028708 1.228591 0.030283
v 0.040600 1.228591 -0.000000
v 0.028708 1.228591 -0.030283
v -0.000000 0.264321 -0.042827
v -0.040601 0.264321 -0.000000
v -0.000000 0.264321 0.042827
v 0.040600 0.264321 -0.000000
v -0.028709 0.264321 -0.030283
v -0.028709 0.264321 0.030283
v 0.028708 0.264321 0.030283
v 0.028708 0.264321 -0.030283
vn 0.4004 -0.0000 -0.9163
vn 0.9308 -0.0000 -0.3655
vn 0.9308 -0.0000 0.3655
vn 0.4004 -0.0000 0.9163
vn -0.4004 -0.0000 0.9163
vn -0.9308 -0.0000 0.3655
vn -0.9308 -0.0000 -0.3655
vn -0.4004 -0.0000 -0.9163
vn -0.0000 1.0000 -0.0000
vn -0.8620 -0.3774 -0.3385
vn 0.4688 -0.8639 -0.1841
vn -0.3687 -0.3897 0.8439
vn 0.8620 -0.3774 0.3385
vn 0.3687 -0.3897 -0.8439
vn -0.3687 -0.3897 -0.8439
vn -0.8620 -0.3774 0.3385
vn 0.3687 -0.3897 0.8439
vn 0.8620 -0.3774 -0.3385
vn -0.4688 -0.8639 -0.1841
vn -0.1960 -0.8720 0.4486
vn 0.4688 -0.8639 0.1841
vn 0.1960 -0.8720 -0.4486
vn -0.1960 -0.8720 -0.4486
vn -0.4688 -0.8639 0.1841
vn 0.1960 -0.8720 0.4486
vn -0.0000 -1.0000 -0.0000
vn -0.5803 0.7819 0.2279
vn 0.9569 -0.0000 -0.2904
vn -0.0172 -0.9991 -0.0394
vn -0.5133 -0.0000 -0.8582
vn -0.2752 0.7263 -0.6299
vn -0.5936 -0.0000 -0.8048
vn -0.6530 0.7127 0.2564
vn 0.1836 -0.0000 0.9830
vn -0.8986 -0.0000 0.4388
vn 0.0353 -0.9993 -0.0138
vn -0.3444 -0.0000 -0.9388
vn -0.2405 0.7995 -0.5505
vn 0.4547 -0.0000 0.8907
vn 0.0212 -0.9986 0.0484
vn 0.5598 0.7990 -0.2198
vn -0.9526 -0.0000 0.3041
vn 0.9049 -0.0000 -0.4256
vn -0.0766 -0.9966 0.0301
vn 0.2799 -0.0000 0.9600
vn 0.2425 0.7957 0.5551
vn 0.9818 -0.0000 -0.1898
vn -0.6636 -0.7012 0.2606
vn -0.8473 -0.0000 0.5312
vn -0.2797 -0.7156 -0.6401
vn -0.2267 -0.0000 -0.9740
vn 0.6624 -0.7025 -0.2601
vn 0.5586 -0.0000 0.8295
vn 0.2798 -0.7153 0.6403
vn 0.6518 0.7139 -0.2559
vn -0.9800 -0.0000 0.1988
vn 0.8523 -0.0000 -0.5231
vn 0.2754 0.7260 0.6302
vn 0.3910 -0.0000 -0.9204
vn 0.9272 -0.0000 -0.3744
vn 0.9272 -0.0000 0.3744
vn 0.3910 -0.0000 0.9204
vn -0.3910 -0.0000 0.9204
vn -0.9272 -0.0000 0.3744
vn -0.9272 -0.0000 -0.3744
vn -0.3910 -0.0000 -0.9204
vn 1.0000 -0.0000 -0.0000
vn -0.0000 -0.0000 -1.0000
vt 0.227360 0.415068
vt 0.228990 0.413365
vt 0.227787 0.402352
vt 0.228462 0.398241
vt 0.222281 0.400849
vt 0.221607 0.396737
vt 0.217800 0.400282
vt 0.216170 0.398579
vt 0.222480 0.398197
vt 0.220850 0.399900
vt 0.228339 0.411380
vt 0.227663 0.415491
vt 0.901404 0.425488
vt 0.902079 0.429600
vt 0.227488 0.411061
vt 0.229118 0.412764
vt 0.228900 0.428335
vt 0.227270 0.426632
vt 0.217592 0.400681
vt 0.215962 0.398978
vt 0.633163 0.408299
vt 0.634793 0.410002
vt 0.633163 0.408299
vt 0.632488 0.404187
vt 0.633163 0.400076
vt 0.633163 0.400076
vt 0.640686 0.389759
vt 0.639056 0.388056
vt 0.637097 0.404187
vt 0.636423 0.408299
vt 0.636423 0.408299
vt 0.639548 0.389606
vt 0.641178 0.387903
vt 0.227284 0.384288
vt 0.227959 0.388400
vt 0.227958 0.388400
vt 0.634793 0.410002
vt 0.899041 0.421066
vt 0.896795 0.425752
vt 0.897569 0.427999
vt 0.903709 0.431303
vt 0.216803 0.399931
vt 0.218087 0.398053
vt 0.227605 0.427742
vt 0.228280 0.423630
vt 0.226905 0.412034
vt 0.226827 0.414128
vt 0.228256 0.427978
vt 0.228931 0.423866
vt 0.228525 0.412655
vt 0.227241 0.414533
vt 0.226128 0.411835
vt 0.227759 0.413538
vt 0.227831 0.401703
vt 0.227909 0.399609
vt 0.200063 0.481181
vt 0.201692 0.479478
vt 0.197014 0.483526
vt 0.197689 0.479415
vt 0.197014 0.475303
vt 0.196250 0.467518
vt 0.194620 0.465815
vt 0.201016 0.453145
vt 0.199386 0.454848
vt 0.193754 0.475303
vt 0.193079 0.479415
vt 0.192939 0.483048
vt 0.194095 0.477604
vt 0.196468 0.475688
vt 0.193754 0.483526
vt 0.199992 0.479478
vt 0.201622 0.481181
vt 0.201546 0.449416
vt 0.199299 0.454102
vt 0.200074 0.456349
vt 0.064266 0.975365
vt 0.062078 0.983922
vt 0.062078 0.975365
vt 0.636423 0.400076
vt 0.637097 0.404187
vt 0.639764 0.392296
vt 0.641394 0.390593
vt 0.641394 0.390593
vt 0.637818 0.392284
vt 0.639448 0.393987
vt 0.639448 0.393987
vt 0.633163 0.400076
vt 0.633163 0.408299
vt 0.227360 0.415068
vt 0.221607 0.396737
vt 0.222281 0.400849
vt 0.220850 0.399900
vt 0.222480 0.398197
vt 0.902079 0.429600
vt 0.227787 0.402353
vt 0.216170 0.398579
vt 0.217800 0.400282
vt 0.228339 0.411380
vt 0.228339 0.411380
vt 0.227270 0.426632
vt 0.227270 0.426632
vt 0.639056 0.388056
vt 0.639548 0.389606
vt 0.898853 0.426121
vt 0.899816 0.423313
vt 0.899894 0.421219
vt 0.897757 0.422943
vt 0.896716 0.427846
vt 0.196381 0.478014
vt 0.195312 0.481132
vt 0.193886 0.483218
vt 0.193025 0.480722
vt 0.195521 0.475518
vt 0.201358 0.454471
vt 0.202321 0.451663
vt 0.202399 0.449569
vt 0.200262 0.451294
vt 0.199221 0.456196
vt 0.064266 0.983922
vt 0.636423 0.400076
vt 0.639764 0.392296
vt 0.637818 0.392284
vt 0.228990 0.413365
vt 0.220850 0.399900
vt 0.902079 0.429600
vt 0.228462 0.398241
vt 0.228900 0.428335
s 0
usemtl 336Light
f 2/1/1 3/2/1 1/1/1
f 4/3/2 5/4/2 3/3/2
f 6/5/3 7/6/3 5/5/3
f 8/7/4 9/8/4 7/7/4
f 10/9/5 11/10/5 9/9/5
f 12/11/6 13/12/6 11/11/6
f 14/13/7 15/14/7 13/13/7
f 16/15/8 1/16/8 15/15/8
f 9/8/9 20/7/9 7/7/9
f 22/11/2 31/12/2 30/11/2
f 15/14/9 23/13/9 13/13/9
f 3/3/9 19/4/9 18/3/9
f 9/9/9 22/10/9 21/9/9
f 1/17/9 24/18/9 15/18/9
f 1/1/9 18/2/9 17/1/9
f 7/6/9 19/5/9 5/5/9
f 11/11/9 23/12/9 22/11/9
f 25/1/9 34/2/9 33/1/9
f 21/8/8 28/7/8 20/7/8
f 19/4/6 26/3/6 18/3/6
f 24/14/3 31/13/3 23/13/3
f 22/10/1 29/9/1 21/9/1
f 20/6/7 27/5/7 19/5/7
f 18/2/5 25/1/5 17/1/5
f 17/16/4 32/15/4 24/15/4
f 39/13/10 48/14/10 47/13/10
f 25/17/9 40/18/9 32/18/9
f 30/11/9 39/12/9 38/11/9
f 29/8/9 36/7/9 28/7/9
f 26/3/9 35/4/9 34/3/9
f 32/14/9 39/13/9 31/13/9
f 29/9/9 38/10/9 37/9/9
f 28/6/9 35/5/9 27/5/9
f 43/4/11 50/3/11 42/3/11
f 38/10/12 45/9/12 37/9/12
f 35/5/13 44/6/13 43/5/13
f 34/2/14 41/1/14 33/1/14
f 40/18/15 41/17/15 48/18/15
f 39/12/16 46/11/16 38/11/16
f 36/19/17 45/20/17 44/19/17
f 35/4/18 42/3/18 34/3/18
f 141/21/8 57/22/8 64/23/8
f 47/13/19 56/14/19 55/13/19
f 46/10/20 53/9/20 45/9/20
f 43/5/21 52/6/21 51/5/21
f 42/2/22 49/1/22 41/1/22
f 48/18/23 49/17/23 56/18/23
f 47/12/24 54/11/24 46/11/24
f 44/7/25 53/8/25 52/7/25
f 60/6/3 67/5/3 59/5/3
f 138/24/6 62/25/6 142/26/6
f 143/27/4 61/28/4 60/27/4
f 140/29/2 58/30/2 144/31/2
f 138/24/7 64/23/7 63/24/7
f 142/32/5 61/33/5 139/33/5
f 143/34/3 59/35/3 140/36/3
f 144/31/1 57/22/1 137/37/1
f 68/38/26 70/39/26 72/40/26
f 58/2/1 65/1/1 57/1/1
f 62/11/27 78/12/27 77/11/27
f 65/41/28 80/41/28 57/41/28
f 69/42/29 83/43/29 84/42/29
f 66/44/30 73/44/30 81/44/30
f 64/14/7 71/13/7 63/13/7
f 62/10/5 69/9/5 61/9/5
f 80/17/31 95/18/31 79/18/31
f 81/44/32 89/44/32 97/44/32
f 77/11/33 94/12/33 93/11/33
f 82/45/34 90/45/34 74/45/34
f 72/14/35 79/14/35 87/14/35
f 70/46/36 86/47/36 71/47/36
f 71/48/37 78/48/37 63/48/37
f 57/17/38 79/18/38 64/18/38
f 70/49/39 77/49/39 85/49/39
f 65/50/40 87/51/40 88/50/40
f 58/3/41 74/4/41 73/3/41
f 69/52/42 76/52/42 61/52/42
f 68/53/43 75/53/43 83/53/43
f 66/54/44 82/55/44 67/55/44
f 67/45/45 74/45/45 59/45/45
f 61/8/46 75/7/46 60/7/46
f 96/17/8 103/18/8 95/18/8
f 94/12/6 101/11/6 93/11/6
f 92/8/4 99/7/4 91/7/4
f 90/4/2 97/3/2 89/3/2
f 88/41/47 96/41/47 80/41/47
f 81/54/48 98/55/48 82/55/48
f 87/14/49 95/14/49 103/14/49
f 84/42/50 99/43/50 100/42/50
f 86/48/51 94/48/51 78/48/51
f 85/46/52 102/47/52 86/47/52
f 85/49/53 93/49/53 101/49/53
f 88/50/54 103/51/54 104/50/54
f 73/3/55 90/4/55 89/3/55
f 84/52/56 92/52/56 76/52/56
f 83/53/57 91/53/57 99/53/57
f 76/8/58 91/7/58 75/7/58
f 106/56/59 107/57/59 105/56/59
f 108/58/60 109/59/60 107/58/60
f 110/59/61 111/60/61 109/59/61
f 112/61/62 113/62/62 111/61/62
f 114/63/63 115/64/63 113/63/63
f 116/65/64 117/66/64 115/65/64
f 118/67/9 114/68/9 110/69/9
f 118/66/65 119/70/65 117/66/65
f 120/71/66 105/72/66 119/71/66
f 111/73/26 115/74/26 119/75/26
f 122/76/67 123/77/67 121/78/67
f 126/76/68 127/77/68 125/78/68
f 49/22/1 136/30/1 129/22/1
f 52/79/3 135/80/3 51/80/3
f 54/81/5 133/82/5 53/83/5
f 56/23/7 131/24/7 55/24/7
f 50/30/2 135/80/2 136/30/2
f 53/84/4 134/85/4 52/86/4
f 55/24/6 132/87/6 54/25/6
f 56/23/8 129/22/8 130/88/8
f 136/2/1 137/89/1 129/1/1
f 134/90/3 140/91/3 135/5/3
f 132/92/5 139/9/5 133/93/5
f 130/94/7 138/13/7 131/13/7
f 135/4/2 144/95/2 136/3/2
f 133/96/4 143/7/4 134/97/4
f 131/12/6 142/98/6 132/99/6
f 129/17/8 141/100/8 130/101/8
f 2/1/1 4/2/1 3/2/1
f 4/3/2 6/4/2 5/4/2
f 6/5/3 8/6/3 7/6/3
f 8/7/4 10/8/4 9/8/4
f 10/9/5 12/10/5 11/10/5
f 12/11/6 14/12/6 13/12/6
f 14/13/7 16/14/7 15/14/7
f 16/15/8 2/16/8 1/16/8
f 9/8/9 21/8/9 20/7/9
f 22/11/2 23/12/2 31/12/2
f 15/14/9 24/14/9 23/13/9
f 3/3/9 5/4/9 19/4/9
f 9/9/9 11/10/9 22/10/9
f 1/17/9 17/17/9 24/18/9
f 1/1/9 3/2/9 18/2/9
f 7/6/9 20/6/9 19/5/9
f 11/11/9 13/12/9 23/12/9
f 25/1/9 26/2/9 34/2/9
f 21/8/8 29/8/8 28/7/8
f 19/4/6 27/4/6 26/3/6
f 24/14/3 32/14/3 31/13/3
f 22/10/1 30/10/1 29/9/1
f 20/6/7 28/6/7 27/5/7
f 18/2/5 26/2/5 25/1/5
f 17/16/4 25/16/4 32/15/4
f 39/13/10 40/14/10 48/14/10
f 25/17/9 33/17/9 40/18/9
f 30/11/9 31/12/9 39/12/9
f 29/8/9 37/8/9 36/7/9
f 26/3/9 27/4/9 35/4/9
f 32/14/9 40/14/9 39/13/9
f 29/9/9 30/10/9 38/10/9
f 28/6/9 36/6/9 35/5/9
f 43/4/11 51/4/11 50/3/11
f 38/10/12 46/10/12 45/9/12
f 35/5/13 36/6/13 44/6/13
f 34/2/14 42/2/14 41/1/14
f 40/18/15 33/17/15 41/17/15
f 39/12/16 47/12/16 46/11/16
f 36/19/17 37/20/17 45/20/17
f 35/4/18 43/4/18 42/3/18
f 141/21/8 137/37/8 57/22/8
f 47/13/19 48/14/19 56/14/19
f 46/10/20 54/10/20 53/9/20
f 43/5/21 44/6/21 52/6/21
f 42/2/22 50/2/22 49/1/22
f 48/18/23 41/17/23 49/17/23
f 47/12/24 55/12/24 54/11/24
f 44/7/25 45/8/25 53/8/25
f 60/6/3 68/6/3 67/5/3
f 138/24/6 63/24/6 62/25/6
f 143/27/4 139/102/4 61/28/4
f 140/29/2 59/80/2 58/30/2
f 138/24/7 141/21/7 64/23/7
f 142/32/5 62/103/5 61/33/5
f 143/34/3 60/34/3 59/35/3
f 144/31/1 58/30/1 57/22/1
f 72/40/26 65/104/26 66/105/26
f 66/105/26 67/106/26 68/38/26
f 68/38/26 69/107/26 70/39/26
f 70/39/26 71/108/26 72/40/26
f 72/40/26 66/105/26 68/38/26
f 58/2/1 66/2/1 65/1/1
f 62/11/27 63/12/27 78/12/27
f 65/41/28 88/41/28 80/41/28
f 69/42/29 68/43/29 83/43/29
f 66/44/30 58/44/30 73/44/30
f 64/14/7 72/14/7 71/13/7
f 62/10/5 70/10/5 69/9/5
f 80/17/31 96/17/31 95/18/31
f 81/44/32 73/44/32 89/44/32
f 77/11/33 78/12/33 94/12/33
f 82/45/34 98/45/34 90/45/34
f 72/14/35 64/14/35 79/14/35
f 70/46/36 85/46/36 86/47/36
f 71/48/37 86/48/37 78/48/37
f 57/17/38 80/17/38 79/18/38
f 70/49/39 62/49/39 77/49/39
f 65/50/40 72/51/40 87/51/40
f 58/3/41 59/4/41 74/4/41
f 69/52/42 84/52/42 76/52/42
f 68/53/43 60/53/43 75/53/43
f 66/54/44 81/54/44 82/55/44
f 67/45/45 82/45/45 74/45/45
f 61/8/46 76/8/46 75/7/46
f 96/17/8 104/17/8 103/18/8
f 94/12/6 102/12/6 101/11/6
f 92/8/4 100/8/4 99/7/4
f 90/4/2 98/4/2 97/3/2
f 88/41/47 104/41/47 96/41/47
f 81/54/48 97/54/48 98/55/48
f 87/14/49 79/14/49 95/14/49
f 84/42/50 83/43/50 99/43/50
f 86/48/51 102/48/51 94/48/51
f 85/46/52 101/46/52 102/47/52
f 85/49/53 77/49/53 93/49/53
f 88/50/54 87/51/54 103/51/54
f 73/3/55 74/4/55 90/4/55
f 84/52/56 100/52/56 92/52/56
f 83/53/57 75/53/57 91/53/57
f 76/8/58 92/8/58 91/7/58
f 106/56/59 108/57/59 107/57/59
f 108/58/60 110/59/60 109/59/60
f 110/59/61 112/60/61 111/60/61
f 112/61/62 114/62/62 113/62/62
f 114/63/63 116/64/63 115/64/63
f 116/65/64 118/66/64 117/66/64
f 110/69/9 108/109/9 106/110/9
f 106/110/9 120/111/9 118/67/9
f 118/67/9 116/112/9 114/68/9
f 114/68/9 112/113/9 110/69/9
f 110/69/9 106/110/9 118/67/9
f 118/66/65 120/70/65 119/70/65
f 120/71/66 106/72/66 105/72/66
f 119/75/26 105/114/26 107/115/26
f 107/115/26 109/116/26 111/73/26
f 111/73/26 113/117/26 115/74/26
f 115/74/26 117/118/26 119/75/26
f 119/75/26 107/115/26 111/73/26
f 122/76/67 124/119/67 123/77/67
f 126/76/68 128/119/68 127/77/68
f 49/22/1 50/30/1 136/30/1
f 52/79/3 134/120/3 135/80/3
f 54/81/5 132/121/5 133/82/5
f 56/23/7 130/88/7 131/24/7
f 50/30/2 51/80/2 135/80/2
f 53/84/4 133/122/4 134/85/4
f 55/24/6 131/24/6 132/87/6
f 56/23/8 49/22/8 129/22/8
f 136/2/1 144/123/1 137/89/1
f 134/90/3 143/6/3 140/91/3
f 132/92/5 142/124/5 139/9/5
f 130/94/7 141/125/7 138/13/7
f 135/4/2 140/126/2 144/95/2
f 133/96/4 139/8/4 143/7/4
f 131/12/6 138/12/6 142/98/6
f 129/17/8 137/127/8 141/100/8
