# Blender 4.4.0
# www.blender.org
mtllib candle_336x11.mtl
o Candle_336x11
v -0.000000 1.380396 -0.075197
v -0.000000 1.898419 -0.075197
v 0.051838 1.380396 -0.053172
v 0.051838 1.898419 -0.053172
v 0.073310 1.380396 -0.000000
v 0.073310 1.898419 -0.000000
v 0.051838 1.380396 0.053172
v 0.051838 1.898419 0.053172
v -0.000000 1.380396 0.075196
v -0.000000 1.898419 0.075196
v -0.051838 1.380396 0.053172
v -0.051838 1.898419 0.053172
v -0.073310 1.380396 -0.000000
v -0.073310 1.898419 -0.000000
v -0.051838 1.380396 -0.053172
v -0.051838 1.898419 -0.053172
v 0.000348 1.971061 0.015185
v 0.000348 1.899098 0.015185
v 0.000348 1.971061 -0.012889
v 0.000348 1.899098 -0.012889
v 0.014385 1.971061 0.001148
v 0.014385 1.899098 0.001148
v -0.013689 1.971061 0.001148
v -0.013689 1.899098 0.001148
v -0.000000 1.347377 -0.075197
v 0.051838 1.347377 -0.053172
v 0.073310 1.347377 -0.000000
v 0.051838 1.347377 0.053172
v -0.000000 1.347377 0.075196
v -0.051838 1.347377 0.053172
v -0.073310 1.347377 -0.000000
v -0.051838 1.347377 -0.053172
v -0.000000 1.335618 -0.174520
v 0.120308 1.335618 -0.123404
v 0.170142 1.335618 -0.000000
v 0.120308 1.335618 0.123404
v -0.000000 1.335618 0.174519
v -0.120308 1.335618 0.123404
v -0.170142 1.335618 -0.000000
v -0.120308 1.335618 -0.123404
v -0.000000 1.388286 -0.174520
v 0.120308 1.388286 -0.123404
v 0.170142 1.388286 -0.000000
v 0.120308 1.388286 0.123404
v -0.000000 1.388286 0.174519
v -0.120308 1.388286 0.123404
v -0.170142 1.388286 -0.000000
v -0.120308 1.388286 -0.123404
v -0.000000 1.388286 -0.191060
v 0.131710 1.388286 -0.135100
v 0.186267 1.388286 -0.000000
v 0.131710 1.388286 0.135099
v -0.000000 1.388286 0.191059
v -0.131711 1.388286 0.135099
v -0.186267 1.388286 -0.000000
v -0.131711 1.388286 -0.135100
v -0.000000 1.304895 -0.178447
v 0.123016 1.304895 -0.126181
v 0.173970 1.304895 -0.000000
v 0.123016 1.304895 0.126181
v -0.000000 1.304895 0.178447
v -0.123016 1.304895 0.126181
v -0.173971 1.304895 -0.000000
v -0.123016 1.304895 -0.126181
v -0.000000 1.261005 -0.043296
v 0.029847 1.261005 -0.030615
v 0.042210 1.261005 -0.000000
v 0.029847 1.261005 0.030615
v -0.000000 1.261005 0.043296
v -0.029847 1.261005 0.030615
v -0.042210 1.261005 -0.000000
v -0.029847 1.261005 -0.030615
v -0.000000 0.041809 -0.043296
v 0.029847 0.041809 -0.030615
v 0.042210 0.041809 -0.000000
v 0.029847 0.041809 0.030615
v -0.000000 0.041809 0.043296
v -0.029847 0.041809 0.030615
v -0.042210 0.041809 -0.000000
v -0.029847 0.041809 -0.030615
v -0.000000 0.041809 -0.061746
v 0.042565 0.041809 -0.043661
v 0.060196 0.041809 -0.000000
v 0.042565 0.041809 0.043660
v -0.000000 0.041809 0.061745
v -0.042565 0.041809 0.043660
v -0.060197 0.041809 -0.000000
v -0.042565 0.041809 -0.043661
v -0.000000 0.012549 -0.137331
v 0.094671 0.012549 -0.097107
v 0.133885 0.012549 -0.000000
v 0.094671 0.012549 0.097107
v -0.000000 0.012549 0.137330
v -0.094672 0.012549 0.097107
v -0.133886 0.012549 -0.000000
v -0.094672 0.012549 -0.097107
v -0.000000 -0.024026 -0.137331
v 0.094671 -0.024026 -0.097107
v 0.133885 -0.024026 -0.000000
v 0.094671 -0.024026 0.097107
v -0.000000 -0.024026 0.137330
v -0.094672 -0.024026 0.097107
v -0.133886 -0.024026 -0.000000
v -0.094672 -0.024026 -0.097107
v 0.029847 1.215407 0.030615
v 0.042210 1.215407 -0.000000
v 0.029847 1.215407 -0.030615
v -0.000000 1.215407 -0.043296
v -0.029847 1.215407 -0.030615
v -0.042210 1.215407 -0.000000
v -0.029847 1.215407 0.030615
v -0.000000 1.215407 0.043296
v 0.029847 0.099898 0.030615
v 0.029847 0.099898 -0.030615
v -0.042210 0.099898 -0.000000
v -0.000000 0.099898 0.043296
v 0.042210 0.099898 -0.000000
v -0.000000 0.099898 -0.043296
v -0.029847 0.099898 -0.030615
v -0.029847 0.099898 0.030615
vn 0.3910 -0.0000 -0.9204
vn 0.9272 -0.0000 -0.3744
vn 0.9272 -0.0000 0.3744
vn 0.3910 -0.0000 0.9204
vn -0.3910 -0.0000 0.9204
vn -0.9272 -0.0000 0.3744
vn -0.0000 1.0000 -0.0000
vn -0.9272 -0.0000 -0.3744
vn -0.3910 -0.0000 -0.9204
vn 1.0000 -0.0000 -0.0000
vn -0.0000 -0.0000 -1.0000
vn -0.1204 0.9915 0.0486
vn 0.0499 0.9918 0.1174
vn 0.1204 0.9915 -0.0486
vn -0.1204 0.9915 -0.0486
vn -0.0499 0.9918 0.1174
vn 0.1204 0.9915 0.0486
vn 0.0499 0.9918 -0.1174
vn -0.0499 0.9918 -0.1174
vn -0.9273 -0.0000 -0.3744
vn 0.9187 -0.1355 -0.3710
vn -0.1301 -0.9430 -0.3062
vn -0.9187 -0.1355 -0.3710
vn -0.3873 -0.1379 0.9116
vn 0.9187 -0.1355 0.3710
vn 0.3873 -0.1379 -0.9116
vn -0.3873 -0.1379 -0.9116
vn -0.9187 -0.1355 0.3710
vn 0.3873 -0.1379 0.9116
vn -0.3135 -0.9411 0.1266
vn 0.1301 -0.9430 0.3062
vn 0.3135 -0.9411 -0.1266
vn -0.3135 -0.9411 -0.1266
vn -0.1301 -0.9430 0.3062
vn 0.3135 -0.9411 0.1266
vn 0.1301 -0.9430 -0.3062
vn 0.1516 0.9218 0.3568
vn 0.3650 0.9193 -0.1474
vn -0.3650 0.9193 -0.1474
vn -0.1516 0.9218 0.3568
vn 0.3650 0.9193 0.1474
vn 0.1516 0.9218 -0.3568
vn -0.1516 0.9218 -0.3568
vn -0.3650 0.9193 0.1474
vn -0.0000 -1.0000 -0.0000
vt 0.023569 0.952325
vt 0.025199 0.950622
vt 0.030111 0.940689
vt 0.030786 0.936577
vt 0.026966 0.939262
vt 0.026291 0.935150
vt 0.024661 0.933447
vt 0.020604 0.936153
vt 0.018974 0.937856
vt 0.018299 0.941968
vt 0.023307 0.942936
vt 0.024391 0.937828
vt 0.026618 0.936031
vt 0.022356 0.939262
vt 0.023031 0.943374
vt 0.024661 0.945077
vt 0.015901 0.939530
vt 0.015366 0.942792
vt 0.064528 0.975703
vt 0.062339 0.984260
vt 0.062339 0.975703
vt 0.761323 0.398107
vt 0.761843 0.400556
vt 0.013386 0.939037
vt 0.014679 0.937686
vt 0.014073 0.944143
vt 0.012780 0.942792
vt 0.015366 0.936269
vt 0.012851 0.942299
vt 0.014073 0.934918
vt 0.012245 0.939530
vt 0.770902 0.412035
vt 0.770572 0.414624
vt 0.760416 0.399577
vt 0.761402 0.398365
vt 0.773646 0.398982
vt 0.773126 0.396533
vt 0.768065 0.400246
vt 0.767000 0.399372
vt 0.756359 0.398562
vt 0.756028 0.401151
vt 0.766835 0.398872
vt 0.767900 0.399746
vt 0.771871 0.416115
vt 0.772202 0.413526
vt 0.773315 0.401571
vt 0.772328 0.402783
vt 0.766766 0.398755
vt 0.765700 0.397880
vt 0.772016 0.400079
vt 0.771029 0.401292
vt 0.760543 0.399064
vt 0.760023 0.396615
vt 0.759116 0.398085
vt 0.760103 0.396873
vt 0.771827 0.395042
vt 0.772346 0.397491
vt 0.769444 0.397968
vt 0.769774 0.395380
vt 0.765535 0.397381
vt 0.766601 0.398255
vt 0.755059 0.397071
vt 0.754728 0.399659
vt 0.641124 0.398997
vt 0.641545 0.401559
vt 0.641545 0.401559
vt 0.650476 0.386870
vt 0.649460 0.387931
vt 0.640109 0.405181
vt 0.639094 0.404120
vt 0.639093 0.404120
vt 0.638673 0.401559
vt 0.639094 0.398997
vt 0.639093 0.398997
vt 0.640109 0.397936
vt 0.641124 0.398997
vt 0.650896 0.384309
vt 0.640109 0.397936
vt 0.773060 0.395240
vt 0.773052 0.402485
vt 0.774250 0.402493
vt 0.645678 0.384508
vt 0.646693 0.383447
vt 0.650948 0.388550
vt 0.651369 0.385988
vt 0.649933 0.382366
vt 0.650948 0.383427
vt 0.645257 0.387070
vt 0.641124 0.404120
vt 0.755059 0.397071
vt 0.760103 0.396873
vt 0.760023 0.396615
vt 0.771029 0.401292
vt 0.766601 0.398255
vt 0.026536 0.938213
vt 0.025533 0.941139
vt 0.024195 0.943096
vt 0.023388 0.940754
vt 0.025729 0.935872
vt 0.064528 0.984260
vt 0.650897 0.384309
vt 0.774502 0.398871
vt 0.774258 0.395247
vt 0.773660 0.393743
vt 0.772808 0.398861
vt 0.773649 0.403989
vt 0.754728 0.399660
vt 0.766766 0.398755
vt 0.771827 0.395042
vt 0.759116 0.398086
vt 0.765535 0.397380
s 0
usemtl 336Light
f 2/1/1 3/2/1 1/1/1
f 4/3/2 5/4/2 3/3/2
f 6/5/3 7/6/3 5/5/3
f 8/6/4 9/7/4 7/6/4
f 10/8/5 11/9/5 9/8/5
f 12/9/6 13/10/6 11/9/6
f 14/11/7 10/12/7 6/13/7
f 14/14/8 15/15/8 13/14/8
f 16/15/9 1/16/9 15/15/9
f 5/17/2 26/18/2 3/18/2
f 18/19/10 19/20/10 17/21/10
f 22/19/11 23/20/11 21/21/11
f 30/22/12 39/23/12 38/22/12
f 11/24/5 29/25/5 9/25/5
f 1/26/9 32/27/9 15/27/9
f 3/18/1 25/26/1 1/26/1
f 7/28/3 27/17/3 5/17/3
f 13/29/6 30/24/6 11/24/6
f 9/30/4 28/28/4 7/28/4
f 15/27/8 31/31/8 13/31/8
f 34/32/5 41/33/5 33/33/5
f 29/34/13 36/35/13 28/35/13
f 26/36/14 35/37/14 34/36/14
f 32/38/15 39/39/15 31/39/15
f 29/40/16 38/41/16 37/40/16
f 28/42/17 35/43/17 27/43/17
f 25/44/18 34/45/18 33/44/18
f 25/46/19 40/47/19 32/47/19
f 48/48/7 55/49/7 47/49/7
f 33/50/4 48/51/4 40/51/4
f 39/52/2 46/53/2 38/53/2
f 37/54/9 44/55/9 36/55/9
f 35/56/6 42/57/6 34/57/6
f 40/48/3 47/49/3 39/49/3
f 38/58/1 45/59/1 37/59/1
f 36/60/20 43/61/20 35/61/20
f 51/56/21 58/57/21 50/57/21
f 45/62/7 54/63/7 53/62/7
f 44/60/7 51/61/7 43/61/7
f 41/33/7 50/32/7 49/33/7
f 41/50/7 56/51/7 48/51/7
f 46/53/7 55/52/7 54/53/7
f 45/54/7 52/55/7 44/55/7
f 42/57/7 51/56/7 50/57/7
f 64/51/22 65/50/22 72/51/22
f 55/49/23 64/48/23 63/49/23
f 54/63/24 61/62/24 53/62/24
f 51/61/25 60/60/25 59/61/25
f 50/32/26 57/33/26 49/33/26
f 56/51/27 57/50/27 64/51/27
f 55/52/28 62/53/28 54/53/28
f 52/55/29 61/54/29 60/55/29
f 113/64/3 75/65/3 117/66/3
f 63/52/30 70/53/30 62/53/30
f 60/55/31 69/54/31 68/55/31
f 59/56/32 66/57/32 58/57/32
f 63/49/33 72/48/33 71/49/33
f 62/63/34 69/62/34 61/62/34
f 59/61/35 68/60/35 67/61/35
f 58/32/36 65/33/36 57/33/36
f 80/48/7 87/49/7 79/49/7
f 114/67/1 73/68/1 118/68/1
f 118/69/9 80/70/9 119/71/9
f 115/72/6 78/73/6 120/74/6
f 116/75/4 76/76/4 113/64/4
f 117/77/2 74/67/2 114/67/2
f 119/71/8 79/72/8 115/72/8
f 120/74/5 77/78/5 116/75/5
f 85/54/37 92/55/37 84/55/37
f 77/62/7 86/63/7 85/62/7
f 76/60/7 83/61/7 75/61/7
f 73/33/7 82/32/7 81/33/7
f 73/50/7 88/51/7 80/51/7
f 78/53/7 87/52/7 86/53/7
f 77/54/7 84/55/7 76/55/7
f 74/57/7 83/56/7 82/57/7
f 89/50/9 104/51/9 96/51/9
f 82/57/38 91/56/38 90/57/38
f 88/48/39 95/49/39 87/49/39
f 85/62/40 94/63/40 93/62/40
f 84/60/41 91/61/41 83/61/41
f 81/33/42 90/32/42 89/33/42
f 81/50/43 96/51/43 88/51/43
f 86/53/44 95/52/44 94/53/44
f 100/79/45 102/80/45 104/81/45
f 95/52/6 102/53/6 94/53/6
f 93/54/4 100/55/4 92/55/4
f 91/56/2 98/57/2 90/57/2
f 96/48/8 103/49/8 95/49/8
f 94/63/5 101/62/5 93/62/5
f 92/60/3 99/61/3 91/61/3
f 90/32/1 97/33/1 89/33/1
f 70/82/5 112/83/5 69/83/5
f 71/72/8 109/70/8 110/72/8
f 66/84/2 106/85/2 107/84/2
f 69/86/4 105/87/4 68/87/4
f 70/82/6 110/88/6 111/82/6
f 65/69/9 109/70/9 72/70/9
f 66/89/1 108/69/1 65/69/1
f 68/87/3 106/85/3 67/85/3
f 111/63/5 116/90/5 112/62/5
f 109/48/8 115/49/8 110/49/8
f 106/56/2 114/57/2 107/57/2
f 112/54/4 113/91/4 105/55/4
f 110/52/6 120/92/6 111/53/6
f 108/50/9 119/93/9 109/51/9
f 107/32/1 118/33/1 108/33/1
f 105/60/3 117/94/3 106/61/3
f 2/1/1 4/2/1 3/2/1
f 4/3/2 6/4/2 5/4/2
f 6/5/3 8/6/3 7/6/3
f 8/6/4 10/7/4 9/7/4
f 10/8/5 12/9/5 11/9/5
f 12/9/6 14/10/6 13/10/6
f 6/13/7 4/95/7 2/96/7
f 2/96/7 16/97/7 14/11/7
f 14/11/7 12/98/7 10/12/7
f 10/12/7 8/99/7 6/13/7
f 6/13/7 2/96/7 14/11/7
f 14/14/8 16/15/8 15/15/8
f 16/15/9 2/16/9 1/16/9
f 5/17/2 27/17/2 26/18/2
f 18/19/10 20/100/10 19/20/10
f 22/19/11 24/100/11 23/20/11
f 30/22/12 31/23/12 39/23/12
f 11/24/5 30/24/5 29/25/5
f 1/26/9 25/26/9 32/27/9
f 3/18/1 26/18/1 25/26/1
f 7/28/3 28/28/3 27/17/3
f 13/29/6 31/29/6 30/24/6
f 9/30/4 29/30/4 28/28/4
f 15/27/8 32/27/8 31/31/8
f 34/32/5 42/32/5 41/33/5
f 29/34/13 37/34/13 36/35/13
f 26/36/14 27/37/14 35/37/14
f 32/38/15 40/38/15 39/39/15
f 29/40/16 30/41/16 38/41/16
f 28/42/17 36/42/17 35/43/17
f 25/44/18 26/45/18 34/45/18
f 25/46/19 33/46/19 40/47/19
f 48/48/7 56/48/7 55/49/7
f 33/50/4 41/50/4 48/51/4
f 39/52/2 47/52/2 46/53/2
f 37/54/9 45/54/9 44/55/9
f 35/56/6 43/56/6 42/57/6
f 40/48/3 48/48/3 47/49/3
f 38/58/1 46/58/1 45/59/1
f 36/60/8 44/60/8 43/61/8
f 51/56/21 59/56/21 58/57/21
f 45/62/7 46/63/7 54/63/7
f 44/60/7 52/60/7 51/61/7
f 41/33/7 42/32/7 50/32/7
f 41/50/7 49/50/7 56/51/7
f 46/53/7 47/52/7 55/52/7
f 45/54/7 53/54/7 52/55/7
f 42/57/7 43/56/7 51/56/7
f 64/51/22 57/50/22 65/50/22
f 55/49/23 56/48/23 64/48/23
f 54/63/24 62/63/24 61/62/24
f 51/61/25 52/60/25 60/60/25
f 50/32/26 58/32/26 57/33/26
f 56/51/27 49/50/27 57/50/27
f 55/52/28 63/52/28 62/53/28
f 52/55/29 53/54/29 61/54/29
f 113/64/3 76/76/3 75/65/3
f 63/52/30 71/52/30 70/53/30
f 60/55/31 61/54/31 69/54/31
f 59/56/32 67/56/32 66/57/32
f 63/49/33 64/48/33 72/48/33
f 62/63/34 70/63/34 69/62/34
f 59/61/35 60/60/35 68/60/35
f 58/32/36 66/32/36 65/33/36
f 80/48/7 88/48/7 87/49/7
f 114/67/1 74/67/1 73/68/1
f 118/69/9 73/69/9 80/70/9
f 115/72/6 79/72/6 78/73/6
f 116/75/4 77/78/4 76/76/4
f 117/77/2 75/101/2 74/67/2
f 119/71/8 80/70/8 79/72/8
f 120/74/5 78/73/5 77/78/5
f 85/54/37 93/54/37 92/55/37
f 77/62/7 78/63/7 86/63/7
f 76/60/7 84/60/7 83/61/7
f 73/33/7 74/32/7 82/32/7
f 73/50/7 81/50/7 88/51/7
f 78/53/7 79/52/7 87/52/7
f 77/54/7 85/54/7 84/55/7
f 74/57/7 75/56/7 83/56/7
f 89/50/9 97/50/9 104/51/9
f 82/57/38 83/56/38 91/56/38
f 88/48/39 96/48/39 95/49/39
f 85/62/40 86/63/40 94/63/40
f 84/60/41 92/60/41 91/61/41
f 81/33/42 82/32/42 90/32/42
f 81/50/43 89/50/43 96/51/43
f 86/53/44 87/52/44 95/52/44
f 104/81/45 97/102/45 98/103/45
f 98/103/45 99/104/45 100/79/45
f 100/79/45 101/105/45 102/80/45
f 102/80/45 103/106/45 104/81/45
f 104/81/45 98/103/45 100/79/45
f 95/52/6 103/52/6 102/53/6
f 93/54/4 101/54/4 100/55/4
f 91/56/2 99/56/2 98/57/2
f 96/48/8 104/48/8 103/49/8
f 94/63/5 102/63/5 101/62/5
f 92/60/3 100/60/3 99/61/3
f 90/32/1 98/32/1 97/33/1
f 70/82/5 111/82/5 112/83/5
f 71/72/8 72/70/8 109/70/8
f 66/84/2 67/85/2 106/85/2
f 69/86/4 112/86/4 105/87/4
f 70/82/6 71/88/6 110/88/6
f 65/69/9 108/69/9 109/70/9
f 66/89/1 107/89/1 108/69/1
f 68/87/3 105/87/3 106/85/3
f 111/63/5 120/107/5 116/90/5
f 109/48/8 119/108/8 115/49/8
f 106/56/2 117/109/2 114/57/2
f 112/54/4 116/110/4 113/91/4
f 110/52/6 115/52/6 120/92/6
f 108/50/9 118/50/9 119/93/9
f 107/32/1 114/32/1 118/33/1
f 105/60/3 113/111/3 117/94/3
