# Blender 4.4.0
# www.blender.org
mtllib candle_338x06.mtl
o candle_338x06
v 0.040181 -0.000000 -0.097006
v 0.097006 -0.000000 -0.040181
v 0.097006 0.000000 0.040181
v 0.040181 0.000000 0.097006
v -0.040181 0.000000 0.097006
v -0.097006 0.000000 0.040181
v -0.097006 -0.000000 -0.040181
v -0.040181 -0.000000 -0.097006
v 0.061994 -0.000000 -0.149666
v 0.149666 -0.000000 -0.061994
v 0.149666 0.000000 0.061994
v 0.061994 0.000000 0.149666
v -0.061994 0.000000 0.149666
v -0.149666 0.000000 0.061994
v -0.149666 -0.000000 -0.061994
v -0.061994 -0.000000 -0.149666
v 0.022910 0.300235 -0.022910
v 0.032399 0.300235 -0.000000
v 0.022910 0.300235 0.022910
v 0.000000 0.300235 0.032399
v -0.022910 0.300235 0.022910
v -0.032399 0.300235 -0.000000
v -0.022910 0.300235 -0.022910
v 0.000000 0.300235 -0.032400
v -0.134818 0.031615 -0.055843
v -0.134818 0.031615 0.055843
v 0.022910 0.016428 -0.022910
v 0.032399 0.016428 -0.000000
v 0.022910 0.016428 0.022910
v 0.000000 0.016428 0.032399
v -0.022910 0.016428 0.022910
v -0.032399 0.016428 -0.000000
v -0.022910 0.016428 -0.022910
v 0.000000 0.016428 -0.032400
v 0.040181 0.016428 -0.097006
v 0.097006 0.016428 -0.040181
v -0.055843 0.031615 0.134818
v 0.097006 0.016428 0.040181
v 0.040181 0.016428 0.097006
v -0.040181 0.016428 0.097006
v -0.097006 0.016428 0.040181
v 0.055843 0.031615 0.134818
v -0.097006 0.016428 -0.040181
v -0.040181 0.016428 -0.097006
v 0.172629 0.031615 -0.071505
v 0.071505 0.031615 -0.172629
v 0.134818 0.031615 0.055843
v 0.071505 0.031615 0.172629
v 0.172629 0.031615 0.071505
v -0.071505 0.031615 0.172629
v -0.172629 0.031615 0.071505
v -0.055843 0.031615 -0.134818
v -0.071505 0.031615 -0.172629
v -0.172629 0.031615 -0.071505
v 0.134818 0.031615 -0.055843
v 0.055843 0.031615 -0.134818
v 0.016126 0.300235 -0.016126
v 0.022806 0.300235 -0.000000
v 0.016126 0.300235 0.016126
v 0.000000 0.300235 0.022806
v -0.016126 0.300235 0.016126
v -0.022806 0.300235 -0.000000
v -0.016126 0.300235 -0.016126
v 0.000000 0.300235 -0.022806
v 0.000000 0.286175 0.007298
v 0.018245 0.294415 -0.000000
v 0.012901 0.294415 -0.012901
v 0.012901 0.294415 0.012901
v 0.000000 0.294415 0.018245
v -0.012901 0.294415 0.012901
v -0.018245 0.294415 -0.000000
v -0.012901 0.294415 -0.012901
v 0.000000 0.294415 -0.018245
v 0.000000 0.294415 -0.000000
v 0.000000 0.286175 -0.007298
v 0.000000 0.286175 -0.000000
v 0.000000 0.361013 0.007298
v 0.000000 0.361013 -0.007298
v 0.000000 0.361013 -0.000000
v 0.000000 0.094372 -0.231728
v 0.000000 0.094372 -0.192638
v 0.000000 0.066731 -0.164997
v 0.000000 0.027641 -0.164997
v 0.000000 -0.000000 -0.192638
v 0.000000 0.066731 -0.259369
v 0.000000 -0.000000 -0.231728
v 0.000000 0.027641 -0.259369
v -0.008750 0.094372 -0.231728
v -0.008750 0.094372 -0.192638
v -0.008750 0.066731 -0.164997
v -0.008750 0.027641 -0.164997
v -0.008750 -0.000000 -0.192638
v -0.008750 0.066731 -0.259369
v -0.008750 -0.000000 -0.231728
v -0.008750 0.027641 -0.259369
v 0.008750 0.094372 -0.231728
v 0.008750 0.094372 -0.192638
v 0.008750 0.066731 -0.164997
v 0.008750 0.027641 -0.164997
v 0.008750 -0.000000 -0.192638
v 0.008750 0.066731 -0.259369
v 0.008750 -0.000000 -0.231728
v 0.008750 0.027641 -0.259369
v 0.000000 0.061374 -0.177931
v 0.000000 0.032999 -0.177931
v 0.000000 0.081438 -0.226370
v 0.000000 0.081438 -0.197995
v 0.000000 0.012934 -0.226370
v 0.000000 0.032999 -0.246435
v 0.000000 0.012934 -0.197995
v 0.000000 0.061374 -0.246435
v -0.008750 0.061374 -0.177931
v -0.008750 0.032999 -0.177931
v -0.008750 0.081438 -0.226370
v -0.008750 0.081438 -0.197995
v -0.008750 0.012934 -0.226370
v -0.008750 0.032999 -0.246435
v -0.008750 0.012934 -0.197995
v -0.008750 0.061374 -0.246435
v 0.008750 0.061374 -0.177931
v 0.008750 0.032999 -0.177931
v 0.008750 0.081438 -0.226370
v 0.008750 0.081438 -0.197995
v 0.008750 0.012934 -0.226370
v 0.008750 0.032999 -0.246435
v 0.008750 0.012934 -0.197995
v 0.008750 0.061374 -0.246435
v 0.007298 0.286175 -0.000000
v -0.007298 0.286175 -0.000000
v 0.000000 0.286175 -0.000000
v 0.007298 0.361013 -0.000000
v -0.007298 0.361013 -0.000000
v 0.000000 0.361013 -0.000000
v 0.008984 0.521161 0.001984
v 0.002960 0.547992 -0.003071
v -0.002710 0.548454 -0.007828
v -0.012278 0.515610 -0.015857
v -0.020428 0.460100 -0.022695
v -0.023971 0.409216 -0.025669
v -0.020428 0.352318 -0.022695
v -0.015948 0.337221 -0.018936
v -0.021828 0.337221 -0.002780
v -0.027677 0.352318 -0.002780
v -0.032303 0.409216 -0.002780
v -0.027677 0.460100 -0.002780
v -0.017037 0.515610 -0.002780
v -0.004548 0.548454 -0.002780
v 0.002854 0.547992 -0.002780
v 0.010718 0.521161 -0.002780
v 0.018119 0.478604 -0.002780
v 0.029684 0.430495 -0.002780
v 0.035235 0.407365 -0.002780
v 0.036623 0.387012 -0.002780
v 0.031997 0.362957 -0.002780
v 0.025527 0.346003 -0.002780
v 0.022894 0.341200 -0.002780
v 0.015767 0.335933 -0.002780
v 0.007247 0.347707 -0.002780
v -0.000034 0.357467 -0.002780
v -0.004372 0.358861 -0.002780
v -0.013512 0.347862 -0.002780
v -0.018217 0.337181 -0.002780
v -0.021828 0.337221 -0.002780
v -0.027677 0.352318 -0.002780
v -0.032303 0.409216 -0.002780
v -0.027677 0.460100 -0.002780
v -0.017037 0.515610 -0.002780
v -0.004548 0.548454 -0.002780
v 0.002854 0.547992 -0.002780
v 0.010718 0.521161 -0.002780
v 0.018119 0.478604 -0.002780
v 0.029684 0.430495 -0.002780
v 0.035235 0.407365 -0.002780
v 0.036623 0.387012 -0.002780
v 0.031997 0.362957 -0.002780
v 0.025527 0.346003 -0.002780
v 0.022894 0.341200 -0.002780
v 0.015767 0.335933 -0.002780
v 0.007247 0.347707 -0.002780
v -0.000034 0.357467 -0.002780
v -0.004372 0.358861 -0.002780
v -0.013512 0.347862 -0.002780
v -0.018217 0.337181 -0.002780
v 0.014654 0.478604 0.006742
v 0.023513 0.430495 0.014175
v 0.027765 0.407365 0.017743
v 0.028828 0.387012 0.018635
v 0.025285 0.362957 0.015662
v 0.020329 0.346003 0.011503
v 0.018311 0.341200 0.009811
v 0.012852 0.335933 0.005230
v 0.006325 0.347707 -0.000247
v 0.000748 0.357467 -0.004927
v -0.002575 0.358861 -0.007715
v -0.009577 0.347862 -0.013591
v -0.013181 0.337181 -0.016614
v -0.005487 0.521161 0.003639
v -0.001555 0.547992 -0.003171
v 0.002145 0.548454 -0.009581
v 0.008390 0.515610 -0.020397
v 0.013710 0.460100 -0.029611
v 0.016023 0.409216 -0.033618
v 0.013710 0.352318 -0.029611
v 0.010786 0.337221 -0.024546
v -0.009188 0.478604 0.010049
v -0.014970 0.430495 0.020064
v -0.017746 0.407365 0.024872
v -0.018440 0.387012 0.026074
v -0.016127 0.362957 0.022067
v -0.012892 0.346003 0.016465
v -0.011575 0.341200 0.014184
v -0.008012 0.335933 0.008012
v -0.003752 0.347707 0.000633
v -0.000111 0.357467 -0.005672
v 0.002058 0.358861 -0.009429
v 0.006628 0.347862 -0.017345
v 0.008980 0.337181 -0.021419
vn -0.0000 1.0000 -0.0000
vn -0.1977 0.8562 -0.4773
vn -0.4773 0.8562 -0.1977
vn 0.4773 0.8562 -0.1977
vn 0.1977 0.8562 -0.4773
vn 0.1977 0.8562 0.4773
vn 0.4773 0.8562 0.1977
vn -0.1977 0.8562 0.4773
vn -0.2021 -0.9758 0.0837
vn -0.0837 -0.9758 -0.2021
vn -0.0837 -0.9758 0.2021
vn -0.4773 0.8562 0.1977
vn 0.5490 0.6303 -0.5490
vn -0.0000 -0.0000 -1.0000
vn -0.0000 0.6302 -0.7764
vn -0.5490 0.6303 -0.5490
vn -1.0000 -0.0000 -0.0000
vn -0.7764 0.6303 -0.0000
vn -0.5490 0.6302 0.5490
vn -0.0000 -0.0000 1.0000
vn -0.0000 0.6303 0.7764
vn 0.5490 0.6302 0.5490
vn 1.0000 -0.0000 -0.0000
vn 0.7764 0.6303 -0.0000
vn -0.7071 -0.0000 -0.7071
vn -0.7071 -0.0000 0.7071
vn 0.7071 -0.0000 0.7071
vn 0.7071 -0.0000 -0.7071
vn 0.0510 -0.9911 0.1232
vn 0.2021 -0.9758 0.0837
vn 0.1232 -0.9911 0.0510
vn -0.0510 -0.9911 0.1232
vn -0.0510 -0.9911 -0.1232
vn -0.2021 -0.9758 -0.0837
vn -0.1232 -0.9911 -0.0510
vn 0.0510 -0.9911 -0.1232
vn 0.0837 -0.9758 0.2021
vn -0.8587 -0.3690 0.3557
vn -0.1232 -0.9911 0.0510
vn 0.2021 -0.9758 -0.0837
vn 0.0837 -0.9758 -0.2021
vn 0.1232 -0.9911 -0.0510
vn -0.3557 -0.3690 -0.8587
vn -0.8587 -0.3690 -0.3557
vn 0.8587 -0.3690 -0.3557
vn 0.3557 -0.3690 -0.8587
vn 0.3557 -0.3690 0.8587
vn 0.8587 -0.3690 0.3557
vn -0.3557 -0.3690 0.8587
vn -0.0000 0.9399 0.3414
vn -0.2414 0.9399 0.2414
vn 0.2414 0.9399 0.2414
vn 0.2414 0.9399 -0.2414
vn -0.2414 0.9399 -0.2414
vn 0.3414 0.9399 -0.0000
vn -0.0000 0.9399 -0.3414
vn -0.3414 0.9399 -0.0000
vn -0.0000 0.8557 -0.5174
vn 0.5174 0.8557 -0.0000
vn -0.0000 0.8557 0.5174
vn -0.5174 0.8557 -0.0000
vn -0.3659 0.8557 -0.3659
vn -0.3659 0.8557 0.3659
vn 0.3659 0.8557 0.3659
vn 0.3659 0.8557 -0.3659
vn 0.6303 -0.2971 0.7173
vn -0.0000 0.3827 0.9239
vn -0.0000 -0.3827 0.9239
vn 0.6303 -0.2971 -0.7173
vn -0.0000 -0.9239 -0.3827
vn -0.0000 -0.3827 -0.9239
vn 0.6303 0.7173 0.2971
vn -0.0000 0.9239 -0.3827
vn -0.0000 0.9239 0.3827
vn 0.6303 -0.7173 -0.2971
vn -0.0000 -0.9239 0.3827
vn 0.6303 -0.7173 0.2971
vn 0.6303 0.7173 -0.2971
vn -0.0000 0.3827 -0.9239
vn 0.6303 0.2971 0.7173
vn 0.6303 0.2971 -0.7173
vn -0.6303 -0.2971 0.7173
vn -0.6303 0.2971 -0.7173
vn -0.6303 0.7173 0.2971
vn -0.6303 -0.2971 -0.7173
vn -0.6303 0.2971 0.7173
vn -0.6303 -0.7173 -0.2971
vn -0.6303 0.7173 -0.2971
vn -0.6303 -0.7173 0.2971
vn 0.8042 0.2275 -0.5491
vn 0.8042 0.2274 0.5491
vn 0.8042 -0.5491 -0.2275
vn 0.8042 0.5491 0.2275
vn 0.8042 0.5491 -0.2274
vn 0.8042 -0.5491 0.2275
vn 0.8042 -0.2274 -0.5491
vn 0.8042 -0.2275 0.5491
vn -0.8042 0.2275 -0.5491
vn -0.8042 -0.2274 0.5491
vn -0.8042 -0.5491 -0.2275
vn -0.8042 0.2275 0.5491
vn -0.8042 -0.2275 -0.5491
vn -0.8042 0.5491 0.2274
vn -0.8042 -0.5491 0.2275
vn -0.8042 0.5491 -0.2275
vn -0.8660 -0.0000 -0.5000
vn -0.6428 -0.0000 0.7660
vt 0.853648 0.383936
vt 0.802569 0.386456
vt 0.843471 0.380145
vt 0.827137 0.393811
vt 0.843471 0.401692
vt 0.802569 0.395381
vt 0.891139 0.397901
vt 0.942218 0.395381
vt 0.901316 0.401692
vt 0.917650 0.393811
vt 0.942218 0.386456
vt 0.827137 0.388026
vt 0.865257 0.390497
vt 0.859400 0.390875
vt 0.865257 0.389964
vt 0.853648 0.397901
vt 0.917650 0.388026
vt 0.901316 0.380145
vt 0.891139 0.383936
vt 0.986442 0.391685
vt 0.901370 0.390670
vt 0.899494 0.390785
vt 0.899188 0.390670
vt 0.803308 0.388381
vt 0.801694 0.389019
vt 0.801694 0.388485
vt 0.822944 0.395247
vt 0.827723 0.394954
vt 0.828503 0.395247
vt 0.791797 0.389123
vt 0.795837 0.389397
vt 0.795168 0.389648
vt 0.869477 0.392483
vt 0.865109 0.392187
vt 0.865832 0.391916
vt -0.531101 0.532560
vt -0.482055 0.739667
vt -0.531101 0.724912
vt 0.830552 0.394514
vt 0.832434 0.394635
vt 0.857033 0.393285
vt 0.858778 0.392595
vt 0.858778 0.393172
vt 0.898384 0.390958
vt 0.897645 0.390910
vt 0.867732 0.392595
vt 0.901676 0.390555
vt 0.898882 0.390555
vt 0.804922 0.389227
vt 0.804922 0.388277
vt 0.822164 0.395540
vt 0.829282 0.395540
vt 0.790182 0.389227
vt 0.794500 0.389899
vt 0.871222 0.392370
vt 0.866555 0.391644
vt 0.837418 0.386866
vt 0.822770 0.390334
vt 0.823814 0.386866
vt 0.839418 0.388152
vt 0.812890 0.395916
vt 0.814781 0.388152
vt 0.902522 0.386310
vt 0.878626 0.391969
vt 0.880328 0.386310
vt 0.834316 0.394757
vt 0.896906 0.390862
vt 0.855288 0.392370
vt 0.855288 0.393397
vt -0.580148 0.310698
vt -0.519530 0.517804
vt -0.580148 0.503048
vt 0.872803 0.389166
vt 0.852934 0.394981
vt 0.854349 0.389166
vt 0.870570 0.388700
vt 0.854376 0.392535
vt 0.855530 0.388700
vt 0.898449 0.389196
vt 0.884069 0.393405
vt 0.885093 0.389196
vt 0.675368 0.388939
vt 0.936912 0.397277
vt 0.936912 0.390081
vt 0.808737 0.397277
vt 0.846279 0.390081
vt 0.808737 0.390081
vt 0.899371 0.397277
vt 0.899371 0.390081
vt 0.846279 0.397277
vt 0.936912 0.382886
vt 0.808737 0.382886
vt 0.899371 0.382886
vt 0.846279 0.382886
vt 0.919346 0.390081
vt 0.919346 0.397277
vt 0.853555 0.390081
vt 0.826304 0.397277
vt 0.826304 0.390081
vt 0.892094 0.397277
vt 0.892094 0.390081
vt 0.853555 0.397277
vt 0.919346 0.382886
vt 0.826304 0.382886
vt 0.892094 0.382886
vt 0.853555 0.382886
vt 0.640356 0.290573
vt 0.641842 0.293741
vt 0.639542 0.294254
vt 0.629001 0.261399
vt 0.630979 0.263014
vt 0.627607 0.263075
vt 0.639542 0.290248
vt 0.639700 0.289159
vt 0.640013 0.289856
vt 0.639823 0.289136
vt 0.640358 0.301609
vt 0.639841 0.297787
vt 0.641456 0.298821
vt 0.641717 0.295390
vt 0.641127 0.303760
vt 0.640876 0.303835
vt 0.641321 0.301839
vt 0.641833 0.292309
vt 0.641608 0.290653
vt 0.640500 0.290451
vt 0.641237 0.289183
vt 0.641340 0.289504
vt 0.640721 0.289727
vt 0.640979 0.288855
vt 0.627838 0.261181
vt 0.628130 0.260678
vt 0.628545 0.261033
vt 0.628310 0.260677
vt 0.628369 0.266618
vt 0.627838 0.264769
vt 0.630124 0.265386
vt 0.630702 0.263784
vt 0.629362 0.267696
vt 0.628992 0.267711
vt 0.629755 0.266802
vt 0.631048 0.262336
vt 0.630817 0.261535
vt 0.629218 0.261352
vt 0.630363 0.260811
vt 0.630494 0.260971
vt 0.629582 0.261027
vt 0.630007 0.260635
vt 0.891120 0.392407
vt 0.888850 0.393812
vt 0.885641 0.393812
vt 0.901064 0.390785
vt 0.803308 0.389123
vt 0.774704 0.404477
vt 0.783745 0.401081
vt 0.830132 0.401081
vt 0.793411 0.389019
vt -0.482055 0.517805
vt 0.857033 0.392483
vt 0.856974 0.390497
vt 0.838461 0.390334
vt 0.841308 0.395916
vt 0.904224 0.391969
vt 0.853328 0.388315
vt 0.855380 0.387816
vt 0.855380 0.395326
vt 0.874219 0.394981
vt 0.871724 0.392535
vt 0.899474 0.393405
s 1
usemtl bottle_texture.004
f 3/1/1 12/2/2 11/3/3
f 5/4/1 14/5/4 13/6/5
f 7/7/1 16/8/6 15/9/7
f 8/10/1 9/11/8 16/8/6
f 4/12/1 13/6/5 12/2/2
f 41/13/9 44/14/10 40/15/11
f 6/16/1 15/9/7 14/5/4
f 1/17/1 10/18/12 9/11/8
f 2/19/1 11/3/3 10/18/12
f 1/17/1 5/4/1 4/12/1
f 4/12/1 2/19/1 1/17/1
f 17/20/13 34/20/14 24/20/15
f 23/20/16 32/20/17 22/20/18
f 21/20/19 30/20/20 20/20/21
f 19/20/22 28/20/23 18/20/24
f 24/20/15 33/20/25 23/20/16
f 22/20/18 31/20/26 21/20/19
f 20/20/21 29/20/27 19/20/22
f 18/20/24 27/20/28 17/20/13
f 42/21/29 38/22/30 47/23/31
f 37/24/32 41/25/9 40/26/11
f 52/27/33 43/28/34 25/29/35
f 56/30/36 44/31/10 52/32/33
f 37/33/32 39/34/37 42/35/29
f 11/36/3 45/37/38 10/38/12
f 25/29/35 41/39/9 26/40/39
f 56/41/36 36/42/40 35/43/41
f 47/23/31 36/44/40 55/45/42
f 40/46/11 35/43/41 39/34/37
f 36/42/40 39/34/37 35/43/41
f 48/47/43 47/23/31 49/48/44
f 51/49/45 37/24/32 50/50/46
f 53/51/47 25/29/35 54/52/48
f 46/53/49 52/32/33 53/54/47
f 50/55/46 42/35/29 48/56/43
f 9/57/8 53/58/47 16/59/6
f 14/60/4 50/61/46 13/62/5
f 15/63/7 51/64/45 14/65/4
f 54/52/48 26/40/39 51/66/45
f 49/48/44 55/45/42 45/67/38
f 45/68/38 56/41/36 46/69/49
f 12/70/2 49/71/44 11/72/3
f 16/73/6 54/74/48 15/75/7
f 13/76/5 48/77/43 12/78/2
f 10/79/12 46/80/49 9/81/8
f 8/10/1 6/16/1 5/4/1
f 17/20/13 64/20/50 57/20/51
f 22/20/18 63/20/52 23/20/16
f 20/20/21 61/20/53 21/20/19
f 18/20/24 59/20/54 19/20/22
f 23/20/16 64/20/50 24/20/15
f 22/20/18 61/20/53 62/20/55
f 20/20/21 59/20/54 60/20/56
f 18/20/24 57/20/51 58/20/57
f 59/20/54 69/20/58 60/20/56
f 61/20/53 71/20/59 62/20/55
f 63/20/52 73/20/60 64/20/50
f 59/20/54 66/20/61 68/20/62
f 74/20/1 67/20/63 73/20/60
f 74/20/1 72/20/64 71/20/59
f 70/20/65 74/20/1 71/20/59
f 68/20/62 74/20/1 69/20/58
f 57/20/51 66/20/61 58/20/57
f 57/20/51 73/20/60 67/20/63
f 63/20/52 71/20/59 72/20/64
f 61/20/53 69/20/58 70/20/65
f 65/82/17 79/82/17 76/82/17
f 76/82/17 78/82/17 75/82/17
f 93/83/66 87/84/67 85/84/68
f 90/85/69 81/86/70 82/87/71
f 94/88/72 84/86/73 86/89/74
f 89/90/75 80/89/76 81/86/70
f 88/88/77 85/84/68 80/89/76
f 92/90/78 83/87/79 84/86/73
f 95/83/80 86/89/74 87/84/67
f 91/85/81 82/87/71 83/87/79
f 101/91/82 80/89/76 85/84/68
f 99/92/83 84/86/73 83/87/79
f 102/93/84 87/84/67 86/89/74
f 98/92/85 83/87/79 82/87/71
f 103/91/86 85/84/68 87/84/67
f 97/94/87 82/87/71 81/86/70
f 100/94/88 86/89/74 84/86/73
f 96/93/89 81/86/70 80/89/76
f 109/95/71 119/96/90 111/95/79
f 107/97/74 112/98/91 104/99/67
f 110/97/76 116/100/92 108/101/70
f 106/101/73 115/102/93 107/97/74
f 111/95/79 114/100/94 106/101/73
f 105/99/68 118/102/95 110/97/76
f 108/101/70 117/96/96 109/95/71
f 104/99/67 113/98/97 105/99/68
f 106/101/73 127/103/98 111/95/79
f 110/97/76 121/104/99 105/99/68
f 109/95/71 124/105/100 108/101/70
f 105/99/68 120/104/101 104/99/67
f 111/95/79 125/103/102 109/95/71
f 104/99/67 123/106/103 107/97/74
f 108/101/70 126/106/104 110/97/76
f 107/97/74 122/105/105 106/101/73
f 97/94/87 122/105/105 123/106/103
f 92/90/78 116/100/92 118/102/95
f 103/91/86 124/105/100 125/103/102
f 91/85/81 118/102/95 113/98/97
f 100/94/88 124/105/100 102/93/84
f 89/90/75 112/98/91 115/102/93
f 99/92/83 126/106/104 100/94/88
f 88/88/77 119/96/90 93/83/66
f 97/94/87 120/104/101 98/92/85
f 93/83/66 117/96/96 95/83/80
f 96/93/89 127/103/98 122/105/105
f 90/85/69 113/98/97 112/98/91
f 101/91/82 125/103/102 127/103/98
f 89/90/75 114/100/94 88/88/77
f 98/92/85 121/104/99 99/92/83
f 95/83/80 116/100/92 94/88/72
f 128/82/20 133/82/20 130/82/20
f 130/82/20 132/82/20 129/82/20
s 0
f 215/107/106 207/108/106 202/109/106
f 194/107/107 186/108/107 139/109/107
f 160/110/20 152/111/20 144/112/20
f 181/107/20 173/108/20 165/109/20
f 202/109/106 203/113/106 215/107/106
f 203/113/106 204/114/106 216/115/106
f 204/114/106 217/116/106 216/115/106
f 203/113/106 216/115/106 215/107/106
f 200/117/106 201/118/106 205/119/106
f 201/118/106 202/109/106 206/120/106
f 205/119/106 201/118/106 206/120/106
f 198/121/106 199/122/106 197/123/106
f 199/122/106 200/117/106 197/123/106
f 205/119/106 197/123/106 200/117/106
f 207/108/106 206/120/106 202/109/106
f 207/108/106 215/107/106 208/124/106
f 209/125/106 208/124/106 214/126/106
f 214/126/106 208/124/106 215/107/106
f 211/127/106 210/128/106 213/129/106
f 210/128/106 209/125/106 213/129/106
f 213/129/106 212/130/106 211/127/106
f 214/126/106 213/129/106 209/125/106
f 139/109/107 140/113/107 194/107/107
f 140/113/107 141/114/107 195/115/107
f 141/114/107 196/116/107 195/115/107
f 140/113/107 195/115/107 194/107/107
f 137/117/107 138/118/107 184/119/107
f 138/118/107 139/109/107 185/120/107
f 184/119/107 138/118/107 185/120/107
f 135/121/107 136/122/107 134/123/107
f 136/122/107 137/117/107 134/123/107
f 184/119/107 134/123/107 137/117/107
f 186/108/107 185/120/107 139/109/107
f 186/108/107 194/107/107 187/124/107
f 188/125/107 187/124/107 193/126/107
f 193/126/107 187/124/107 194/107/107
f 190/127/107 189/128/107 192/129/107
f 189/128/107 188/125/107 192/129/107
f 192/129/107 191/130/107 190/127/107
f 193/126/107 192/129/107 188/125/107
f 144/112/20 143/131/20 160/110/20
f 143/131/20 142/132/20 161/133/20
f 142/132/20 162/134/20 161/133/20
f 143/131/20 161/133/20 160/110/20
f 146/135/20 145/136/20 150/137/20
f 145/136/20 144/112/20 151/138/20
f 150/137/20 145/136/20 151/138/20
f 148/139/20 147/140/20 149/141/20
f 147/140/20 146/135/20 149/141/20
f 150/137/20 149/141/20 146/135/20
f 152/111/20 151/138/20 144/112/20
f 152/111/20 160/110/20 153/142/20
f 154/143/20 153/142/20 159/144/20
f 159/144/20 153/142/20 160/110/20
f 156/145/20 155/146/20 158/147/20
f 155/146/20 154/143/20 158/147/20
f 158/147/20 157/148/20 156/145/20
f 159/144/20 158/147/20 154/143/20
f 165/109/20 164/113/20 181/107/20
f 164/113/20 163/114/20 182/115/20
f 163/114/20 183/116/20 182/115/20
f 164/113/20 182/115/20 181/107/20
f 167/117/20 166/118/20 171/119/20
f 166/118/20 165/109/20 172/120/20
f 171/119/20 166/118/20 172/120/20
f 169/121/20 168/122/20 170/123/20
f 168/122/20 167/117/20 170/123/20
f 171/119/20 170/123/20 167/117/20
f 173/108/20 172/120/20 165/109/20
f 173/108/20 181/107/20 174/124/20
f 175/125/20 174/124/20 180/126/20
f 180/126/20 174/124/20 181/107/20
f 177/127/20 176/128/20 179/129/20
f 176/128/20 175/125/20 179/129/20
f 179/129/20 178/130/20 177/127/20
f 180/126/20 179/129/20 175/125/20
s 1
f 3/1/1 4/12/1 12/2/2
f 5/4/1 6/16/1 14/5/4
f 7/7/1 8/10/1 16/8/6
f 8/10/1 1/17/1 9/11/8
f 4/12/1 5/4/1 13/6/5
f 41/149/9 43/150/34 44/151/10
f 6/16/1 7/7/1 15/9/7
f 1/17/1 2/19/1 10/18/12
f 2/19/1 3/1/1 11/3/3
f 1/17/1 8/10/1 5/4/1
f 4/12/1 3/1/1 2/19/1
f 17/20/13 27/20/28 34/20/14
f 23/20/16 33/20/25 32/20/17
f 21/20/19 31/20/26 30/20/20
f 19/20/22 29/20/27 28/20/23
f 24/20/15 34/20/14 33/20/25
f 22/20/18 32/20/17 31/20/26
f 20/20/21 30/20/20 29/20/27
f 18/20/24 28/20/23 27/20/28
f 42/21/29 39/152/37 38/22/30
f 37/24/32 26/153/39 41/25/9
f 52/154/33 44/155/10 43/156/34
f 56/30/36 35/157/41 44/31/10
f 37/33/32 40/46/11 39/34/37
f 11/36/3 49/158/44 45/37/38
f 25/29/35 43/28/34 41/39/9
f 56/41/36 55/159/42 36/42/40
f 47/23/31 38/22/30 36/44/40
f 40/15/11 44/14/10 35/160/41
f 36/44/40 38/22/30 39/152/37
f 48/47/43 42/21/29 47/23/31
f 51/49/45 26/153/39 37/24/32
f 53/51/47 52/27/33 25/29/35
f 46/53/49 56/30/36 52/32/33
f 50/55/46 37/33/32 42/35/29
f 9/57/8 46/161/49 53/58/47
f 14/60/4 51/162/45 50/61/46
f 15/63/7 54/163/48 51/64/45
f 54/52/48 25/29/35 26/40/39
f 49/48/44 47/23/31 55/45/42
f 45/68/38 55/159/42 56/41/36
f 12/164/2 48/165/43 49/166/44
f 16/73/6 53/167/47 54/74/48
f 13/76/5 50/168/46 48/77/43
f 10/79/12 45/169/38 46/80/49
f 8/10/1 7/7/1 6/16/1
f 17/20/13 24/20/15 64/20/50
f 22/20/18 62/20/55 63/20/52
f 20/20/21 60/20/56 61/20/53
f 18/20/24 58/20/57 59/20/54
f 23/20/16 63/20/52 64/20/50
f 22/20/18 21/20/19 61/20/53
f 20/20/21 19/20/22 59/20/54
f 18/20/24 17/20/13 57/20/51
f 59/20/54 68/20/62 69/20/58
f 61/20/53 70/20/65 71/20/59
f 63/20/52 72/20/64 73/20/60
f 59/20/54 58/20/57 66/20/61
f 74/20/1 66/20/61 67/20/63
f 74/20/1 73/20/60 72/20/64
f 70/20/65 69/20/58 74/20/1
f 68/20/62 66/20/61 74/20/1
f 57/20/51 67/20/63 66/20/61
f 57/20/51 64/20/50 73/20/60
f 63/20/52 62/20/55 71/20/59
f 61/20/53 60/20/56 69/20/58
f 65/82/17 77/82/17 79/82/17
f 76/82/17 79/82/17 78/82/17
f 93/83/66 95/83/80 87/84/67
f 90/85/69 89/90/75 81/86/70
f 94/88/72 92/90/78 84/86/73
f 89/90/75 88/88/77 80/89/76
f 88/88/77 93/83/66 85/84/68
f 92/90/78 91/85/81 83/87/79
f 95/83/80 94/88/72 86/89/74
f 91/85/81 90/85/69 82/87/71
f 101/91/82 96/93/89 80/89/76
f 99/92/83 100/94/88 84/86/73
f 102/93/84 103/91/86 87/84/67
f 98/92/85 99/92/83 83/87/79
f 103/91/86 101/91/82 85/84/68
f 97/94/87 98/92/85 82/87/71
f 100/94/88 102/93/84 86/89/74
f 96/93/89 97/94/87 81/86/70
f 109/95/71 117/96/96 119/96/90
f 107/97/74 115/102/93 112/98/91
f 110/97/76 118/102/95 116/100/92
f 106/101/73 114/100/94 115/102/93
f 111/95/79 119/96/90 114/100/94
f 105/99/68 113/98/97 118/102/95
f 108/101/70 116/100/92 117/96/96
f 104/99/67 112/98/91 113/98/97
f 106/101/73 122/105/105 127/103/98
f 110/97/76 126/106/104 121/104/99
f 109/95/71 125/103/102 124/105/100
f 105/99/68 121/104/99 120/104/101
f 111/95/79 127/103/98 125/103/102
f 104/99/67 120/104/101 123/106/103
f 108/101/70 124/105/100 126/106/104
f 107/97/74 123/106/103 122/105/105
f 97/94/87 96/93/89 122/105/105
f 92/90/78 94/88/72 116/100/92
f 103/91/86 102/93/84 124/105/100
f 91/85/81 92/90/78 118/102/95
f 100/94/88 126/106/104 124/105/100
f 89/90/75 90/85/69 112/98/91
f 99/92/83 121/104/99 126/106/104
f 88/88/77 114/100/94 119/96/90
f 97/94/87 123/106/103 120/104/101
f 93/83/66 119/96/90 117/96/96
f 96/93/89 101/91/82 127/103/98
f 90/85/69 91/85/81 113/98/97
f 101/91/82 103/91/86 125/103/102
f 89/90/75 115/102/93 114/100/94
f 98/92/85 120/104/101 121/104/99
f 95/83/80 117/96/96 116/100/92
f 128/82/20 131/82/20 133/82/20
f 130/82/20 133/82/20 132/82/20
