{
	"asset":{
		"generator":"Khronos glTF Blender I/O v4.4.55",
		"version":"2.0"
	},
	"scene":0,
	"scenes":[
		{
			"name":"Scene",
			"nodes":[
				0
			]
		}
	],
	"nodes":[
		{
			"mesh":0,
			"name":"candle_336x10"
		}
	],
	"materials":[
		{
			"alphaMode":"BLEND",
			"doubleSided":true,
			"name":"336Light",
			"pbrMetallicRoughness":{
				"baseColorTexture":{
					"index":0
				},
				"metallicFactor":0,
				"roughnessFactor":0.5
			}
		}
	],
	"meshes":[
		{
			"name":"candle_336x10",
			"primitives":[
				{
					"attributes":{
						"POSITION":0,
						"NORMAL":1,
						"TEXCOORD_0":2
					},
					"indices":3,
					"material":0
				}
			]
		}
	],
	"textures":[
		{
			"sampler":0,
			"source":0
		}
	],
	"images":[
		{
			"mimeType":"image/png",
			"name":"336light_source",
			"uri":"336light_source.png"
		}
	],
	"accessors":[
		{
			"bufferView":0,
			"componentType":5126,
			"count":518,
			"max":[
				0.2287990003824234,
				1.9768790006637573,
				0.2379540055990219
			],
			"min":[
				-0.2250089943408966,
				-0.0036030106712132692,
				-0.23887500166893005
			],
			"type":"VEC3"
		},
		{
			"bufferView":1,
			"componentType":5126,
			"count":518,
			"type":"VEC3"
		},
		{
			"bufferView":2,
			"componentType":5126,
			"count":518,
			"type":"VEC2"
		},
		{
			"bufferView":3,
			"componentType":5123,
			"count":786,
			"type":"SCALAR"
		}
	],
	"bufferViews":[
		{
			"buffer":0,
			"byteLength":6216,
			"byteOffset":0,
			"target":34962
		},
		{
			"buffer":0,
			"byteLength":6216,
			"byteOffset":6216,
			"target":34962
		},
		{
			"buffer":0,
			"byteLength":4144,
			"byteOffset":12432,
			"target":34962
		},
		{
			"buffer":0,
			"byteLength":1572,
			"byteOffset":16576,
			"target":34963
		}
	],
	"samplers":[
		{
			"magFilter":9728,
			"minFilter":9984
		}
	],
	"buffers":[
		{
			"byteLength":18148,
			"uri":"candle_336x10.bin"
		}
	]
}
