# Blender 4.4.0
# www.blender.org
mtllib Candle_336x14.mtl
o Candle_336x14
v 0.727413 1.394654 -0.065686
v 0.727413 1.443609 -0.065686
v 0.771445 1.394654 -0.046447
v 0.771445 1.443609 -0.046447
v 0.789684 1.394654 -0.000000
v 0.789684 1.443609 -0.000000
v 0.771445 1.394654 0.046447
v 0.771445 1.443609 0.046447
v 0.727413 1.394654 0.065686
v 0.727413 1.443609 0.065686
v 0.683381 1.394654 0.046447
v 0.683381 1.443609 0.046447
v 0.665143 1.394654 -0.000000
v 0.665143 1.443609 -0.000000
v 0.683381 1.394654 -0.046447
v 0.683381 1.443609 -0.046447
v 0.727413 1.394654 -0.117924
v 0.806462 1.394654 -0.083385
v 0.839206 1.394654 -0.000000
v 0.806462 1.394654 0.083385
v 0.727413 1.394654 0.117924
v 0.648364 1.394654 0.083385
v 0.615621 1.394654 -0.000000
v 0.648364 1.394654 -0.083385
v 0.727413 1.429766 -0.117924
v 0.806462 1.429766 -0.083385
v 0.839206 1.429766 -0.000000
v 0.806462 1.429766 0.083385
v 0.727413 1.429766 0.117924
v 0.648364 1.429766 0.083385
v 0.615621 1.429766 -0.000000
v 0.648364 1.429766 -0.083385
v 0.727413 1.429766 -0.148151
v 0.826724 1.429766 -0.104758
v 0.867860 1.429766 -0.000000
v 0.826724 1.429766 0.104758
v 0.727413 1.429766 0.148150
v 0.628102 1.429766 0.104758
v 0.586966 1.429766 -0.000000
v 0.628102 1.429766 -0.104758
v 0.727413 1.331014 -0.102548
v 0.796155 1.331014 -0.072512
v 0.824629 1.331014 -0.000000
v 0.796155 1.331014 0.072512
v 0.727413 1.331014 0.102548
v 0.658671 1.331014 0.072512
v 0.630198 1.331014 -0.000000
v 0.658671 1.331014 -0.072512
v 0.727413 1.300291 -0.042827
v 0.756122 1.300291 -0.030283
v 0.768013 1.300291 -0.000000
v 0.756122 1.300291 0.030283
v 0.727413 1.300291 0.042827
v 0.698705 1.300291 0.030283
v 0.686813 1.300291 -0.000000
v 0.698705 1.300291 -0.030283
v 0.727413 0.190951 -0.042827
v 0.756122 0.190951 -0.030283
v 0.768013 0.190951 -0.000000
v 0.756122 0.190951 0.030283
v 0.727413 0.190951 0.042827
v 0.698705 0.190951 0.030283
v 0.686813 0.190951 -0.000000
v 0.698705 0.190951 -0.030283
v 0.727413 0.106683 -0.042827
v 0.756122 0.106683 -0.030283
v 0.768013 0.106683 -0.000000
v 0.756122 0.106683 0.030283
v 0.727413 0.106683 0.042827
v 0.698705 0.106683 0.030283
v 0.686813 0.106683 -0.000000
v 0.698705 0.106683 -0.030283
v 0.821449 0.134433 -0.069354
v 0.840397 0.134433 -0.021101
v 0.789324 0.131586 0.100870
v 0.751253 0.131586 0.117504
v 0.631505 0.131080 0.064587
v 0.616301 0.131080 0.025866
v 0.664461 0.132359 -0.100416
v 0.704615 0.132359 -0.117960
v 0.821449 0.100483 -0.069354
v 0.840397 0.100483 -0.021101
v 0.789324 0.103331 0.100870
v 0.751253 0.103331 0.117504
v 0.631505 0.103837 0.064587
v 0.616301 0.103837 0.025866
v 0.664461 0.102558 -0.100416
v 0.704615 0.102558 -0.117960
v 0.917842 0.020954 -0.140445
v 0.956212 0.020954 -0.042729
v 0.852787 0.017758 0.204267
v 0.775690 0.017758 0.237954
v 0.533195 0.017190 0.130793
v 0.502404 0.017190 0.052381
v 0.599931 0.018625 -0.203346
v 0.681246 0.018625 -0.238875
v 0.917842 -0.017149 -0.140445
v 0.956212 -0.017149 -0.042729
v 0.852787 -0.013953 0.204267
v 0.775690 -0.013953 0.237954
v 0.533195 -0.013385 0.130793
v 0.502404 -0.013385 0.052381
v 0.599931 -0.014821 -0.203346
v 0.681246 -0.014821 -0.238875
v 0.726442 1.402186 -0.075197
v 0.726442 1.933049 -0.075197
v 0.778280 1.402186 -0.053172
v 0.778280 1.933049 -0.053172
v 0.799752 1.402186 -0.000000
v 0.799752 1.933049 -0.000000
v 0.778280 1.402186 0.053172
v 0.778280 1.933049 0.053172
v 0.726442 1.402186 0.075196
v 0.726442 1.933049 0.075196
v 0.674603 1.402186 0.053172
v 0.674603 1.933049 0.053172
v 0.653131 1.402186 -0.000000
v 0.653131 1.933049 -0.000000
v 0.674603 1.402186 -0.053172
v 0.674603 1.933049 -0.053172
v 0.726790 2.005691 0.015185
v 0.726790 1.933728 0.015185
v 0.726790 2.005691 -0.012889
v 0.726790 1.933728 -0.012889
v 0.740827 2.005691 0.001148
v 0.740827 1.933728 0.001148
v 0.712753 2.005691 0.001148
v 0.712753 1.933728 0.001148
v 0.727413 1.248296 -0.042827
v 0.698705 1.248296 -0.030283
v 0.686813 1.248296 -0.000000
v 0.698705 1.248296 0.030283
v 0.727413 1.248296 0.042827
v 0.756122 1.248296 0.030283
v 0.768013 1.248296 -0.000000
v 0.756122 1.248296 -0.030283
v 0.727413 0.264321 -0.042827
v 0.686813 0.264321 -0.000000
v 0.727413 0.264321 0.042827
v 0.768013 0.264321 -0.000000
v 0.698705 0.264321 -0.030283
v 0.698705 0.264321 0.030283
v 0.756122 0.264321 0.030283
v 0.756122 0.264321 -0.030283
vn 0.4004 -0.0000 -0.9163
vn 0.9308 -0.0000 -0.3655
vn 0.9308 -0.0000 0.3655
vn 0.4004 -0.0000 0.9163
vn -0.4004 -0.0000 0.9163
vn -0.9308 -0.0000 0.3655
vn -0.9308 -0.0000 -0.3655
vn -0.4004 -0.0000 -0.9163
vn -0.0000 1.0000 -0.0000
vn -0.8620 -0.3774 -0.3385
vn 0.4688 -0.8639 -0.1841
vn -0.3687 -0.3897 0.8439
vn 0.8620 -0.3774 0.3385
vn 0.3687 -0.3897 -0.8439
vn -0.3687 -0.3897 -0.8439
vn -0.8620 -0.3774 0.3385
vn 0.3687 -0.3897 0.8439
vn 0.8620 -0.3774 -0.3385
vn -0.4688 -0.8639 -0.1841
vn -0.1960 -0.8720 0.4486
vn 0.4688 -0.8639 0.1841
vn 0.1960 -0.8720 -0.4486
vn -0.1960 -0.8720 -0.4486
vn -0.4688 -0.8639 0.1841
vn 0.1960 -0.8720 0.4486
vn -0.0000 -1.0000 -0.0000
vn -0.5803 0.7819 0.2279
vn 0.9569 -0.0000 -0.2904
vn -0.0172 -0.9991 -0.0394
vn -0.5133 -0.0000 -0.8582
vn -0.2752 0.7263 -0.6299
vn -0.5936 -0.0000 -0.8048
vn -0.6530 0.7127 0.2564
vn 0.1836 -0.0000 0.9830
vn -0.8986 -0.0000 0.4388
vn 0.0353 -0.9993 -0.0138
vn -0.3444 -0.0000 -0.9388
vn -0.2405 0.7995 -0.5505
vn 0.4547 -0.0000 0.8907
vn 0.0212 -0.9986 0.0484
vn 0.5598 0.7990 -0.2198
vn -0.9526 -0.0000 0.3041
vn 0.9049 -0.0000 -0.4256
vn -0.0766 -0.9966 0.0301
vn 0.2799 -0.0000 0.9600
vn 0.2425 0.7957 0.5551
vn 0.9818 -0.0000 -0.1898
vn -0.6636 -0.7012 0.2606
vn -0.8473 -0.0000 0.5312
vn -0.2797 -0.7156 -0.6401
vn -0.2267 -0.0000 -0.9740
vn 0.6624 -0.7025 -0.2601
vn 0.5586 -0.0000 0.8295
vn 0.2798 -0.7153 0.6403
vn 0.6518 0.7139 -0.2559
vn -0.9800 -0.0000 0.1988
vn 0.8523 -0.0000 -0.5231
vn 0.2754 0.7260 0.6302
vn 0.3910 -0.0000 -0.9204
vn 0.9272 -0.0000 -0.3744
vn 0.9272 -0.0000 0.3744
vn 0.3910 -0.0000 0.9204
vn -0.3910 -0.0000 0.9204
vn -0.9272 -0.0000 0.3744
vn -0.9272 -0.0000 -0.3744
vn -0.3910 -0.0000 -0.9204
vn 1.0000 -0.0000 -0.0000
vn -0.0000 -0.0000 -1.0000
vt 0.903709 0.429510
vt 0.904884 0.428283
vt 0.903931 0.441813
vt 0.904417 0.438850
vt 0.905370 0.425319
vt 0.904884 0.422356
vt 0.898695 0.427091
vt 0.897520 0.425864
vt 0.898360 0.413074
vt 0.897186 0.414302
vt 0.892658 0.411489
vt 0.892171 0.414452
vt 0.898009 0.410957
vt 0.898495 0.413920
vt 0.903407 0.409222
vt 0.904582 0.410450
vt 0.633163 0.408299
vt 0.634793 0.410002
vt 0.633163 0.408299
vt 0.638607 0.394040
vt 0.639283 0.389929
vt 0.639283 0.389929
vt 0.636423 0.400076
vt 0.634793 0.398373
vt 0.637097 0.404187
vt 0.636423 0.408299
vt 0.636423 0.408299
vt 0.632488 0.404187
vt 0.640912 0.388225
vt 0.640912 0.388225
vt 0.637097 0.404187
vt 0.634793 0.410002
vt 0.899041 0.421066
vt 0.896795 0.425752
vt 0.897569 0.427999
vt 0.897276 0.427848
vt 0.898560 0.425970
vt 0.902534 0.428283
vt 0.893113 0.411795
vt 0.893034 0.413889
vt 0.902048 0.425319
vt 0.902534 0.422356
vt 0.904693 0.409745
vt 0.903409 0.411623
vt 0.903709 0.421128
vt 0.903939 0.442078
vt 0.904017 0.439984
vt 0.028984 0.942054
vt 0.030613 0.940351
vt 0.031289 0.936239
vt 0.027141 0.938924
vt 0.026466 0.934812
vt 0.024836 0.933109
vt 0.020197 0.936330
vt 0.018567 0.938033
vt 0.019222 0.935080
vt 0.018547 0.939192
vt 0.022753 0.942905
vt 0.024023 0.936924
vt 0.026630 0.934819
vt 0.022531 0.938924
vt 0.023206 0.943035
vt 0.024836 0.944739
vt 0.030997 0.908925
vt 0.028751 0.913611
vt 0.029525 0.915858
vt 0.064266 0.975365
vt 0.062078 0.983922
vt 0.062078 0.975365
vt 0.639494 0.387190
vt 0.641124 0.385486
vt 0.641123 0.385486
vt 0.636423 0.400076
vt 0.638819 0.391301
vt 0.639494 0.387190
vt 0.633163 0.408299
vt 0.903709 0.429510
vt 0.904884 0.422356
vt 0.905370 0.425319
vt 0.897186 0.414302
vt 0.898360 0.413074
vt 0.898496 0.413920
vt 0.903931 0.441813
vt 0.897520 0.425864
vt 0.898695 0.427091
vt 0.892658 0.411489
vt 0.892658 0.411489
vt 0.903408 0.409222
vt 0.903408 0.409222
vt 0.634793 0.398373
vt 0.898853 0.426121
vt 0.899816 0.423313
vt 0.899894 0.421219
vt 0.897757 0.422943
vt 0.896716 0.427846
vt 0.026535 0.937374
vt 0.025360 0.940801
vt 0.023793 0.943092
vt 0.022848 0.940350
vt 0.025590 0.934633
vt 0.030809 0.913980
vt 0.031772 0.911172
vt 0.031850 0.909078
vt 0.029714 0.910803
vt 0.028673 0.915705
vt 0.064266 0.983922
vt 0.634793 0.398373
vt 0.904884 0.428283
vt 0.897186 0.414302
vt 0.898496 0.413920
vt 0.904417 0.438850
vt 0.904582 0.410450
s 0
usemtl 336Light
f 2/1/1 3/2/1 1/1/1
f 4/3/2 5/4/2 3/3/2
f 6/5/3 7/6/3 5/5/3
f 8/7/4 9/8/4 7/7/4
f 10/9/5 11/10/5 9/9/5
f 12/11/6 13/12/6 11/11/6
f 14/13/7 15/14/7 13/13/7
f 16/15/8 1/16/8 15/15/8
f 9/8/9 20/7/9 7/7/9
f 22/11/2 31/12/2 30/11/2
f 15/14/9 23/13/9 13/13/9
f 3/3/9 19/4/9 18/3/9
f 9/9/9 22/10/9 21/9/9
f 1/16/9 24/15/9 15/15/9
f 1/1/9 18/2/9 17/1/9
f 7/6/9 19/5/9 5/5/9
f 11/11/9 23/12/9 22/11/9
f 25/1/9 34/2/9 33/1/9
f 21/8/8 28/7/8 20/7/8
f 19/4/6 26/3/6 18/3/6
f 24/14/3 31/13/3 23/13/3
f 22/10/1 29/9/1 21/9/1
f 20/6/7 27/5/7 19/5/7
f 18/2/5 25/1/5 17/1/5
f 17/16/4 32/15/4 24/15/4
f 39/13/10 48/14/10 47/13/10
f 25/16/9 40/15/9 32/15/9
f 30/11/9 39/12/9 38/11/9
f 29/8/9 36/7/9 28/7/9
f 26/3/9 35/4/9 34/3/9
f 32/14/9 39/13/9 31/13/9
f 29/9/9 38/10/9 37/9/9
f 28/6/9 35/5/9 27/5/9
f 43/4/11 50/3/11 42/3/11
f 38/10/12 45/9/12 37/9/12
f 35/5/13 44/6/13 43/5/13
f 34/2/14 41/1/14 33/1/14
f 40/15/15 41/16/15 48/15/15
f 39/12/16 46/11/16 38/11/16
f 36/7/17 45/8/17 44/7/17
f 35/4/18 42/3/18 34/3/18
f 141/17/8 57/18/8 64/19/8
f 47/13/19 56/14/19 55/13/19
f 46/10/20 53/9/20 45/9/20
f 43/5/21 52/6/21 51/5/21
f 42/2/22 49/1/22 41/1/22
f 48/15/23 49/16/23 56/15/23
f 47/12/24 54/11/24 46/11/24
f 44/7/25 53/8/25 52/7/25
f 60/6/3 67/5/3 59/5/3
f 138/20/6 62/21/6 142/22/6
f 143/23/4 61/24/4 60/23/4
f 140/25/2 58/26/2 144/27/2
f 138/28/7 64/19/7 63/28/7
f 142/22/5 61/29/5 139/30/5
f 143/23/3 59/31/3 140/25/3
f 144/27/1 57/18/1 137/32/1
f 68/33/26 70/34/26 72/35/26
f 58/2/1 65/1/1 57/1/1
f 62/11/27 78/12/27 77/11/27
f 65/1/28 80/1/28 57/1/28
f 69/36/29 83/37/29 84/36/29
f 66/2/30 73/2/30 81/2/30
f 64/14/7 71/13/7 63/13/7
f 62/10/5 69/9/5 61/9/5
f 80/16/31 95/15/31 79/15/31
f 81/2/32 89/2/32 97/2/32
f 77/11/33 94/12/33 93/11/33
f 82/5/34 90/5/34 74/5/34
f 72/38/35 79/38/35 87/38/35
f 70/39/36 86/40/36 71/40/36
f 71/41/37 78/41/37 63/41/37
f 57/16/38 79/15/38 64/15/38
f 70/42/39 77/42/39 85/42/39
f 65/43/40 87/44/40 88/43/40
f 58/3/41 74/4/41 73/3/41
f 69/45/42 76/45/42 61/45/42
f 68/6/43 75/6/43 83/6/43
f 66/46/44 82/47/44 67/47/44
f 67/5/45 74/5/45 59/5/45
f 61/8/46 75/7/46 60/7/46
f 96/16/8 103/15/8 95/15/8
f 94/12/6 101/11/6 93/11/6
f 92/8/4 99/7/4 91/7/4
f 90/4/2 97/3/2 89/3/2
f 88/1/47 96/1/47 80/1/47
f 81/46/48 98/47/48 82/47/48
f 87/38/49 95/38/49 103/38/49
f 84/36/50 99/37/50 100/36/50
f 86/41/51 94/41/51 78/41/51
f 85/39/52 102/40/52 86/40/52
f 85/42/53 93/42/53 101/42/53
f 88/43/54 103/44/54 104/43/54
f 73/3/55 90/4/55 89/3/55
f 84/45/56 92/45/56 76/45/56
f 83/6/57 91/6/57 99/6/57
f 76/8/58 91/7/58 75/7/58
f 106/48/59 107/49/59 105/48/59
f 108/49/60 109/50/60 107/49/60
f 110/51/61 111/52/61 109/51/61
f 112/52/62 113/53/62 111/52/62
f 114/54/63 115/55/63 113/54/63
f 116/56/64 117/57/64 115/56/64
f 118/58/9 114/59/9 110/60/9
f 118/61/65 119/62/65 117/61/65
f 120/62/66 105/63/66 119/62/66
f 111/64/26 115/65/26 119/66/26
f 122/67/67 123/68/67 121/69/67
f 126/67/68 127/68/68 125/69/68
f 49/18/1 136/26/1 129/18/1
f 52/23/3 135/31/3 51/31/3
f 54/70/5 133/71/5 53/72/5
f 56/19/7 131/28/7 55/28/7
f 50/26/2 135/31/2 136/26/2
f 53/24/4 134/73/4 52/23/4
f 55/74/6 132/75/6 54/70/6
f 56/19/8 129/18/8 130/76/8
f 136/2/1 137/77/1 129/1/1
f 134/78/3 140/79/3 135/5/3
f 132/80/5 139/9/5 133/81/5
f 130/82/7 138/13/7 131/13/7
f 135/4/2 144/83/2 136/3/2
f 133/84/4 143/7/4 134/85/4
f 131/12/6 142/86/6 132/87/6
f 129/16/8 141/88/8 130/89/8
f 2/1/1 4/2/1 3/2/1
f 4/3/2 6/4/2 5/4/2
f 6/5/3 8/6/3 7/6/3
f 8/7/4 10/8/4 9/8/4
f 10/9/5 12/10/5 11/10/5
f 12/11/6 14/12/6 13/12/6
f 14/13/7 16/14/7 15/14/7
f 16/15/8 2/16/8 1/16/8
f 9/8/9 21/8/9 20/7/9
f 22/11/2 23/12/2 31/12/2
f 15/14/9 24/14/9 23/13/9
f 3/3/9 5/4/9 19/4/9
f 9/9/9 11/10/9 22/10/9
f 1/16/9 17/16/9 24/15/9
f 1/1/9 3/2/9 18/2/9
f 7/6/9 20/6/9 19/5/9
f 11/11/9 13/12/9 23/12/9
f 25/1/9 26/2/9 34/2/9
f 21/8/8 29/8/8 28/7/8
f 19/4/6 27/4/6 26/3/6
f 24/14/3 32/14/3 31/13/3
f 22/10/1 30/10/1 29/9/1
f 20/6/7 28/6/7 27/5/7
f 18/2/5 26/2/5 25/1/5
f 17/16/4 25/16/4 32/15/4
f 39/13/10 40/14/10 48/14/10
f 25/16/9 33/16/9 40/15/9
f 30/11/9 31/12/9 39/12/9
f 29/8/9 37/8/9 36/7/9
f 26/3/9 27/4/9 35/4/9
f 32/14/9 40/14/9 39/13/9
f 29/9/9 30/10/9 38/10/9
f 28/6/9 36/6/9 35/5/9
f 43/4/11 51/4/11 50/3/11
f 38/10/12 46/10/12 45/9/12
f 35/5/13 36/6/13 44/6/13
f 34/2/14 42/2/14 41/1/14
f 40/15/15 33/16/15 41/16/15
f 39/12/16 47/12/16 46/11/16
f 36/7/17 37/8/17 45/8/17
f 35/4/18 43/4/18 42/3/18
f 141/17/8 137/32/8 57/18/8
f 47/13/19 48/14/19 56/14/19
f 46/10/20 54/10/20 53/9/20
f 43/5/21 44/6/21 52/6/21
f 42/2/22 50/2/22 49/1/22
f 48/15/23 41/16/23 49/16/23
f 47/12/24 55/12/24 54/11/24
f 44/7/25 45/8/25 53/8/25
f 60/6/3 68/6/3 67/5/3
f 138/20/6 63/20/6 62/21/6
f 143/23/4 139/90/4 61/24/4
f 140/25/2 59/31/2 58/26/2
f 138/28/7 141/17/7 64/19/7
f 142/22/5 62/21/5 61/29/5
f 143/23/3 60/23/3 59/31/3
f 144/27/1 58/26/1 57/18/1
f 72/35/26 65/91/26 66/92/26
f 66/92/26 67/93/26 68/33/26
f 68/33/26 69/94/26 70/34/26
f 70/34/26 71/95/26 72/35/26
f 72/35/26 66/92/26 68/33/26
f 58/2/1 66/2/1 65/1/1
f 62/11/27 63/12/27 78/12/27
f 65/1/28 88/1/28 80/1/28
f 69/36/29 68/37/29 83/37/29
f 66/2/30 58/2/30 73/2/30
f 64/14/7 72/14/7 71/13/7
f 62/10/5 70/10/5 69/9/5
f 80/16/31 96/16/31 95/15/31
f 81/2/32 73/2/32 89/2/32
f 77/11/33 78/12/33 94/12/33
f 82/5/34 98/5/34 90/5/34
f 72/38/35 64/38/35 79/38/35
f 70/39/36 85/39/36 86/40/36
f 71/41/37 86/41/37 78/41/37
f 57/16/38 80/16/38 79/15/38
f 70/42/39 62/42/39 77/42/39
f 65/43/40 72/44/40 87/44/40
f 58/3/41 59/4/41 74/4/41
f 69/45/42 84/45/42 76/45/42
f 68/6/43 60/6/43 75/6/43
f 66/46/44 81/46/44 82/47/44
f 67/5/45 82/5/45 74/5/45
f 61/8/46 76/8/46 75/7/46
f 96/16/8 104/16/8 103/15/8
f 94/12/6 102/12/6 101/11/6
f 92/8/4 100/8/4 99/7/4
f 90/4/2 98/4/2 97/3/2
f 88/1/47 104/1/47 96/1/47
f 81/46/48 97/46/48 98/47/48
f 87/38/49 79/38/49 95/38/49
f 84/36/50 83/37/50 99/37/50
f 86/41/51 102/41/51 94/41/51
f 85/39/52 101/39/52 102/40/52
f 85/42/53 77/42/53 93/42/53
f 88/43/54 87/44/54 103/44/54
f 73/3/55 74/4/55 90/4/55
f 84/45/56 100/45/56 92/45/56
f 83/6/57 75/6/57 91/6/57
f 76/8/58 92/8/58 91/7/58
f 106/48/59 108/49/59 107/49/59
f 108/49/60 110/50/60 109/50/60
f 110/51/61 112/52/61 111/52/61
f 112/52/62 114/53/62 113/53/62
f 114/54/63 116/55/63 115/55/63
f 116/56/64 118/57/64 117/57/64
f 110/60/9 108/96/9 106/97/9
f 106/97/9 120/98/9 118/58/9
f 118/58/9 116/99/9 114/59/9
f 114/59/9 112/100/9 110/60/9
f 110/60/9 106/97/9 118/58/9
f 118/61/65 120/62/65 119/62/65
f 120/62/66 106/63/66 105/63/66
f 119/66/26 105/101/26 107/102/26
f 107/102/26 109/103/26 111/64/26
f 111/64/26 113/104/26 115/65/26
f 115/65/26 117/105/26 119/66/26
f 119/66/26 107/102/26 111/64/26
f 122/67/67 124/106/67 123/68/67
f 126/67/68 128/106/68 127/68/68
f 49/18/1 50/26/1 136/26/1
f 52/23/3 134/73/3 135/31/3
f 54/70/5 132/75/5 133/71/5
f 56/19/7 130/76/7 131/28/7
f 50/26/2 51/31/2 135/31/2
f 53/24/4 133/107/4 134/73/4
f 55/74/6 131/74/6 132/75/6
f 56/19/8 49/18/8 129/18/8
f 136/2/1 144/108/1 137/77/1
f 134/78/3 143/6/3 140/79/3
f 132/80/5 142/109/5 139/9/5
f 130/82/7 141/110/7 138/13/7
f 135/4/2 140/111/2 144/83/2
f 133/84/4 139/8/4 143/7/4
f 131/12/6 138/12/6 142/86/6
f 129/16/8 137/112/8 141/88/8
