# Blender 4.0.1
# www.blender.org
mtllib candle_tin.mtl
o Candle
v 0.040181 0.000000 -0.097006
v 0.097006 0.000000 -0.040181
v 0.097006 0.000000 0.040181
v 0.040181 0.000000 0.097006
v -0.040181 0.000000 0.097006
v -0.097006 0.000000 0.040181
v -0.097006 0.000000 -0.040181
v -0.040181 0.000000 -0.097006
v 0.061994 0.000000 -0.149666
v 0.149666 0.000000 -0.061994
v 0.149666 0.000000 0.061994
v 0.061994 0.000000 0.149666
v -0.061994 0.000000 0.149666
v -0.149666 0.000000 0.061994
v -0.149666 0.000000 -0.061994
v -0.061994 0.000000 -0.149666
v 0.022910 0.300235 -0.022910
v 0.032399 0.300235 -0.000000
v 0.022910 0.300235 0.022910
v -0.000000 0.300235 0.032399
v -0.022910 0.300235 0.022910
v -0.032399 0.300235 -0.000000
v -0.022910 0.300235 -0.022910
v -0.000000 0.300235 -0.032400
v -0.134818 0.031615 -0.055843
v -0.134818 0.031615 0.055843
v 0.022910 0.016428 -0.022910
v 0.032399 0.016428 -0.000000
v 0.022910 0.016428 0.022910
v -0.000000 0.016428 0.032399
v -0.022910 0.016428 0.022910
v -0.032399 0.016428 -0.000000
v -0.022910 0.016428 -0.022910
v -0.000000 0.016428 -0.032400
v 0.040181 0.016428 -0.097006
v 0.097006 0.016428 -0.040181
v -0.055843 0.031615 0.134818
v 0.097006 0.016428 0.040181
v 0.040181 0.016428 0.097006
v -0.040181 0.016428 0.097006
v -0.097006 0.016428 0.040181
v 0.055843 0.031615 0.134818
v -0.097006 0.016428 -0.040181
v -0.040181 0.016428 -0.097006
v 0.172629 0.031615 -0.071505
v 0.071505 0.031615 -0.172629
v 0.134818 0.031615 0.055843
v 0.071505 0.031615 0.172629
v 0.172629 0.031615 0.071505
v -0.071505 0.031615 0.172629
v -0.172629 0.031615 0.071505
v -0.055843 0.031615 -0.134818
v -0.071505 0.031615 -0.172629
v -0.172629 0.031615 -0.071505
v 0.134818 0.031615 -0.055843
v 0.055843 0.031615 -0.134818
v 0.016126 0.300235 -0.016126
v 0.022806 0.300235 -0.000000
v 0.016126 0.300235 0.016126
v -0.000000 0.300235 0.022806
v -0.016126 0.300235 0.016126
v -0.022806 0.300235 -0.000000
v -0.016126 0.300235 -0.016126
v -0.000000 0.300235 -0.022806
v -0.000000 0.286175 0.007298
v 0.018245 0.294415 -0.000000
v 0.012901 0.294415 -0.012901
v 0.012901 0.294415 0.012901
v -0.000000 0.294415 0.018245
v -0.012901 0.294415 0.012901
v -0.018245 0.294415 -0.000000
v -0.012901 0.294415 -0.012901
v -0.000000 0.294415 -0.018245
v -0.000000 0.294415 -0.000000
v -0.000000 0.286175 -0.007298
v -0.000000 0.286175 -0.000000
v -0.000000 0.361013 0.007298
v -0.000000 0.361013 -0.007298
v -0.000000 0.361013 -0.000000
v -0.000000 0.094372 -0.231728
v -0.000000 0.094372 -0.192638
v -0.000000 0.066731 -0.164997
v -0.000000 0.027641 -0.164997
v -0.000000 0.000000 -0.192638
v -0.000000 0.066731 -0.259369
v -0.000000 0.000000 -0.231728
v -0.000000 0.027641 -0.259369
v -0.008750 0.094372 -0.231728
v -0.008750 0.094372 -0.192638
v -0.008750 0.066731 -0.164997
v -0.008750 0.027641 -0.164997
v -0.008750 0.000000 -0.192638
v -0.008750 0.066731 -0.259369
v -0.008750 0.000000 -0.231728
v -0.008750 0.027641 -0.259369
v 0.008750 0.094372 -0.231728
v 0.008750 0.094372 -0.192638
v 0.008750 0.066731 -0.164997
v 0.008750 0.027641 -0.164997
v 0.008750 0.000000 -0.192638
v 0.008750 0.066731 -0.259369
v 0.008750 0.000000 -0.231728
v 0.008750 0.027641 -0.259369
v -0.000000 0.061374 -0.177931
v -0.000000 0.032999 -0.177931
v -0.000000 0.081438 -0.226370
v -0.000000 0.081438 -0.197995
v -0.000000 0.012934 -0.226370
v -0.000000 0.032999 -0.246435
v -0.000000 0.012934 -0.197995
v -0.000000 0.061374 -0.246435
v -0.008750 0.061374 -0.177931
v -0.008750 0.032999 -0.177931
v -0.008750 0.081438 -0.226370
v -0.008750 0.081438 -0.197995
v -0.008750 0.012934 -0.226370
v -0.008750 0.032999 -0.246435
v -0.008750 0.012934 -0.197995
v -0.008750 0.061374 -0.246435
v 0.008750 0.061374 -0.177931
v 0.008750 0.032999 -0.177931
v 0.008750 0.081438 -0.226370
v 0.008750 0.081438 -0.197995
v 0.008750 0.012934 -0.226370
v 0.008750 0.032999 -0.246435
v 0.008750 0.012934 -0.197995
v 0.008750 0.061374 -0.246435
v 0.007298 0.286175 -0.000000
v -0.007298 0.286175 -0.000000
v -0.000000 0.286175 -0.000000
v 0.007298 0.361013 -0.000000
v -0.007298 0.361013 -0.000000
v -0.000000 0.361013 -0.000000
vn -0.0000 1.0000 -0.0000
vn -0.0000 -1.0000 -0.0000
vn 0.3827 -0.0000 -0.9239
vn -0.9239 -0.0000 -0.3827
vn -0.3827 -0.0000 0.9239
vn 0.9239 -0.0000 0.3827
vn -0.3827 -0.0000 -0.9239
vn -0.9239 -0.0000 0.3827
vn 0.3827 -0.0000 0.9239
vn 0.9239 -0.0000 -0.3827
vn 0.2635 -0.9279 0.2635
vn -0.2635 -0.9279 0.2635
vn -0.2635 -0.9279 -0.2635
vn -0.0000 -0.9279 -0.3727
vn -0.0000 -0.9279 0.3727
vn -0.8091 0.5877 -0.0000
vn -0.3727 -0.9279 -0.0000
vn 0.2635 -0.9279 -0.2635
vn 0.3727 -0.9279 -0.0000
vn -0.0000 0.5877 0.8091
vn 0.5721 0.5877 -0.5721
vn 0.8091 0.5877 -0.0000
vn -0.5721 0.5877 -0.5721
vn 0.5721 0.5877 0.5721
vn -0.0000 0.5877 -0.8091
vn -0.5721 0.5877 0.5721
vn -0.3100 0.5865 -0.7483
vn 0.7483 0.5865 -0.3100
vn 0.3100 0.5865 0.7483
vn -0.7483 0.5865 -0.3100
vn -0.7483 0.5865 0.3100
vn -0.3100 0.5865 0.7483
vn 0.7483 0.5865 0.3100
vn 0.3100 0.5865 -0.7483
vn -1.0000 -0.0000 -0.0000
vn -0.0000 -0.0000 1.0000
vn -0.0000 -0.7071 -0.7071
vn -0.0000 -0.7071 0.7071
vn -0.0000 0.7071 -0.7071
vn -0.0000 0.7071 0.7071
vn -0.0000 -0.0000 -1.0000
vn 1.0000 -0.0000 -0.0000
vt 0.774864 0.394969
vt 0.986442 0.391685
vt 0.675368 0.388939
s 0
usemtl bottle_texture
f 11/1/1 3/1/1 4/1/1 12/1/1
f 13/1/1 5/1/1 6/1/1 14/1/1
f 15/1/1 7/1/1 8/1/1 16/1/1
f 16/1/1 8/1/1 1/1/1 9/1/1
f 12/1/1 4/1/1 5/1/1 13/1/1
f 40/1/2 41/1/2 43/1/2 44/1/2
f 14/1/1 6/1/1 7/1/1 15/1/1
f 9/1/1 1/1/1 2/1/1 10/1/1
f 10/1/1 2/1/1 3/1/1 11/1/1
f 4/1/1 1/1/1 8/1/1 5/1/1
f 1/1/1 4/1/1 3/1/1 2/1/1
f 24/2/3 17/2/3 27/2/3 34/2/3
f 22/2/4 23/2/4 33/2/4 32/2/4
f 20/2/5 21/2/5 31/2/5 30/2/5
f 18/2/6 19/2/6 29/2/6 28/2/6
f 23/2/7 24/2/7 34/2/7 33/2/7
f 21/2/8 22/2/8 32/2/8 31/2/8
f 19/2/9 20/2/9 30/2/9 29/2/9
f 17/2/10 18/2/10 28/2/10 27/2/10
f 47/1/11 42/1/11 39/1/11 38/1/11
f 37/1/12 26/1/12 41/1/12 40/1/12
f 25/1/13 52/1/13 44/1/13 43/1/13
f 52/1/14 56/1/14 35/1/14 44/1/14
f 42/1/15 37/1/15 40/1/15 39/1/15
f 10/1/16 11/1/16 49/1/16 45/1/16
f 26/1/17 25/1/17 43/1/17 41/1/17
f 56/1/18 55/1/18 36/1/18 35/1/18
f 55/1/19 47/1/19 38/1/19 36/1/19
f 39/1/2 40/1/2 44/1/2 35/1/2
f 35/1/2 36/1/2 38/1/2 39/1/2
f 49/1/2 48/1/2 42/1/2 47/1/2
f 50/1/2 51/1/2 26/1/2 37/1/2
f 54/1/2 53/1/2 52/1/2 25/1/2
f 53/1/2 46/1/2 56/1/2 52/1/2
f 48/1/2 50/1/2 37/1/2 42/1/2
f 16/1/20 9/1/20 46/1/20 53/1/20
f 13/1/21 14/1/21 51/1/21 50/1/21
f 14/1/22 15/1/22 54/1/22 51/1/22
f 51/1/2 54/1/2 25/1/2 26/1/2
f 45/1/2 49/1/2 47/1/2 55/1/2
f 46/1/2 45/1/2 55/1/2 56/1/2
f 11/1/23 12/1/23 48/1/23 49/1/23
f 15/1/24 16/1/24 53/1/24 54/1/24
f 12/1/25 13/1/25 50/1/25 48/1/25
f 9/1/26 10/1/26 45/1/26 46/1/26
f 5/1/1 8/1/1 7/1/1 6/1/1
f 17/2/1 24/2/1 64/2/1 57/2/1
f 23/2/1 22/2/1 62/2/1 63/2/1
f 21/2/1 20/2/1 60/2/1 61/2/1
f 19/2/1 18/2/1 58/2/1 59/2/1
f 24/2/1 23/2/1 63/2/1 64/2/1
f 22/2/1 21/2/1 61/2/1 62/2/1
f 20/2/1 19/2/1 59/2/1 60/2/1
f 18/2/1 17/2/1 57/2/1 58/2/1
f 60/2/27 59/2/27 68/2/27 69/2/27
f 62/2/28 61/2/28 70/2/28 71/2/28
f 64/2/29 63/2/29 72/2/29 73/2/29
f 59/2/30 58/2/30 66/2/30 68/2/30
f 74/2/1 66/2/1 67/2/1 73/2/1
f 71/2/1 74/2/1 73/2/1 72/2/1
f 70/2/1 69/2/1 74/2/1 71/2/1
f 69/2/1 68/2/1 66/2/1 74/2/1
f 58/2/31 57/2/31 67/2/31 66/2/31
f 57/2/32 64/2/32 73/2/32 67/2/32
f 63/2/33 62/2/33 71/2/33 72/2/33
f 61/2/34 60/2/34 69/2/34 70/2/34
f 76/3/35 65/3/35 77/3/35 79/3/35
f 75/3/35 76/3/35 79/3/35 78/3/35
f 85/1/36 93/1/36 95/1/36 87/1/36
f 82/1/37 90/1/37 89/1/37 81/1/37
f 86/1/1 94/1/1 92/1/1 84/1/1
f 81/1/2 89/1/2 88/1/2 80/1/2
f 80/1/38 88/1/38 93/1/38 85/1/38
f 84/1/39 92/1/39 91/1/39 83/1/39
f 87/1/40 95/1/40 94/1/40 86/1/40
f 83/1/41 91/1/41 90/1/41 82/1/41
f 85/1/38 101/1/38 96/1/38 80/1/38
f 83/1/39 99/1/39 100/1/39 84/1/39
f 86/1/40 102/1/40 103/1/40 87/1/40
f 82/1/41 98/1/41 99/1/41 83/1/41
f 87/1/36 103/1/36 101/1/36 85/1/36
f 81/1/37 97/1/37 98/1/37 82/1/37
f 84/1/1 100/1/1 102/1/1 86/1/1
f 80/1/2 96/1/2 97/1/2 81/1/2
f 111/1/41 109/1/41 117/1/41 119/1/41
f 104/1/40 107/1/40 115/1/40 112/1/40
f 108/1/2 110/1/2 118/1/2 116/1/2
f 107/1/1 106/1/1 114/1/1 115/1/1
f 106/1/39 111/1/39 119/1/39 114/1/39
f 110/1/38 105/1/38 113/1/38 118/1/38
f 109/1/37 108/1/37 116/1/37 117/1/37
f 105/1/36 104/1/36 112/1/36 113/1/36
f 111/1/39 106/1/39 122/1/39 127/1/39
f 105/1/38 110/1/38 126/1/38 121/1/38
f 108/1/37 109/1/37 125/1/37 124/1/37
f 104/1/36 105/1/36 121/1/36 120/1/36
f 109/1/41 111/1/41 127/1/41 125/1/41
f 107/1/40 104/1/40 120/1/40 123/1/40
f 110/1/2 108/1/2 124/1/2 126/1/2
f 106/1/1 107/1/1 123/1/1 122/1/1
f 97/1/35 96/1/35 122/1/35 123/1/35
f 92/1/42 94/1/42 116/1/42 118/1/42
f 103/1/35 102/1/35 124/1/35 125/1/35
f 91/1/42 92/1/42 118/1/42 113/1/42
f 102/1/35 100/1/35 126/1/35 124/1/35
f 89/1/42 90/1/42 112/1/42 115/1/42
f 100/1/35 99/1/35 121/1/35 126/1/35
f 93/1/42 88/1/42 114/1/42 119/1/42
f 98/1/35 97/1/35 123/1/35 120/1/35
f 95/1/42 93/1/42 119/1/42 117/1/42
f 96/1/35 101/1/35 127/1/35 122/1/35
f 90/1/42 91/1/42 113/1/42 112/1/42
f 101/1/35 103/1/35 125/1/35 127/1/35
f 88/1/42 89/1/42 115/1/42 114/1/42
f 99/1/35 98/1/35 120/1/35 121/1/35
f 94/1/42 95/1/42 117/1/42 116/1/42
f 130/3/36 128/3/36 131/3/36 133/3/36
f 129/3/36 130/3/36 133/3/36 132/3/36
