{
	"asset":{
		"generator":"Khronos glTF Blender I/O v4.4.55",
		"version":"2.0"
	},
	"scene":0,
	"scenes":[
		{
			"name":"Scene",
			"nodes":[
				0
			]
		}
	],
	"nodes":[
		{
			"mesh":0,
			"name":"candle_336x12"
		}
	],
	"materials":[
		{
			"doubleSided":true,
			"name":"336Light",
			"pbrMetallicRoughness":{
				"baseColorTexture":{
					"index":0
				},
				"metallicFactor":0,
				"roughnessFactor":0.5
			}
		},
		{
			"alphaMode":"BLEND",
			"doubleSided":true,
			"name":"glass",
			"pbrMetallicRoughness":{
				"baseColorFactor":[
					1,
					1,
					1,
					0.2772729992866516
				],
				"baseColorTexture":{
					"index":1
				},
				"metallicFactor":0,
				"roughnessFactor":0.5
			}
		}
	],
	"meshes":[
		{
			"name":"candle_336x12",
			"primitives":[
				{
					"attributes":{
						"POSITION":0,
						"NORMAL":1,
						"TEXCOORD_0":2
					},
					"indices":3,
					"material":0
				},
				{
					"attributes":{
						"POSITION":4,
						"NORMAL":5,
						"TEXCOORD_0":6
					},
					"indices":7,
					"material":1
				}
			]
		}
	],
	"textures":[
		{
			"sampler":0,
			"source":0
		},
		{
			"sampler":1,
			"source":0
		}
	],
	"images":[
		{
			"mimeType":"image/png",
			"name":"336light_source",
			"uri":"336light_source.png"
		}
	],
	"accessors":[
		{
			"bufferView":0,
			"componentType":5126,
			"count":494,
			"max":[
				0.23111069202423096,
				1.9462401866912842,
				0.2379540055990219
			],
			"min":[
				-0.22269728779792786,
				-0.005196010693907738,
				-0.23887500166893005
			],
			"type":"VEC3"
		},
		{
			"bufferView":1,
			"componentType":5126,
			"count":494,
			"type":"VEC3"
		},
		{
			"bufferView":2,
			"componentType":5126,
			"count":494,
			"type":"VEC2"
		},
		{
			"bufferView":3,
			"componentType":5123,
			"count":756,
			"type":"SCALAR"
		},
		{
			"bufferView":4,
			"componentType":5126,
			"count":168,
			"max":[
				0.1922599822282791,
				2.3491275310516357,
				0.2004062682390213
			],
			"min":[
				-0.18790403008460999,
				1.6660709381103516,
				-0.2006087452173233
			],
			"type":"VEC3"
		},
		{
			"bufferView":5,
			"componentType":5126,
			"count":168,
			"type":"VEC3"
		},
		{
			"bufferView":6,
			"componentType":5126,
			"count":168,
			"type":"VEC2"
		},
		{
			"bufferView":7,
			"componentType":5123,
			"count":258,
			"type":"SCALAR"
		}
	],
	"bufferViews":[
		{
			"buffer":0,
			"byteLength":5928,
			"byteOffset":0,
			"target":34962
		},
		{
			"buffer":0,
			"byteLength":5928,
			"byteOffset":5928,
			"target":34962
		},
		{
			"buffer":0,
			"byteLength":3952,
			"byteOffset":11856,
			"target":34962
		},
		{
			"buffer":0,
			"byteLength":1512,
			"byteOffset":15808,
			"target":34963
		},
		{
			"buffer":0,
			"byteLength":2016,
			"byteOffset":17320,
			"target":34962
		},
		{
			"buffer":0,
			"byteLength":2016,
			"byteOffset":19336,
			"target":34962
		},
		{
			"buffer":0,
			"byteLength":1344,
			"byteOffset":21352,
			"target":34962
		},
		{
			"buffer":0,
			"byteLength":516,
			"byteOffset":22696,
			"target":34963
		}
	],
	"samplers":[
		{
			"magFilter":9728,
			"minFilter":9984,
			"wrapS":33071,
			"wrapT":33071
		},
		{
			"magFilter":9728,
			"minFilter":9984
		}
	],
	"buffers":[
		{
			"byteLength":23212,
			"uri":"candle_336x12.bin"
		}
	]
}
