# Blender 4.4.0
# www.blender.org
mtllib candle_338x00.mtl
o Candle_338x0
v 0.000473 1.059185 0.023045
v 0.000473 0.949011 0.023045
v 0.000473 1.059185 -0.019936
v 0.000473 0.949011 -0.019936
v 0.021963 1.059185 0.001554
v 0.021963 0.949011 0.001554
v -0.021018 1.059185 0.001554
v -0.021018 0.949011 0.001554
v 0.015611 1.238235 0.003645
v 0.007770 1.273156 -0.002934
v 0.000391 1.273758 -0.009126
v -0.012062 1.231010 -0.019575
v -0.022670 1.158761 -0.028477
v -0.027283 1.092532 -0.032347
v -0.022670 1.018477 -0.028477
v -0.016839 0.998828 -0.023584
v -0.024493 0.998828 -0.002556
v -0.032105 1.018477 -0.002556
v -0.038126 1.092532 -0.002556
v -0.032105 1.158761 -0.002556
v -0.018258 1.231010 -0.002556
v -0.002001 1.273758 -0.002556
v 0.007632 1.273156 -0.002556
v 0.017867 1.238235 -0.002556
v 0.027500 1.182844 -0.002556
v 0.042552 1.120228 -0.002556
v 0.049777 1.090124 -0.002556
v 0.051584 1.063633 -0.002556
v 0.045563 1.032325 -0.002556
v 0.037143 1.010258 -0.002556
v 0.033715 1.004007 -0.002556
v 0.024440 0.997151 -0.002556
v 0.013350 1.012476 -0.002556
v 0.003873 1.025179 -0.002556
v -0.001773 1.026993 -0.002556
v -0.013669 1.012677 -0.002556
v -0.019792 0.998776 -0.002556
v -0.024493 0.998828 -0.002556
v -0.032105 1.018477 -0.002556
v -0.038126 1.092532 -0.002556
v -0.032105 1.158761 -0.002556
v -0.018258 1.231010 -0.002556
v -0.002001 1.273758 -0.002556
v 0.007632 1.273156 -0.002556
v 0.017867 1.238235 -0.002556
v 0.027500 1.182844 -0.002556
v 0.042552 1.120228 -0.002556
v 0.049777 1.090124 -0.002556
v 0.051584 1.063633 -0.002556
v 0.045563 1.032325 -0.002556
v 0.037143 1.010258 -0.002556
v 0.033715 1.004007 -0.002556
v 0.024440 0.997151 -0.002556
v 0.013350 1.012476 -0.002556
v 0.003873 1.025179 -0.002556
v -0.001773 1.026993 -0.002556
v -0.013669 1.012677 -0.002556
v -0.019792 0.998776 -0.002556
v 0.022990 1.182844 0.009837
v 0.034521 1.120228 0.019512
v 0.040055 1.090124 0.024157
v 0.041439 1.063633 0.025318
v 0.036827 1.032325 0.021447
v 0.030377 1.010258 0.016035
v 0.027751 1.004007 0.013832
v 0.020646 0.997151 0.007870
v 0.012150 1.012476 0.000741
v 0.004890 1.025179 -0.005350
v 0.000566 1.026993 -0.008979
v -0.008548 1.012677 -0.016626
v -0.013238 0.998776 -0.020562
v -0.003225 1.238235 0.005799
v 0.001893 1.273156 -0.003065
v 0.006710 1.273758 -0.011407
v 0.014838 1.231010 -0.025486
v 0.021762 1.158761 -0.037478
v 0.024772 1.092532 -0.042692
v 0.021762 1.018477 -0.037478
v 0.017956 0.998828 -0.030886
v -0.008041 1.182844 0.014142
v -0.015567 1.120228 0.027177
v -0.019180 1.090124 0.033434
v -0.020083 1.063633 0.034999
v -0.017072 1.032325 0.029784
v -0.012862 1.010258 0.022492
v -0.011148 1.004007 0.019524
v -0.006511 0.997151 0.011491
v -0.000966 1.012476 0.001887
v 0.003773 1.025179 -0.006320
v 0.006596 1.026993 -0.011210
v 0.012544 1.012677 -0.021512
v 0.015605 0.998776 -0.026815
v -0.001491 0.008124 -0.111591
v -0.001491 0.948721 -0.111591
v 0.075308 0.008124 -0.078961
v 0.075308 0.948721 -0.078961
v 0.107120 0.008124 -0.000185
v 0.107120 0.948721 -0.000185
v 0.075308 0.008124 0.078591
v 0.075308 0.948721 0.078591
v -0.001491 0.008124 0.111221
v -0.001491 0.948721 0.111221
v -0.078291 0.008124 0.078591
v -0.078291 0.948721 0.078591
v -0.110103 0.008124 -0.000185
v -0.110103 0.948721 -0.000185
v -0.078291 0.008124 -0.078961
v -0.078291 0.948721 -0.078961
vn 1.0000 -0.0000 -0.0000
vn -0.0000 -0.0000 -1.0000
vn -0.8660 -0.0000 -0.5000
vn -0.6428 -0.0000 0.7660
vn -0.0000 -0.0000 1.0000
vn -0.6428 -0.0000 0.7661
vn 0.3910 -0.0000 -0.9204
vn 0.9272 -0.0000 -0.3744
vn 0.9272 -0.0000 0.3744
vn 0.3910 -0.0000 0.9204
vn -0.3910 -0.0000 0.9204
vn -0.9272 -0.0000 0.3744
vn -0.0000 1.0000 -0.0000
vn -0.9272 -0.0000 -0.3744
vn -0.3910 -0.0000 -0.9204
vn -0.0000 -1.0000 -0.0000
vt 0.064266 0.975365
vt 0.062078 0.983922
vt 0.062078 0.975365
vt 0.418300 0.719982
vt 0.421226 0.722011
vt 0.416698 0.722340
vt 0.536146 0.665065
vt 0.540422 0.668556
vt 0.533131 0.668689
vt 0.416698 0.719774
vt 0.417008 0.719076
vt 0.417625 0.719523
vt 0.417251 0.719061
vt 0.418305 0.727052
vt 0.417287 0.724604
vt 0.420465 0.725266
vt 0.420980 0.723068
vt 0.419819 0.728431
vt 0.419324 0.728478
vt 0.420201 0.727200
vt 0.421209 0.721094
vt 0.420766 0.720033
vt 0.418584 0.719904
vt 0.420036 0.719092
vt 0.420239 0.719297
vt 0.419020 0.719440
vt 0.419528 0.718882
vt 0.533631 0.664594
vt 0.534262 0.663508
vt 0.535160 0.664274
vt 0.534652 0.663505
vt 0.534779 0.676347
vt 0.533631 0.672352
vt 0.538574 0.673683
vt 0.539823 0.670221
vt 0.536926 0.678677
vt 0.536127 0.678711
vt 0.537775 0.676746
vt 0.540571 0.667091
vt 0.540072 0.665360
vt 0.536614 0.664965
vt 0.539090 0.663794
vt 0.539374 0.664140
vt 0.537400 0.664263
vt 0.538320 0.663415
vt 0.024836 0.944739
vt 0.026466 0.943035
vt 0.029972 0.943374
vt 0.030648 0.939262
vt 0.029972 0.935150
vt 0.026466 0.934812
vt 0.024836 0.933109
vt 0.025615 0.926503
vt 0.023986 0.928207
vt 0.023812 0.926289
vt 0.023137 0.930401
vt 0.017830 0.943225
vt 0.018812 0.938602
vt 0.020827 0.936975
vt 0.024168 0.924158
vt 0.024843 0.928270
vt 0.023206 0.943035
vt 0.030997 0.908925
vt 0.028751 0.913611
vt 0.029525 0.915858
vt 0.064266 0.983922
vt 0.020754 0.938950
vt 0.019845 0.941598
vt 0.018635 0.943369
vt 0.017904 0.941250
vt 0.020023 0.936831
vt 0.030809 0.913980
vt 0.031772 0.911172
vt 0.031850 0.909078
vt 0.029714 0.910803
vt 0.028673 0.915705
s 0
usemtl 336Light
f 2/1/1 3/2/1 1/3/1
f 6/1/2 7/2/2 5/3/2
f 90/4/3 82/5/3 77/6/3
f 69/4/4 61/5/4 14/6/4
f 35/7/5 27/8/5 19/9/5
f 56/4/5 48/5/5 40/6/5
f 77/6/3 78/10/3 90/4/3
f 78/10/3 79/11/3 91/12/3
f 79/11/3 92/13/3 91/12/3
f 78/10/3 91/12/3 90/4/3
f 75/14/3 76/15/3 80/16/3
f 76/15/3 77/6/3 81/17/3
f 80/16/3 76/15/3 81/17/3
f 73/18/3 74/19/3 72/20/3
f 74/19/3 75/14/3 72/20/3
f 80/16/3 72/20/3 75/14/3
f 82/5/3 81/17/3 77/6/3
f 82/5/3 90/4/3 83/21/3
f 84/22/3 83/21/3 89/23/3
f 89/23/3 83/21/3 90/4/3
f 86/24/3 85/25/3 88/26/3
f 85/25/3 84/22/3 88/26/3
f 88/26/3 87/27/3 86/24/3
f 89/23/3 88/26/3 84/22/3
f 14/6/4 15/10/4 69/4/4
f 15/10/4 16/11/4 70/12/4
f 16/11/6 71/13/6 70/12/6
f 15/10/4 70/12/4 69/4/4
f 12/14/4 13/15/4 59/16/4
f 13/15/4 14/6/4 60/17/4
f 59/16/4 13/15/4 60/17/4
f 10/18/4 11/19/4 9/20/4
f 11/19/4 12/14/4 9/20/4
f 59/16/4 9/20/4 12/14/4
f 61/5/4 60/17/4 14/6/4
f 61/5/4 69/4/4 62/21/4
f 63/22/4 62/21/4 68/23/4
f 68/23/6 62/21/6 69/4/6
f 65/24/4 64/25/4 67/26/4
f 64/25/4 63/22/4 67/26/4
f 67/26/4 66/27/4 65/24/4
f 68/23/4 67/26/4 63/22/4
f 19/9/5 18/28/5 35/7/5
f 18/28/5 17/29/5 36/30/5
f 17/29/5 37/31/5 36/30/5
f 18/28/5 36/30/5 35/7/5
f 21/32/5 20/33/5 25/34/5
f 20/33/5 19/9/5 26/35/5
f 25/34/5 20/33/5 26/35/5
f 23/36/5 22/37/5 24/38/5
f 22/37/5 21/32/5 24/38/5
f 25/34/5 24/38/5 21/32/5
f 27/8/5 26/35/5 19/9/5
f 27/8/5 35/7/5 28/39/5
f 29/40/5 28/39/5 34/41/5
f 34/41/5 28/39/5 35/7/5
f 31/42/5 30/43/5 33/44/5
f 30/43/5 29/40/5 33/44/5
f 33/44/5 32/45/5 31/42/5
f 34/41/5 33/44/5 29/40/5
f 40/6/5 39/10/5 56/4/5
f 39/10/5 38/11/5 57/12/5
f 38/11/5 58/13/5 57/12/5
f 39/10/5 57/12/5 56/4/5
f 42/14/5 41/15/5 46/16/5
f 41/15/5 40/6/5 47/17/5
f 46/16/5 41/15/5 47/17/5
f 44/18/5 43/19/5 45/20/5
f 43/19/5 42/14/5 45/20/5
f 46/16/5 45/20/5 42/14/5
f 48/5/5 47/17/5 40/6/5
f 48/5/5 56/4/5 49/21/5
f 50/22/5 49/21/5 55/23/5
f 55/23/5 49/21/5 56/4/5
f 52/24/5 51/25/5 54/26/5
f 51/25/5 50/22/5 54/26/5
f 54/26/5 53/27/5 52/24/5
f 55/23/5 54/26/5 50/22/5
f 94/46/7 95/47/7 93/46/7
f 96/48/8 97/49/8 95/48/8
f 98/49/9 99/50/9 97/49/9
f 100/51/10 101/52/10 99/51/10
f 102/53/11 103/54/11 101/53/11
f 104/55/12 105/56/12 103/55/12
f 106/57/13 102/58/13 98/59/13
f 106/60/14 107/61/14 105/60/14
f 108/62/15 93/46/15 107/62/15
f 99/63/16 103/64/16 107/65/16
f 2/1/1 4/66/1 3/2/1
f 6/1/2 8/66/2 7/2/2
f 94/46/7 96/47/7 95/47/7
f 96/48/8 98/49/8 97/49/8
f 98/49/9 100/50/9 99/50/9
f 100/51/10 102/52/10 101/52/10
f 102/53/11 104/54/11 103/54/11
f 104/55/12 106/56/12 105/56/12
f 98/59/13 96/67/13 94/68/13
f 94/68/13 108/69/13 106/57/13
f 106/57/13 104/70/13 102/58/13
f 102/58/13 100/71/13 98/59/13
f 98/59/13 94/68/13 106/57/13
f 106/60/14 108/61/14 107/61/14
f 108/62/15 94/46/15 93/46/15
f 107/65/16 93/72/16 95/73/16
f 95/73/16 97/74/16 99/63/16
f 99/63/16 101/75/16 103/64/16
f 103/64/16 105/76/16 107/65/16
f 107/65/16 95/73/16 99/63/16
