{
	"asset":{
		"generator":"Khronos glTF Blender I/O v4.4.55",
		"version":"2.0"
	},
	"scene":0,
	"scenes":[
		{
			"name":"Scene",
			"nodes":[
				0
			]
		}
	],
	"nodes":[
		{
			"mesh":0,
			"name":"candle_338x05"
		}
	],
	"materials":[
		{
			"alphaMode":"BLEND",
			"doubleSided":true,
			"name":"336Light",
			"pbrMetallicRoughness":{
				"baseColorTexture":{
					"index":0
				},
				"metallicFactor":0,
				"roughnessFactor":0.5
			}
		}
	],
	"meshes":[
		{
			"name":"candle_336x04.004",
			"primitives":[
				{
					"attributes":{
						"POSITION":0,
						"NORMAL":1,
						"TEXCOORD_0":2
					},
					"indices":3,
					"material":0
				}
			]
		}
	],
	"textures":[
		{
			"sampler":0,
			"source":0
		}
	],
	"images":[
		{
			"mimeType":"image/png",
			"name":"336light_source",
			"uri":"336light_source.png"
		}
	],
	"accessors":[
		{
			"bufferView":0,
			"componentType":5126,
			"count":1433,
			"max":[
				0.16293489933013916,
				2.2769217491149902,
				0.6595515608787537
			],
			"min":[
				-0.15596921741962433,
				0.0030119309667497873,
				-0.6358334422111511
			],
			"type":"VEC3"
		},
		{
			"bufferView":1,
			"componentType":5126,
			"count":1433,
			"type":"VEC3"
		},
		{
			"bufferView":2,
			"componentType":5126,
			"count":1433,
			"type":"VEC2"
		},
		{
			"bufferView":3,
			"componentType":5123,
			"count":2880,
			"type":"SCALAR"
		}
	],
	"bufferViews":[
		{
			"buffer":0,
			"byteLength":17196,
			"byteOffset":0,
			"target":34962
		},
		{
			"buffer":0,
			"byteLength":17196,
			"byteOffset":17196,
			"target":34962
		},
		{
			"buffer":0,
			"byteLength":11464,
			"byteOffset":34392,
			"target":34962
		},
		{
			"buffer":0,
			"byteLength":5760,
			"byteOffset":45856,
			"target":34963
		}
	],
	"samplers":[
		{
			"magFilter":9728,
			"minFilter":9984
		}
	],
	"buffers":[
		{
			"byteLength":51616,
			"uri":"candle_338x05.bin"
		}
	]
}
