# Blender 4.4.0
# www.blender.org
mtllib candle_336x13.mtl
o Candle_336x13
v -0.000000 1.413811 -0.075197
v -0.000000 1.942753 -0.075197
v 0.051838 1.413811 -0.053172
v 0.051838 1.942753 -0.053172
v 0.073310 1.413811 -0.000000
v 0.073310 1.942753 -0.000000
v 0.051838 1.413811 0.053172
v 0.051838 1.942753 0.053172
v -0.000000 1.413811 0.075196
v -0.000000 1.942753 0.075196
v -0.051838 1.413811 0.053172
v -0.051838 1.942753 0.053172
v -0.073310 1.413811 -0.000000
v -0.073310 1.942753 -0.000000
v -0.051838 1.413811 -0.053172
v -0.051838 1.942753 -0.053172
v 0.000348 2.015396 0.015185
v 0.000348 1.943433 0.015185
v 0.000348 2.015396 -0.012889
v 0.000348 1.943433 -0.012889
v 0.014385 2.015396 0.001148
v 0.014385 1.943433 0.001148
v -0.013689 2.015396 0.001148
v -0.013689 1.943433 0.001148
v -0.000000 1.380792 -0.075197
v 0.051838 1.380792 -0.053172
v 0.073310 1.380792 -0.000000
v 0.051838 1.380792 0.053172
v -0.000000 1.380792 0.075196
v -0.051838 1.380792 0.053172
v -0.073310 1.380792 -0.000000
v -0.051838 1.380792 -0.053172
v -0.000000 1.369033 -0.174520
v 0.120308 1.369033 -0.123404
v 0.170142 1.369033 -0.000000
v 0.120308 1.369033 0.123404
v -0.000000 1.369033 0.174519
v -0.120308 1.369033 0.123404
v -0.170142 1.369033 -0.000000
v -0.120308 1.369033 -0.123404
v -0.000000 1.421700 -0.174520
v 0.120308 1.421700 -0.123404
v 0.170142 1.421700 -0.000000
v 0.120308 1.421700 0.123404
v -0.000000 1.421700 0.174519
v -0.120308 1.421700 0.123404
v -0.170142 1.421700 -0.000000
v -0.120308 1.421700 -0.123404
v -0.000000 1.421700 -0.191060
v 0.131710 1.421700 -0.135100
v 0.186267 1.421700 -0.000000
v 0.131710 1.421700 0.135099
v -0.000000 1.421700 0.191059
v -0.131711 1.421700 0.135099
v -0.186267 1.421700 -0.000000
v -0.131711 1.421700 -0.135100
v -0.000000 1.338310 -0.178447
v 0.123016 1.338310 -0.126181
v 0.173970 1.338310 -0.000000
v 0.123016 1.338310 0.126181
v -0.000000 1.338310 0.178447
v -0.123016 1.338310 0.126181
v -0.173971 1.338310 -0.000000
v -0.123016 1.338310 -0.126181
v -0.000000 1.294420 -0.043296
v 0.029847 1.294420 -0.030615
v 0.042210 1.294420 -0.000000
v 0.029847 1.294420 0.030615
v -0.000000 1.294420 0.043296
v -0.029847 1.294420 0.030615
v -0.042210 1.294420 -0.000000
v -0.029847 1.294420 -0.030615
v -0.000000 0.063282 -0.043296
v 0.029847 0.063282 -0.030615
v 0.042210 0.063282 -0.000000
v 0.029847 0.063282 0.030615
v -0.000000 0.063282 0.043296
v -0.029847 0.063282 0.030615
v -0.042210 0.063282 -0.000000
v -0.029847 0.063282 -0.030615
v -0.000000 0.063282 -0.061746
v 0.042565 0.063282 -0.043661
v 0.060196 0.063282 -0.000000
v 0.042565 0.063282 0.043660
v -0.000000 0.063282 0.061745
v -0.042565 0.063282 0.043660
v -0.060197 0.063282 -0.000000
v -0.042565 0.063282 -0.043661
v -0.000000 0.034022 -0.137331
v 0.094671 0.034022 -0.097107
v 0.133885 0.034022 -0.000000
v 0.094671 0.034022 0.097107
v -0.000000 0.034022 0.137330
v -0.094672 0.034022 0.097107
v -0.133886 0.034022 -0.000000
v -0.094672 0.034022 -0.097107
v -0.000000 -0.002553 -0.137331
v 0.094671 -0.002553 -0.097107
v 0.133885 -0.002553 -0.000000
v 0.094671 -0.002553 0.097107
v -0.000000 -0.002553 0.137330
v -0.094672 -0.002553 0.097107
v -0.133886 -0.002553 -0.000000
v -0.094672 -0.002553 -0.097107
vn 0.3910 -0.0000 -0.9204
vn 0.9272 -0.0000 -0.3744
vn 0.9272 -0.0000 0.3744
vn 0.3910 -0.0000 0.9204
vn -0.3910 -0.0000 0.9204
vn -0.9272 -0.0000 0.3744
vn -0.0000 1.0000 -0.0000
vn -0.9272 -0.0000 -0.3744
vn -0.3910 -0.0000 -0.9204
vn 1.0000 -0.0000 -0.0000
vn -0.0000 -0.0000 -1.0000
vn -0.1204 0.9915 0.0486
vn 0.9273 -0.0000 0.3744
vn -0.9273 -0.0000 0.3744
vn 0.0499 0.9918 0.1174
vn 0.1204 0.9915 -0.0486
vn -0.1204 0.9915 -0.0486
vn -0.0499 0.9918 0.1174
vn 0.1204 0.9915 0.0486
vn 0.0499 0.9918 -0.1174
vn -0.0499 0.9918 -0.1174
vn -0.9273 -0.0000 -0.3744
vn 0.9187 -0.1355 -0.3710
vn -0.1301 -0.9430 -0.3062
vn -0.9187 -0.1355 -0.3710
vn -0.3873 -0.1379 0.9116
vn 0.9187 -0.1355 0.3710
vn 0.3873 -0.1379 -0.9116
vn -0.3873 -0.1379 -0.9116
vn -0.9187 -0.1355 0.3710
vn 0.3873 -0.1379 0.9116
vn -0.3135 -0.9411 0.1266
vn 0.1301 -0.9430 0.3062
vn 0.3135 -0.9411 -0.1266
vn -0.3135 -0.9411 -0.1266
vn -0.1301 -0.9430 0.3062
vn 0.3135 -0.9411 0.1266
vn 0.1301 -0.9430 -0.3062
vn 0.1516 0.9218 0.3568
vn 0.3650 0.9193 -0.1474
vn -0.3650 0.9193 -0.1474
vn -0.1516 0.9218 0.3568
vn 0.3650 0.9193 0.1474
vn 0.1516 0.9218 -0.3568
vn -0.1516 0.9218 -0.3568
vn -0.3650 0.9193 0.1474
vn -0.0000 -1.0000 -0.0000
vt 0.023254 0.955900
vt 0.024884 0.954197
vt 0.025559 0.950086
vt 0.027141 0.938924
vt 0.026466 0.934812
vt 0.026124 0.935378
vt 0.024777 0.933971
vt 0.020779 0.936491
vt 0.019149 0.938194
vt 0.018474 0.942306
vt 0.023167 0.943987
vt 0.024456 0.937921
vt 0.027099 0.935787
vt 0.022872 0.938776
vt 0.023430 0.942173
vt 0.023206 0.943035
vt 0.024836 0.944739
vt 0.019885 0.921320
vt 0.019209 0.925432
vt 0.064266 0.975365
vt 0.062078 0.983922
vt 0.062078 0.975365
vt 0.639020 0.395242
vt 0.638600 0.397803
vt 0.018846 0.924344
vt 0.020476 0.922641
vt 0.019118 0.931315
vt 0.017488 0.929612
vt 0.017580 0.927135
vt 0.020748 0.921388
vt 0.021423 0.925500
vt 0.018171 0.928456
vt 0.019059 0.920547
vt 0.020406 0.921954
vt 0.017712 0.928750
vt 0.017155 0.925352
vt 0.651361 0.384669
vt 0.650345 0.385730
vt 0.650692 0.383812
vt 0.651707 0.384873
vt 0.635593 0.402781
vt 0.636014 0.400219
vt 0.645897 0.386136
vt 0.645476 0.383575
vt 0.646360 0.383386
vt 0.645345 0.384447
vt 0.655866 0.368679
vt 0.656286 0.371241
vt 0.634578 0.403842
vt 0.633563 0.402781
vt 0.636752 0.402656
vt 0.634506 0.407342
vt 0.635280 0.409589
vt 0.027003 0.938378
vt 0.025811 0.941853
vt 0.024223 0.944176
vt 0.023264 0.941396
vt 0.026044 0.935598
vt 0.064266 0.983922
vt 0.636564 0.407711
vt 0.637527 0.404903
vt 0.637605 0.402809
vt 0.635469 0.404533
vt 0.634428 0.409436
s 0
usemtl 336Light
f 2/1/1 3/2/1 1/1/1
f 4/2/2 5/3/2 3/2/2
f 6/4/3 7/5/3 5/4/3
f 8/6/4 9/7/4 7/6/4
f 10/8/5 11/9/5 9/8/5
f 12/9/6 13/10/6 11/9/6
f 14/11/7 10/12/7 6/13/7
f 14/14/8 15/15/8 13/14/8
f 16/16/9 1/17/9 15/16/9
f 5/18/2 26/19/2 3/19/2
f 18/20/10 19/21/10 17/22/10
f 22/20/11 23/21/11 21/22/11
f 30/23/12 39/24/12 38/23/12
f 11/25/5 29/26/5 9/26/5
f 1/27/9 32/28/9 15/28/9
f 3/19/1 25/29/1 1/29/1
f 7/30/13 27/31/13 5/31/13
f 13/32/14 30/25/14 11/25/14
f 9/33/4 28/34/4 7/34/4
f 15/35/8 31/36/8 13/36/8
f 34/37/5 41/38/5 33/38/5
f 29/39/15 36/40/15 28/40/15
f 26/41/16 35/42/16 34/41/16
f 32/43/17 39/44/17 31/44/17
f 29/45/18 38/46/18 37/45/18
f 28/47/19 35/48/19 27/48/19
f 25/38/20 34/37/20 33/38/20
f 25/49/21 40/50/21 32/50/21
f 48/43/7 55/44/7 47/44/7
f 33/49/4 48/50/4 40/50/4
f 39/24/2 46/23/2 38/23/2
f 37/39/9 44/40/9 36/40/9
f 35/42/6 42/41/6 34/41/6
f 40/43/3 47/44/3 39/44/3
f 38/46/1 45/45/1 37/45/1
f 36/47/22 43/48/22 35/48/22
f 51/42/23 58/41/23 50/41/23
f 45/45/7 54/46/7 53/45/7
f 44/47/7 51/48/7 43/48/7
f 41/38/7 50/37/7 49/38/7
f 41/49/7 56/50/7 48/50/7
f 46/23/7 55/24/7 54/23/7
f 45/39/7 52/40/7 44/40/7
f 42/41/7 51/42/7 50/41/7
f 64/50/24 65/49/24 72/50/24
f 55/44/25 64/43/25 63/44/25
f 54/46/26 61/45/26 53/45/26
f 51/48/27 60/47/27 59/48/27
f 50/37/28 57/38/28 49/38/28
f 56/50/29 57/49/29 64/50/29
f 55/24/30 62/23/30 54/23/30
f 52/40/31 61/39/31 60/40/31
f 67/48/3 76/47/3 75/48/3
f 63/24/32 70/23/32 62/23/32
f 60/40/33 69/39/33 68/40/33
f 59/42/34 66/41/34 58/41/34
f 63/44/35 72/43/35 71/44/35
f 62/46/36 69/45/36 61/45/36
f 59/48/37 68/47/37 67/48/37
f 58/37/38 65/38/38 57/38/38
f 80/43/7 87/44/7 79/44/7
f 66/37/1 73/38/1 65/38/1
f 65/49/9 80/50/9 72/50/9
f 71/24/6 78/23/6 70/23/6
f 69/39/4 76/40/4 68/40/4
f 67/42/2 74/41/2 66/41/2
f 72/43/8 79/44/8 71/44/8
f 70/46/5 77/45/5 69/45/5
f 85/39/39 92/40/39 84/40/39
f 77/45/7 86/46/7 85/45/7
f 76/47/7 83/48/7 75/48/7
f 73/38/7 82/37/7 81/38/7
f 73/49/7 88/50/7 80/50/7
f 78/23/7 87/24/7 86/23/7
f 77/39/7 84/40/7 76/40/7
f 74/41/7 83/42/7 82/41/7
f 89/49/9 104/50/9 96/50/9
f 82/41/40 91/42/40 90/41/40
f 88/43/41 95/44/41 87/44/41
f 85/45/42 94/46/42 93/45/42
f 84/47/43 91/48/43 83/48/43
f 81/38/44 90/37/44 89/38/44
f 81/49/45 96/50/45 88/50/45
f 86/23/46 95/24/46 94/23/46
f 100/51/47 102/52/47 104/53/47
f 95/24/6 102/23/6 94/23/6
f 93/39/4 100/40/4 92/40/4
f 91/42/2 98/41/2 90/41/2
f 96/43/8 103/44/8 95/44/8
f 94/46/5 101/45/5 93/45/5
f 92/47/3 99/48/3 91/48/3
f 90/37/1 97/38/1 89/38/1
f 2/1/1 4/2/1 3/2/1
f 4/2/2 6/3/2 5/3/2
f 6/4/3 8/5/3 7/5/3
f 8/6/4 10/7/4 9/7/4
f 10/8/5 12/9/5 11/9/5
f 12/9/6 14/10/6 13/10/6
f 6/13/7 4/54/7 2/55/7
f 2/55/7 16/56/7 14/11/7
f 14/11/7 12/57/7 10/12/7
f 10/12/7 8/58/7 6/13/7
f 6/13/7 2/55/7 14/11/7
f 14/14/8 16/15/8 15/15/8
f 16/16/9 2/17/9 1/17/9
f 5/18/2 27/18/2 26/19/2
f 18/20/10 20/59/10 19/21/10
f 22/20/11 24/59/11 23/21/11
f 30/23/12 31/24/12 39/24/12
f 11/25/5 30/25/5 29/26/5
f 1/27/9 25/27/9 32/28/9
f 3/19/1 26/19/1 25/29/1
f 7/30/3 28/30/3 27/31/3
f 13/32/6 31/32/6 30/25/6
f 9/33/4 29/33/4 28/34/4
f 15/35/8 32/35/8 31/36/8
f 34/37/5 42/37/5 41/38/5
f 29/39/15 37/39/15 36/40/15
f 26/41/16 27/42/16 35/42/16
f 32/43/17 40/43/17 39/44/17
f 29/45/18 30/46/18 38/46/18
f 28/47/19 36/47/19 35/48/19
f 25/38/20 26/37/20 34/37/20
f 25/49/21 33/49/21 40/50/21
f 48/43/7 56/43/7 55/44/7
f 33/49/4 41/49/4 48/50/4
f 39/24/2 47/24/2 46/23/2
f 37/39/9 45/39/9 44/40/9
f 35/42/6 43/42/6 42/41/6
f 40/43/3 48/43/3 47/44/3
f 38/46/1 46/46/1 45/45/1
f 36/47/8 44/47/8 43/48/8
f 51/42/23 59/42/23 58/41/23
f 45/45/7 46/46/7 54/46/7
f 44/47/7 52/47/7 51/48/7
f 41/38/7 42/37/7 50/37/7
f 41/49/7 49/49/7 56/50/7
f 46/23/7 47/24/7 55/24/7
f 45/39/7 53/39/7 52/40/7
f 42/41/7 43/42/7 51/42/7
f 64/50/24 57/49/24 65/49/24
f 55/44/25 56/43/25 64/43/25
f 54/46/26 62/46/26 61/45/26
f 51/48/27 52/47/27 60/47/27
f 50/37/28 58/37/28 57/38/28
f 56/50/29 49/49/29 57/49/29
f 55/24/30 63/24/30 62/23/30
f 52/40/31 53/39/31 61/39/31
f 67/48/3 68/47/3 76/47/3
f 63/24/32 71/24/32 70/23/32
f 60/40/33 61/39/33 69/39/33
f 59/42/34 67/42/34 66/41/34
f 63/44/35 64/43/35 72/43/35
f 62/46/36 70/46/36 69/45/36
f 59/48/37 60/47/37 68/47/37
f 58/37/38 66/37/38 65/38/38
f 80/43/7 88/43/7 87/44/7
f 66/37/1 74/37/1 73/38/1
f 65/49/9 73/49/9 80/50/9
f 71/24/6 79/24/6 78/23/6
f 69/39/4 77/39/4 76/40/4
f 67/42/2 75/42/2 74/41/2
f 72/43/8 80/43/8 79/44/8
f 70/46/5 78/46/5 77/45/5
f 85/39/39 93/39/39 92/40/39
f 77/45/7 78/46/7 86/46/7
f 76/47/7 84/47/7 83/48/7
f 73/38/7 74/37/7 82/37/7
f 73/49/7 81/49/7 88/50/7
f 78/23/7 79/24/7 87/24/7
f 77/39/7 85/39/7 84/40/7
f 74/41/7 75/42/7 83/42/7
f 89/49/9 97/49/9 104/50/9
f 82/41/40 83/42/40 91/42/40
f 88/43/41 96/43/41 95/44/41
f 85/45/42 86/46/42 94/46/42
f 84/47/43 92/47/43 91/48/43
f 81/38/44 82/37/44 90/37/44
f 81/49/45 89/49/45 96/50/45
f 86/23/46 87/24/46 95/24/46
f 104/53/47 97/60/47 98/61/47
f 98/61/47 99/62/47 100/51/47
f 100/51/47 101/63/47 102/52/47
f 102/52/47 103/64/47 104/53/47
f 104/53/47 98/61/47 100/51/47
f 95/24/6 103/24/6 102/23/6
f 93/39/4 101/39/4 100/40/4
f 91/42/2 99/42/2 98/41/2
f 96/43/8 104/43/8 103/44/8
f 94/46/5 102/46/5 101/45/5
f 92/47/3 100/47/3 99/48/3
f 90/37/1 98/37/1 97/38/1
