# Blender 4.4.0
# www.blender.org
mtllib Candle_338x12.mtl
o Candle_338x12
v 0.025439 1.982468 0.006346
v 0.017598 2.017388 -0.000233
v 0.010219 2.017990 -0.006425
v -0.002234 1.975242 -0.016874
v -0.012842 1.902993 -0.025775
v -0.017454 1.836764 -0.029645
v -0.012842 1.762709 -0.025775
v -0.007011 1.743060 -0.020882
v -0.014665 1.743060 0.000145
v -0.022277 1.762709 0.000145
v -0.028298 1.836764 0.000145
v -0.022277 1.902993 0.000145
v -0.008429 1.975242 0.000145
v 0.007827 2.017990 0.000145
v 0.017460 2.017388 0.000145
v 0.027695 1.982468 0.000145
v 0.037329 1.927076 0.000145
v 0.052381 1.864460 0.000145
v 0.059606 1.834356 0.000145
v 0.061412 1.807865 0.000145
v 0.055391 1.776557 0.000145
v 0.046971 1.754490 0.000145
v 0.043543 1.748239 0.000145
v 0.034268 1.741383 0.000145
v 0.023178 1.756708 0.000145
v 0.013701 1.769411 0.000145
v 0.008055 1.771225 0.000145
v -0.003841 1.756909 0.000145
v -0.009964 1.743008 0.000145
v -0.014665 1.743060 0.000145
v -0.022277 1.762709 0.000145
v -0.028298 1.836764 0.000145
v -0.022277 1.902993 0.000145
v -0.008429 1.975242 0.000145
v 0.007827 2.017990 0.000145
v 0.017460 2.017388 0.000145
v 0.027695 1.982468 0.000145
v 0.037329 1.927076 0.000145
v 0.052381 1.864460 0.000145
v 0.059606 1.834356 0.000145
v 0.061412 1.807865 0.000145
v 0.055391 1.776557 0.000145
v 0.046971 1.754490 0.000145
v 0.043543 1.748239 0.000145
v 0.034268 1.741383 0.000145
v 0.023178 1.756708 0.000145
v 0.013701 1.769411 0.000145
v 0.008055 1.771225 0.000145
v -0.003841 1.756909 0.000145
v -0.009964 1.743008 0.000145
v 0.032819 1.927076 0.012538
v 0.044349 1.864460 0.022214
v 0.049884 1.834356 0.026858
v 0.051267 1.807865 0.028019
v 0.046655 1.776557 0.024149
v 0.040205 1.754490 0.018736
v 0.037579 1.748239 0.016533
v 0.030474 1.741383 0.010571
v 0.021978 1.756708 0.003443
v 0.014719 1.769411 -0.002649
v 0.010394 1.771225 -0.006278
v 0.001281 1.756909 -0.013925
v -0.003410 1.743008 -0.017861
v 0.006604 1.982468 0.008501
v 0.011721 2.017388 -0.000363
v 0.016538 2.017990 -0.008706
v 0.024666 1.975242 -0.022784
v 0.031590 1.902993 -0.034777
v 0.034600 1.836764 -0.039991
v 0.031590 1.762709 -0.034777
v 0.027784 1.743060 -0.028184
v 0.001787 1.927076 0.016843
v -0.005739 1.864460 0.029879
v -0.009351 1.834356 0.036136
v -0.010255 1.807865 0.037700
v -0.007244 1.776557 0.032486
v -0.003034 1.754490 0.025194
v -0.001320 1.748239 0.022225
v 0.003317 1.741383 0.014192
v 0.008862 1.756708 0.004588
v 0.013601 1.769411 -0.003619
v 0.016424 1.771225 -0.008508
v 0.022372 1.756909 -0.018811
v 0.025433 1.743008 -0.024113
v 0.015839 1.254009 -0.143588
v 0.015839 1.579152 -0.143588
v 0.112024 1.254009 -0.101562
v 0.112024 1.579152 -0.101562
v 0.151865 1.254009 -0.000101
v 0.151865 1.579152 -0.000101
v 0.112024 1.254009 0.101359
v 0.112024 1.579152 0.101359
v 0.015839 1.254009 0.143386
v 0.015839 1.579152 0.143386
v -0.080346 1.254009 0.101359
v -0.080346 1.579152 0.101359
v -0.120188 1.254009 -0.000101
v -0.120188 1.579152 -0.000101
v -0.080346 1.254009 -0.101562
v -0.080346 1.579152 -0.101562
v 0.015839 1.606123 -0.200609
v 0.150247 1.606123 -0.141882
v 0.205921 1.606123 -0.000101
v 0.150247 1.606123 0.141679
v 0.015839 1.606123 0.200406
v -0.118570 1.606123 0.141679
v -0.174243 1.606123 -0.000101
v -0.118570 1.606123 -0.141882
v 0.015839 1.810331 -0.200609
v 0.150247 1.810331 -0.141882
v 0.205921 1.810331 -0.000101
v 0.150247 1.810331 0.141679
v 0.015839 1.810331 0.200406
v -0.118570 1.810331 0.141679
v -0.174243 1.810331 -0.000101
v -0.118570 1.810331 -0.141882
v 0.015839 1.879685 -0.189659
v 0.142907 1.879685 -0.134139
v 0.195540 1.879685 -0.000101
v 0.142907 1.879685 0.133936
v 0.015839 1.879685 0.189457
v -0.111230 1.879685 0.133936
v -0.163863 1.879685 -0.000101
v -0.111230 1.879685 -0.134139
v 0.015838 2.054456 -0.104329
v 0.085707 2.054456 -0.073802
v 0.114647 2.054456 -0.000101
v 0.085707 2.054456 0.073599
v 0.015838 2.054456 0.104127
v -0.054030 2.054456 0.073599
v -0.082970 2.054456 -0.000101
v -0.054030 2.054456 -0.073802
v 0.015839 2.223679 -0.104329
v 0.085707 2.223679 -0.073802
v 0.114647 2.223679 -0.000101
v 0.085707 2.223679 0.073599
v 0.015839 2.223679 0.104127
v -0.054030 2.223679 0.073599
v -0.082970 2.223679 -0.000101
v -0.054030 2.223679 -0.073802
v 0.017035 1.559525 -0.095574
v 0.017035 1.683943 -0.095574
v 0.081034 1.559525 -0.067611
v 0.081034 1.683943 -0.067611
v 0.107544 1.559525 -0.000101
v 0.107544 1.683943 -0.000101
v 0.081034 1.559525 0.067408
v 0.081034 1.683943 0.067408
v 0.017035 1.559525 0.095372
v 0.017035 1.683943 0.095372
v -0.046964 1.559525 0.067408
v -0.046964 1.683943 0.067408
v -0.073473 1.559525 -0.000101
v -0.073473 1.683943 -0.000101
v -0.046964 1.559525 -0.067611
v -0.046964 1.683943 -0.067611
v 0.017796 1.841793 0.033070
v 0.017796 1.684593 0.033070
v 0.017796 1.841793 -0.028257
v 0.017796 1.684593 -0.028257
v 0.048459 1.793905 0.002407
v 0.048459 1.685427 0.002407
v -0.012867 1.793905 0.002407
v -0.012867 1.685427 0.002407
v 0.016234 1.284839 -0.075197
v 0.068072 1.284839 -0.053172
v 0.089544 1.284839 -0.000000
v 0.068072 1.284839 0.053172
v 0.016234 1.284839 0.075196
v -0.035605 1.284839 0.053172
v -0.057077 1.284839 -0.000000
v -0.035605 1.284839 -0.053172
v 0.016234 1.273080 -0.174520
v 0.136542 1.273080 -0.123404
v 0.186375 1.273080 -0.000000
v 0.136542 1.273080 0.123404
v 0.016234 1.273080 0.174519
v -0.104075 1.273080 0.123404
v -0.153908 1.273080 -0.000000
v -0.104075 1.273080 -0.123404
v 0.016234 1.325747 -0.174520
v 0.136542 1.325747 -0.123404
v 0.186375 1.325747 -0.000000
v 0.136542 1.325747 0.123404
v 0.016234 1.325747 0.174519
v -0.104075 1.325747 0.123404
v -0.153908 1.325747 -0.000000
v -0.104075 1.325747 -0.123404
v 0.016234 1.325747 -0.191060
v 0.147944 1.325747 -0.135100
v 0.202500 1.325747 -0.000000
v 0.147944 1.325747 0.135099
v 0.016234 1.325747 0.191059
v -0.115477 1.325747 0.135099
v -0.170033 1.325747 -0.000000
v -0.115477 1.325747 -0.135100
v 0.016234 1.242357 -0.178447
v 0.139249 1.242357 -0.126181
v 0.190204 1.242357 -0.000000
v 0.139249 1.242357 0.126181
v 0.016234 1.242357 0.178447
v -0.106782 1.242357 0.126181
v -0.157737 1.242357 -0.000000
v -0.106782 1.242357 -0.126181
v 0.016234 1.198467 -0.043296
v 0.046080 1.198467 -0.030615
v 0.058443 1.198467 -0.000000
v 0.046080 1.198467 0.030615
v 0.016234 1.198467 0.043296
v -0.013613 1.198467 0.030615
v -0.025976 1.198467 -0.000000
v -0.013613 1.198467 -0.030615
v 0.016234 -0.004609 -0.043296
v 0.046080 -0.004609 -0.030615
v 0.058443 -0.004609 -0.000000
v 0.046080 -0.004609 0.030615
v 0.016234 -0.004609 0.043296
v -0.013613 -0.004609 0.030615
v -0.025976 -0.004609 -0.000000
v -0.013613 -0.004609 -0.030615
v 0.016234 -0.004609 -0.061746
v 0.058799 -0.004609 -0.043661
v 0.076430 -0.004609 -0.000000
v 0.058799 -0.004609 0.043660
v 0.016234 -0.004609 0.061745
v -0.026332 -0.004609 0.043660
v -0.043963 -0.004609 -0.000000
v -0.026332 -0.004609 -0.043661
v 0.016234 -0.033869 -0.137331
v 0.110905 -0.033869 -0.097107
v 0.150119 -0.033869 -0.000000
v 0.110905 -0.033869 0.097107
v 0.016234 -0.033869 0.137330
v -0.078438 -0.033869 0.097107
v -0.117652 -0.033869 -0.000000
v -0.078438 -0.033869 -0.097107
v 0.016234 -0.070443 -0.137331
v 0.110905 -0.070443 -0.097107
v 0.150119 -0.070443 -0.000000
v 0.110905 -0.070443 0.097107
v 0.016234 -0.070443 0.137330
v -0.078438 -0.070443 0.097107
v -0.117652 -0.070443 -0.000000
v -0.078438 -0.070443 -0.097107
vn -0.8660 -0.0000 -0.5000
vn -0.6428 -0.0000 0.7660
vn -0.0000 -0.0000 1.0000
vn 0.4004 -0.0000 -0.9163
vn 0.9308 -0.0000 -0.3655
vn 0.9308 -0.0000 0.3655
vn 0.4004 -0.0000 0.9163
vn -0.4004 -0.0000 0.9163
vn -0.9308 -0.0000 0.3655
vn 0.4398 -0.8814 -0.1727
vn -0.9308 -0.0000 -0.3655
vn -0.4004 -0.0000 -0.9163
vn -0.0000 -1.0000 -0.0000
vn -0.1836 -0.8886 0.4203
vn -0.1836 -0.8886 -0.4203
vn 0.1836 -0.8886 -0.4203
vn 0.4398 -0.8814 0.1727
vn -0.4398 -0.8814 0.1727
vn 0.1836 -0.8886 0.4203
vn -0.4398 -0.8814 -0.1727
vn -0.3963 0.1432 -0.9069
vn -0.3655 0.4084 0.8365
vn -0.9219 0.1380 0.3620
vn 0.3963 0.1432 0.9069
vn 0.9219 0.1380 -0.3620
vn -0.9219 0.1380 -0.3620
vn -0.3963 0.1432 0.9069
vn 0.9219 0.1380 0.3620
vn 0.3963 0.1432 -0.9069
vn 0.8548 0.3957 0.3357
vn 0.3655 0.4084 -0.8365
vn -0.3655 0.4084 -0.8365
vn -0.8548 0.3957 0.3357
vn 0.3655 0.4084 0.8365
vn 0.8548 0.3957 -0.3357
vn -0.8548 0.3957 -0.3357
vn -0.0000 1.0000 -0.0000
vn 1.0000 -0.0000 -0.0000
vn -0.0000 -0.0000 -1.0000
vn -0.1204 0.9915 0.0486
vn -0.3910 -0.0000 0.9204
vn 0.0499 0.9918 0.1174
vn 0.1204 0.9915 -0.0486
vn -0.1204 0.9915 -0.0486
vn -0.0499 0.9918 0.1174
vn 0.1204 0.9915 0.0486
vn 0.0499 0.9918 -0.1174
vn -0.0499 0.9918 -0.1174
vn 0.3910 -0.0000 0.9204
vn 0.9272 -0.0000 -0.3744
vn -0.3910 -0.0000 -0.9204
vn -0.9272 -0.0000 0.3744
vn 0.9272 -0.0000 0.3744
vn 0.3910 -0.0000 -0.9204
vn -0.9272 -0.0000 -0.3744
vn 0.9187 -0.1355 -0.3710
vn -0.1301 -0.9430 -0.3062
vn -0.9187 -0.1355 -0.3710
vn -0.3873 -0.1379 0.9116
vn 0.9187 -0.1355 0.3710
vn 0.3873 -0.1379 -0.9116
vn -0.3873 -0.1379 -0.9116
vn -0.9187 -0.1355 0.3710
vn 0.3873 -0.1379 0.9116
vn -0.3135 -0.9411 0.1266
vn 0.1301 -0.9430 0.3062
vn 0.3135 -0.9411 -0.1266
vn -0.3135 -0.9411 -0.1266
vn -0.1301 -0.9430 0.3062
vn 0.3135 -0.9411 0.1266
vn 0.1301 -0.9430 -0.3062
vn 0.1516 0.9218 0.3568
vn 0.3650 0.9193 -0.1474
vn -0.3650 0.9193 -0.1474
vn -0.1516 0.9218 0.3568
vn 0.3650 0.9193 0.1474
vn 0.1516 0.9218 -0.3568
vn -0.1516 0.9218 -0.3568
vn -0.3650 0.9193 0.1474
vn -0.4397 -0.8814 -0.1727
vt 0.418300 0.719982
vt 0.421226 0.722011
vt 0.416698 0.722340
vt 0.536146 0.665065
vt 0.540422 0.668556
vt 0.533131 0.668689
vt 0.416698 0.719774
vt 0.417008 0.719076
vt 0.417625 0.719523
vt 0.417251 0.719061
vt 0.418305 0.727052
vt 0.417287 0.724604
vt 0.420465 0.725266
vt 0.420980 0.723068
vt 0.419819 0.728431
vt 0.419324 0.728478
vt 0.420201 0.727200
vt 0.421209 0.721094
vt 0.420766 0.720033
vt 0.418584 0.719904
vt 0.420036 0.719092
vt 0.420239 0.719297
vt 0.419020 0.719440
vt 0.419528 0.718882
vt 0.533631 0.664594
vt 0.534262 0.663508
vt 0.535160 0.664274
vt 0.534652 0.663505
vt 0.534779 0.676347
vt 0.533631 0.672352
vt 0.538574 0.673683
vt 0.539823 0.670221
vt 0.536926 0.678677
vt 0.536127 0.678711
vt 0.537775 0.676746
vt 0.540571 0.667091
vt 0.540072 0.665360
vt 0.536614 0.664965
vt 0.539090 0.663794
vt 0.539374 0.664140
vt 0.537400 0.664263
vt 0.538320 0.663415
vt 0.490773 0.441283
vt 0.492402 0.439580
vt 0.493078 0.435468
vt 0.492282 0.427647
vt 0.491607 0.423535
vt 0.487795 0.407341
vt 0.486165 0.405638
vt 0.486339 0.423963
vt 0.484709 0.425666
vt 0.482025 0.409757
vt 0.481350 0.413869
vt 0.483860 0.411453
vt 0.484536 0.415565
vt 0.490860 0.424727
vt 0.492490 0.426430
vt 0.140938 0.881438
vt 0.138691 0.886124
vt 0.139466 0.888371
vt 0.129675 0.738418
vt 0.128045 0.736715
vt 0.126415 0.746641
vt 0.128045 0.748344
vt 0.129675 0.746641
vt 0.130350 0.742529
vt 0.125740 0.742529
vt 0.126415 0.738418
vt 0.137475 0.745818
vt 0.138474 0.741117
vt 0.140523 0.739462
vt 0.024836 0.944739
vt 0.026466 0.943035
vt 0.027141 0.938924
vt 0.026466 0.934812
vt 0.024836 0.933109
vt 0.023206 0.934812
vt 0.022531 0.938924
vt 0.027655 0.943829
vt 0.029295 0.936105
vt 0.032661 0.933388
vt 0.023206 0.943035
vt 0.030997 0.908925
vt 0.028751 0.913611
vt 0.029525 0.915858
vt 0.064093 0.976217
vt 0.061904 0.984774
vt 0.061904 0.976217
vt 0.639020 0.395242
vt 0.638600 0.397803
vt 0.651361 0.384669
vt 0.650345 0.385730
vt 0.650692 0.383812
vt 0.651707 0.384873
vt 0.635593 0.402781
vt 0.636014 0.400219
vt 0.645897 0.386136
vt 0.645476 0.383575
vt 0.646360 0.383386
vt 0.645345 0.384447
vt 0.655866 0.368679
vt 0.656286 0.371241
vt 0.634578 0.403842
vt 0.633563 0.402781
vt 0.636752 0.402656
vt 0.634506 0.407342
vt 0.635280 0.409589
vt 0.140750 0.886494
vt 0.141713 0.883685
vt 0.141791 0.881591
vt 0.139654 0.883316
vt 0.138613 0.888218
vt 0.140448 0.741471
vt 0.139524 0.744164
vt 0.138293 0.745965
vt 0.137550 0.743810
vt 0.139705 0.739316
vt 0.032538 0.936687
vt 0.031021 0.941112
vt 0.028998 0.944070
vt 0.027778 0.940530
vt 0.031318 0.933147
vt 0.030809 0.913980
vt 0.031772 0.911172
vt 0.031850 0.909078
vt 0.029714 0.910803
vt 0.028673 0.915705
vt 0.064093 0.984774
vt 0.636564 0.407711
vt 0.637527 0.404903
vt 0.637605 0.402809
vt 0.635469 0.404533
vt 0.634428 0.409436
s 0
usemtl 336Light
f 82/1/1 74/2/1 69/3/1
f 61/1/2 53/2/2 6/3/2
f 27/4/3 19/5/3 11/6/3
f 48/1/3 40/2/3 32/3/3
f 69/3/1 70/7/1 82/1/1
f 70/7/1 71/8/1 83/9/1
f 71/8/1 84/10/1 83/9/1
f 70/7/1 83/9/1 82/1/1
f 67/11/1 68/12/1 72/13/1
f 68/12/1 69/3/1 73/14/1
f 72/13/1 68/12/1 73/14/1
f 65/15/1 66/16/1 64/17/1
f 66/16/1 67/11/1 64/17/1
f 72/13/1 64/17/1 67/11/1
f 74/2/1 73/14/1 69/3/1
f 74/2/1 82/1/1 75/18/1
f 76/19/1 75/18/1 81/20/1
f 81/20/1 75/18/1 82/1/1
f 78/21/1 77/22/1 80/23/1
f 77/22/1 76/19/1 80/23/1
f 80/23/1 79/24/1 78/21/1
f 81/20/1 80/23/1 76/19/1
f 6/3/2 7/7/2 61/1/2
f 7/7/2 8/8/2 62/9/2
f 8/8/2 63/10/2 62/9/2
f 7/7/2 62/9/2 61/1/2
f 4/11/2 5/12/2 51/13/2
f 5/12/2 6/3/2 52/14/2
f 51/13/2 5/12/2 52/14/2
f 2/15/2 3/16/2 1/17/2
f 3/16/2 4/11/2 1/17/2
f 51/13/2 1/17/2 4/11/2
f 53/2/2 52/14/2 6/3/2
f 53/2/2 61/1/2 54/18/2
f 55/19/2 54/18/2 60/20/2
f 60/20/2 54/18/2 61/1/2
f 57/21/2 56/22/2 59/23/2
f 56/22/2 55/19/2 59/23/2
f 59/23/2 58/24/2 57/21/2
f 60/20/2 59/23/2 55/19/2
f 11/6/3 10/25/3 27/4/3
f 10/25/3 9/26/3 28/27/3
f 9/26/3 29/28/3 28/27/3
f 10/25/3 28/27/3 27/4/3
f 13/29/3 12/30/3 17/31/3
f 12/30/3 11/6/3 18/32/3
f 17/31/3 12/30/3 18/32/3
f 15/33/3 14/34/3 16/35/3
f 14/34/3 13/29/3 16/35/3
f 17/31/3 16/35/3 13/29/3
f 19/5/3 18/32/3 11/6/3
f 19/5/3 27/4/3 20/36/3
f 21/37/3 20/36/3 26/38/3
f 26/38/3 20/36/3 27/4/3
f 23/39/3 22/40/3 25/41/3
f 22/40/3 21/37/3 25/41/3
f 25/41/3 24/42/3 23/39/3
f 26/38/3 25/41/3 21/37/3
f 32/3/3 31/7/3 48/1/3
f 31/7/3 30/8/3 49/9/3
f 30/8/3 50/10/3 49/9/3
f 31/7/3 49/9/3 48/1/3
f 34/11/3 33/12/3 38/13/3
f 33/12/3 32/3/3 39/14/3
f 38/13/3 33/12/3 39/14/3
f 36/15/3 35/16/3 37/17/3
f 35/16/3 34/11/3 37/17/3
f 38/13/3 37/17/3 34/11/3
f 40/2/3 39/14/3 32/3/3
f 40/2/3 48/1/3 41/18/3
f 42/19/3 41/18/3 47/20/3
f 47/20/3 41/18/3 48/1/3
f 44/21/3 43/22/3 46/23/3
f 43/22/3 42/19/3 46/23/3
f 46/23/3 45/24/3 44/21/3
f 47/20/3 46/23/3 42/19/3
f 86/43/4 87/44/4 85/43/4
f 88/44/5 89/45/5 87/44/5
f 90/46/6 91/47/6 89/46/6
f 92/48/7 93/49/7 91/48/7
f 94/50/8 95/51/8 93/50/8
f 96/52/9 97/53/9 95/52/9
f 88/44/10 103/45/10 90/45/10
f 98/54/11 99/55/11 97/54/11
f 100/56/12 85/57/12 99/56/12
f 91/58/13 95/59/13 99/60/13
f 104/61/7 113/62/7 105/62/7
f 94/50/14 106/51/14 96/51/14
f 86/57/15 108/56/15 101/57/15
f 86/43/16 102/44/16 88/44/16
f 92/47/17 103/46/17 104/47/17
f 96/52/18 107/53/18 98/53/18
f 94/49/19 104/48/19 105/49/19
f 100/55/20 107/54/20 108/55/20
f 116/63/21 117/64/21 109/64/21
f 102/65/5 111/66/5 103/66/5
f 107/67/11 116/63/11 108/63/11
f 105/62/8 114/68/8 106/68/8
f 103/66/6 112/61/6 104/61/6
f 101/64/4 110/65/4 102/65/4
f 108/63/12 109/64/12 101/64/12
f 106/68/9 115/67/9 107/67/9
f 122/68/22 129/62/22 130/68/22
f 115/67/23 122/68/23 123/67/23
f 112/61/24 121/62/24 113/62/24
f 111/66/25 118/65/25 119/66/25
f 115/67/26 124/63/26 116/63/26
f 114/68/27 121/62/27 122/68/27
f 111/66/28 120/61/28 112/61/28
f 110/65/29 117/64/29 118/65/29
f 131/67/11 140/63/11 132/63/11
f 119/66/30 128/61/30 120/61/30
f 118/65/31 125/64/31 126/65/31
f 124/63/32 125/64/32 117/64/32
f 123/67/33 130/68/33 131/67/33
f 120/61/34 129/62/34 121/62/34
f 119/66/35 126/65/35 127/66/35
f 123/67/36 132/63/36 124/63/36
f 139/69/37 137/70/37 135/71/37
f 129/62/8 138/68/8 130/68/8
f 127/66/6 136/61/6 128/61/6
f 126/65/4 133/64/4 134/65/4
f 132/63/12 133/64/12 125/64/12
f 130/68/9 139/67/9 131/67/9
f 128/61/7 137/62/7 129/62/7
f 127/66/5 134/65/5 135/66/5
f 142/72/4 143/73/4 141/72/4
f 144/73/5 145/74/5 143/73/5
f 146/74/6 147/75/6 145/74/6
f 148/75/7 149/76/7 147/75/7
f 150/76/8 151/77/8 149/76/8
f 152/77/9 153/78/9 151/77/9
f 154/79/37 150/80/37 146/81/37
f 154/78/11 155/82/11 153/78/11
f 156/82/12 141/72/12 155/82/12
f 147/83/13 151/84/13 155/85/13
f 158/86/38 159/87/38 157/88/38
f 162/86/39 163/87/39 161/88/39
f 170/89/40 179/90/40 178/89/40
f 174/91/41 181/92/41 173/92/41
f 169/93/42 176/94/42 168/94/42
f 166/95/43 175/96/43 174/95/43
f 172/97/44 179/98/44 171/98/44
f 169/99/45 178/100/45 177/99/45
f 168/101/46 175/102/46 167/102/46
f 165/92/47 174/91/47 173/92/47
f 165/103/48 180/104/48 172/104/48
f 188/97/37 195/98/37 187/98/37
f 173/103/49 188/104/49 180/104/49
f 179/90/50 186/89/50 178/89/50
f 177/93/51 184/94/51 176/94/51
f 175/96/52 182/95/52 174/95/52
f 180/97/53 187/98/53 179/98/53
f 178/100/54 185/99/54 177/99/54
f 176/101/55 183/102/55 175/102/55
f 191/96/56 198/95/56 190/95/56
f 185/99/37 194/100/37 193/99/37
f 184/101/37 191/102/37 183/102/37
f 181/92/37 190/91/37 189/92/37
f 181/103/37 196/104/37 188/104/37
f 186/89/37 195/90/37 194/89/37
f 185/93/37 192/94/37 184/94/37
f 182/95/37 191/96/37 190/95/37
f 204/104/57 205/103/57 212/104/57
f 195/98/58 204/97/58 203/98/58
f 194/100/59 201/99/59 193/99/59
f 191/102/60 200/101/60 199/102/60
f 190/91/61 197/92/61 189/92/61
f 196/104/62 197/103/62 204/104/62
f 195/90/63 202/89/63 194/89/63
f 192/94/64 201/93/64 200/94/64
f 208/101/53 215/102/53 207/102/53
f 203/90/65 210/89/65 202/89/65
f 200/94/66 209/93/66 208/94/66
f 199/96/67 206/95/67 198/95/67
f 203/98/68 212/97/68 211/98/68
f 202/100/69 209/99/69 201/99/69
f 199/102/70 208/101/70 207/102/70
f 198/91/71 205/92/71 197/92/71
f 220/97/37 227/98/37 219/98/37
f 205/92/54 214/91/54 213/92/54
f 205/103/51 220/104/51 212/104/51
f 211/90/52 218/89/52 210/89/52
f 208/94/49 217/93/49 216/94/49
f 207/96/50 214/95/50 206/95/50
f 212/97/55 219/98/55 211/98/55
f 210/100/41 217/99/41 209/99/41
f 225/93/72 232/94/72 224/94/72
f 217/99/37 226/100/37 225/99/37
f 216/101/37 223/102/37 215/102/37
f 213/92/37 222/91/37 221/92/37
f 213/103/37 228/104/37 220/104/37
f 218/89/37 227/90/37 226/89/37
f 217/93/37 224/94/37 216/94/37
f 214/95/37 223/96/37 222/95/37
f 229/103/51 244/104/51 236/104/51
f 222/95/73 231/96/73 230/95/73
f 228/97/74 235/98/74 227/98/74
f 225/99/75 234/100/75 233/99/75
f 224/101/76 231/102/76 223/102/76
f 221/92/77 230/91/77 229/92/77
f 221/103/78 236/104/78 228/104/78
f 226/89/79 235/90/79 234/89/79
f 240/105/13 242/106/13 244/107/13
f 235/90/52 242/89/52 234/89/52
f 233/93/49 240/94/49 232/94/49
f 231/96/50 238/95/50 230/95/50
f 236/97/55 243/98/55 235/98/55
f 234/100/41 241/99/41 233/99/41
f 232/101/53 239/102/53 231/102/53
f 230/91/54 237/92/54 229/92/54
f 86/43/4 88/44/4 87/44/4
f 88/44/5 90/45/5 89/45/5
f 90/46/6 92/47/6 91/47/6
f 92/48/7 94/49/7 93/49/7
f 94/50/8 96/51/8 95/51/8
f 96/52/9 98/53/9 97/53/9
f 88/44/10 102/44/10 103/45/10
f 98/54/11 100/55/11 99/55/11
f 100/56/12 86/57/12 85/57/12
f 99/60/13 85/108/13 87/109/13
f 87/109/13 89/110/13 91/58/13
f 91/58/13 93/111/13 95/59/13
f 95/59/13 97/112/13 99/60/13
f 99/60/13 87/109/13 91/58/13
f 104/61/7 112/61/7 113/62/7
f 94/50/14 105/50/14 106/51/14
f 86/57/15 100/56/15 108/56/15
f 86/43/16 101/43/16 102/44/16
f 92/47/17 90/46/17 103/46/17
f 96/52/18 106/52/18 107/53/18
f 94/49/19 92/48/19 104/48/19
f 100/55/80 98/54/80 107/54/80
f 116/63/21 124/63/21 117/64/21
f 102/65/5 110/65/5 111/66/5
f 107/67/11 115/67/11 116/63/11
f 105/62/8 113/62/8 114/68/8
f 103/66/6 111/66/6 112/61/6
f 101/64/4 109/64/4 110/65/4
f 108/63/12 116/63/12 109/64/12
f 106/68/9 114/68/9 115/67/9
f 122/68/22 121/62/22 129/62/22
f 115/67/23 114/68/23 122/68/23
f 112/61/24 120/61/24 121/62/24
f 111/66/25 110/65/25 118/65/25
f 115/67/26 123/67/26 124/63/26
f 114/68/27 113/62/27 121/62/27
f 111/66/28 119/66/28 120/61/28
f 110/65/29 109/64/29 117/64/29
f 131/67/11 139/67/11 140/63/11
f 119/66/30 127/66/30 128/61/30
f 118/65/31 117/64/31 125/64/31
f 124/63/32 132/63/32 125/64/32
f 123/67/33 122/68/33 130/68/33
f 120/61/34 128/61/34 129/62/34
f 119/66/35 118/65/35 126/65/35
f 123/67/36 131/67/36 132/63/36
f 135/71/37 134/113/37 133/114/37
f 133/114/37 140/115/37 139/69/37
f 139/69/37 138/116/37 137/70/37
f 137/70/37 136/117/37 135/71/37
f 135/71/37 133/114/37 139/69/37
f 129/62/8 137/62/8 138/68/8
f 127/66/6 135/66/6 136/61/6
f 126/65/4 125/64/4 133/64/4
f 132/63/12 140/63/12 133/64/12
f 130/68/9 138/68/9 139/67/9
f 128/61/7 136/61/7 137/62/7
f 127/66/5 126/65/5 134/65/5
f 142/72/4 144/73/4 143/73/4
f 144/73/5 146/74/5 145/74/5
f 146/74/6 148/75/6 147/75/6
f 148/75/7 150/76/7 149/76/7
f 150/76/8 152/77/8 151/77/8
f 152/77/9 154/78/9 153/78/9
f 146/81/37 144/118/37 142/119/37
f 142/119/37 156/120/37 154/79/37
f 154/79/37 152/121/37 150/80/37
f 150/80/37 148/122/37 146/81/37
f 146/81/37 142/119/37 154/79/37
f 154/78/11 156/82/11 155/82/11
f 156/82/12 142/72/12 141/72/12
f 155/85/13 141/123/13 143/124/13
f 143/124/13 145/125/13 147/83/13
f 147/83/13 149/126/13 151/84/13
f 151/84/13 153/127/13 155/85/13
f 155/85/13 143/124/13 147/83/13
f 158/86/38 160/128/38 159/87/38
f 162/86/39 164/128/39 163/87/39
f 170/89/40 171/90/40 179/90/40
f 174/91/41 182/91/41 181/92/41
f 169/93/42 177/93/42 176/94/42
f 166/95/43 167/96/43 175/96/43
f 172/97/44 180/97/44 179/98/44
f 169/99/45 170/100/45 178/100/45
f 168/101/46 176/101/46 175/102/46
f 165/92/47 166/91/47 174/91/47
f 165/103/48 173/103/48 180/104/48
f 188/97/37 196/97/37 195/98/37
f 173/103/49 181/103/49 188/104/49
f 179/90/50 187/90/50 186/89/50
f 177/93/51 185/93/51 184/94/51
f 175/96/52 183/96/52 182/95/52
f 180/97/53 188/97/53 187/98/53
f 178/100/54 186/100/54 185/99/54
f 176/101/55 184/101/55 183/102/55
f 191/96/56 199/96/56 198/95/56
f 185/99/37 186/100/37 194/100/37
f 184/101/37 192/101/37 191/102/37
f 181/92/37 182/91/37 190/91/37
f 181/103/37 189/103/37 196/104/37
f 186/89/37 187/90/37 195/90/37
f 185/93/37 193/93/37 192/94/37
f 182/95/37 183/96/37 191/96/37
f 204/104/57 197/103/57 205/103/57
f 195/98/58 196/97/58 204/97/58
f 194/100/59 202/100/59 201/99/59
f 191/102/60 192/101/60 200/101/60
f 190/91/61 198/91/61 197/92/61
f 196/104/62 189/103/62 197/103/62
f 195/90/63 203/90/63 202/89/63
f 192/94/64 193/93/64 201/93/64
f 208/101/53 216/101/53 215/102/53
f 203/90/65 211/90/65 210/89/65
f 200/94/66 201/93/66 209/93/66
f 199/96/67 207/96/67 206/95/67
f 203/98/68 204/97/68 212/97/68
f 202/100/69 210/100/69 209/99/69
f 199/102/70 200/101/70 208/101/70
f 198/91/71 206/91/71 205/92/71
f 220/97/37 228/97/37 227/98/37
f 205/92/54 206/91/54 214/91/54
f 205/103/51 213/103/51 220/104/51
f 211/90/52 219/90/52 218/89/52
f 208/94/49 209/93/49 217/93/49
f 207/96/50 215/96/50 214/95/50
f 212/97/55 220/97/55 219/98/55
f 210/100/41 218/100/41 217/99/41
f 225/93/72 233/93/72 232/94/72
f 217/99/37 218/100/37 226/100/37
f 216/101/37 224/101/37 223/102/37
f 213/92/37 214/91/37 222/91/37
f 213/103/37 221/103/37 228/104/37
f 218/89/37 219/90/37 227/90/37
f 217/93/37 225/93/37 224/94/37
f 214/95/37 215/96/37 223/96/37
f 229/103/51 237/103/51 244/104/51
f 222/95/73 223/96/73 231/96/73
f 228/97/74 236/97/74 235/98/74
f 225/99/75 226/100/75 234/100/75
f 224/101/76 232/101/76 231/102/76
f 221/92/77 222/91/77 230/91/77
f 221/103/78 229/103/78 236/104/78
f 226/89/79 227/90/79 235/90/79
f 244/107/13 237/129/13 238/130/13
f 238/130/13 239/131/13 240/105/13
f 240/105/13 241/132/13 242/106/13
f 242/106/13 243/133/13 244/107/13
f 244/107/13 238/130/13 240/105/13
f 235/90/52 243/90/52 242/89/52
f 233/93/49 241/93/49 240/94/49
f 231/96/50 239/96/50 238/95/50
f 236/97/55 244/97/55 243/98/55
f 234/100/41 242/100/41 241/99/41
f 232/101/53 240/101/53 239/102/53
f 230/91/54 238/91/54 237/92/54
