# Blender 4.4.0
# www.blender.org
mtllib candle_338x11.mtl
o Candle_338x11
v 0.005232 2.212652 0.000944
v -0.002609 2.247572 -0.005635
v -0.009989 2.248175 -0.011827
v -0.022442 2.205427 -0.022276
v -0.033050 2.133178 -0.031178
v -0.037662 2.066949 -0.035048
v -0.033050 1.992893 -0.031178
v -0.027218 1.973244 -0.026284
v -0.034872 1.973244 -0.005257
v -0.042485 1.992893 -0.005257
v -0.048505 2.066949 -0.005257
v -0.042485 2.133178 -0.005257
v -0.028637 2.205427 -0.005257
v -0.012381 2.248175 -0.005257
v -0.002747 2.247572 -0.005257
v 0.007488 2.212652 -0.005257
v 0.017121 2.157261 -0.005257
v 0.032173 2.094645 -0.005257
v 0.039398 2.064541 -0.005257
v 0.041204 2.038049 -0.005257
v 0.035184 2.006741 -0.005257
v 0.026763 1.984674 -0.005257
v 0.023336 1.978423 -0.005257
v 0.014060 1.971568 -0.005257
v 0.002970 1.986892 -0.005257
v -0.006506 1.999595 -0.005257
v -0.012152 2.001410 -0.005257
v -0.024049 1.987094 -0.005257
v -0.030172 1.973192 -0.005257
v -0.034872 1.973244 -0.005257
v -0.042485 1.992893 -0.005257
v -0.048505 2.066949 -0.005257
v -0.042485 2.133178 -0.005257
v -0.028637 2.205427 -0.005257
v -0.012381 2.248175 -0.005257
v -0.002747 2.247572 -0.005257
v 0.007488 2.212652 -0.005257
v 0.017121 2.157261 -0.005257
v 0.032173 2.094645 -0.005257
v 0.039398 2.064541 -0.005257
v 0.041204 2.038049 -0.005257
v 0.035184 2.006741 -0.005257
v 0.026763 1.984674 -0.005257
v 0.023336 1.978423 -0.005257
v 0.014060 1.971568 -0.005257
v 0.002970 1.986892 -0.005257
v -0.006506 1.999595 -0.005257
v -0.012152 2.001410 -0.005257
v -0.024049 1.987094 -0.005257
v -0.030172 1.973192 -0.005257
v 0.012611 2.157261 0.007136
v 0.024142 2.094645 0.016812
v 0.029676 2.064541 0.021456
v 0.031060 2.038049 0.022617
v 0.026448 2.006741 0.018747
v 0.019997 1.984674 0.013334
v 0.017372 1.978423 0.011131
v 0.010266 1.971568 0.005169
v 0.001771 1.986892 -0.001960
v -0.005489 1.999595 -0.008051
v -0.009814 2.001410 -0.011680
v -0.018927 1.987094 -0.019327
v -0.023617 1.973192 -0.023263
v -0.013604 2.212652 0.003098
v -0.008486 2.247572 -0.005766
v -0.003669 2.248175 -0.014108
v 0.004459 2.205427 -0.028186
v 0.011382 2.133178 -0.040179
v 0.014393 2.066949 -0.045393
v 0.011382 1.992893 -0.040179
v 0.007576 1.973244 -0.033587
v -0.018420 2.157261 0.011441
v -0.025946 2.094645 0.024476
v -0.029559 2.064541 0.030734
v -0.030462 2.038049 0.032298
v -0.027452 2.006741 0.027084
v -0.023241 1.984674 0.019791
v -0.021528 1.978423 0.016823
v -0.016890 1.971568 0.008790
v -0.011345 1.986892 -0.000814
v -0.006607 1.999595 -0.009021
v -0.003784 2.001410 -0.013910
v 0.002165 1.987094 -0.024213
v 0.005226 1.973192 -0.029516
v -0.008716 1.406775 -0.075197
v -0.008716 1.924798 -0.075197
v 0.043122 1.406775 -0.053173
v 0.043122 1.924798 -0.053173
v 0.064594 1.406775 -0.000001
v 0.064594 1.924798 -0.000001
v 0.043122 1.406775 0.053171
v 0.043122 1.924798 0.053171
v -0.008716 1.406775 0.075196
v -0.008716 1.924798 0.075196
v -0.060554 1.406775 0.053171
v -0.060554 1.924798 0.053171
v -0.082026 1.406775 -0.000001
v -0.082026 1.924798 -0.000001
v -0.060554 1.406775 -0.053173
v -0.060554 1.924798 -0.053173
v -0.008368 1.997441 0.015185
v -0.008368 1.925478 0.015185
v -0.008368 1.997441 -0.012890
v -0.008368 1.925478 -0.012890
v 0.005669 1.997441 0.001147
v 0.005669 1.925478 0.001147
v -0.022405 1.997441 0.001147
v -0.022405 1.925478 0.001147
v -0.008716 1.373757 -0.075197
v 0.043122 1.373757 -0.053173
v 0.064594 1.373757 -0.000001
v 0.043122 1.373757 0.053171
v -0.008716 1.373757 0.075196
v -0.060554 1.373757 0.053171
v -0.082026 1.373757 -0.000001
v -0.060554 1.373757 -0.053173
v -0.008716 1.361997 -0.174520
v 0.111592 1.361997 -0.123405
v 0.161425 1.361997 -0.000001
v 0.111592 1.361997 0.123403
v -0.008716 1.361997 0.174519
v -0.129025 1.361997 0.123403
v -0.178858 1.361997 -0.000001
v -0.129025 1.361997 -0.123405
v -0.008716 1.414665 -0.174520
v 0.111592 1.414665 -0.123405
v 0.161425 1.414665 -0.000001
v 0.111592 1.414665 0.123403
v -0.008716 1.414665 0.174519
v -0.129025 1.414665 0.123403
v -0.178858 1.414665 -0.000001
v -0.129025 1.414665 -0.123405
v -0.008716 1.414665 -0.191060
v 0.122994 1.414665 -0.135100
v 0.177551 1.414665 -0.000001
v 0.122994 1.414665 0.135099
v -0.008716 1.414665 0.191059
v -0.140427 1.414665 0.135099
v -0.194983 1.414665 -0.000001
v -0.140427 1.414665 -0.135100
v -0.008716 1.331275 -0.178448
v 0.114300 1.331275 -0.126182
v 0.165254 1.331275 -0.000001
v 0.114300 1.331275 0.126180
v -0.008716 1.331275 0.178446
v -0.131732 1.331275 0.126180
v -0.182687 1.331275 -0.000001
v -0.131732 1.331275 -0.126182
v -0.008716 1.287385 -0.043296
v 0.021131 1.287385 -0.030615
v 0.033494 1.287385 -0.000001
v 0.021131 1.287385 0.030614
v -0.008716 1.287385 0.043295
v -0.038563 1.287385 0.030614
v -0.050926 1.287385 -0.000001
v -0.038563 1.287385 -0.030615
v -0.008716 0.068189 -0.043296
v 0.021131 0.068189 -0.030615
v 0.033494 0.068189 -0.000001
v 0.021131 0.068189 0.030614
v -0.008716 0.068189 0.043295
v -0.038563 0.068189 0.030614
v -0.050926 0.068189 -0.000001
v -0.038563 0.068189 -0.030615
v -0.008716 0.068189 -0.061746
v 0.033849 0.068189 -0.043661
v 0.051480 0.068189 -0.000001
v 0.033849 0.068189 0.043660
v -0.008716 0.068189 0.061745
v -0.051282 0.068189 0.043660
v -0.068913 0.068189 -0.000001
v -0.051282 0.068189 -0.043661
v -0.008716 0.038929 -0.137331
v 0.085955 0.038929 -0.097108
v 0.125169 0.038929 -0.000001
v 0.085955 0.038929 0.097107
v -0.008716 0.038929 0.137330
v -0.103388 0.038929 0.097107
v -0.142602 0.038929 -0.000001
v -0.103388 0.038929 -0.097108
v -0.008716 0.002354 -0.137331
v 0.085955 0.002354 -0.097108
v 0.125169 0.002354 -0.000001
v 0.085955 0.002354 0.097107
v -0.008716 0.002354 0.137330
v -0.103388 0.002354 0.097107
v -0.142602 0.002354 -0.000001
v -0.103388 0.002354 -0.097108
v 0.021131 1.241787 0.030614
v 0.033494 1.241787 -0.000001
v 0.021131 1.241787 -0.030615
v -0.008716 1.241787 -0.043296
v -0.038563 1.241787 -0.030615
v -0.050926 1.241787 -0.000001
v -0.038563 1.241787 0.030614
v -0.008716 1.241787 0.043295
v 0.021131 0.126277 0.030614
v 0.021131 0.126277 -0.030615
v -0.050926 0.126277 -0.000001
v -0.008716 0.126277 0.043295
v 0.033494 0.126277 -0.000001
v -0.008716 0.126277 -0.043296
v -0.038563 0.126277 -0.030615
v -0.038563 0.126277 0.030614
vn -0.8660 -0.0000 -0.5000
vn -0.6428 -0.0000 0.7660
vn -0.0000 -0.0000 1.0000
vn -0.6428 -0.0000 0.7661
vn 0.3910 -0.0000 -0.9204
vn 0.9272 -0.0000 -0.3744
vn 0.9272 -0.0000 0.3744
vn 0.3910 -0.0000 0.9204
vn -0.3910 -0.0000 0.9204
vn -0.9272 -0.0000 0.3744
vn -0.0000 1.0000 -0.0000
vn -0.9272 -0.0000 -0.3744
vn -0.3910 -0.0000 -0.9204
vn 1.0000 -0.0000 -0.0000
vn -0.0000 -0.0000 -1.0000
vn -0.1204 0.9915 0.0486
vn 0.9273 -0.0000 0.3744
vn -0.9273 -0.0000 0.3744
vn 0.0499 0.9918 0.1174
vn 0.1204 0.9915 -0.0486
vn -0.1204 0.9915 -0.0486
vn -0.0499 0.9918 0.1174
vn 0.1204 0.9915 0.0486
vn 0.0499 0.9918 -0.1174
vn -0.0499 0.9918 -0.1174
vn 0.9187 -0.1355 -0.3710
vn -0.1301 -0.9430 -0.3062
vn -0.9187 -0.1355 -0.3710
vn -0.3873 -0.1379 0.9116
vn 0.9187 -0.1355 0.3710
vn 0.3873 -0.1379 -0.9116
vn -0.3873 -0.1379 -0.9116
vn -0.9187 -0.1355 0.3710
vn 0.3873 -0.1379 0.9116
vn -0.3135 -0.9411 0.1266
vn 0.1301 -0.9430 0.3062
vn 0.3135 -0.9411 -0.1266
vn -0.3135 -0.9411 -0.1266
vn -0.1301 -0.9430 0.3062
vn 0.3135 -0.9411 0.1266
vn 0.1301 -0.9430 -0.3062
vn 0.1516 0.9218 0.3568
vn 0.3650 0.9193 -0.1474
vn -0.3650 0.9193 -0.1474
vn -0.1516 0.9218 0.3568
vn 0.3650 0.9193 0.1474
vn 0.1516 0.9218 -0.3568
vn -0.1516 0.9218 -0.3568
vn -0.3650 0.9193 0.1474
vn -0.0000 -1.0000 -0.0000
vt 0.418300 0.719982
vt 0.421226 0.722011
vt 0.416698 0.722340
vt 0.536146 0.665065
vt 0.540422 0.668556
vt 0.533131 0.668689
vt 0.416698 0.719774
vt 0.417008 0.719076
vt 0.417625 0.719523
vt 0.417251 0.719061
vt 0.418305 0.727052
vt 0.417287 0.724604
vt 0.420465 0.725266
vt 0.420980 0.723068
vt 0.419819 0.728431
vt 0.419324 0.728478
vt 0.420201 0.727200
vt 0.421209 0.721094
vt 0.420766 0.720033
vt 0.418584 0.719904
vt 0.420036 0.719092
vt 0.420239 0.719297
vt 0.419020 0.719440
vt 0.419528 0.718882
vt 0.533631 0.664594
vt 0.534262 0.663508
vt 0.535160 0.664274
vt 0.534652 0.663505
vt 0.534779 0.676347
vt 0.533631 0.672352
vt 0.538574 0.673683
vt 0.539823 0.670221
vt 0.536926 0.678677
vt 0.536127 0.678711
vt 0.537775 0.676746
vt 0.540571 0.667091
vt 0.540072 0.665360
vt 0.536614 0.664965
vt 0.539090 0.663794
vt 0.539374 0.664140
vt 0.537400 0.664263
vt 0.538320 0.663415
vt 0.023569 0.952325
vt 0.025199 0.950622
vt 0.030111 0.940689
vt 0.030786 0.936577
vt 0.026966 0.939262
vt 0.026291 0.935150
vt 0.024661 0.933447
vt 0.020604 0.936153
vt 0.018974 0.937856
vt 0.018299 0.941968
vt 0.023307 0.942936
vt 0.024391 0.937828
vt 0.026618 0.936031
vt 0.022356 0.939262
vt 0.023031 0.943374
vt 0.024661 0.945077
vt 0.015901 0.939530
vt 0.015366 0.942792
vt 0.064528 0.975703
vt 0.062339 0.984260
vt 0.062339 0.975703
vt 0.761323 0.398107
vt 0.761843 0.400556
vt 0.013386 0.939037
vt 0.014679 0.937686
vt 0.014073 0.944143
vt 0.012780 0.942792
vt 0.015366 0.936269
vt 0.012851 0.942299
vt 0.014073 0.934918
vt 0.012245 0.939530
vt 0.770902 0.412035
vt 0.770572 0.414624
vt 0.760416 0.399577
vt 0.761402 0.398365
vt 0.773646 0.398982
vt 0.773126 0.396533
vt 0.768065 0.400246
vt 0.767000 0.399372
vt 0.756359 0.398562
vt 0.756028 0.401151
vt 0.766835 0.398872
vt 0.767900 0.399746
vt 0.771871 0.416115
vt 0.772202 0.413526
vt 0.773315 0.401571
vt 0.772328 0.402783
vt 0.766766 0.398755
vt 0.765700 0.397880
vt 0.772016 0.400079
vt 0.771029 0.401292
vt 0.760543 0.399064
vt 0.760023 0.396615
vt 0.759116 0.398085
vt 0.760103 0.396873
vt 0.771827 0.395042
vt 0.772346 0.397491
vt 0.769444 0.397968
vt 0.769774 0.395380
vt 0.765535 0.397381
vt 0.766601 0.398255
vt 0.755059 0.397071
vt 0.754728 0.399659
vt 0.641124 0.398997
vt 0.641545 0.401559
vt 0.641545 0.401559
vt 0.650476 0.386870
vt 0.649460 0.387931
vt 0.640109 0.405181
vt 0.639094 0.404120
vt 0.639093 0.404120
vt 0.638673 0.401559
vt 0.639094 0.398997
vt 0.639093 0.398997
vt 0.640109 0.397936
vt 0.641124 0.398997
vt 0.650896 0.384309
vt 0.640109 0.397936
vt 0.773060 0.395240
vt 0.773052 0.402485
vt 0.774250 0.402493
vt 0.645678 0.384508
vt 0.646693 0.383447
vt 0.650948 0.388550
vt 0.651369 0.385988
vt 0.649933 0.382366
vt 0.650948 0.383427
vt 0.645257 0.387070
vt 0.641124 0.404120
vt 0.755059 0.397071
vt 0.766766 0.398755
vt 0.760103 0.396873
vt 0.760023 0.396615
vt 0.771029 0.401292
vt 0.766601 0.398255
vt 0.026536 0.938213
vt 0.025533 0.941139
vt 0.024195 0.943096
vt 0.023388 0.940754
vt 0.025729 0.935872
vt 0.064528 0.984260
vt 0.650897 0.384309
vt 0.774502 0.398871
vt 0.774258 0.395247
vt 0.773660 0.393743
vt 0.772808 0.398861
vt 0.773649 0.403989
vt 0.754728 0.399660
vt 0.771827 0.395042
vt 0.759116 0.398086
vt 0.765535 0.397380
s 0
usemtl 336Light
f 82/1/1 74/2/1 69/3/1
f 61/1/2 53/2/2 6/3/2
f 27/4/3 19/5/3 11/6/3
f 48/1/3 40/2/3 32/3/3
f 69/3/1 70/7/1 82/1/1
f 70/7/1 71/8/1 83/9/1
f 71/8/1 84/10/1 83/9/1
f 70/7/1 83/9/1 82/1/1
f 67/11/1 68/12/1 72/13/1
f 68/12/1 69/3/1 73/14/1
f 72/13/1 68/12/1 73/14/1
f 65/15/1 66/16/1 64/17/1
f 66/16/1 67/11/1 64/17/1
f 72/13/1 64/17/1 67/11/1
f 74/2/1 73/14/1 69/3/1
f 74/2/1 82/1/1 75/18/1
f 76/19/1 75/18/1 81/20/1
f 81/20/1 75/18/1 82/1/1
f 78/21/1 77/22/1 80/23/1
f 77/22/1 76/19/1 80/23/1
f 80/23/1 79/24/1 78/21/1
f 81/20/1 80/23/1 76/19/1
f 6/3/2 7/7/2 61/1/2
f 7/7/2 8/8/2 62/9/2
f 8/8/4 63/10/4 62/9/4
f 7/7/2 62/9/2 61/1/2
f 4/11/2 5/12/2 51/13/2
f 5/12/2 6/3/2 52/14/2
f 51/13/2 5/12/2 52/14/2
f 2/15/4 3/16/4 1/17/4
f 3/16/2 4/11/2 1/17/2
f 51/13/2 1/17/2 4/11/2
f 53/2/2 52/14/2 6/3/2
f 53/2/2 61/1/2 54/18/2
f 55/19/2 54/18/2 60/20/2
f 60/20/2 54/18/2 61/1/2
f 57/21/4 56/22/4 59/23/4
f 56/22/2 55/19/2 59/23/2
f 59/23/2 58/24/2 57/21/2
f 60/20/2 59/23/2 55/19/2
f 11/6/3 10/25/3 27/4/3
f 10/25/3 9/26/3 28/27/3
f 9/26/3 29/28/3 28/27/3
f 10/25/3 28/27/3 27/4/3
f 13/29/3 12/30/3 17/31/3
f 12/30/3 11/6/3 18/32/3
f 17/31/3 12/30/3 18/32/3
f 15/33/3 14/34/3 16/35/3
f 14/34/3 13/29/3 16/35/3
f 17/31/3 16/35/3 13/29/3
f 19/5/3 18/32/3 11/6/3
f 19/5/3 27/4/3 20/36/3
f 21/37/3 20/36/3 26/38/3
f 26/38/3 20/36/3 27/4/3
f 23/39/3 22/40/3 25/41/3
f 22/40/3 21/37/3 25/41/3
f 25/41/3 24/42/3 23/39/3
f 26/38/3 25/41/3 21/37/3
f 32/3/3 31/7/3 48/1/3
f 31/7/3 30/8/3 49/9/3
f 30/8/3 50/10/3 49/9/3
f 31/7/3 49/9/3 48/1/3
f 34/11/3 33/12/3 38/13/3
f 33/12/3 32/3/3 39/14/3
f 38/13/3 33/12/3 39/14/3
f 36/15/3 35/16/3 37/17/3
f 35/16/3 34/11/3 37/17/3
f 38/13/3 37/17/3 34/11/3
f 40/2/3 39/14/3 32/3/3
f 40/2/3 48/1/3 41/18/3
f 42/19/3 41/18/3 47/20/3
f 47/20/3 41/18/3 48/1/3
f 44/21/3 43/22/3 46/23/3
f 43/22/3 42/19/3 46/23/3
f 46/23/3 45/24/3 44/21/3
f 47/20/3 46/23/3 42/19/3
f 86/43/5 87/44/5 85/43/5
f 88/45/6 89/46/6 87/45/6
f 90/47/7 91/48/7 89/47/7
f 92/48/8 93/49/8 91/48/8
f 94/50/9 95/51/9 93/50/9
f 96/51/10 97/52/10 95/51/10
f 98/53/11 94/54/11 90/55/11
f 98/56/12 99/57/12 97/56/12
f 100/57/13 85/58/13 99/57/13
f 89/59/6 110/60/6 87/60/6
f 102/61/14 103/62/14 101/63/14
f 106/61/15 107/62/15 105/63/15
f 114/64/16 123/65/16 122/64/16
f 95/66/9 113/67/9 93/67/9
f 85/68/13 116/69/13 99/69/13
f 87/60/5 109/68/5 85/68/5
f 91/70/17 111/59/17 89/59/17
f 97/71/18 114/66/18 95/66/18
f 93/72/8 112/70/8 91/70/8
f 99/69/12 115/73/12 97/73/12
f 118/74/9 125/75/9 117/75/9
f 113/76/19 120/77/19 112/77/19
f 110/78/20 119/79/20 118/78/20
f 116/80/21 123/81/21 115/81/21
f 113/82/22 122/83/22 121/82/22
f 112/84/23 119/85/23 111/85/23
f 109/86/24 118/87/24 117/86/24
f 109/88/25 124/89/25 116/89/25
f 132/90/11 139/91/11 131/91/11
f 117/92/8 132/93/8 124/93/8
f 123/94/6 130/95/6 122/95/6
f 121/96/13 128/97/13 120/97/13
f 119/98/18 126/99/18 118/99/18
f 124/90/7 131/91/7 123/91/7
f 122/100/5 129/101/5 121/101/5
f 120/102/12 127/103/12 119/103/12
f 135/98/26 142/99/26 134/99/26
f 129/104/11 138/105/11 137/104/11
f 128/102/11 135/103/11 127/103/11
f 125/75/11 134/74/11 133/75/11
f 125/92/11 140/93/11 132/93/11
f 130/95/11 139/94/11 138/95/11
f 129/96/11 136/97/11 128/97/11
f 126/99/11 135/98/11 134/99/11
f 148/93/27 149/92/27 156/93/27
f 139/91/28 148/90/28 147/91/28
f 138/105/29 145/104/29 137/104/29
f 135/103/30 144/102/30 143/103/30
f 134/74/31 141/75/31 133/75/31
f 140/93/32 141/92/32 148/93/32
f 139/94/33 146/95/33 138/95/33
f 136/97/34 145/96/34 144/97/34
f 197/106/7 159/107/7 201/108/7
f 147/94/35 154/95/35 146/95/35
f 144/97/36 153/96/36 152/97/36
f 143/98/37 150/99/37 142/99/37
f 147/91/38 156/90/38 155/91/38
f 146/105/39 153/104/39 145/104/39
f 143/103/40 152/102/40 151/103/40
f 142/74/41 149/75/41 141/75/41
f 164/90/11 171/91/11 163/91/11
f 198/109/5 157/110/5 202/110/5
f 202/111/13 164/112/13 203/113/13
f 199/114/10 162/115/10 204/116/10
f 200/117/8 160/118/8 197/106/8
f 201/119/6 158/109/6 198/109/6
f 203/113/12 163/114/12 199/114/12
f 204/116/9 161/120/9 200/117/9
f 169/96/42 176/97/42 168/97/42
f 161/104/11 170/105/11 169/104/11
f 160/102/11 167/103/11 159/103/11
f 157/75/11 166/74/11 165/75/11
f 157/92/11 172/93/11 164/93/11
f 162/95/11 171/94/11 170/95/11
f 161/96/11 168/97/11 160/97/11
f 158/99/11 167/98/11 166/99/11
f 173/92/13 188/93/13 180/93/13
f 166/99/43 175/98/43 174/99/43
f 172/90/44 179/91/44 171/91/44
f 169/104/45 178/105/45 177/104/45
f 168/102/46 175/103/46 167/103/46
f 165/75/47 174/74/47 173/75/47
f 165/92/48 180/93/48 172/93/48
f 170/95/49 179/94/49 178/95/49
f 184/121/50 186/122/50 188/123/50
f 179/94/10 186/95/10 178/95/10
f 177/96/8 184/97/8 176/97/8
f 175/98/6 182/99/6 174/99/6
f 180/90/12 187/91/12 179/91/12
f 178/105/9 185/104/9 177/104/9
f 176/102/7 183/103/7 175/103/7
f 174/74/5 181/75/5 173/75/5
f 154/124/9 196/125/9 153/125/9
f 155/114/12 193/112/12 194/114/12
f 150/126/6 190/127/6 191/126/6
f 153/128/8 189/129/8 152/129/8
f 155/130/10 195/124/10 154/124/10
f 149/111/13 193/112/13 156/112/13
f 150/131/5 192/111/5 149/111/5
f 152/129/7 190/127/7 151/127/7
f 195/105/9 200/132/9 196/104/9
f 194/91/12 203/133/12 199/91/12
f 190/98/6 198/99/6 191/99/6
f 196/96/8 197/134/8 189/97/8
f 194/94/10 204/135/10 195/95/10
f 192/92/13 203/136/13 193/93/13
f 191/74/5 202/75/5 192/75/5
f 189/102/7 201/137/7 190/103/7
f 86/43/5 88/44/5 87/44/5
f 88/45/6 90/46/6 89/46/6
f 90/47/7 92/48/7 91/48/7
f 92/48/8 94/49/8 93/49/8
f 94/50/9 96/51/9 95/51/9
f 96/51/10 98/52/10 97/52/10
f 90/55/11 88/138/11 86/139/11
f 86/139/11 100/140/11 98/53/11
f 98/53/11 96/141/11 94/54/11
f 94/54/11 92/142/11 90/55/11
f 90/55/11 86/139/11 98/53/11
f 98/56/12 100/57/12 99/57/12
f 100/57/13 86/58/13 85/58/13
f 89/59/6 111/59/6 110/60/6
f 102/61/14 104/143/14 103/62/14
f 106/61/15 108/143/15 107/62/15
f 114/64/16 115/65/16 123/65/16
f 95/66/9 114/66/9 113/67/9
f 85/68/13 109/68/13 116/69/13
f 87/60/5 110/60/5 109/68/5
f 91/70/7 112/70/7 111/59/7
f 97/71/10 115/71/10 114/66/10
f 93/72/8 113/72/8 112/70/8
f 99/69/12 116/69/12 115/73/12
f 118/74/9 126/74/9 125/75/9
f 113/76/19 121/76/19 120/77/19
f 110/78/20 111/79/20 119/79/20
f 116/80/21 124/80/21 123/81/21
f 113/82/22 114/83/22 122/83/22
f 112/84/23 120/84/23 119/85/23
f 109/86/24 110/87/24 118/87/24
f 109/88/25 117/88/25 124/89/25
f 132/90/11 140/90/11 139/91/11
f 117/92/8 125/92/8 132/93/8
f 123/94/6 131/94/6 130/95/6
f 121/96/13 129/96/13 128/97/13
f 119/98/10 127/98/10 126/99/10
f 124/90/7 132/90/7 131/91/7
f 122/100/5 130/100/5 129/101/5
f 120/102/12 128/102/12 127/103/12
f 135/98/26 143/98/26 142/99/26
f 129/104/11 130/105/11 138/105/11
f 128/102/11 136/102/11 135/103/11
f 125/75/11 126/74/11 134/74/11
f 125/92/11 133/92/11 140/93/11
f 130/95/11 131/94/11 139/94/11
f 129/96/11 137/96/11 136/97/11
f 126/99/11 127/98/11 135/98/11
f 148/93/27 141/92/27 149/92/27
f 139/91/28 140/90/28 148/90/28
f 138/105/29 146/105/29 145/104/29
f 135/103/30 136/102/30 144/102/30
f 134/74/31 142/74/31 141/75/31
f 140/93/32 133/92/32 141/92/32
f 139/94/33 147/94/33 146/95/33
f 136/97/34 137/96/34 145/96/34
f 197/106/7 160/118/7 159/107/7
f 147/94/35 155/94/35 154/95/35
f 144/97/36 145/96/36 153/96/36
f 143/98/37 151/98/37 150/99/37
f 147/91/38 148/90/38 156/90/38
f 146/105/39 154/105/39 153/104/39
f 143/103/40 144/102/40 152/102/40
f 142/74/41 150/74/41 149/75/41
f 164/90/11 172/90/11 171/91/11
f 198/109/5 158/109/5 157/110/5
f 202/111/13 157/111/13 164/112/13
f 199/114/10 163/114/10 162/115/10
f 200/117/8 161/120/8 160/118/8
f 201/119/6 159/144/6 158/109/6
f 203/113/12 164/112/12 163/114/12
f 204/116/9 162/115/9 161/120/9
f 169/96/42 177/96/42 176/97/42
f 161/104/11 162/105/11 170/105/11
f 160/102/11 168/102/11 167/103/11
f 157/75/11 158/74/11 166/74/11
f 157/92/11 165/92/11 172/93/11
f 162/95/11 163/94/11 171/94/11
f 161/96/11 169/96/11 168/97/11
f 158/99/11 159/98/11 167/98/11
f 173/92/13 181/92/13 188/93/13
f 166/99/43 167/98/43 175/98/43
f 172/90/44 180/90/44 179/91/44
f 169/104/45 170/105/45 178/105/45
f 168/102/46 176/102/46 175/103/46
f 165/75/47 166/74/47 174/74/47
f 165/92/48 173/92/48 180/93/48
f 170/95/49 171/94/49 179/94/49
f 188/123/50 181/145/50 182/146/50
f 182/146/50 183/147/50 184/121/50
f 184/121/50 185/148/50 186/122/50
f 186/122/50 187/149/50 188/123/50
f 188/123/50 182/146/50 184/121/50
f 179/94/10 187/94/10 186/95/10
f 177/96/8 185/96/8 184/97/8
f 175/98/6 183/98/6 182/99/6
f 180/90/12 188/90/12 187/91/12
f 178/105/9 186/105/9 185/104/9
f 176/102/7 184/102/7 183/103/7
f 174/74/5 182/74/5 181/75/5
f 154/124/9 195/124/9 196/125/9
f 155/114/12 156/112/12 193/112/12
f 150/126/6 151/127/6 190/127/6
f 153/128/8 196/128/8 189/129/8
f 155/130/10 194/130/10 195/124/10
f 149/111/13 192/111/13 193/112/13
f 150/131/5 191/131/5 192/111/5
f 152/129/7 189/129/7 190/127/7
f 195/105/9 204/150/9 200/132/9
f 194/91/12 193/90/12 203/133/12
f 190/98/6 201/151/6 198/99/6
f 196/96/8 200/152/8 197/134/8
f 194/94/10 199/94/10 204/135/10
f 192/92/13 202/92/13 203/136/13
f 191/74/5 198/74/5 202/75/5
f 189/102/7 197/153/7 201/137/7
