# Blender 4.4.0
# www.blender.org
mtllib candle_338x01.mtl
o Candle_338x1
v 0.012973 1.291688 0.008097
v 0.005132 1.326608 0.001517
v -0.002248 1.327210 -0.004675
v -0.014700 1.284463 -0.015124
v -0.025308 1.212213 -0.024025
v -0.029921 1.145985 -0.027895
v -0.025308 1.071929 -0.024025
v -0.019477 1.052280 -0.019132
v -0.027131 1.052280 0.001896
v -0.034743 1.071929 0.001896
v -0.040764 1.145985 0.001896
v -0.034743 1.212213 0.001896
v -0.020896 1.284463 0.001896
v -0.004640 1.327210 0.001896
v 0.004994 1.326608 0.001896
v 0.015229 1.291688 0.001896
v 0.024862 1.236296 0.001896
v 0.039914 1.173680 0.001896
v 0.047139 1.143576 0.001896
v 0.048945 1.117085 0.001896
v 0.042925 1.085777 0.001896
v 0.034504 1.063710 0.001896
v 0.031077 1.057459 0.001896
v 0.021801 1.050604 0.001896
v 0.010711 1.065928 0.001896
v 0.001235 1.078631 0.001896
v -0.004411 1.080445 0.001896
v -0.016308 1.066129 0.001896
v -0.022430 1.052228 0.001896
v -0.027131 1.052280 0.001896
v -0.034743 1.071929 0.001896
v -0.040764 1.145985 0.001896
v -0.034743 1.212213 0.001896
v -0.020896 1.284463 0.001896
v -0.004640 1.327210 0.001896
v 0.004994 1.326608 0.001896
v 0.015229 1.291688 0.001896
v 0.024862 1.236296 0.001896
v 0.039914 1.173680 0.001896
v 0.047139 1.143576 0.001896
v 0.048945 1.117085 0.001896
v 0.042925 1.085777 0.001896
v 0.034504 1.063710 0.001896
v 0.031077 1.057459 0.001896
v 0.021801 1.050604 0.001896
v 0.010711 1.065928 0.001896
v 0.001235 1.078631 0.001896
v -0.004411 1.080445 0.001896
v -0.016308 1.066129 0.001896
v -0.022430 1.052228 0.001896
v 0.020352 1.236296 0.014289
v 0.031883 1.173680 0.023964
v 0.037417 1.143576 0.028608
v 0.038801 1.117085 0.029769
v 0.034189 1.085777 0.025899
v 0.027738 1.063710 0.020486
v 0.025113 1.057459 0.018283
v 0.018007 1.050604 0.012321
v 0.009512 1.065928 0.005193
v 0.002252 1.078631 -0.000899
v -0.002073 1.080445 -0.004528
v -0.011186 1.066129 -0.012175
v -0.015876 1.052228 -0.016110
v -0.005863 1.291688 0.010251
v -0.000745 1.326608 0.001387
v 0.004072 1.327210 -0.006956
v 0.012200 1.284463 -0.021034
v 0.019124 1.212213 -0.033027
v 0.022134 1.145985 -0.038241
v 0.019124 1.071929 -0.033027
v 0.015317 1.052280 -0.026434
v -0.010679 1.236296 0.018594
v -0.018205 1.173680 0.031629
v -0.021818 1.143576 0.037886
v -0.022721 1.117085 0.039450
v -0.019710 1.085777 0.034236
v -0.015500 1.063710 0.026944
v -0.013786 1.057459 0.023975
v -0.009149 1.050604 0.015943
v -0.003604 1.065928 0.006339
v 0.001135 1.078631 -0.001869
v 0.003957 1.080445 -0.006758
v 0.009906 1.066129 -0.017061
v 0.012967 1.052228 -0.022363
v -0.001094 0.009568 -0.074597
v -0.001094 0.950801 -0.074597
v 0.048731 0.009568 -0.052827
v 0.048731 0.950801 -0.052827
v 0.069369 0.009568 -0.000269
v 0.069369 0.950801 -0.000269
v 0.048731 0.009568 0.052289
v 0.048731 0.950801 0.052289
v -0.001094 0.009568 0.074059
v -0.001094 0.950801 0.074059
v -0.050920 0.009568 0.052289
v -0.050920 0.950801 0.052289
v -0.071558 0.009568 -0.000269
v -0.071558 0.950801 -0.000269
v -0.050920 0.009568 -0.052827
v -0.050920 0.950801 -0.052827
v -0.000502 1.074340 0.025556
v -0.000502 0.951956 0.025556
v -0.000502 1.074340 -0.022189
v -0.000502 0.951956 -0.022189
v 0.023370 1.074340 0.001683
v 0.023370 0.951956 0.001683
v -0.024374 1.074340 0.001683
v -0.024374 0.951956 0.001683
vn -0.8660 -0.0000 -0.5000
vn -0.6428 -0.0000 0.7660
vn -0.0000 -0.0000 1.0000
vn -0.6428 -0.0000 0.7661
vn 0.4004 -0.0000 -0.9163
vn 0.9308 -0.0000 -0.3655
vn 0.9308 -0.0000 0.3655
vn 0.4004 -0.0000 0.9163
vn -0.4004 -0.0000 0.9163
vn -0.9308 -0.0000 0.3655
vn -0.0000 1.0000 -0.0000
vn -0.9308 -0.0000 -0.3655
vn -0.4004 -0.0000 -0.9163
vn -0.0000 -1.0000 -0.0000
vn 1.0000 -0.0000 -0.0000
vn -0.0000 -0.0000 -1.0000
vt 0.418300 0.719982
vt 0.421226 0.722011
vt 0.416698 0.722340
vt 0.536146 0.665065
vt 0.540422 0.668556
vt 0.533131 0.668689
vt 0.416698 0.719774
vt 0.417008 0.719076
vt 0.417625 0.719523
vt 0.417251 0.719061
vt 0.418305 0.727052
vt 0.417287 0.724604
vt 0.420465 0.725266
vt 0.420980 0.723068
vt 0.419819 0.728431
vt 0.419324 0.728478
vt 0.420201 0.727200
vt 0.421209 0.721094
vt 0.420766 0.720033
vt 0.418584 0.719904
vt 0.420036 0.719092
vt 0.420239 0.719297
vt 0.419020 0.719440
vt 0.419528 0.718882
vt 0.533631 0.664594
vt 0.534262 0.663508
vt 0.535160 0.664274
vt 0.534652 0.663505
vt 0.534779 0.676347
vt 0.533631 0.672352
vt 0.538574 0.673683
vt 0.539823 0.670221
vt 0.536926 0.678677
vt 0.536127 0.678711
vt 0.537775 0.676746
vt 0.540571 0.667091
vt 0.540072 0.665360
vt 0.536614 0.664965
vt 0.539090 0.663794
vt 0.539374 0.664140
vt 0.537400 0.664263
vt 0.538320 0.663415
vt 0.024836 0.944739
vt 0.026466 0.943035
vt 0.029740 0.943035
vt 0.030415 0.938924
vt 0.029740 0.934812
vt 0.026466 0.934812
vt 0.024836 0.933109
vt 0.025818 0.924250
vt 0.024188 0.925953
vt 0.023513 0.930064
vt 0.023167 0.942168
vt 0.024285 0.936902
vt 0.026580 0.935049
vt 0.024350 0.924861
vt 0.025025 0.928972
vt 0.023206 0.943035
vt 0.030997 0.908925
vt 0.028751 0.913611
vt 0.029525 0.915858
vt 0.064093 0.976217
vt 0.061904 0.984774
vt 0.061904 0.976217
vt 0.026496 0.937298
vt 0.025462 0.940315
vt 0.024083 0.942333
vt 0.023250 0.939919
vt 0.025664 0.934884
vt 0.030809 0.913980
vt 0.031772 0.911172
vt 0.031850 0.909078
vt 0.029714 0.910803
vt 0.028673 0.915705
vt 0.064093 0.984774
s 0
usemtl 336Light
f 82/1/1 74/2/1 69/3/1
f 61/1/2 53/2/2 6/3/2
f 27/4/3 19/5/3 11/6/3
f 48/1/3 40/2/3 32/3/3
f 69/3/1 70/7/1 82/1/1
f 70/7/1 71/8/1 83/9/1
f 71/8/1 84/10/1 83/9/1
f 70/7/1 83/9/1 82/1/1
f 67/11/1 68/12/1 72/13/1
f 68/12/1 69/3/1 73/14/1
f 72/13/1 68/12/1 73/14/1
f 65/15/1 66/16/1 64/17/1
f 66/16/1 67/11/1 64/17/1
f 72/13/1 64/17/1 67/11/1
f 74/2/1 73/14/1 69/3/1
f 74/2/1 82/1/1 75/18/1
f 76/19/1 75/18/1 81/20/1
f 81/20/1 75/18/1 82/1/1
f 78/21/1 77/22/1 80/23/1
f 77/22/1 76/19/1 80/23/1
f 80/23/1 79/24/1 78/21/1
f 81/20/1 80/23/1 76/19/1
f 6/3/2 7/7/2 61/1/2
f 7/7/2 8/8/2 62/9/2
f 8/8/2 63/10/2 62/9/2
f 7/7/2 62/9/2 61/1/2
f 4/11/2 5/12/2 51/13/2
f 5/12/2 6/3/2 52/14/2
f 51/13/2 5/12/2 52/14/2
f 2/15/2 3/16/2 1/17/2
f 3/16/2 4/11/2 1/17/2
f 51/13/2 1/17/2 4/11/2
f 53/2/2 52/14/2 6/3/2
f 53/2/2 61/1/2 54/18/2
f 55/19/2 54/18/2 60/20/2
f 60/20/2 54/18/2 61/1/2
f 57/21/4 56/22/4 59/23/4
f 56/22/2 55/19/2 59/23/2
f 59/23/2 58/24/2 57/21/2
f 60/20/2 59/23/2 55/19/2
f 11/6/3 10/25/3 27/4/3
f 10/25/3 9/26/3 28/27/3
f 9/26/3 29/28/3 28/27/3
f 10/25/3 28/27/3 27/4/3
f 13/29/3 12/30/3 17/31/3
f 12/30/3 11/6/3 18/32/3
f 17/31/3 12/30/3 18/32/3
f 15/33/3 14/34/3 16/35/3
f 14/34/3 13/29/3 16/35/3
f 17/31/3 16/35/3 13/29/3
f 19/5/3 18/32/3 11/6/3
f 19/5/3 27/4/3 20/36/3
f 21/37/3 20/36/3 26/38/3
f 26/38/3 20/36/3 27/4/3
f 23/39/3 22/40/3 25/41/3
f 22/40/3 21/37/3 25/41/3
f 25/41/3 24/42/3 23/39/3
f 26/38/3 25/41/3 21/37/3
f 32/3/3 31/7/3 48/1/3
f 31/7/3 30/8/3 49/9/3
f 30/8/3 50/10/3 49/9/3
f 31/7/3 49/9/3 48/1/3
f 34/11/3 33/12/3 38/13/3
f 33/12/3 32/3/3 39/14/3
f 38/13/3 33/12/3 39/14/3
f 36/15/3 35/16/3 37/17/3
f 35/16/3 34/11/3 37/17/3
f 38/13/3 37/17/3 34/11/3
f 40/2/3 39/14/3 32/3/3
f 40/2/3 48/1/3 41/18/3
f 42/19/3 41/18/3 47/20/3
f 47/20/3 41/18/3 48/1/3
f 44/21/3 43/22/3 46/23/3
f 43/22/3 42/19/3 46/23/3
f 46/23/3 45/24/3 44/21/3
f 47/20/3 46/23/3 42/19/3
f 86/43/5 87/44/5 85/43/5
f 88/45/6 89/46/6 87/45/6
f 90/46/7 91/47/7 89/46/7
f 92/48/8 93/49/8 91/48/8
f 94/50/9 95/51/9 93/50/9
f 96/51/10 97/52/10 95/51/10
f 98/53/11 94/54/11 90/55/11
f 98/56/12 99/57/12 97/56/12
f 100/58/13 85/43/13 99/58/13
f 91/59/14 95/60/14 99/61/14
f 102/62/15 103/63/15 101/64/15
f 106/62/16 107/63/16 105/64/16
f 86/43/5 88/44/5 87/44/5
f 88/45/6 90/46/6 89/46/6
f 90/46/7 92/47/7 91/47/7
f 92/48/8 94/49/8 93/49/8
f 94/50/9 96/51/9 95/51/9
f 96/51/10 98/52/10 97/52/10
f 90/55/11 88/65/11 86/66/11
f 86/66/11 100/67/11 98/53/11
f 98/53/11 96/68/11 94/54/11
f 94/54/11 92/69/11 90/55/11
f 90/55/11 86/66/11 98/53/11
f 98/56/12 100/57/12 99/57/12
f 100/58/13 86/43/13 85/43/13
f 99/61/14 85/70/14 87/71/14
f 87/71/14 89/72/14 91/59/14
f 91/59/14 93/73/14 95/60/14
f 95/60/14 97/74/14 99/61/14
f 99/61/14 87/71/14 91/59/14
f 102/62/15 104/75/15 103/63/15
f 106/62/16 108/75/16 107/63/16
