{
	"asset":{
		"generator":"Khronos glTF Blender I/O v5.1.18",
		"version":"2.0"
	},
	"scene":0,
	"scenes":[
		{
			"name":"Scene",
			"nodes":[
				0
			]
		}
	],
	"nodes":[
		{
			"mesh":0,
			"name":"cannon_702"
		}
	],
	"materials":[
		{
			"doubleSided":true,
			"name":"Material",
			"pbrMetallicRoughness":{
				"baseColorTexture":{
					"index":0
				},
				"metallicFactor":0,
				"roughnessFactor":0.5
			}
		}
	],
	"meshes":[
		{
			"name":"Cylinder.002",
			"primitives":[
				{
					"attributes":{
						"POSITION":0,
						"NORMAL":1,
						"TEXCOORD_0":2
					},
					"indices":3,
					"material":0
				}
			]
		}
	],
	"textures":[
		{
			"sampler":0,
			"source":0
		}
	],
	"images":[
		{
			"mimeType":"image/png",
			"name":"702cannon",
			"uri":"702cannon.png"
		}
	],
	"accessors":[
		{
			"bufferView":0,
			"componentType":5126,
			"count":1598,
			"max":[
				4.2635722160339355,
				2.0025217533111572,
				2.5504164695739746
			],
			"min":[
				0.010451793670654297,
				0.0025217533111572266,
				-0.0027429163455963135
			],
			"type":"VEC3"
		},
		{
			"bufferView":1,
			"componentType":5126,
			"count":1598,
			"type":"VEC3"
		},
		{
			"bufferView":2,
			"componentType":5126,
			"count":1598,
			"type":"VEC2"
		},
		{
			"bufferView":3,
			"componentType":5123,
			"count":2592,
			"type":"SCALAR"
		}
	],
	"bufferViews":[
		{
			"buffer":0,
			"byteLength":19176,
			"byteOffset":0,
			"target":34962
		},
		{
			"buffer":0,
			"byteLength":19176,
			"byteOffset":19176,
			"target":34962
		},
		{
			"buffer":0,
			"byteLength":12784,
			"byteOffset":38352,
			"target":34962
		},
		{
			"buffer":0,
			"byteLength":5184,
			"byteOffset":51136,
			"target":34963
		}
	],
	"samplers":[
		{
			"magFilter":9728,
			"minFilter":9984
		}
	],
	"buffers":[
		{
			"byteLength":56320,
			"uri":"cannon_702.bin"
		}
	]
}
