{
	"asset":{
		"generator":"Khronos glTF Blender I/O v4.4.55",
		"version":"2.0"
	},
	"scene":0,
	"scenes":[
		{
			"name":"Scene",
			"nodes":[
				0
			]
		}
	],
	"nodes":[
		{
			"mesh":0,
			"name":"cart"
		}
	],
	"materials":[
		{
			"doubleSided":true,
			"name":"Material",
			"pbrMetallicRoughness":{
				"baseColorTexture":{
					"index":0
				},
				"metallicFactor":0,
				"roughnessFactor":0.5
			}
		},
		{
			"doubleSided":true,
			"name":"Material.001",
			"pbrMetallicRoughness":{
				"baseColorTexture":{
					"index":1
				},
				"metallicFactor":0,
				"roughnessFactor":0.5
			}
		},
		{
			"doubleSided":true,
			"name":"Material.002",
			"pbrMetallicRoughness":{
				"baseColorTexture":{
					"index":2
				},
				"metallicFactor":0,
				"roughnessFactor":0.5
			}
		},
		{
			"doubleSided":true,
			"name":"Material.004",
			"pbrMetallicRoughness":{
				"baseColorTexture":{
					"index":3
				},
				"metallicFactor":0,
				"roughnessFactor":0.5
			}
		},
		{
			"doubleSided":true,
			"name":"Material.006",
			"pbrMetallicRoughness":{
				"baseColorTexture":{
					"index":4
				},
				"metallicFactor":0,
				"roughnessFactor":0.5
			}
		}
	],
	"meshes":[
		{
			"name":"Cube.004",
			"primitives":[
				{
					"attributes":{
						"POSITION":0,
						"NORMAL":1,
						"TEXCOORD_0":2
					},
					"indices":3,
					"material":0
				},
				{
					"attributes":{
						"POSITION":4,
						"NORMAL":5,
						"TEXCOORD_0":6
					},
					"indices":7,
					"material":1
				},
				{
					"attributes":{
						"POSITION":8,
						"NORMAL":9,
						"TEXCOORD_0":10
					},
					"indices":11,
					"material":2
				},
				{
					"attributes":{
						"POSITION":12,
						"NORMAL":13,
						"TEXCOORD_0":14
					},
					"indices":15,
					"material":3
				},
				{
					"attributes":{
						"POSITION":16,
						"NORMAL":17,
						"TEXCOORD_0":18
					},
					"indices":19,
					"material":4
				}
			]
		}
	],
	"textures":[
		{
			"sampler":0,
			"source":0
		},
		{
			"sampler":0,
			"source":1
		},
		{
			"sampler":0,
			"source":2
		},
		{
			"sampler":0,
			"source":3
		},
		{
			"sampler":0,
			"source":4
		}
	],
	"images":[
		{
			"mimeType":"image/png",
			"name":"652cart",
			"uri":"652cart.png"
		},
		{
			"mimeType":"image/png",
			"name":"660cart",
			"uri":"660cart.png"
		},
		{
			"mimeType":"image/png",
			"name":"773cart",
			"uri":"773cart.png"
		},
		{
			"mimeType":"image/png",
			"name":"757cart",
			"uri":"757cart.png"
		},
		{
			"mimeType":"image/png",
			"name":"301cart",
			"uri":"301cart.png"
		}
	],
	"accessors":[
		{
			"bufferView":0,
			"componentType":5126,
			"count":96,
			"max":[
				3,
				1.9800372123718262,
				-4
			],
			"min":[
				-3,
				1.3000000715255737,
				-12
			],
			"type":"VEC3"
		},
		{
			"bufferView":1,
			"componentType":5126,
			"count":96,
			"type":"VEC3"
		},
		{
			"bufferView":2,
			"componentType":5126,
			"count":96,
			"type":"VEC2"
		},
		{
			"bufferView":3,
			"componentType":5123,
			"count":144,
			"type":"SCALAR"
		},
		{
			"bufferView":4,
			"componentType":5126,
			"count":102,
			"max":[
				3,
				2.180037260055542,
				-2
			],
			"min":[
				-3,
				1.3000000715255737,
				-4
			],
			"type":"VEC3"
		},
		{
			"bufferView":5,
			"componentType":5126,
			"count":102,
			"type":"VEC3"
		},
		{
			"bufferView":6,
			"componentType":5126,
			"count":102,
			"type":"VEC2"
		},
		{
			"bufferView":7,
			"componentType":5123,
			"count":168,
			"type":"SCALAR"
		},
		{
			"bufferView":8,
			"componentType":5126,
			"count":3824,
			"max":[
				3.0212740898132324,
				3.3011298179626465,
				-3.9000000953674316
			],
			"min":[
				-3.0212740898132324,
				2,
				-12.091548919677734
			],
			"type":"VEC3"
		},
		{
			"bufferView":9,
			"componentType":5126,
			"count":3824,
			"type":"VEC3"
		},
		{
			"bufferView":10,
			"componentType":5126,
			"count":3824,
			"type":"VEC2"
		},
		{
			"bufferView":11,
			"componentType":5123,
			"count":6072,
			"type":"SCALAR"
		},
		{
			"bufferView":12,
			"componentType":5126,
			"count":240,
			"max":[
				3.499999523162842,
				1.9403536319732666,
				-1.1999998092651367
			],
			"min":[
				-3.499999523162842,
				1.559930443763733,
				-2.195058822631836
			],
			"type":"VEC3"
		},
		{
			"bufferView":13,
			"componentType":5126,
			"count":240,
			"type":"VEC3"
		},
		{
			"bufferView":14,
			"componentType":5126,
			"count":240,
			"type":"VEC2"
		},
		{
			"bufferView":15,
			"componentType":5123,
			"count":408,
			"type":"SCALAR"
		},
		{
			"bufferView":16,
			"componentType":5126,
			"count":88,
			"max":[
				4.116148471832275,
				1.7000000476837158,
				-0.6999998092651367
			],
			"min":[
				-4.116148471832275,
				0.8094438910484314,
				-1.6000003814697266
			],
			"type":"VEC3"
		},
		{
			"bufferView":17,
			"componentType":5126,
			"count":88,
			"type":"VEC3"
		},
		{
			"bufferView":18,
			"componentType":5126,
			"count":88,
			"type":"VEC2"
		},
		{
			"bufferView":19,
			"componentType":5123,
			"count":180,
			"type":"SCALAR"
		}
	],
	"bufferViews":[
		{
			"buffer":0,
			"byteLength":1152,
			"byteOffset":0,
			"target":34962
		},
		{
			"buffer":0,
			"byteLength":1152,
			"byteOffset":1152,
			"target":34962
		},
		{
			"buffer":0,
			"byteLength":768,
			"byteOffset":2304,
			"target":34962
		},
		{
			"buffer":0,
			"byteLength":288,
			"byteOffset":3072,
			"target":34963
		},
		{
			"buffer":0,
			"byteLength":1224,
			"byteOffset":3360,
			"target":34962
		},
		{
			"buffer":0,
			"byteLength":1224,
			"byteOffset":4584,
			"target":34962
		},
		{
			"buffer":0,
			"byteLength":816,
			"byteOffset":5808,
			"target":34962
		},
		{
			"buffer":0,
			"byteLength":336,
			"byteOffset":6624,
			"target":34963
		},
		{
			"buffer":0,
			"byteLength":45888,
			"byteOffset":6960,
			"target":34962
		},
		{
			"buffer":0,
			"byteLength":45888,
			"byteOffset":52848,
			"target":34962
		},
		{
			"buffer":0,
			"byteLength":30592,
			"byteOffset":98736,
			"target":34962
		},
		{
			"buffer":0,
			"byteLength":12144,
			"byteOffset":129328,
			"target":34963
		},
		{
			"buffer":0,
			"byteLength":2880,
			"byteOffset":141472,
			"target":34962
		},
		{
			"buffer":0,
			"byteLength":2880,
			"byteOffset":144352,
			"target":34962
		},
		{
			"buffer":0,
			"byteLength":1920,
			"byteOffset":147232,
			"target":34962
		},
		{
			"buffer":0,
			"byteLength":816,
			"byteOffset":149152,
			"target":34963
		},
		{
			"buffer":0,
			"byteLength":1056,
			"byteOffset":149968,
			"target":34962
		},
		{
			"buffer":0,
			"byteLength":1056,
			"byteOffset":151024,
			"target":34962
		},
		{
			"buffer":0,
			"byteLength":704,
			"byteOffset":152080,
			"target":34962
		},
		{
			"buffer":0,
			"byteLength":360,
			"byteOffset":152784,
			"target":34963
		}
	],
	"samplers":[
		{
			"magFilter":9728,
			"minFilter":9984
		}
	],
	"buffers":[
		{
			"byteLength":153144,
			"uri":"cart_652.bin"
		}
	]
}
