{
	"asset":{
		"generator":"Khronos glTF Blender I/O v4.4.55",
		"version":"2.0"
	},
	"scene":0,
	"scenes":[
		{
			"name":"Scene",
			"nodes":[
				0
			]
		}
	],
	"nodes":[
		{
			"mesh":0,
			"name":"cauldron_995x00"
		}
	],
	"materials":[
		{
			"doubleSided":true,
			"name":"995cauldron",
			"pbrMetallicRoughness":{
				"baseColorTexture":{
					"index":0
				},
				"metallicFactor":0,
				"roughnessFactor":0.5
			}
		}
	],
	"meshes":[
		{
			"name":"Cylinder.001",
			"primitives":[
				{
					"attributes":{
						"POSITION":0,
						"NORMAL":1,
						"TEXCOORD_0":2,
						"TANGENT":3
					},
					"indices":4,
					"material":0
				}
			]
		}
	],
	"textures":[
		{
			"sampler":0,
			"source":0
		}
	],
	"images":[
		{
			"mimeType":"image/png",
			"name":"995cauldron",
			"uri":"995cauldron.png"
		}
	],
	"accessors":[
		{
			"bufferView":0,
			"componentType":5126,
			"count":472,
			"max":[
				0.7960804104804993,
				1.6764261722564697,
				0.7716882824897766
			],
			"min":[
				-0.7960804104804993,
				0.006533682346343994,
				-0.8042667508125305
			],
			"type":"VEC3"
		},
		{
			"bufferView":1,
			"componentType":5126,
			"count":472,
			"type":"VEC3"
		},
		{
			"bufferView":2,
			"componentType":5126,
			"count":472,
			"type":"VEC2"
		},
		{
			"bufferView":3,
			"componentType":5126,
			"count":472,
			"type":"VEC4"
		},
		{
			"bufferView":4,
			"componentType":5123,
			"count":660,
			"type":"SCALAR"
		}
	],
	"bufferViews":[
		{
			"buffer":0,
			"byteLength":5664,
			"byteOffset":0,
			"target":34962
		},
		{
			"buffer":0,
			"byteLength":5664,
			"byteOffset":5664,
			"target":34962
		},
		{
			"buffer":0,
			"byteLength":3776,
			"byteOffset":11328,
			"target":34962
		},
		{
			"buffer":0,
			"byteLength":7552,
			"byteOffset":15104,
			"target":34962
		},
		{
			"buffer":0,
			"byteLength":1320,
			"byteOffset":22656,
			"target":34963
		}
	],
	"samplers":[
		{
			"magFilter":9728,
			"minFilter":9984
		}
	],
	"buffers":[
		{
			"byteLength":23976,
			"uri":"cauldron_995x00.bin"
		}
	]
}
