{
	"asset":{
		"generator":"Khronos glTF Blender I/O v4.4.55",
		"version":"2.0"
	},
	"scene":0,
	"scenes":[
		{
			"name":"Scene",
			"nodes":[
				0
			]
		}
	],
	"nodes":[
		{
			"mesh":0,
			"name":"cavern_531x02"
		}
	],
	"materials":[
		{
			"doubleSided":true,
			"name":"531cavern",
			"pbrMetallicRoughness":{
				"baseColorTexture":{
					"index":0
				},
				"metallicFactor":0,
				"roughnessFactor":0.5
			}
		}
	],
	"meshes":[
		{
			"name":"Cube.085",
			"primitives":[
				{
					"attributes":{
						"POSITION":0,
						"NORMAL":1,
						"TEXCOORD_0":2,
						"TANGENT":3
					},
					"indices":4,
					"material":0
				}
			]
		}
	],
	"textures":[
		{
			"sampler":0,
			"source":0
		}
	],
	"images":[
		{
			"mimeType":"image/png",
			"name":"531cavern",
			"uri":"531cavern.png"
		}
	],
	"accessors":[
		{
			"bufferView":0,
			"componentType":5126,
			"count":278,
			"max":[
				2,
				5,
				0.7568186521530151
			],
			"min":[
				-2,
				0,
				-0.5
			],
			"type":"VEC3"
		},
		{
			"bufferView":1,
			"componentType":5126,
			"count":278,
			"type":"VEC3"
		},
		{
			"bufferView":2,
			"componentType":5126,
			"count":278,
			"type":"VEC2"
		},
		{
			"bufferView":3,
			"componentType":5126,
			"count":278,
			"type":"VEC4"
		},
		{
			"bufferView":4,
			"componentType":5123,
			"count":576,
			"type":"SCALAR"
		}
	],
	"bufferViews":[
		{
			"buffer":0,
			"byteLength":3336,
			"byteOffset":0,
			"target":34962
		},
		{
			"buffer":0,
			"byteLength":3336,
			"byteOffset":3336,
			"target":34962
		},
		{
			"buffer":0,
			"byteLength":2224,
			"byteOffset":6672,
			"target":34962
		},
		{
			"buffer":0,
			"byteLength":4448,
			"byteOffset":8896,
			"target":34962
		},
		{
			"buffer":0,
			"byteLength":1152,
			"byteOffset":13344,
			"target":34963
		}
	],
	"samplers":[
		{
			"magFilter":9728,
			"minFilter":9984
		}
	],
	"buffers":[
		{
			"byteLength":14496,
			"uri":"cavern_531x02.bin"
		}
	]
}
