# Blender 4.0.1
# www.blender.org
mtllib chair.mtl
o Wood_Chair
v -0.250000 1.097428 -0.500000
v -0.250000 1.496692 -0.500000
v -0.500000 0.800000 -0.500000
v 0.500000 0.800000 -0.500000
v -0.500000 0.464575 -0.500000
v 0.500000 0.464575 -0.500000
v -0.500000 -0.000000 -0.500000
v -0.500000 0.000000 -0.309208
v -0.500000 0.464575 -0.500000
v -0.500000 0.464575 -0.309208
v 0.500000 0.464575 -0.309208
v 0.500000 0.464575 -0.500000
v 0.500000 -0.000000 -0.500000
v 0.500000 0.000000 -0.309208
v -0.315567 0.000000 -0.309208
v -0.315567 -0.000000 -0.500000
v -0.315567 0.464575 -0.500000
v -0.315567 0.464575 -0.309208
v 0.315567 0.464575 -0.309208
v 0.315567 0.464575 -0.500000
v 0.315567 0.000000 -0.309208
v 0.315567 -0.000000 -0.500000
v -0.500000 0.800000 -0.500000
v -0.500000 0.800000 -0.321966
v -0.500000 1.097428 -0.500000
v -0.500000 1.097428 -0.321966
v -0.250000 0.800000 -0.321966
v -0.250000 0.800000 -0.500000
v -0.250000 1.097428 -0.500000
v -0.250000 1.097428 -0.321966
v -0.500000 1.496692 -0.500000
v -0.500000 1.097428 -0.500000
v -0.250000 1.496692 -0.000000
v -0.250000 1.097428 -0.000000
v -0.500000 1.496692 -0.000000
v -0.500000 1.097428 -0.000000
v -0.250000 1.496692 -0.320584
v -0.250000 1.097428 -0.320584
v -0.500000 1.496692 -0.320584
v -0.500000 1.097428 -0.320584
v -0.250000 1.496692 -0.412029
v -0.250000 1.097428 -0.412028
v -0.500000 1.496692 -0.412029
v -0.500000 1.097428 -0.412028
v -0.250000 1.600000 -0.412029
v -0.250000 1.600000 -0.320584
v -0.500000 1.600000 -0.412029
v -0.500000 1.600000 -0.320584
v -0.500000 0.800000 -0.000000
v 0.500000 0.800000 -0.000000
v -0.500000 0.464575 -0.000000
v 0.500000 0.464575 -0.000000
v -0.250000 1.097428 0.500000
v -0.250000 1.496692 0.500000
v -0.500000 0.800000 0.500000
v 0.500000 0.800000 0.500000
v -0.500000 0.464575 0.500000
v 0.500000 0.464575 0.500000
v -0.500000 0.000000 0.500000
v -0.500000 0.000000 0.309208
v -0.500000 0.464575 0.500000
v -0.500000 0.464575 0.309208
v 0.500000 0.464575 0.309208
v 0.500000 0.464575 0.500000
v 0.500000 0.000000 0.500000
v 0.500000 0.000000 0.309208
v -0.315567 0.000000 0.309208
v -0.315567 0.000000 0.500000
v -0.315567 0.464575 0.500000
v -0.315567 0.464575 0.309208
v 0.315567 0.464575 0.309208
v 0.315567 0.464575 0.500000
v 0.315567 0.000000 0.309208
v 0.315567 0.000000 0.500000
v -0.500000 0.800000 0.500000
v -0.500000 0.800000 0.321966
v -0.500000 1.097428 0.500000
v -0.500000 1.097428 0.321966
v -0.250000 0.800000 0.321966
v -0.250000 0.800000 0.500000
v -0.250000 1.097428 0.500000
v -0.250000 1.097428 0.321966
v -0.500000 1.496692 0.500000
v -0.500000 1.097428 0.500000
v -0.250000 1.496692 0.320584
v -0.250000 1.097428 0.320584
v -0.500000 1.496692 0.320584
v -0.500000 1.097428 0.320584
v -0.250000 1.496692 0.412028
v -0.250000 1.097428 0.412028
v -0.500000 1.496692 0.412028
v -0.500000 1.097428 0.412028
v -0.250000 1.600000 0.412028
v -0.250000 1.600000 0.320584
v -0.500000 1.600000 0.412028
v -0.500000 1.600000 0.320584
v -0.250000 0.800000 -0.500000
v -0.250000 0.464575 -0.500000
v -0.250000 0.800000 -0.000000
v -0.250000 0.464575 -0.000000
v -0.250000 0.800000 0.500000
v -0.250000 0.464575 0.500000
vn -1.0000 -0.0000 -0.0000
vn -0.0000 -0.0000 -1.0000
vn -0.0000 -1.0000 -0.0000
vn -0.0000 1.0000 -0.0000
vn 1.0000 -0.0000 -0.0000
vn -0.0000 -0.0000 1.0000
vt 0.223043 0.286136
vt 0.389575 0.286136
vt 0.389575 0.194657
vt 0.223043 0.194657
vt 0.253551 0.286311
vt 0.253551 0.193714
vt 0.087018 0.193714
vt 0.087018 0.286311
vt 0.320647 0.599705
vt 0.479142 0.714678
vt 0.521492 0.714678
vt 0.521492 0.903966
vt 0.479142 0.903966
vt 0.479142 0.714678
vt 0.479142 0.903966
vt 0.521492 0.903966
vt 0.042970 0.046382
vt 0.042970 0.191853
vt 0.131167 0.191853
vt 0.131167 0.046382
vt 0.130034 0.051139
vt 0.130034 0.188483
vt 0.044924 0.188483
vt 0.044924 0.051139
vt 0.153373 0.154832
vt 0.362725 0.732096
vt 0.426271 0.732096
vt 0.426271 0.901566
vt 0.362725 0.901566
vt 0.436955 0.722287
vt 0.436955 0.830785
vt 0.520221 0.830785
vt 0.520221 0.722287
vt 0.436955 0.830785
vt 0.520221 0.830785
vt 0.520221 0.722287
vt 0.436955 0.722287
vt 0.129875 0.572411
vt 0.129875 0.713979
vt 0.046422 0.713979
vt 0.046422 0.572411
vt 0.491323 0.815632
vt 0.520623 0.815632
vt 0.520623 0.906829
vt 0.491323 0.906829
vt 0.436955 0.904435
vt 0.520221 0.904435
vt 0.022573 0.442829
vt 0.285274 0.815632
vt 0.392049 0.815632
vt 0.392049 0.906829
vt 0.285274 0.906829
vt 0.276752 0.714678
vt 0.276752 0.903966
vt 0.434224 0.903966
vt 0.434224 0.714678
vt 0.434224 0.952930
vt 0.479142 0.952930
vt 0.426457 0.815632
vt 0.456914 0.815632
vt 0.456914 0.906829
vt 0.426457 0.906829
vt 0.479142 0.952930
vt 0.389575 0.193776
vt 0.389575 0.286136
vt 0.223043 0.286136
vt 0.223043 0.193776
vt 0.056510 0.194657
vt 0.056510 0.286136
vt 0.253551 0.286311
vt 0.087018 0.286311
vt 0.087018 0.193714
vt 0.253551 0.193714
vt 0.521492 0.903966
vt 0.131167 0.191853
vt 0.042970 0.191853
vt 0.042970 0.046382
vt 0.131167 0.046382
vt 0.084781 0.686512
vt 0.084781 0.517042
vt 0.148327 0.517042
vt 0.148327 0.686512
vt 0.436955 0.830785
vt 0.436955 0.904435
vt 0.436955 0.722287
vt 0.436955 0.830784
vt 0.046422 0.572411
vt 0.046422 0.713979
vt 0.079225 0.815632
vt 0.079225 0.906829
vt 0.049925 0.906829
vt 0.049925 0.815632
vt 0.178498 0.906829
vt 0.178498 0.815632
vt 0.144090 0.815632
vt 0.144090 0.906829
vt 0.113633 0.906829
vt 0.113633 0.815632
vt 0.056510 0.193776
vt 0.056510 0.286136
vt 0.355155 0.201695
vt 0.355155 0.478136
vt 0.521688 0.478136
vt 0.521688 0.201695
vt 0.420083 0.286311
vt 0.420083 0.193714
vt 0.188622 0.201695
vt 0.188622 0.478136
vt 0.420083 0.286311
vt 0.420083 0.193714
s 0
usemtl Wood_Chair_Texture
f 49/1/1 3/2/1 5/3/1 51/4/1
f 97/5/2 98/6/2 5/7/2 3/8/2
f 100/9/3 51/9/3 5/9/3 98/9/3
f 99/9/4 97/9/4 3/9/4 49/9/4
f 42/10/5 1/11/5 2/12/5 41/13/5
f 44/14/1 43/15/1 31/16/1 32/11/1
f 16/9/3 15/9/3 8/9/3 7/9/3
f 11/17/5 14/18/5 13/19/5 12/20/5
f 17/21/2 16/22/2 7/23/2 9/24/2
f 15/25/6 18/25/6 10/25/6 8/25/6
f 10/26/1 9/27/1 7/28/1 8/29/1
f 18/25/5 15/25/5 16/25/5 17/25/5
f 19/25/1 20/25/1 22/25/1 21/25/1
f 14/25/6 11/25/6 19/25/6 21/25/6
f 12/21/2 13/22/2 22/23/2 20/24/2
f 13/9/3 14/9/3 21/9/3 22/9/3
f 29/30/2 28/31/2 23/32/2 25/33/2
f 27/9/6 30/9/6 26/9/6 24/9/6
f 26/34/1 25/35/1 23/36/1 24/37/1
f 30/38/5 27/39/5 28/40/5 29/41/5
f 41/42/4 2/43/4 31/44/4 43/45/4
f 1/46/2 32/47/2 31/32/2 2/31/2
f 40/9/3 38/9/3 34/9/3 36/9/3
f 44/48/3 42/48/3 38/48/3 40/48/3
f 33/49/4 37/50/4 39/51/4 35/52/4
f 36/53/1 35/54/1 39/55/1 40/56/1
f 34/53/5 38/56/5 37/55/5 33/54/5
f 32/48/3 1/48/3 42/48/3 44/48/3
f 39/55/1 48/57/1 47/58/1 43/15/1
f 40/56/1 39/55/1 43/15/1 44/14/1
f 38/56/5 42/10/5 41/13/5 37/55/5
f 46/59/4 45/60/4 47/61/4 48/62/4
f 43/45/2 47/61/2 45/60/2 41/42/2
f 41/13/5 45/63/5 46/57/5 37/55/5
f 37/50/6 46/59/6 48/62/6 39/51/6
f 6/64/5 4/65/5 50/66/5 52/67/5
f 49/1/1 51/4/1 57/68/1 55/69/1
f 101/70/6 55/71/6 57/72/6 102/73/6
f 100/9/3 102/9/3 57/9/3 51/9/3
f 99/9/4 49/9/4 55/9/4 101/9/4
f 90/14/5 89/15/5 54/74/5 53/11/5
f 92/14/1 84/11/1 83/16/1 91/15/1
f 68/9/3 59/9/3 60/9/3 67/9/3
f 63/75/5 64/76/5 65/77/5 66/78/5
f 69/24/6 61/21/6 59/22/6 68/23/6
f 67/25/2 60/25/2 62/25/2 70/25/2
f 62/79/1 60/80/1 59/81/1 61/82/1
f 70/25/5 69/25/5 68/25/5 67/25/5
f 71/25/1 73/25/1 74/25/1 72/25/1
f 66/25/2 73/25/2 71/25/2 63/25/2
f 64/24/6 72/21/6 74/22/6 65/23/6
f 65/9/3 74/9/3 73/9/3 66/9/3
f 81/83/6 77/32/6 75/47/6 80/84/6
f 79/9/2 76/9/2 78/9/2 82/9/2
f 78/85/1 76/86/1 75/35/1 77/36/1
f 82/87/5 81/38/5 80/39/5 79/88/5
f 89/89/4 91/90/4 83/91/4 54/92/4
f 53/30/6 54/31/6 83/32/6 84/33/6
f 88/9/3 36/9/3 34/9/3 86/9/3
f 92/48/3 88/48/3 86/48/3 90/48/3
f 33/49/4 35/52/4 87/93/4 85/94/4
f 36/53/1 88/56/1 87/55/1 35/54/1
f 34/53/5 33/54/5 85/55/5 86/56/5
f 84/48/3 92/48/3 90/48/3 53/48/3
f 87/55/1 91/15/1 95/58/1 96/57/1
f 88/56/1 92/14/1 91/15/1 87/55/1
f 86/56/5 85/55/5 89/15/5 90/14/5
f 94/95/4 96/96/4 95/97/4 93/98/4
f 91/90/6 89/89/6 93/98/6 95/97/6
f 89/15/5 85/55/5 94/57/5 93/58/5
f 85/94/2 87/93/2 96/96/2 94/95/2
f 58/99/5 52/67/5 50/66/5 56/100/5
f 50/101/4 99/102/4 101/103/4 56/104/4
f 52/9/3 58/9/3 102/9/3 100/9/3
f 56/105/6 101/70/6 102/73/6 58/106/6
f 50/101/4 4/107/4 97/108/4 99/102/4
f 52/9/3 100/9/3 98/9/3 6/9/3
f 4/109/2 6/110/2 98/6/2 97/5/2
