# Blender 3.6.2
# www.blender.org
mtllib chair_369_06.mtl
o Chair
v -0.500000 0.666773 -0.500000
v 0.625000 0.166667 -0.500000
v 0.625000 0.666773 -0.500000
v -0.500000 0.000000 0.375000
v 0.625000 0.166667 0.500000
v -0.625000 0.166667 -0.500000
v 0.625000 1.833333 -0.500000
v -0.500000 0.000000 0.500000
v -0.500000 0.000000 -0.500000
v -0.625000 0.166667 0.500000
v -0.625000 0.666773 0.375000
v 0.125000 0.166667 -0.375000
v 0.625000 0.000000 -0.500000
v 0.125000 0.166667 0.375000
v -0.625000 0.000000 0.375000
v 0.625000 0.666773 0.375000
v 0.500000 0.166667 0.375000
v -0.625000 0.666773 0.500000
v 0.500000 0.166667 -0.375000
v -0.500000 0.000000 -0.375000
v 0.125000 0.000000 -0.375000
v -0.625000 0.000000 0.500000
v 0.625000 0.666773 -0.375000
v -0.625000 0.666773 -0.500000
v 0.125000 0.000000 0.375000
v 0.625000 0.500000 -0.500000
v -0.500000 0.166667 0.375000
v -0.125000 0.166667 0.375000
v -0.625000 0.000000 -0.500000
v -0.625000 0.666773 -0.375000
v -0.125000 0.166667 -0.375000
v 0.625000 0.000000 -0.375000
v -0.500000 0.166667 -0.375000
v -0.625000 0.000000 -0.375000
v 0.625000 0.000000 0.375000
v -0.125000 0.000000 -0.375000
v 0.500000 0.666773 -0.500000
v -0.125000 0.000000 0.375000
v 0.625000 0.666773 0.500000
v 0.625000 0.500000 0.500000
v 0.500000 0.000000 -0.500000
v -0.625000 1.833333 -0.500000
v 0.625000 0.000000 0.500000
v 0.500000 0.000000 -0.375000
v -0.625000 0.500000 -0.500000
v -0.625000 0.500000 0.500000
v 0.500000 0.000000 0.375000
v 0.625000 1.833333 -0.250000
v 0.500000 0.666773 0.500000
v 0.625000 0.833333 0.500000
v 0.500000 0.000000 0.500000
v 0.625000 0.833333 -0.250000
v -0.625000 0.833333 0.500000
v -0.625000 1.833333 -0.250000
v -0.625000 0.833333 -0.250000
v 0.500000 0.500000 0.375000
v 0.625000 0.500000 0.375000
v 0.500000 0.500000 0.500000
v 0.500000 0.500000 -0.375000
v 0.500000 0.500000 -0.500000
v 0.625000 0.500000 -0.375000
v -0.625000 0.500000 -0.375000
v -0.500000 0.500000 -0.500000
v -0.500000 0.500000 -0.375000
v -0.500000 0.500000 0.500000
v -0.503158 0.665499 0.500000
v -0.625000 0.500000 0.375000
v -0.500000 0.500000 0.375000
v 0.625000 1.833333 -0.375000
v -0.625000 1.833333 -0.375000
v 0.625000 0.166667 0.375000
v 0.625000 0.166667 -0.375000
v -0.500000 0.166667 0.500000
v 0.500000 0.166667 0.500000
v -0.500000 0.166667 -0.500000
v 0.500000 0.166667 -0.500000
v -0.625000 0.166667 0.375000
v -0.625000 0.166667 -0.375000
v 0.625000 0.833333 0.500000
v 0.625000 0.833333 -0.250000
v -0.625000 0.833333 0.500000
v -0.625000 0.833333 -0.250000
vn 1.0000 -0.0000 -0.0000
vn -0.0000 -0.0000 1.0000
vn -0.0000 1.0000 -0.0000
vn -1.0000 -0.0000 -0.0000
vn -0.0000 -1.0000 -0.0000
vn -0.0000 -0.0000 -1.0000
vt 0.377682 0.850582
vt 0.399834 0.900600
vt 0.244688 0.900600
vt 0.222408 0.201589
vt 0.244615 0.201589
vt 0.244615 0.249974
vt 0.111224 0.100419
vt 0.044201 0.052382
vt 0.222930 0.052382
vt 0.359434 0.286845
vt 0.359434 0.213838
vt 0.373323 0.104328
vt 0.866693 0.651345
vt 0.734356 0.651345
vt 0.734356 0.601378
vt 0.888735 0.901179
vt 0.888735 0.951146
vt 0.866693 0.951146
vt 0.888735 0.601378
vt 0.399834 0.600494
vt 0.377682 0.550476
vt 0.244485 0.850168
vt 0.244485 0.899970
vt 0.022091 0.899970
vt 0.022091 0.850168
vt 0.733849 0.478125
vt 0.711923 0.478125
vt 0.711923 0.290625
vt 0.733849 0.290625
vt 0.536514 0.509375
vt 0.536514 0.478125
vt 0.711923 0.509375
vt 0.536514 0.290625
vt 0.536514 0.259375
vt 0.711923 0.259375
vt 0.514588 0.478125
vt 0.514588 0.290625
vt 0.334615 0.101241
vt 0.334615 0.398972
vt 0.355369 0.398972
vt 0.355369 0.101241
vt 0.710733 0.100108
vt 0.732858 0.100108
vt 0.732858 0.201600
vt 0.710733 0.201600
vt 0.910806 0.551411
vt 0.954918 0.551411
vt 0.954918 0.601378
vt 0.910806 0.601378
vt 0.710733 0.051210
vt 0.732858 0.051210
vt 0.534245 0.054935
vt 0.534245 0.098337
vt 0.616911 0.098337
vt 0.616911 0.054935
vt 0.732858 0.232520
vt 0.732858 0.549732
vt 0.710733 0.232520
vt 0.022548 0.249974
vt 0.044193 0.201218
vt 0.511604 0.549732
vt 0.511604 0.232520
vt 0.533730 0.232520
vt 0.533730 0.201600
vt 0.511604 0.201600
vt 0.243970 0.601030
vt 0.243970 0.849120
vt 0.022629 0.849120
vt 0.022629 0.601030
vt 0.422013 0.600494
vt 0.422013 0.900600
vt 0.422013 0.550476
vt 0.399834 0.550476
vt 0.466263 0.901217
vt 0.466263 0.950000
vt 0.423253 0.950000
vt 0.423253 0.901217
vt 0.466345 0.550476
vt 0.466345 0.600494
vt 0.488510 0.550476
vt 0.488510 0.600494
vt 0.465431 0.598431
vt 0.423260 0.598431
vt 0.423260 0.552017
vt 0.465431 0.552017
vt 0.467265 0.903210
vt 0.467265 0.948960
vt 0.422402 0.948960
vt 0.422402 0.903210
vt 0.465663 0.900692
vt 0.465663 0.949631
vt 0.423443 0.949631
vt 0.423443 0.900692
vt 0.537108 0.261155
vt 0.515500 0.261155
vt 0.515500 0.220580
vt 0.537108 0.220580
vt 0.731575 0.261155
vt 0.731575 0.504604
vt 0.709968 0.504604
vt 0.709968 0.261155
vt 0.466345 0.900600
vt 0.466345 0.950617
vt 0.422013 0.950617
vt 0.511604 0.100108
vt 0.533730 0.100108
vt 0.488510 0.900600
vt 0.488510 0.950617
vt 0.511604 0.051210
vt 0.533730 0.051210
vt 0.422402 0.948960
vt 0.976975 0.601378
vt 0.976975 0.551411
vt 0.731575 0.220580
vt 0.709968 0.220580
vt 0.465663 0.551422
vt 0.465663 0.599757
vt 0.423443 0.599757
vt 0.423443 0.551422
vt 0.245235 0.249994
vt 0.245235 0.601267
vt 0.021699 0.601267
vt 0.021699 0.249994
vt 0.334774 0.399329
vt 0.334774 0.103289
vt 0.354785 0.103289
vt 0.354785 0.399329
vt 0.710979 0.052390
vt 0.617389 0.052390
vt 0.617389 0.097451
vt 0.710979 0.097451
vt 0.044702 0.051677
vt 0.044702 0.101175
vt 0.022518 0.101175
vt 0.022518 0.051677
vt 0.976975 0.901179
vt 0.976975 0.951146
vt 0.954918 0.951146
vt 0.954918 0.901179
vt 0.731575 0.545179
vt 0.709968 0.545179
vt 0.515500 0.545179
vt 0.515500 0.504604
vt 0.537108 0.504604
vt 0.537108 0.545179
vt 0.422717 0.552748
vt 0.467146 0.552748
vt 0.467146 0.599621
vt 0.422717 0.599621
vt 0.244030 0.902251
vt 0.244030 0.950099
vt 0.022702 0.950099
vt 0.022702 0.902251
vt 0.244688 0.950617
vt 0.399834 0.950617
vt 0.356979 0.103526
vt 0.356979 0.396056
vt 0.376510 0.396056
vt 0.376510 0.103526
vt 0.244688 0.850582
vt 0.910806 0.901179
vt 0.910806 0.951146
vt 0.376439 0.398106
vt 0.376439 0.103419
vt 0.356620 0.103419
vt 0.356620 0.398106
vt 0.022548 0.201589
vt 0.022461 0.051001
vt 0.044616 0.051001
vt 0.044056 0.100162
vt 0.022461 0.100540
vt 0.222178 0.101175
vt 0.222178 0.051677
vt 0.244363 0.051677
vt 0.244363 0.101175
vt 0.467362 0.605800
vt 0.488481 0.605800
vt 0.488481 0.897333
vt 0.467362 0.897333
vt 0.376411 0.395115
vt 0.357006 0.395115
vt 0.357006 0.102964
vt 0.376411 0.102964
vt 0.222930 0.100419
vt 0.155907 0.100419
vt 0.044201 0.100419
vt 0.601930 0.504604
vt 0.601930 0.261155
vt 0.645145 0.261155
vt 0.645145 0.504604
vt 0.221860 0.051001
vt 0.221860 0.100540
vt 0.244363 0.200170
vt 0.222178 0.200170
vt 0.888735 0.551411
vt 0.734356 0.551411
vt 0.244015 0.051001
vt 0.244015 0.100540
vt 0.376460 0.100134
vt 0.356489 0.100134
vt 0.356489 0.398118
vt 0.376460 0.398118
vt 0.622709 0.097202
vt 0.622709 0.054585
vt 0.533423 0.054585
vt 0.533423 0.097202
vt 0.359434 0.104328
vt 0.373323 0.396355
vt 0.359434 0.396355
vt 0.022518 0.200170
vt 0.044702 0.200170
s 0
usemtl Material.001
f 52/1/1 23/2/1 69/3/1
f 49/4/2 39/5/2 50/6/2
f 28/7/3 73/8/3 74/9/3
f 31/10/3 12/11/3 76/12/3
f 55/13/4 54/14/4 70/15/4
f 11/16/4 18/17/4 53/18/4
f 55/13/4 70/15/4 30/19/4
f 16/20/1 23/2/1 52/1/1 50/21/1
f 48/22/3 69/23/3 70/24/3 54/25/3
f 57/26/5 56/27/5 59/28/5 61/29/5
f 65/30/5 68/31/5 56/27/5 58/32/5
f 64/33/5 63/34/5 60/35/5 59/28/5
f 68/31/5 67/36/5 62/37/5 64/33/5
f 68/31/5 64/33/5 59/28/5 56/27/5
f 4/38/1 20/39/1 33/40/1 27/41/1
f 75/42/6 6/43/6 45/44/6 63/45/6
f 45/46/4 6/47/4 78/48/4 62/49/4
f 9/50/6 29/51/6 6/43/6 75/42/6
f 4/52/6 27/53/6 28/54/6 38/55/6
f 24/56/6 42/57/6 1/58/6
f 53/59/2 66/60/2 49/4/2 50/6/2
f 7/61/6 3/62/6 37/63/6
f 60/64/6 37/63/6 3/62/6 26/65/6
f 52/66/2 48/67/2 54/68/2 55/69/2
f 57/70/1 61/71/1 23/2/1 16/20/1
f 40/72/1 57/70/1 16/20/1 39/73/1
f 74/74/4 58/75/4 56/76/4 17/77/4
f 5/78/1 71/79/1 57/70/1 40/72/1
f 71/79/1 5/78/1 43/80/1 35/81/1
f 17/82/6 56/83/6 57/84/6 71/85/6
f 19/86/2 72/87/2 61/88/2 59/89/2
f 76/90/4 19/91/4 59/92/4 60/93/4
f 20/94/5 34/95/5 29/96/5 9/97/5
f 32/98/5 35/99/5 47/100/5 44/101/5
f 72/102/1 2/103/1 26/104/1 61/71/1
f 26/65/6 2/105/6 76/106/6 60/64/6
f 72/102/1 32/107/1 13/108/1 2/103/1
f 13/109/6 41/110/6 76/106/6 2/105/6
f 78/86/2 33/87/2 64/111/2 62/89/2
f 34/112/4 78/48/4 6/47/4 29/113/4
f 13/114/5 32/98/5 44/101/5 41/115/5
f 33/116/1 75/117/1 63/118/1 64/119/1
f 79/120/3 80/121/3 82/122/3 81/123/3
f 31/124/3 28/125/3 14/126/3 12/127/3
f 21/128/2 44/129/2 19/130/2 12/131/2
f 7/61/6 37/63/6 1/58/6 42/57/6
f 8/132/2 73/133/2 10/134/2 22/135/2
f 15/136/4 22/137/4 10/138/4 77/139/4
f 35/99/5 43/140/5 51/141/5 47/100/5
f 22/142/5 15/143/5 4/144/5 8/145/5
f 73/146/1 27/147/1 68/148/1 65/149/1
f 77/82/6 67/83/6 68/84/6 27/85/6
f 69/150/3 7/151/3 42/152/3 70/153/3
f 7/154/1 69/3/1 23/2/1 3/155/1
f 47/156/4 17/157/4 19/158/4 44/159/4
f 50/21/1 39/73/1 16/20/1
f 69/3/1 48/160/1 52/1/1
f 67/161/4 11/16/4 30/19/4 62/49/4
f 18/17/4 11/16/4 67/161/4 46/162/4
f 25/163/1 21/164/1 12/165/1 14/166/1
f 55/13/4 30/19/4 11/16/4 53/18/4
f 53/59/2 18/167/2 66/60/2
f 46/168/2 65/169/2 66/170/2 18/171/2
f 74/172/2 51/173/2 43/174/2 5/175/2
f 26/104/1 3/155/1 23/2/1 61/71/1
f 17/176/3 71/177/3 72/178/3 19/179/3
f 33/180/3 78/181/3 77/182/3 27/183/3
f 74/9/3 17/184/3 14/185/3
f 28/7/3 27/186/3 73/8/3
f 74/9/3 14/185/3 28/7/3
f 74/172/2 73/133/2 8/132/2 51/173/2
f 78/48/4 34/112/4 15/136/4 77/139/4
f 38/187/5 36/188/5 21/189/5 25/190/5
f 20/94/5 9/97/5 36/188/5
f 9/97/5 41/115/5 36/188/5
f 41/115/5 44/101/5 21/189/5
f 25/190/5 47/100/5 51/141/5
f 25/190/5 51/141/5 8/145/5
f 8/145/5 4/144/5 38/187/5
f 25/190/5 8/145/5 38/187/5
f 36/188/5 41/115/5 21/189/5
f 20/94/5 4/144/5 15/143/5 34/95/5
f 32/107/1 72/102/1 71/79/1 35/81/1
f 76/106/6 41/110/6 9/50/6 75/42/6
f 65/169/2 58/191/2 49/192/2 66/170/2
f 74/172/2 5/175/2 40/193/2 58/194/2
f 25/52/6 14/53/6 17/54/6 47/55/6
f 24/195/4 30/19/4 70/15/4 42/196/4
f 77/139/4 10/138/4 46/162/4 67/161/4
f 60/64/6 63/45/6 1/58/6 37/63/6
f 49/192/2 58/191/2 40/197/2 39/198/2
f 24/195/4 45/46/4 62/49/4 30/19/4
f 38/199/4 28/200/4 31/201/4 36/202/4
f 20/203/2 36/204/2 31/205/2 33/206/2
f 12/11/3 19/207/3 76/12/3
f 76/12/3 75/208/3 31/10/3
f 75/208/3 33/209/3 31/10/3
f 46/210/2 10/134/2 73/133/2 65/211/2
f 1/58/6 63/45/6 45/44/6 24/56/6
