# Blender 3.6.2
# www.blender.org
mtllib chair_873x18.mtl
o Chair
v 0.250000 1.000159 0.125000
v 1.375000 0.250000 0.125000
v 1.375000 1.000159 0.125000
v 0.250000 0.000000 1.175000
v 1.375000 0.250000 1.325000
v 0.125000 0.250000 0.125000
v 1.375000 2.750000 0.125000
v 0.250000 0.000000 1.325000
v 0.250000 0.000000 0.125000
v 0.125000 0.250000 1.325000
v 0.125000 1.000159 1.175000
v 0.875000 0.250000 0.275000
v 1.375000 0.000000 0.125000
v 0.875000 0.250000 1.175000
v 0.125000 0.000000 1.175000
v 1.375000 1.000159 1.175000
v 1.250000 0.250000 1.175000
v 0.125000 1.000159 1.325000
v 1.250000 0.250000 0.275000
v 0.250000 0.000000 0.275000
v 0.875000 0.000000 0.275000
v 0.125000 0.000000 1.325000
v 1.375000 1.000159 0.275000
v 0.125000 1.000159 0.125000
v 0.875000 0.000000 1.175000
v 1.375000 0.750000 0.125000
v 0.250000 0.250000 1.175000
v 0.625000 0.250000 1.175000
v 0.125000 0.000000 0.125000
v 0.125000 1.000159 0.275000
v 0.625000 0.250000 0.275000
v 1.375000 0.000000 0.275000
v 0.250000 0.250000 0.275000
v 0.125000 0.000000 0.275000
v 1.375000 0.000000 1.175000
v 0.625000 0.000000 0.275000
v 1.250000 1.000159 0.125000
v 0.625000 0.000000 1.175000
v 1.375000 1.000159 1.325000
v 1.375000 0.750000 1.325000
v 1.250000 0.000000 0.125000
v 0.125000 2.750000 0.125000
v 1.375000 0.000000 1.325000
v 1.250000 0.000000 0.275000
v 0.125000 0.750000 0.125000
v 0.125000 0.750000 1.325000
v 1.250000 0.000000 1.175000
v 1.375000 2.750000 0.425000
v 1.250000 1.000159 1.325000
v 1.375000 1.250000 1.325000
v 1.250000 0.000000 1.325000
v 1.375000 1.250000 0.425000
v 0.125000 1.250000 1.325000
v 0.125000 2.750000 0.425000
v 0.125000 1.250000 0.425000
v 1.250000 0.750000 1.175000
v 1.375000 0.750000 1.175000
v 1.250000 0.750000 1.325000
v 1.250000 0.750000 0.275000
v 1.250000 0.750000 0.125000
v 1.375000 0.750000 0.275000
v 0.125000 0.750000 0.275000
v 0.250000 0.750000 0.125000
v 0.250000 0.750000 0.275000
v 0.250000 0.750000 1.325000
v 0.246842 0.998248 1.325000
v 0.125000 0.750000 1.175000
v 0.250000 0.750000 1.175000
v 1.375000 2.750000 0.275000
v 0.125000 2.750000 0.275000
v 1.375000 0.250000 1.175000
v 1.375000 0.250000 0.275000
v 0.250000 0.250000 1.325000
v 1.250000 0.250000 1.325000
v 0.250000 0.250000 0.125000
v 1.250000 0.250000 0.125000
v 0.125000 0.250000 1.175000
v 0.125000 0.250000 0.275000
v 1.375000 1.250000 1.325000
v 1.375000 1.250000 0.425000
v 0.125000 1.250000 1.325000
v 0.125000 1.250000 0.425000
vn 1.0000 -0.0000 -0.0000
vn -0.0000 -0.0000 1.0000
vn -0.0000 1.0000 -0.0000
vn -1.0000 -0.0000 -0.0000
vn -0.0000 -1.0000 -0.0000
vn -0.0000 -0.0000 -1.0000
vt 0.377682 0.850582
vt 0.399834 0.900600
vt 0.244688 0.900600
vt 0.222408 0.201589
vt 0.244615 0.201589
vt 0.244615 0.249974
vt 0.111224 0.100419
vt 0.044201 0.052382
vt 0.222930 0.052382
vt 0.359434 0.286845
vt 0.359434 0.213838
vt 0.373323 0.104328
vt 0.866693 0.651345
vt 0.734356 0.651345
vt 0.734356 0.601378
vt 0.888735 0.901179
vt 0.888735 0.951146
vt 0.866693 0.951146
vt 0.888735 0.601378
vt 0.399834 0.600494
vt 0.377682 0.550476
vt 0.244485 0.899970
vt 0.022091 0.850168
vt 0.244485 0.850168
vt 0.711923 0.478125
vt 0.733849 0.290625
vt 0.733849 0.478125
vt 0.536514 0.478125
vt 0.711923 0.509375
vt 0.536514 0.509375
vt 0.536514 0.259375
vt 0.711923 0.290625
vt 0.536514 0.290625
vt 0.514588 0.478125
vt 0.334615 0.398972
vt 0.355369 0.101241
vt 0.334615 0.101241
vt 0.732858 0.100108
vt 0.710733 0.201600
vt 0.710733 0.100108
vt 0.954918 0.551411
vt 0.910806 0.601378
vt 0.910806 0.551411
vt 0.732858 0.051210
vt 0.710733 0.051210
vt 0.534245 0.098337
vt 0.616911 0.054935
vt 0.534245 0.054935
vt 0.732858 0.232520
vt 0.732858 0.549732
vt 0.710733 0.232520
vt 0.022548 0.249974
vt 0.511604 0.549732
vt 0.511604 0.232520
vt 0.533730 0.232520
vt 0.511604 0.201600
vt 0.533730 0.201600
vt 0.243970 0.849120
vt 0.022629 0.601030
vt 0.243970 0.601030
vt 0.422013 0.900600
vt 0.422013 0.600494
vt 0.399834 0.550476
vt 0.422013 0.550476
vt 0.466263 0.950000
vt 0.423253 0.901217
vt 0.466263 0.901217
vt 0.466345 0.600494
vt 0.466345 0.550476
vt 0.488510 0.600494
vt 0.423260 0.598431
vt 0.465431 0.552017
vt 0.465431 0.598431
vt 0.467265 0.948960
vt 0.422402 0.903210
vt 0.467265 0.903210
vt 0.465663 0.949631
vt 0.423443 0.900692
vt 0.465663 0.900692
vt 0.515500 0.261155
vt 0.537108 0.220580
vt 0.537108 0.261155
vt 0.731575 0.504604
vt 0.709968 0.261155
vt 0.731575 0.261155
vt 0.466345 0.950617
vt 0.466345 0.900600
vt 0.511604 0.100108
vt 0.488510 0.900600
vt 0.533730 0.051210
vt 0.511604 0.051210
vt 0.954918 0.601378
vt 0.976975 0.551411
vt 0.976975 0.601378
vt 0.709968 0.220580
vt 0.731575 0.220580
vt 0.465663 0.599757
vt 0.423443 0.551422
vt 0.465663 0.551422
vt 0.245235 0.601267
vt 0.021699 0.249994
vt 0.245235 0.249994
vt 0.334774 0.103289
vt 0.354785 0.399329
vt 0.334774 0.399329
vt 0.617389 0.052390
vt 0.710979 0.097451
vt 0.710979 0.052390
vt 0.044702 0.101175
vt 0.022518 0.051677
vt 0.044702 0.051677
vt 0.976975 0.951146
vt 0.954918 0.901179
vt 0.976975 0.901179
vt 0.731575 0.545179
vt 0.709968 0.504604
vt 0.515500 0.504604
vt 0.537108 0.545179
vt 0.515500 0.545179
vt 0.467146 0.552748
vt 0.422717 0.599621
vt 0.422717 0.552748
vt 0.244030 0.950099
vt 0.022702 0.902251
vt 0.244030 0.902251
vt 0.399834 0.950617
vt 0.244688 0.950617
vt 0.356979 0.396056
vt 0.376510 0.103526
vt 0.356979 0.103526
vt 0.244688 0.850582
vt 0.910806 0.901179
vt 0.910806 0.951146
vt 0.376439 0.103419
vt 0.356620 0.398106
vt 0.376439 0.398106
vt 0.022548 0.201589
vt 0.044193 0.201218
vt 0.022461 0.051001
vt 0.044056 0.100162
vt 0.022461 0.100540
vt 0.222178 0.051677
vt 0.244363 0.101175
vt 0.222178 0.101175
vt 0.422013 0.950617
vt 0.488481 0.605800
vt 0.467362 0.897333
vt 0.467362 0.605800
vt 0.357006 0.395115
vt 0.376411 0.102964
vt 0.376411 0.395115
vt 0.222930 0.100419
vt 0.155907 0.100419
vt 0.044201 0.100419
vt 0.601930 0.261155
vt 0.645145 0.504604
vt 0.601930 0.504604
vt 0.645145 0.261155
vt 0.709968 0.545179
vt 0.537108 0.504604
vt 0.533730 0.100108
vt 0.044616 0.051001
vt 0.221860 0.100540
vt 0.222178 0.200170
vt 0.734356 0.551411
vt 0.888735 0.551411
vt 0.954918 0.951146
vt 0.221860 0.051001
vt 0.244015 0.100540
vt 0.356489 0.100134
vt 0.376460 0.398118
vt 0.376460 0.100134
vt 0.622709 0.054585
vt 0.533423 0.097202
vt 0.622709 0.097202
vt 0.359434 0.104328
vt 0.373323 0.396355
vt 0.359434 0.396355
vt 0.022518 0.101175
vt 0.044702 0.200170
vt 0.022518 0.200170
vt 0.022091 0.899970
vt 0.711923 0.259375
vt 0.514588 0.290625
vt 0.355369 0.398972
vt 0.732858 0.201600
vt 0.616911 0.098337
vt 0.022629 0.849120
vt 0.423253 0.950000
vt 0.488510 0.550476
vt 0.423260 0.552017
vt 0.422402 0.948960
vt 0.423443 0.949631
vt 0.515500 0.220580
vt 0.488510 0.950617
vt 0.422402 0.948960
vt 0.423443 0.599757
vt 0.021699 0.601267
vt 0.354785 0.103289
vt 0.617389 0.097451
vt 0.467146 0.599621
vt 0.022702 0.950099
vt 0.376510 0.396056
vt 0.356620 0.103419
vt 0.244363 0.051677
vt 0.488481 0.897333
vt 0.357006 0.102964
vt 0.244363 0.200170
vt 0.244015 0.051001
vt 0.356489 0.398118
vt 0.533423 0.054585
s 0
usemtl Material.001
f 52/1/1 23/2/1 69/3/1
f 49/4/2 39/5/2 50/6/2
f 28/7/3 73/8/3 74/9/3
f 31/10/3 12/11/3 76/12/3
f 55/13/4 54/14/4 70/15/4
f 11/16/4 18/17/4 53/18/4
f 55/13/4 70/15/4 30/19/4
f 16/20/1 52/1/1 50/21/1
f 69/22/3 54/23/3 48/24/3
f 56/25/5 61/26/5 57/27/5
f 68/28/5 58/29/5 65/30/5
f 63/31/5 59/32/5 64/33/5
f 67/34/5 64/33/5 68/28/5
f 64/33/5 56/25/5 68/28/5
f 20/35/1 27/36/1 4/37/1
f 6/38/6 63/39/6 75/40/6
f 6/41/4 62/42/4 45/43/4
f 29/44/6 75/40/6 9/45/6
f 27/46/6 38/47/6 4/48/6
f 24/49/6 42/50/6 1/51/6
f 53/52/2 49/4/2 50/6/2
f 7/53/6 3/54/6 37/55/6
f 37/55/6 26/56/6 60/57/6
f 48/58/2 55/59/2 52/60/2
f 61/61/1 16/20/1 57/62/1
f 57/62/1 39/63/1 40/64/1
f 58/65/4 17/66/4 74/67/4
f 71/68/1 40/64/1 5/69/1
f 5/69/1 35/70/1 71/68/1
f 56/71/6 71/72/6 17/73/6
f 72/74/2 59/75/2 19/76/2
f 19/77/4 60/78/4 76/79/4
f 34/80/5 9/81/5 20/82/5
f 35/83/5 44/84/5 32/85/5
f 2/86/1 61/61/1 72/87/1
f 2/88/6 60/57/6 26/56/6
f 32/89/1 2/86/1 72/87/1
f 41/90/6 2/88/6 13/91/6
f 33/74/2 62/75/2 78/76/2
f 78/92/4 29/93/4 34/94/4
f 32/85/5 41/95/5 13/96/5
f 75/97/1 64/98/1 33/99/1
f 80/100/3 81/101/3 79/102/3
f 28/103/3 12/104/3 31/105/3
f 44/106/2 12/107/2 21/108/2
f 37/55/6 42/50/6 7/53/6
f 73/109/2 22/110/2 8/111/2
f 22/112/4 77/113/4 15/114/4
f 43/115/5 47/116/5 35/83/5
f 15/117/5 8/118/5 22/119/5
f 27/120/1 65/121/1 73/122/1
f 67/71/6 27/72/6 77/73/6
f 7/123/3 70/124/3 69/125/3
f 69/3/1 3/126/1 7/127/1
f 17/128/4 44/129/4 47/130/4
f 50/21/1 39/63/1 16/20/1
f 69/3/1 48/131/1 52/1/1
f 11/16/4 62/42/4 67/132/4
f 11/16/4 46/133/4 18/17/4
f 21/134/1 14/135/1 25/136/1
f 55/13/4 11/16/4 53/18/4
f 53/52/2 18/137/2 66/138/2
f 46/139/2 66/140/2 18/141/2
f 51/142/2 5/143/2 74/144/2
f 3/126/1 61/61/1 26/145/1
f 71/146/3 19/147/3 17/148/3
f 78/149/3 27/150/3 33/151/3
f 74/9/3 17/152/3 14/153/3
f 28/7/3 27/154/3 73/8/3
f 74/9/3 14/153/3 28/7/3
f 73/109/2 51/142/2 74/144/2
f 34/94/4 77/113/4 78/92/4
f 36/155/5 25/156/5 38/157/5
f 20/82/5 9/81/5 36/155/5
f 9/81/5 41/95/5 36/155/5
f 41/95/5 44/84/5 21/158/5
f 25/156/5 47/116/5 51/159/5
f 25/156/5 51/159/5 8/118/5
f 8/118/5 4/160/5 38/157/5
f 25/156/5 8/118/5 38/157/5
f 36/155/5 41/95/5 21/158/5
f 4/160/5 34/80/5 20/82/5
f 72/87/1 35/70/1 32/89/1
f 41/90/6 75/40/6 76/161/6
f 65/162/2 49/163/2 66/140/2
f 5/143/2 58/164/2 74/144/2
f 14/46/6 47/47/6 25/48/6
f 30/19/4 42/165/4 24/166/4
f 10/167/4 67/132/4 77/113/4
f 63/39/6 37/55/6 60/57/6
f 58/168/2 39/169/2 49/163/2
f 45/43/4 30/19/4 24/166/4
f 28/170/4 36/171/4 38/172/4
f 36/173/2 33/174/2 20/175/2
f 12/11/3 19/176/3 76/12/3
f 76/12/3 75/177/3 31/10/3
f 75/177/3 33/178/3 31/10/3
f 10/179/2 65/180/2 46/181/2
f 63/39/6 24/49/6 1/51/6
f 16/20/1 23/2/1 52/1/1
f 69/22/3 70/182/3 54/23/3
f 56/25/5 59/32/5 61/26/5
f 68/28/5 56/25/5 58/29/5
f 63/31/5 60/183/5 59/32/5
f 67/34/5 62/184/5 64/33/5
f 64/33/5 59/32/5 56/25/5
f 20/35/1 33/185/1 27/36/1
f 6/38/6 45/186/6 63/39/6
f 6/41/4 78/92/4 62/42/4
f 29/44/6 6/38/6 75/40/6
f 27/46/6 28/187/6 38/47/6
f 53/52/2 66/138/2 49/4/2
f 37/55/6 3/54/6 26/56/6
f 48/58/2 54/188/2 55/59/2
f 61/61/1 23/2/1 16/20/1
f 57/62/1 16/20/1 39/63/1
f 58/65/4 56/189/4 17/66/4
f 71/68/1 57/62/1 40/64/1
f 5/69/1 43/190/1 35/70/1
f 56/71/6 57/191/6 71/72/6
f 72/74/2 61/192/2 59/75/2
f 19/77/4 59/193/4 60/78/4
f 34/80/5 29/194/5 9/81/5
f 35/83/5 47/116/5 44/84/5
f 2/86/1 26/145/1 61/61/1
f 2/88/6 76/161/6 60/57/6
f 32/89/1 13/195/1 2/86/1
f 41/90/6 76/161/6 2/88/6
f 33/74/2 64/196/2 62/75/2
f 78/92/4 6/41/4 29/93/4
f 32/85/5 44/84/5 41/95/5
f 75/97/1 63/197/1 64/98/1
f 80/100/3 82/198/3 81/101/3
f 28/103/3 14/199/3 12/104/3
f 44/106/2 19/200/2 12/107/2
f 37/55/6 1/51/6 42/50/6
f 73/109/2 10/179/2 22/110/2
f 22/112/4 10/167/4 77/113/4
f 43/115/5 51/159/5 47/116/5
f 15/117/5 4/160/5 8/118/5
f 27/120/1 68/201/1 65/121/1
f 67/71/6 68/191/6 27/72/6
f 7/123/3 42/202/3 70/124/3
f 69/3/1 23/2/1 3/126/1
f 17/128/4 19/203/4 44/129/4
f 11/16/4 30/19/4 62/42/4
f 11/16/4 67/132/4 46/133/4
f 21/134/1 12/204/1 14/135/1
f 55/13/4 30/19/4 11/16/4
f 46/139/2 65/162/2 66/140/2
f 51/142/2 43/205/2 5/143/2
f 3/126/1 23/2/1 61/61/1
f 71/146/3 72/206/3 19/147/3
f 78/149/3 77/207/3 27/150/3
f 73/109/2 8/111/2 51/142/2
f 34/94/4 15/114/4 77/113/4
f 36/155/5 21/158/5 25/156/5
f 4/160/5 15/117/5 34/80/5
f 72/87/1 71/68/1 35/70/1
f 41/90/6 9/45/6 75/40/6
f 65/162/2 58/168/2 49/163/2
f 5/143/2 40/208/2 58/164/2
f 14/46/6 17/187/6 47/47/6
f 30/19/4 70/15/4 42/165/4
f 10/167/4 46/133/4 67/132/4
f 63/39/6 1/51/6 37/55/6
f 58/168/2 40/209/2 39/169/2
f 45/43/4 62/42/4 30/19/4
f 28/170/4 31/210/4 36/171/4
f 36/173/2 31/211/2 33/174/2
f 10/179/2 73/109/2 65/180/2
f 63/39/6 45/186/6 24/49/6
