# Blender 3.6.2
# www.blender.org
mtllib chest_800_00.mtl
o Chest.001
v 0.812500 0.933333 -0.437500
v 0.937500 0.000000 -0.562500
v 0.812500 0.933333 0.437500
v 0.937500 0.000000 0.562500
v -0.812500 0.933333 -0.437500
v -0.937500 0.000000 -0.562500
v -0.812500 0.933333 0.437500
v -0.937500 0.000000 0.562500
v 0.937500 0.933333 0.562500
v -0.937500 0.933333 0.562500
v 0.937500 0.933333 -0.562500
v -0.937500 0.933333 -0.562500
v 0.812500 0.233333 0.437500
v -0.812500 0.233333 0.437500
v 0.812500 0.233333 -0.437500
v -0.812500 0.233333 -0.437500
v 0.812500 1.249773 -0.313401
v 0.937500 1.394141 -0.403051
v 0.812500 1.156957 -0.368520
v 0.937500 1.270386 -0.473937
v 0.937500 1.129195 -0.526611
v 0.812500 1.051063 -0.409478
v 0.937500 0.933333 0.561980
v 0.937500 0.975993 -0.559047
v 0.812500 0.936162 -0.434700
v 0.937500 0.933333 -0.561980
v 0.937500 1.571173 -0.218129
v 0.812500 1.382547 -0.169611
v 0.937500 1.617646 -0.111201
v 0.812500 1.417402 -0.086467
v 0.812500 1.325945 0.246237
v 0.937500 1.495704 0.316675
v 0.937500 1.394141 0.403051
v 0.812500 1.249773 0.313401
v 0.937500 1.633333 0.000032
v 0.812500 1.429167 0.000025
v 0.812500 1.429167 -0.000025
v 0.937500 1.633333 -0.000032
v 0.937500 1.495704 -0.316675
v 0.812500 1.325945 -0.246238
v 0.937500 0.975993 0.559047
v 0.812500 0.936162 0.434699
v 0.937500 1.129195 0.526611
v 0.812500 1.051063 0.409478
v 0.812500 1.156957 0.368520
v 0.937500 1.270386 0.473937
v 0.937500 1.571173 0.218129
v 0.812500 1.382547 0.169611
v 0.937500 1.617646 0.111201
v 0.812500 1.417402 0.086467
v -0.937500 1.633333 0.000032
v -0.812500 1.429167 0.000025
v -0.937500 1.633333 -0.000033
v -0.812500 1.429167 -0.000025
v -0.937500 0.933333 -0.561980
v -0.937500 0.933333 0.561980
v -0.812500 1.382547 -0.169611
v -0.937500 1.571173 -0.218129
v -0.937500 1.617646 -0.111201
v -0.812500 1.417402 -0.086467
v -0.937500 1.394141 -0.403051
v -0.812500 1.249773 -0.313401
v -0.937500 1.270386 -0.473937
v -0.812500 1.156957 -0.368520
v -0.937500 1.495704 0.316675
v -0.812500 1.325945 0.246237
v -0.937500 1.129195 -0.526611
v -0.812500 1.051063 -0.409478
v -0.937500 1.495704 -0.316675
v -0.812500 1.325945 -0.246238
v -0.937500 1.571173 0.218129
v -0.812500 1.382547 0.169611
v -0.937500 1.617646 0.111201
v -0.812500 1.417402 0.086467
v -0.937500 0.975993 -0.559047
v -0.812500 0.936162 -0.434700
v -0.937500 1.394141 0.403051
v -0.812500 1.249773 0.313401
v -0.937500 0.975993 0.559047
v -0.812500 0.936162 0.434699
v -0.937500 1.129195 0.526611
v -0.812500 1.051063 0.409478
v -0.937500 1.270386 0.473937
v -0.812500 1.156957 0.368520
v 0.812500 0.933333 -0.434901
v 0.812500 0.933333 0.434901
v -0.812500 0.933333 0.434901
v -0.812500 0.933333 -0.434901
v -0.125000 1.170055 0.519504
v 0.125000 1.170055 0.519504
v -0.125000 1.170055 0.579888
v 0.125000 1.170055 0.579888
v -0.125000 0.944620 0.562500
v 0.125000 0.944620 0.562500
v -0.125000 0.944620 0.622884
v 0.125000 0.944620 0.622884
v -0.453811 1.157442 -0.520694
v -0.546189 1.157442 -0.520694
v -0.453811 0.695733 -0.575656
v -0.546189 0.695733 -0.575656
v -0.453811 0.695733 -0.598750
v -0.453811 1.171145 -0.541612
v -0.546189 1.171145 -0.541612
v -0.546189 0.695733 -0.598750
v -0.453811 0.930810 -0.569698
v -0.546189 0.930810 -0.569698
v -0.453811 0.935341 -0.592564
v -0.546189 0.935341 -0.592564
v -0.546189 0.897154 -0.571801
v -0.546189 0.863433 -0.573431
v -0.546189 0.829711 -0.575050
v -0.546189 0.796111 -0.575652
v -0.546189 0.762583 -0.575655
v -0.546189 0.729067 -0.575656
v -0.546189 0.900630 -0.594762
v -0.546189 0.865903 -0.596458
v -0.546189 0.831173 -0.598121
v -0.546189 0.796932 -0.598739
v -0.546189 0.762982 -0.598747
v -0.546189 0.729067 -0.598750
v -0.453811 0.729067 -0.575656
v -0.453811 0.762583 -0.575655
v -0.453811 0.796111 -0.575652
v -0.453811 0.829711 -0.575050
v -0.453811 0.863433 -0.573431
v -0.453811 0.897154 -0.571801
v -0.453811 0.729067 -0.598750
v -0.453811 0.762982 -0.598747
v -0.453811 0.796932 -0.598739
v -0.453811 0.831173 -0.598121
v -0.453811 0.865903 -0.596458
v -0.453811 0.900630 -0.594762
v -0.453811 1.046689 -0.551168
v -0.453811 1.055904 -0.573305
v -0.546189 1.046689 -0.551168
v -0.546189 1.055904 -0.573305
v -0.453811 1.102839 -0.537239
v -0.453811 1.114332 -0.558825
v -0.546189 1.102839 -0.537239
v -0.546189 1.114332 -0.558825
v -0.546189 0.989047 -0.561214
v -0.546189 0.995938 -0.583777
v -0.453811 0.989047 -0.561214
v -0.453811 0.995938 -0.583777
v -0.453811 1.018160 -0.556950
v -0.453811 1.026217 -0.579316
v -0.546189 1.018160 -0.556950
v -0.546189 1.026217 -0.579316
v -0.546189 0.959930 -0.565463
v -0.546189 0.965645 -0.588194
v -0.453811 0.959930 -0.565463
v -0.453811 0.965645 -0.588194
v -0.546189 1.074767 -0.544211
v -0.546189 1.085128 -0.566087
v -0.453811 1.074767 -0.544211
v -0.453811 1.085128 -0.566087
v -0.453811 1.130871 -0.530200
v -0.453811 1.143480 -0.551466
v -0.546189 1.130871 -0.530200
v -0.546189 1.143480 -0.551466
v 0.546189 1.157442 -0.520694
v 0.453811 1.157442 -0.520694
v 0.546189 0.695733 -0.575656
v 0.453811 0.695733 -0.575656
v 0.546189 0.695733 -0.598750
v 0.546189 1.171145 -0.541612
v 0.453811 1.171145 -0.541612
v 0.453811 0.695733 -0.598750
v 0.546189 0.930810 -0.569698
v 0.453811 0.930810 -0.569698
v 0.546189 0.935341 -0.592564
v 0.453811 0.935341 -0.592564
v 0.453811 0.897154 -0.571801
v 0.453811 0.863433 -0.573431
v 0.453811 0.829711 -0.575050
v 0.453811 0.796111 -0.575652
v 0.453811 0.762583 -0.575655
v 0.453811 0.729067 -0.575656
v 0.453811 0.900630 -0.594762
v 0.453811 0.865903 -0.596458
v 0.453811 0.831173 -0.598121
v 0.453811 0.796932 -0.598739
v 0.453811 0.762982 -0.598747
v 0.453811 0.729067 -0.598750
v 0.546189 0.729067 -0.575656
v 0.546189 0.762583 -0.575655
v 0.546189 0.796111 -0.575652
v 0.546189 0.829711 -0.575050
v 0.546189 0.863433 -0.573431
v 0.546189 0.897154 -0.571801
v 0.546189 0.729067 -0.598750
v 0.546189 0.762982 -0.598747
v 0.546189 0.796932 -0.598739
v 0.546189 0.831173 -0.598121
v 0.546189 0.865903 -0.596458
v 0.546189 0.900630 -0.594762
v 0.546189 1.046689 -0.551168
v 0.546189 1.055904 -0.573305
v 0.453811 1.046689 -0.551168
v 0.453811 1.055904 -0.573305
v 0.546189 1.102839 -0.537239
v 0.546189 1.114332 -0.558825
v 0.453811 1.102839 -0.537239
v 0.453811 1.114332 -0.558825
v 0.453811 0.989047 -0.561214
v 0.453811 0.995938 -0.583777
v 0.546189 0.989047 -0.561214
v 0.546189 0.995938 -0.583777
v 0.546189 1.018160 -0.556950
v 0.546189 1.026217 -0.579316
v 0.453811 1.018160 -0.556950
v 0.453811 1.026217 -0.579316
v 0.453811 0.959930 -0.565463
v 0.453811 0.965645 -0.588194
v 0.546189 0.959930 -0.565463
v 0.546189 0.965645 -0.588194
v 0.453811 1.074767 -0.544211
v 0.453811 1.085128 -0.566087
v 0.546189 1.074767 -0.544211
v 0.546189 1.085128 -0.566087
v 0.546189 1.130871 -0.530200
v 0.546189 1.143480 -0.551466
v 0.453811 1.130871 -0.530200
v 0.453811 1.143480 -0.551466
v -0.125000 0.711200 0.562500
v 0.125000 0.711200 0.562500
v -0.125000 0.711200 0.625000
v 0.125000 0.711200 0.625000
v -0.125000 0.944533 0.562500
v 0.125000 0.944533 0.562500
v -0.125000 0.944533 0.625000
v 0.125000 0.944533 0.625000
v -0.125000 0.711200 0.625000
v 0.125000 0.711200 0.625000
vn -0.0000 1.0000 -0.0000
vn -0.7556 0.4732 0.4528
vn -0.7761 0.5423 0.3217
vn -0.7556 0.4732 -0.4528
vn 0.6205 -0.4268 0.6578
vn 0.3600 -0.8509 -0.3825
vn -0.3600 -0.8509 -0.3825
vn -0.6205 -0.4268 -0.6578
vn -0.3600 -0.8509 0.3825
vn 0.3600 -0.8509 0.3825
vn -0.7919 -0.5888 -0.1619
vn -0.8050 -0.5919 0.0402
vn 0.7919 -0.5888 0.1619
vn 0.8050 -0.5919 -0.0402
vn 1.0000 -0.0000 -0.0000
vn -0.0000 -0.0000 1.0000
vn 0.6989 0.1987 -0.6870
vn -0.6989 0.1987 -0.6870
vn -0.7141 0.2960 -0.6344
vn 0.7141 0.2960 -0.6344
vn 0.7357 -0.3970 0.5487
vn 0.7154 -0.3041 0.6291
vn -0.7154 -0.3041 0.6291
vn -0.7357 -0.3970 0.5487
vn -0.0000 -1.0000 -0.0000
vn -0.0000 -0.0488 0.9988
vn -0.0000 0.0001 -1.0000
vn -0.0000 -0.0000 -1.0000
vn -0.0000 0.1449 -0.9894
vn -0.7910 0.5884 0.1676
vn 0.7910 0.5884 0.1676
vn 0.8047 0.5923 0.0417
vn -0.8047 0.5923 0.0417
vn 0.7141 0.2960 0.6344
vn 0.6989 0.1987 0.6870
vn 0.6894 0.0997 0.7175
vn -0.6205 -0.4268 0.6578
vn -0.7141 0.2960 0.6344
vn 0.6205 -0.4268 -0.6578
vn 0.6894 0.0997 -0.7175
vn 0.7338 0.3889 -0.5570
vn 0.7556 0.4732 -0.4528
vn 0.7556 0.4732 0.4528
vn 0.7761 0.5423 -0.3217
vn 0.7910 0.5884 -0.1676
vn 0.8047 0.5923 -0.0417
vn 0.7761 0.5423 0.3217
vn 0.7338 0.3889 0.5570
vn -0.7761 0.5423 -0.3217
vn -0.7910 0.5884 -0.1676
vn -0.6894 0.0997 -0.7175
vn -0.0000 0.0624 -0.9981
vn -0.0000 0.0483 -0.9988
vn -0.8050 -0.5919 -0.0402
vn 0.7919 -0.5888 -0.1619
vn -0.0000 -0.0002 1.0000
vn -1.0000 -0.0000 -0.0000
vn -0.0000 -0.2398 0.9708
vn -0.6989 0.1987 0.6870
vn -0.6894 0.0997 0.7175
vn -0.8047 0.5923 -0.0417
vn -0.7338 0.3889 -0.5570
vn -0.7338 0.3889 0.5570
vn -0.0000 -0.2413 0.9704
vn -0.0000 0.1439 -0.9896
vn -0.0000 -0.1985 0.9801
vn -0.6889 -0.1032 -0.7174
vn -0.6992 -0.2052 -0.6848
vn -0.7777 -0.5455 -0.3123
vn -0.7154 -0.3041 -0.6291
vn -0.7357 -0.3970 -0.5487
vn -0.7577 -0.4794 -0.4428
vn -0.7919 -0.5888 0.1619
vn -0.7777 -0.5455 0.3123
vn -0.7577 -0.4794 0.4428
vn -0.6992 -0.2052 0.6848
vn -0.6889 -0.1032 0.7175
vn 0.7777 -0.5455 0.3123
vn 0.6992 -0.2052 -0.6848
vn 0.7154 -0.3041 -0.6291
vn 0.7357 -0.3970 -0.5487
vn 0.7577 -0.4794 -0.4428
vn 0.7777 -0.5455 -0.3123
vn 0.6889 -0.1032 -0.7175
vn 0.6889 -0.1032 0.7174
vn 0.8050 -0.5919 0.0402
vn -0.0000 0.2410 -0.9705
vn 0.6992 -0.2052 0.6848
vn 0.7577 -0.4794 0.4428
vn -0.0000 -0.1873 -0.9823
vn -0.0000 0.1873 0.9823
vn -0.0000 -0.1427 0.9898
vn -0.0000 -0.8365 -0.5480
vn -0.0000 -0.0478 0.9989
vn -0.0000 0.1444 -0.9895
vn -0.0000 -0.0632 0.9980
vn -0.0000 0.2405 -0.9706
vn -0.0000 -0.0181 0.9998
vn -0.0000 0.0480 -0.9988
vn -0.0000 0.0179 -0.9998
vn -0.0000 -0.2448 0.9696
vn -0.0000 -0.1458 0.9893
vn -0.0000 0.2436 -0.9699
vn -0.0000 -0.1443 0.9895
vn -0.0000 0.1986 -0.9801
vn -0.0000 0.3368 -0.9416
vn -0.0000 -0.0001 1.0000
vn -0.0000 -0.3355 0.9420
vt 0.416439 0.200609
vt 0.463735 0.196522
vt 0.460357 0.200609
vt 0.463735 0.233298
vt 0.460357 0.229212
vt 0.416439 0.229212
vt 0.413061 0.196522
vt 0.413061 0.233298
vt 0.196884 0.434467
vt 0.204553 0.455058
vt 0.196884 0.566805
vt 0.563571 0.235099
vt 0.402330 0.230576
vt 0.552054 0.230576
vt 0.390813 0.195098
vt 0.552054 0.199621
vt 0.402330 0.199621
vt 0.552054 0.218176
vt 0.552054 0.215098
vt 0.402330 0.212021
vt 0.402330 0.215099
vt 0.833038 0.047715
vt 0.805740 0.047715
vt 0.278000 0.048585
vt 0.694068 0.048585
vt 0.694068 0.238314
vt 0.278000 0.238314
vt 0.693085 0.698698
vt 0.279644 0.698698
vt 0.279644 0.678816
vt 0.693085 0.678816
vt 0.402330 0.203945
vt 0.402330 0.201983
vt 0.552054 0.201983
vt 0.552054 0.203945
vt 0.833277 0.054811
vt 0.833277 0.048041
vt 0.367620 0.188039
vt 0.367620 0.145940
vt 0.597680 0.145940
vt 0.597680 0.188039
vt 0.805766 0.081890
vt 0.805766 0.088660
vt 0.833277 0.088660
vt 0.833277 0.081890
vt 0.833277 0.068351
vt 0.805766 0.068351
vt 0.805766 0.061581
vt 0.833277 0.061581
vt 0.833277 0.113200
vt 0.805766 0.113200
vt 0.805766 0.107276
vt 0.833277 0.107276
vt 0.279644 0.457953
vt 0.693085 0.457953
vt 0.693085 0.499914
vt 0.279644 0.499914
vt 0.799633 0.400047
vt 0.813907 0.388831
vt 0.833708 0.381300
vt 0.829395 0.381924
vt 0.139735 0.383211
vt 0.173987 0.401608
vt 0.173987 0.599665
vt 0.139735 0.618062
vt 0.833708 0.620627
vt 0.829395 0.620002
vt 0.813907 0.613096
vt 0.799633 0.601880
vt 0.787122 0.586786
vt 0.776855 0.568394
vt 0.776855 0.433533
vt 0.769225 0.547410
vt 0.764527 0.524642
vt 0.764527 0.477285
vt 0.762941 0.500970
vt 0.762941 0.500957
vt 0.769225 0.454517
vt 0.787122 0.415141
vt 0.693085 0.582260
vt 0.279644 0.582260
vt 0.279644 0.541900
vt 0.693085 0.541900
vt 0.693085 0.710941
vt 0.279644 0.710941
vt 0.833038 0.088473
vt 0.833038 0.095266
vt 0.805740 0.095266
vt 0.805740 0.088473
vt 0.833038 0.113098
vt 0.805740 0.113098
vt 0.805740 0.107154
vt 0.833038 0.107154
vt 0.552054 0.215099
vt 0.402330 0.218176
vt 0.805740 0.054508
vt 0.805740 0.061301
vt 0.805740 0.119041
vt 0.805740 0.124985
vt 0.833038 0.124985
vt 0.833038 0.119041
vt 0.693085 0.619457
vt 0.279644 0.619457
vt 0.693085 0.301155
vt 0.279644 0.301155
vt 0.279644 0.288912
vt 0.693085 0.288912
vt 0.209275 0.477401
vt 0.209275 0.523872
vt 0.210870 0.500630
vt 0.210870 0.500643
vt 0.204553 0.546214
vt 0.186563 0.584854
vt 0.186563 0.416419
vt 0.159638 0.610671
vt 0.144070 0.617449
vt 0.144070 0.383824
vt 0.159638 0.390601
vt 0.805766 0.125047
vt 0.805766 0.130970
vt 0.833277 0.130970
vt 0.833277 0.125047
vt 0.805766 0.048041
vt 0.833277 0.095429
vt 0.833277 0.101353
vt 0.805766 0.101353
vt 0.805766 0.095429
vt 0.563571 0.195098
vt 0.390813 0.235099
vt 0.693085 0.499939
vt 0.279644 0.499939
vt 0.805766 0.119123
vt 0.833277 0.119123
vt 0.552054 0.230569
vt 0.552054 0.229671
vt 0.552054 0.221135
vt 0.552054 0.228214
vt 0.552054 0.226252
vt 0.552054 0.223862
vt 0.552054 0.212021
vt 0.552054 0.209062
vt 0.552054 0.206335
vt 0.552054 0.200526
vt 0.552054 0.199628
vt 0.000000 0.000000
vt 0.402330 0.209062
vt 0.402330 0.229671
vt 0.402330 0.228214
vt 0.402330 0.226252
vt 0.402330 0.223862
vt 0.402330 0.221135
vt 0.469490 0.984375
vt 0.469490 0.515625
vt 0.468750 0.515625
vt 0.468750 0.984375
vt 0.030510 0.515625
vt 0.030510 0.984375
vt 0.031250 0.984375
vt 0.031250 0.515625
vt 0.402330 0.215098
vt 0.402330 0.199628
vt 0.402330 0.200526
vt 0.402330 0.206335
vt 0.402330 0.230569
vt 0.028287 0.714404
vt 0.028287 0.285952
vt 0.139196 0.285952
vt 0.139196 0.714404
vt 0.860876 0.095419
vt 0.805950 0.095419
vt 0.805950 0.142519
vt 0.860876 0.142519
vt 0.805950 0.095419
vt 0.805766 0.054811
vt 0.805740 0.142817
vt 0.805740 0.136873
vt 0.833038 0.142817
vt 0.833038 0.101210
vt 0.805766 0.075120
vt 0.833277 0.075120
vt 0.944448 0.287414
vt 0.944448 0.713668
vt 0.834594 0.713668
vt 0.834594 0.287414
vt 0.805740 0.068094
vt 0.805740 0.074887
vt 0.833038 0.081680
vt 0.833038 0.074887
vt 0.805740 0.081680
vt 0.805740 0.101210
vt 0.833038 0.068094
vt 0.805766 0.142817
vt 0.833277 0.142817
vt 0.278078 0.762822
vt 0.694390 0.762822
vt 0.694390 0.953170
vt 0.278078 0.953170
vt 0.693085 0.321037
vt 0.279644 0.321037
vt 0.279644 0.287805
vt 0.693085 0.287805
vt 0.805766 0.136894
vt 0.833277 0.136894
vt 0.805740 0.130929
vt 0.833038 0.130929
vt 0.693085 0.380396
vt 0.279644 0.380396
vt 0.279644 0.347794
vt 0.693085 0.347794
vt 0.833038 0.061301
vt 0.833038 0.136873
vt 0.693085 0.652060
vt 0.279644 0.652060
vt 0.833038 0.054508
vt 0.693085 0.712048
vt 0.279644 0.712048
vt 0.279644 0.417593
vt 0.693085 0.417593
vt 0.805950 0.048319
vt 0.860876 0.048319
s 0
usemtl Material
f 7/1/1 9/2/1 3/3/1
f 3/3/1 11/4/1 1/5/1
f 5/6/1 10/7/1 7/1/1
f 1/5/1 12/8/1 5/6/1
s 1
f 65/9/2 71/10/3 69/11/4
f 23/12/5 87/13/6 86/14/7
f 55/15/8 85/16/9 88/17/10
f 86/14/7 50/18/11 37/19/12
f 88/17/10 60/20/13 52/21/14
s 0
f 168/22/1 164/22/1 163/23/1 165/23/1
f 16/6/15 5/6/15 7/1/15 14/1/15
f 8/24/16 4/25/16 9/26/16 10/27/16
s 1
f 21/28/17 67/29/18 63/30/19 20/31/20
f 62/32/21 64/33/22 19/34/23 17/35/24
s 0
f 120/36/15 114/36/15 100/37/15 104/37/15
f 8/38/25 6/39/25 2/40/25 4/41/25
f 131/42/26 132/43/26 115/44/26 116/45/26
f 7/1/1 10/7/1 9/2/1
f 3/3/1 9/2/1 11/4/1
f 5/6/1 12/8/1 10/7/1
f 1/5/1 11/4/1 12/8/1
f 112/46/27 123/47/27 122/48/27 113/49/27
f 13/3/1 15/5/1 16/6/1 14/1/1
f 14/1/28 7/1/28 3/3/28 13/3/28
f 147/50/29 145/51/29 143/52/29 141/53/29
s 1
f 73/54/30 49/55/31 35/56/32 51/57/33
f 46/58/34 43/59/35 23/60/5
f 43/59/35 41/61/36 23/60/5
f 56/62/37 83/63/38 63/64/19 55/65/8
f 26/66/39 24/67/40 21/68/17
f 21/68/17 20/69/20 26/66/39
f 18/70/41 39/71/42 32/72/43
f 39/71/42 27/73/44 32/72/43
f 27/73/44 29/74/45 49/75/31
f 29/74/45 38/76/46 49/75/31
f 38/76/46 35/77/32 49/75/31
f 49/75/31 47/78/47 27/73/44
f 47/78/47 32/72/43 27/73/44
f 32/72/43 33/79/48 18/70/41
f 27/80/44 58/81/49 59/82/50 29/83/45
f 24/84/40 75/85/51 67/29/18 21/28/17
s 0
f 173/86/52 170/87/52 169/88/52 190/89/52
f 211/90/29 209/91/29 207/92/29 205/93/29
f 109/44/53 126/43/53 125/42/53 110/45/53
s 1
f 36/94/54 50/18/11 74/95/55 52/21/14
s 0
f 128/48/56 129/47/56 118/46/56 119/49/56
f 191/96/57 185/96/57 186/97/57 192/97/57
f 198/98/58 220/99/58 218/100/58 200/101/58
s 1
f 39/102/42 69/103/4 58/81/49 27/80/44
f 43/104/35 81/105/59 79/106/60 41/107/36
f 71/10/3 73/108/30 59/109/50
f 73/108/30 51/110/33 59/109/50
f 51/110/33 53/111/61 59/109/50
f 59/109/50 58/112/49 71/10/3
f 58/112/49 69/11/4 71/10/3
f 69/11/4 61/113/62 77/114/63
f 33/79/48 46/58/34 20/69/20 18/70/41
f 63/64/19 67/115/18 55/65/8
f 67/115/18 75/116/51 55/65/8
f 83/63/38 77/114/63 61/113/62 63/64/19
f 56/62/37 79/117/60 81/118/59
f 81/118/59 83/63/38 56/62/37
f 77/114/63 65/9/2 69/11/4
s 0
f 156/119/64 138/120/64 140/121/64 154/122/64
f 104/37/1 100/37/1 99/123/1 101/123/1
f 13/3/57 3/3/57 1/5/57 15/5/57
f 106/124/65 149/125/65 151/126/65 105/127/65
s 1
f 85/16/9 26/128/39 23/12/5
f 23/12/5 56/129/37 87/13/6
f 86/14/7 85/16/9 23/12/5
f 88/17/10 87/13/6 56/129/37
f 55/15/8 26/128/39 85/16/9
f 88/17/10 56/129/37 55/15/8
f 35/56/32 38/130/46 53/131/61 51/57/33
s 0
f 146/51/66 134/132/66 136/133/66 148/50/66
s 1
f 85/16/9 86/14/7 37/19/12
f 86/14/7 42/134/67 44/135/68
f 50/18/11 86/14/7 48/136/69
f 44/135/68 45/137/70 86/14/7
f 45/137/70 34/138/71 86/14/7
f 34/138/71 31/139/72 86/14/7
f 31/139/72 48/136/69 86/14/7
f 50/18/11 36/94/54 37/19/12
f 37/19/12 30/140/73 85/16/9
f 30/140/73 28/141/74 85/16/9
f 28/141/74 40/142/75 85/16/9
f 40/142/75 17/35/24 85/16/9
f 17/35/24 19/34/23 85/16/9
f 19/34/23 22/143/76 85/16/9
f 22/143/76 25/144/77 85/16/9
f 29/83/45 59/82/50 53/131/61 38/130/46
s 0
f 231/145/1 232/145/1 230/145/1 229/145/1
s 1
f 60/20/13 57/146/78 28/141/74 30/140/73
f 82/147/79 84/148/80 45/137/70 44/135/68
f 84/148/80 78/149/81 34/138/71 45/137/70
f 78/149/81 66/150/82 31/139/72 34/138/71
f 66/150/82 72/151/83 48/136/69 31/139/72
f 86/152/7 87/153/6 80/154/84 42/155/67
f 88/156/10 85/157/9 25/158/77 76/159/85
f 37/19/12 54/160/86 60/20/13 30/140/73
s 0
f 139/121/87 137/120/87 155/119/87 153/122/87
s 1
f 87/13/6 88/17/10 52/21/14
f 88/17/10 76/161/85 68/162/88
f 60/20/13 88/17/10 57/146/78
f 68/162/88 64/33/22 88/17/10
f 64/33/22 62/32/21 88/17/10
f 62/32/21 70/163/89 88/17/10
f 70/163/89 57/146/78 88/17/10
f 60/20/13 54/160/86 52/21/14
f 52/21/14 74/95/55 87/13/6
f 74/95/55 72/151/83 87/13/6
f 72/151/83 66/150/82 87/13/6
f 66/150/82 78/149/81 87/13/6
f 78/149/81 84/148/80 87/13/6
f 84/148/80 82/147/79 87/13/6
f 82/147/79 80/164/84 87/13/6
s 0
f 6/165/57 8/166/57 10/167/57 12/168/57
s 1
f 57/146/78 70/163/89 40/142/75 28/141/74
f 70/163/89 62/32/21 17/35/24 40/142/75
f 72/151/83 74/95/55 50/18/11 48/136/69
f 64/33/22 68/162/88 22/143/76 19/34/23
f 80/164/84 82/147/79 44/135/68 42/134/67
s 0
f 94/169/90 93/170/90 89/171/90 90/172/90
f 91/171/91 95/173/91 96/169/91 92/172/91
f 91/171/57 89/171/57 93/170/57 95/173/57
s 1
f 26/66/39 20/69/20 46/58/34 23/60/5
s 0
f 92/172/1 90/172/1 89/171/1 91/171/1
f 114/36/28 121/174/28 99/123/28 100/37/28
f 101/123/16 127/174/16 120/36/16 104/37/16
f 166/175/57 222/176/57 221/176/57 161/175/57
f 107/127/92 152/126/92 150/125/92 108/124/92
f 167/177/93 166/175/93 161/175/93 162/177/93
f 152/126/57 107/127/57 105/127/57 151/126/57
f 214/178/15 213/178/15 170/87/15 172/87/15
f 130/179/94 131/42/94 116/45/94 117/180/94
f 141/53/95 143/52/95 151/126/95 149/125/95
f 4/181/15 2/182/15 11/183/15 9/184/15
f 193/185/57 187/185/57 188/186/57 194/186/57
f 131/42/57 125/42/57 126/43/57 132/43/57
f 180/187/15 174/187/15 175/188/15 181/188/15
f 195/189/57 194/186/57 188/186/57 189/189/57
f 180/187/15 179/86/15 173/86/15 174/187/15
f 196/89/57 190/89/57 169/88/57 171/88/57
f 220/99/57 198/98/57 197/98/57 219/99/57
f 208/92/57 216/190/57 215/190/57 207/92/57
f 182/191/15 181/188/15 175/188/15 176/191/15
f 128/48/57 122/48/57 123/47/57 129/47/57
f 127/174/57 121/174/57 122/48/57 128/48/57
f 101/123/57 99/123/57 121/174/57 127/174/57
f 132/43/96 107/127/96 108/124/96 115/44/96
f 153/122/97 155/119/97 133/132/97 135/133/97
f 102/192/93 97/192/93 98/193/93 103/193/93
f 2/194/28 6/195/28 12/196/28 11/197/28
f 114/36/28 113/49/28 122/48/28 121/174/28
f 170/87/65 213/178/65 215/190/65 169/88/65
s 1
f 46/198/34 83/199/38 81/105/59 43/104/35
f 41/107/36 79/106/60 56/200/37 23/201/5
s 0
f 129/47/98 130/179/98 117/180/98 118/46/98
f 110/45/99 125/42/99 124/179/99 111/180/99
f 111/180/100 124/179/100 123/47/100 112/46/100
f 134/132/58 156/119/58 154/122/58 136/133/58
f 138/120/101 158/202/101 160/203/101 140/121/101
f 218/100/15 217/100/15 199/101/15 200/101/15
f 200/101/15 199/101/15 211/90/15 212/90/15
f 202/204/57 201/204/57 221/176/57 222/176/57
f 144/52/102 146/51/102 148/50/102 142/53/102
f 15/5/16 1/5/16 5/6/16 16/6/16
f 220/99/57 219/99/57 201/204/57 202/204/57
f 206/93/15 205/93/15 213/178/15 214/178/15
f 159/203/103 157/202/103 137/120/103 139/121/103
s 1
f 54/160/86 37/19/12 36/94/54 52/21/14
s 0
f 179/86/15 172/87/15 170/87/15 173/86/15
f 218/100/15 204/205/15 203/205/15 217/100/15
s 1
f 68/162/88 76/161/85 25/144/77 22/143/76
f 32/206/43 65/207/2 77/208/63 33/209/48
s 0
f 208/92/57 207/92/57 209/91/57 210/91/57
f 216/190/57 171/88/57 169/88/57 215/190/57
f 216/190/104 208/92/104 206/93/104 214/178/104
f 135/133/105 133/132/105 145/51/105 147/50/105
f 198/98/57 210/91/57 209/91/57 197/98/57
f 154/122/15 153/122/15 135/133/15 136/133/15
f 183/210/15 182/191/15 176/191/15 177/210/15
f 152/126/104 144/52/104 142/53/104 150/125/104
f 98/193/106 97/192/106 157/202/106 159/203/106
f 202/204/101 222/176/101 224/211/101 204/205/101
f 205/93/95 207/92/95 215/190/95 213/178/95
f 167/177/15 162/177/15 223/211/15 224/211/15
f 103/193/15 98/193/15 159/203/15 160/203/15
s 1
f 39/102/42 18/212/41 61/213/62 69/103/4
s 0
f 178/214/28 185/96/28 163/23/28 164/22/28
f 165/23/16 191/96/16 184/214/16 168/22/16
f 92/172/15 96/169/15 94/169/15 90/172/15
f 184/214/15 178/214/15 164/22/15 168/22/15
s 1
f 75/85/51 24/84/40 26/215/39 55/216/8
s 0
f 132/43/57 126/43/57 105/127/57 107/127/57
f 204/205/15 224/211/15 223/211/15 203/205/15
f 94/145/25 96/145/25 95/145/25 93/145/25
s 1
f 49/55/31 73/54/30 71/217/3 47/218/47
s 0
f 171/88/92 216/190/92 214/178/92 172/87/92
f 184/214/15 183/210/15 177/210/15 178/214/15
f 119/49/15 118/46/15 112/46/15 113/49/15
f 118/46/15 117/180/15 111/180/15 112/46/15
f 116/45/15 110/45/15 111/180/15 117/180/15
f 116/45/15 115/44/15 109/44/15 110/45/15
f 115/44/15 108/124/15 106/124/15 109/44/15
f 195/189/57 189/189/57 190/89/57 196/89/57
f 131/42/57 130/179/57 124/179/57 125/42/57
f 129/47/57 123/47/57 124/179/57 130/179/57
f 192/97/57 186/97/57 187/185/57 193/185/57
f 120/36/15 119/49/15 113/49/15 114/36/15
f 165/23/57 163/23/57 185/96/57 191/96/57
f 196/89/96 171/88/96 172/87/96 179/86/96
f 195/189/26 196/89/26 179/86/26 180/187/26
f 194/186/94 195/189/94 180/187/94 181/188/94
f 193/185/98 194/186/98 181/188/98 182/191/98
f 192/97/56 193/185/56 182/191/56 183/210/56
f 106/124/52 105/127/52 126/43/52 109/44/52
f 191/96/107 192/97/107 183/210/107 184/214/107
f 173/86/53 190/89/53 189/189/53 174/187/53
f 174/187/99 189/189/99 188/186/99 175/188/99
f 175/188/100 188/186/100 187/185/100 176/191/100
f 176/191/27 187/185/27 186/97/27 177/210/27
f 177/210/28 186/97/28 185/96/28 178/214/28
f 217/100/97 219/99/97 197/98/97 199/101/97
f 206/93/15 212/90/15 211/90/15 205/93/15
f 134/132/57 146/51/57 145/51/57 133/132/57
f 140/121/15 160/203/15 159/203/15 139/121/15
f 208/92/102 210/91/102 212/90/102 206/93/102
s 1
f 20/31/20 63/30/19 61/213/62 18/212/41
s 0
f 154/122/15 140/121/15 139/121/15 153/122/15
f 144/52/57 152/126/57 151/126/57 143/52/57
f 223/211/103 221/176/103 201/204/103 203/205/103
s 1
f 47/218/47 71/217/3 65/207/2 32/206/43
s 0
f 144/52/57 143/52/57 145/51/57 146/51/57
f 136/133/15 135/133/15 147/50/15 148/50/15
f 223/211/106 162/177/106 161/175/106 221/176/106
f 212/90/66 210/91/66 198/98/66 200/101/66
f 142/53/15 148/50/15 147/50/15 141/53/15
f 150/125/15 149/125/15 106/124/15 108/124/15
f 120/36/107 127/174/107 128/48/107 119/49/107
f 220/99/64 202/204/64 204/205/64 218/100/64
f 142/53/15 141/53/15 149/125/15 150/125/15
f 156/119/57 134/132/57 133/132/57 155/119/57
f 156/119/57 155/119/57 137/120/57 138/120/57
f 211/90/105 199/101/105 197/98/105 209/91/105
f 224/211/108 222/176/108 166/175/108 167/177/108
f 203/205/87 201/204/87 219/99/87 217/100/87
f 158/202/108 102/192/108 103/193/108 160/203/108
f 102/192/57 158/202/57 157/202/57 97/192/57
f 138/120/57 137/120/57 157/202/57 158/202/57
s 1
f 33/209/48 77/208/63 83/199/38 46/198/34
s 0
f 227/219/25 225/219/25 226/220/25 228/220/25
f 231/173/57 229/170/57 225/219/57 227/219/57
f 228/220/15 226/220/15 230/169/15 232/169/15
f 231/173/16 227/219/16 228/220/16 232/169/16
f 226/220/28 225/219/28 229/170/28 230/169/28
l 233 234
