# Blender 3.6.2
# www.blender.org
mtllib closed_shutter_290x00.mtl
o Frame.003
v 0.010000 2.823333 0.187500
v 0.010000 0.000000 0.187500
v 0.010000 2.823333 -0.187500
v 0.010000 0.000000 -0.187500
v 1.935000 2.823333 0.187500
v 1.935000 0.000000 0.187500
v 1.935000 2.823333 -0.187500
v 1.935000 0.000000 -0.187500
v 1.522500 0.770000 -0.187500
v 1.522500 0.770000 0.187500
v 1.522500 2.566667 -0.187500
v 1.522500 2.566666 0.187500
v 0.422500 2.566667 -0.187500
v 0.422500 2.566666 0.187500
v 0.422500 0.770000 -0.187500
v 0.422500 0.770000 0.187500
v -0.010000 2.823333 0.187500
v -0.010000 0.000000 0.187500
v -0.010000 2.823333 -0.187500
v -0.010000 0.000000 -0.187500
v -1.935000 2.823333 0.187500
v -1.935000 0.000000 0.187500
v -1.935000 2.823333 -0.187500
v -1.935000 0.000000 -0.187500
v -1.522500 0.770000 -0.187500
v -1.522500 0.770000 0.187500
v -1.522500 2.566667 -0.187500
v -1.522500 2.566666 0.187500
v -0.422500 2.566667 -0.187500
v -0.422500 2.566666 0.187500
v -0.422500 0.770000 -0.187500
v -0.422500 0.770000 0.187500
v 1.522500 2.523736 0.085427
v 1.522500 2.479271 0.119702
v 1.522500 2.339193 -0.153978
v 1.522500 2.294729 -0.119702
v 0.422500 2.523736 0.085427
v 0.422500 2.479271 0.119702
v 0.422500 2.339193 -0.153978
v 0.422500 2.294728 -0.119702
v 0.422500 2.387000 0.000000
v 1.522500 2.431465 -0.034275
v 0.422500 2.431464 -0.034275
v 1.522500 2.387000 0.000000
v 1.522500 2.164403 0.085427
v 1.522500 2.119938 0.119702
v 1.522500 1.979860 -0.153978
v 1.522500 1.935395 -0.119702
v 0.422500 2.164403 0.085427
v 0.422500 2.119938 0.119702
v 0.422500 1.979860 -0.153978
v 0.422500 1.935395 -0.119702
v 0.422500 2.027667 0.000000
v 1.522500 2.072132 -0.034275
v 0.422500 2.072131 -0.034275
v 1.522500 2.027667 0.000000
v 1.522500 1.805070 0.085427
v 1.522500 1.760605 0.119702
v 1.522500 1.620527 -0.153978
v 1.522500 1.576062 -0.119702
v 0.422500 1.805069 0.085427
v 0.422500 1.760605 0.119702
v 0.422500 1.620527 -0.153978
v 0.422500 1.576062 -0.119702
v 0.422500 1.668333 0.000000
v 1.522500 1.712798 -0.034275
v 0.422500 1.712798 -0.034275
v 1.522500 1.668334 0.000000
v 1.522500 1.445737 0.085427
v 1.522500 1.401272 0.119702
v 1.522500 1.261194 -0.153978
v 1.522500 1.216729 -0.119702
v 0.422500 1.445736 0.085427
v 0.422500 1.401271 0.119702
v 0.422500 1.261193 -0.153978
v 0.422500 1.216728 -0.119702
v 0.422500 1.309000 0.000000
v 1.522500 1.353465 -0.034275
v 0.422500 1.353465 -0.034275
v 1.522500 1.309000 0.000000
v 1.522500 1.086403 0.085427
v 1.522500 1.041938 0.119702
v 1.522500 0.901861 -0.153978
v 1.522500 0.857395 -0.119702
v 0.422500 1.086403 0.085427
v 0.422500 1.041938 0.119702
v 0.422500 0.901860 -0.153978
v 0.422500 0.857395 -0.119702
v 0.422500 0.949667 0.000000
v 1.522500 0.994132 -0.034276
v 0.422500 0.994132 -0.034276
v 1.522500 0.949667 0.000000
v -0.422500 2.523736 0.085427
v -0.422500 2.479271 0.119702
v -0.422500 2.339193 -0.153978
v -0.422500 2.294729 -0.119702
v -1.522500 2.523736 0.085427
v -1.522500 2.479271 0.119702
v -1.522500 2.339193 -0.153978
v -1.522500 2.294728 -0.119702
v -1.522500 2.387000 0.000000
v -0.422500 2.431465 -0.034275
v -1.522500 2.431464 -0.034275
v -0.422500 2.387000 0.000000
v -0.422500 2.164403 0.085427
v -0.422500 2.119938 0.119702
v -0.422500 1.979860 -0.153978
v -0.422500 1.935395 -0.119702
v -1.522500 2.164403 0.085427
v -1.522500 2.119938 0.119702
v -1.522500 1.979860 -0.153978
v -1.522500 1.935395 -0.119702
v -1.522500 2.027667 0.000000
v -0.422500 2.072132 -0.034275
v -1.522500 2.072131 -0.034275
v -0.422500 2.027667 0.000000
v -0.422500 1.805070 0.085427
v -0.422500 1.760605 0.119702
v -0.422500 1.620527 -0.153978
v -0.422500 1.576062 -0.119702
v -1.522500 1.805069 0.085427
v -1.522500 1.760605 0.119702
v -1.522500 1.620527 -0.153978
v -1.522500 1.576062 -0.119702
v -1.522500 1.668333 0.000000
v -0.422500 1.712798 -0.034275
v -1.522500 1.712798 -0.034275
v -0.422500 1.668334 0.000000
v -0.422500 1.445737 0.085427
v -0.422500 1.401272 0.119702
v -0.422500 1.261194 -0.153978
v -0.422500 1.216729 -0.119702
v -1.522500 1.445736 0.085427
v -1.522500 1.401271 0.119702
v -1.522500 1.261193 -0.153978
v -1.522500 1.216728 -0.119702
v -1.522500 1.309000 0.000000
v -0.422500 1.353465 -0.034275
v -1.522500 1.353465 -0.034275
v -0.422500 1.309000 0.000000
v -0.422500 1.086403 0.085427
v -0.422500 1.041938 0.119702
v -0.422500 0.901861 -0.153978
v -0.422500 0.857395 -0.119702
v -1.522500 1.086403 0.085427
v -1.522500 1.041938 0.119702
v -1.522500 0.901860 -0.153978
v -1.522500 0.857395 -0.119702
v -1.522500 0.949667 0.000000
v -0.422500 0.994132 -0.034276
v -1.522500 0.994132 -0.034276
v -0.422500 0.949667 0.000000
vn -0.0000 1.0000 -0.0000
vn -0.0000 -0.0000 -1.0000
vn 1.0000 -0.0000 -0.0000
vn -0.0000 -1.0000 -0.0000
vn -1.0000 -0.0000 -0.0000
vn -0.0000 -0.0000 1.0000
vn -0.0000 -0.7920 0.6105
vn -0.0000 0.6105 0.7920
vn -0.0000 0.7920 -0.6105
vn -0.0000 -0.6105 -0.7920
vt 0.147062 0.966651
vt 0.558864 0.866756
vt 0.558864 0.966651
vt 0.558907 0.500082
vt 0.470677 0.600067
vt 0.147167 0.500082
vt 0.117588 0.899979
vt 0.029474 0.500072
vt 0.117588 0.500072
vt 0.487637 0.504006
vt 0.382772 0.529474
vt 0.382772 0.504006
vt 0.558969 0.966827
vt 0.911850 0.866505
vt 0.911850 0.966827
vt 0.441756 0.466460
vt 0.353409 0.373687
vt 0.441756 0.033520
vt 0.647040 0.567000
vt 0.617706 0.800001
vt 0.617706 0.567000
vt 0.147266 0.126293
vt 0.117817 0.466460
vt 0.117817 0.033520
vt 0.941176 0.833533
vt 0.647330 0.800070
vt 0.941176 0.800070
vt 0.235397 0.833366
vt 0.558907 0.866695
vt 0.147167 0.866695
vt 0.970601 0.566725
vt 0.941272 0.800099
vt 0.941272 0.566725
vt 0.647226 0.533448
vt 0.941046 0.566574
vt 0.647226 0.566574
vt 0.147062 0.866756
vt 0.470677 0.833366
vt 0.235397 0.600067
vt 0.029474 0.899979
vt 0.487637 0.529474
vt 0.558969 0.866505
vt 0.147266 0.373687
vt 0.353409 0.126293
vt 0.647040 0.800001
vt 0.647330 0.833533
vt 0.970601 0.800099
vt 0.941046 0.533448
vt 0.235726 0.800104
vt 0.470488 0.766884
vt 0.470488 0.800104
vt 0.440830 0.573606
vt 0.265053 0.567737
vt 0.440830 0.567737
vt 0.625000 0.125000
vt 0.375000 0.250000
vt 0.375000 0.125000
vt 0.191329 0.134218
vt 0.205616 0.366783
vt 0.191329 0.366783
vt 0.625000 0.625000
vt 0.375000 0.750000
vt 0.375000 0.625000
vt 0.450021 0.957781
vt 0.274244 0.951912
vt 0.450021 0.951912
vt 0.625000 0.500000
vt 0.375000 0.500000
vt 0.177042 0.134218
vt 0.177042 0.366783
vt 0.625000 0.000000
vt 0.375000 0.000000
vt 0.235726 0.833324
vt 0.470488 0.833324
vt 0.235726 0.766884
vt 0.265053 0.573606
vt 0.625000 0.250000
vt 0.205616 0.134218
vt 0.625000 0.750000
vt 0.274244 0.957781
s 0
usemtl Material
f 5/1/1 3/2/1 1/3/1
f 4/4/2 15/5/2 8/6/2
f 7/7/3 6/8/3 8/9/3
f 2/10/4 8/11/4 6/12/4
f 1/13/5 4/14/5 2/15/5
f 6/16/6 10/17/6 2/18/6
f 10/19/5 11/20/5 9/21/5
f 14/22/6 5/23/6 1/24/6
f 13/25/4 12/26/4 14/27/4
f 11/28/2 3/29/2 7/30/2
f 15/31/3 14/32/3 16/33/3
f 9/34/1 16/35/1 10/36/1
f 5/1/1 7/37/1 3/2/1
f 4/4/2 3/29/2 15/5/2
f 3/29/2 13/38/2 15/5/2
f 15/5/2 9/39/2 8/6/2
f 7/7/3 5/40/3 6/8/3
f 2/10/4 4/41/4 8/11/4
f 1/13/5 3/42/5 4/14/5
f 6/16/6 5/23/6 10/17/6
f 5/23/6 12/43/6 10/17/6
f 10/17/6 16/44/6 2/18/6
f 10/19/5 12/45/5 11/20/5
f 1/24/6 2/18/6 16/44/6
f 14/22/6 12/43/6 5/23/6
f 1/24/6 16/44/6 14/22/6
f 13/25/4 11/46/4 12/26/4
f 7/30/2 8/6/2 9/39/2
f 11/28/2 13/38/2 3/29/2
f 7/30/2 9/39/2 11/28/2
f 15/31/3 13/47/3 14/32/3
f 9/34/1 15/48/1 16/35/1
f 21/1/4 19/2/4 17/3/4
f 20/4/6 31/5/6 24/6/6
f 23/7/3 22/8/3 24/9/3
f 18/10/1 24/11/1 22/12/1
f 17/13/5 20/14/5 18/15/5
f 22/16/2 26/17/2 18/18/2
f 26/19/5 27/20/5 25/21/5
f 30/22/2 21/23/2 17/24/2
f 29/25/1 28/26/1 30/27/1
f 27/28/6 19/29/6 23/30/6
f 31/31/3 30/32/3 32/33/3
f 25/34/4 32/35/4 26/36/4
f 21/1/4 23/37/4 19/2/4
f 20/4/6 19/29/6 31/5/6
f 19/29/6 29/38/6 31/5/6
f 31/5/6 25/39/6 24/6/6
f 23/7/3 21/40/3 22/8/3
f 18/10/1 20/41/1 24/11/1
f 17/13/5 19/42/5 20/14/5
f 22/16/2 21/23/2 26/17/2
f 21/23/2 28/43/2 26/17/2
f 26/17/2 32/44/2 18/18/2
f 26/19/5 28/45/5 27/20/5
f 17/24/2 18/18/2 32/44/2
f 30/22/2 28/43/2 21/23/2
f 17/24/2 32/44/2 30/22/2
f 29/25/1 27/46/1 28/26/1
f 23/30/6 24/6/6 25/39/6
f 27/28/6 29/38/6 19/29/6
f 23/30/6 25/39/6 27/28/6
f 31/31/3 29/47/3 30/32/3
f 25/34/4 31/48/4 32/35/4
f 43/49/7 35/50/7 42/51/7
f 35/52/8 40/53/8 36/54/8
f 43/55/3 38/56/3 41/57/3
f 44/58/9 40/59/9 41/60/9
f 42/61/5 36/62/5 44/63/5
f 37/64/10 34/65/10 38/66/10
f 33/67/5 44/63/5 34/68/5
f 34/69/9 41/60/9 38/70/9
f 39/71/3 41/57/3 40/72/3
f 37/73/7 42/51/7 33/74/7
f 43/49/7 39/75/7 35/50/7
f 35/52/8 39/76/8 40/53/8
f 43/55/3 37/77/3 38/56/3
f 44/58/9 36/78/9 40/59/9
f 42/61/5 35/79/5 36/62/5
f 37/64/10 33/80/10 34/65/10
f 33/67/5 42/61/5 44/63/5
f 34/69/9 44/58/9 41/60/9
f 39/71/3 43/55/3 41/57/3
f 37/73/7 43/49/7 42/51/7
f 55/49/7 47/50/7 54/51/7
f 47/52/8 52/53/8 48/54/8
f 55/55/3 50/56/3 53/57/3
f 56/58/9 52/59/9 53/60/9
f 54/61/5 48/62/5 56/63/5
f 49/64/10 46/65/10 50/66/10
f 45/67/5 56/63/5 46/68/5
f 46/69/9 53/60/9 50/70/9
f 51/71/3 53/57/3 52/72/3
f 49/73/7 54/51/7 45/74/7
f 55/49/7 51/75/7 47/50/7
f 47/52/8 51/76/8 52/53/8
f 55/55/3 49/77/3 50/56/3
f 56/58/9 48/78/9 52/59/9
f 54/61/5 47/79/5 48/62/5
f 49/64/10 45/80/10 46/65/10
f 45/67/5 54/61/5 56/63/5
f 46/69/9 56/58/9 53/60/9
f 51/71/3 55/55/3 53/57/3
f 49/73/7 55/49/7 54/51/7
f 67/49/7 59/50/7 66/51/7
f 59/52/8 64/53/8 60/54/8
f 67/55/3 62/56/3 65/57/3
f 68/58/9 64/59/9 65/60/9
f 66/61/5 60/62/5 68/63/5
f 61/64/10 58/65/10 62/66/10
f 57/67/5 68/63/5 58/68/5
f 58/69/9 65/60/9 62/70/9
f 63/71/3 65/57/3 64/72/3
f 61/73/7 66/51/7 57/74/7
f 67/49/7 63/75/7 59/50/7
f 59/52/8 63/76/8 64/53/8
f 67/55/3 61/77/3 62/56/3
f 68/58/9 60/78/9 64/59/9
f 66/61/5 59/79/5 60/62/5
f 61/64/10 57/80/10 58/65/10
f 57/67/5 66/61/5 68/63/5
f 58/69/9 68/58/9 65/60/9
f 63/71/3 67/55/3 65/57/3
f 61/73/7 67/49/7 66/51/7
f 79/49/7 71/50/7 78/51/7
f 71/52/8 76/53/8 72/54/8
f 79/55/3 74/56/3 77/57/3
f 80/58/9 76/59/9 77/60/9
f 78/61/5 72/62/5 80/63/5
f 73/64/10 70/65/10 74/66/10
f 69/67/5 80/63/5 70/68/5
f 70/69/9 77/60/9 74/70/9
f 75/71/3 77/57/3 76/72/3
f 73/73/7 78/51/7 69/74/7
f 79/49/7 75/75/7 71/50/7
f 71/52/8 75/76/8 76/53/8
f 79/55/3 73/77/3 74/56/3
f 80/58/9 72/78/9 76/59/9
f 78/61/5 71/79/5 72/62/5
f 73/64/10 69/80/10 70/65/10
f 69/67/5 78/61/5 80/63/5
f 70/69/9 80/58/9 77/60/9
f 75/71/3 79/55/3 77/57/3
f 73/73/7 79/49/7 78/51/7
f 91/49/7 83/50/7 90/51/7
f 83/52/8 88/53/8 84/54/8
f 91/55/3 86/56/3 89/57/3
f 92/58/9 88/59/9 89/60/9
f 90/61/5 84/62/5 92/63/5
f 85/64/10 82/65/10 86/66/10
f 81/67/5 92/63/5 82/68/5
f 82/69/9 89/60/9 86/70/9
f 87/71/3 89/57/3 88/72/3
f 85/73/7 90/51/7 81/74/7
f 91/49/7 87/75/7 83/50/7
f 83/52/8 87/76/8 88/53/8
f 91/55/3 85/77/3 86/56/3
f 92/58/9 84/78/9 88/59/9
f 90/61/5 83/79/5 84/62/5
f 85/64/10 81/80/10 82/65/10
f 81/67/5 90/61/5 92/63/5
f 82/69/9 92/58/9 89/60/9
f 87/71/3 91/55/3 89/57/3
f 85/73/7 91/49/7 90/51/7
f 103/49/7 95/50/7 102/51/7
f 95/52/8 100/53/8 96/54/8
f 103/55/3 98/56/3 101/57/3
f 104/58/9 100/59/9 101/60/9
f 102/61/5 96/62/5 104/63/5
f 97/64/10 94/65/10 98/66/10
f 93/67/5 104/63/5 94/68/5
f 94/69/9 101/60/9 98/70/9
f 99/71/3 101/57/3 100/72/3
f 97/73/7 102/51/7 93/74/7
f 103/49/7 99/75/7 95/50/7
f 95/52/8 99/76/8 100/53/8
f 103/55/3 97/77/3 98/56/3
f 104/58/9 96/78/9 100/59/9
f 102/61/5 95/79/5 96/62/5
f 97/64/10 93/80/10 94/65/10
f 93/67/5 102/61/5 104/63/5
f 94/69/9 104/58/9 101/60/9
f 99/71/3 103/55/3 101/57/3
f 97/73/7 103/49/7 102/51/7
f 115/49/7 107/50/7 114/51/7
f 107/52/8 112/53/8 108/54/8
f 115/55/3 110/56/3 113/57/3
f 116/58/9 112/59/9 113/60/9
f 114/61/5 108/62/5 116/63/5
f 109/64/10 106/65/10 110/66/10
f 105/67/5 116/63/5 106/68/5
f 106/69/9 113/60/9 110/70/9
f 111/71/3 113/57/3 112/72/3
f 109/73/7 114/51/7 105/74/7
f 115/49/7 111/75/7 107/50/7
f 107/52/8 111/76/8 112/53/8
f 115/55/3 109/77/3 110/56/3
f 116/58/9 108/78/9 112/59/9
f 114/61/5 107/79/5 108/62/5
f 109/64/10 105/80/10 106/65/10
f 105/67/5 114/61/5 116/63/5
f 106/69/9 116/58/9 113/60/9
f 111/71/3 115/55/3 113/57/3
f 109/73/7 115/49/7 114/51/7
f 127/49/7 119/50/7 126/51/7
f 119/52/8 124/53/8 120/54/8
f 127/55/3 122/56/3 125/57/3
f 128/58/9 124/59/9 125/60/9
f 126/61/5 120/62/5 128/63/5
f 121/64/10 118/65/10 122/66/10
f 117/67/5 128/63/5 118/68/5
f 118/69/9 125/60/9 122/70/9
f 123/71/3 125/57/3 124/72/3
f 121/73/7 126/51/7 117/74/7
f 127/49/7 123/75/7 119/50/7
f 119/52/8 123/76/8 124/53/8
f 127/55/3 121/77/3 122/56/3
f 128/58/9 120/78/9 124/59/9
f 126/61/5 119/79/5 120/62/5
f 121/64/10 117/80/10 118/65/10
f 117/67/5 126/61/5 128/63/5
f 118/69/9 128/58/9 125/60/9
f 123/71/3 127/55/3 125/57/3
f 121/73/7 127/49/7 126/51/7
f 139/49/7 131/50/7 138/51/7
f 131/52/8 136/53/8 132/54/8
f 139/55/3 134/56/3 137/57/3
f 140/58/9 136/59/9 137/60/9
f 138/61/5 132/62/5 140/63/5
f 133/64/10 130/65/10 134/66/10
f 129/67/5 140/63/5 130/68/5
f 130/69/9 137/60/9 134/70/9
f 135/71/3 137/57/3 136/72/3
f 133/73/7 138/51/7 129/74/7
f 139/49/7 135/75/7 131/50/7
f 131/52/8 135/76/8 136/53/8
f 139/55/3 133/77/3 134/56/3
f 140/58/9 132/78/9 136/59/9
f 138/61/5 131/79/5 132/62/5
f 133/64/10 129/80/10 130/65/10
f 129/67/5 138/61/5 140/63/5
f 130/69/9 140/58/9 137/60/9
f 135/71/3 139/55/3 137/57/3
f 133/73/7 139/49/7 138/51/7
f 151/49/7 143/50/7 150/51/7
f 143/52/8 148/53/8 144/54/8
f 151/55/3 146/56/3 149/57/3
f 152/58/9 148/59/9 149/60/9
f 150/61/5 144/62/5 152/63/5
f 145/64/10 142/65/10 146/66/10
f 141/67/5 152/63/5 142/68/5
f 142/69/9 149/60/9 146/70/9
f 147/71/3 149/57/3 148/72/3
f 145/73/7 150/51/7 141/74/7
f 151/49/7 147/75/7 143/50/7
f 143/52/8 147/76/8 148/53/8
f 151/55/3 145/77/3 146/56/3
f 152/58/9 144/78/9 148/59/9
f 150/61/5 143/79/5 144/62/5
f 145/64/10 141/80/10 142/65/10
f 141/67/5 150/61/5 152/63/5
f 142/69/9 152/58/9 149/60/9
f 147/71/3 151/55/3 149/57/3
f 145/73/7 151/49/7 150/51/7
