{
	"asset":{
		"generator":"Khronos glTF Blender I/O v4.4.55",
		"version":"2.0"
	},
	"scene":0,
	"scenes":[
		{
			"name":"Scene",
			"nodes":[
				0
			]
		}
	],
	"nodes":[
		{
			"mesh":0,
			"name":"corpse_867x00"
		}
	],
	"materials":[
		{
			"alphaMode":"BLEND",
			"doubleSided":true,
			"name":"Material",
			"pbrMetallicRoughness":{
				"baseColorTexture":{
					"index":0
				},
				"metallicFactor":0,
				"roughnessFactor":0.5
			}
		}
	],
	"meshes":[
		{
			"name":"Plane",
			"primitives":[
				{
					"attributes":{
						"POSITION":0,
						"NORMAL":1,
						"TEXCOORD_0":2
					},
					"indices":3,
					"material":0
				}
			]
		}
	],
	"textures":[
		{
			"sampler":0,
			"source":0
		}
	],
	"images":[
		{
			"mimeType":"image/png",
			"name":"shape867_0",
			"uri":"shape867_0.png"
		}
	],
	"accessors":[
		{
			"bufferView":0,
			"componentType":5126,
			"count":3282,
			"max":[
				2.5,
				0.24260160326957703,
				2.5
			],
			"min":[
				-2.5,
				0,
				-2.5
			],
			"type":"VEC3"
		},
		{
			"bufferView":1,
			"componentType":5126,
			"count":3282,
			"type":"VEC3"
		},
		{
			"bufferView":2,
			"componentType":5126,
			"count":3282,
			"type":"VEC2"
		},
		{
			"bufferView":3,
			"componentType":5123,
			"count":8424,
			"type":"SCALAR"
		}
	],
	"bufferViews":[
		{
			"buffer":0,
			"byteLength":39384,
			"byteOffset":0,
			"target":34962
		},
		{
			"buffer":0,
			"byteLength":39384,
			"byteOffset":39384,
			"target":34962
		},
		{
			"buffer":0,
			"byteLength":26256,
			"byteOffset":78768,
			"target":34962
		},
		{
			"buffer":0,
			"byteLength":16848,
			"byteOffset":105024,
			"target":34963
		}
	],
	"samplers":[
		{
			"magFilter":9728,
			"minFilter":9984
		}
	],
	"buffers":[
		{
			"byteLength":121872,
			"uri":"corpse_867x00.bin"
		}
	]
}
