{
	"asset":{
		"generator":"Khronos glTF Blender I/O v4.1.62",
		"version":"2.0"
	},
	"scene":0,
	"scenes":[
		{
			"name":"Scene",
			"nodes":[
				0,
				1
			]
		}
	],
	"nodes":[
		{
			"name":"Reference",
			"rotation":[
				0.370774507522583,
				-0.00011332146095810458,
				4.5225187932373956e-05,
				0.9287230372428894
			],
			"translation":[
				-0.031839728355407715,
				0,
				-0.9418091177940369
			]
		},
		{
			"mesh":0,
			"name":"Crate"
		}
	],
	"materials":[
		{
			"doubleSided":true,
			"name":"Texture",
			"pbrMetallicRoughness":{
				"baseColorTexture":{
					"index":0
				},
				"metallicFactor":0
			}
		}
	],
	"meshes":[
		{
			"name":"Cube.043",
			"primitives":[
				{
					"attributes":{
						"POSITION":0,
						"NORMAL":1,
						"TEXCOORD_0":2
					},
					"indices":3,
					"material":0
				}
			]
		}
	],
	"textures":[
		{
			"sampler":0,
			"source":0
		}
	],
	"images":[
		{
			"mimeType":"image/png",
			"name":"texture",
			"uri":"crate-texture.png"
		}
	],
	"accessors":[
		{
			"bufferView":0,
			"componentType":5126,
			"count":504,
			"max":[
				0.4000000059604645,
				0.30000001192092896,
				0.20000000298023224
			],
			"min":[
				-0.4000000059604645,
				-0.30000001192092896,
				-0.20000000298023224
			],
			"type":"VEC3"
		},
		{
			"bufferView":1,
			"componentType":5126,
			"count":504,
			"type":"VEC3"
		},
		{
			"bufferView":2,
			"componentType":5126,
			"count":504,
			"type":"VEC2"
		},
		{
			"bufferView":3,
			"componentType":5123,
			"count":756,
			"type":"SCALAR"
		}
	],
	"bufferViews":[
		{
			"buffer":0,
			"byteLength":6048,
			"byteOffset":0,
			"target":34962
		},
		{
			"buffer":0,
			"byteLength":6048,
			"byteOffset":6048,
			"target":34962
		},
		{
			"buffer":0,
			"byteLength":4032,
			"byteOffset":12096,
			"target":34962
		},
		{
			"buffer":0,
			"byteLength":1512,
			"byteOffset":16128,
			"target":34963
		}
	],
	"samplers":[
		{
			"magFilter":9728,
			"minFilter":9984
		}
	],
	"buffers":[
		{
			"byteLength":17640,
			"uri":"crate.bin"
		}
	]
}
