{
	"asset":{
		"generator":"Khronos glTF Blender I/O v4.4.55",
		"version":"2.0"
	},
	"scene":0,
	"scenes":[
		{
			"name":"Scene",
			"nodes":[
				0
			]
		}
	],
	"nodes":[
		{
			"mesh":0,
			"name":"cup_628x04"
		}
	],
	"materials":[
		{
			"doubleSided":true,
			"name":"628cup",
			"pbrMetallicRoughness":{
				"baseColorTexture":{
					"index":0
				},
				"metallicFactor":0,
				"roughnessFactor":0.5
			}
		}
	],
	"meshes":[
		{
			"name":"Cylinder.038",
			"primitives":[
				{
					"attributes":{
						"POSITION":0,
						"NORMAL":1,
						"TEXCOORD_0":2,
						"TANGENT":3
					},
					"indices":4,
					"material":0
				}
			]
		}
	],
	"textures":[
		{
			"sampler":0,
			"source":0
		}
	],
	"images":[
		{
			"mimeType":"image/png",
			"name":"628cup",
			"uri":"628cup.png"
		}
	],
	"accessors":[
		{
			"bufferView":0,
			"componentType":5126,
			"count":298,
			"max":[
				0.007764126174151897,
				0.46000000834465027,
				0.04999999701976776
			],
			"min":[
				-0.46776413917541504,
				2.9802322387695312e-08,
				-0.44999998807907104
			],
			"type":"VEC3"
		},
		{
			"bufferView":1,
			"componentType":5126,
			"count":298,
			"type":"VEC3"
		},
		{
			"bufferView":2,
			"componentType":5126,
			"count":298,
			"type":"VEC2"
		},
		{
			"bufferView":3,
			"componentType":5126,
			"count":298,
			"type":"VEC4"
		},
		{
			"bufferView":4,
			"componentType":5123,
			"count":408,
			"type":"SCALAR"
		}
	],
	"bufferViews":[
		{
			"buffer":0,
			"byteLength":3576,
			"byteOffset":0,
			"target":34962
		},
		{
			"buffer":0,
			"byteLength":3576,
			"byteOffset":3576,
			"target":34962
		},
		{
			"buffer":0,
			"byteLength":2384,
			"byteOffset":7152,
			"target":34962
		},
		{
			"buffer":0,
			"byteLength":4768,
			"byteOffset":9536,
			"target":34962
		},
		{
			"buffer":0,
			"byteLength":816,
			"byteOffset":14304,
			"target":34963
		}
	],
	"samplers":[
		{
			"magFilter":9728,
			"minFilter":9984
		}
	],
	"buffers":[
		{
			"byteLength":15120,
			"uri":"cup_628x04.bin"
		}
	]
}
