{
	"asset":{
		"generator":"Khronos glTF Blender I/O v4.4.55",
		"version":"2.0"
	},
	"scene":0,
	"scenes":[
		{
			"name":"Scene",
			"nodes":[
				0
			]
		}
	],
	"nodes":[
		{
			"mesh":0,
			"name":"debris_201x08"
		}
	],
	"materials":[
		{
			"doubleSided":true,
			"name":"debris",
			"pbrMetallicRoughness":{
				"baseColorTexture":{
					"index":0
				},
				"metallicFactor":0,
				"roughnessFactor":0.5
			}
		}
	],
	"meshes":[
		{
			"name":"Plane.050",
			"primitives":[
				{
					"attributes":{
						"POSITION":0,
						"TEXCOORD_0":1
					},
					"indices":2,
					"material":0
				}
			]
		}
	],
	"textures":[
		{
			"sampler":0,
			"source":0
		}
	],
	"images":[
		{
			"mimeType":"image/png",
			"name":"201debris",
			"uri":"201debris.png"
		}
	],
	"accessors":[
		{
			"bufferView":0,
			"componentType":5126,
			"count":406,
			"max":[
				1.935953140258789,
				1.193987250328064,
				2.0320987701416016
			],
			"min":[
				0.018160056322813034,
				-0.0006333521450869739,
				0.01579771190881729
			],
			"type":"VEC3"
		},
		{
			"bufferView":1,
			"componentType":5126,
			"count":406,
			"type":"VEC2"
		},
		{
			"bufferView":2,
			"componentType":5123,
			"count":2424,
			"type":"SCALAR"
		}
	],
	"bufferViews":[
		{
			"buffer":0,
			"byteLength":4872,
			"byteOffset":0,
			"target":34962
		},
		{
			"buffer":0,
			"byteLength":3248,
			"byteOffset":4872,
			"target":34962
		},
		{
			"buffer":0,
			"byteLength":4848,
			"byteOffset":8120,
			"target":34963
		}
	],
	"samplers":[
		{
			"magFilter":9728,
			"minFilter":9984
		}
	],
	"buffers":[
		{
			"byteLength":12968,
			"uri":"debris_201x08.bin"
		}
	]
}
