{
	"asset":{
		"generator":"Khronos glTF Blender I/O v4.4.55",
		"version":"2.0"
	},
	"scene":0,
	"scenes":[
		{
			"name":"Scene",
			"nodes":[
				0
			]
		}
	],
	"nodes":[
		{
			"mesh":0,
			"name":"easel_837x03"
		}
	],
	"materials":[
		{
			"doubleSided":true,
			"name":"Easel",
			"pbrMetallicRoughness":{
				"baseColorTexture":{
					"index":0
				},
				"metallicFactor":0,
				"roughnessFactor":0.5
			}
		}
	],
	"meshes":[
		{
			"name":"Easel.003",
			"primitives":[
				{
					"attributes":{
						"POSITION":0,
						"NORMAL":1,
						"TEXCOORD_0":2
					},
					"indices":3,
					"material":0
				}
			]
		}
	],
	"textures":[
		{
			"sampler":0,
			"source":0
		}
	],
	"images":[
		{
			"mimeType":"image/png",
			"name":"837easel",
			"uri":"837easel.png"
		}
	],
	"accessors":[
		{
			"bufferView":0,
			"componentType":5126,
			"count":551,
			"max":[
				0.6067643165588379,
				4,
				0.5013527274131775
			],
			"min":[
				-0.6090060472488403,
				-0.10000000894069672,
				-0.5003226399421692
			],
			"type":"VEC3"
		},
		{
			"bufferView":1,
			"componentType":5126,
			"count":551,
			"type":"VEC3"
		},
		{
			"bufferView":2,
			"componentType":5126,
			"count":551,
			"type":"VEC2"
		},
		{
			"bufferView":3,
			"componentType":5123,
			"count":1116,
			"type":"SCALAR"
		}
	],
	"bufferViews":[
		{
			"buffer":0,
			"byteLength":6612,
			"byteOffset":0,
			"target":34962
		},
		{
			"buffer":0,
			"byteLength":6612,
			"byteOffset":6612,
			"target":34962
		},
		{
			"buffer":0,
			"byteLength":4408,
			"byteOffset":13224,
			"target":34962
		},
		{
			"buffer":0,
			"byteLength":2232,
			"byteOffset":17632,
			"target":34963
		}
	],
	"samplers":[
		{
			"magFilter":9728,
			"minFilter":9984
		}
	],
	"buffers":[
		{
			"byteLength":19864,
			"uri":"easel_837x03.bin"
		}
	]
}
