{
	"asset":{
		"generator":"Khronos glTF Blender I/O v5.2.39",
		"version":"2.0"
	},
	"extensionsUsed":[
		"KHR_materials_specular"
	],
	"scene":0,
	"scenes":[
		{
			"name":"Scene",
			"nodes":[
				0
			]
		}
	],
	"nodes":[
		{
			"mesh":0,
			"name":"bloodfang"
		}
	],
	"materials":[
		{
			"doubleSided":true,
			"extensions":{
				"KHR_materials_specular":{
					"specularColorFactor":[
						0.0,
						0.0,
						0.0
					]
				}
			},
			"name":"Base",
			"pbrMetallicRoughness":{
				"baseColorTexture":{
					"index":0
				},
				"metallicFactor":0
			}
		},
		{
			"doubleSided":true,
			"extensions":{
				"KHR_materials_specular":{
					"specularColorFactor":[
						1.388235330581665,
						1.3411765098571777,
						1.7960784435272217
					]
				}
			},
			"name":"KILMET",
			"pbrMetallicRoughness":{
				"baseColorFactor":[
					0.6941176652908325,
					0.6705882549285889,
					0.8980392217636108,
					1
				],
				"metallicFactor":0
			}
		},
		{
			"doubleSided":true,
			"extensions":{
				"KHR_materials_specular":{
					"specularColorFactor":[
						0.0,
						0.0,
						0.0
					]
				}
			},
			"name":"RED",
			"pbrMetallicRoughness":{
				"baseColorTexture":{
					"index":1
				},
				"metallicFactor":0
			}
		},
		{
			"doubleSided":true,
			"extensions":{
				"KHR_materials_specular":{
					"specularColorFactor":[
						1.8901960849761963,
						1.4196078777313232,
						0.501960813999176
					]
				}
			},
			"name":"KILBRWN",
			"pbrMetallicRoughness":{
				"baseColorFactor":[
					0.9450980424880981,
					0.7098039388656616,
					0.250980406999588,
					1
				],
				"metallicFactor":0
			}
		},
		{
			"doubleSided":true,
			"extensions":{
				"KHR_materials_specular":{
					"specularColorFactor":[
						1.1372549533843994,
						0.5176470875740051,
						0.0
					]
				}
			},
			"name":"KILDKB",
			"pbrMetallicRoughness":{
				"baseColorFactor":[
					0.5686274766921997,
					0.25882354378700256,
					0,
					1
				],
				"metallicFactor":0
			}
		}
	],
	"meshes":[
		{
			"name":"bloodfang",
			"primitives":[
				{
					"attributes":{
						"POSITION":0,
						"NORMAL":1,
						"TEXCOORD_0":2
					},
					"indices":3,
					"material":0
				},
				{
					"attributes":{
						"POSITION":4,
						"NORMAL":5,
						"TEXCOORD_0":6
					},
					"indices":7,
					"material":1
				},
				{
					"attributes":{
						"POSITION":8,
						"NORMAL":9,
						"TEXCOORD_0":10
					},
					"indices":11,
					"material":2
				},
				{
					"attributes":{
						"POSITION":12,
						"NORMAL":13,
						"TEXCOORD_0":14
					},
					"indices":15,
					"material":3
				},
				{
					"attributes":{
						"POSITION":16,
						"NORMAL":17,
						"TEXCOORD_0":18
					},
					"indices":19,
					"material":4
				}
			]
		}
	],
	"textures":[
		{
			"sampler":0,
			"source":0
		},
		{
			"sampler":1,
			"source":1
		}
	],
	"images":[
		{
			"mimeType":"image/png",
			"name":"Wc2bloodfang4",
			"uri":"Wc2bloodfang4.png"
		},
		{
			"mimeType":"image/png",
			"name":"RED",
			"uri":"RED.png"
		}
	],
	"accessors":[
		{
			"bufferView":0,
			"componentType":5126,
			"count":3203,
			"max":[
				2.1003336906433105,
				4.42862606048584,
				3.233750104904175
			],
			"min":[
				-3.3977408409118652,
				0.09536075592041016,
				-3.2696070671081543
			],
			"type":"VEC3"
		},
		{
			"bufferView":1,
			"componentType":5126,
			"count":3203,
			"type":"VEC3"
		},
		{
			"bufferView":2,
			"componentType":5126,
			"count":3203,
			"type":"VEC2"
		},
		{
			"bufferView":3,
			"componentType":5123,
			"count":12738,
			"type":"SCALAR"
		},
		{
			"bufferView":4,
			"componentType":5126,
			"count":1675,
			"max":[
				2.875725507736206,
				2.3603429794311523,
				2.6518714427948
			],
			"min":[
				-1.3844058513641357,
				1.07089364528656,
				-2.6877589225769043
			],
			"type":"VEC3"
		},
		{
			"bufferView":5,
			"componentType":5126,
			"count":1675,
			"type":"VEC3"
		},
		{
			"bufferView":6,
			"componentType":5126,
			"count":1675,
			"type":"VEC2"
		},
		{
			"bufferView":7,
			"componentType":5123,
			"count":4911,
			"type":"SCALAR"
		},
		{
			"bufferView":8,
			"componentType":5126,
			"count":110,
			"max":[
				1.3966974020004272,
				1.2848539352416992,
				1.7917641401290894
			],
			"min":[
				0.4859354794025421,
				1.229167103767395,
				-1.8276513814926147
			],
			"type":"VEC3"
		},
		{
			"bufferView":9,
			"componentType":5126,
			"count":110,
			"type":"VEC3"
		},
		{
			"bufferView":10,
			"componentType":5126,
			"count":110,
			"type":"VEC2"
		},
		{
			"bufferView":11,
			"componentType":5123,
			"count":270,
			"type":"SCALAR"
		},
		{
			"bufferView":12,
			"componentType":5126,
			"count":379,
			"max":[
				3.0647926330566406,
				1.56038498878479,
				1.1714028120040894
			],
			"min":[
				2.717351198196411,
				1.0578052997589111,
				-1.2074942588806152
			],
			"type":"VEC3"
		},
		{
			"bufferView":13,
			"componentType":5126,
			"count":379,
			"type":"VEC3"
		},
		{
			"bufferView":14,
			"componentType":5126,
			"count":379,
			"type":"VEC2"
		},
		{
			"bufferView":15,
			"componentType":5123,
			"count":1686,
			"type":"SCALAR"
		},
		{
			"bufferView":16,
			"componentType":5126,
			"count":3284,
			"max":[
				0.11193294078111649,
				2.5927324295043945,
				2.188462257385254
			],
			"min":[
				-2.5817244052886963,
				0.7308464050292969,
				-2.224318742752075
			],
			"type":"VEC3"
		},
		{
			"bufferView":17,
			"componentType":5126,
			"count":3284,
			"type":"VEC3"
		},
		{
			"bufferView":18,
			"componentType":5126,
			"count":3284,
			"type":"VEC2"
		},
		{
			"bufferView":19,
			"componentType":5123,
			"count":9942,
			"type":"SCALAR"
		}
	],
	"bufferViews":[
		{
			"buffer":0,
			"byteLength":38436,
			"byteOffset":0,
			"target":34962
		},
		{
			"buffer":0,
			"byteLength":38436,
			"byteOffset":38436,
			"target":34962
		},
		{
			"buffer":0,
			"byteLength":25624,
			"byteOffset":76872,
			"target":34962
		},
		{
			"buffer":0,
			"byteLength":25476,
			"byteOffset":102496,
			"target":34963
		},
		{
			"buffer":0,
			"byteLength":20100,
			"byteOffset":127972,
			"target":34962
		},
		{
			"buffer":0,
			"byteLength":20100,
			"byteOffset":148072,
			"target":34962
		},
		{
			"buffer":0,
			"byteLength":13400,
			"byteOffset":168172,
			"target":34962
		},
		{
			"buffer":0,
			"byteLength":9822,
			"byteOffset":181572,
			"target":34963
		},
		{
			"buffer":0,
			"byteLength":1320,
			"byteOffset":191396,
			"target":34962
		},
		{
			"buffer":0,
			"byteLength":1320,
			"byteOffset":192716,
			"target":34962
		},
		{
			"buffer":0,
			"byteLength":880,
			"byteOffset":194036,
			"target":34962
		},
		{
			"buffer":0,
			"byteLength":540,
			"byteOffset":194916,
			"target":34963
		},
		{
			"buffer":0,
			"byteLength":4548,
			"byteOffset":195456,
			"target":34962
		},
		{
			"buffer":0,
			"byteLength":4548,
			"byteOffset":200004,
			"target":34962
		},
		{
			"buffer":0,
			"byteLength":3032,
			"byteOffset":204552,
			"target":34962
		},
		{
			"buffer":0,
			"byteLength":3372,
			"byteOffset":207584,
			"target":34963
		},
		{
			"buffer":0,
			"byteLength":39408,
			"byteOffset":210956,
			"target":34962
		},
		{
			"buffer":0,
			"byteLength":39408,
			"byteOffset":250364,
			"target":34962
		},
		{
			"buffer":0,
			"byteLength":26272,
			"byteOffset":289772,
			"target":34962
		},
		{
			"buffer":0,
			"byteLength":19884,
			"byteOffset":316044,
			"target":34963
		}
	],
	"samplers":[
		{
			"magFilter":9728,
			"minFilter":9984
		},
		{
			"magFilter":9729,
			"minFilter":9987
		}
	],
	"buffers":[
		{
			"byteLength":335928,
			"uri":"easteregg.bin"
		}
	]
}
