# Blender 4.4.0
# www.blender.org
mtllib fence_0421x07.mtl
o fenceboard_lightwood_long_broken
v -2.194754 0.154289 -0.127625
v 2.174356 0.153755 -0.127551
v -2.194798 0.154244 0.127476
v 2.174356 0.153755 0.127550
v -2.174356 1.329226 -0.127550
v 2.174356 1.329226 -0.127551
v -2.174356 1.329226 0.127551
v 2.174356 1.329226 0.127550
v -2.163108 0.785452 -0.086645
v -2.165148 0.744646 -0.127517
v 2.174356 0.744854 -0.127551
v 2.174356 0.785718 -0.086686
v -2.165192 0.744601 0.127584
v -2.163138 0.785422 0.086727
v 2.174356 0.785718 0.086686
v 2.174356 0.744854 0.127550
v -2.174356 1.961189 -0.086686
v -2.174356 1.920325 -0.127550
v -2.174356 1.920325 0.127551
v -2.174356 1.961189 0.086686
v -0.169285 0.644554 -0.127192
v -1.054842 0.097076 0.127662
v -0.160409 0.644062 0.127911
v -0.144289 0.684209 -0.086316
v -1.095706 0.099172 -0.127446
v -0.131351 0.683528 0.087058
v 1.125102 0.744854 -0.127551
v 1.164452 0.153755 -0.127551
v 0.948747 0.785718 0.086686
v 1.120247 0.153755 0.127550
v 0.969599 0.744854 0.127550
v 1.089262 0.785718 -0.086686
v -2.179995 0.449423 0.127530
v -2.179951 0.449467 -0.127571
v -0.646240 0.318963 0.127771
v -0.334763 0.430624 0.127844
v -1.929051 0.436838 0.127571
v -0.363848 0.429344 -0.127263
v -0.677775 0.322614 -0.127335
v -1.933834 0.437125 -0.127531
v -2.174356 1.624775 0.127551
v -2.174356 1.624775 -0.127550
v 2.174356 1.512565 -0.127551
v -0.896011 1.624775 -0.127550
v 2.174356 1.512565 0.127550
v -0.896011 1.624775 0.127551
v 0.148187 0.671168 0.099010
v 0.165034 1.920325 -0.127551
v 0.183594 1.920325 0.127551
v 0.111180 1.961189 -0.086686
v 0.198776 1.808305 -0.127551
v 0.115570 1.961189 0.086686
v 0.235862 1.809203 0.127551
vn -0.0000 1.0000 -0.0000
vn -0.0000 -0.0000 1.0000
vn -1.0000 -0.0000 -0.0000
vn -0.0002 -0.0002 1.0000
vn 1.0000 -0.0000 -0.0000
vn -0.0000 -1.0000 -0.0000
vn 0.0355 0.7063 -0.7070
vn -0.0000 0.7071 0.7071
vn -0.0000 0.7071 -0.7071
vn -0.9987 0.0501 -0.0002
vn 0.0501 0.9987 0.0002
vn 0.4699 -0.8789 -0.0825
vn 0.0353 0.7061 0.7072
vn -0.8650 -0.0708 -0.4967
vn -0.0000 -0.0000 -1.0000
vn 0.0002 0.0002 -1.0000
vn 0.0908 0.9959 -0.0006
vn -0.0039 -1.0000 0.0055
vn 0.0695 -0.9814 -0.1787
vn 0.7750 0.6292 0.0589
vn 0.0365 0.9993 -0.0000
vn 0.7616 -0.6427 -0.0836
vn 0.0020 0.7185 0.6955
vn 0.0441 0.9990 0.0006
vn 0.1653 -0.9862 -0.0000
vn 0.4760 -0.8765 -0.0714
vn -0.9556 -0.2436 -0.1656
vn -0.5422 -0.7161 -0.4395
vn -0.7758 -0.0516 -0.6288
vn 0.0915 0.9958 0.0029
vn -0.0050 -1.0000 -0.0010
vn 0.9482 0.2856 -0.1389
vn 0.5971 0.8020 -0.0151
vn 0.6146 0.2891 -0.7340
vn 0.7278 -0.6580 0.1933
vn 0.7731 -0.6315 -0.0602
vn 0.1608 -0.9868 -0.0199
vt 0.999386 0.320320
vt 0.874584 0.335928
vt 0.858423 0.320320
vt 0.999386 0.312519
vt 0.878148 0.250334
vt 0.999386 0.250334
vt 0.387650 0.429878
vt 0.380319 0.391444
vt 0.440671 0.384113
vt 0.676156 0.275801
vt 0.499223 0.281427
vt 0.499223 0.250334
vt 0.386241 0.430985
vt 0.378434 0.390056
vt 0.499167 0.382249
vt 0.999251 0.365804
vt 0.500492 0.377373
vt 0.500492 0.346903
vt 0.917708 0.264716
vt 0.818016 0.258868
vt 0.917708 0.258868
vt 0.461361 0.429878
vt 0.494252 0.384113
vt 0.494252 0.429878
vt 0.499223 0.335928
vt 0.729063 0.343932
vt 0.499223 0.343932
vt 0.860822 0.312519
vt 0.737120 0.413598
vt 0.999251 0.407640
vt 0.999251 0.413598
vt 0.386335 0.430985
vt 0.378529 0.390056
vt 0.442799 0.382249
vt 0.731707 0.335928
vt 0.499223 0.320320
vt 0.733200 0.320320
vt 0.548629 0.272333
vt 0.539666 0.256108
vt 0.549658 0.255163
vt 0.730090 0.312519
vt 0.499223 0.312519
vt 0.615376 0.250182
vt 0.878707 0.343932
vt 0.999386 0.335928
vt 0.999386 0.343932
vt 0.499223 0.312367
vt 0.499223 0.250182
vt 0.999386 0.281274
vt 0.826100 0.275861
vt 0.872821 0.250182
vt 0.442799 0.430985
vt 0.499262 0.382249
vt 0.499262 0.430985
vt 0.711292 0.289175
vt 0.999386 0.312367
vt 0.790655 0.288729
vt 0.971043 0.281274
vt 0.413806 0.254445
vt 0.408625 0.279966
vt 0.408567 0.254337
vt 0.403328 0.254425
vt 0.408515 0.286247
vt 0.403324 0.286841
vt 0.527630 0.276527
vt 0.535963 0.278149
vt 0.727074 0.396091
vt 0.852636 0.377171
vt 0.763628 0.405726
vt 0.500492 0.407842
vt 0.440671 0.429878
vt 0.493692 0.384113
vt 0.493692 0.429878
vt 0.730943 0.407640
vt 0.736617 0.431471
vt 0.401233 0.255700
vt 0.405342 0.305136
vt 0.401233 0.305136
vt 0.999251 0.377171
vt 0.500492 0.365603
vt 0.500492 0.346702
vt 0.527630 0.265822
vt 0.537574 0.265052
vt 0.999251 0.437429
vt 0.728815 0.437429
vt 0.999251 0.431471
vt 0.409589 0.273401
vt 0.405411 0.255696
vt 0.409589 0.255693
vt 0.380319 0.422547
vt 0.387650 0.384113
vt 0.630498 0.250334
vt 0.528121 0.281427
vt 0.499167 0.430985
vt 0.378434 0.423178
vt 0.386241 0.382249
vt 0.999251 0.346903
vt 0.647107 0.377373
vt 0.818016 0.264716
vt 0.461361 0.384113
vt 0.378529 0.423178
vt 0.386335 0.382249
vt 0.538672 0.272996
vt 0.619902 0.312367
vt 0.999386 0.250182
vt 0.769545 0.312367
vt 0.413816 0.280613
vt 0.754806 0.407842
vt 0.999251 0.346702
vt 0.537543 0.276321
vt 0.405436 0.274000
s 0
usemtl Fence
f 15/1/1 32/2/1 29/3/1
f 16/4/2 30/5/2 4/6/2
f 19/7/3 17/8/3 42/9/3
f 35/10/4 33/11/4 3/12/4
f 11/13/5 15/14/5 4/15/5
f 45/16/2 41/17/2 7/18/2
f 8/19/6 5/20/6 6/21/6
f 43/22/5 8/23/5 6/24/5
f 9/25/7 21/26/7 10/27/7
f 15/1/8 31/28/8 16/4/8
f 50/29/9 18/30/9 17/31/9
f 13/32/10 9/33/10 34/34/10
f 24/35/11 14/36/11 26/37/11
f 39/38/12 22/39/12 25/40/12
f 23/41/13 14/36/13 13/42/13
f 31/28/14 32/2/14 28/43/14
f 27/44/9 12/45/9 11/46/9
f 28/43/15 11/47/15 2/48/15
f 34/49/16 39/50/16 25/51/16
f 33/52/10 1/53/10 3/54/10
f 36/55/4 13/42/4 33/11/4
f 10/56/16 38/57/16 40/58/16
f 37/59/17 39/60/17 40/61/17
f 37/62/18 38/63/18 36/64/18
f 23/65/19 24/66/19 47/65/19
f 18/30/15 51/67/15 44/68/15
f 53/69/2 19/70/2 41/17/2
f 41/71/3 5/72/3 7/73/3
f 48/74/20 52/75/20 53/69/20
f 44/76/21 45/77/21 43/78/21
f 42/79/15 43/80/15 6/81/15
f 24/66/22 36/82/22 38/83/22
f 26/37/23 23/41/23 47/37/23
f 24/35/24 26/37/24 47/35/24
f 52/75/8 19/84/8 49/85/8
f 50/29/1 20/86/1 52/75/1
f 51/87/25 46/88/25 44/89/25
f 15/1/1 12/45/1 32/2/1
f 16/4/2 31/28/2 30/5/2
f 42/9/3 41/71/3 19/7/3
f 19/7/3 20/90/3 17/8/3
f 17/8/3 18/91/3 42/9/3
f 3/12/4 22/92/4 35/10/4
f 35/10/4 37/93/4 33/11/4
f 4/15/5 2/94/5 11/13/5
f 11/13/5 12/95/5 15/14/5
f 15/14/5 16/96/5 4/15/5
f 7/18/2 8/97/2 45/16/2
f 45/16/2 46/98/2 41/17/2
f 8/19/6 7/99/6 5/20/6
f 43/22/5 45/100/5 8/23/5
f 9/25/7 24/35/7 21/26/7
f 15/1/8 29/3/8 31/28/8
f 50/29/9 48/74/9 18/30/9
f 34/34/10 33/52/10 13/32/10
f 13/32/10 14/101/10 9/33/10
f 9/33/10 10/102/10 34/34/10
f 24/35/11 9/25/11 14/36/11
f 39/38/26 35/103/26 22/39/26
f 23/41/13 26/37/13 14/36/13
f 28/43/27 30/5/27 31/28/27
f 31/28/28 29/3/28 32/2/28
f 32/2/29 27/44/29 28/43/29
f 27/44/9 32/2/9 12/45/9
f 28/43/15 27/104/15 11/47/15
f 25/51/16 1/105/16 34/49/16
f 34/49/16 40/58/16 39/50/16
f 33/52/10 34/34/10 1/53/10
f 33/11/4 37/93/4 36/55/4
f 36/55/4 23/41/4 13/42/4
f 40/58/16 34/49/16 10/56/16
f 10/56/16 21/106/16 38/57/16
f 37/59/30 35/107/30 39/60/30
f 37/62/31 40/61/31 38/63/31
f 44/68/15 42/79/15 18/30/15
f 18/30/15 48/74/15 51/67/15
f 41/17/2 46/98/2 53/69/2
f 53/69/2 49/108/2 19/70/2
f 41/71/3 42/9/3 5/72/3
f 53/69/32 51/67/32 48/74/32
f 48/74/33 50/29/33 52/75/33
f 52/75/34 49/85/34 53/69/34
f 44/76/21 46/88/21 45/77/21
f 6/81/15 5/109/15 42/79/15
f 42/79/15 44/68/15 43/80/15
f 38/83/35 21/110/35 24/66/35
f 24/66/36 23/65/36 36/82/36
f 52/75/8 20/86/8 19/84/8
f 50/29/1 17/31/1 20/86/1
f 51/87/37 53/111/37 46/88/37
