# Blender 4.4.0
# www.blender.org
mtllib fence_0421x00.mtl
o fenceboard_wood_long
v -2.174356 0.153755 -0.127550
v 2.174356 0.153755 -0.127551
v -2.174356 0.153755 0.127551
v 2.174356 0.153755 0.127550
v -2.174356 1.329226 -0.127550
v 2.174356 1.329226 -0.127551
v -2.174356 1.329226 0.127551
v 2.174356 1.329226 0.127550
v -2.174356 0.785718 -0.086686
v -2.174356 0.744854 -0.127550
v 2.174356 0.744854 -0.127551
v 2.174356 0.785718 -0.086686
v -2.174356 0.744854 0.127551
v -2.174356 0.785718 0.086686
v 2.174356 0.785718 0.086686
v 2.174356 0.744854 0.127550
v -2.174356 1.961189 -0.086686
v -2.174356 1.920325 -0.127550
v 2.174356 1.920325 -0.127551
v 2.174356 1.961189 -0.086686
v -2.174356 1.920325 0.127551
v -2.174356 1.961189 0.086686
v 2.174356 1.961189 0.086686
v 2.174356 1.920325 0.127550
vn -0.0000 1.0000 -0.0000
vn -0.0000 -0.0000 1.0000
vn -1.0000 -0.0000 -0.0000
vn -0.0000 -0.0000 -1.0000
vn -0.0000 -1.0000 -0.0000
vn 1.0000 -0.0000 -0.0000
vn -0.0000 0.7071 -0.7071
vn -0.0000 0.7071 0.7071
vt 0.999386 0.710928
vt 0.499223 0.695320
vt 0.999386 0.695320
vt 0.999386 0.687519
vt 0.499223 0.625334
vt 0.999386 0.625334
vt 0.387650 0.804878
vt 0.380319 0.766444
vt 0.493692 0.759113
vt 0.999386 0.687367
vt 0.499223 0.625182
vt 0.999386 0.625182
vt 0.917708 0.646771
vt 0.818016 0.640923
vt 0.917708 0.640923
vt 0.386241 0.805985
vt 0.378434 0.765056
vt 0.499167 0.757249
vt 0.500492 0.788598
vt 0.999251 0.806471
vt 0.500492 0.806471
vt 0.999251 0.782842
vt 0.500492 0.721903
vt 0.999251 0.721903
vt 0.999251 0.782640
vt 0.500492 0.721702
vt 0.999251 0.721702
vt 0.917708 0.639716
vt 0.818016 0.633868
vt 0.917708 0.633868
vt 0.388210 0.804878
vt 0.380879 0.766444
vt 0.494252 0.759113
vt 0.499223 0.718932
vt 0.499223 0.710928
vt 0.999251 0.788598
vt 0.500492 0.812429
vt 0.386335 0.805985
vt 0.378529 0.765056
vt 0.499262 0.757249
vt 0.499223 0.687519
vt 0.493692 0.804878
vt 0.380319 0.797547
vt 0.387650 0.759113
vt 0.499223 0.687367
vt 0.818016 0.646771
vt 0.499167 0.805985
vt 0.378434 0.798178
vt 0.386241 0.757249
vt 0.500492 0.782842
vt 0.500492 0.782640
vt 0.818016 0.639716
vt 0.494252 0.804878
vt 0.380879 0.797547
vt 0.388210 0.759113
vt 0.999386 0.718932
vt 0.999251 0.812429
vt 0.499262 0.805985
vt 0.378529 0.798178
vt 0.386335 0.757249
s 0
usemtl Fence
f 12/1/1 14/2/1 15/3/1
f 16/4/2 3/5/2 4/6/2
f 21/7/3 17/8/3 5/9/3
f 10/10/4 2/11/4 1/12/4
f 4/13/5 1/14/5 2/15/5
f 11/16/6 15/17/6 4/18/6
f 20/19/1 22/20/1 23/21/1
f 24/22/2 7/23/2 8/24/2
f 18/25/4 6/26/4 5/27/4
f 8/28/5 5/29/5 6/30/5
f 19/31/6 23/32/6 8/33/6
f 12/1/7 10/34/7 9/35/7
f 14/2/8 16/4/8 15/3/8
f 20/19/7 18/25/7 17/36/7
f 22/20/8 24/37/8 23/21/8
f 13/38/3 9/39/3 1/40/3
f 12/1/1 9/35/1 14/2/1
f 16/4/2 13/41/2 3/5/2
f 5/9/3 7/42/3 21/7/3
f 21/7/3 22/43/3 17/8/3
f 17/8/3 18/44/3 5/9/3
f 10/10/4 11/45/4 2/11/4
f 4/13/5 3/46/5 1/14/5
f 4/18/6 2/47/6 11/16/6
f 11/16/6 12/48/6 15/17/6
f 15/17/6 16/49/6 4/18/6
f 20/19/1 17/36/1 22/20/1
f 24/22/2 21/50/2 7/23/2
f 18/25/4 19/51/4 6/26/4
f 8/28/5 7/52/5 5/29/5
f 8/33/6 6/53/6 19/31/6
f 19/31/6 20/54/6 23/32/6
f 23/32/6 24/55/6 8/33/6
f 12/1/7 11/56/7 10/34/7
f 14/2/8 13/41/8 16/4/8
f 20/19/7 19/51/7 18/25/7
f 22/20/8 21/57/8 24/37/8
f 1/40/3 3/58/3 13/38/3
f 13/38/3 14/59/3 9/39/3
f 9/39/3 10/60/3 1/40/3
