# Blender 4.4.0
# www.blender.org
mtllib fence_0420x05.mtl
o fencepost_wood
v -0.000000 0.000000 -0.379931
v 0.268651 0.000000 -0.268652
v 0.379930 0.000000 -0.000000
v 0.268651 0.000000 0.268651
v -0.000000 0.000000 0.379931
v -0.268652 0.000000 0.268651
v -0.379931 0.000000 -0.000000
v -0.268652 0.000000 -0.268652
v 0.159477 2.091851 -0.159477
v -0.000000 2.091851 -0.225535
v 0.225534 2.091851 -0.000000
v 0.159477 2.091851 0.159477
v -0.000000 2.091851 0.225534
v -0.159477 2.091851 0.159477
v -0.225535 2.091851 -0.000000
v -0.159477 2.091851 -0.159477
v -0.000000 1.948762 -0.379931
v -0.000000 2.033549 -0.326972
v 0.231204 2.033549 -0.231204
v 0.268651 1.948762 -0.268652
v 0.326971 2.033549 -0.000000
v 0.379930 1.948762 -0.000000
v 0.231204 2.033549 0.231204
v 0.268651 1.948762 0.268651
v -0.000000 2.033549 0.326972
v -0.000000 1.948762 0.379931
v -0.231205 2.033549 0.231204
v -0.268652 1.948762 0.268651
v -0.326972 2.033549 -0.000000
v -0.379931 1.948762 -0.000000
v -0.231205 2.033549 -0.231204
v -0.268652 1.948762 -0.268652
v -0.000000 2.125308 -0.000000
vn -0.0000 -0.0000 -1.0000
vn 0.7071 -0.0000 -0.7071
vn 1.0000 -0.0000 -0.0000
vn 0.7071 -0.0000 0.7071
vn -0.0000 -0.0000 1.0000
vn -0.7071 -0.0000 0.7071
vn -1.0000 -0.0000 -0.0000
vn -0.7071 -0.0000 -0.7071
vn 0.2605 0.9297 -0.2605
vn -0.0000 0.9297 -0.3684
vn 0.3684 0.9297 -0.0000
vn 0.2605 0.9297 0.2605
vn -0.0000 0.9297 0.3684
vn -0.2605 0.9297 0.2605
vn -0.3684 0.9297 -0.0000
vn -0.2605 0.9297 -0.2605
vn -0.0000 0.2592 -0.9658
vn -0.0000 0.6912 -0.7227
vn 0.5110 0.6912 -0.5110
vn 0.6829 0.2592 -0.6829
vn 0.7227 0.6912 -0.0000
vn 0.9658 0.2592 -0.0000
vn 0.5110 0.6912 0.5110
vn 0.6829 0.2592 0.6829
vn -0.0000 0.6912 0.7227
vn -0.0000 0.2592 0.9658
vn -0.5110 0.6912 0.5110
vn -0.6829 0.2592 0.6829
vn -0.7227 0.6912 -0.0000
vn -0.9658 0.2592 -0.0000
vn -0.5110 0.6912 -0.5110
vn -0.6829 0.2592 -0.6829
vn -0.0000 1.0000 -0.0000
vt 0.468566 0.750086
vt 0.437423 0.625369
vt 0.468566 0.625369
vt 0.333623 0.803927
vt 0.349406 0.795303
vt 0.352815 0.803501
vt 0.358257 0.786804
vt 0.366611 0.790118
vt 0.366820 0.770739
vt 0.358458 0.774400
vt 0.349680 0.765490
vt 0.353084 0.757110
vt 0.337301 0.765734
vt 0.333892 0.757536
vt 0.281707 0.750086
vt 0.250564 0.625369
vt 0.281707 0.625369
vt 0.328450 0.774233
vt 0.320096 0.770919
vt 0.328249 0.786637
vt 0.319887 0.790298
vt 0.343353 0.780519
vt 0.406280 0.750086
vt 0.375137 0.625369
vt 0.406280 0.625369
vt 0.437423 0.750086
vt 0.343993 0.750086
vt 0.312850 0.625369
vt 0.343993 0.625369
vt 0.499710 0.750086
vt 0.499710 0.625369
vt 0.312850 0.750086
vt 0.375137 0.750086
vt 0.311746 0.793641
vt 0.329785 0.812302
vt 0.356547 0.812437
vt 0.375236 0.793333
vt 0.374961 0.767396
vt 0.356922 0.748735
vt 0.330160 0.748600
vt 0.311471 0.767705
vt 0.337027 0.795547
vt 0.250564 0.750086
s 1
usemtl Fence
f 32/1/32 1/2/1 8/3/8
f 19/4/19 11/5/11 21/6/21
f 21/6/21 12/7/12 23/8/23
f 25/9/25 12/7/12 13/10/13
f 25/9/25 14/11/14 27/12/27
f 27/12/27 15/13/15 29/14/29
f 28/15/28 7/16/7 6/17/6
f 29/14/29 16/18/16 31/19/31
f 31/19/31 10/20/10 18/21/18
f 16/18/16 15/13/15 33/22/33
f 20/23/20 3/24/3 2/25/2
f 17/26/17 2/25/2 1/2/1
f 24/27/24 5/28/5 4/29/4
f 30/30/30 8/3/8 7/31/7
f 26/32/26 6/17/6 5/28/5
f 22/33/22 4/29/4 3/24/3
f 17/34/17 19/4/19 20/35/20
f 20/35/20 21/6/21 22/36/22
f 22/36/22 23/8/23 24/37/24
f 26/38/26 23/8/23 25/9/25
f 26/38/26 27/12/27 28/39/28
f 30/40/30 27/12/27 29/14/29
f 30/40/30 31/19/31 32/41/32
f 17/34/17 31/19/31 18/21/18
f 19/4/19 10/20/10 9/42/9
f 14/11/14 13/10/13 33/22/33
f 12/7/12 11/5/11 33/22/33
f 9/42/9 10/20/10 33/22/33
f 10/20/10 16/18/16 33/22/33
f 15/13/15 14/11/14 33/22/33
f 13/10/13 12/7/12 33/22/33
f 11/5/11 9/42/9 33/22/33
f 32/1/32 17/26/17 1/2/1
f 19/4/19 9/42/9 11/5/11
f 21/6/21 11/5/11 12/7/12
f 25/9/25 23/8/23 12/7/12
f 25/9/25 13/10/13 14/11/14
f 27/12/27 14/11/14 15/13/15
f 28/15/28 30/43/30 7/16/7
f 29/14/29 15/13/15 16/18/16
f 31/19/31 16/18/16 10/20/10
f 20/23/20 22/33/22 3/24/3
f 17/26/17 20/23/20 2/25/2
f 24/27/24 26/32/26 5/28/5
f 30/30/30 32/1/32 8/3/8
f 26/32/26 28/15/28 6/17/6
f 22/33/22 24/27/24 4/29/4
f 17/34/17 18/21/18 19/4/19
f 20/35/20 19/4/19 21/6/21
f 22/36/22 21/6/21 23/8/23
f 26/38/26 24/37/24 23/8/23
f 26/38/26 25/9/25 27/12/27
f 30/40/30 28/39/28 27/12/27
f 30/40/30 29/14/29 31/19/31
f 17/34/17 32/41/32 31/19/31
f 19/4/19 18/21/18 10/20/10
