# Blender 4.4.0
# www.blender.org
mtllib fence_0378x00.mtl
o fenceboard_wood
v -1.115695 0.153755 -0.127550
v 1.115695 0.153755 -0.127551
v -1.115695 0.153755 0.127551
v 1.115695 0.153755 0.127550
v -1.115695 1.329226 -0.127550
v 1.115695 1.329226 -0.127551
v -1.115695 1.329226 0.127551
v 1.115695 1.329226 0.127550
v -1.115695 0.785718 -0.086686
v -1.115695 0.744854 -0.127550
v 1.115695 0.744854 -0.127551
v 1.115695 0.785718 -0.086686
v -1.115695 0.744854 0.127551
v -1.115695 0.785718 0.086686
v 1.115695 0.785718 0.086686
v 1.115695 0.744854 0.127550
v -1.115695 1.961189 -0.086686
v -1.115695 1.920325 -0.127550
v 1.115695 1.920325 -0.127551
v 1.115695 1.961189 -0.086686
v -1.115695 1.920325 0.127551
v -1.115695 1.961189 0.086686
v 1.115695 1.961189 0.086686
v 1.115695 1.920325 0.127550
vn -0.0000 1.0000 -0.0000
vn -0.0000 -0.0000 1.0000
vn -1.0000 -0.0000 -0.0000
vn -0.0000 -0.0000 -1.0000
vn -0.0000 -1.0000 -0.0000
vn 1.0000 -0.0000 -0.0000
vn -0.0000 0.7071 -0.7071
vn -0.0000 0.7071 0.7071
vt 0.500032 0.781687
vt 0.714212 0.798328
vt 0.500032 0.798328
vt 0.714212 0.776051
vt 0.500032 0.719315
vt 0.714212 0.719315
vt 0.387466 0.804005
vt 0.380099 0.765382
vt 0.494032 0.758015
vt 0.714212 0.776140
vt 0.500032 0.719403
vt 0.714212 0.719403
vt 0.883466 0.649760
vt 0.926215 0.654647
vt 0.883466 0.654647
vt 0.388472 0.805608
vt 0.381530 0.769217
vt 0.488878 0.762276
vt 0.848573 0.702366
vt 0.639963 0.686157
vt 0.848573 0.686157
vt 0.848573 0.680754
vt 0.639963 0.625493
vt 0.848573 0.625493
vt 0.848573 0.680317
vt 0.639963 0.625056
vt 0.848573 0.625056
vt 0.875299 0.640393
vt 0.957788 0.649824
vt 0.875299 0.649824
vt 0.386814 0.803828
vt 0.379447 0.765204
vt 0.493380 0.757837
vt 0.714212 0.781687
vt 0.500032 0.803875
vt 0.639963 0.707768
vt 0.639963 0.702366
vt 0.387954 0.805100
vt 0.381013 0.768709
vt 0.488360 0.761768
vt 0.500032 0.776051
vt 0.494032 0.804005
vt 0.380099 0.796638
vt 0.387466 0.758015
vt 0.500032 0.776140
vt 0.926215 0.649760
vt 0.488878 0.805608
vt 0.381530 0.798667
vt 0.388472 0.762276
vt 0.639963 0.680754
vt 0.639963 0.680317
vt 0.957788 0.640393
vt 0.493380 0.803828
vt 0.379447 0.796460
vt 0.386814 0.757837
vt 0.714212 0.803875
vt 0.848573 0.707768
vt 0.488360 0.805100
vt 0.381013 0.798159
vt 0.387954 0.761768
s 0
usemtl Fence
f 12/1/1 14/2/1 15/3/1
f 16/4/2 3/5/2 4/6/2
f 21/7/3 17/8/3 5/9/3
f 10/10/4 2/11/4 1/12/4
f 4/13/5 1/14/5 2/15/5
f 11/16/6 15/17/6 4/18/6
f 20/19/1 22/20/1 23/21/1
f 24/22/2 7/23/2 8/24/2
f 18/25/4 6/26/4 5/27/4
f 8/28/5 5/29/5 6/30/5
f 19/31/6 23/32/6 8/33/6
f 12/1/7 10/10/7 9/34/7
f 14/2/8 16/35/8 15/3/8
f 20/19/7 18/36/7 17/37/7
f 22/20/8 24/22/8 23/21/8
f 13/38/3 9/39/3 1/40/3
f 12/1/1 9/34/1 14/2/1
f 16/4/2 13/41/2 3/5/2
f 5/9/3 7/42/3 21/7/3
f 21/7/3 22/43/3 17/8/3
f 17/8/3 18/44/3 5/9/3
f 10/10/4 11/45/4 2/11/4
f 4/13/5 3/46/5 1/14/5
f 4/18/6 2/47/6 11/16/6
f 11/16/6 12/48/6 15/17/6
f 15/17/6 16/49/6 4/18/6
f 20/19/1 17/37/1 22/20/1
f 24/22/2 21/50/2 7/23/2
f 18/25/4 19/51/4 6/26/4
f 8/28/5 7/52/5 5/29/5
f 8/33/6 6/53/6 19/31/6
f 19/31/6 20/54/6 23/32/6
f 23/32/6 24/55/6 8/33/6
f 12/1/7 11/45/7 10/10/7
f 14/2/8 13/56/8 16/35/8
f 20/19/7 19/57/7 18/36/7
f 22/20/8 21/50/8 24/22/8
f 1/40/3 3/58/3 13/38/3
f 13/38/3 14/59/3 9/39/3
f 9/39/3 10/60/3 1/40/3
