# Blender 4.4.0
# www.blender.org
mtllib fenceboard_lightwood_0378x07.mtl
o fenceboard_lightwood.001
v -1.115695 0.153755 -0.127550
v 1.115695 0.153755 -0.127551
v -1.115695 0.153755 0.127551
v 1.115695 0.153755 0.127550
v -1.115695 1.329226 -0.127550
v 1.115695 1.329226 -0.127551
v -1.115695 1.329226 0.127551
v 1.115695 1.329226 0.127550
v -1.115695 0.785718 -0.086686
v -1.115695 0.744854 -0.127550
v 1.115695 0.744854 -0.127551
v 1.115695 0.785718 -0.086686
v -1.115695 0.744854 0.127551
v -1.115695 0.785718 0.086686
v 1.115695 0.785718 0.086686
v 1.115695 0.744854 0.127550
v -1.115695 1.961189 -0.086686
v -1.115695 1.920325 -0.127550
v 1.115695 1.920325 -0.127551
v 1.115695 1.961189 -0.086686
v -1.115695 1.920325 0.127551
v -1.115695 1.961189 0.086686
v 1.115695 1.961189 0.086686
v 1.115695 1.920325 0.127550
vn -0.0000 1.0000 -0.0000
vn -0.0000 -0.0000 1.0000
vn -1.0000 -0.0000 -0.0000
vn -0.0000 -0.0000 -1.0000
vn -0.0000 -1.0000 -0.0000
vn 1.0000 -0.0000 -0.0000
vn -0.0000 0.7071 -0.7071
vn -0.0000 0.7071 0.7071
vt 0.500032 0.219187
vt 0.714212 0.235828
vt 0.500032 0.235828
vt 0.714212 0.213551
vt 0.500032 0.156815
vt 0.714212 0.156815
vt 0.387466 0.241505
vt 0.380099 0.202882
vt 0.494032 0.195515
vt 0.714212 0.213640
vt 0.500032 0.156903
vt 0.714212 0.156903
vt 0.883466 0.087260
vt 0.926215 0.092147
vt 0.883466 0.092147
vt 0.388472 0.243108
vt 0.381530 0.206717
vt 0.488878 0.199776
vt 0.848573 0.139866
vt 0.639963 0.123657
vt 0.848573 0.123657
vt 0.848573 0.118254
vt 0.639963 0.062993
vt 0.848573 0.062993
vt 0.848573 0.117817
vt 0.639963 0.062556
vt 0.848573 0.062556
vt 0.875299 0.077893
vt 0.957788 0.087324
vt 0.875299 0.087324
vt 0.386814 0.241328
vt 0.379447 0.202704
vt 0.493380 0.195337
vt 0.714212 0.219187
vt 0.500032 0.241375
vt 0.639963 0.145268
vt 0.639963 0.139866
vt 0.387954 0.242600
vt 0.381013 0.206209
vt 0.488360 0.199268
vt 0.500032 0.213551
vt 0.494032 0.241505
vt 0.380099 0.234138
vt 0.387466 0.195515
vt 0.500032 0.213640
vt 0.926215 0.087260
vt 0.488878 0.243108
vt 0.381530 0.236167
vt 0.388472 0.199776
vt 0.639963 0.118254
vt 0.639963 0.117817
vt 0.957788 0.077893
vt 0.493380 0.241328
vt 0.379447 0.233960
vt 0.386814 0.195337
vt 0.714212 0.241375
vt 0.848573 0.145268
vt 0.488360 0.242600
vt 0.381013 0.235659
vt 0.387954 0.199268
s 0
usemtl Fence
f 12/1/1 14/2/1 15/3/1
f 16/4/2 3/5/2 4/6/2
f 21/7/3 17/8/3 5/9/3
f 10/10/4 2/11/4 1/12/4
f 4/13/5 1/14/5 2/15/5
f 11/16/6 15/17/6 4/18/6
f 20/19/1 22/20/1 23/21/1
f 24/22/2 7/23/2 8/24/2
f 18/25/4 6/26/4 5/27/4
f 8/28/5 5/29/5 6/30/5
f 19/31/6 23/32/6 8/33/6
f 12/1/7 10/10/7 9/34/7
f 14/2/8 16/35/8 15/3/8
f 20/19/7 18/36/7 17/37/7
f 22/20/8 24/22/8 23/21/8
f 13/38/3 9/39/3 1/40/3
f 12/1/1 9/34/1 14/2/1
f 16/4/2 13/41/2 3/5/2
f 5/9/3 7/42/3 21/7/3
f 21/7/3 22/43/3 17/8/3
f 17/8/3 18/44/3 5/9/3
f 10/10/4 11/45/4 2/11/4
f 4/13/5 3/46/5 1/14/5
f 4/18/6 2/47/6 11/16/6
f 11/16/6 12/48/6 15/17/6
f 15/17/6 16/49/6 4/18/6
f 20/19/1 17/37/1 22/20/1
f 24/22/2 21/50/2 7/23/2
f 18/25/4 19/51/4 6/26/4
f 8/28/5 7/52/5 5/29/5
f 8/33/6 6/53/6 19/31/6
f 19/31/6 20/54/6 23/32/6
f 23/32/6 24/55/6 8/33/6
f 12/1/7 11/45/7 10/10/7
f 14/2/8 13/56/8 16/35/8
f 20/19/7 19/57/7 18/36/7
f 22/20/8 21/50/8 24/22/8
f 1/40/3 3/58/3 13/38/3
f 13/38/3 14/59/3 9/39/3
f 9/39/3 10/60/3 1/40/3
