{
	"asset":{
		"generator":"Khronos glTF Blender I/O v4.5.48",
		"version":"2.0"
	},
	"extensionsUsed":[
		"KHR_materials_specular"
	],
	"scene":0,
	"scenes":[
		{
			"name":"Scene",
			"nodes":[
				0,
				17
			]
		}
	],
	"nodes":[
		{
			"mesh":0,
			"name":"Cylinder.002"
		},
		{
			"name":"2A"
		},
		{
			"name":"2B"
		},
		{
			"name":"2C"
		},
		{
			"name":"2D"
		},
		{
			"name":"3A"
		},
		{
			"name":"3B"
		},
		{
			"name":"3C"
		},
		{
			"name":"3D"
		},
		{
			"name":"3E"
		},
		{
			"name":"3F"
		},
		{
			"name":"3G"
		},
		{
			"name":"3H"
		},
		{
			"mesh":1,
			"name":"firepit_739_02_a",
			"skin":0
		},
		{
			"mesh":2,
			"name":"firepit_739_02_b",
			"skin":0
		},
		{
			"mesh":3,
			"name":"firepit_739_02_c",
			"skin":0
		},
		{
			"mesh":4,
			"name":"firepit_739_02_d",
			"skin":0
		},
		{
			"children":[
				13,
				14,
				15,
				16,
				1,
				2,
				3,
				4,
				5,
				6,
				7,
				8,
				9,
				10,
				11,
				12
			],
			"name":"Armature_02",
			"translation":[
				0,
				0.8500000238418579,
				0
			]
		}
	],
	"animations":[
		{
			"channels":[
				{
					"sampler":0,
					"target":{
						"node":1,
						"path":"translation"
					}
				},
				{
					"sampler":1,
					"target":{
						"node":1,
						"path":"rotation"
					}
				},
				{
					"sampler":2,
					"target":{
						"node":1,
						"path":"scale"
					}
				},
				{
					"sampler":3,
					"target":{
						"node":2,
						"path":"translation"
					}
				},
				{
					"sampler":4,
					"target":{
						"node":2,
						"path":"rotation"
					}
				},
				{
					"sampler":5,
					"target":{
						"node":2,
						"path":"scale"
					}
				},
				{
					"sampler":6,
					"target":{
						"node":3,
						"path":"translation"
					}
				},
				{
					"sampler":7,
					"target":{
						"node":3,
						"path":"rotation"
					}
				},
				{
					"sampler":8,
					"target":{
						"node":3,
						"path":"scale"
					}
				},
				{
					"sampler":9,
					"target":{
						"node":4,
						"path":"translation"
					}
				},
				{
					"sampler":10,
					"target":{
						"node":4,
						"path":"rotation"
					}
				},
				{
					"sampler":11,
					"target":{
						"node":4,
						"path":"scale"
					}
				},
				{
					"sampler":12,
					"target":{
						"node":5,
						"path":"translation"
					}
				},
				{
					"sampler":13,
					"target":{
						"node":5,
						"path":"rotation"
					}
				},
				{
					"sampler":14,
					"target":{
						"node":5,
						"path":"scale"
					}
				},
				{
					"sampler":15,
					"target":{
						"node":6,
						"path":"translation"
					}
				},
				{
					"sampler":16,
					"target":{
						"node":6,
						"path":"rotation"
					}
				},
				{
					"sampler":17,
					"target":{
						"node":6,
						"path":"scale"
					}
				},
				{
					"sampler":18,
					"target":{
						"node":7,
						"path":"translation"
					}
				},
				{
					"sampler":19,
					"target":{
						"node":7,
						"path":"rotation"
					}
				},
				{
					"sampler":20,
					"target":{
						"node":7,
						"path":"scale"
					}
				},
				{
					"sampler":21,
					"target":{
						"node":8,
						"path":"translation"
					}
				},
				{
					"sampler":22,
					"target":{
						"node":8,
						"path":"rotation"
					}
				},
				{
					"sampler":23,
					"target":{
						"node":8,
						"path":"scale"
					}
				},
				{
					"sampler":24,
					"target":{
						"node":9,
						"path":"translation"
					}
				},
				{
					"sampler":25,
					"target":{
						"node":9,
						"path":"rotation"
					}
				},
				{
					"sampler":26,
					"target":{
						"node":9,
						"path":"scale"
					}
				},
				{
					"sampler":27,
					"target":{
						"node":10,
						"path":"translation"
					}
				},
				{
					"sampler":28,
					"target":{
						"node":10,
						"path":"rotation"
					}
				},
				{
					"sampler":29,
					"target":{
						"node":10,
						"path":"scale"
					}
				},
				{
					"sampler":30,
					"target":{
						"node":11,
						"path":"translation"
					}
				},
				{
					"sampler":31,
					"target":{
						"node":11,
						"path":"rotation"
					}
				},
				{
					"sampler":32,
					"target":{
						"node":11,
						"path":"scale"
					}
				},
				{
					"sampler":33,
					"target":{
						"node":12,
						"path":"translation"
					}
				},
				{
					"sampler":34,
					"target":{
						"node":12,
						"path":"rotation"
					}
				},
				{
					"sampler":35,
					"target":{
						"node":12,
						"path":"scale"
					}
				}
			],
			"name":"idle",
			"samplers":[
				{
					"input":29,
					"interpolation":"STEP",
					"output":30
				},
				{
					"input":29,
					"interpolation":"STEP",
					"output":31
				},
				{
					"input":32,
					"interpolation":"LINEAR",
					"output":33
				},
				{
					"input":29,
					"interpolation":"STEP",
					"output":30
				},
				{
					"input":29,
					"interpolation":"STEP",
					"output":31
				},
				{
					"input":32,
					"interpolation":"LINEAR",
					"output":34
				},
				{
					"input":29,
					"interpolation":"STEP",
					"output":30
				},
				{
					"input":29,
					"interpolation":"STEP",
					"output":31
				},
				{
					"input":32,
					"interpolation":"LINEAR",
					"output":35
				},
				{
					"input":29,
					"interpolation":"STEP",
					"output":30
				},
				{
					"input":29,
					"interpolation":"STEP",
					"output":31
				},
				{
					"input":32,
					"interpolation":"LINEAR",
					"output":36
				},
				{
					"input":29,
					"interpolation":"STEP",
					"output":30
				},
				{
					"input":29,
					"interpolation":"STEP",
					"output":31
				},
				{
					"input":32,
					"interpolation":"LINEAR",
					"output":37
				},
				{
					"input":29,
					"interpolation":"STEP",
					"output":30
				},
				{
					"input":29,
					"interpolation":"STEP",
					"output":31
				},
				{
					"input":32,
					"interpolation":"LINEAR",
					"output":38
				},
				{
					"input":29,
					"interpolation":"STEP",
					"output":30
				},
				{
					"input":29,
					"interpolation":"STEP",
					"output":31
				},
				{
					"input":32,
					"interpolation":"LINEAR",
					"output":39
				},
				{
					"input":29,
					"interpolation":"STEP",
					"output":30
				},
				{
					"input":29,
					"interpolation":"STEP",
					"output":31
				},
				{
					"input":32,
					"interpolation":"LINEAR",
					"output":40
				},
				{
					"input":29,
					"interpolation":"STEP",
					"output":30
				},
				{
					"input":29,
					"interpolation":"STEP",
					"output":31
				},
				{
					"input":32,
					"interpolation":"LINEAR",
					"output":41
				},
				{
					"input":29,
					"interpolation":"STEP",
					"output":30
				},
				{
					"input":29,
					"interpolation":"STEP",
					"output":31
				},
				{
					"input":32,
					"interpolation":"LINEAR",
					"output":42
				},
				{
					"input":29,
					"interpolation":"STEP",
					"output":30
				},
				{
					"input":29,
					"interpolation":"STEP",
					"output":31
				},
				{
					"input":32,
					"interpolation":"LINEAR",
					"output":43
				},
				{
					"input":29,
					"interpolation":"STEP",
					"output":30
				},
				{
					"input":29,
					"interpolation":"STEP",
					"output":31
				},
				{
					"input":32,
					"interpolation":"LINEAR",
					"output":44
				}
			]
		},
		{
			"channels":[
				{
					"sampler":0,
					"target":{
						"node":1,
						"path":"translation"
					}
				},
				{
					"sampler":1,
					"target":{
						"node":1,
						"path":"rotation"
					}
				},
				{
					"sampler":2,
					"target":{
						"node":1,
						"path":"scale"
					}
				},
				{
					"sampler":3,
					"target":{
						"node":2,
						"path":"translation"
					}
				},
				{
					"sampler":4,
					"target":{
						"node":2,
						"path":"rotation"
					}
				},
				{
					"sampler":5,
					"target":{
						"node":2,
						"path":"scale"
					}
				},
				{
					"sampler":6,
					"target":{
						"node":3,
						"path":"translation"
					}
				},
				{
					"sampler":7,
					"target":{
						"node":3,
						"path":"rotation"
					}
				},
				{
					"sampler":8,
					"target":{
						"node":3,
						"path":"scale"
					}
				},
				{
					"sampler":9,
					"target":{
						"node":4,
						"path":"translation"
					}
				},
				{
					"sampler":10,
					"target":{
						"node":4,
						"path":"rotation"
					}
				},
				{
					"sampler":11,
					"target":{
						"node":4,
						"path":"scale"
					}
				},
				{
					"sampler":12,
					"target":{
						"node":5,
						"path":"translation"
					}
				},
				{
					"sampler":13,
					"target":{
						"node":5,
						"path":"rotation"
					}
				},
				{
					"sampler":14,
					"target":{
						"node":5,
						"path":"scale"
					}
				},
				{
					"sampler":15,
					"target":{
						"node":6,
						"path":"translation"
					}
				},
				{
					"sampler":16,
					"target":{
						"node":6,
						"path":"rotation"
					}
				},
				{
					"sampler":17,
					"target":{
						"node":6,
						"path":"scale"
					}
				},
				{
					"sampler":18,
					"target":{
						"node":7,
						"path":"translation"
					}
				},
				{
					"sampler":19,
					"target":{
						"node":7,
						"path":"rotation"
					}
				},
				{
					"sampler":20,
					"target":{
						"node":7,
						"path":"scale"
					}
				},
				{
					"sampler":21,
					"target":{
						"node":8,
						"path":"translation"
					}
				},
				{
					"sampler":22,
					"target":{
						"node":8,
						"path":"rotation"
					}
				},
				{
					"sampler":23,
					"target":{
						"node":8,
						"path":"scale"
					}
				},
				{
					"sampler":24,
					"target":{
						"node":9,
						"path":"translation"
					}
				},
				{
					"sampler":25,
					"target":{
						"node":9,
						"path":"rotation"
					}
				},
				{
					"sampler":26,
					"target":{
						"node":9,
						"path":"scale"
					}
				},
				{
					"sampler":27,
					"target":{
						"node":10,
						"path":"translation"
					}
				},
				{
					"sampler":28,
					"target":{
						"node":10,
						"path":"rotation"
					}
				},
				{
					"sampler":29,
					"target":{
						"node":10,
						"path":"scale"
					}
				},
				{
					"sampler":30,
					"target":{
						"node":11,
						"path":"translation"
					}
				},
				{
					"sampler":31,
					"target":{
						"node":11,
						"path":"rotation"
					}
				},
				{
					"sampler":32,
					"target":{
						"node":11,
						"path":"scale"
					}
				},
				{
					"sampler":33,
					"target":{
						"node":12,
						"path":"translation"
					}
				},
				{
					"sampler":34,
					"target":{
						"node":12,
						"path":"rotation"
					}
				},
				{
					"sampler":35,
					"target":{
						"node":12,
						"path":"scale"
					}
				}
			],
			"name":"idle.002",
			"samplers":[
				{
					"input":29,
					"interpolation":"STEP",
					"output":30
				},
				{
					"input":29,
					"interpolation":"STEP",
					"output":31
				},
				{
					"input":29,
					"interpolation":"STEP",
					"output":45
				},
				{
					"input":29,
					"interpolation":"STEP",
					"output":30
				},
				{
					"input":29,
					"interpolation":"STEP",
					"output":31
				},
				{
					"input":29,
					"interpolation":"STEP",
					"output":45
				},
				{
					"input":29,
					"interpolation":"STEP",
					"output":30
				},
				{
					"input":29,
					"interpolation":"STEP",
					"output":31
				},
				{
					"input":29,
					"interpolation":"STEP",
					"output":45
				},
				{
					"input":29,
					"interpolation":"STEP",
					"output":30
				},
				{
					"input":29,
					"interpolation":"STEP",
					"output":31
				},
				{
					"input":29,
					"interpolation":"STEP",
					"output":45
				},
				{
					"input":29,
					"interpolation":"STEP",
					"output":30
				},
				{
					"input":29,
					"interpolation":"STEP",
					"output":31
				},
				{
					"input":29,
					"interpolation":"STEP",
					"output":45
				},
				{
					"input":29,
					"interpolation":"STEP",
					"output":30
				},
				{
					"input":29,
					"interpolation":"STEP",
					"output":31
				},
				{
					"input":29,
					"interpolation":"STEP",
					"output":45
				},
				{
					"input":29,
					"interpolation":"STEP",
					"output":30
				},
				{
					"input":29,
					"interpolation":"STEP",
					"output":31
				},
				{
					"input":29,
					"interpolation":"STEP",
					"output":45
				},
				{
					"input":29,
					"interpolation":"STEP",
					"output":30
				},
				{
					"input":29,
					"interpolation":"STEP",
					"output":31
				},
				{
					"input":29,
					"interpolation":"STEP",
					"output":45
				},
				{
					"input":29,
					"interpolation":"STEP",
					"output":30
				},
				{
					"input":29,
					"interpolation":"STEP",
					"output":31
				},
				{
					"input":29,
					"interpolation":"STEP",
					"output":45
				},
				{
					"input":29,
					"interpolation":"STEP",
					"output":30
				},
				{
					"input":29,
					"interpolation":"STEP",
					"output":31
				},
				{
					"input":29,
					"interpolation":"STEP",
					"output":45
				},
				{
					"input":29,
					"interpolation":"STEP",
					"output":30
				},
				{
					"input":29,
					"interpolation":"STEP",
					"output":31
				},
				{
					"input":29,
					"interpolation":"STEP",
					"output":45
				},
				{
					"input":29,
					"interpolation":"STEP",
					"output":30
				},
				{
					"input":29,
					"interpolation":"STEP",
					"output":31
				},
				{
					"input":29,
					"interpolation":"STEP",
					"output":45
				}
			]
		}
	],
	"materials":[
		{
			"doubleSided":true,
			"extensions":{
				"KHR_materials_specular":{
					"specularFactor":0
				}
			},
			"name":"Material.001",
			"pbrMetallicRoughness":{
				"baseColorTexture":{
					"index":0
				},
				"metallicFactor":0
			}
		},
		{
			"doubleSided":true,
			"extensions":{
				"KHR_materials_specular":{
					"specularFactor":0
				}
			},
			"name":"palette",
			"pbrMetallicRoughness":{
				"baseColorTexture":{
					"index":1
				},
				"metallicFactor":0
			}
		}
	],
	"meshes":[
		{
			"name":"Cylinder.001",
			"primitives":[
				{
					"attributes":{
						"POSITION":0,
						"NORMAL":1,
						"TEXCOORD_0":2
					},
					"indices":3,
					"material":0
				}
			]
		},
		{
			"name":"Untitled.008",
			"primitives":[
				{
					"attributes":{
						"POSITION":4,
						"NORMAL":5,
						"TEXCOORD_0":6,
						"JOINTS_0":7,
						"WEIGHTS_0":8
					},
					"indices":9,
					"material":1
				}
			]
		},
		{
			"name":"Untitled.009",
			"primitives":[
				{
					"attributes":{
						"POSITION":11,
						"NORMAL":12,
						"TEXCOORD_0":13,
						"JOINTS_0":14,
						"WEIGHTS_0":15
					},
					"indices":16,
					"material":1
				}
			]
		},
		{
			"name":"Untitled.010",
			"primitives":[
				{
					"attributes":{
						"POSITION":17,
						"NORMAL":18,
						"TEXCOORD_0":19,
						"JOINTS_0":20,
						"WEIGHTS_0":21
					},
					"indices":22,
					"material":1
				}
			]
		},
		{
			"name":"Untitled.011",
			"primitives":[
				{
					"attributes":{
						"POSITION":23,
						"NORMAL":24,
						"TEXCOORD_0":25,
						"JOINTS_0":26,
						"WEIGHTS_0":27
					},
					"indices":28,
					"material":1
				}
			]
		}
	],
	"textures":[
		{
			"sampler":0,
			"source":0
		},
		{
			"sampler":0,
			"source":1
		}
	],
	"images":[
		{
			"mimeType":"image/png",
			"name":"forge_739x00",
			"uri":"forge_739x00.png"
		},
		{
			"mimeType":"image/png",
			"name":"firepit_739_01_palette",
			"uri":"firepit_739_01_palette.png"
		}
	],
	"skins":[
		{
			"inverseBindMatrices":10,
			"joints":[
				1,
				2,
				3,
				4,
				5,
				6,
				7,
				8,
				9,
				10,
				11,
				12
			],
			"name":"Armature_02"
		}
	],
	"accessors":[
		{
			"bufferView":0,
			"componentType":5126,
			"count":195,
			"max":[
				1,
				1,
				1
			],
			"min":[
				-1,
				-5.960464477539063e-08,
				-0.9999999403953552
			],
			"type":"VEC3"
		},
		{
			"bufferView":1,
			"componentType":5126,
			"count":195,
			"type":"VEC3"
		},
		{
			"bufferView":2,
			"componentType":5126,
			"count":195,
			"type":"VEC2"
		},
		{
			"bufferView":3,
			"componentType":5123,
			"count":762,
			"type":"SCALAR"
		},
		{
			"bufferView":4,
			"componentType":5126,
			"count":2788,
			"max":[
				0.5,
				1.024999976158142,
				0.5
			],
			"min":[
				-0.6000000238418579,
				0.875,
				-0.6000000238418579
			],
			"type":"VEC3"
		},
		{
			"bufferView":5,
			"componentType":5126,
			"count":2788,
			"type":"VEC3"
		},
		{
			"bufferView":6,
			"componentType":5126,
			"count":2788,
			"type":"VEC2"
		},
		{
			"bufferView":7,
			"componentType":5121,
			"count":2788,
			"type":"VEC4"
		},
		{
			"bufferView":8,
			"componentType":5126,
			"count":2788,
			"type":"VEC4"
		},
		{
			"bufferView":9,
			"componentType":5123,
			"count":4950,
			"type":"SCALAR"
		},
		{
			"bufferView":10,
			"componentType":5126,
			"count":12,
			"type":"MAT4"
		},
		{
			"bufferView":11,
			"componentType":5126,
			"count":2788,
			"max":[
				0.5,
				1.024999976158142,
				0.5
			],
			"min":[
				-0.6000000238418579,
				0.875,
				-0.6000000238418579
			],
			"type":"VEC3"
		},
		{
			"bufferView":12,
			"componentType":5126,
			"count":2788,
			"type":"VEC3"
		},
		{
			"bufferView":13,
			"componentType":5126,
			"count":2788,
			"type":"VEC2"
		},
		{
			"bufferView":14,
			"componentType":5121,
			"count":2788,
			"type":"VEC4"
		},
		{
			"bufferView":15,
			"componentType":5126,
			"count":2788,
			"type":"VEC4"
		},
		{
			"bufferView":16,
			"componentType":5123,
			"count":4950,
			"type":"SCALAR"
		},
		{
			"bufferView":17,
			"componentType":5126,
			"count":2788,
			"max":[
				0.5,
				1.024999976158142,
				0.5
			],
			"min":[
				-0.6000000238418579,
				0.875,
				-0.6000000238418579
			],
			"type":"VEC3"
		},
		{
			"bufferView":18,
			"componentType":5126,
			"count":2788,
			"type":"VEC3"
		},
		{
			"bufferView":19,
			"componentType":5126,
			"count":2788,
			"type":"VEC2"
		},
		{
			"bufferView":20,
			"componentType":5121,
			"count":2788,
			"type":"VEC4"
		},
		{
			"bufferView":21,
			"componentType":5126,
			"count":2788,
			"type":"VEC4"
		},
		{
			"bufferView":22,
			"componentType":5123,
			"count":4950,
			"type":"SCALAR"
		},
		{
			"bufferView":23,
			"componentType":5126,
			"count":2788,
			"max":[
				0.5,
				1.024999976158142,
				0.5
			],
			"min":[
				-0.6000000238418579,
				0.875,
				-0.6000000238418579
			],
			"type":"VEC3"
		},
		{
			"bufferView":24,
			"componentType":5126,
			"count":2788,
			"type":"VEC3"
		},
		{
			"bufferView":25,
			"componentType":5126,
			"count":2788,
			"type":"VEC2"
		},
		{
			"bufferView":26,
			"componentType":5121,
			"count":2788,
			"type":"VEC4"
		},
		{
			"bufferView":27,
			"componentType":5126,
			"count":2788,
			"type":"VEC4"
		},
		{
			"bufferView":28,
			"componentType":5123,
			"count":4950,
			"type":"SCALAR"
		},
		{
			"bufferView":29,
			"componentType":5126,
			"count":2,
			"max":[
				0.20416666666666666
			],
			"min":[
				0.004166666666666667
			],
			"type":"SCALAR"
		},
		{
			"bufferView":30,
			"componentType":5126,
			"count":2,
			"type":"VEC3"
		},
		{
			"bufferView":31,
			"componentType":5126,
			"count":2,
			"type":"VEC4"
		},
		{
			"bufferView":32,
			"componentType":5126,
			"count":49,
			"max":[
				0.20416666666666666
			],
			"min":[
				0.004166666666666667
			],
			"type":"SCALAR"
		},
		{
			"bufferView":33,
			"componentType":5126,
			"count":49,
			"type":"VEC3"
		},
		{
			"bufferView":34,
			"componentType":5126,
			"count":49,
			"type":"VEC3"
		},
		{
			"bufferView":35,
			"componentType":5126,
			"count":49,
			"type":"VEC3"
		},
		{
			"bufferView":36,
			"componentType":5126,
			"count":49,
			"type":"VEC3"
		},
		{
			"bufferView":37,
			"componentType":5126,
			"count":49,
			"type":"VEC3"
		},
		{
			"bufferView":38,
			"componentType":5126,
			"count":49,
			"type":"VEC3"
		},
		{
			"bufferView":39,
			"componentType":5126,
			"count":49,
			"type":"VEC3"
		},
		{
			"bufferView":40,
			"componentType":5126,
			"count":49,
			"type":"VEC3"
		},
		{
			"bufferView":41,
			"componentType":5126,
			"count":49,
			"type":"VEC3"
		},
		{
			"bufferView":42,
			"componentType":5126,
			"count":49,
			"type":"VEC3"
		},
		{
			"bufferView":43,
			"componentType":5126,
			"count":49,
			"type":"VEC3"
		},
		{
			"bufferView":44,
			"componentType":5126,
			"count":49,
			"type":"VEC3"
		},
		{
			"bufferView":45,
			"componentType":5126,
			"count":2,
			"type":"VEC3"
		}
	],
	"bufferViews":[
		{
			"buffer":0,
			"byteLength":2340,
			"byteOffset":0,
			"target":34962
		},
		{
			"buffer":0,
			"byteLength":2340,
			"byteOffset":2340,
			"target":34962
		},
		{
			"buffer":0,
			"byteLength":1560,
			"byteOffset":4680,
			"target":34962
		},
		{
			"buffer":0,
			"byteLength":1524,
			"byteOffset":6240,
			"target":34963
		},
		{
			"buffer":0,
			"byteLength":33456,
			"byteOffset":7764,
			"target":34962
		},
		{
			"buffer":0,
			"byteLength":33456,
			"byteOffset":41220,
			"target":34962
		},
		{
			"buffer":0,
			"byteLength":22304,
			"byteOffset":74676,
			"target":34962
		},
		{
			"buffer":0,
			"byteLength":11152,
			"byteOffset":96980,
			"target":34962
		},
		{
			"buffer":0,
			"byteLength":44608,
			"byteOffset":108132,
			"target":34962
		},
		{
			"buffer":0,
			"byteLength":9900,
			"byteOffset":152740,
			"target":34963
		},
		{
			"buffer":0,
			"byteLength":768,
			"byteOffset":162640
		},
		{
			"buffer":0,
			"byteLength":33456,
			"byteOffset":163408,
			"target":34962
		},
		{
			"buffer":0,
			"byteLength":33456,
			"byteOffset":196864,
			"target":34962
		},
		{
			"buffer":0,
			"byteLength":22304,
			"byteOffset":230320,
			"target":34962
		},
		{
			"buffer":0,
			"byteLength":11152,
			"byteOffset":252624,
			"target":34962
		},
		{
			"buffer":0,
			"byteLength":44608,
			"byteOffset":263776,
			"target":34962
		},
		{
			"buffer":0,
			"byteLength":9900,
			"byteOffset":308384,
			"target":34963
		},
		{
			"buffer":0,
			"byteLength":33456,
			"byteOffset":318284,
			"target":34962
		},
		{
			"buffer":0,
			"byteLength":33456,
			"byteOffset":351740,
			"target":34962
		},
		{
			"buffer":0,
			"byteLength":22304,
			"byteOffset":385196,
			"target":34962
		},
		{
			"buffer":0,
			"byteLength":11152,
			"byteOffset":407500,
			"target":34962
		},
		{
			"buffer":0,
			"byteLength":44608,
			"byteOffset":418652,
			"target":34962
		},
		{
			"buffer":0,
			"byteLength":9900,
			"byteOffset":463260,
			"target":34963
		},
		{
			"buffer":0,
			"byteLength":33456,
			"byteOffset":473160,
			"target":34962
		},
		{
			"buffer":0,
			"byteLength":33456,
			"byteOffset":506616,
			"target":34962
		},
		{
			"buffer":0,
			"byteLength":22304,
			"byteOffset":540072,
			"target":34962
		},
		{
			"buffer":0,
			"byteLength":11152,
			"byteOffset":562376,
			"target":34962
		},
		{
			"buffer":0,
			"byteLength":44608,
			"byteOffset":573528,
			"target":34962
		},
		{
			"buffer":0,
			"byteLength":9900,
			"byteOffset":618136,
			"target":34963
		},
		{
			"buffer":0,
			"byteLength":8,
			"byteOffset":628036
		},
		{
			"buffer":0,
			"byteLength":24,
			"byteOffset":628044
		},
		{
			"buffer":0,
			"byteLength":32,
			"byteOffset":628068
		},
		{
			"buffer":0,
			"byteLength":196,
			"byteOffset":628100
		},
		{
			"buffer":0,
			"byteLength":588,
			"byteOffset":628296
		},
		{
			"buffer":0,
			"byteLength":588,
			"byteOffset":628884
		},
		{
			"buffer":0,
			"byteLength":588,
			"byteOffset":629472
		},
		{
			"buffer":0,
			"byteLength":588,
			"byteOffset":630060
		},
		{
			"buffer":0,
			"byteLength":588,
			"byteOffset":630648
		},
		{
			"buffer":0,
			"byteLength":588,
			"byteOffset":631236
		},
		{
			"buffer":0,
			"byteLength":588,
			"byteOffset":631824
		},
		{
			"buffer":0,
			"byteLength":588,
			"byteOffset":632412
		},
		{
			"buffer":0,
			"byteLength":588,
			"byteOffset":633000
		},
		{
			"buffer":0,
			"byteLength":588,
			"byteOffset":633588
		},
		{
			"buffer":0,
			"byteLength":588,
			"byteOffset":634176
		},
		{
			"buffer":0,
			"byteLength":588,
			"byteOffset":634764
		},
		{
			"buffer":0,
			"byteLength":24,
			"byteOffset":635352
		}
	],
	"samplers":[
		{
			"magFilter":9729,
			"minFilter":9987
		}
	],
	"buffers":[
		{
			"byteLength":635376,
			"uri":"firepit_739_02.bin"
		}
	]
}
