{
	"asset":{
		"generator":"Khronos glTF Blender I/O v4.4.55",
		"version":"2.0"
	},
	"scene":0,
	"scenes":[
		{
			"name":"Scene",
			"nodes":[
				0
			]
		}
	],
	"nodes":[
		{
			"mesh":0,
			"name":"food_item_377x01"
		}
	],
	"materials":[
		{
			"doubleSided":true,
			"name":"377food_items",
			"pbrMetallicRoughness":{
				"baseColorTexture":{
					"index":0
				},
				"metallicFactor":0,
				"roughnessFactor":0.5
			}
		}
	],
	"meshes":[
		{
			"name":"Plane.002",
			"primitives":[
				{
					"attributes":{
						"POSITION":0,
						"NORMAL":1,
						"TEXCOORD_0":2,
						"TANGENT":3
					},
					"indices":4,
					"material":0
				}
			]
		}
	],
	"textures":[
		{
			"sampler":0,
			"source":0
		}
	],
	"images":[
		{
			"mimeType":"image/png",
			"name":"377food_items",
			"uri":"377food_items.png"
		}
	],
	"accessors":[
		{
			"bufferView":0,
			"componentType":5126,
			"count":133,
			"max":[
				0.20627892017364502,
				0,
				1.0823317766189575
			],
			"min":[
				-0.2309909164905548,
				-0.10073382407426834,
				-0.5902245044708252
			],
			"type":"VEC3"
		},
		{
			"bufferView":1,
			"componentType":5126,
			"count":133,
			"type":"VEC3"
		},
		{
			"bufferView":2,
			"componentType":5126,
			"count":133,
			"type":"VEC2"
		},
		{
			"bufferView":3,
			"componentType":5126,
			"count":133,
			"type":"VEC4"
		},
		{
			"bufferView":4,
			"componentType":5123,
			"count":294,
			"type":"SCALAR"
		}
	],
	"bufferViews":[
		{
			"buffer":0,
			"byteLength":1596,
			"byteOffset":0,
			"target":34962
		},
		{
			"buffer":0,
			"byteLength":1596,
			"byteOffset":1596,
			"target":34962
		},
		{
			"buffer":0,
			"byteLength":1064,
			"byteOffset":3192,
			"target":34962
		},
		{
			"buffer":0,
			"byteLength":2128,
			"byteOffset":4256,
			"target":34962
		},
		{
			"buffer":0,
			"byteLength":588,
			"byteOffset":6384,
			"target":34963
		}
	],
	"samplers":[
		{
			"magFilter":9728,
			"minFilter":9984
		}
	],
	"buffers":[
		{
			"byteLength":6972,
			"uri":"food_item_377x01.bin"
		}
	]
}
