{
	"asset":{
		"generator":"Khronos glTF Blender I/O v4.4.55",
		"version":"2.0"
	},
	"scene":0,
	"scenes":[
		{
			"name":"Scene",
			"nodes":[
				0
			]
		}
	],
	"nodes":[
		{
			"mesh":0,
			"name":"food_item_377x06"
		}
	],
	"materials":[
		{
			"doubleSided":true,
			"name":"377food_items",
			"pbrMetallicRoughness":{
				"baseColorTexture":{
					"index":0
				},
				"metallicFactor":0,
				"roughnessFactor":0.5
			}
		}
	],
	"meshes":[
		{
			"name":"Plane.007",
			"primitives":[
				{
					"attributes":{
						"POSITION":0,
						"NORMAL":1,
						"TEXCOORD_0":2,
						"TANGENT":3
					},
					"indices":4,
					"material":0
				}
			]
		}
	],
	"textures":[
		{
			"sampler":0,
			"source":0
		}
	],
	"images":[
		{
			"mimeType":"image/png",
			"name":"377food_items",
			"uri":"377food_items.png"
		}
	],
	"accessors":[
		{
			"bufferView":0,
			"componentType":5126,
			"count":57,
			"max":[
				0.2444799840450287,
				0,
				0.12988294661045074
			],
			"min":[
				-0.3151696026325226,
				-0.09901775419712067,
				-0.10438832640647888
			],
			"type":"VEC3"
		},
		{
			"bufferView":1,
			"componentType":5126,
			"count":57,
			"type":"VEC3"
		},
		{
			"bufferView":2,
			"componentType":5126,
			"count":57,
			"type":"VEC2"
		},
		{
			"bufferView":3,
			"componentType":5126,
			"count":57,
			"type":"VEC4"
		},
		{
			"bufferView":4,
			"componentType":5123,
			"count":108,
			"type":"SCALAR"
		}
	],
	"bufferViews":[
		{
			"buffer":0,
			"byteLength":684,
			"byteOffset":0,
			"target":34962
		},
		{
			"buffer":0,
			"byteLength":684,
			"byteOffset":684,
			"target":34962
		},
		{
			"buffer":0,
			"byteLength":456,
			"byteOffset":1368,
			"target":34962
		},
		{
			"buffer":0,
			"byteLength":912,
			"byteOffset":1824,
			"target":34962
		},
		{
			"buffer":0,
			"byteLength":216,
			"byteOffset":2736,
			"target":34963
		}
	],
	"samplers":[
		{
			"magFilter":9728,
			"minFilter":9984
		}
	],
	"buffers":[
		{
			"byteLength":2952,
			"uri":"food_item_377x06.bin"
		}
	]
}
