{
	"asset":{
		"generator":"Khronos glTF Blender I/O v4.4.55",
		"version":"2.0"
	},
	"scene":0,
	"scenes":[
		{
			"name":"Scene",
			"nodes":[
				0
			]
		}
	],
	"nodes":[
		{
			"mesh":0,
			"name":"food_item_377x24"
		}
	],
	"materials":[
		{
			"doubleSided":true,
			"name":"377food_items",
			"pbrMetallicRoughness":{
				"baseColorTexture":{
					"index":0
				},
				"metallicFactor":0,
				"roughnessFactor":0.5
			}
		}
	],
	"meshes":[
		{
			"name":"Plane.025",
			"primitives":[
				{
					"attributes":{
						"POSITION":0,
						"NORMAL":1,
						"TEXCOORD_0":2,
						"TANGENT":3
					},
					"indices":4,
					"material":0
				}
			]
		}
	],
	"textures":[
		{
			"sampler":0,
			"source":0
		}
	],
	"images":[
		{
			"mimeType":"image/png",
			"name":"377food_items",
			"uri":"377food_items.png"
		}
	],
	"accessors":[
		{
			"bufferView":0,
			"componentType":5126,
			"count":20,
			"max":[
				0.1072908490896225,
				0,
				0.08616366237401962
			],
			"min":[
				-0.10504394769668579,
				-0.10324010252952576,
				-0.07220936566591263
			],
			"type":"VEC3"
		},
		{
			"bufferView":1,
			"componentType":5126,
			"count":20,
			"type":"VEC3"
		},
		{
			"bufferView":2,
			"componentType":5126,
			"count":20,
			"type":"VEC2"
		},
		{
			"bufferView":3,
			"componentType":5126,
			"count":20,
			"type":"VEC4"
		},
		{
			"bufferView":4,
			"componentType":5123,
			"count":30,
			"type":"SCALAR"
		}
	],
	"bufferViews":[
		{
			"buffer":0,
			"byteLength":240,
			"byteOffset":0,
			"target":34962
		},
		{
			"buffer":0,
			"byteLength":240,
			"byteOffset":240,
			"target":34962
		},
		{
			"buffer":0,
			"byteLength":160,
			"byteOffset":480,
			"target":34962
		},
		{
			"buffer":0,
			"byteLength":320,
			"byteOffset":640,
			"target":34962
		},
		{
			"buffer":0,
			"byteLength":60,
			"byteOffset":960,
			"target":34963
		}
	],
	"samplers":[
		{
			"magFilter":9728,
			"minFilter":9984
		}
	],
	"buffers":[
		{
			"byteLength":1020,
			"uri":"food_item_377x24.bin"
		}
	]
}
