{
	"asset":{
		"generator":"Khronos glTF Blender I/O v4.4.55",
		"version":"2.0"
	},
	"scene":0,
	"scenes":[
		{
			"name":"Scene",
			"nodes":[
				0
			]
		}
	],
	"nodes":[
		{
			"mesh":0,
			"name":"food_item_377x03"
		}
	],
	"materials":[
		{
			"doubleSided":true,
			"name":"377food_items",
			"pbrMetallicRoughness":{
				"baseColorTexture":{
					"index":0
				},
				"metallicFactor":0,
				"roughnessFactor":0.5
			}
		}
	],
	"meshes":[
		{
			"name":"Plane.004",
			"primitives":[
				{
					"attributes":{
						"POSITION":0,
						"NORMAL":1,
						"TEXCOORD_0":2,
						"TANGENT":3
					},
					"indices":4,
					"material":0
				}
			]
		}
	],
	"textures":[
		{
			"sampler":0,
			"source":0
		}
	],
	"images":[
		{
			"mimeType":"image/png",
			"name":"377food_items",
			"uri":"377food_items.png"
		}
	],
	"accessors":[
		{
			"bufferView":0,
			"componentType":5126,
			"count":142,
			"max":[
				0.364754319190979,
				0,
				0.28669676184654236
			],
			"min":[
				-0.31811439990997314,
				-0.10439707338809967,
				-0.2642924189567566
			],
			"type":"VEC3"
		},
		{
			"bufferView":1,
			"componentType":5126,
			"count":142,
			"type":"VEC3"
		},
		{
			"bufferView":2,
			"componentType":5126,
			"count":142,
			"type":"VEC2"
		},
		{
			"bufferView":3,
			"componentType":5126,
			"count":142,
			"type":"VEC4"
		},
		{
			"bufferView":4,
			"componentType":5123,
			"count":378,
			"type":"SCALAR"
		}
	],
	"bufferViews":[
		{
			"buffer":0,
			"byteLength":1704,
			"byteOffset":0,
			"target":34962
		},
		{
			"buffer":0,
			"byteLength":1704,
			"byteOffset":1704,
			"target":34962
		},
		{
			"buffer":0,
			"byteLength":1136,
			"byteOffset":3408,
			"target":34962
		},
		{
			"buffer":0,
			"byteLength":2272,
			"byteOffset":4544,
			"target":34962
		},
		{
			"buffer":0,
			"byteLength":756,
			"byteOffset":6816,
			"target":34963
		}
	],
	"samplers":[
		{
			"magFilter":9728,
			"minFilter":9984
		}
	],
	"buffers":[
		{
			"byteLength":7572,
			"uri":"food_item_377x03.bin"
		}
	]
}
