{
	"asset":{
		"generator":"Khronos glTF Blender I/O v4.4.55",
		"version":"2.0"
	},
	"scene":0,
	"scenes":[
		{
			"name":"Scene",
			"nodes":[
				0
			]
		}
	],
	"nodes":[
		{
			"mesh":0,
			"name":"food_item_377x20"
		}
	],
	"materials":[
		{
			"doubleSided":true,
			"name":"377food_items",
			"pbrMetallicRoughness":{
				"baseColorTexture":{
					"index":0
				},
				"metallicFactor":0,
				"roughnessFactor":0.5
			}
		}
	],
	"meshes":[
		{
			"name":"Plane.021",
			"primitives":[
				{
					"attributes":{
						"POSITION":0,
						"NORMAL":1,
						"TEXCOORD_0":2,
						"TANGENT":3
					},
					"indices":4,
					"material":0
				}
			]
		}
	],
	"textures":[
		{
			"sampler":0,
			"source":0
		}
	],
	"images":[
		{
			"mimeType":"image/png",
			"name":"377food_items",
			"uri":"377food_items.png"
		}
	],
	"accessors":[
		{
			"bufferView":0,
			"componentType":5126,
			"count":513,
			"max":[
				0.6588823795318604,
				0,
				0.6248947978019714
			],
			"min":[
				-1.1183347702026367,
				-0.10201249271631241,
				-0.4932034909725189
			],
			"type":"VEC3"
		},
		{
			"bufferView":1,
			"componentType":5126,
			"count":513,
			"type":"VEC3"
		},
		{
			"bufferView":2,
			"componentType":5126,
			"count":513,
			"type":"VEC2"
		},
		{
			"bufferView":3,
			"componentType":5126,
			"count":513,
			"type":"VEC4"
		},
		{
			"bufferView":4,
			"componentType":5123,
			"count":1263,
			"type":"SCALAR"
		}
	],
	"bufferViews":[
		{
			"buffer":0,
			"byteLength":6156,
			"byteOffset":0,
			"target":34962
		},
		{
			"buffer":0,
			"byteLength":6156,
			"byteOffset":6156,
			"target":34962
		},
		{
			"buffer":0,
			"byteLength":4104,
			"byteOffset":12312,
			"target":34962
		},
		{
			"buffer":0,
			"byteLength":8208,
			"byteOffset":16416,
			"target":34962
		},
		{
			"buffer":0,
			"byteLength":2526,
			"byteOffset":24624,
			"target":34963
		}
	],
	"samplers":[
		{
			"magFilter":9728,
			"minFilter":9984
		}
	],
	"buffers":[
		{
			"byteLength":27152,
			"uri":"food_item_377x20.bin"
		}
	]
}
