{
	"asset":{
		"generator":"Khronos glTF Blender I/O v4.4.55",
		"version":"2.0"
	},
	"scene":0,
	"scenes":[
		{
			"name":"Scene",
			"nodes":[
				0,
				1
			]
		}
	],
	"nodes":[
		{
			"mesh":0,
			"name":"Cube"
		},
		{
			"mesh":1,
			"name":"B\u00e9zierCurve"
		}
	],
	"materials":[
		{
			"doubleSided":true,
			"name":"893pool",
			"pbrMetallicRoughness":{
				"baseColorTexture":{
					"index":0
				},
				"metallicFactor":0,
				"roughnessFactor":0.5
			}
		}
	],
	"meshes":[
		{
			"name":"Cube.001",
			"primitives":[
				{
					"attributes":{
						"POSITION":0,
						"NORMAL":1,
						"TEXCOORD_0":2,
						"TANGENT":3
					},
					"indices":4,
					"material":0
				}
			]
		},
		{
			"name":"B\u00e9zierCurve",
			"primitives":[
				{
					"attributes":{
						"POSITION":5,
						"NORMAL":6,
						"TEXCOORD_0":7,
						"TANGENT":8
					},
					"indices":9,
					"material":0
				}
			]
		}
	],
	"textures":[
		{
			"sampler":0,
			"source":0
		}
	],
	"images":[
		{
			"mimeType":"image/png",
			"name":"893pool_of_water",
			"uri":"893pool_of_water.png"
		}
	],
	"accessors":[
		{
			"bufferView":0,
			"componentType":5126,
			"count":994,
			"max":[
				2.5,
				1.6999999284744263,
				2.5
			],
			"min":[
				-2.5,
				0,
				-2.5
			],
			"type":"VEC3"
		},
		{
			"bufferView":1,
			"componentType":5126,
			"count":994,
			"type":"VEC3"
		},
		{
			"bufferView":2,
			"componentType":5126,
			"count":994,
			"type":"VEC2"
		},
		{
			"bufferView":3,
			"componentType":5126,
			"count":994,
			"type":"VEC4"
		},
		{
			"bufferView":4,
			"componentType":5123,
			"count":1968,
			"type":"SCALAR"
		},
		{
			"bufferView":5,
			"componentType":5126,
			"count":3576,
			"max":[
				1.329209804534912,
				4.1523566246032715,
				1.1818405389785767
			],
			"min":[
				-1.3292104005813599,
				1.3852953910827637,
				-1.1818405389785767
			],
			"type":"VEC3"
		},
		{
			"bufferView":6,
			"componentType":5126,
			"count":3576,
			"type":"VEC3"
		},
		{
			"bufferView":7,
			"componentType":5126,
			"count":3576,
			"type":"VEC2"
		},
		{
			"bufferView":8,
			"componentType":5126,
			"count":3576,
			"type":"VEC4"
		},
		{
			"bufferView":9,
			"componentType":5123,
			"count":19872,
			"type":"SCALAR"
		}
	],
	"bufferViews":[
		{
			"buffer":0,
			"byteLength":11928,
			"byteOffset":0,
			"target":34962
		},
		{
			"buffer":0,
			"byteLength":11928,
			"byteOffset":11928,
			"target":34962
		},
		{
			"buffer":0,
			"byteLength":7952,
			"byteOffset":23856,
			"target":34962
		},
		{
			"buffer":0,
			"byteLength":15904,
			"byteOffset":31808,
			"target":34962
		},
		{
			"buffer":0,
			"byteLength":3936,
			"byteOffset":47712,
			"target":34963
		},
		{
			"buffer":0,
			"byteLength":42912,
			"byteOffset":51648,
			"target":34962
		},
		{
			"buffer":0,
			"byteLength":42912,
			"byteOffset":94560,
			"target":34962
		},
		{
			"buffer":0,
			"byteLength":28608,
			"byteOffset":137472,
			"target":34962
		},
		{
			"buffer":0,
			"byteLength":57216,
			"byteOffset":166080,
			"target":34962
		},
		{
			"buffer":0,
			"byteLength":39744,
			"byteOffset":223296,
			"target":34963
		}
	],
	"samplers":[
		{
			"magFilter":9728,
			"minFilter":9984
		}
	],
	"buffers":[
		{
			"byteLength":263040,
			"uri":"fountain_893x00.bin"
		}
	]
}
