{
	"asset":{
		"generator":"Khronos glTF Blender I/O v4.4.55",
		"version":"2.0"
	},
	"scene":0,
	"scenes":[
		{
			"name":"Scene",
			"nodes":[
				14
			]
		}
	],
	"nodes":[
		{
			"name":"Bone"
		},
		{
			"name":"Bone1"
		},
		{
			"name":"Bone2"
		},
		{
			"name":"Bone3"
		},
		{
			"name":"Bone4"
		},
		{
			"name":"Bone5"
		},
		{
			"name":"Bone6"
		},
		{
			"mesh":0,
			"name":"BaseOFountain",
			"skin":0
		},
		{
			"mesh":1,
			"name":"Fountain0",
			"skin":0
		},
		{
			"mesh":2,
			"name":"Fountain1",
			"skin":0
		},
		{
			"mesh":3,
			"name":"Fountain2",
			"skin":0
		},
		{
			"mesh":4,
			"name":"Fountain3",
			"skin":0
		},
		{
			"mesh":5,
			"name":"Fountain4",
			"skin":0
		},
		{
			"mesh":6,
			"name":"Fountainwater",
			"skin":0
		},
		{
			"children":[
				7,
				8,
				9,
				10,
				11,
				12,
				13,
				0,
				1,
				2,
				3,
				4,
				5,
				6
			],
			"name":"Armature"
		}
	],
	"animations":[
		{
			"channels":[
				{
					"sampler":0,
					"target":{
						"node":0,
						"path":"translation"
					}
				},
				{
					"sampler":1,
					"target":{
						"node":0,
						"path":"rotation"
					}
				},
				{
					"sampler":2,
					"target":{
						"node":0,
						"path":"scale"
					}
				},
				{
					"sampler":3,
					"target":{
						"node":1,
						"path":"translation"
					}
				},
				{
					"sampler":4,
					"target":{
						"node":1,
						"path":"rotation"
					}
				},
				{
					"sampler":5,
					"target":{
						"node":1,
						"path":"scale"
					}
				},
				{
					"sampler":6,
					"target":{
						"node":2,
						"path":"translation"
					}
				},
				{
					"sampler":7,
					"target":{
						"node":2,
						"path":"rotation"
					}
				},
				{
					"sampler":8,
					"target":{
						"node":2,
						"path":"scale"
					}
				},
				{
					"sampler":9,
					"target":{
						"node":3,
						"path":"translation"
					}
				},
				{
					"sampler":10,
					"target":{
						"node":3,
						"path":"rotation"
					}
				},
				{
					"sampler":11,
					"target":{
						"node":3,
						"path":"scale"
					}
				},
				{
					"sampler":12,
					"target":{
						"node":4,
						"path":"translation"
					}
				},
				{
					"sampler":13,
					"target":{
						"node":4,
						"path":"rotation"
					}
				},
				{
					"sampler":14,
					"target":{
						"node":4,
						"path":"scale"
					}
				},
				{
					"sampler":15,
					"target":{
						"node":5,
						"path":"translation"
					}
				},
				{
					"sampler":16,
					"target":{
						"node":5,
						"path":"rotation"
					}
				},
				{
					"sampler":17,
					"target":{
						"node":5,
						"path":"scale"
					}
				},
				{
					"sampler":18,
					"target":{
						"node":6,
						"path":"translation"
					}
				},
				{
					"sampler":19,
					"target":{
						"node":6,
						"path":"rotation"
					}
				},
				{
					"sampler":20,
					"target":{
						"node":6,
						"path":"scale"
					}
				}
			],
			"name":"idle",
			"samplers":[
				{
					"input":32,
					"interpolation":"LINEAR",
					"output":33
				},
				{
					"input":32,
					"interpolation":"LINEAR",
					"output":34
				},
				{
					"input":32,
					"interpolation":"LINEAR",
					"output":35
				},
				{
					"input":32,
					"interpolation":"LINEAR",
					"output":36
				},
				{
					"input":32,
					"interpolation":"LINEAR",
					"output":37
				},
				{
					"input":32,
					"interpolation":"LINEAR",
					"output":38
				},
				{
					"input":32,
					"interpolation":"LINEAR",
					"output":39
				},
				{
					"input":32,
					"interpolation":"LINEAR",
					"output":40
				},
				{
					"input":32,
					"interpolation":"LINEAR",
					"output":41
				},
				{
					"input":32,
					"interpolation":"LINEAR",
					"output":42
				},
				{
					"input":32,
					"interpolation":"LINEAR",
					"output":43
				},
				{
					"input":32,
					"interpolation":"LINEAR",
					"output":44
				},
				{
					"input":32,
					"interpolation":"LINEAR",
					"output":45
				},
				{
					"input":32,
					"interpolation":"LINEAR",
					"output":46
				},
				{
					"input":32,
					"interpolation":"LINEAR",
					"output":47
				},
				{
					"input":32,
					"interpolation":"LINEAR",
					"output":48
				},
				{
					"input":32,
					"interpolation":"LINEAR",
					"output":49
				},
				{
					"input":32,
					"interpolation":"LINEAR",
					"output":50
				},
				{
					"input":32,
					"interpolation":"LINEAR",
					"output":51
				},
				{
					"input":32,
					"interpolation":"LINEAR",
					"output":52
				},
				{
					"input":32,
					"interpolation":"LINEAR",
					"output":53
				}
			]
		}
	],
	"materials":[
		{
			"doubleSided":true,
			"name":"893pool",
			"pbrMetallicRoughness":{
				"baseColorTexture":{
					"index":0
				},
				"metallicFactor":0,
				"roughnessFactor":0.5
			}
		}
	],
	"meshes":[
		{
			"name":"BaseOFountain",
			"primitives":[
				{
					"attributes":{
						"POSITION":0,
						"TEXCOORD_0":1,
						"JOINTS_0":2,
						"WEIGHTS_0":3
					},
					"indices":4,
					"material":0
				}
			]
		},
		{
			"name":"Fountain0",
			"primitives":[
				{
					"attributes":{
						"POSITION":6,
						"TEXCOORD_0":7,
						"JOINTS_0":8,
						"WEIGHTS_0":9
					},
					"indices":10,
					"material":0
				}
			]
		},
		{
			"name":"Fountain1",
			"primitives":[
				{
					"attributes":{
						"POSITION":11,
						"TEXCOORD_0":12,
						"JOINTS_0":13,
						"WEIGHTS_0":14
					},
					"indices":10,
					"material":0
				}
			]
		},
		{
			"name":"Fountain2",
			"primitives":[
				{
					"attributes":{
						"POSITION":15,
						"TEXCOORD_0":16,
						"JOINTS_0":17,
						"WEIGHTS_0":18
					},
					"indices":10,
					"material":0
				}
			]
		},
		{
			"name":"Fountain3",
			"primitives":[
				{
					"attributes":{
						"POSITION":19,
						"TEXCOORD_0":20,
						"JOINTS_0":21,
						"WEIGHTS_0":22
					},
					"indices":10,
					"material":0
				}
			]
		},
		{
			"name":"Fountain4",
			"primitives":[
				{
					"attributes":{
						"POSITION":23,
						"TEXCOORD_0":24,
						"JOINTS_0":25,
						"WEIGHTS_0":26
					},
					"indices":10,
					"material":0
				}
			]
		},
		{
			"name":"Fountainwater",
			"primitives":[
				{
					"attributes":{
						"POSITION":27,
						"TEXCOORD_0":28,
						"JOINTS_0":29,
						"WEIGHTS_0":30
					},
					"indices":31,
					"material":0
				}
			]
		}
	],
	"textures":[
		{
			"sampler":0,
			"source":0
		}
	],
	"images":[
		{
			"mimeType":"image/png",
			"name":"893pool_of_water",
			"uri":"893pool_of_water.png"
		}
	],
	"skins":[
		{
			"inverseBindMatrices":5,
			"joints":[
				0,
				1,
				2,
				3,
				4,
				5,
				6
			],
			"name":"Armature"
		}
	],
	"accessors":[
		{
			"bufferView":0,
			"componentType":5126,
			"count":633,
			"max":[
				2.5,
				1.6999999284744263,
				2.5
			],
			"min":[
				-2.5,
				0,
				-2.5
			],
			"type":"VEC3"
		},
		{
			"bufferView":1,
			"componentType":5126,
			"count":633,
			"type":"VEC2"
		},
		{
			"bufferView":2,
			"componentType":5121,
			"count":633,
			"type":"VEC4"
		},
		{
			"bufferView":3,
			"componentType":5126,
			"count":633,
			"type":"VEC4"
		},
		{
			"bufferView":4,
			"componentType":5123,
			"count":1740,
			"type":"SCALAR"
		},
		{
			"bufferView":5,
			"componentType":5126,
			"count":7,
			"type":"MAT4"
		},
		{
			"bufferView":6,
			"componentType":5126,
			"count":53,
			"max":[
				2.29648756980896,
				1.5999999046325684,
				2.2964398860931396
			],
			"min":[
				-2.29648756980896,
				1.5999999046325684,
				-2.2964398860931396
			],
			"type":"VEC3"
		},
		{
			"bufferView":7,
			"componentType":5126,
			"count":53,
			"type":"VEC2"
		},
		{
			"bufferView":8,
			"componentType":5121,
			"count":53,
			"type":"VEC4"
		},
		{
			"bufferView":9,
			"componentType":5126,
			"count":53,
			"type":"VEC4"
		},
		{
			"bufferView":10,
			"componentType":5123,
			"count":228,
			"type":"SCALAR"
		},
		{
			"bufferView":11,
			"componentType":5126,
			"count":53,
			"max":[
				2.29648756980896,
				1.5499999523162842,
				2.295417070388794
			],
			"min":[
				-2.29648756980896,
				1.5499999523162842,
				-2.295417070388794
			],
			"type":"VEC3"
		},
		{
			"bufferView":12,
			"componentType":5126,
			"count":53,
			"type":"VEC2"
		},
		{
			"bufferView":13,
			"componentType":5121,
			"count":53,
			"type":"VEC4"
		},
		{
			"bufferView":14,
			"componentType":5126,
			"count":53,
			"type":"VEC4"
		},
		{
			"bufferView":15,
			"componentType":5126,
			"count":53,
			"max":[
				2.29648756980896,
				1.4499999284744263,
				2.2964398860931396
			],
			"min":[
				-2.29648756980896,
				1.4499999284744263,
				-2.2964398860931396
			],
			"type":"VEC3"
		},
		{
			"bufferView":16,
			"componentType":5126,
			"count":53,
			"type":"VEC2"
		},
		{
			"bufferView":17,
			"componentType":5121,
			"count":53,
			"type":"VEC4"
		},
		{
			"bufferView":18,
			"componentType":5126,
			"count":53,
			"type":"VEC4"
		},
		{
			"bufferView":19,
			"componentType":5126,
			"count":53,
			"max":[
				2.296488046646118,
				1.4500001668930054,
				2.2964401245117188
			],
			"min":[
				-2.296488046646118,
				1.4499999284744263,
				-2.2964401245117188
			],
			"type":"VEC3"
		},
		{
			"bufferView":20,
			"componentType":5126,
			"count":53,
			"type":"VEC2"
		},
		{
			"bufferView":21,
			"componentType":5121,
			"count":53,
			"type":"VEC4"
		},
		{
			"bufferView":22,
			"componentType":5126,
			"count":53,
			"type":"VEC4"
		},
		{
			"bufferView":23,
			"componentType":5126,
			"count":53,
			"max":[
				2.29648756980896,
				1.4499999284744263,
				2.2964398860931396
			],
			"min":[
				-2.29648756980896,
				1.4499999284744263,
				-2.2964398860931396
			],
			"type":"VEC3"
		},
		{
			"bufferView":24,
			"componentType":5126,
			"count":53,
			"type":"VEC2"
		},
		{
			"bufferView":25,
			"componentType":5121,
			"count":53,
			"type":"VEC4"
		},
		{
			"bufferView":26,
			"componentType":5126,
			"count":53,
			"type":"VEC4"
		},
		{
			"bufferView":27,
			"componentType":5126,
			"count":3546,
			"max":[
				1.329209804534912,
				4.1523566246032715,
				1.1818405389785767
			],
			"min":[
				-1.3292104005813599,
				1.3852953910827637,
				-1.1818405389785767
			],
			"type":"VEC3"
		},
		{
			"bufferView":28,
			"componentType":5126,
			"count":3546,
			"type":"VEC2"
		},
		{
			"bufferView":29,
			"componentType":5121,
			"count":3546,
			"type":"VEC4"
		},
		{
			"bufferView":30,
			"componentType":5126,
			"count":3546,
			"type":"VEC4"
		},
		{
			"bufferView":31,
			"componentType":5123,
			"count":19872,
			"type":"SCALAR"
		},
		{
			"bufferView":32,
			"componentType":5126,
			"count":15,
			"max":[
				0.5833333333333334
			],
			"min":[
				0
			],
			"type":"SCALAR"
		},
		{
			"bufferView":33,
			"componentType":5126,
			"count":15,
			"type":"VEC3"
		},
		{
			"bufferView":34,
			"componentType":5126,
			"count":15,
			"type":"VEC4"
		},
		{
			"bufferView":35,
			"componentType":5126,
			"count":15,
			"type":"VEC3"
		},
		{
			"bufferView":36,
			"componentType":5126,
			"count":15,
			"type":"VEC3"
		},
		{
			"bufferView":37,
			"componentType":5126,
			"count":15,
			"type":"VEC4"
		},
		{
			"bufferView":38,
			"componentType":5126,
			"count":15,
			"type":"VEC3"
		},
		{
			"bufferView":39,
			"componentType":5126,
			"count":15,
			"type":"VEC3"
		},
		{
			"bufferView":40,
			"componentType":5126,
			"count":15,
			"type":"VEC4"
		},
		{
			"bufferView":41,
			"componentType":5126,
			"count":15,
			"type":"VEC3"
		},
		{
			"bufferView":42,
			"componentType":5126,
			"count":15,
			"type":"VEC3"
		},
		{
			"bufferView":43,
			"componentType":5126,
			"count":15,
			"type":"VEC4"
		},
		{
			"bufferView":44,
			"componentType":5126,
			"count":15,
			"type":"VEC3"
		},
		{
			"bufferView":45,
			"componentType":5126,
			"count":15,
			"type":"VEC3"
		},
		{
			"bufferView":46,
			"componentType":5126,
			"count":15,
			"type":"VEC4"
		},
		{
			"bufferView":47,
			"componentType":5126,
			"count":15,
			"type":"VEC3"
		},
		{
			"bufferView":48,
			"componentType":5126,
			"count":15,
			"type":"VEC3"
		},
		{
			"bufferView":49,
			"componentType":5126,
			"count":15,
			"type":"VEC4"
		},
		{
			"bufferView":50,
			"componentType":5126,
			"count":15,
			"type":"VEC3"
		},
		{
			"bufferView":51,
			"componentType":5126,
			"count":15,
			"type":"VEC3"
		},
		{
			"bufferView":52,
			"componentType":5126,
			"count":15,
			"type":"VEC4"
		},
		{
			"bufferView":53,
			"componentType":5126,
			"count":15,
			"type":"VEC3"
		}
	],
	"bufferViews":[
		{
			"buffer":0,
			"byteLength":7596,
			"byteOffset":0,
			"target":34962
		},
		{
			"buffer":0,
			"byteLength":5064,
			"byteOffset":7596,
			"target":34962
		},
		{
			"buffer":0,
			"byteLength":2532,
			"byteOffset":12660,
			"target":34962
		},
		{
			"buffer":0,
			"byteLength":10128,
			"byteOffset":15192,
			"target":34962
		},
		{
			"buffer":0,
			"byteLength":3480,
			"byteOffset":25320,
			"target":34963
		},
		{
			"buffer":0,
			"byteLength":448,
			"byteOffset":28800
		},
		{
			"buffer":0,
			"byteLength":636,
			"byteOffset":29248,
			"target":34962
		},
		{
			"buffer":0,
			"byteLength":424,
			"byteOffset":29884,
			"target":34962
		},
		{
			"buffer":0,
			"byteLength":212,
			"byteOffset":30308,
			"target":34962
		},
		{
			"buffer":0,
			"byteLength":848,
			"byteOffset":30520,
			"target":34962
		},
		{
			"buffer":0,
			"byteLength":456,
			"byteOffset":31368,
			"target":34963
		},
		{
			"buffer":0,
			"byteLength":636,
			"byteOffset":31824,
			"target":34962
		},
		{
			"buffer":0,
			"byteLength":424,
			"byteOffset":32460,
			"target":34962
		},
		{
			"buffer":0,
			"byteLength":212,
			"byteOffset":32884,
			"target":34962
		},
		{
			"buffer":0,
			"byteLength":848,
			"byteOffset":33096,
			"target":34962
		},
		{
			"buffer":0,
			"byteLength":636,
			"byteOffset":33944,
			"target":34962
		},
		{
			"buffer":0,
			"byteLength":424,
			"byteOffset":34580,
			"target":34962
		},
		{
			"buffer":0,
			"byteLength":212,
			"byteOffset":35004,
			"target":34962
		},
		{
			"buffer":0,
			"byteLength":848,
			"byteOffset":35216,
			"target":34962
		},
		{
			"buffer":0,
			"byteLength":636,
			"byteOffset":36064,
			"target":34962
		},
		{
			"buffer":0,
			"byteLength":424,
			"byteOffset":36700,
			"target":34962
		},
		{
			"buffer":0,
			"byteLength":212,
			"byteOffset":37124,
			"target":34962
		},
		{
			"buffer":0,
			"byteLength":848,
			"byteOffset":37336,
			"target":34962
		},
		{
			"buffer":0,
			"byteLength":636,
			"byteOffset":38184,
			"target":34962
		},
		{
			"buffer":0,
			"byteLength":424,
			"byteOffset":38820,
			"target":34962
		},
		{
			"buffer":0,
			"byteLength":212,
			"byteOffset":39244,
			"target":34962
		},
		{
			"buffer":0,
			"byteLength":848,
			"byteOffset":39456,
			"target":34962
		},
		{
			"buffer":0,
			"byteLength":42552,
			"byteOffset":40304,
			"target":34962
		},
		{
			"buffer":0,
			"byteLength":28368,
			"byteOffset":82856,
			"target":34962
		},
		{
			"buffer":0,
			"byteLength":14184,
			"byteOffset":111224,
			"target":34962
		},
		{
			"buffer":0,
			"byteLength":56736,
			"byteOffset":125408,
			"target":34962
		},
		{
			"buffer":0,
			"byteLength":39744,
			"byteOffset":182144,
			"target":34963
		},
		{
			"buffer":0,
			"byteLength":60,
			"byteOffset":221888
		},
		{
			"buffer":0,
			"byteLength":180,
			"byteOffset":221948
		},
		{
			"buffer":0,
			"byteLength":240,
			"byteOffset":222128
		},
		{
			"buffer":0,
			"byteLength":180,
			"byteOffset":222368
		},
		{
			"buffer":0,
			"byteLength":180,
			"byteOffset":222548
		},
		{
			"buffer":0,
			"byteLength":240,
			"byteOffset":222728
		},
		{
			"buffer":0,
			"byteLength":180,
			"byteOffset":222968
		},
		{
			"buffer":0,
			"byteLength":180,
			"byteOffset":223148
		},
		{
			"buffer":0,
			"byteLength":240,
			"byteOffset":223328
		},
		{
			"buffer":0,
			"byteLength":180,
			"byteOffset":223568
		},
		{
			"buffer":0,
			"byteLength":180,
			"byteOffset":223748
		},
		{
			"buffer":0,
			"byteLength":240,
			"byteOffset":223928
		},
		{
			"buffer":0,
			"byteLength":180,
			"byteOffset":224168
		},
		{
			"buffer":0,
			"byteLength":180,
			"byteOffset":224348
		},
		{
			"buffer":0,
			"byteLength":240,
			"byteOffset":224528
		},
		{
			"buffer":0,
			"byteLength":180,
			"byteOffset":224768
		},
		{
			"buffer":0,
			"byteLength":180,
			"byteOffset":224948
		},
		{
			"buffer":0,
			"byteLength":240,
			"byteOffset":225128
		},
		{
			"buffer":0,
			"byteLength":180,
			"byteOffset":225368
		},
		{
			"buffer":0,
			"byteLength":180,
			"byteOffset":225548
		},
		{
			"buffer":0,
			"byteLength":240,
			"byteOffset":225728
		},
		{
			"buffer":0,
			"byteLength":180,
			"byteOffset":225968
		}
	],
	"samplers":[
		{
			"magFilter":9728,
			"minFilter":9984
		}
	],
	"buffers":[
		{
			"byteLength":226148,
			"uri":"fountain_893.bin"
		}
	]
}
