{
	"asset":{
		"generator":"Khronos glTF Blender I/O v4.4.55",
		"version":"2.0"
	},
	"scene":0,
	"scenes":[
		{
			"name":"Scene",
			"nodes":[
				0
			]
		}
	],
	"nodes":[
		{
			"mesh":0,
			"name":"garbage_415x02"
		}
	],
	"materials":[
		{
			"doubleSided":true,
			"name":"Material2",
			"pbrMetallicRoughness":{
				"baseColorTexture":{
					"index":0
				},
				"metallicFactor":0,
				"roughnessFactor":0.5
			}
		}
	],
	"meshes":[
		{
			"name":"Plane.019",
			"primitives":[
				{
					"attributes":{
						"POSITION":0,
						"NORMAL":1,
						"TEXCOORD_0":2
					},
					"indices":3,
					"material":0
				}
			]
		}
	],
	"textures":[
		{
			"sampler":0,
			"source":0
		}
	],
	"images":[
		{
			"mimeType":"image/png",
			"name":"415garbage",
			"uri":"415garbage.png"
		}
	],
	"accessors":[
		{
			"bufferView":0,
			"componentType":5126,
			"count":299,
			"max":[
				0.28413018584251404,
				0.13439437747001648,
				0.25459250807762146
			],
			"min":[
				-0.2713128626346588,
				0.010549627244472504,
				-0.3629508316516876
			],
			"type":"VEC3"
		},
		{
			"bufferView":1,
			"componentType":5126,
			"count":299,
			"type":"VEC3"
		},
		{
			"bufferView":2,
			"componentType":5126,
			"count":299,
			"type":"VEC2"
		},
		{
			"bufferView":3,
			"componentType":5123,
			"count":516,
			"type":"SCALAR"
		}
	],
	"bufferViews":[
		{
			"buffer":0,
			"byteLength":3588,
			"byteOffset":0,
			"target":34962
		},
		{
			"buffer":0,
			"byteLength":3588,
			"byteOffset":3588,
			"target":34962
		},
		{
			"buffer":0,
			"byteLength":2392,
			"byteOffset":7176,
			"target":34962
		},
		{
			"buffer":0,
			"byteLength":1032,
			"byteOffset":9568,
			"target":34963
		}
	],
	"samplers":[
		{
			"magFilter":9728,
			"minFilter":9984
		}
	],
	"buffers":[
		{
			"byteLength":10600,
			"uri":"garbage_415x02.bin"
		}
	]
}
