{
	"asset":{
		"generator":"Khronos glTF Blender I/O v4.4.55",
		"version":"2.0"
	},
	"scene":0,
	"scenes":[
		{
			"name":"Scene",
			"nodes":[
				0
			]
		}
	],
	"nodes":[
		{
			"mesh":0,
			"name":"garbage_415x17"
		}
	],
	"materials":[
		{
			"doubleSided":true,
			"name":"Material2",
			"pbrMetallicRoughness":{
				"baseColorTexture":{
					"index":0
				},
				"metallicFactor":0,
				"roughnessFactor":0.5
			}
		}
	],
	"meshes":[
		{
			"name":"Plane.033",
			"primitives":[
				{
					"attributes":{
						"POSITION":0,
						"NORMAL":1,
						"TEXCOORD_0":2
					},
					"indices":3,
					"material":0
				}
			]
		}
	],
	"textures":[
		{
			"sampler":0,
			"source":0
		}
	],
	"images":[
		{
			"mimeType":"image/png",
			"name":"415garbage",
			"uri":"415garbage.png"
		}
	],
	"accessors":[
		{
			"bufferView":0,
			"componentType":5126,
			"count":129,
			"max":[
				0.030431702733039856,
				0.14789550006389618,
				0.21762995421886444
			],
			"min":[
				-0.21557457745075226,
				0,
				-0.2791990637779236
			],
			"type":"VEC3"
		},
		{
			"bufferView":1,
			"componentType":5126,
			"count":129,
			"type":"VEC3"
		},
		{
			"bufferView":2,
			"componentType":5126,
			"count":129,
			"type":"VEC2"
		},
		{
			"bufferView":3,
			"componentType":5123,
			"count":240,
			"type":"SCALAR"
		}
	],
	"bufferViews":[
		{
			"buffer":0,
			"byteLength":1548,
			"byteOffset":0,
			"target":34962
		},
		{
			"buffer":0,
			"byteLength":1548,
			"byteOffset":1548,
			"target":34962
		},
		{
			"buffer":0,
			"byteLength":1032,
			"byteOffset":3096,
			"target":34962
		},
		{
			"buffer":0,
			"byteLength":480,
			"byteOffset":4128,
			"target":34963
		}
	],
	"samplers":[
		{
			"magFilter":9728,
			"minFilter":9984
		}
	],
	"buffers":[
		{
			"byteLength":4608,
			"uri":"garbage_415x17.bin"
		}
	]
}
