{
	"asset":{
		"generator":"Khronos glTF Blender I/O v4.4.55",
		"version":"2.0"
	},
	"scene":0,
	"scenes":[
		{
			"name":"Scene",
			"nodes":[
				0
			]
		}
	],
	"nodes":[
		{
			"mesh":0,
			"name":"garbage_415x19"
		}
	],
	"materials":[
		{
			"doubleSided":true,
			"name":"Material2",
			"pbrMetallicRoughness":{
				"baseColorTexture":{
					"index":0
				},
				"metallicFactor":0,
				"roughnessFactor":0.5
			}
		}
	],
	"meshes":[
		{
			"name":"Plane.035",
			"primitives":[
				{
					"attributes":{
						"POSITION":0,
						"NORMAL":1,
						"TEXCOORD_0":2
					},
					"indices":3,
					"material":0
				}
			]
		}
	],
	"textures":[
		{
			"sampler":0,
			"source":0
		}
	],
	"images":[
		{
			"mimeType":"image/png",
			"name":"415garbage",
			"uri":"415garbage.png"
		}
	],
	"accessors":[
		{
			"bufferView":0,
			"componentType":5126,
			"count":646,
			"max":[
				0.34877923130989075,
				0.10729414224624634,
				0.3269940912723541
			],
			"min":[
				-0.39436930418014526,
				0,
				-0.35510164499282837
			],
			"type":"VEC3"
		},
		{
			"bufferView":1,
			"componentType":5126,
			"count":646,
			"type":"VEC3"
		},
		{
			"bufferView":2,
			"componentType":5126,
			"count":646,
			"type":"VEC2"
		},
		{
			"bufferView":3,
			"componentType":5123,
			"count":1356,
			"type":"SCALAR"
		}
	],
	"bufferViews":[
		{
			"buffer":0,
			"byteLength":7752,
			"byteOffset":0,
			"target":34962
		},
		{
			"buffer":0,
			"byteLength":7752,
			"byteOffset":7752,
			"target":34962
		},
		{
			"buffer":0,
			"byteLength":5168,
			"byteOffset":15504,
			"target":34962
		},
		{
			"buffer":0,
			"byteLength":2712,
			"byteOffset":20672,
			"target":34963
		}
	],
	"samplers":[
		{
			"magFilter":9728,
			"minFilter":9984
		}
	],
	"buffers":[
		{
			"byteLength":23384,
			"uri":"garbage_415x19.bin"
		}
	]
}
