{
	"asset":{
		"generator":"Khronos glTF Blender I/O v4.4.55",
		"version":"2.0"
	},
	"scene":0,
	"scenes":[
		{
			"name":"Scene",
			"nodes":[
				0
			]
		}
	],
	"nodes":[
		{
			"mesh":0,
			"name":"garbage_415x08"
		}
	],
	"materials":[
		{
			"doubleSided":true,
			"name":"Material2",
			"pbrMetallicRoughness":{
				"baseColorTexture":{
					"index":0
				},
				"metallicFactor":0,
				"roughnessFactor":0.5
			}
		}
	],
	"meshes":[
		{
			"name":"Plane.048",
			"primitives":[
				{
					"attributes":{
						"POSITION":0,
						"NORMAL":1,
						"TEXCOORD_0":2
					},
					"indices":3,
					"material":0
				}
			]
		}
	],
	"textures":[
		{
			"sampler":0,
			"source":0
		}
	],
	"images":[
		{
			"mimeType":"image/png",
			"name":"415garbage",
			"uri":"415garbage.png"
		}
	],
	"accessors":[
		{
			"bufferView":0,
			"componentType":5126,
			"count":202,
			"max":[
				0.1775837391614914,
				0.08609830588102341,
				0.28866374492645264
			],
			"min":[
				-0.1940031349658966,
				0,
				-0.26821112632751465
			],
			"type":"VEC3"
		},
		{
			"bufferView":1,
			"componentType":5126,
			"count":202,
			"type":"VEC3"
		},
		{
			"bufferView":2,
			"componentType":5126,
			"count":202,
			"type":"VEC2"
		},
		{
			"bufferView":3,
			"componentType":5123,
			"count":408,
			"type":"SCALAR"
		}
	],
	"bufferViews":[
		{
			"buffer":0,
			"byteLength":2424,
			"byteOffset":0,
			"target":34962
		},
		{
			"buffer":0,
			"byteLength":2424,
			"byteOffset":2424,
			"target":34962
		},
		{
			"buffer":0,
			"byteLength":1616,
			"byteOffset":4848,
			"target":34962
		},
		{
			"buffer":0,
			"byteLength":816,
			"byteOffset":6464,
			"target":34963
		}
	],
	"samplers":[
		{
			"magFilter":9728,
			"minFilter":9984
		}
	],
	"buffers":[
		{
			"byteLength":7280,
			"uri":"garbage_415x08.bin"
		}
	]
}
