{
	"asset":{
		"generator":"Khronos glTF Blender I/O v4.4.55",
		"version":"2.0"
	},
	"scene":0,
	"scenes":[
		{
			"name":"Scene",
			"nodes":[
				0
			]
		}
	],
	"nodes":[
		{
			"mesh":0,
			"name":"garbage_415x18"
		}
	],
	"materials":[
		{
			"doubleSided":true,
			"name":"Material2",
			"pbrMetallicRoughness":{
				"baseColorTexture":{
					"index":0
				},
				"metallicFactor":0,
				"roughnessFactor":0.5
			}
		}
	],
	"meshes":[
		{
			"name":"Plane.034",
			"primitives":[
				{
					"attributes":{
						"POSITION":0,
						"NORMAL":1,
						"TEXCOORD_0":2
					},
					"indices":3,
					"material":0
				}
			]
		}
	],
	"textures":[
		{
			"sampler":0,
			"source":0
		}
	],
	"images":[
		{
			"mimeType":"image/png",
			"name":"415garbage",
			"uri":"415garbage.png"
		}
	],
	"accessors":[
		{
			"bufferView":0,
			"componentType":5126,
			"count":140,
			"max":[
				0.2327050417661667,
				0.13785938918590546,
				0.0759948119521141
			],
			"min":[
				-0.19987550377845764,
				0,
				-0.16978010535240173
			],
			"type":"VEC3"
		},
		{
			"bufferView":1,
			"componentType":5126,
			"count":140,
			"type":"VEC3"
		},
		{
			"bufferView":2,
			"componentType":5126,
			"count":140,
			"type":"VEC2"
		},
		{
			"bufferView":3,
			"componentType":5123,
			"count":276,
			"type":"SCALAR"
		}
	],
	"bufferViews":[
		{
			"buffer":0,
			"byteLength":1680,
			"byteOffset":0,
			"target":34962
		},
		{
			"buffer":0,
			"byteLength":1680,
			"byteOffset":1680,
			"target":34962
		},
		{
			"buffer":0,
			"byteLength":1120,
			"byteOffset":3360,
			"target":34962
		},
		{
			"buffer":0,
			"byteLength":552,
			"byteOffset":4480,
			"target":34963
		}
	],
	"samplers":[
		{
			"magFilter":9728,
			"minFilter":9984
		}
	],
	"buffers":[
		{
			"byteLength":5032,
			"uri":"garbage_415x18.bin"
		}
	]
}
