{
	"asset":{
		"generator":"Khronos glTF Blender I/O v4.4.55",
		"version":"2.0"
	},
	"scene":0,
	"scenes":[
		{
			"name":"Scene",
			"nodes":[
				0
			]
		}
	],
	"nodes":[
		{
			"mesh":0,
			"name":"garbage_415x05"
		}
	],
	"materials":[
		{
			"doubleSided":true,
			"name":"Material2",
			"pbrMetallicRoughness":{
				"baseColorTexture":{
					"index":0
				},
				"metallicFactor":0,
				"roughnessFactor":0.5
			}
		}
	],
	"meshes":[
		{
			"name":"Plane.022",
			"primitives":[
				{
					"attributes":{
						"POSITION":0,
						"NORMAL":1,
						"TEXCOORD_0":2
					},
					"indices":3,
					"material":0
				}
			]
		}
	],
	"textures":[
		{
			"sampler":0,
			"source":0
		}
	],
	"images":[
		{
			"mimeType":"image/png",
			"name":"415garbage",
			"uri":"415garbage.png"
		}
	],
	"accessors":[
		{
			"bufferView":0,
			"componentType":5126,
			"count":340,
			"max":[
				0.1964227259159088,
				0.15212582051753998,
				0.2574898302555084
			],
			"min":[
				-0.23769131302833557,
				0,
				-0.30125871300697327
			],
			"type":"VEC3"
		},
		{
			"bufferView":1,
			"componentType":5126,
			"count":340,
			"type":"VEC3"
		},
		{
			"bufferView":2,
			"componentType":5126,
			"count":340,
			"type":"VEC2"
		},
		{
			"bufferView":3,
			"componentType":5123,
			"count":720,
			"type":"SCALAR"
		}
	],
	"bufferViews":[
		{
			"buffer":0,
			"byteLength":4080,
			"byteOffset":0,
			"target":34962
		},
		{
			"buffer":0,
			"byteLength":4080,
			"byteOffset":4080,
			"target":34962
		},
		{
			"buffer":0,
			"byteLength":2720,
			"byteOffset":8160,
			"target":34962
		},
		{
			"buffer":0,
			"byteLength":1440,
			"byteOffset":10880,
			"target":34963
		}
	],
	"samplers":[
		{
			"magFilter":9728,
			"minFilter":9984
		}
	],
	"buffers":[
		{
			"byteLength":12320,
			"uri":"garbage_415x05.bin"
		}
	]
}
