{
	"asset":{
		"generator":"Khronos glTF Blender I/O v4.4.55",
		"version":"2.0"
	},
	"scene":0,
	"scenes":[
		{
			"name":"Scene",
			"nodes":[
				0
			]
		}
	],
	"nodes":[
		{
			"mesh":0,
			"name":"garbage_415x23"
		}
	],
	"materials":[
		{
			"doubleSided":true,
			"name":"Material2",
			"pbrMetallicRoughness":{
				"baseColorTexture":{
					"index":0
				},
				"metallicFactor":0,
				"roughnessFactor":0.5
			}
		}
	],
	"meshes":[
		{
			"name":"Plane.039",
			"primitives":[
				{
					"attributes":{
						"POSITION":0,
						"NORMAL":1,
						"TEXCOORD_0":2
					},
					"indices":3,
					"material":0
				}
			]
		}
	],
	"textures":[
		{
			"sampler":0,
			"source":0
		}
	],
	"images":[
		{
			"mimeType":"image/png",
			"name":"415garbage",
			"uri":"415garbage.png"
		}
	],
	"accessors":[
		{
			"bufferView":0,
			"componentType":5126,
			"count":165,
			"max":[
				0.10808439552783966,
				0.13950157165527344,
				0.0742364227771759
			],
			"min":[
				-0.26112815737724304,
				0,
				-0.23444092273712158
			],
			"type":"VEC3"
		},
		{
			"bufferView":1,
			"componentType":5126,
			"count":165,
			"type":"VEC3"
		},
		{
			"bufferView":2,
			"componentType":5126,
			"count":165,
			"type":"VEC2"
		},
		{
			"bufferView":3,
			"componentType":5123,
			"count":336,
			"type":"SCALAR"
		}
	],
	"bufferViews":[
		{
			"buffer":0,
			"byteLength":1980,
			"byteOffset":0,
			"target":34962
		},
		{
			"buffer":0,
			"byteLength":1980,
			"byteOffset":1980,
			"target":34962
		},
		{
			"buffer":0,
			"byteLength":1320,
			"byteOffset":3960,
			"target":34962
		},
		{
			"buffer":0,
			"byteLength":672,
			"byteOffset":5280,
			"target":34963
		}
	],
	"samplers":[
		{
			"magFilter":9728,
			"minFilter":9984
		}
	],
	"buffers":[
		{
			"byteLength":5952,
			"uri":"garbage_415x23.bin"
		}
	]
}
