{
	"asset":{
		"generator":"Khronos glTF Blender I/O v4.3.47",
		"version":"2.0"
	},
	"scene":0,
	"scenes":[
		{
			"name":"Scene",
			"nodes":[
				6
			]
		}
	],
	"nodes":[
		{
			"name":"inert"
		},
		{
			"name":"pendulum",
			"rotation":[
				-0.7071067690849304,
				3.029304451729331e-08,
				0.7071067690849304,
				3.029304807000699e-08
			],
			"translation":[
				4.284083843231201e-08,
				1.100000023841858,
				0
			]
		},
		{
			"mesh":0,
			"name":"grandfather-clock",
			"skin":0
		},
		{
			"mesh":1,
			"name":"hour-arm",
			"skin":0
		},
		{
			"mesh":2,
			"name":"minute-arm",
			"skin":0
		},
		{
			"mesh":3,
			"name":"pendulum",
			"skin":0
		},
		{
			"children":[
				2,
				3,
				4,
				5,
				0,
				1
			],
			"name":"Armature"
		}
	],
	"animations":[
		{
			"channels":[
				{
					"sampler":0,
					"target":{
						"node":0,
						"path":"translation"
					}
				},
				{
					"sampler":1,
					"target":{
						"node":0,
						"path":"rotation"
					}
				},
				{
					"sampler":2,
					"target":{
						"node":0,
						"path":"scale"
					}
				},
				{
					"sampler":3,
					"target":{
						"node":1,
						"path":"translation"
					}
				},
				{
					"sampler":4,
					"target":{
						"node":1,
						"path":"rotation"
					}
				},
				{
					"sampler":5,
					"target":{
						"node":1,
						"path":"scale"
					}
				}
			],
			"name":"idle",
			"samplers":[
				{
					"input":25,
					"interpolation":"LINEAR",
					"output":26
				},
				{
					"input":25,
					"interpolation":"LINEAR",
					"output":27
				},
				{
					"input":25,
					"interpolation":"LINEAR",
					"output":28
				},
				{
					"input":25,
					"interpolation":"LINEAR",
					"output":29
				},
				{
					"input":30,
					"interpolation":"LINEAR",
					"output":31
				},
				{
					"input":25,
					"interpolation":"LINEAR",
					"output":32
				}
			]
		}
	],
	"materials":[
		{
			"doubleSided":true,
			"name":"Material",
			"pbrMetallicRoughness":{
				"baseColorTexture":{
					"index":0
				},
				"metallicFactor":0,
				"roughnessFactor":0.5
			}
		}
	],
	"meshes":[
		{
			"name":"Cube",
			"primitives":[
				{
					"attributes":{
						"POSITION":0,
						"NORMAL":1,
						"TEXCOORD_0":2,
						"JOINTS_0":3,
						"WEIGHTS_0":4
					},
					"indices":5,
					"material":0
				}
			]
		},
		{
			"name":"Cube.001",
			"primitives":[
				{
					"attributes":{
						"POSITION":7,
						"NORMAL":8,
						"TEXCOORD_0":9,
						"JOINTS_0":10,
						"WEIGHTS_0":11
					},
					"indices":12,
					"material":0
				}
			]
		},
		{
			"name":"Cube.003",
			"primitives":[
				{
					"attributes":{
						"POSITION":13,
						"NORMAL":14,
						"TEXCOORD_0":15,
						"JOINTS_0":16,
						"WEIGHTS_0":17
					},
					"indices":18,
					"material":0
				}
			]
		},
		{
			"name":"Sphere",
			"primitives":[
				{
					"attributes":{
						"POSITION":19,
						"NORMAL":20,
						"TEXCOORD_0":21,
						"JOINTS_0":22,
						"WEIGHTS_0":23
					},
					"indices":24,
					"material":0
				}
			]
		}
	],
	"textures":[
		{
			"sampler":0,
			"source":0
		}
	],
	"images":[
		{
			"mimeType":"image/png",
			"name":"palette",
			"uri":"palette.png"
		}
	],
	"skins":[
		{
			"inverseBindMatrices":6,
			"joints":[
				0,
				1
			],
			"name":"Armature"
		}
	],
	"accessors":[
		{
			"bufferView":0,
			"componentType":5126,
			"count":300,
			"max":[
				0.4000000059604645,
				1.9900000095367432,
				0.19999998807907104
			],
			"min":[
				-0.4000000059604645,
				5.960464477539063e-08,
				-0.19999998807907104
			],
			"type":"VEC3"
		},
		{
			"bufferView":1,
			"componentType":5126,
			"count":300,
			"type":"VEC3"
		},
		{
			"bufferView":2,
			"componentType":5126,
			"count":300,
			"type":"VEC2"
		},
		{
			"bufferView":3,
			"componentType":5121,
			"count":300,
			"type":"VEC4"
		},
		{
			"bufferView":4,
			"componentType":5126,
			"count":300,
			"type":"VEC4"
		},
		{
			"bufferView":5,
			"componentType":5123,
			"count":762,
			"type":"SCALAR"
		},
		{
			"bufferView":6,
			"componentType":5126,
			"count":2,
			"type":"MAT4"
		},
		{
			"bufferView":7,
			"componentType":5126,
			"count":18,
			"max":[
				0.08354143798351288,
				1.3861441612243652,
				0.15000000596046448
			],
			"min":[
				-0.03535108268260956,
				1.2646489143371582,
				0.12999999523162842
			],
			"type":"VEC3"
		},
		{
			"bufferView":8,
			"componentType":5126,
			"count":18,
			"type":"VEC3"
		},
		{
			"bufferView":9,
			"componentType":5126,
			"count":18,
			"type":"VEC2"
		},
		{
			"bufferView":10,
			"componentType":5121,
			"count":18,
			"type":"VEC4"
		},
		{
			"bufferView":11,
			"componentType":5126,
			"count":18,
			"type":"VEC4"
		},
		{
			"bufferView":12,
			"componentType":5123,
			"count":24,
			"type":"SCALAR"
		},
		{
			"bufferView":13,
			"componentType":5126,
			"count":18,
			"max":[
				0.03438691049814224,
				1.415144681930542,
				0.14000000059604645
			],
			"min":[
				-0.18746121227741241,
				1.2656129598617554,
				0.11999999731779099
			],
			"type":"VEC3"
		},
		{
			"bufferView":14,
			"componentType":5126,
			"count":18,
			"type":"VEC3"
		},
		{
			"bufferView":15,
			"componentType":5126,
			"count":18,
			"type":"VEC2"
		},
		{
			"bufferView":16,
			"componentType":5121,
			"count":18,
			"type":"VEC4"
		},
		{
			"bufferView":17,
			"componentType":5126,
			"count":18,
			"type":"VEC4"
		},
		{
			"bufferView":18,
			"componentType":5123,
			"count":24,
			"type":"SCALAR"
		},
		{
			"bufferView":19,
			"componentType":5126,
			"count":82,
			"max":[
				0.07000000029802322,
				1.100000023841858,
				0.034999996423721313
			],
			"min":[
				-0.07000000029802322,
				0.22999998927116394,
				-0.03500000014901161
			],
			"type":"VEC3"
		},
		{
			"bufferView":20,
			"componentType":5126,
			"count":82,
			"type":"VEC3"
		},
		{
			"bufferView":21,
			"componentType":5126,
			"count":82,
			"type":"VEC2"
		},
		{
			"bufferView":22,
			"componentType":5121,
			"count":82,
			"type":"VEC4"
		},
		{
			"bufferView":23,
			"componentType":5126,
			"count":82,
			"type":"VEC4"
		},
		{
			"bufferView":24,
			"componentType":5123,
			"count":372,
			"type":"SCALAR"
		},
		{
			"bufferView":25,
			"componentType":5126,
			"count":2,
			"max":[
				2
			],
			"min":[
				0
			],
			"type":"SCALAR"
		},
		{
			"bufferView":26,
			"componentType":5126,
			"count":2,
			"type":"VEC3"
		},
		{
			"bufferView":27,
			"componentType":5126,
			"count":2,
			"type":"VEC4"
		},
		{
			"bufferView":28,
			"componentType":5126,
			"count":2,
			"type":"VEC3"
		},
		{
			"bufferView":29,
			"componentType":5126,
			"count":2,
			"type":"VEC3"
		},
		{
			"bufferView":30,
			"componentType":5126,
			"count":49,
			"max":[
				2
			],
			"min":[
				0
			],
			"type":"SCALAR"
		},
		{
			"bufferView":31,
			"componentType":5126,
			"count":49,
			"type":"VEC4"
		},
		{
			"bufferView":32,
			"componentType":5126,
			"count":2,
			"type":"VEC3"
		}
	],
	"bufferViews":[
		{
			"buffer":0,
			"byteLength":3600,
			"byteOffset":0,
			"target":34962
		},
		{
			"buffer":0,
			"byteLength":3600,
			"byteOffset":3600,
			"target":34962
		},
		{
			"buffer":0,
			"byteLength":2400,
			"byteOffset":7200,
			"target":34962
		},
		{
			"buffer":0,
			"byteLength":1200,
			"byteOffset":9600,
			"target":34962
		},
		{
			"buffer":0,
			"byteLength":4800,
			"byteOffset":10800,
			"target":34962
		},
		{
			"buffer":0,
			"byteLength":1524,
			"byteOffset":15600,
			"target":34963
		},
		{
			"buffer":0,
			"byteLength":128,
			"byteOffset":17124
		},
		{
			"buffer":0,
			"byteLength":216,
			"byteOffset":17252,
			"target":34962
		},
		{
			"buffer":0,
			"byteLength":216,
			"byteOffset":17468,
			"target":34962
		},
		{
			"buffer":0,
			"byteLength":144,
			"byteOffset":17684,
			"target":34962
		},
		{
			"buffer":0,
			"byteLength":72,
			"byteOffset":17828,
			"target":34962
		},
		{
			"buffer":0,
			"byteLength":288,
			"byteOffset":17900,
			"target":34962
		},
		{
			"buffer":0,
			"byteLength":48,
			"byteOffset":18188,
			"target":34963
		},
		{
			"buffer":0,
			"byteLength":216,
			"byteOffset":18236,
			"target":34962
		},
		{
			"buffer":0,
			"byteLength":216,
			"byteOffset":18452,
			"target":34962
		},
		{
			"buffer":0,
			"byteLength":144,
			"byteOffset":18668,
			"target":34962
		},
		{
			"buffer":0,
			"byteLength":72,
			"byteOffset":18812,
			"target":34962
		},
		{
			"buffer":0,
			"byteLength":288,
			"byteOffset":18884,
			"target":34962
		},
		{
			"buffer":0,
			"byteLength":48,
			"byteOffset":19172,
			"target":34963
		},
		{
			"buffer":0,
			"byteLength":984,
			"byteOffset":19220,
			"target":34962
		},
		{
			"buffer":0,
			"byteLength":984,
			"byteOffset":20204,
			"target":34962
		},
		{
			"buffer":0,
			"byteLength":656,
			"byteOffset":21188,
			"target":34962
		},
		{
			"buffer":0,
			"byteLength":328,
			"byteOffset":21844,
			"target":34962
		},
		{
			"buffer":0,
			"byteLength":1312,
			"byteOffset":22172,
			"target":34962
		},
		{
			"buffer":0,
			"byteLength":744,
			"byteOffset":23484,
			"target":34963
		},
		{
			"buffer":0,
			"byteLength":8,
			"byteOffset":24228
		},
		{
			"buffer":0,
			"byteLength":24,
			"byteOffset":24236
		},
		{
			"buffer":0,
			"byteLength":32,
			"byteOffset":24260
		},
		{
			"buffer":0,
			"byteLength":24,
			"byteOffset":24292
		},
		{
			"buffer":0,
			"byteLength":24,
			"byteOffset":24316
		},
		{
			"buffer":0,
			"byteLength":196,
			"byteOffset":24340
		},
		{
			"buffer":0,
			"byteLength":784,
			"byteOffset":24536
		},
		{
			"buffer":0,
			"byteLength":24,
			"byteOffset":25320
		}
	],
	"samplers":[
		{
			"magFilter":9729,
			"minFilter":9987
		}
	],
	"buffers":[
		{
			"byteLength":25344,
			"uri":"grandfather-clock.bin"
		}
	]
}
