{
	"asset":{
		"generator":"Khronos glTF Blender I/O v4.4.55",
		"version":"2.0"
	},
	"scene":0,
	"scenes":[
		{
			"name":"Scene",
			"nodes":[
				0
			]
		}
	],
	"nodes":[
		{
			"mesh":0,
			"name":"greenhouse_roof_853x07"
		}
	],
	"materials":[
		{
			"doubleSided":true,
			"name":"glasspost",
			"pbrMetallicRoughness":{
				"baseColorTexture":{
					"index":0
				},
				"metallicFactor":0,
				"roughnessFactor":0.5
			}
		},
		{
			"alphaMode":"BLEND",
			"doubleSided":true,
			"name":"walls",
			"pbrMetallicRoughness":{
				"baseColorTexture":{
					"index":1
				},
				"metallicFactor":0,
				"roughnessFactor":0.5
			}
		}
	],
	"meshes":[
		{
			"name":"Cube.001",
			"primitives":[
				{
					"attributes":{
						"POSITION":0,
						"TEXCOORD_0":1
					},
					"indices":2,
					"material":0
				},
				{
					"attributes":{
						"POSITION":3,
						"TEXCOORD_0":4
					},
					"indices":5,
					"material":1
				}
			]
		}
	],
	"textures":[
		{
			"sampler":0,
			"source":0
		},
		{
			"sampler":0,
			"source":1
		}
	],
	"images":[
		{
			"mimeType":"image/png",
			"name":"853greenhouse_roof",
			"uri":"853greenhouse_roof.png"
		},
		{
			"mimeType":"image/png",
			"name":"shape996",
			"uri":"shape996.png"
		}
	],
	"accessors":[
		{
			"bufferView":0,
			"componentType":5126,
			"count":221,
			"max":[
				0.9998849034309387,
				5.003968715667725,
				0.9998853206634521
			],
			"min":[
				-0.00011511787306517363,
				3.2321571779903024e-05,
				-0.00011476912186481059
			],
			"type":"VEC3"
		},
		{
			"bufferView":1,
			"componentType":5126,
			"count":221,
			"type":"VEC2"
		},
		{
			"bufferView":2,
			"componentType":5123,
			"count":480,
			"type":"SCALAR"
		},
		{
			"bufferView":3,
			"componentType":5126,
			"count":28,
			"max":[
				1.0014373064041138,
				4.9998040199279785,
				0.6606061458587646
			],
			"min":[
				0.8221914172172546,
				0.9996188879013062,
				0.47878798842430115
			],
			"type":"VEC3"
		},
		{
			"bufferView":4,
			"componentType":5126,
			"count":28,
			"type":"VEC2"
		},
		{
			"bufferView":5,
			"componentType":5123,
			"count":54,
			"type":"SCALAR"
		}
	],
	"bufferViews":[
		{
			"buffer":0,
			"byteLength":2652,
			"byteOffset":0,
			"target":34962
		},
		{
			"buffer":0,
			"byteLength":1768,
			"byteOffset":2652,
			"target":34962
		},
		{
			"buffer":0,
			"byteLength":960,
			"byteOffset":4420,
			"target":34963
		},
		{
			"buffer":0,
			"byteLength":336,
			"byteOffset":5380,
			"target":34962
		},
		{
			"buffer":0,
			"byteLength":224,
			"byteOffset":5716,
			"target":34962
		},
		{
			"buffer":0,
			"byteLength":108,
			"byteOffset":5940,
			"target":34963
		}
	],
	"samplers":[
		{
			"magFilter":9728,
			"minFilter":9984
		}
	],
	"buffers":[
		{
			"byteLength":6048,
			"uri":"greenhouse_roof_853x07.bin"
		}
	]
}
