{
	"asset":{
		"generator":"Khronos glTF Blender I/O v4.4.55",
		"version":"2.0"
	},
	"scene":0,
	"scenes":[
		{
			"name":"Scene",
			"nodes":[
				0
			]
		}
	],
	"nodes":[
		{
			"mesh":0,
			"name":"greenhouse_roof_853x06"
		}
	],
	"materials":[
		{
			"doubleSided":true,
			"name":"glasspost",
			"pbrMetallicRoughness":{
				"baseColorTexture":{
					"index":0
				},
				"metallicFactor":0,
				"roughnessFactor":0.5
			}
		},
		{
			"alphaMode":"BLEND",
			"doubleSided":true,
			"name":"walls",
			"pbrMetallicRoughness":{
				"baseColorTexture":{
					"index":1
				},
				"metallicFactor":0,
				"roughnessFactor":0.5
			}
		}
	],
	"meshes":[
		{
			"name":"Cube.003",
			"primitives":[
				{
					"attributes":{
						"POSITION":0,
						"TEXCOORD_0":1
					},
					"indices":2,
					"material":0
				},
				{
					"attributes":{
						"POSITION":3,
						"TEXCOORD_0":4
					},
					"indices":5,
					"material":1
				}
			]
		}
	],
	"textures":[
		{
			"sampler":0,
			"source":0
		},
		{
			"sampler":0,
			"source":1
		}
	],
	"images":[
		{
			"mimeType":"image/png",
			"name":"853greenhouse_roof",
			"uri":"853greenhouse_roof.png"
		},
		{
			"mimeType":"image/png",
			"name":"shape996",
			"uri":"shape996.png"
		}
	],
	"accessors":[
		{
			"bufferView":0,
			"componentType":5126,
			"count":179,
			"max":[
				1.0001457929611206,
				5.004196643829346,
				1.0001940727233887
			],
			"min":[
				0.00014568539336323738,
				0.0002601146697998047,
				0.00019403948681429029
			],
			"type":"VEC3"
		},
		{
			"bufferView":1,
			"componentType":5126,
			"count":179,
			"type":"VEC2"
		},
		{
			"bufferView":2,
			"componentType":5123,
			"count":378,
			"type":"SCALAR"
		},
		{
			"bufferView":3,
			"componentType":5126,
			"count":106,
			"max":[
				1.001894474029541,
				5.000189304351807,
				1.002213478088379
			],
			"min":[
				-0.0014068367891013622,
				0.9998466968536377,
				0.00019403948681429029
			],
			"type":"VEC3"
		},
		{
			"bufferView":4,
			"componentType":5126,
			"count":106,
			"type":"VEC2"
		},
		{
			"bufferView":5,
			"componentType":5123,
			"count":228,
			"type":"SCALAR"
		}
	],
	"bufferViews":[
		{
			"buffer":0,
			"byteLength":2148,
			"byteOffset":0,
			"target":34962
		},
		{
			"buffer":0,
			"byteLength":1432,
			"byteOffset":2148,
			"target":34962
		},
		{
			"buffer":0,
			"byteLength":756,
			"byteOffset":3580,
			"target":34963
		},
		{
			"buffer":0,
			"byteLength":1272,
			"byteOffset":4336,
			"target":34962
		},
		{
			"buffer":0,
			"byteLength":848,
			"byteOffset":5608,
			"target":34962
		},
		{
			"buffer":0,
			"byteLength":456,
			"byteOffset":6456,
			"target":34963
		}
	],
	"samplers":[
		{
			"magFilter":9728,
			"minFilter":9984
		}
	],
	"buffers":[
		{
			"byteLength":6912,
			"uri":"greenhouse_roof_853x06.bin"
		}
	]
}
