{
	"asset":{
		"generator":"Khronos glTF Blender I/O v4.4.55",
		"version":"2.0"
	},
	"scene":0,
	"scenes":[
		{
			"name":"Scene",
			"nodes":[
				0,
				1
			]
		}
	],
	"nodes":[
		{
			"mesh":0,
			"name":"guillotine_734x00"
		},
		{
			"mesh":1,
			"name":"guillotine_734"
		}
	],
	"materials":[
		{
			"doubleSided":true,
			"name":"guillotine",
			"pbrMetallicRoughness":{
				"baseColorTexture":{
					"index":0
				},
				"metallicFactor":0,
				"roughnessFactor":0.5
			}
		}
	],
	"meshes":[
		{
			"name":"Cube.001",
			"primitives":[
				{
					"attributes":{
						"POSITION":0,
						"NORMAL":1,
						"TEXCOORD_0":2
					},
					"indices":3,
					"material":0
				}
			]
		},
		{
			"name":"Plane",
			"primitives":[
				{
					"attributes":{
						"POSITION":4,
						"NORMAL":5,
						"TEXCOORD_0":6
					},
					"indices":7,
					"material":0
				}
			]
		}
	],
	"textures":[
		{
			"sampler":0,
			"source":0
		}
	],
	"images":[
		{
			"mimeType":"image/png",
			"name":"734guillotine",
			"uri":"734guillotine.png"
		},
		{
			"mimeType":"image/png",
			"name":"709guillotine",
			"uri":"709guillotine.png"
		},
		{
			"mimeType":"image/png",
			"name":"813the_rack",
			"uri":"813the_rack.png"
		},
		{
			"mimeType":"image/png",
			"name":"866thumbscrews",
			"uri":"866thumbscrews.png"
		}
	],
	"accessors":[
		{
			"bufferView":0,
			"componentType":5126,
			"count":160,
			"max":[
				1.999894618988037,
				4.99716854095459,
				0.45520806312561035
			],
			"min":[
				-0.2628132104873657,
				-0.0028312206268310547,
				0.0009259209036827087
			],
			"type":"VEC3"
		},
		{
			"bufferView":1,
			"componentType":5126,
			"count":160,
			"type":"VEC3"
		},
		{
			"bufferView":2,
			"componentType":5126,
			"count":160,
			"type":"VEC2"
		},
		{
			"bufferView":3,
			"componentType":5123,
			"count":258,
			"type":"SCALAR"
		},
		{
			"bufferView":4,
			"componentType":5126,
			"count":32,
			"max":[
				1.6372572183609009,
				4.9241557121276855,
				0.30225682258605957
			],
			"min":[
				0.34763580560684204,
				3.9160356521606445,
				0.1288142055273056
			],
			"type":"VEC3"
		},
		{
			"bufferView":5,
			"componentType":5126,
			"count":32,
			"type":"VEC3"
		},
		{
			"bufferView":6,
			"componentType":5126,
			"count":32,
			"type":"VEC2"
		},
		{
			"bufferView":7,
			"componentType":5123,
			"count":48,
			"type":"SCALAR"
		}
	],
	"bufferViews":[
		{
			"buffer":0,
			"byteLength":1920,
			"byteOffset":0,
			"target":34962
		},
		{
			"buffer":0,
			"byteLength":1920,
			"byteOffset":1920,
			"target":34962
		},
		{
			"buffer":0,
			"byteLength":1280,
			"byteOffset":3840,
			"target":34962
		},
		{
			"buffer":0,
			"byteLength":516,
			"byteOffset":5120,
			"target":34963
		},
		{
			"buffer":0,
			"byteLength":384,
			"byteOffset":5636,
			"target":34962
		},
		{
			"buffer":0,
			"byteLength":384,
			"byteOffset":6020,
			"target":34962
		},
		{
			"buffer":0,
			"byteLength":256,
			"byteOffset":6404,
			"target":34962
		},
		{
			"buffer":0,
			"byteLength":96,
			"byteOffset":6660,
			"target":34963
		}
	],
	"samplers":[
		{
			"magFilter":9728,
			"minFilter":9984
		}
	],
	"buffers":[
		{
			"byteLength":6756,
			"uri":"guillotine_734x00.bin"
		}
	]
}
