{
	"asset":{
		"generator":"Khronos glTF Blender I/O v4.4.55",
		"version":"2.0"
	},
	"scene":0,
	"scenes":[
		{
			"name":"Scene",
			"nodes":[
				0
			]
		}
	],
	"nodes":[
		{
			"mesh":0,
			"name":"hay_stack1023x03"
		}
	],
	"materials":[
		{
			"alphaMode":"BLEND",
			"doubleSided":true,
			"name":"Material",
			"pbrMetallicRoughness":{
				"baseColorTexture":{
					"index":0
				},
				"metallicFactor":0,
				"roughnessFactor":0.5
			}
		}
	],
	"meshes":[
		{
			"name":"Cylinder.004",
			"primitives":[
				{
					"attributes":{
						"POSITION":0,
						"NORMAL":1,
						"TEXCOORD_0":2
					},
					"indices":3,
					"material":0
				}
			]
		}
	],
	"textures":[
		{
			"sampler":0,
			"source":0
		}
	],
	"images":[
		{
			"mimeType":"image/png",
			"name":"1023haystack",
			"uri":"1023haystack.png"
		}
	],
	"accessors":[
		{
			"bufferView":0,
			"componentType":5126,
			"count":384,
			"max":[
				1.6890950202941895,
				2.267028331756592,
				1.612133502960205
			],
			"min":[
				-2.091928005218506,
				0.03638565540313721,
				-1.7211028337478638
			],
			"type":"VEC3"
		},
		{
			"bufferView":1,
			"componentType":5126,
			"count":384,
			"type":"VEC3"
		},
		{
			"bufferView":2,
			"componentType":5126,
			"count":384,
			"type":"VEC2"
		},
		{
			"bufferView":3,
			"componentType":5123,
			"count":726,
			"type":"SCALAR"
		}
	],
	"bufferViews":[
		{
			"buffer":0,
			"byteLength":4608,
			"byteOffset":0,
			"target":34962
		},
		{
			"buffer":0,
			"byteLength":4608,
			"byteOffset":4608,
			"target":34962
		},
		{
			"buffer":0,
			"byteLength":3072,
			"byteOffset":9216,
			"target":34962
		},
		{
			"buffer":0,
			"byteLength":1452,
			"byteOffset":12288,
			"target":34963
		}
	],
	"samplers":[
		{
			"magFilter":9728,
			"minFilter":9984
		}
	],
	"buffers":[
		{
			"byteLength":13740,
			"uri":"hay_stack1023x03.bin"
		}
	]
}
