{
	"asset":{
		"generator":"Khronos glTF Blender I/O v4.4.55",
		"version":"2.0"
	},
	"scene":0,
	"scenes":[
		{
			"name":"Scene",
			"nodes":[
				0
			]
		}
	],
	"nodes":[
		{
			"mesh":0,
			"name":"hay_stack1023x04"
		}
	],
	"materials":[
		{
			"alphaMode":"BLEND",
			"doubleSided":true,
			"name":"Material",
			"pbrMetallicRoughness":{
				"baseColorTexture":{
					"index":0
				},
				"metallicFactor":0,
				"roughnessFactor":0.5
			}
		}
	],
	"meshes":[
		{
			"name":"Cylinder.005",
			"primitives":[
				{
					"attributes":{
						"POSITION":0,
						"NORMAL":1,
						"TEXCOORD_0":2
					},
					"indices":3,
					"material":0
				}
			]
		}
	],
	"textures":[
		{
			"sampler":0,
			"source":0
		}
	],
	"images":[
		{
			"mimeType":"image/png",
			"name":"1023haystack",
			"uri":"1023haystack.png"
		}
	],
	"accessors":[
		{
			"bufferView":0,
			"componentType":5126,
			"count":455,
			"max":[
				1.9095120429992676,
				1.5913101434707642,
				1.0703139305114746
			],
			"min":[
				-1.7295167446136475,
				-0.02522386610507965,
				-2.0548651218414307
			],
			"type":"VEC3"
		},
		{
			"bufferView":1,
			"componentType":5126,
			"count":455,
			"type":"VEC3"
		},
		{
			"bufferView":2,
			"componentType":5126,
			"count":455,
			"type":"VEC2"
		},
		{
			"bufferView":3,
			"componentType":5123,
			"count":699,
			"type":"SCALAR"
		}
	],
	"bufferViews":[
		{
			"buffer":0,
			"byteLength":5460,
			"byteOffset":0,
			"target":34962
		},
		{
			"buffer":0,
			"byteLength":5460,
			"byteOffset":5460,
			"target":34962
		},
		{
			"buffer":0,
			"byteLength":3640,
			"byteOffset":10920,
			"target":34962
		},
		{
			"buffer":0,
			"byteLength":1398,
			"byteOffset":14560,
			"target":34963
		}
	],
	"samplers":[
		{
			"magFilter":9728,
			"minFilter":9984
		}
	],
	"buffers":[
		{
			"byteLength":15960,
			"uri":"hay_stack1023x04.bin"
		}
	]
}
