{
	"asset":{
		"generator":"Khronos glTF Blender I/O v4.4.55",
		"version":"2.0"
	},
	"extensionsUsed":[
		"KHR_materials_transmission",
		"KHR_materials_specular",
		"KHR_materials_ior"
	],
	"scene":0,
	"scenes":[
		{
			"name":"Scene",
			"nodes":[
				0
			]
		}
	],
	"nodes":[
		{
			"mesh":0,
			"name":"Horse"
		}
	],
	"materials":[
		{
			"doubleSided":true,
			"extensions":{
				"KHR_materials_transmission":{
					"transmissionFactor":1
				},
				"KHR_materials_specular":{
					"specularFactor":0.5220000147819519
				}
			},
			"name":"horse",
			"pbrMetallicRoughness":{
				"baseColorTexture":{
					"index":0
				}
			}
		},
		{
			"doubleSided":true,
			"extensions":{
				"KHR_materials_transmission":{
					"transmissionFactor":1
				},
				"KHR_materials_specular":{
					"specularFactor":0.5220000147819519
				},
				"KHR_materials_ior":{
					"ior":1
				}
			},
			"name":"baked_horse",
			"pbrMetallicRoughness":{
				"baseColorTexture":{
					"index":1
				}
			}
		}
	],
	"meshes":[
		{
			"name":"13915_Horse_and_Carriage_v1_l3",
			"primitives":[
				{
					"attributes":{
						"POSITION":0,
						"NORMAL":1,
						"TEXCOORD_0":2
					},
					"indices":3,
					"material":0
				},
				{
					"attributes":{
						"POSITION":4,
						"NORMAL":5,
						"TEXCOORD_0":6
					},
					"indices":7,
					"material":1
				}
			]
		}
	],
	"textures":[
		{
			"sampler":0,
			"source":0
		},
		{
			"sampler":1,
			"source":1
		}
	],
	"images":[
		{
			"mimeType":"image/png",
			"name":"476smith_the_horse",
			"uri":"476smith_the_horse.png"
		},
		{
			"mimeType":"image/png",
			"name":"727horse",
			"uri":"727horse.png"
		}
	],
	"accessors":[
		{
			"bufferView":0,
			"componentType":5126,
			"count":508,
			"max":[
				0.3019561171531677,
				3.8600499629974365,
				3.9033730030059814
			],
			"min":[
				-0.3019561171531677,
				0.32993146777153015,
				-0.4972524344921112
			],
			"type":"VEC3"
		},
		{
			"bufferView":1,
			"componentType":5126,
			"count":508,
			"type":"VEC3"
		},
		{
			"bufferView":2,
			"componentType":5126,
			"count":508,
			"type":"VEC2"
		},
		{
			"bufferView":3,
			"componentType":5123,
			"count":2676,
			"type":"SCALAR"
		},
		{
			"bufferView":4,
			"componentType":5126,
			"count":4448,
			"max":[
				0.7037622332572937,
				4.038344383239746,
				4.375770568847656
			],
			"min":[
				-0.7037622332572937,
				0.002403839025646448,
				-0.3331908881664276
			],
			"type":"VEC3"
		},
		{
			"bufferView":5,
			"componentType":5126,
			"count":4448,
			"type":"VEC3"
		},
		{
			"bufferView":6,
			"componentType":5126,
			"count":4448,
			"type":"VEC2"
		},
		{
			"bufferView":7,
			"componentType":5123,
			"count":18309,
			"type":"SCALAR"
		}
	],
	"bufferViews":[
		{
			"buffer":0,
			"byteLength":6096,
			"byteOffset":0,
			"target":34962
		},
		{
			"buffer":0,
			"byteLength":6096,
			"byteOffset":6096,
			"target":34962
		},
		{
			"buffer":0,
			"byteLength":4064,
			"byteOffset":12192,
			"target":34962
		},
		{
			"buffer":0,
			"byteLength":5352,
			"byteOffset":16256,
			"target":34963
		},
		{
			"buffer":0,
			"byteLength":53376,
			"byteOffset":21608,
			"target":34962
		},
		{
			"buffer":0,
			"byteLength":53376,
			"byteOffset":74984,
			"target":34962
		},
		{
			"buffer":0,
			"byteLength":35584,
			"byteOffset":128360,
			"target":34962
		},
		{
			"buffer":0,
			"byteLength":36618,
			"byteOffset":163944,
			"target":34963
		}
	],
	"samplers":[
		{
			"magFilter":9728,
			"minFilter":9984
		},
		{
			"magFilter":9728,
			"minFilter":9984,
			"wrapS":33071,
			"wrapT":33071
		}
	],
	"buffers":[
		{
			"byteLength":200564,
			"uri":"horse_727.bin"
		}
	]
}
