{
	"asset":{
		"generator":"Khronos glTF Blender I/O v4.4.55",
		"version":"2.0"
	},
	"scene":0,
	"scenes":[
		{
			"name":"Scene",
			"nodes":[
				0
			]
		}
	],
	"nodes":[
		{
			"mesh":0,
			"name":"kitchen_item_863x15"
		}
	],
	"materials":[
		{
			"doubleSided":true,
			"name":"Material.001",
			"pbrMetallicRoughness":{
				"baseColorTexture":{
					"index":0
				},
				"metallicFactor":0,
				"roughnessFactor":0.5
			}
		}
	],
	"meshes":[
		{
			"name":"Plane.015",
			"primitives":[
				{
					"attributes":{
						"POSITION":0,
						"NORMAL":1,
						"TEXCOORD_0":2
					},
					"indices":3,
					"material":0
				}
			]
		}
	],
	"textures":[
		{
			"sampler":0,
			"source":0
		}
	],
	"images":[
		{
			"mimeType":"image/png",
			"name":"863kitchen_items",
			"uri":"863kitchen_items.png"
		}
	],
	"accessors":[
		{
			"bufferView":0,
			"componentType":5126,
			"count":579,
			"max":[
				0.2578485906124115,
				1.8504259586334229,
				0.381950706243515
			],
			"min":[
				-0.26626256108283997,
				0.0037020742893218994,
				-0.14132186770439148
			],
			"type":"VEC3"
		},
		{
			"bufferView":1,
			"componentType":5126,
			"count":579,
			"type":"VEC3"
		},
		{
			"bufferView":2,
			"componentType":5126,
			"count":579,
			"type":"VEC2"
		},
		{
			"bufferView":3,
			"componentType":5123,
			"count":912,
			"type":"SCALAR"
		}
	],
	"bufferViews":[
		{
			"buffer":0,
			"byteLength":6948,
			"byteOffset":0,
			"target":34962
		},
		{
			"buffer":0,
			"byteLength":6948,
			"byteOffset":6948,
			"target":34962
		},
		{
			"buffer":0,
			"byteLength":4632,
			"byteOffset":13896,
			"target":34962
		},
		{
			"buffer":0,
			"byteLength":1824,
			"byteOffset":18528,
			"target":34963
		}
	],
	"samplers":[
		{
			"magFilter":9728,
			"minFilter":9984
		}
	],
	"buffers":[
		{
			"byteLength":20352,
			"uri":"kitchen_item_863x15.bin"
		}
	]
}
