{
	"asset":{
		"generator":"Khronos glTF Blender I/O v4.4.55",
		"version":"2.0"
	},
	"scene":0,
	"scenes":[
		{
			"name":"Scene",
			"nodes":[
				0
			]
		}
	],
	"nodes":[
		{
			"mesh":0,
			"name":"kitchen_item_863x12"
		}
	],
	"materials":[
		{
			"doubleSided":true,
			"name":"Material.001",
			"pbrMetallicRoughness":{
				"baseColorTexture":{
					"index":0
				},
				"metallicFactor":0,
				"roughnessFactor":0.5
			}
		}
	],
	"meshes":[
		{
			"name":"Plane.012",
			"primitives":[
				{
					"attributes":{
						"POSITION":0,
						"NORMAL":1,
						"TEXCOORD_0":2
					},
					"indices":3,
					"material":0
				}
			]
		}
	],
	"textures":[
		{
			"sampler":0,
			"source":0
		}
	],
	"images":[
		{
			"mimeType":"image/png",
			"name":"863kitchen_items",
			"uri":"863kitchen_items.png"
		}
	],
	"accessors":[
		{
			"bufferView":0,
			"componentType":5126,
			"count":493,
			"max":[
				0.25310492515563965,
				0.6255080699920654,
				0.23137956857681274
			],
			"min":[
				-0.42164215445518494,
				0.012888193130493164,
				-0.2941560745239258
			],
			"type":"VEC3"
		},
		{
			"bufferView":1,
			"componentType":5126,
			"count":493,
			"type":"VEC3"
		},
		{
			"bufferView":2,
			"componentType":5126,
			"count":493,
			"type":"VEC2"
		},
		{
			"bufferView":3,
			"componentType":5123,
			"count":1098,
			"type":"SCALAR"
		}
	],
	"bufferViews":[
		{
			"buffer":0,
			"byteLength":5916,
			"byteOffset":0,
			"target":34962
		},
		{
			"buffer":0,
			"byteLength":5916,
			"byteOffset":5916,
			"target":34962
		},
		{
			"buffer":0,
			"byteLength":3944,
			"byteOffset":11832,
			"target":34962
		},
		{
			"buffer":0,
			"byteLength":2196,
			"byteOffset":15776,
			"target":34963
		}
	],
	"samplers":[
		{
			"magFilter":9728,
			"minFilter":9984
		}
	],
	"buffers":[
		{
			"byteLength":17972,
			"uri":"kitchen_item_863x12.bin"
		}
	]
}
