{
	"asset":{
		"generator":"Khronos glTF Blender I/O v4.4.55",
		"version":"2.0"
	},
	"scene":0,
	"scenes":[
		{
			"name":"Scene",
			"nodes":[
				0
			]
		}
	],
	"nodes":[
		{
			"mesh":0,
			"name":"kitchen_item_863x00"
		}
	],
	"materials":[
		{
			"doubleSided":true,
			"name":"Material.001",
			"pbrMetallicRoughness":{
				"baseColorTexture":{
					"index":0
				},
				"metallicFactor":0,
				"roughnessFactor":0.5
			}
		}
	],
	"meshes":[
		{
			"name":"Plane.001",
			"primitives":[
				{
					"attributes":{
						"POSITION":0,
						"NORMAL":1,
						"TEXCOORD_0":2
					},
					"indices":3,
					"material":0
				}
			]
		}
	],
	"textures":[
		{
			"sampler":0,
			"source":0
		}
	],
	"images":[
		{
			"mimeType":"image/png",
			"name":"863kitchen_items",
			"uri":"863kitchen_items.png"
		}
	],
	"accessors":[
		{
			"bufferView":0,
			"componentType":5126,
			"count":619,
			"max":[
				0.4321107864379883,
				0.8362604975700378,
				-0.029189303517341614
			],
			"min":[
				-0.46453380584716797,
				0.0023697838187217712,
				-0.32905757427215576
			],
			"type":"VEC3"
		},
		{
			"bufferView":1,
			"componentType":5126,
			"count":619,
			"type":"VEC3"
		},
		{
			"bufferView":2,
			"componentType":5126,
			"count":619,
			"type":"VEC2"
		},
		{
			"bufferView":3,
			"componentType":5123,
			"count":1548,
			"type":"SCALAR"
		}
	],
	"bufferViews":[
		{
			"buffer":0,
			"byteLength":7428,
			"byteOffset":0,
			"target":34962
		},
		{
			"buffer":0,
			"byteLength":7428,
			"byteOffset":7428,
			"target":34962
		},
		{
			"buffer":0,
			"byteLength":4952,
			"byteOffset":14856,
			"target":34962
		},
		{
			"buffer":0,
			"byteLength":3096,
			"byteOffset":19808,
			"target":34963
		}
	],
	"samplers":[
		{
			"magFilter":9728,
			"minFilter":9984
		}
	],
	"buffers":[
		{
			"byteLength":22904,
			"uri":"kitchen_item_863x00.bin"
		}
	]
}
