{
	"asset":{
		"generator":"Khronos glTF Blender I/O v4.4.55",
		"version":"2.0"
	},
	"scene":0,
	"scenes":[
		{
			"name":"Scene",
			"nodes":[
				0
			]
		}
	],
	"nodes":[
		{
			"mesh":0,
			"name":"kitchen_item_863x09"
		}
	],
	"materials":[
		{
			"doubleSided":true,
			"name":"Material.001",
			"pbrMetallicRoughness":{
				"baseColorTexture":{
					"index":0
				},
				"metallicFactor":0,
				"roughnessFactor":0.5
			}
		}
	],
	"meshes":[
		{
			"name":"Cube.002",
			"primitives":[
				{
					"attributes":{
						"POSITION":0,
						"NORMAL":1,
						"TEXCOORD_0":2
					},
					"indices":3,
					"material":0
				}
			]
		}
	],
	"textures":[
		{
			"sampler":0,
			"source":0
		}
	],
	"images":[
		{
			"mimeType":"image/png",
			"name":"863kitchen_items",
			"uri":"863kitchen_items.png"
		}
	],
	"accessors":[
		{
			"bufferView":0,
			"componentType":5126,
			"count":358,
			"max":[
				0.3678727149963379,
				0.20213328301906586,
				0.39131736755371094
			],
			"min":[
				-0.4485395848751068,
				0.002950333058834076,
				-0.42384210228919983
			],
			"type":"VEC3"
		},
		{
			"bufferView":1,
			"componentType":5126,
			"count":358,
			"type":"VEC3"
		},
		{
			"bufferView":2,
			"componentType":5126,
			"count":358,
			"type":"VEC2"
		},
		{
			"bufferView":3,
			"componentType":5123,
			"count":672,
			"type":"SCALAR"
		}
	],
	"bufferViews":[
		{
			"buffer":0,
			"byteLength":4296,
			"byteOffset":0,
			"target":34962
		},
		{
			"buffer":0,
			"byteLength":4296,
			"byteOffset":4296,
			"target":34962
		},
		{
			"buffer":0,
			"byteLength":2864,
			"byteOffset":8592,
			"target":34962
		},
		{
			"buffer":0,
			"byteLength":1344,
			"byteOffset":11456,
			"target":34963
		}
	],
	"samplers":[
		{
			"magFilter":9728,
			"minFilter":9984
		}
	],
	"buffers":[
		{
			"byteLength":12800,
			"uri":"kitchen_item_863x09.bin"
		}
	]
}
