{
	"asset":{
		"generator":"Khronos glTF Blender I/O v4.4.55",
		"version":"2.0"
	},
	"scene":0,
	"scenes":[
		{
			"name":"Scene",
			"nodes":[
				0
			]
		}
	],
	"nodes":[
		{
			"mesh":0,
			"name":"Cylinder"
		}
	],
	"materials":[
		{
			"doubleSided":true,
			"name":"Material",
			"pbrMetallicRoughness":{
				"baseColorTexture":{
					"index":0
				},
				"metallicFactor":0,
				"roughnessFactor":0.5
			}
		},
		{
			"alphaMode":"BLEND",
			"doubleSided":true,
			"name":"glass",
			"pbrMetallicRoughness":{
				"baseColorFactor":[
					0.5776304006576538,
					0.471749871969223,
					0.8572670221328735,
					0.37272727489471436
				],
				"metallicFactor":0,
				"roughnessFactor":0.5
			}
		}
	],
	"meshes":[
		{
			"name":"Cylinder",
			"primitives":[
				{
					"attributes":{
						"POSITION":0,
						"NORMAL":1,
						"TEXCOORD_0":2,
						"TANGENT":3
					},
					"indices":4,
					"material":0
				},
				{
					"attributes":{
						"POSITION":5,
						"NORMAL":6,
						"TEXCOORD_0":7,
						"TANGENT":8
					},
					"indices":9,
					"material":1
				}
			]
		}
	],
	"textures":[
		{
			"sampler":0,
			"source":0
		}
	],
	"images":[
		{
			"mimeType":"image/png",
			"name":"889lamp_post",
			"uri":"889lamp_post.png"
		}
	],
	"accessors":[
		{
			"bufferView":0,
			"componentType":5126,
			"count":533,
			"max":[
				1.3838614225387573,
				6.947691917419434,
				0.8015575408935547
			],
			"min":[
				-1.3787841796875,
				-0.0017580986022949219,
				-0.8015575408935547
			],
			"type":"VEC3"
		},
		{
			"bufferView":1,
			"componentType":5126,
			"count":533,
			"type":"VEC3"
		},
		{
			"bufferView":2,
			"componentType":5126,
			"count":533,
			"type":"VEC2"
		},
		{
			"bufferView":3,
			"componentType":5126,
			"count":533,
			"type":"VEC4"
		},
		{
			"bufferView":4,
			"componentType":5123,
			"count":942,
			"type":"SCALAR"
		},
		{
			"bufferView":5,
			"componentType":5126,
			"count":32,
			"max":[
				0.671029806137085,
				6.231889247894287,
				0.6728137731552124
			],
			"min":[
				-0.6708596348762512,
				5.120888710021973,
				-0.6704915165901184
			],
			"type":"VEC3"
		},
		{
			"bufferView":6,
			"componentType":5126,
			"count":32,
			"type":"VEC3"
		},
		{
			"bufferView":7,
			"componentType":5126,
			"count":32,
			"type":"VEC2"
		},
		{
			"bufferView":8,
			"componentType":5126,
			"count":32,
			"type":"VEC4"
		},
		{
			"bufferView":9,
			"componentType":5123,
			"count":48,
			"type":"SCALAR"
		}
	],
	"bufferViews":[
		{
			"buffer":0,
			"byteLength":6396,
			"byteOffset":0,
			"target":34962
		},
		{
			"buffer":0,
			"byteLength":6396,
			"byteOffset":6396,
			"target":34962
		},
		{
			"buffer":0,
			"byteLength":4264,
			"byteOffset":12792,
			"target":34962
		},
		{
			"buffer":0,
			"byteLength":8528,
			"byteOffset":17056,
			"target":34962
		},
		{
			"buffer":0,
			"byteLength":1884,
			"byteOffset":25584,
			"target":34963
		},
		{
			"buffer":0,
			"byteLength":384,
			"byteOffset":27468,
			"target":34962
		},
		{
			"buffer":0,
			"byteLength":384,
			"byteOffset":27852,
			"target":34962
		},
		{
			"buffer":0,
			"byteLength":256,
			"byteOffset":28236,
			"target":34962
		},
		{
			"buffer":0,
			"byteLength":512,
			"byteOffset":28492,
			"target":34962
		},
		{
			"buffer":0,
			"byteLength":96,
			"byteOffset":29004,
			"target":34963
		}
	],
	"samplers":[
		{
			"magFilter":9728,
			"minFilter":9984
		}
	],
	"buffers":[
		{
			"byteLength":29100,
			"uri":"lamp_post_889x00.bin"
		}
	]
}
