{
	"asset":{
		"generator":"Khronos glTF Blender I/O v4.4.55",
		"version":"2.0"
	},
	"scene":0,
	"scenes":[
		{
			"name":"Scene",
			"nodes":[
				0,
				1
			]
		}
	],
	"nodes":[
		{
			"mesh":0,
			"name":"lamp_post_889x04",
			"rotation":[
				0,
				0.7071068286895752,
				0,
				0.7071068286895752
			]
		},
		{
			"mesh":1,
			"name":"leaves",
			"rotation":[
				0,
				-0.7127253413200378,
				0,
				0.7014433145523071
			]
		}
	],
	"materials":[
		{
			"doubleSided":true,
			"name":"Material.001",
			"pbrMetallicRoughness":{
				"baseColorTexture":{
					"index":0
				},
				"metallicFactor":0,
				"roughnessFactor":0.5
			}
		},
		{
			"alphaMode":"BLEND",
			"doubleSided":true,
			"name":"glass",
			"pbrMetallicRoughness":{
				"baseColorFactor":[
					0.19056212902069092,
					0.365405410528183,
					0.8573880791664124,
					0.37272727489471436
				],
				"metallicFactor":0,
				"roughnessFactor":0.5
			}
		}
	],
	"meshes":[
		{
			"name":"Cylinder.004",
			"primitives":[
				{
					"attributes":{
						"POSITION":0,
						"NORMAL":1,
						"TEXCOORD_0":2,
						"TANGENT":3
					},
					"indices":4,
					"material":0
				},
				{
					"attributes":{
						"POSITION":5,
						"NORMAL":6,
						"TEXCOORD_0":7,
						"TANGENT":8
					},
					"indices":9,
					"material":1
				}
			]
		},
		{
			"name":"Plane.043",
			"primitives":[
				{
					"attributes":{
						"POSITION":10,
						"NORMAL":11,
						"TEXCOORD_0":12,
						"TANGENT":13
					},
					"indices":14,
					"material":0
				}
			]
		}
	],
	"textures":[
		{
			"sampler":0,
			"source":0
		}
	],
	"images":[
		{
			"mimeType":"image/png",
			"name":"889lamp_post",
			"uri":"889lamp_post.png"
		}
	],
	"accessors":[
		{
			"bufferView":0,
			"componentType":5126,
			"count":480,
			"max":[
				1,
				7.352185249328613,
				0.9935188293457031
			],
			"min":[
				-1,
				-0.0017580986022949219,
				-1.0064811706542969
			],
			"type":"VEC3"
		},
		{
			"bufferView":1,
			"componentType":5126,
			"count":480,
			"type":"VEC3"
		},
		{
			"bufferView":2,
			"componentType":5126,
			"count":480,
			"type":"VEC2"
		},
		{
			"bufferView":3,
			"componentType":5126,
			"count":480,
			"type":"VEC4"
		},
		{
			"bufferView":4,
			"componentType":5123,
			"count":828,
			"type":"SCALAR"
		},
		{
			"bufferView":5,
			"componentType":5126,
			"count":16,
			"max":[
				0.8422233462333679,
				6.601629257202148,
				0.8679825067520142
			],
			"min":[
				-0.8170471787452698,
				4.876993179321289,
				-0.8819911479949951
			],
			"type":"VEC3"
		},
		{
			"bufferView":6,
			"componentType":5126,
			"count":16,
			"type":"VEC3"
		},
		{
			"bufferView":7,
			"componentType":5126,
			"count":16,
			"type":"VEC2"
		},
		{
			"bufferView":8,
			"componentType":5126,
			"count":16,
			"type":"VEC4"
		},
		{
			"bufferView":9,
			"componentType":5123,
			"count":24,
			"type":"SCALAR"
		},
		{
			"bufferView":10,
			"componentType":5126,
			"count":5336,
			"max":[
				0.6512521505355835,
				4.821130752563477,
				0.7268410921096802
			],
			"min":[
				-0.7863220572471619,
				-0.06311178207397461,
				-0.7152584791183472
			],
			"type":"VEC3"
		},
		{
			"bufferView":11,
			"componentType":5126,
			"count":5336,
			"type":"VEC3"
		},
		{
			"bufferView":12,
			"componentType":5126,
			"count":5336,
			"type":"VEC2"
		},
		{
			"bufferView":13,
			"componentType":5126,
			"count":5336,
			"type":"VEC4"
		},
		{
			"bufferView":14,
			"componentType":5123,
			"count":8004,
			"type":"SCALAR"
		}
	],
	"bufferViews":[
		{
			"buffer":0,
			"byteLength":5760,
			"byteOffset":0,
			"target":34962
		},
		{
			"buffer":0,
			"byteLength":5760,
			"byteOffset":5760,
			"target":34962
		},
		{
			"buffer":0,
			"byteLength":3840,
			"byteOffset":11520,
			"target":34962
		},
		{
			"buffer":0,
			"byteLength":7680,
			"byteOffset":15360,
			"target":34962
		},
		{
			"buffer":0,
			"byteLength":1656,
			"byteOffset":23040,
			"target":34963
		},
		{
			"buffer":0,
			"byteLength":192,
			"byteOffset":24696,
			"target":34962
		},
		{
			"buffer":0,
			"byteLength":192,
			"byteOffset":24888,
			"target":34962
		},
		{
			"buffer":0,
			"byteLength":128,
			"byteOffset":25080,
			"target":34962
		},
		{
			"buffer":0,
			"byteLength":256,
			"byteOffset":25208,
			"target":34962
		},
		{
			"buffer":0,
			"byteLength":48,
			"byteOffset":25464,
			"target":34963
		},
		{
			"buffer":0,
			"byteLength":64032,
			"byteOffset":25512,
			"target":34962
		},
		{
			"buffer":0,
			"byteLength":64032,
			"byteOffset":89544,
			"target":34962
		},
		{
			"buffer":0,
			"byteLength":42688,
			"byteOffset":153576,
			"target":34962
		},
		{
			"buffer":0,
			"byteLength":85376,
			"byteOffset":196264,
			"target":34962
		},
		{
			"buffer":0,
			"byteLength":16008,
			"byteOffset":281640,
			"target":34963
		}
	],
	"samplers":[
		{
			"magFilter":9728,
			"minFilter":9984
		}
	],
	"buffers":[
		{
			"byteLength":297648,
			"uri":"lamp_post_889x04.bin"
		}
	]
}
