{
	"asset":{
		"generator":"Khronos glTF Blender I/O v4.4.55",
		"version":"2.0"
	},
	"scene":0,
	"scenes":[
		{
			"name":"Scene",
			"nodes":[
				0,
				1,
				6
			]
		}
	],
	"nodes":[
		{
			"mesh":0,
			"name":"lamp_post_889x02",
			"rotation":[
				0,
				0.7071068286895752,
				0,
				0.7071068286895752
			]
		},
		{
			"mesh":1,
			"name":"leaves",
			"rotation":[
				0,
				-0.7127253413200378,
				0,
				0.7014433145523071
			]
		},
		{
			"name":"Bone"
		},
		{
			"name":"Bone1"
		},
		{
			"mesh":2,
			"name":"Plane1",
			"skin":0
		},
		{
			"mesh":3,
			"name":"reference",
			"skin":0
		},
		{
			"children":[
				4,
				5,
				2,
				3
			],
			"name":"Armature"
		}
	],
	"animations":[
		{
			"channels":[
				{
					"sampler":0,
					"target":{
						"node":2,
						"path":"translation"
					}
				},
				{
					"sampler":1,
					"target":{
						"node":2,
						"path":"rotation"
					}
				},
				{
					"sampler":2,
					"target":{
						"node":2,
						"path":"scale"
					}
				},
				{
					"sampler":3,
					"target":{
						"node":3,
						"path":"translation"
					}
				},
				{
					"sampler":4,
					"target":{
						"node":3,
						"path":"rotation"
					}
				},
				{
					"sampler":5,
					"target":{
						"node":3,
						"path":"scale"
					}
				}
			],
			"name":"idle",
			"samplers":[
				{
					"input":30,
					"interpolation":"LINEAR",
					"output":31
				},
				{
					"input":30,
					"interpolation":"LINEAR",
					"output":32
				},
				{
					"input":30,
					"interpolation":"LINEAR",
					"output":33
				},
				{
					"input":30,
					"interpolation":"LINEAR",
					"output":34
				},
				{
					"input":30,
					"interpolation":"LINEAR",
					"output":35
				},
				{
					"input":30,
					"interpolation":"LINEAR",
					"output":36
				}
			]
		}
	],
	"materials":[
		{
			"doubleSided":true,
			"name":"Material.001",
			"pbrMetallicRoughness":{
				"baseColorTexture":{
					"index":0
				},
				"metallicFactor":0,
				"roughnessFactor":0.5
			}
		},
		{
			"alphaMode":"BLEND",
			"doubleSided":true,
			"name":"glass",
			"pbrMetallicRoughness":{
				"baseColorFactor":[
					0.19056212902069092,
					0.365405410528183,
					0.8573880791664124,
					0.37272727489471436
				],
				"metallicFactor":0,
				"roughnessFactor":0.5
			}
		},
		{
			"alphaMode":"BLEND",
			"doubleSided":true,
			"name":"Material",
			"pbrMetallicRoughness":{
				"baseColorTexture":{
					"index":1
				},
				"metallicFactor":0,
				"roughnessFactor":0.5
			}
		}
	],
	"meshes":[
		{
			"name":"Cylinder.003",
			"primitives":[
				{
					"attributes":{
						"POSITION":0,
						"NORMAL":1,
						"TEXCOORD_0":2,
						"TANGENT":3
					},
					"indices":4,
					"material":0
				},
				{
					"attributes":{
						"POSITION":5,
						"NORMAL":6,
						"TEXCOORD_0":7,
						"TANGENT":8
					},
					"indices":9,
					"material":1
				}
			]
		},
		{
			"name":"Plane.043",
			"primitives":[
				{
					"attributes":{
						"POSITION":10,
						"NORMAL":11,
						"TEXCOORD_0":12,
						"TANGENT":13
					},
					"indices":14,
					"material":0
				}
			]
		},
		{
			"name":"Plane.004",
			"primitives":[
				{
					"attributes":{
						"POSITION":15,
						"NORMAL":16,
						"TEXCOORD_0":17,
						"TANGENT":18,
						"JOINTS_0":19,
						"WEIGHTS_0":20
					},
					"indices":21,
					"material":2
				}
			]
		},
		{
			"name":"Cylinder",
			"primitives":[
				{
					"attributes":{
						"POSITION":23,
						"NORMAL":24,
						"TEXCOORD_0":25,
						"TANGENT":26,
						"JOINTS_0":27,
						"WEIGHTS_0":28
					},
					"indices":29,
					"material":0
				}
			]
		}
	],
	"textures":[
		{
			"sampler":0,
			"source":0
		},
		{
			"sampler":0,
			"source":1
		}
	],
	"images":[
		{
			"mimeType":"image/png",
			"name":"889lamp_post",
			"uri":"889lamp_post.png"
		},
		{
			"mimeType":"image/png",
			"name":"shape198_0",
			"uri":"shape198_0.png"
		}
	],
	"skins":[
		{
			"inverseBindMatrices":22,
			"joints":[
				2,
				3
			],
			"name":"Armature"
		}
	],
	"accessors":[
		{
			"bufferView":0,
			"componentType":5126,
			"count":468,
			"max":[
				1,
				7.44525671005249,
				0.9935188293457031
			],
			"min":[
				-1,
				-0.0017580986022949219,
				-1.0064811706542969
			],
			"type":"VEC3"
		},
		{
			"bufferView":1,
			"componentType":5126,
			"count":468,
			"type":"VEC3"
		},
		{
			"bufferView":2,
			"componentType":5126,
			"count":468,
			"type":"VEC2"
		},
		{
			"bufferView":3,
			"componentType":5126,
			"count":468,
			"type":"VEC4"
		},
		{
			"bufferView":4,
			"componentType":5123,
			"count":828,
			"type":"SCALAR"
		},
		{
			"bufferView":5,
			"componentType":5126,
			"count":16,
			"max":[
				0.8422233462333679,
				6.601629257202148,
				0.8679825067520142
			],
			"min":[
				-0.8170471787452698,
				4.876993179321289,
				-0.8819911479949951
			],
			"type":"VEC3"
		},
		{
			"bufferView":6,
			"componentType":5126,
			"count":16,
			"type":"VEC3"
		},
		{
			"bufferView":7,
			"componentType":5126,
			"count":16,
			"type":"VEC2"
		},
		{
			"bufferView":8,
			"componentType":5126,
			"count":16,
			"type":"VEC4"
		},
		{
			"bufferView":9,
			"componentType":5123,
			"count":24,
			"type":"SCALAR"
		},
		{
			"bufferView":10,
			"componentType":5126,
			"count":5336,
			"max":[
				0.6512521505355835,
				4.821130752563477,
				0.7268410921096802
			],
			"min":[
				-0.7863220572471619,
				-0.06311178207397461,
				-0.7152584791183472
			],
			"type":"VEC3"
		},
		{
			"bufferView":11,
			"componentType":5126,
			"count":5336,
			"type":"VEC3"
		},
		{
			"bufferView":12,
			"componentType":5126,
			"count":5336,
			"type":"VEC2"
		},
		{
			"bufferView":13,
			"componentType":5126,
			"count":5336,
			"type":"VEC4"
		},
		{
			"bufferView":14,
			"componentType":5123,
			"count":8004,
			"type":"SCALAR"
		},
		{
			"bufferView":15,
			"componentType":5126,
			"count":4,
			"max":[
				3.5,
				0.24597877264022827,
				2.0999999046325684
			],
			"min":[
				-3.5,
				0.24597877264022827,
				-4.900000095367432
			],
			"type":"VEC3"
		},
		{
			"bufferView":16,
			"componentType":5126,
			"count":4,
			"type":"VEC3"
		},
		{
			"bufferView":17,
			"componentType":5126,
			"count":4,
			"type":"VEC2"
		},
		{
			"bufferView":18,
			"componentType":5126,
			"count":4,
			"type":"VEC4"
		},
		{
			"bufferView":19,
			"componentType":5121,
			"count":4,
			"type":"VEC4"
		},
		{
			"bufferView":20,
			"componentType":5126,
			"count":4,
			"type":"VEC4"
		},
		{
			"bufferView":21,
			"componentType":5123,
			"count":6,
			"type":"SCALAR"
		},
		{
			"bufferView":22,
			"componentType":5126,
			"count":2,
			"type":"MAT4"
		},
		{
			"bufferView":23,
			"componentType":5126,
			"count":48,
			"max":[
				0.06726162135601044,
				0.230326309800148,
				0.0764351561665535
			],
			"min":[
				-0.06901860237121582,
				0.00037831184454262257,
				-0.08350921422243118
			],
			"type":"VEC3"
		},
		{
			"bufferView":24,
			"componentType":5126,
			"count":48,
			"type":"VEC3"
		},
		{
			"bufferView":25,
			"componentType":5126,
			"count":48,
			"type":"VEC2"
		},
		{
			"bufferView":26,
			"componentType":5126,
			"count":48,
			"type":"VEC4"
		},
		{
			"bufferView":27,
			"componentType":5121,
			"count":48,
			"type":"VEC4"
		},
		{
			"bufferView":28,
			"componentType":5126,
			"count":48,
			"type":"VEC4"
		},
		{
			"bufferView":29,
			"componentType":5123,
			"count":60,
			"type":"SCALAR"
		},
		{
			"bufferView":30,
			"componentType":5126,
			"count":21,
			"max":[
				0.8333333333333334
			],
			"min":[
				0
			],
			"type":"SCALAR"
		},
		{
			"bufferView":31,
			"componentType":5126,
			"count":21,
			"type":"VEC3"
		},
		{
			"bufferView":32,
			"componentType":5126,
			"count":21,
			"type":"VEC4"
		},
		{
			"bufferView":33,
			"componentType":5126,
			"count":21,
			"type":"VEC3"
		},
		{
			"bufferView":34,
			"componentType":5126,
			"count":21,
			"type":"VEC3"
		},
		{
			"bufferView":35,
			"componentType":5126,
			"count":21,
			"type":"VEC4"
		},
		{
			"bufferView":36,
			"componentType":5126,
			"count":21,
			"type":"VEC3"
		}
	],
	"bufferViews":[
		{
			"buffer":0,
			"byteLength":5616,
			"byteOffset":0,
			"target":34962
		},
		{
			"buffer":0,
			"byteLength":5616,
			"byteOffset":5616,
			"target":34962
		},
		{
			"buffer":0,
			"byteLength":3744,
			"byteOffset":11232,
			"target":34962
		},
		{
			"buffer":0,
			"byteLength":7488,
			"byteOffset":14976,
			"target":34962
		},
		{
			"buffer":0,
			"byteLength":1656,
			"byteOffset":22464,
			"target":34963
		},
		{
			"buffer":0,
			"byteLength":192,
			"byteOffset":24120,
			"target":34962
		},
		{
			"buffer":0,
			"byteLength":192,
			"byteOffset":24312,
			"target":34962
		},
		{
			"buffer":0,
			"byteLength":128,
			"byteOffset":24504,
			"target":34962
		},
		{
			"buffer":0,
			"byteLength":256,
			"byteOffset":24632,
			"target":34962
		},
		{
			"buffer":0,
			"byteLength":48,
			"byteOffset":24888,
			"target":34963
		},
		{
			"buffer":0,
			"byteLength":64032,
			"byteOffset":24936,
			"target":34962
		},
		{
			"buffer":0,
			"byteLength":64032,
			"byteOffset":88968,
			"target":34962
		},
		{
			"buffer":0,
			"byteLength":42688,
			"byteOffset":153000,
			"target":34962
		},
		{
			"buffer":0,
			"byteLength":85376,
			"byteOffset":195688,
			"target":34962
		},
		{
			"buffer":0,
			"byteLength":16008,
			"byteOffset":281064,
			"target":34963
		},
		{
			"buffer":0,
			"byteLength":48,
			"byteOffset":297072,
			"target":34962
		},
		{
			"buffer":0,
			"byteLength":48,
			"byteOffset":297120,
			"target":34962
		},
		{
			"buffer":0,
			"byteLength":32,
			"byteOffset":297168,
			"target":34962
		},
		{
			"buffer":0,
			"byteLength":64,
			"byteOffset":297200,
			"target":34962
		},
		{
			"buffer":0,
			"byteLength":16,
			"byteOffset":297264,
			"target":34962
		},
		{
			"buffer":0,
			"byteLength":64,
			"byteOffset":297280,
			"target":34962
		},
		{
			"buffer":0,
			"byteLength":12,
			"byteOffset":297344,
			"target":34963
		},
		{
			"buffer":0,
			"byteLength":128,
			"byteOffset":297356
		},
		{
			"buffer":0,
			"byteLength":576,
			"byteOffset":297484,
			"target":34962
		},
		{
			"buffer":0,
			"byteLength":576,
			"byteOffset":298060,
			"target":34962
		},
		{
			"buffer":0,
			"byteLength":384,
			"byteOffset":298636,
			"target":34962
		},
		{
			"buffer":0,
			"byteLength":768,
			"byteOffset":299020,
			"target":34962
		},
		{
			"buffer":0,
			"byteLength":192,
			"byteOffset":299788,
			"target":34962
		},
		{
			"buffer":0,
			"byteLength":768,
			"byteOffset":299980,
			"target":34962
		},
		{
			"buffer":0,
			"byteLength":120,
			"byteOffset":300748,
			"target":34963
		},
		{
			"buffer":0,
			"byteLength":84,
			"byteOffset":300868
		},
		{
			"buffer":0,
			"byteLength":252,
			"byteOffset":300952
		},
		{
			"buffer":0,
			"byteLength":336,
			"byteOffset":301204
		},
		{
			"buffer":0,
			"byteLength":252,
			"byteOffset":301540
		},
		{
			"buffer":0,
			"byteLength":252,
			"byteOffset":301792
		},
		{
			"buffer":0,
			"byteLength":336,
			"byteOffset":302044
		},
		{
			"buffer":0,
			"byteLength":252,
			"byteOffset":302380
		}
	],
	"samplers":[
		{
			"magFilter":9728,
			"minFilter":9984
		}
	],
	"buffers":[
		{
			"byteLength":302632,
			"uri":"lit_lamp_post_889x02.bin"
		}
	]
}
