{
	"asset":{
		"generator":"Khronos glTF Blender I/O v4.4.55",
		"version":"2.0"
	},
	"scene":0,
	"scenes":[
		{
			"name":"Scene",
			"nodes":[
				0
			]
		}
	],
	"nodes":[
		{
			"mesh":0,
			"name":"m_harp_745"
		}
	],
	"materials":[
		{
			"doubleSided":true,
			"name":"Material.003",
			"pbrMetallicRoughness":{
				"baseColorTexture":{
					"index":0
				},
				"metallicFactor":0,
				"roughnessFactor":0.5
			}
		}
	],
	"meshes":[
		{
			"name":"Cube.001",
			"primitives":[
				{
					"attributes":{
						"POSITION":0,
						"NORMAL":1,
						"TEXCOORD_0":2
					},
					"indices":3,
					"material":0
				}
			]
		}
	],
	"textures":[
		{
			"sampler":0,
			"source":0
		}
	],
	"images":[
		{
			"mimeType":"image/png",
			"name":"745harp",
			"uri":"745harp.png"
		}
	],
	"accessors":[
		{
			"bufferView":0,
			"componentType":5126,
			"count":2004,
			"max":[
				1.5256214141845703,
				3.0408215522766113,
				0.25278106331825256
			],
			"min":[
				-1.5640826225280762,
				0.0006487369537353516,
				-0.26298394799232483
			],
			"type":"VEC3"
		},
		{
			"bufferView":1,
			"componentType":5126,
			"count":2004,
			"type":"VEC3"
		},
		{
			"bufferView":2,
			"componentType":5126,
			"count":2004,
			"type":"VEC2"
		},
		{
			"bufferView":3,
			"componentType":5123,
			"count":5058,
			"type":"SCALAR"
		}
	],
	"bufferViews":[
		{
			"buffer":0,
			"byteLength":24048,
			"byteOffset":0,
			"target":34962
		},
		{
			"buffer":0,
			"byteLength":24048,
			"byteOffset":24048,
			"target":34962
		},
		{
			"buffer":0,
			"byteLength":16032,
			"byteOffset":48096,
			"target":34962
		},
		{
			"buffer":0,
			"byteLength":10116,
			"byteOffset":64128,
			"target":34963
		}
	],
	"samplers":[
		{
			"magFilter":9728,
			"minFilter":9984
		}
	],
	"buffers":[
		{
			"byteLength":74244,
			"uri":"m_harp_745.bin"
		}
	]
}
