{
	"asset":{
		"generator":"Khronos glTF Blender I/O v4.4.55",
		"version":"2.0"
	},
	"scene":0,
	"scenes":[
		{
			"name":"Scene",
			"nodes":[
				0
			]
		}
	],
	"nodes":[
		{
			"mesh":0,
			"name":"m_harpiscord_689"
		}
	],
	"materials":[
		{
			"doubleSided":true,
			"name":"Material.001",
			"pbrMetallicRoughness":{
				"baseColorTexture":{
					"index":0
				},
				"metallicFactor":0,
				"roughnessFactor":0.5
			}
		}
	],
	"meshes":[
		{
			"name":"Plane",
			"primitives":[
				{
					"attributes":{
						"POSITION":0,
						"NORMAL":1,
						"TEXCOORD_0":2
					},
					"indices":3,
					"material":0
				}
			]
		}
	],
	"textures":[
		{
			"sampler":0,
			"source":0
		}
	],
	"images":[
		{
			"mimeType":"image/png",
			"name":"689harpsichord",
			"uri":"689harpsichord.png"
		}
	],
	"accessors":[
		{
			"bufferView":0,
			"componentType":5126,
			"count":1160,
			"max":[
				1.4441338777542114,
				2.6784348487854004,
				1.3488545417785645
			],
			"min":[
				-1.7250969409942627,
				0.0021435022354125977,
				-1.9629319906234741
			],
			"type":"VEC3"
		},
		{
			"bufferView":1,
			"componentType":5126,
			"count":1160,
			"type":"VEC3"
		},
		{
			"bufferView":2,
			"componentType":5126,
			"count":1160,
			"type":"VEC2"
		},
		{
			"bufferView":3,
			"componentType":5123,
			"count":2808,
			"type":"SCALAR"
		}
	],
	"bufferViews":[
		{
			"buffer":0,
			"byteLength":13920,
			"byteOffset":0,
			"target":34962
		},
		{
			"buffer":0,
			"byteLength":13920,
			"byteOffset":13920,
			"target":34962
		},
		{
			"buffer":0,
			"byteLength":9280,
			"byteOffset":27840,
			"target":34962
		},
		{
			"buffer":0,
			"byteLength":5616,
			"byteOffset":37120,
			"target":34963
		}
	],
	"samplers":[
		{
			"magFilter":9728,
			"minFilter":9984
		}
	],
	"buffers":[
		{
			"byteLength":42736,
			"uri":"m_harpiscord_689.bin"
		}
	]
}
