{
	"asset":{
		"generator":"Khronos glTF Blender I/O v4.4.55",
		"version":"2.0"
	},
	"scene":0,
	"scenes":[
		{
			"name":"Scene",
			"nodes":[
				0
			]
		}
	],
	"nodes":[
		{
			"mesh":0,
			"name":"m_xylo_690"
		}
	],
	"materials":[
		{
			"doubleSided":true,
			"name":"Material",
			"pbrMetallicRoughness":{
				"baseColorTexture":{
					"index":0
				},
				"metallicFactor":0,
				"roughnessFactor":0.5
			}
		}
	],
	"meshes":[
		{
			"name":"Plane.001",
			"primitives":[
				{
					"attributes":{
						"POSITION":0,
						"NORMAL":1,
						"TEXCOORD_0":2
					},
					"indices":3,
					"material":0
				}
			]
		}
	],
	"textures":[
		{
			"sampler":0,
			"source":0
		}
	],
	"images":[
		{
			"mimeType":"image/png",
			"name":"690xylophone",
			"uri":"690xylophone.png"
		}
	],
	"accessors":[
		{
			"bufferView":0,
			"componentType":5126,
			"count":966,
			"max":[
				1.1049388647079468,
				1.294190764427185,
				0.4040446877479553
			],
			"min":[
				-1.0815625190734863,
				-0.0025006532669067383,
				-0.44996553659439087
			],
			"type":"VEC3"
		},
		{
			"bufferView":1,
			"componentType":5126,
			"count":966,
			"type":"VEC3"
		},
		{
			"bufferView":2,
			"componentType":5126,
			"count":966,
			"type":"VEC2"
		},
		{
			"bufferView":3,
			"componentType":5123,
			"count":2232,
			"type":"SCALAR"
		}
	],
	"bufferViews":[
		{
			"buffer":0,
			"byteLength":11592,
			"byteOffset":0,
			"target":34962
		},
		{
			"buffer":0,
			"byteLength":11592,
			"byteOffset":11592,
			"target":34962
		},
		{
			"buffer":0,
			"byteLength":7728,
			"byteOffset":23184,
			"target":34962
		},
		{
			"buffer":0,
			"byteLength":4464,
			"byteOffset":30912,
			"target":34963
		}
	],
	"samplers":[
		{
			"magFilter":9728,
			"minFilter":9984
		}
	],
	"buffers":[
		{
			"byteLength":35376,
			"uri":"m_xylo_690.bin"
		}
	]
}
