{
	"asset":{
		"generator":"Khronos glTF Blender I/O v4.4.55",
		"version":"2.0"
	},
	"scene":0,
	"scenes":[
		{
			"name":"Scene",
			"nodes":[
				0
			]
		}
	],
	"nodes":[
		{
			"mesh":0,
			"name":"mechanismx00"
		}
	],
	"materials":[
		{
			"doubleSided":true,
			"name":"Material.001",
			"pbrMetallicRoughness":{
				"baseColorTexture":{
					"index":0
				},
				"metallicFactor":0.3400000035762787,
				"roughnessFactor":0.25111109018325806
			}
		},
		{
			"doubleSided":true,
			"name":"Material.002",
			"pbrMetallicRoughness":{
				"baseColorTexture":{
					"index":1
				},
				"metallicFactor":0,
				"roughnessFactor":0.5
			}
		},
		{
			"doubleSided":true,
			"name":"Material.003",
			"pbrMetallicRoughness":{
				"baseColorTexture":{
					"index":2
				},
				"metallicFactor":0,
				"roughnessFactor":0.5
			}
		},
		{
			"doubleSided":true,
			"name":"Material.004",
			"pbrMetallicRoughness":{
				"baseColorTexture":{
					"index":3
				},
				"metallicFactor":0,
				"roughnessFactor":0.5
			}
		}
	],
	"meshes":[
		{
			"name":"Cylinder.013",
			"primitives":[
				{
					"attributes":{
						"POSITION":0,
						"NORMAL":1,
						"TEXCOORD_0":2
					},
					"indices":3,
					"material":0
				},
				{
					"attributes":{
						"POSITION":4,
						"NORMAL":5,
						"TEXCOORD_0":6
					},
					"indices":7,
					"material":1
				},
				{
					"attributes":{
						"POSITION":8,
						"NORMAL":9,
						"TEXCOORD_0":10
					},
					"indices":11,
					"material":2
				},
				{
					"attributes":{
						"POSITION":12,
						"NORMAL":13,
						"TEXCOORD_0":14
					},
					"indices":15,
					"material":3
				}
			]
		}
	],
	"textures":[
		{
			"sampler":0,
			"source":0
		},
		{
			"sampler":0,
			"source":0
		},
		{
			"sampler":0,
			"source":0
		},
		{
			"sampler":0,
			"source":0
		}
	],
	"images":[
		{
			"mimeType":"image/png",
			"name":"685mechanism",
			"uri":"685mechanism.png"
		}
	],
	"accessors":[
		{
			"bufferView":0,
			"componentType":5126,
			"count":2556,
			"max":[
				3.4223437309265137,
				2.4753074645996094,
				2.0833420753479004
			],
			"min":[
				-12.666687965393066,
				-2.3646926879882812,
				-2.2622194290161133
			],
			"type":"VEC3"
		},
		{
			"bufferView":1,
			"componentType":5126,
			"count":2556,
			"type":"VEC3"
		},
		{
			"bufferView":2,
			"componentType":5126,
			"count":2556,
			"type":"VEC2"
		},
		{
			"bufferView":3,
			"componentType":5123,
			"count":5718,
			"type":"SCALAR"
		},
		{
			"bufferView":4,
			"componentType":5126,
			"count":204,
			"max":[
				1.0788625478744507,
				0.6252583265304565,
				0.6263071298599243
			],
			"min":[
				-0.7198593616485596,
				-0.5147417187690735,
				-0.8425940275192261
			],
			"type":"VEC3"
		},
		{
			"bufferView":5,
			"componentType":5126,
			"count":204,
			"type":"VEC3"
		},
		{
			"bufferView":6,
			"componentType":5126,
			"count":204,
			"type":"VEC2"
		},
		{
			"bufferView":7,
			"componentType":5123,
			"count":606,
			"type":"SCALAR"
		},
		{
			"bufferView":8,
			"componentType":5126,
			"count":120,
			"max":[
				2.5147669315338135,
				0.6485905647277832,
				0.6263071298599243
			],
			"min":[
				1.2798532247543335,
				-0.5380740761756897,
				-0.8425940275192261
			],
			"type":"VEC3"
		},
		{
			"bufferView":9,
			"componentType":5126,
			"count":120,
			"type":"VEC3"
		},
		{
			"bufferView":10,
			"componentType":5126,
			"count":120,
			"type":"VEC2"
		},
		{
			"bufferView":11,
			"componentType":5123,
			"count":354,
			"type":"SCALAR"
		},
		{
			"bufferView":12,
			"componentType":5126,
			"count":136,
			"max":[
				3.670555830001831,
				2.2924911975860596,
				2.0168628692626953
			],
			"min":[
				0.8630261421203613,
				1.8127304315567017,
				1.5515692234039307
			],
			"type":"VEC3"
		},
		{
			"bufferView":13,
			"componentType":5126,
			"count":136,
			"type":"VEC3"
		},
		{
			"bufferView":14,
			"componentType":5126,
			"count":136,
			"type":"VEC2"
		},
		{
			"bufferView":15,
			"componentType":5123,
			"count":600,
			"type":"SCALAR"
		}
	],
	"bufferViews":[
		{
			"buffer":0,
			"byteLength":30672,
			"byteOffset":0,
			"target":34962
		},
		{
			"buffer":0,
			"byteLength":30672,
			"byteOffset":30672,
			"target":34962
		},
		{
			"buffer":0,
			"byteLength":20448,
			"byteOffset":61344,
			"target":34962
		},
		{
			"buffer":0,
			"byteLength":11436,
			"byteOffset":81792,
			"target":34963
		},
		{
			"buffer":0,
			"byteLength":2448,
			"byteOffset":93228,
			"target":34962
		},
		{
			"buffer":0,
			"byteLength":2448,
			"byteOffset":95676,
			"target":34962
		},
		{
			"buffer":0,
			"byteLength":1632,
			"byteOffset":98124,
			"target":34962
		},
		{
			"buffer":0,
			"byteLength":1212,
			"byteOffset":99756,
			"target":34963
		},
		{
			"buffer":0,
			"byteLength":1440,
			"byteOffset":100968,
			"target":34962
		},
		{
			"buffer":0,
			"byteLength":1440,
			"byteOffset":102408,
			"target":34962
		},
		{
			"buffer":0,
			"byteLength":960,
			"byteOffset":103848,
			"target":34962
		},
		{
			"buffer":0,
			"byteLength":708,
			"byteOffset":104808,
			"target":34963
		},
		{
			"buffer":0,
			"byteLength":1632,
			"byteOffset":105516,
			"target":34962
		},
		{
			"buffer":0,
			"byteLength":1632,
			"byteOffset":107148,
			"target":34962
		},
		{
			"buffer":0,
			"byteLength":1088,
			"byteOffset":108780,
			"target":34962
		},
		{
			"buffer":0,
			"byteLength":1200,
			"byteOffset":109868,
			"target":34963
		}
	],
	"samplers":[
		{
			"magFilter":9728,
			"minFilter":9984
		}
	],
	"buffers":[
		{
			"byteLength":111068,
			"uri":"mechanismx00.bin"
		}
	]
}
