{
	"asset":{
		"generator":"Khronos glTF Blender I/O v4.3.47",
		"version":"2.0"
	},
	"scene":0,
	"scenes":[
		{
			"name":"Scene",
			"nodes":[
				3
			]
		}
	],
	"nodes":[
		{
			"name":"rotor",
			"rotation":[
				-1.609662518831101e-07,
				-5.633792987680408e-09,
				0.7071067690849304,
				0.7071067690849304
			],
			"translation":[
				0,
				0.6000000238418579,
				-0.20000000298023224
			]
		},
		{
			"name":"inert",
			"rotation":[
				-8.557136332854043e-09,
				1.7114272665708086e-08,
				-2.928983286277023e-16,
				1
			]
		},
		{
			"mesh":0,
			"name":"Box",
			"skin":0
		},
		{
			"children":[
				2,
				0,
				1
			],
			"name":"Armature"
		}
	],
	"animations":[
		{
			"channels":[
				{
					"sampler":0,
					"target":{
						"node":0,
						"path":"translation"
					}
				},
				{
					"sampler":1,
					"target":{
						"node":0,
						"path":"rotation"
					}
				},
				{
					"sampler":2,
					"target":{
						"node":0,
						"path":"scale"
					}
				},
				{
					"sampler":3,
					"target":{
						"node":1,
						"path":"translation"
					}
				},
				{
					"sampler":4,
					"target":{
						"node":1,
						"path":"rotation"
					}
				},
				{
					"sampler":5,
					"target":{
						"node":1,
						"path":"scale"
					}
				}
			],
			"name":"idle",
			"samplers":[
				{
					"input":7,
					"interpolation":"LINEAR",
					"output":8
				},
				{
					"input":9,
					"interpolation":"LINEAR",
					"output":10
				},
				{
					"input":7,
					"interpolation":"LINEAR",
					"output":11
				},
				{
					"input":7,
					"interpolation":"LINEAR",
					"output":12
				},
				{
					"input":7,
					"interpolation":"LINEAR",
					"output":13
				},
				{
					"input":7,
					"interpolation":"LINEAR",
					"output":14
				}
			]
		}
	],
	"materials":[
		{
			"doubleSided":true,
			"name":"Material.001",
			"pbrMetallicRoughness":{
				"baseColorTexture":{
					"index":0
				},
				"metallicFactor":0,
				"roughnessFactor":0.5
			}
		}
	],
	"meshes":[
		{
			"name":"Cube.001",
			"primitives":[
				{
					"attributes":{
						"POSITION":0,
						"NORMAL":1,
						"TEXCOORD_0":2,
						"JOINTS_0":3,
						"WEIGHTS_0":4
					},
					"indices":5,
					"material":0
				}
			]
		}
	],
	"textures":[
		{
			"sampler":0,
			"source":0
		}
	],
	"images":[
		{
			"mimeType":"image/png",
			"name":"mill-stone",
			"uri":"mill_stone_711.png"
		}
	],
	"skins":[
		{
			"inverseBindMatrices":6,
			"joints":[
				0,
				1
			],
			"name":"Armature"
		}
	],
	"accessors":[
		{
			"bufferView":0,
			"componentType":5126,
			"count":433,
			"max":[
				0.699999988079071,
				0.8799999356269836,
				1
			],
			"min":[
				-0.699999988079071,
				0,
				-1
			],
			"type":"VEC3"
		},
		{
			"bufferView":1,
			"componentType":5126,
			"count":433,
			"type":"VEC3"
		},
		{
			"bufferView":2,
			"componentType":5126,
			"count":433,
			"type":"VEC2"
		},
		{
			"bufferView":3,
			"componentType":5121,
			"count":433,
			"type":"VEC4"
		},
		{
			"bufferView":4,
			"componentType":5126,
			"count":433,
			"type":"VEC4"
		},
		{
			"bufferView":5,
			"componentType":5123,
			"count":990,
			"type":"SCALAR"
		},
		{
			"bufferView":6,
			"componentType":5126,
			"count":2,
			"type":"MAT4"
		},
		{
			"bufferView":7,
			"componentType":5126,
			"count":2,
			"max":[
				9
			],
			"min":[
				0
			],
			"type":"SCALAR"
		},
		{
			"bufferView":8,
			"componentType":5126,
			"count":2,
			"type":"VEC3"
		},
		{
			"bufferView":9,
			"componentType":5126,
			"count":217,
			"max":[
				9
			],
			"min":[
				0
			],
			"type":"SCALAR"
		},
		{
			"bufferView":10,
			"componentType":5126,
			"count":217,
			"type":"VEC4"
		},
		{
			"bufferView":11,
			"componentType":5126,
			"count":2,
			"type":"VEC3"
		},
		{
			"bufferView":12,
			"componentType":5126,
			"count":2,
			"type":"VEC3"
		},
		{
			"bufferView":13,
			"componentType":5126,
			"count":2,
			"type":"VEC4"
		},
		{
			"bufferView":14,
			"componentType":5126,
			"count":2,
			"type":"VEC3"
		}
	],
	"bufferViews":[
		{
			"buffer":0,
			"byteLength":5196,
			"byteOffset":0,
			"target":34962
		},
		{
			"buffer":0,
			"byteLength":5196,
			"byteOffset":5196,
			"target":34962
		},
		{
			"buffer":0,
			"byteLength":3464,
			"byteOffset":10392,
			"target":34962
		},
		{
			"buffer":0,
			"byteLength":1732,
			"byteOffset":13856,
			"target":34962
		},
		{
			"buffer":0,
			"byteLength":6928,
			"byteOffset":15588,
			"target":34962
		},
		{
			"buffer":0,
			"byteLength":1980,
			"byteOffset":22516,
			"target":34963
		},
		{
			"buffer":0,
			"byteLength":128,
			"byteOffset":24496
		},
		{
			"buffer":0,
			"byteLength":8,
			"byteOffset":24624
		},
		{
			"buffer":0,
			"byteLength":24,
			"byteOffset":24632
		},
		{
			"buffer":0,
			"byteLength":868,
			"byteOffset":24656
		},
		{
			"buffer":0,
			"byteLength":3472,
			"byteOffset":25524
		},
		{
			"buffer":0,
			"byteLength":24,
			"byteOffset":28996
		},
		{
			"buffer":0,
			"byteLength":24,
			"byteOffset":29020
		},
		{
			"buffer":0,
			"byteLength":32,
			"byteOffset":29044
		},
		{
			"buffer":0,
			"byteLength":24,
			"byteOffset":29076
		}
	],
	"samplers":[
		{
			"magFilter":9729,
			"minFilter":9987
		}
	],
	"buffers":[
		{
			"byteLength":29100,
			"uri":"mill_stone_711x00.bin"
		}
	]
}
