{
	"asset":{
		"generator":"Khronos glTF Blender I/O v4.5.48",
		"version":"2.0"
	},
	"extensionsUsed":[
		"KHR_materials_specular"
	],
	"scene":0,
	"scenes":[
		{
			"name":"Scene",
			"nodes":[
				0
			]
		}
	],
	"nodes":[
		{
			"mesh":0,
			"name":"Mirror_00"
		}
	],
	"materials":[
		{
			"doubleSided":true,
			"extensions":{
				"KHR_materials_specular":{
					"specularFactor":0
				}
			},
			"name":"palette.001",
			"pbrMetallicRoughness":{
				"baseColorTexture":{
					"index":0
				},
				"metallicFactor":0
			}
		},
		{
			"doubleSided":true,
			"extensions":{
				"KHR_materials_specular":{
					"specularFactor":0
				}
			},
			"name":"palette.002",
			"pbrMetallicRoughness":{
				"baseColorTexture":{
					"index":1
				},
				"metallicFactor":0
			}
		}
	],
	"meshes":[
		{
			"name":"Untitled.017",
			"primitives":[
				{
					"attributes":{
						"POSITION":0,
						"NORMAL":1,
						"TEXCOORD_0":2
					},
					"indices":3,
					"material":0
				},
				{
					"attributes":{
						"POSITION":4,
						"NORMAL":5,
						"TEXCOORD_0":6
					},
					"indices":7,
					"material":1
				}
			]
		}
	],
	"textures":[
		{
			"sampler":0,
			"source":0
		},
		{
			"sampler":0,
			"source":0
		}
	],
	"images":[
		{
			"mimeType":"image/png",
			"name":"mirror_848_palette1",
			"uri":"mirror_848_palette1.png"
		}
	],
	"accessors":[
		{
			"bufferView":0,
			"componentType":5126,
			"count":2012,
			"max":[
				0.9486179351806641,
				4.954495906829834,
				0.30085405707359314
			],
			"min":[
				-0.951382040977478,
				0.004495618864893913,
				-0.2991461157798767
			],
			"type":"VEC3"
		},
		{
			"bufferView":1,
			"componentType":5126,
			"count":2012,
			"type":"VEC3"
		},
		{
			"bufferView":2,
			"componentType":5126,
			"count":2012,
			"type":"VEC2"
		},
		{
			"bufferView":3,
			"componentType":5123,
			"count":3612,
			"type":"SCALAR"
		},
		{
			"bufferView":4,
			"componentType":5126,
			"count":264,
			"max":[
				0.75,
				4.954495906829834,
				-0.19999992847442627
			],
			"min":[
				-0.75,
				0.5965506434440613,
				-0.24000006914138794
			],
			"type":"VEC3"
		},
		{
			"bufferView":5,
			"componentType":5126,
			"count":264,
			"type":"VEC3"
		},
		{
			"bufferView":6,
			"componentType":5126,
			"count":264,
			"type":"VEC2"
		},
		{
			"bufferView":7,
			"componentType":5123,
			"count":516,
			"type":"SCALAR"
		}
	],
	"bufferViews":[
		{
			"buffer":0,
			"byteLength":24144,
			"byteOffset":0,
			"target":34962
		},
		{
			"buffer":0,
			"byteLength":24144,
			"byteOffset":24144,
			"target":34962
		},
		{
			"buffer":0,
			"byteLength":16096,
			"byteOffset":48288,
			"target":34962
		},
		{
			"buffer":0,
			"byteLength":7224,
			"byteOffset":64384,
			"target":34963
		},
		{
			"buffer":0,
			"byteLength":3168,
			"byteOffset":71608,
			"target":34962
		},
		{
			"buffer":0,
			"byteLength":3168,
			"byteOffset":74776,
			"target":34962
		},
		{
			"buffer":0,
			"byteLength":2112,
			"byteOffset":77944,
			"target":34962
		},
		{
			"buffer":0,
			"byteLength":1032,
			"byteOffset":80056,
			"target":34963
		}
	],
	"samplers":[
		{
			"magFilter":9729,
			"minFilter":9987
		}
	],
	"buffers":[
		{
			"byteLength":81088,
			"uri":"mirror_848_00.bin"
		}
	]
}
