{
	"asset":{
		"generator":"Khronos glTF Blender I/O v4.5.48",
		"version":"2.0"
	},
	"extensionsUsed":[
		"KHR_materials_specular",
		"KHR_materials_ior"
	],
	"scene":0,
	"scenes":[
		{
			"name":"Scene",
			"nodes":[
				16,
				17
			]
		}
	],
	"nodes":[
		{
			"name":"Bone.001"
		},
		{
			"name":"Bone.002"
		},
		{
			"name":"Bone.003"
		},
		{
			"name":"Bone.004"
		},
		{
			"name":"Bone.005"
		},
		{
			"name":"Bone.006"
		},
		{
			"name":"Bone.007"
		},
		{
			"name":"Bone.008"
		},
		{
			"mesh":0,
			"name":"Glass.A",
			"skin":0
		},
		{
			"mesh":1,
			"name":"Glass.B",
			"skin":0
		},
		{
			"mesh":2,
			"name":"Glass.C",
			"skin":0
		},
		{
			"mesh":3,
			"name":"Glass.D",
			"skin":0
		},
		{
			"mesh":4,
			"name":"Glass.E",
			"skin":0
		},
		{
			"mesh":5,
			"name":"Glass.F",
			"skin":0
		},
		{
			"mesh":6,
			"name":"Glass.G",
			"skin":0
		},
		{
			"mesh":7,
			"name":"Glass.H",
			"skin":0
		},
		{
			"children":[
				8,
				9,
				10,
				11,
				12,
				13,
				14,
				15,
				0,
				1,
				2,
				3,
				4,
				5,
				6,
				7
			],
			"name":"Armature",
			"translation":[
				0,
				1.8484400510787964,
				-0.20000000298023224
			]
		},
		{
			"mesh":8,
			"name":"Mirror2"
		}
	],
	"animations":[
		{
			"channels":[
				{
					"sampler":0,
					"target":{
						"node":0,
						"path":"translation"
					}
				},
				{
					"sampler":1,
					"target":{
						"node":0,
						"path":"rotation"
					}
				},
				{
					"sampler":2,
					"target":{
						"node":0,
						"path":"scale"
					}
				},
				{
					"sampler":3,
					"target":{
						"node":1,
						"path":"translation"
					}
				},
				{
					"sampler":4,
					"target":{
						"node":1,
						"path":"rotation"
					}
				},
				{
					"sampler":5,
					"target":{
						"node":1,
						"path":"scale"
					}
				},
				{
					"sampler":6,
					"target":{
						"node":2,
						"path":"translation"
					}
				},
				{
					"sampler":7,
					"target":{
						"node":2,
						"path":"rotation"
					}
				},
				{
					"sampler":8,
					"target":{
						"node":2,
						"path":"scale"
					}
				},
				{
					"sampler":9,
					"target":{
						"node":3,
						"path":"translation"
					}
				},
				{
					"sampler":10,
					"target":{
						"node":3,
						"path":"rotation"
					}
				},
				{
					"sampler":11,
					"target":{
						"node":3,
						"path":"scale"
					}
				},
				{
					"sampler":12,
					"target":{
						"node":4,
						"path":"translation"
					}
				},
				{
					"sampler":13,
					"target":{
						"node":4,
						"path":"rotation"
					}
				},
				{
					"sampler":14,
					"target":{
						"node":4,
						"path":"scale"
					}
				},
				{
					"sampler":15,
					"target":{
						"node":5,
						"path":"translation"
					}
				},
				{
					"sampler":16,
					"target":{
						"node":5,
						"path":"rotation"
					}
				},
				{
					"sampler":17,
					"target":{
						"node":5,
						"path":"scale"
					}
				},
				{
					"sampler":18,
					"target":{
						"node":6,
						"path":"translation"
					}
				},
				{
					"sampler":19,
					"target":{
						"node":6,
						"path":"rotation"
					}
				},
				{
					"sampler":20,
					"target":{
						"node":6,
						"path":"scale"
					}
				},
				{
					"sampler":21,
					"target":{
						"node":7,
						"path":"translation"
					}
				},
				{
					"sampler":22,
					"target":{
						"node":7,
						"path":"rotation"
					}
				},
				{
					"sampler":23,
					"target":{
						"node":7,
						"path":"scale"
					}
				}
			],
			"name":"idle",
			"samplers":[
				{
					"input":53,
					"interpolation":"LINEAR",
					"output":54
				},
				{
					"input":53,
					"interpolation":"LINEAR",
					"output":55
				},
				{
					"input":53,
					"interpolation":"LINEAR",
					"output":56
				},
				{
					"input":53,
					"interpolation":"LINEAR",
					"output":57
				},
				{
					"input":53,
					"interpolation":"LINEAR",
					"output":55
				},
				{
					"input":53,
					"interpolation":"LINEAR",
					"output":56
				},
				{
					"input":53,
					"interpolation":"LINEAR",
					"output":58
				},
				{
					"input":53,
					"interpolation":"LINEAR",
					"output":55
				},
				{
					"input":53,
					"interpolation":"LINEAR",
					"output":56
				},
				{
					"input":53,
					"interpolation":"LINEAR",
					"output":59
				},
				{
					"input":53,
					"interpolation":"LINEAR",
					"output":55
				},
				{
					"input":53,
					"interpolation":"LINEAR",
					"output":56
				},
				{
					"input":53,
					"interpolation":"LINEAR",
					"output":60
				},
				{
					"input":53,
					"interpolation":"LINEAR",
					"output":55
				},
				{
					"input":53,
					"interpolation":"LINEAR",
					"output":56
				},
				{
					"input":53,
					"interpolation":"LINEAR",
					"output":61
				},
				{
					"input":53,
					"interpolation":"LINEAR",
					"output":55
				},
				{
					"input":53,
					"interpolation":"LINEAR",
					"output":56
				},
				{
					"input":53,
					"interpolation":"LINEAR",
					"output":62
				},
				{
					"input":53,
					"interpolation":"LINEAR",
					"output":55
				},
				{
					"input":53,
					"interpolation":"LINEAR",
					"output":56
				},
				{
					"input":53,
					"interpolation":"LINEAR",
					"output":63
				},
				{
					"input":53,
					"interpolation":"LINEAR",
					"output":55
				},
				{
					"input":53,
					"interpolation":"LINEAR",
					"output":56
				}
			]
		}
	],
	"materials":[
		{
			"doubleSided":true,
			"extensions":{
				"KHR_materials_specular":{
					"specularFactor":0
				}
			},
			"name":"palette.016",
			"pbrMetallicRoughness":{
				"baseColorTexture":{
					"index":0
				},
				"metallicFactor":0
			}
		},
		{
			"doubleSided":true,
			"extensions":{
				"KHR_materials_specular":{
					"specularFactor":0
				}
			},
			"name":"palette.015",
			"pbrMetallicRoughness":{
				"baseColorTexture":{
					"index":1
				},
				"metallicFactor":0
			}
		},
		{
			"doubleSided":true,
			"extensions":{
				"KHR_materials_specular":{
					"specularFactor":0
				}
			},
			"name":"palette.014",
			"pbrMetallicRoughness":{
				"baseColorTexture":{
					"index":2
				},
				"metallicFactor":0
			}
		},
		{
			"doubleSided":true,
			"extensions":{
				"KHR_materials_specular":{
					"specularFactor":0
				}
			},
			"name":"palette.013",
			"pbrMetallicRoughness":{
				"baseColorTexture":{
					"index":3
				},
				"metallicFactor":0
			}
		},
		{
			"doubleSided":true,
			"extensions":{
				"KHR_materials_specular":{
					"specularFactor":0
				}
			},
			"name":"palette.020",
			"pbrMetallicRoughness":{
				"baseColorTexture":{
					"index":4
				},
				"metallicFactor":0
			}
		},
		{
			"doubleSided":true,
			"extensions":{
				"KHR_materials_specular":{
					"specularFactor":0
				}
			},
			"name":"palette.019",
			"pbrMetallicRoughness":{
				"baseColorTexture":{
					"index":5
				},
				"metallicFactor":0
			}
		},
		{
			"doubleSided":true,
			"extensions":{
				"KHR_materials_specular":{
					"specularFactor":0
				}
			},
			"name":"palette.018",
			"pbrMetallicRoughness":{
				"baseColorTexture":{
					"index":6
				},
				"metallicFactor":0
			}
		},
		{
			"doubleSided":true,
			"extensions":{
				"KHR_materials_specular":{
					"specularFactor":0
				}
			},
			"name":"palette.017",
			"pbrMetallicRoughness":{
				"baseColorTexture":{
					"index":7
				},
				"metallicFactor":0
			}
		},
		{
			"doubleSided":true,
			"extensions":{
				"KHR_materials_specular":{
					"specularFactor":0
				},
				"KHR_materials_ior":{
					"ior":11.59999942779541
				}
			},
			"name":"palette.001",
			"pbrMetallicRoughness":{
				"baseColorTexture":{
					"index":8
				},
				"roughnessFactor":0.19108277559280396
			}
		}
	],
	"meshes":[
		{
			"name":"Untitled.029",
			"primitives":[
				{
					"attributes":{
						"POSITION":0,
						"NORMAL":1,
						"TEXCOORD_0":2,
						"JOINTS_0":3,
						"WEIGHTS_0":4
					},
					"indices":5,
					"material":0
				}
			]
		},
		{
			"name":"Untitled.028",
			"primitives":[
				{
					"attributes":{
						"POSITION":7,
						"NORMAL":8,
						"TEXCOORD_0":9,
						"JOINTS_0":10,
						"WEIGHTS_0":11
					},
					"indices":12,
					"material":1
				}
			]
		},
		{
			"name":"Untitled.035",
			"primitives":[
				{
					"attributes":{
						"POSITION":13,
						"NORMAL":14,
						"TEXCOORD_0":15,
						"JOINTS_0":16,
						"WEIGHTS_0":17
					},
					"indices":18,
					"material":2
				}
			]
		},
		{
			"name":"Untitled.034",
			"primitives":[
				{
					"attributes":{
						"POSITION":19,
						"NORMAL":20,
						"TEXCOORD_0":21,
						"JOINTS_0":22,
						"WEIGHTS_0":23
					},
					"indices":24,
					"material":3
				}
			]
		},
		{
			"name":"Untitled.033",
			"primitives":[
				{
					"attributes":{
						"POSITION":25,
						"NORMAL":26,
						"TEXCOORD_0":27,
						"JOINTS_0":28,
						"WEIGHTS_0":29
					},
					"indices":30,
					"material":4
				}
			]
		},
		{
			"name":"Untitled.032",
			"primitives":[
				{
					"attributes":{
						"POSITION":31,
						"NORMAL":32,
						"TEXCOORD_0":33,
						"JOINTS_0":34,
						"WEIGHTS_0":35
					},
					"indices":36,
					"material":5
				}
			]
		},
		{
			"name":"Untitled.031",
			"primitives":[
				{
					"attributes":{
						"POSITION":37,
						"NORMAL":38,
						"TEXCOORD_0":39,
						"JOINTS_0":40,
						"WEIGHTS_0":41
					},
					"indices":42,
					"material":6
				}
			]
		},
		{
			"name":"Untitled.030",
			"primitives":[
				{
					"attributes":{
						"POSITION":43,
						"NORMAL":44,
						"TEXCOORD_0":45,
						"JOINTS_0":46,
						"WEIGHTS_0":47
					},
					"indices":48,
					"material":7
				}
			]
		},
		{
			"name":"Untitled.004",
			"primitives":[
				{
					"attributes":{
						"POSITION":49,
						"NORMAL":50,
						"TEXCOORD_0":51
					},
					"indices":52,
					"material":8
				}
			]
		}
	],
	"textures":[
		{
			"sampler":0,
			"source":0
		},
		{
			"sampler":0,
			"source":0
		},
		{
			"sampler":0,
			"source":0
		},
		{
			"sampler":0,
			"source":0
		},
		{
			"sampler":0,
			"source":0
		},
		{
			"sampler":0,
			"source":0
		},
		{
			"sampler":0,
			"source":0
		},
		{
			"sampler":0,
			"source":0
		},
		{
			"sampler":0,
			"source":0
		}
	],
	"images":[
		{
			"mimeType":"image/png",
			"name":"mirror_848_palette2",
			"uri":"mirror_848_palette2.png"
		}
	],
	"skins":[
		{
			"inverseBindMatrices":6,
			"joints":[
				0,
				1,
				2,
				3,
				4,
				5,
				6,
				7
			],
			"name":"Armature"
		}
	],
	"accessors":[
		{
			"bufferView":0,
			"componentType":5126,
			"count":1140,
			"max":[
				0.6499999761581421,
				4.797659873962402,
				-0.3400000035762787
			],
			"min":[
				-0.6499999761581421,
				0.7476600408554077,
				-0.3800000846385956
			],
			"type":"VEC3"
		},
		{
			"bufferView":1,
			"componentType":5126,
			"count":1140,
			"type":"VEC3"
		},
		{
			"bufferView":2,
			"componentType":5126,
			"count":1140,
			"type":"VEC2"
		},
		{
			"bufferView":3,
			"componentType":5121,
			"count":1140,
			"type":"VEC4"
		},
		{
			"bufferView":4,
			"componentType":5126,
			"count":1140,
			"type":"VEC4"
		},
		{
			"bufferView":5,
			"componentType":5123,
			"count":2100,
			"type":"SCALAR"
		},
		{
			"bufferView":6,
			"componentType":5126,
			"count":8,
			"type":"MAT4"
		},
		{
			"bufferView":7,
			"componentType":5126,
			"count":1140,
			"max":[
				0.6499999761581421,
				4.797659873962402,
				-0.3499999940395355
			],
			"min":[
				-0.6499999761581421,
				0.7476600408554077,
				-0.3900000751018524
			],
			"type":"VEC3"
		},
		{
			"bufferView":8,
			"componentType":5126,
			"count":1140,
			"type":"VEC3"
		},
		{
			"bufferView":9,
			"componentType":5126,
			"count":1140,
			"type":"VEC2"
		},
		{
			"bufferView":10,
			"componentType":5121,
			"count":1140,
			"type":"VEC4"
		},
		{
			"bufferView":11,
			"componentType":5126,
			"count":1140,
			"type":"VEC4"
		},
		{
			"bufferView":12,
			"componentType":5123,
			"count":2100,
			"type":"SCALAR"
		},
		{
			"bufferView":13,
			"componentType":5126,
			"count":1140,
			"max":[
				0.6499999761581421,
				4.797659873962402,
				-0.3499999940395355
			],
			"min":[
				-0.6499999761581421,
				0.7476600408554077,
				-0.3900000751018524
			],
			"type":"VEC3"
		},
		{
			"bufferView":14,
			"componentType":5126,
			"count":1140,
			"type":"VEC3"
		},
		{
			"bufferView":15,
			"componentType":5126,
			"count":1140,
			"type":"VEC2"
		},
		{
			"bufferView":16,
			"componentType":5121,
			"count":1140,
			"type":"VEC4"
		},
		{
			"bufferView":17,
			"componentType":5126,
			"count":1140,
			"type":"VEC4"
		},
		{
			"bufferView":18,
			"componentType":5123,
			"count":2100,
			"type":"SCALAR"
		},
		{
			"bufferView":19,
			"componentType":5126,
			"count":1140,
			"max":[
				0.6499999761581421,
				4.797659873962402,
				-0.3499999940395355
			],
			"min":[
				-0.6499999761581421,
				0.7476600408554077,
				-0.3900000751018524
			],
			"type":"VEC3"
		},
		{
			"bufferView":20,
			"componentType":5126,
			"count":1140,
			"type":"VEC3"
		},
		{
			"bufferView":21,
			"componentType":5126,
			"count":1140,
			"type":"VEC2"
		},
		{
			"bufferView":22,
			"componentType":5121,
			"count":1140,
			"type":"VEC4"
		},
		{
			"bufferView":23,
			"componentType":5126,
			"count":1140,
			"type":"VEC4"
		},
		{
			"bufferView":24,
			"componentType":5123,
			"count":2100,
			"type":"SCALAR"
		},
		{
			"bufferView":25,
			"componentType":5126,
			"count":1140,
			"max":[
				0.6499999761581421,
				4.797659873962402,
				-0.3499999940395355
			],
			"min":[
				-0.6499999761581421,
				0.7476600408554077,
				-0.3900000751018524
			],
			"type":"VEC3"
		},
		{
			"bufferView":26,
			"componentType":5126,
			"count":1140,
			"type":"VEC3"
		},
		{
			"bufferView":27,
			"componentType":5126,
			"count":1140,
			"type":"VEC2"
		},
		{
			"bufferView":28,
			"componentType":5121,
			"count":1140,
			"type":"VEC4"
		},
		{
			"bufferView":29,
			"componentType":5126,
			"count":1140,
			"type":"VEC4"
		},
		{
			"bufferView":30,
			"componentType":5123,
			"count":2100,
			"type":"SCALAR"
		},
		{
			"bufferView":31,
			"componentType":5126,
			"count":1140,
			"max":[
				0.6499999761581421,
				4.797659873962402,
				-0.3499999940395355
			],
			"min":[
				-0.6499999761581421,
				0.7476600408554077,
				-0.3900000751018524
			],
			"type":"VEC3"
		},
		{
			"bufferView":32,
			"componentType":5126,
			"count":1140,
			"type":"VEC3"
		},
		{
			"bufferView":33,
			"componentType":5126,
			"count":1140,
			"type":"VEC2"
		},
		{
			"bufferView":34,
			"componentType":5121,
			"count":1140,
			"type":"VEC4"
		},
		{
			"bufferView":35,
			"componentType":5126,
			"count":1140,
			"type":"VEC4"
		},
		{
			"bufferView":36,
			"componentType":5123,
			"count":2100,
			"type":"SCALAR"
		},
		{
			"bufferView":37,
			"componentType":5126,
			"count":1140,
			"max":[
				0.6499999761581421,
				4.797659873962402,
				-0.3499999940395355
			],
			"min":[
				-0.6499999761581421,
				0.7476600408554077,
				-0.3900000751018524
			],
			"type":"VEC3"
		},
		{
			"bufferView":38,
			"componentType":5126,
			"count":1140,
			"type":"VEC3"
		},
		{
			"bufferView":39,
			"componentType":5126,
			"count":1140,
			"type":"VEC2"
		},
		{
			"bufferView":40,
			"componentType":5121,
			"count":1140,
			"type":"VEC4"
		},
		{
			"bufferView":41,
			"componentType":5126,
			"count":1140,
			"type":"VEC4"
		},
		{
			"bufferView":42,
			"componentType":5123,
			"count":2100,
			"type":"SCALAR"
		},
		{
			"bufferView":43,
			"componentType":5126,
			"count":1140,
			"max":[
				0.6499999761581421,
				4.797659873962402,
				-0.3499999940395355
			],
			"min":[
				-0.6499999761581421,
				0.7476600408554077,
				-0.3900000751018524
			],
			"type":"VEC3"
		},
		{
			"bufferView":44,
			"componentType":5126,
			"count":1140,
			"type":"VEC3"
		},
		{
			"bufferView":45,
			"componentType":5126,
			"count":1140,
			"type":"VEC2"
		},
		{
			"bufferView":46,
			"componentType":5121,
			"count":1140,
			"type":"VEC4"
		},
		{
			"bufferView":47,
			"componentType":5126,
			"count":1140,
			"type":"VEC4"
		},
		{
			"bufferView":48,
			"componentType":5123,
			"count":2100,
			"type":"SCALAR"
		},
		{
			"bufferView":49,
			"componentType":5126,
			"count":1649,
			"max":[
				0.95416659116745,
				4.950000286102295,
				0.09999993443489075
			],
			"min":[
				-0.9458332657814026,
				0,
				-0.5000001192092896
			],
			"type":"VEC3"
		},
		{
			"bufferView":50,
			"componentType":5126,
			"count":1649,
			"type":"VEC3"
		},
		{
			"bufferView":51,
			"componentType":5126,
			"count":1649,
			"type":"VEC2"
		},
		{
			"bufferView":52,
			"componentType":5123,
			"count":2790,
			"type":"SCALAR"
		},
		{
			"bufferView":53,
			"componentType":5126,
			"count":50,
			"max":[
				0.8166666666666667
			],
			"min":[
				0
			],
			"type":"SCALAR"
		},
		{
			"bufferView":54,
			"componentType":5126,
			"count":50,
			"type":"VEC3"
		},
		{
			"bufferView":55,
			"componentType":5126,
			"count":50,
			"type":"VEC4"
		},
		{
			"bufferView":56,
			"componentType":5126,
			"count":50,
			"type":"VEC3"
		},
		{
			"bufferView":57,
			"componentType":5126,
			"count":50,
			"type":"VEC3"
		},
		{
			"bufferView":58,
			"componentType":5126,
			"count":50,
			"type":"VEC3"
		},
		{
			"bufferView":59,
			"componentType":5126,
			"count":50,
			"type":"VEC3"
		},
		{
			"bufferView":60,
			"componentType":5126,
			"count":50,
			"type":"VEC3"
		},
		{
			"bufferView":61,
			"componentType":5126,
			"count":50,
			"type":"VEC3"
		},
		{
			"bufferView":62,
			"componentType":5126,
			"count":50,
			"type":"VEC3"
		},
		{
			"bufferView":63,
			"componentType":5126,
			"count":50,
			"type":"VEC3"
		}
	],
	"bufferViews":[
		{
			"buffer":0,
			"byteLength":13680,
			"byteOffset":0,
			"target":34962
		},
		{
			"buffer":0,
			"byteLength":13680,
			"byteOffset":13680,
			"target":34962
		},
		{
			"buffer":0,
			"byteLength":9120,
			"byteOffset":27360,
			"target":34962
		},
		{
			"buffer":0,
			"byteLength":4560,
			"byteOffset":36480,
			"target":34962
		},
		{
			"buffer":0,
			"byteLength":18240,
			"byteOffset":41040,
			"target":34962
		},
		{
			"buffer":0,
			"byteLength":4200,
			"byteOffset":59280,
			"target":34963
		},
		{
			"buffer":0,
			"byteLength":512,
			"byteOffset":63480
		},
		{
			"buffer":0,
			"byteLength":13680,
			"byteOffset":63992,
			"target":34962
		},
		{
			"buffer":0,
			"byteLength":13680,
			"byteOffset":77672,
			"target":34962
		},
		{
			"buffer":0,
			"byteLength":9120,
			"byteOffset":91352,
			"target":34962
		},
		{
			"buffer":0,
			"byteLength":4560,
			"byteOffset":100472,
			"target":34962
		},
		{
			"buffer":0,
			"byteLength":18240,
			"byteOffset":105032,
			"target":34962
		},
		{
			"buffer":0,
			"byteLength":4200,
			"byteOffset":123272,
			"target":34963
		},
		{
			"buffer":0,
			"byteLength":13680,
			"byteOffset":127472,
			"target":34962
		},
		{
			"buffer":0,
			"byteLength":13680,
			"byteOffset":141152,
			"target":34962
		},
		{
			"buffer":0,
			"byteLength":9120,
			"byteOffset":154832,
			"target":34962
		},
		{
			"buffer":0,
			"byteLength":4560,
			"byteOffset":163952,
			"target":34962
		},
		{
			"buffer":0,
			"byteLength":18240,
			"byteOffset":168512,
			"target":34962
		},
		{
			"buffer":0,
			"byteLength":4200,
			"byteOffset":186752,
			"target":34963
		},
		{
			"buffer":0,
			"byteLength":13680,
			"byteOffset":190952,
			"target":34962
		},
		{
			"buffer":0,
			"byteLength":13680,
			"byteOffset":204632,
			"target":34962
		},
		{
			"buffer":0,
			"byteLength":9120,
			"byteOffset":218312,
			"target":34962
		},
		{
			"buffer":0,
			"byteLength":4560,
			"byteOffset":227432,
			"target":34962
		},
		{
			"buffer":0,
			"byteLength":18240,
			"byteOffset":231992,
			"target":34962
		},
		{
			"buffer":0,
			"byteLength":4200,
			"byteOffset":250232,
			"target":34963
		},
		{
			"buffer":0,
			"byteLength":13680,
			"byteOffset":254432,
			"target":34962
		},
		{
			"buffer":0,
			"byteLength":13680,
			"byteOffset":268112,
			"target":34962
		},
		{
			"buffer":0,
			"byteLength":9120,
			"byteOffset":281792,
			"target":34962
		},
		{
			"buffer":0,
			"byteLength":4560,
			"byteOffset":290912,
			"target":34962
		},
		{
			"buffer":0,
			"byteLength":18240,
			"byteOffset":295472,
			"target":34962
		},
		{
			"buffer":0,
			"byteLength":4200,
			"byteOffset":313712,
			"target":34963
		},
		{
			"buffer":0,
			"byteLength":13680,
			"byteOffset":317912,
			"target":34962
		},
		{
			"buffer":0,
			"byteLength":13680,
			"byteOffset":331592,
			"target":34962
		},
		{
			"buffer":0,
			"byteLength":9120,
			"byteOffset":345272,
			"target":34962
		},
		{
			"buffer":0,
			"byteLength":4560,
			"byteOffset":354392,
			"target":34962
		},
		{
			"buffer":0,
			"byteLength":18240,
			"byteOffset":358952,
			"target":34962
		},
		{
			"buffer":0,
			"byteLength":4200,
			"byteOffset":377192,
			"target":34963
		},
		{
			"buffer":0,
			"byteLength":13680,
			"byteOffset":381392,
			"target":34962
		},
		{
			"buffer":0,
			"byteLength":13680,
			"byteOffset":395072,
			"target":34962
		},
		{
			"buffer":0,
			"byteLength":9120,
			"byteOffset":408752,
			"target":34962
		},
		{
			"buffer":0,
			"byteLength":4560,
			"byteOffset":417872,
			"target":34962
		},
		{
			"buffer":0,
			"byteLength":18240,
			"byteOffset":422432,
			"target":34962
		},
		{
			"buffer":0,
			"byteLength":4200,
			"byteOffset":440672,
			"target":34963
		},
		{
			"buffer":0,
			"byteLength":13680,
			"byteOffset":444872,
			"target":34962
		},
		{
			"buffer":0,
			"byteLength":13680,
			"byteOffset":458552,
			"target":34962
		},
		{
			"buffer":0,
			"byteLength":9120,
			"byteOffset":472232,
			"target":34962
		},
		{
			"buffer":0,
			"byteLength":4560,
			"byteOffset":481352,
			"target":34962
		},
		{
			"buffer":0,
			"byteLength":18240,
			"byteOffset":485912,
			"target":34962
		},
		{
			"buffer":0,
			"byteLength":4200,
			"byteOffset":504152,
			"target":34963
		},
		{
			"buffer":0,
			"byteLength":19788,
			"byteOffset":508352,
			"target":34962
		},
		{
			"buffer":0,
			"byteLength":19788,
			"byteOffset":528140,
			"target":34962
		},
		{
			"buffer":0,
			"byteLength":13192,
			"byteOffset":547928,
			"target":34962
		},
		{
			"buffer":0,
			"byteLength":5580,
			"byteOffset":561120,
			"target":34963
		},
		{
			"buffer":0,
			"byteLength":200,
			"byteOffset":566700
		},
		{
			"buffer":0,
			"byteLength":600,
			"byteOffset":566900
		},
		{
			"buffer":0,
			"byteLength":800,
			"byteOffset":567500
		},
		{
			"buffer":0,
			"byteLength":600,
			"byteOffset":568300
		},
		{
			"buffer":0,
			"byteLength":600,
			"byteOffset":568900
		},
		{
			"buffer":0,
			"byteLength":600,
			"byteOffset":569500
		},
		{
			"buffer":0,
			"byteLength":600,
			"byteOffset":570100
		},
		{
			"buffer":0,
			"byteLength":600,
			"byteOffset":570700
		},
		{
			"buffer":0,
			"byteLength":600,
			"byteOffset":571300
		},
		{
			"buffer":0,
			"byteLength":600,
			"byteOffset":571900
		},
		{
			"buffer":0,
			"byteLength":600,
			"byteOffset":572500
		}
	],
	"samplers":[
		{
			"magFilter":9729,
			"minFilter":9987
		}
	],
	"buffers":[
		{
			"byteLength":573100,
			"uri":"mirror_848_03_a.bin"
		}
	]
}
