{
	"asset":{
		"generator":"Khronos glTF Blender I/O v4.4.55",
		"version":"2.0"
	},
	"scene":0,
	"scenes":[
		{
			"name":"Scene",
			"nodes":[
				0
			]
		}
	],
	"nodes":[
		{
			"mesh":0,
			"name":"monolith_894x00"
		}
	],
	"materials":[
		{
			"doubleSided":true,
			"name":"standstone.001",
			"pbrMetallicRoughness":{
				"baseColorTexture":{
					"index":0
				},
				"metallicFactor":0,
				"roughnessFactor":0.5
			}
		}
	],
	"meshes":[
		{
			"name":"Plane.030",
			"primitives":[
				{
					"attributes":{
						"POSITION":0,
						"TEXCOORD_0":1
					},
					"indices":2,
					"material":0
				}
			]
		}
	],
	"textures":[
		{
			"sampler":0,
			"source":0
		}
	],
	"images":[
		{
			"mimeType":"image/png",
			"name":"894monolith",
			"uri":"894monolith.png"
		}
	],
	"accessors":[
		{
			"bufferView":0,
			"componentType":5126,
			"count":1309,
			"max":[
				2.6529414653778076,
				4.215799331665039,
				2.3153092861175537
			],
			"min":[
				0.021695256233215332,
				1.7651288430897694e-08,
				0.0016140937805175781
			],
			"type":"VEC3"
		},
		{
			"bufferView":1,
			"componentType":5126,
			"count":1309,
			"type":"VEC2"
		},
		{
			"bufferView":2,
			"componentType":5123,
			"count":4236,
			"type":"SCALAR"
		}
	],
	"bufferViews":[
		{
			"buffer":0,
			"byteLength":15708,
			"byteOffset":0,
			"target":34962
		},
		{
			"buffer":0,
			"byteLength":10472,
			"byteOffset":15708,
			"target":34962
		},
		{
			"buffer":0,
			"byteLength":8472,
			"byteOffset":26180,
			"target":34963
		}
	],
	"samplers":[
		{
			"magFilter":9728,
			"minFilter":9984
		}
	],
	"buffers":[
		{
			"byteLength":34652,
			"uri":"monolith_894x00.bin"
		}
	]
}
