{
	"asset":{
		"generator":"Khronos glTF Blender I/O v4.4.55",
		"version":"2.0"
	},
	"scene":0,
	"scenes":[
		{
			"name":"Scene",
			"nodes":[
				0
			]
		}
	],
	"nodes":[
		{
			"mesh":0,
			"name":"mountain_197x00"
		}
	],
	"materials":[
		{
			"doubleSided":true,
			"name":"197mountain",
			"pbrMetallicRoughness":{
				"baseColorTexture":{
					"index":0
				},
				"metallicFactor":0,
				"roughnessFactor":0.5
			}
		}
	],
	"meshes":[
		{
			"name":"Cube.017",
			"primitives":[
				{
					"attributes":{
						"POSITION":0,
						"NORMAL":1,
						"TEXCOORD_0":2,
						"TANGENT":3
					},
					"indices":4,
					"material":0
				}
			]
		}
	],
	"textures":[
		{
			"sampler":0,
			"source":0
		}
	],
	"images":[
		{
			"mimeType":"image/png",
			"name":"197mountain",
			"uri":"197mountain.png"
		}
	],
	"accessors":[
		{
			"bufferView":0,
			"componentType":5126,
			"count":269,
			"max":[
				1,
				5,
				2
			],
			"min":[
				-1,
				0,
				-2
			],
			"type":"VEC3"
		},
		{
			"bufferView":1,
			"componentType":5126,
			"count":269,
			"type":"VEC3"
		},
		{
			"bufferView":2,
			"componentType":5126,
			"count":269,
			"type":"VEC2"
		},
		{
			"bufferView":3,
			"componentType":5126,
			"count":269,
			"type":"VEC4"
		},
		{
			"bufferView":4,
			"componentType":5123,
			"count":588,
			"type":"SCALAR"
		}
	],
	"bufferViews":[
		{
			"buffer":0,
			"byteLength":3228,
			"byteOffset":0,
			"target":34962
		},
		{
			"buffer":0,
			"byteLength":3228,
			"byteOffset":3228,
			"target":34962
		},
		{
			"buffer":0,
			"byteLength":2152,
			"byteOffset":6456,
			"target":34962
		},
		{
			"buffer":0,
			"byteLength":4304,
			"byteOffset":8608,
			"target":34962
		},
		{
			"buffer":0,
			"byteLength":1176,
			"byteOffset":12912,
			"target":34963
		}
	],
	"samplers":[
		{
			"magFilter":9728,
			"minFilter":9984
		}
	],
	"buffers":[
		{
			"byteLength":14088,
			"uri":"mountain_197x00.bin"
		}
	]
}
