# Blender 3.6.2
# www.blender.org
mtllib open_shutter_322x00.mtl
o Frame.003
v 1.925000 2.823333 1.593127
v 1.925000 0.000000 1.593127
v 1.925000 2.823333 1.935000
v 1.925000 0.000000 1.935000
v -0.000000 2.823333 1.593127
v -0.000000 0.000000 1.593127
v -0.000000 2.823333 1.935000
v -0.000000 0.000000 1.935000
v 0.412500 0.770000 1.935000
v 0.412500 0.770000 1.593127
v 0.412500 2.566667 1.935000
v 0.412500 2.566666 1.593127
v 1.512500 2.566667 1.935000
v 1.512500 2.566666 1.593127
v 1.512500 0.770000 1.935000
v 1.512500 0.770000 1.593127
v 0.412500 2.523736 1.686183
v 0.412500 2.479272 1.654936
v 0.412500 2.339194 1.904439
v 0.412500 2.294729 1.873191
v 1.512500 2.523736 1.686183
v 1.512500 2.479271 1.654936
v 1.512500 2.339193 1.904439
v 1.512500 2.294728 1.873192
v 1.512500 2.386999 1.764064
v 0.412500 2.431465 1.795311
v 1.512500 2.431464 1.795311
v 0.412500 2.387000 1.764064
v 0.412500 2.164403 1.686183
v 0.412500 2.119939 1.654936
v 0.412500 1.979861 1.904439
v 0.412500 1.935396 1.873191
v 1.512500 2.164403 1.686183
v 1.512500 2.119938 1.654936
v 1.512500 1.979860 1.904439
v 1.512500 1.935395 1.873192
v 1.512500 2.027666 1.764064
v 0.412500 2.072132 1.795311
v 1.512500 2.072131 1.795311
v 0.412500 2.027667 1.764064
v 0.412500 1.805070 1.686183
v 0.412500 1.760605 1.654936
v 0.412500 1.620527 1.904439
v 0.412500 1.576062 1.873191
v 1.512500 1.805069 1.686183
v 1.512500 1.760605 1.654936
v 1.512500 1.620526 1.904439
v 1.512500 1.576061 1.873192
v 1.512500 1.668333 1.764064
v 0.412500 1.712799 1.795311
v 1.512500 1.712798 1.795311
v 0.412500 1.668334 1.764064
v 0.412500 1.445737 1.686183
v 0.412500 1.401272 1.654936
v 0.412500 1.261194 1.904439
v 0.412500 1.216729 1.873191
v 1.512500 1.445736 1.686183
v 1.512500 1.401271 1.654936
v 1.512500 1.261193 1.904439
v 1.512500 1.216728 1.873192
v 1.512500 1.309000 1.764064
v 0.412500 1.353465 1.795311
v 1.512500 1.353464 1.795311
v 0.412500 1.309001 1.764064
v 0.412500 1.086404 1.686183
v 0.412500 1.041939 1.654936
v 0.412500 0.901861 1.904439
v 0.412500 0.857396 1.873191
v 1.512500 1.086403 1.686183
v 1.512500 1.041938 1.654936
v 1.512500 0.901860 1.904439
v 1.512500 0.857395 1.873192
v 1.512500 0.949666 1.764064
v 0.412500 0.994132 1.795311
v 1.512500 0.994131 1.795311
v 0.412500 0.949667 1.764064
v 1.925000 2.823333 -1.593127
v 1.925000 0.000000 -1.593127
v 1.925000 2.823333 -1.935000
v 1.925000 0.000000 -1.935000
v 0.000000 2.823333 -1.593127
v 0.000000 0.000000 -1.593127
v 0.000000 2.823333 -1.935000
v 0.000000 0.000000 -1.935000
v 0.412500 0.770000 -1.935000
v 0.412500 0.770000 -1.593127
v 0.412500 2.566667 -1.935000
v 0.412500 2.566666 -1.593127
v 1.512500 2.566667 -1.935000
v 1.512500 2.566666 -1.593127
v 1.512500 0.770000 -1.935000
v 1.512500 0.770000 -1.593127
v 0.412500 2.523736 -1.686183
v 0.412500 2.479272 -1.654936
v 0.412500 2.339194 -1.904439
v 0.412500 2.294729 -1.873191
v 1.512500 2.523736 -1.686183
v 1.512500 2.479271 -1.654936
v 1.512500 2.339193 -1.904439
v 1.512500 2.294728 -1.873192
v 1.512500 2.387000 -1.764064
v 0.412500 2.431465 -1.795311
v 1.512500 2.431464 -1.795311
v 0.412500 2.387000 -1.764064
v 0.412500 2.164403 -1.686183
v 0.412500 2.119939 -1.654936
v 0.412500 1.979860 -1.904439
v 0.412500 1.935396 -1.873191
v 1.512500 2.164403 -1.686183
v 1.512500 2.119938 -1.654936
v 1.512500 1.979860 -1.904439
v 1.512500 1.935395 -1.873192
v 1.512500 2.027667 -1.764064
v 0.412500 2.072132 -1.795311
v 1.512500 2.072131 -1.795311
v 0.412500 2.027667 -1.764064
v 0.412500 1.805070 -1.686183
v 0.412500 1.760605 -1.654936
v 0.412500 1.620527 -1.904439
v 0.412500 1.576062 -1.873191
v 1.512500 1.805069 -1.686183
v 1.512500 1.760605 -1.654936
v 1.512500 1.620526 -1.904439
v 1.512500 1.576062 -1.873192
v 1.512500 1.668333 -1.764064
v 0.412500 1.712799 -1.795311
v 1.512500 1.712798 -1.795311
v 0.412500 1.668334 -1.764064
v 0.412500 1.445737 -1.686183
v 0.412500 1.401272 -1.654936
v 0.412500 1.261194 -1.904439
v 0.412500 1.216729 -1.873191
v 1.512500 1.445736 -1.686183
v 1.512500 1.401271 -1.654936
v 1.512500 1.261193 -1.904439
v 1.512500 1.216728 -1.873192
v 1.512500 1.309000 -1.764064
v 0.412500 1.353465 -1.795311
v 1.512500 1.353465 -1.795311
v 0.412500 1.309000 -1.764064
v 0.412500 1.086404 -1.686183
v 0.412500 1.041939 -1.654936
v 0.412500 0.901861 -1.904439
v 0.412500 0.857396 -1.873191
v 1.512500 1.086403 -1.686184
v 1.512500 1.041938 -1.654936
v 1.512500 0.901860 -1.904439
v 1.512500 0.857395 -1.873192
v 1.512500 0.949666 -1.764064
v 0.412500 0.994132 -1.795311
v 1.512500 0.994131 -1.795311
v 0.412500 0.949667 -1.764064
vn -0.0000 1.0000 -0.0000
vn -0.0000 -0.0000 1.0000
vn -1.0000 -0.0000 -0.0000
vn -0.0000 -1.0000 -0.0000
vn 1.0000 -0.0000 -0.0000
vn -0.0000 -0.0000 -1.0000
vn -0.0000 -0.7636 -0.6457
vn -0.0000 0.5750 -0.8182
vn -0.0000 0.7636 0.6457
vn -0.0000 -0.5750 0.8182
vn -0.0000 0.7636 -0.6457
vn -0.0000 -0.5750 -0.8182
vn -0.0000 -0.7636 0.6457
vn -0.0000 0.5750 0.8182
vt 0.147062 0.966651
vt 0.558864 0.866756
vt 0.558864 0.966651
vt 0.558907 0.500082
vt 0.470677 0.600067
vt 0.147167 0.500082
vt 0.117588 0.899979
vt 0.029474 0.500072
vt 0.117588 0.500072
vt 0.487637 0.504006
vt 0.382772 0.529474
vt 0.382772 0.504006
vt 0.558969 0.966827
vt 0.911850 0.866505
vt 0.911850 0.966827
vt 0.441756 0.466460
vt 0.353409 0.373687
vt 0.441756 0.033520
vt 0.647040 0.567000
vt 0.617706 0.800001
vt 0.617706 0.567000
vt 0.147266 0.126293
vt 0.117817 0.466460
vt 0.117817 0.033520
vt 0.941176 0.833533
vt 0.647330 0.800070
vt 0.941176 0.800070
vt 0.235397 0.833366
vt 0.558907 0.866695
vt 0.147167 0.866695
vt 0.970601 0.566725
vt 0.941272 0.800099
vt 0.941272 0.566725
vt 0.647226 0.533448
vt 0.941046 0.566574
vt 0.647226 0.566574
vt 0.147062 0.866756
vt 0.470677 0.833366
vt 0.235397 0.600067
vt 0.029474 0.899979
vt 0.487637 0.529474
vt 0.558969 0.866505
vt 0.147266 0.373687
vt 0.353409 0.126293
vt 0.647040 0.800001
vt 0.647330 0.833533
vt 0.970601 0.800099
vt 0.941046 0.533448
vt 0.235726 0.800104
vt 0.470488 0.766884
vt 0.470488 0.800104
vt 0.440830 0.573606
vt 0.265053 0.567737
vt 0.440830 0.567737
vt 0.625000 0.125000
vt 0.375000 0.250000
vt 0.375000 0.125000
vt 0.191329 0.134218
vt 0.205616 0.366783
vt 0.191329 0.366783
vt 0.625000 0.625000
vt 0.375000 0.750000
vt 0.375000 0.625000
vt 0.450021 0.957781
vt 0.274244 0.951912
vt 0.450021 0.951912
vt 0.625000 0.500000
vt 0.375000 0.500000
vt 0.177042 0.134218
vt 0.177042 0.366783
vt 0.625000 0.000000
vt 0.375000 0.000000
vt 0.235726 0.833324
vt 0.470488 0.833324
vt 0.235726 0.766884
vt 0.265053 0.573606
vt 0.625000 0.250000
vt 0.205616 0.134218
vt 0.625000 0.750000
vt 0.274244 0.957781
s 0
usemtl Material
f 5/1/1 3/2/1 1/3/1
f 4/4/2 15/5/2 8/6/2
f 7/7/3 6/8/3 8/9/3
f 2/10/4 8/11/4 6/12/4
f 1/13/5 4/14/5 2/15/5
f 6/16/6 10/17/6 2/18/6
f 10/19/5 11/20/5 9/21/5
f 14/22/6 5/23/6 1/24/6
f 13/25/4 12/26/4 14/27/4
f 11/28/2 3/29/2 7/30/2
f 15/31/3 14/32/3 16/33/3
f 9/34/1 16/35/1 10/36/1
f 5/1/1 7/37/1 3/2/1
f 4/4/2 3/29/2 15/5/2
f 3/29/2 13/38/2 15/5/2
f 15/5/2 9/39/2 8/6/2
f 7/7/3 5/40/3 6/8/3
f 2/10/4 4/41/4 8/11/4
f 1/13/5 3/42/5 4/14/5
f 6/16/6 5/23/6 10/17/6
f 5/23/6 12/43/6 10/17/6
f 10/17/6 16/44/6 2/18/6
f 10/19/5 12/45/5 11/20/5
f 1/24/6 2/18/6 16/44/6
f 14/22/6 12/43/6 5/23/6
f 1/24/6 16/44/6 14/22/6
f 13/25/4 11/46/4 12/26/4
f 7/30/2 8/6/2 9/39/2
f 11/28/2 13/38/2 3/29/2
f 7/30/2 9/39/2 11/28/2
f 15/31/3 13/47/3 14/32/3
f 9/34/1 15/48/1 16/35/1
f 27/49/7 19/50/7 26/51/7
f 19/52/8 24/53/8 20/54/8
f 27/55/3 22/56/3 25/57/3
f 28/58/9 24/59/9 25/60/9
f 26/61/5 20/62/5 28/63/5
f 21/64/10 18/65/10 22/66/10
f 17/67/5 28/63/5 18/68/5
f 18/69/9 25/60/9 22/70/9
f 23/71/3 25/57/3 24/72/3
f 21/73/7 26/51/7 17/74/7
f 27/49/7 23/75/7 19/50/7
f 19/52/8 23/76/8 24/53/8
f 27/55/3 21/77/3 22/56/3
f 28/58/9 20/78/9 24/59/9
f 26/61/5 19/79/5 20/62/5
f 21/64/10 17/80/10 18/65/10
f 17/67/5 26/61/5 28/63/5
f 18/69/9 28/58/9 25/60/9
f 23/71/3 27/55/3 25/57/3
f 21/73/7 27/49/7 26/51/7
f 39/49/7 31/50/7 38/51/7
f 31/52/8 36/53/8 32/54/8
f 39/55/3 34/56/3 37/57/3
f 40/58/9 36/59/9 37/60/9
f 38/61/5 32/62/5 40/63/5
f 33/64/10 30/65/10 34/66/10
f 29/67/5 40/63/5 30/68/5
f 30/69/9 37/60/9 34/70/9
f 35/71/3 37/57/3 36/72/3
f 33/73/7 38/51/7 29/74/7
f 39/49/7 35/75/7 31/50/7
f 31/52/8 35/76/8 36/53/8
f 39/55/3 33/77/3 34/56/3
f 40/58/9 32/78/9 36/59/9
f 38/61/5 31/79/5 32/62/5
f 33/64/10 29/80/10 30/65/10
f 29/67/5 38/61/5 40/63/5
f 30/69/9 40/58/9 37/60/9
f 35/71/3 39/55/3 37/57/3
f 33/73/7 39/49/7 38/51/7
f 51/49/7 43/50/7 50/51/7
f 43/52/8 48/53/8 44/54/8
f 51/55/3 46/56/3 49/57/3
f 52/58/9 48/59/9 49/60/9
f 50/61/5 44/62/5 52/63/5
f 45/64/10 42/65/10 46/66/10
f 41/67/5 52/63/5 42/68/5
f 42/69/9 49/60/9 46/70/9
f 47/71/3 49/57/3 48/72/3
f 45/73/7 50/51/7 41/74/7
f 51/49/7 47/75/7 43/50/7
f 43/52/8 47/76/8 48/53/8
f 51/55/3 45/77/3 46/56/3
f 52/58/9 44/78/9 48/59/9
f 50/61/5 43/79/5 44/62/5
f 45/64/10 41/80/10 42/65/10
f 41/67/5 50/61/5 52/63/5
f 42/69/9 52/58/9 49/60/9
f 47/71/3 51/55/3 49/57/3
f 45/73/7 51/49/7 50/51/7
f 63/49/7 55/50/7 62/51/7
f 55/52/8 60/53/8 56/54/8
f 63/55/3 58/56/3 61/57/3
f 64/58/9 60/59/9 61/60/9
f 62/61/5 56/62/5 64/63/5
f 57/64/10 54/65/10 58/66/10
f 53/67/5 64/63/5 54/68/5
f 54/69/9 61/60/9 58/70/9
f 59/71/3 61/57/3 60/72/3
f 57/73/7 62/51/7 53/74/7
f 63/49/7 59/75/7 55/50/7
f 55/52/8 59/76/8 60/53/8
f 63/55/3 57/77/3 58/56/3
f 64/58/9 56/78/9 60/59/9
f 62/61/5 55/79/5 56/62/5
f 57/64/10 53/80/10 54/65/10
f 53/67/5 62/61/5 64/63/5
f 54/69/9 64/58/9 61/60/9
f 59/71/3 63/55/3 61/57/3
f 57/73/7 63/49/7 62/51/7
f 75/49/7 67/50/7 74/51/7
f 67/52/8 72/53/8 68/54/8
f 75/55/3 70/56/3 73/57/3
f 76/58/9 72/59/9 73/60/9
f 74/61/5 68/62/5 76/63/5
f 69/64/10 66/65/10 70/66/10
f 65/67/5 76/63/5 66/68/5
f 66/69/9 73/60/9 70/70/9
f 71/71/3 73/57/3 72/72/3
f 69/73/7 74/51/7 65/74/7
f 75/49/7 71/75/7 67/50/7
f 67/52/8 71/76/8 72/53/8
f 75/55/3 69/77/3 70/56/3
f 76/58/9 68/78/9 72/59/9
f 74/61/5 67/79/5 68/62/5
f 69/64/10 65/80/10 66/65/10
f 65/67/5 74/61/5 76/63/5
f 66/69/9 76/58/9 73/60/9
f 71/71/3 75/55/3 73/57/3
f 69/73/7 75/49/7 74/51/7
f 81/1/4 79/2/4 77/3/4
f 80/4/2 91/5/2 84/6/2
f 83/7/5 82/8/5 84/9/5
f 78/10/1 84/11/1 82/12/1
f 77/13/3 80/14/3 78/15/3
f 82/16/6 86/17/6 78/18/6
f 86/19/3 87/20/3 85/21/3
f 90/22/6 81/23/6 77/24/6
f 89/25/1 88/26/1 90/27/1
f 87/28/2 79/29/2 83/30/2
f 91/31/5 90/32/5 92/33/5
f 85/34/4 92/35/4 86/36/4
f 81/1/4 83/37/4 79/2/4
f 80/4/2 79/29/2 91/5/2
f 79/29/2 89/38/2 91/5/2
f 91/5/2 85/39/2 84/6/2
f 83/7/5 81/40/5 82/8/5
f 78/10/1 80/41/1 84/11/1
f 77/13/3 79/42/3 80/14/3
f 82/16/6 81/23/6 86/17/6
f 81/23/6 88/43/6 86/17/6
f 86/17/6 92/44/6 78/18/6
f 86/19/3 88/45/3 87/20/3
f 77/24/6 78/18/6 92/44/6
f 90/22/6 88/43/6 81/23/6
f 77/24/6 92/44/6 90/22/6
f 89/25/1 87/46/1 88/26/1
f 83/30/2 84/6/2 85/39/2
f 87/28/2 89/38/2 79/29/2
f 83/30/2 85/39/2 87/28/2
f 91/31/5 89/47/5 90/32/5
f 85/34/4 91/48/4 92/35/4
f 103/49/11 95/50/11 102/51/11
f 95/52/12 100/53/12 96/54/12
f 103/55/5 98/56/5 101/57/5
f 104/58/13 100/59/13 101/60/13
f 102/61/3 96/62/3 104/63/3
f 97/64/14 94/65/14 98/66/14
f 93/67/3 104/63/3 94/68/3
f 94/69/13 101/60/13 98/70/13
f 99/71/5 101/57/5 100/72/5
f 97/73/11 102/51/11 93/74/11
f 103/49/11 99/75/11 95/50/11
f 95/52/12 99/76/12 100/53/12
f 103/55/5 97/77/5 98/56/5
f 104/58/13 96/78/13 100/59/13
f 102/61/3 95/79/3 96/62/3
f 97/64/14 93/80/14 94/65/14
f 93/67/3 102/61/3 104/63/3
f 94/69/13 104/58/13 101/60/13
f 99/71/5 103/55/5 101/57/5
f 97/73/11 103/49/11 102/51/11
f 115/49/11 107/50/11 114/51/11
f 107/52/12 112/53/12 108/54/12
f 115/55/5 110/56/5 113/57/5
f 116/58/13 112/59/13 113/60/13
f 114/61/3 108/62/3 116/63/3
f 109/64/14 106/65/14 110/66/14
f 105/67/3 116/63/3 106/68/3
f 106/69/13 113/60/13 110/70/13
f 111/71/5 113/57/5 112/72/5
f 109/73/11 114/51/11 105/74/11
f 115/49/11 111/75/11 107/50/11
f 107/52/12 111/76/12 112/53/12
f 115/55/5 109/77/5 110/56/5
f 116/58/13 108/78/13 112/59/13
f 114/61/3 107/79/3 108/62/3
f 109/64/14 105/80/14 106/65/14
f 105/67/3 114/61/3 116/63/3
f 106/69/13 116/58/13 113/60/13
f 111/71/5 115/55/5 113/57/5
f 109/73/11 115/49/11 114/51/11
f 127/49/11 119/50/11 126/51/11
f 119/52/12 124/53/12 120/54/12
f 127/55/5 122/56/5 125/57/5
f 128/58/13 124/59/13 125/60/13
f 126/61/3 120/62/3 128/63/3
f 121/64/14 118/65/14 122/66/14
f 117/67/3 128/63/3 118/68/3
f 118/69/13 125/60/13 122/70/13
f 123/71/5 125/57/5 124/72/5
f 121/73/11 126/51/11 117/74/11
f 127/49/11 123/75/11 119/50/11
f 119/52/12 123/76/12 124/53/12
f 127/55/5 121/77/5 122/56/5
f 128/58/13 120/78/13 124/59/13
f 126/61/3 119/79/3 120/62/3
f 121/64/14 117/80/14 118/65/14
f 117/67/3 126/61/3 128/63/3
f 118/69/13 128/58/13 125/60/13
f 123/71/5 127/55/5 125/57/5
f 121/73/11 127/49/11 126/51/11
f 139/49/11 131/50/11 138/51/11
f 131/52/12 136/53/12 132/54/12
f 139/55/5 134/56/5 137/57/5
f 140/58/13 136/59/13 137/60/13
f 138/61/3 132/62/3 140/63/3
f 133/64/14 130/65/14 134/66/14
f 129/67/3 140/63/3 130/68/3
f 130/69/13 137/60/13 134/70/13
f 135/71/5 137/57/5 136/72/5
f 133/73/11 138/51/11 129/74/11
f 139/49/11 135/75/11 131/50/11
f 131/52/12 135/76/12 136/53/12
f 139/55/5 133/77/5 134/56/5
f 140/58/13 132/78/13 136/59/13
f 138/61/3 131/79/3 132/62/3
f 133/64/14 129/80/14 130/65/14
f 129/67/3 138/61/3 140/63/3
f 130/69/13 140/58/13 137/60/13
f 135/71/5 139/55/5 137/57/5
f 133/73/11 139/49/11 138/51/11
f 151/49/11 143/50/11 150/51/11
f 143/52/12 148/53/12 144/54/12
f 151/55/5 146/56/5 149/57/5
f 152/58/13 148/59/13 149/60/13
f 150/61/3 144/62/3 152/63/3
f 145/64/14 142/65/14 146/66/14
f 141/67/3 152/63/3 142/68/3
f 142/69/13 149/60/13 146/70/13
f 147/71/5 149/57/5 148/72/5
f 145/73/11 150/51/11 141/74/11
f 151/49/11 147/75/11 143/50/11
f 143/52/12 147/76/12 148/53/12
f 151/55/5 145/77/5 146/56/5
f 152/58/13 144/78/13 148/59/13
f 150/61/3 143/79/3 144/62/3
f 145/64/14 141/80/14 142/65/14
f 141/67/3 150/61/3 152/63/3
f 142/69/13 152/58/13 149/60/13
f 147/71/5 151/55/5 149/57/5
f 145/73/11 151/49/11 150/51/11
