{
	"asset":{
		"generator":"Khronos glTF Blender I/O v4.4.55",
		"version":"2.0"
	},
	"scene":0,
	"scenes":[
		{
			"name":"Scene",
			"nodes":[
				0
			]
		}
	],
	"nodes":[
		{
			"mesh":0,
			"name":"painting_262x02"
		}
	],
	"materials":[
		{
			"doubleSided":true,
			"name":"282painting",
			"pbrMetallicRoughness":{
				"baseColorTexture":{
					"index":0
				},
				"metallicFactor":0,
				"roughnessFactor":0.5
			}
		}
	],
	"meshes":[
		{
			"name":"Plane.004",
			"primitives":[
				{
					"attributes":{
						"POSITION":0,
						"NORMAL":1,
						"TEXCOORD_0":2,
						"TANGENT":3
					},
					"indices":4,
					"material":0
				}
			]
		}
	],
	"textures":[
		{
			"sampler":0,
			"source":0
		}
	],
	"images":[
		{
			"mimeType":"image/png",
			"name":"282painting",
			"uri":"282painting.png"
		}
	],
	"accessors":[
		{
			"bufferView":0,
			"componentType":5126,
			"count":207,
			"max":[
				2.2978880405426025,
				-0.003963410388678312,
				0.09907536953687668
			],
			"min":[
				-0.00027472851797938347,
				-1.0039634704589844,
				-0.011008414439857006
			],
			"type":"VEC3"
		},
		{
			"bufferView":1,
			"componentType":5126,
			"count":207,
			"type":"VEC3"
		},
		{
			"bufferView":2,
			"componentType":5126,
			"count":207,
			"type":"VEC2"
		},
		{
			"bufferView":3,
			"componentType":5126,
			"count":207,
			"type":"VEC4"
		},
		{
			"bufferView":4,
			"componentType":5123,
			"count":558,
			"type":"SCALAR"
		}
	],
	"bufferViews":[
		{
			"buffer":0,
			"byteLength":2484,
			"byteOffset":0,
			"target":34962
		},
		{
			"buffer":0,
			"byteLength":2484,
			"byteOffset":2484,
			"target":34962
		},
		{
			"buffer":0,
			"byteLength":1656,
			"byteOffset":4968,
			"target":34962
		},
		{
			"buffer":0,
			"byteLength":3312,
			"byteOffset":6624,
			"target":34962
		},
		{
			"buffer":0,
			"byteLength":1116,
			"byteOffset":9936,
			"target":34963
		}
	],
	"samplers":[
		{
			"magFilter":9728,
			"minFilter":9984
		}
	],
	"buffers":[
		{
			"byteLength":11052,
			"uri":"painting_282x02.bin"
		}
	]
}
