{
	"asset":{
		"generator":"Khronos glTF Blender I/O v4.4.55",
		"version":"2.0"
	},
	"scene":0,
	"scenes":[
		{
			"name":"Scene",
			"nodes":[
				0
			]
		}
	],
	"nodes":[
		{
			"mesh":0,
			"name":"painting_282x03"
		}
	],
	"materials":[
		{
			"doubleSided":true,
			"name":"282painting",
			"pbrMetallicRoughness":{
				"baseColorTexture":{
					"index":0
				},
				"metallicFactor":0,
				"roughnessFactor":0.5
			}
		}
	],
	"meshes":[
		{
			"name":"Plane.003",
			"primitives":[
				{
					"attributes":{
						"POSITION":0,
						"NORMAL":1,
						"TEXCOORD_0":2,
						"TANGENT":3
					},
					"indices":4,
					"material":0
				}
			]
		}
	],
	"textures":[
		{
			"sampler":0,
			"source":0
		}
	],
	"images":[
		{
			"mimeType":"image/png",
			"name":"282painting",
			"uri":"282painting.png"
		}
	],
	"accessors":[
		{
			"bufferView":0,
			"componentType":5126,
			"count":441,
			"max":[
				2.097853660583496,
				-0.0007928004488348961,
				0.10129234939813614
			],
			"min":[
				0.005930304527282715,
				-0.9094313383102417,
				-0.021319912746548653
			],
			"type":"VEC3"
		},
		{
			"bufferView":1,
			"componentType":5126,
			"count":441,
			"type":"VEC3"
		},
		{
			"bufferView":2,
			"componentType":5126,
			"count":441,
			"type":"VEC2"
		},
		{
			"bufferView":3,
			"componentType":5126,
			"count":441,
			"type":"VEC4"
		},
		{
			"bufferView":4,
			"componentType":5123,
			"count":960,
			"type":"SCALAR"
		}
	],
	"bufferViews":[
		{
			"buffer":0,
			"byteLength":5292,
			"byteOffset":0,
			"target":34962
		},
		{
			"buffer":0,
			"byteLength":5292,
			"byteOffset":5292,
			"target":34962
		},
		{
			"buffer":0,
			"byteLength":3528,
			"byteOffset":10584,
			"target":34962
		},
		{
			"buffer":0,
			"byteLength":7056,
			"byteOffset":14112,
			"target":34962
		},
		{
			"buffer":0,
			"byteLength":1920,
			"byteOffset":21168,
			"target":34963
		}
	],
	"samplers":[
		{
			"magFilter":9728,
			"minFilter":9984
		}
	],
	"buffers":[
		{
			"byteLength":23088,
			"uri":"painting_282x03.bin"
		}
	]
}
