{
	"asset":{
		"generator":"Khronos glTF Blender I/O v4.4.55",
		"version":"2.0"
	},
	"scene":0,
	"scenes":[
		{
			"name":"Scene",
			"nodes":[
				0
			]
		}
	],
	"nodes":[
		{
			"mesh":0,
			"name":"pieco_of_wood_923x00"
		}
	],
	"materials":[
		{
			"doubleSided":true,
			"name":"923_pow",
			"pbrMetallicRoughness":{
				"baseColorTexture":{
					"index":0
				},
				"metallicFactor":0,
				"roughnessFactor":0.5
			}
		}
	],
	"meshes":[
		{
			"name":"Cube.002",
			"primitives":[
				{
					"attributes":{
						"POSITION":0,
						"NORMAL":1,
						"TEXCOORD_0":2
					},
					"indices":3,
					"material":0
				}
			]
		}
	],
	"textures":[
		{
			"sampler":0,
			"source":0
		}
	],
	"images":[
		{
			"mimeType":"image/png",
			"name":"923piece_of_wood",
			"uri":"923piece_of_wood.png"
		}
	],
	"accessors":[
		{
			"bufferView":0,
			"componentType":5126,
			"count":168,
			"max":[
				0.49349623918533325,
				0.9779061675071716,
				1.965730905532837
			],
			"min":[
				-0.4934961795806885,
				0.02398735284805298,
				-1.965730905532837
			],
			"type":"VEC3"
		},
		{
			"bufferView":1,
			"componentType":5126,
			"count":168,
			"type":"VEC3"
		},
		{
			"bufferView":2,
			"componentType":5126,
			"count":168,
			"type":"VEC2"
		},
		{
			"bufferView":3,
			"componentType":5123,
			"count":276,
			"type":"SCALAR"
		}
	],
	"bufferViews":[
		{
			"buffer":0,
			"byteLength":2016,
			"byteOffset":0,
			"target":34962
		},
		{
			"buffer":0,
			"byteLength":2016,
			"byteOffset":2016,
			"target":34962
		},
		{
			"buffer":0,
			"byteLength":1344,
			"byteOffset":4032,
			"target":34962
		},
		{
			"buffer":0,
			"byteLength":552,
			"byteOffset":5376,
			"target":34963
		}
	],
	"samplers":[
		{
			"magFilter":9728,
			"minFilter":9984
		}
	],
	"buffers":[
		{
			"byteLength":5928,
			"uri":"pieco_of_wood_923x00.bin"
		}
	]
}
