# Blender 4.0.1
# www.blender.org
mtllib pillar_687x02.mtl
o Decorative_Column
v 0.177348 0.657320 -0.428157
v 0.230144 0.571283 -0.555616
v 0.300697 0.313755 -0.725947
v 0.325473 0.009981 -0.785760
v 0.428157 0.657320 -0.177348
v 0.555616 0.571283 -0.230144
v 0.725947 0.313755 -0.300697
v 0.785760 0.009981 -0.325472
v 0.428157 0.657320 0.177348
v 0.555616 0.571283 0.230144
v 0.725947 0.313755 0.300697
v 0.785760 0.009981 0.325472
v 0.177349 0.657320 0.428156
v 0.230144 0.571283 0.555616
v 0.300697 0.313755 0.725947
v 0.325473 0.009981 0.785760
v -0.177348 0.657320 0.428156
v -0.230143 0.571283 0.555616
v -0.300697 0.313755 0.725947
v -0.325472 0.009981 0.785759
v -0.428156 0.657320 0.177348
v -0.555616 0.571283 0.230144
v -0.725947 0.313756 0.300697
v -0.785759 0.009981 0.325472
v -0.428156 0.657320 -0.177348
v -0.555616 0.571283 -0.230144
v -0.725947 0.313755 -0.300697
v -0.785759 0.009981 -0.325472
v -0.177348 0.657320 -0.428157
v -0.230143 0.571283 -0.555616
v -0.300697 0.313755 -0.725947
v -0.325472 0.009981 -0.785760
v 0.177348 3.361230 -0.428157
v 0.230144 3.447268 -0.555616
v 0.300697 3.704795 -0.725947
v 0.232274 4.008569 -0.560760
v 0.428157 3.361230 -0.177348
v 0.555616 3.447268 -0.230144
v 0.725947 3.704795 -0.300697
v 0.560760 4.008569 -0.232274
v 0.428157 3.361230 0.177348
v 0.555616 3.447268 0.230144
v 0.725947 3.704795 0.300697
v 0.560760 4.008569 0.232274
v 0.177349 3.361230 0.428156
v 0.230144 3.447268 0.555616
v 0.300697 3.704795 0.725947
v 0.232274 4.008569 0.560759
v -0.177348 3.361230 0.428156
v -0.230143 3.447268 0.555616
v -0.300697 3.704795 0.725947
v -0.232274 4.008569 0.560760
v -0.428156 3.361230 0.177348
v -0.555616 3.447268 0.230144
v -0.725947 3.704795 0.300697
v -0.560759 4.008569 0.232274
v -0.428156 3.361230 -0.177348
v -0.555616 3.447268 -0.230144
v -0.725947 3.704795 -0.300697
v -0.560759 4.008569 -0.232274
v -0.177348 3.361230 -0.428157
v -0.230143 3.447268 -0.555616
v -0.300697 3.704795 -0.725947
v -0.232274 4.008569 -0.560760
v 0.325473 4.008569 -0.785760
v 0.785760 4.008569 -0.325472
v 0.785760 4.008569 0.325472
v 0.325473 4.008569 0.785759
v -0.325472 4.008569 0.785759
v -0.785759 4.008569 0.325472
v -0.785759 4.008569 -0.325472
v -0.325472 4.008569 -0.785760
v 0.193294 0.715523 -0.466653
v 0.246089 0.629486 -0.594112
v 0.466653 0.715523 -0.193294
v 0.594112 0.629486 -0.246089
v 0.466653 0.715523 0.193294
v 0.594112 0.629486 0.246089
v 0.193294 0.715523 0.466653
v 0.246089 0.629486 0.594112
v -0.193294 0.715523 0.466652
v -0.246089 0.629486 0.594112
v -0.466652 0.715523 0.193294
v -0.594112 0.629486 0.246089
v -0.466652 0.715523 -0.193294
v -0.594112 0.629486 -0.246089
v -0.193294 0.715523 -0.466653
v -0.246089 0.629486 -0.594112
v 0.193294 3.303028 -0.466653
v 0.246089 3.389065 -0.594112
v 0.466653 3.303028 -0.193294
v 0.594112 3.389065 -0.246089
v 0.466653 3.303028 0.193294
v 0.594112 3.389065 0.246089
v 0.193294 3.303028 0.466652
v 0.246089 3.389065 0.594112
v -0.193294 3.303028 0.466652
v -0.246089 3.389065 0.594112
v -0.466652 3.303028 0.193294
v -0.594112 3.389065 0.246089
v -0.466652 3.303028 -0.193294
v -0.594112 3.389065 -0.246089
v -0.193294 3.303028 -0.466652
v -0.246089 3.389065 -0.594112
vn -0.0000 0.5517 -0.8341
vn -0.0000 0.1932 -0.9812
vn -0.8341 0.5517 -0.0000
vn 0.5898 0.5517 -0.5898
vn 0.6938 0.1932 -0.6938
vn -0.0000 -0.5517 0.8341
vn 0.9812 0.1932 -0.0000
vn 0.8341 -0.5517 -0.0000
vn 0.8341 0.5517 -0.0000
vn -0.0000 0.5517 0.8341
vn 0.5898 0.5517 0.5898
vn 0.6938 0.1932 0.6938
vn -0.0000 0.1932 0.9812
vn -0.0000 -0.5517 -0.8341
vn -0.6938 0.1932 0.6938
vn 0.5898 -0.5517 0.5898
vn -0.5898 0.5517 0.5898
vn -0.9812 0.1932 -0.0000
vn -0.5898 0.5517 -0.5898
vn -0.6938 0.1932 -0.6938
vn -0.0000 -0.1932 -0.9812
vn 0.5898 -0.5517 -0.5898
vn 0.6938 -0.1932 -0.6938
vn -0.5898 -0.5517 0.5898
vn 0.9812 -0.1932 -0.0000
vn -0.5898 -0.5517 -0.5898
vn 0.6938 -0.1932 0.6938
vn -0.0000 -0.1932 0.9812
vn -0.6938 -0.1932 0.6938
vn -0.9812 -0.1932 -0.0000
vn -0.8341 -0.5517 -0.0000
vn -0.6938 -0.1932 -0.6938
vn -0.0000 1.0000 -0.0000
vn 1.0000 -0.0000 -0.0000
vn 0.7071 -0.0000 0.7071
vn -0.0000 -0.0000 1.0000
vn -0.7071 -0.0000 0.7071
vn -1.0000 -0.0000 -0.0000
vn -0.7071 -0.0000 -0.7071
vn -0.0000 -0.0000 -1.0000
vn 0.7071 -0.0000 -0.7071
vn -0.0000 0.8288 -0.5595
vn 0.3956 0.8288 -0.3956
vn 0.5595 0.8288 -0.0000
vn 0.3956 0.8288 0.3956
vn -0.0000 0.8288 0.5595
vn -0.3956 0.8288 0.3956
vn -0.5595 0.8288 -0.0000
vn -0.3956 0.8288 -0.3956
vn -0.0000 -0.8288 -0.5595
vn 0.3956 -0.8288 -0.3956
vn 0.5595 -0.8288 -0.0000
vn 0.3956 -0.8288 0.3956
vn -0.0000 -0.8288 0.5595
vn -0.3956 -0.8288 0.3956
vn -0.5595 -0.8288 -0.0000
vn -0.3956 -0.8288 -0.3956
vt 0.376797 0.892653
vt 0.376797 0.911874
vt 0.339187 0.911874
vt 0.339187 0.892653
vt 0.376797 0.873803
vt 0.339187 0.873803
vt 0.674074 0.835177
vt 0.647305 0.835177
vt 0.647305 0.830789
vt 0.674074 0.830788
vt 0.486345 0.892653
vt 0.486345 0.911874
vt 0.448715 0.911874
vt 0.448715 0.892653
vt 0.486345 0.873803
vt 0.448715 0.873803
vt 0.592579 0.816431
vt 0.620536 0.816431
vt 0.620536 0.820820
vt 0.592579 0.820820
vt 0.412756 0.892653
vt 0.412756 0.873803
vt 0.647305 0.816431
vt 0.674074 0.816431
vt 0.674074 0.820820
vt 0.647305 0.820820
vt 0.412756 0.911874
vt 0.620536 0.835177
vt 0.592579 0.835177
vt 0.592579 0.830788
vt 0.620536 0.830788
vt 0.376797 0.911874
vt 0.376797 0.892653
vt 0.376797 0.873803
vt 0.339187 0.892653
vt 0.620536 0.820820
vt 0.486345 0.873803
vt 0.486345 0.892653
vt 0.665536 0.872364
vt 0.638767 0.872364
vt 0.638767 0.868309
vt 0.665536 0.868309
vt 0.486345 0.911874
vt 0.412756 0.892653
vt 0.412756 0.873803
vt 0.584041 0.855043
vt 0.611997 0.855043
vt 0.611997 0.859098
vt 0.584041 0.859098
vt 0.412756 0.911874
vt 0.638767 0.855043
vt 0.665536 0.855043
vt 0.665536 0.859098
vt 0.638767 0.859098
vt 0.376816 0.891685
vt 0.339187 0.891685
vt 0.339187 0.910695
vt 0.376816 0.910695
vt 0.376816 0.873044
vt 0.339187 0.873044
vt 0.647305 0.835177
vt 0.647305 0.830789
vt 0.486345 0.891685
vt 0.448734 0.891685
vt 0.448734 0.910695
vt 0.486345 0.910695
vt 0.486345 0.873044
vt 0.448734 0.873044
vt 0.611997 0.872364
vt 0.584041 0.872364
vt 0.584041 0.868309
vt 0.611997 0.868309
vt 0.412775 0.873044
vt 0.412775 0.891685
vt 0.674074 0.816431
vt 0.702129 0.816431
vt 0.702129 0.820820
vt 0.674074 0.820820
vt 0.412775 0.910695
vt 0.665536 0.872364
vt 0.638767 0.872364
vt 0.638767 0.868309
vt 0.665536 0.868309
vt 0.376816 0.891685
vt 0.376816 0.910695
vt 0.376816 0.873044
vt 0.339187 0.891686
vt 0.647305 0.816431
vt 0.647305 0.820820
vt 0.486345 0.873044
vt 0.448734 0.873044
vt 0.448734 0.891686
vt 0.486345 0.891686
vt 0.448734 0.910695
vt 0.486345 0.910695
vt 0.412775 0.873044
vt 0.412775 0.891685
vt 0.584041 0.859098
vt 0.412775 0.910695
vt 0.638767 0.855043
vt 0.665536 0.855043
vt 0.665536 0.859098
vt 0.638767 0.859098
vt 0.126395 0.906347
vt 0.142056 0.912726
vt 0.109149 0.944403
vt 0.102911 0.928954
vt 0.127015 0.874427
vt 0.142925 0.867999
vt 0.104409 0.851892
vt 0.111248 0.836422
vt 0.071818 0.851943
vt 0.065580 0.836493
vt 0.048334 0.874549
vt 0.032674 0.868170
vt 0.047714 0.906469
vt 0.031805 0.912897
vt 0.070320 0.929004
vt 0.063482 0.944474
vt 0.403299 0.682203
vt 0.380963 0.682203
vt 0.380963 0.845595
vt 0.403299 0.845595
vt 0.358627 0.682203
vt 0.358627 0.845595
vt 0.334227 0.682203
vt 0.334227 0.845595
vt 0.425634 0.682203
vt 0.403299 0.682203
vt 0.403299 0.845595
vt 0.425634 0.845595
vt 0.358627 0.682203
vt 0.358627 0.845595
vt 0.425634 0.682203
vt 0.425634 0.845595
vt 0.702129 0.820820
vt 0.702129 0.830788
vt 0.702129 0.830788
vt 0.674074 0.830788
vt 0.693590 0.859098
vt 0.693590 0.868309
vt 0.693590 0.859098
vt 0.693590 0.868309
vt 0.693590 0.855043
vt 0.620536 0.835177
vt 0.592579 0.835177
vt 0.693590 0.872364
vt 0.674074 0.835177
vt 0.693590 0.855043
vt 0.693590 0.872364
vt 0.702129 0.816431
vt 0.702129 0.835177
vt 0.702129 0.835177
s 0
usemtl Material.001
f 31/1/1 30/2/1 2/3/1 3/4/1
f 32/5/2 31/1/2 3/4/2 4/6/2
f 5/7/3 9/8/3 77/9/3 75/10/3
f 3/11/4 2/12/4 6/13/4 7/14/4
f 4/15/5 3/11/5 7/14/5 8/16/5
f 18/17/6 14/18/6 80/19/6 82/20/6
f 8/16/7 7/14/7 11/21/7 12/22/7
f 10/23/8 6/24/8 76/25/8 78/26/8
f 7/14/9 6/13/9 10/27/9 11/21/9
f 29/28/10 1/29/10 73/30/10 87/31/10
f 11/21/11 10/27/11 14/32/11 15/33/11
f 12/22/12 11/21/12 15/33/12 16/34/12
f 15/33/10 14/32/10 18/3/10 19/35/10
f 16/34/13 15/33/13 19/35/13 20/6/13
f 2/17/14 30/18/14 88/36/14 74/20/14
f 20/37/15 19/38/15 23/14/15 24/16/15
f 61/39/16 57/40/16 101/41/16 103/42/16
f 19/38/17 18/43/17 22/13/17 23/14/17
f 24/16/18 23/14/18 27/44/18 28/45/18
f 50/46/17 54/47/17 100/48/17 98/49/17
f 23/14/3 22/13/3 26/50/3 27/44/3
f 27/44/19 26/50/19 30/2/19 31/1/19
f 28/45/20 27/44/20 31/1/20 32/5/20
f 58/51/19 62/52/19 104/53/19 102/54/19
f 63/55/14 35/56/14 34/57/14 62/58/14
f 72/59/21 65/60/21 35/56/21 63/55/21
f 25/61/11 29/28/11 87/31/11 85/62/11
f 35/63/22 39/64/22 38/65/22 34/66/22
f 65/67/23 66/68/23 39/64/23 35/63/23
f 37/69/24 33/70/24 89/71/24 91/72/24
f 66/68/25 67/73/25 43/74/25 39/64/25
f 22/75/24 18/76/24 82/77/24 84/78/24
f 39/64/8 43/74/8 42/79/8 38/65/8
f 45/80/26 41/81/26 93/82/26 95/83/26
f 43/74/16 47/84/16 46/85/16 42/79/16
f 67/73/27 68/86/27 47/84/27 43/74/27
f 47/84/6 51/87/6 50/57/6 46/85/6
f 68/86/28 69/60/28 51/87/28 47/84/28
f 30/18/26 26/88/26 86/89/26 88/36/26
f 69/90/29 70/91/29 55/92/29 51/93/29
f 53/69/22 49/70/22 97/71/22 99/72/22
f 51/93/24 55/92/24 54/94/24 50/95/24
f 70/91/30 71/96/30 59/97/30 55/92/30
f 34/46/4 38/47/4 92/48/4 90/98/4
f 55/92/31 59/97/31 58/99/31 54/94/31
f 59/97/26 63/55/26 62/58/26 58/99/26
f 71/96/32 72/59/32 63/55/32 59/97/32
f 42/100/11 46/101/11 96/102/11 94/103/11
f 40/104/33 66/105/33 65/106/33 36/107/33
f 44/108/33 67/109/33 66/105/33 40/104/33
f 48/110/33 68/111/33 67/109/33 44/108/33
f 52/112/33 69/113/33 68/111/33 48/110/33
f 56/114/33 70/115/33 69/113/33 52/112/33
f 60/116/33 71/117/33 70/115/33 56/114/33
f 64/118/33 72/119/33 71/117/33 60/116/33
f 36/107/33 65/106/33 72/119/33 64/118/33
f 37/120/34 41/121/34 9/122/34 5/123/34
f 41/121/35 45/124/35 13/125/35 9/122/35
f 45/124/36 49/126/36 17/127/36 13/125/36
f 49/128/37 53/129/37 21/130/37 17/131/37
f 53/129/38 57/121/38 25/122/38 21/130/38
f 57/121/39 61/132/39 29/133/39 25/122/39
f 61/132/40 33/126/40 1/127/40 29/133/40
f 33/134/41 37/120/41 5/123/41 1/135/41
f 88/36/42 87/31/42 73/30/42 74/20/42
f 74/136/43 73/137/43 75/10/43 76/25/43
f 76/25/44 75/10/44 77/9/44 78/26/44
f 78/26/45 77/9/45 79/31/45 80/19/45
f 80/19/46 79/31/46 81/30/46 82/20/46
f 82/77/47 81/138/47 83/139/47 84/78/47
f 84/78/48 83/139/48 85/62/48 86/89/48
f 86/89/49 85/62/49 87/31/49 88/36/49
f 104/53/50 90/140/50 89/141/50 103/42/50
f 90/98/51 92/48/51 91/72/51 89/71/51
f 92/48/52 94/103/52 93/82/52 91/72/52
f 94/103/53 96/102/53 95/83/53 93/82/53
f 96/102/54 98/142/54 97/143/54 95/83/54
f 98/49/55 100/48/55 99/72/55 97/71/55
f 100/48/56 102/54/56 101/41/56 99/72/56
f 102/54/57 104/53/57 103/42/57 101/41/57
f 62/52/1 34/144/1 90/140/1 104/53/1
f 26/88/31 22/75/31 84/78/31 86/89/31
f 13/145/1 17/146/1 81/30/1 79/31/1
f 33/147/6 61/39/6 103/42/6 89/141/6
f 21/148/9 25/61/9 85/62/9 83/139/9
f 38/47/9 42/100/9 94/103/9 92/48/9
f 46/101/10 50/149/10 98/142/10 96/102/10
f 41/81/31 37/69/31 91/72/31 93/82/31
f 54/47/3 58/51/3 102/54/3 100/48/3
f 49/150/14 45/80/14 95/83/14 97/143/14
f 57/40/8 53/69/8 99/72/8 101/41/8
f 14/18/16 10/23/16 78/26/16 80/19/16
f 6/24/22 2/151/22 74/136/22 76/25/22
f 17/152/4 21/148/4 83/139/4 81/138/4
f 9/8/19 13/145/19 79/31/19 77/9/19
f 1/153/17 5/7/17 75/10/17 73/137/17
f 40/104/33 60/116/33 56/114/33 44/108/33
f 36/107/33 64/118/33 60/116/33 40/104/33
f 44/108/33 56/114/33 52/112/33 48/110/33
