# Blender 3.6.2
# www.blender.org
mtllib pillar_920x03.mtl
o Pillar
v 1.012500 4.800000 0.987500
v 1.012500 0.266667 0.987500
v 0.000000 0.266667 0.987500
v 0.000000 4.800000 0.987500
v 1.012500 0.000000 0.987500
v 0.000000 0.000000 0.987500
v 1.012500 5.066667 0.987500
v 0.000000 5.066667 0.987500
v -0.000000 0.000000 0.544445
v 0.112500 0.000000 0.431944
v 0.900000 0.000000 0.431945
v 1.012500 0.000000 0.544445
v 1.012500 0.266667 0.544445
v 0.900000 0.266667 0.431945
v 0.932950 0.266667 0.511494
v 0.112500 0.266667 0.431944
v -0.000000 0.266667 0.544444
v 0.079550 0.266667 0.511494
v 0.900000 4.800000 0.431945
v 1.012500 4.800000 0.544445
v 0.932950 4.800000 0.511494
v -0.000000 4.800000 0.544444
v 0.112500 4.800000 0.431944
v 0.079550 4.800000 0.511494
v 1.012500 5.066667 0.544445
v 0.900000 5.066667 0.431945
v 0.112500 5.066667 0.431944
v -0.000000 5.066667 0.544444
v 0.112500 0.266667 0.656944
v 0.225000 0.266667 0.544444
v 0.079585 0.266667 0.511529
v 0.787500 0.266667 0.544445
v 0.900000 0.266667 0.656945
v 0.932915 0.266667 0.511529
v 0.900000 4.800000 0.656945
v 0.787500 4.800000 0.544445
v 0.932915 4.800000 0.511529
v 0.225000 4.800000 0.544444
v 0.112500 4.800000 0.656944
v 0.079585 4.800000 0.511529
v 0.787500 4.800000 0.987500
v 0.900000 4.800000 0.875000
v 1.012450 4.800000 0.987500
v 0.225000 0.266667 0.987500
v 0.112500 0.266667 0.875000
v 0.000000 0.266667 0.987500
v 0.112500 4.800000 0.875000
v 0.225000 4.800000 0.987500
v 0.000000 4.800000 0.987500
v 0.900000 0.266667 0.875000
v 0.787500 0.266667 0.987500
v 1.012450 0.266667 0.987500
vn -0.0000 -1.0000 -0.0000
vn -0.0000 1.0000 -0.0000
vn -0.0000 -0.0000 1.0000
vn -0.7071 -0.0000 0.7071
vn -0.0000 -1.0000 -0.0015
vn -0.0000 -0.0000 -1.0000
vn -0.0000 -1.0000 0.0030
vn -0.0000 1.0000 0.0002
vn -0.0000 1.0000 -0.0002
vn 1.0000 -0.0000 -0.0000
vn 0.7071 -0.0000 -0.7071
vn -0.0000 -0.9999 0.0150
vn -1.0000 -0.0000 -0.0000
vn -0.7071 -0.0000 -0.7071
vn 0.7071 -0.0000 0.7071
vt 0.437208 0.497166
vt 0.438053 0.493736
vt 0.440097 0.494513
vt 0.437208 0.491860
vt 0.428720 0.494513
vt 0.425831 0.491860
vt 0.955849 0.062125
vt 0.962441 0.036139
vt 0.978381 0.042021
vt 0.556045 0.571571
vt 0.533490 0.591959
vt 0.444665 0.591959
vt 0.889643 0.042021
vt 0.867111 0.021926
vt 0.867111 0.021917
vt 0.955849 0.202853
vt 0.867111 0.202853
vt 0.889643 0.182749
vt 0.045279 0.551697
vt 0.045279 0.592405
vt 0.023088 0.592405
vt 0.434319 0.513084
vt 0.438053 0.513860
vt 0.437208 0.515737
vt 0.955849 0.021917
vt 0.967115 0.031969
vt 0.962448 0.036132
vt 0.967115 0.192801
vt 0.962448 0.188638
vt 0.438653 0.514410
vt 0.438054 0.513861
vt 0.438653 0.493186
vt 0.438054 0.493736
vt 0.933317 0.182749
vt 0.955849 0.182749
vt 0.962441 0.188631
vt 0.955849 0.042021
vt 0.933316 0.042021
vt 0.962441 0.036139
vt 0.437208 0.513084
vt 0.437208 0.494513
vt 0.434319 0.494513
vt 0.438053 0.493736
vt 0.425831 0.513084
vt 0.428720 0.513084
vt 0.425831 0.515736
vt 0.867111 0.182749
vt 0.425831 0.494513
vt 0.867111 0.042021
vt 0.444724 0.592404
vt 0.422532 0.592404
vt 0.422532 0.551697
vt 0.444497 0.959275
vt 0.466975 0.613026
vt 0.466975 0.959275
vt 0.422532 0.449928
vt 0.045279 0.449928
vt 0.440097 0.513084
vt 0.437208 0.510431
vt 0.438054 0.513861
vt 0.438053 0.513860
vt 0.555584 0.428211
vt 0.577804 0.572853
vt 0.555584 0.572853
vt 0.577804 0.449944
vt 0.955538 0.551095
vt 0.577804 0.551095
vt 0.962448 0.036132
vt 0.978381 0.182749
vt 0.955849 0.162645
vt 0.440361 0.523070
vt 0.425567 0.501060
vt 0.440361 0.503811
vt 0.444665 0.408472
vt 0.533490 0.408472
vt 0.556045 0.428860
vt 0.510674 0.041126
vt 0.466934 0.387924
vt 0.466934 0.041126
vt 0.533241 0.041126
vt 0.510674 0.387924
vt 0.023088 0.409220
vt 0.045279 0.409220
vt 0.045279 0.409229
vt 0.437365 0.501060
vt 0.437365 0.525821
vt 0.425567 0.525821
vt 0.425831 0.515737
vt 0.977758 0.428211
vt 0.955538 0.572853
vt 0.955538 0.428211
vt 0.556257 0.020727
vt 0.533634 0.041126
vt 0.533634 0.020727
vt 0.444497 0.592658
vt 0.533022 0.613026
vt 0.444497 0.613026
vt 0.510543 0.959275
vt 0.533022 0.959275
vt 0.533022 0.979643
vt 0.444540 0.020727
vt 0.555500 0.592658
vt 0.555500 0.613026
vt 0.977758 0.593516
vt 0.977758 0.572853
vt 0.510543 0.613026
vt 0.444368 0.387924
vt 0.533241 0.408324
vt 0.444368 0.408324
vt 0.045279 0.429574
vt 0.422532 0.429574
vt 0.422532 0.409220
vt 0.444724 0.409220
vt 0.422532 0.409229
vt 0.555807 0.387924
vt 0.533241 0.387924
vt 0.577804 0.428211
vt 0.955538 0.449944
vt 0.533241 0.387924
vt 0.556257 0.041126
vt 0.533022 0.592658
vt 0.444497 0.979643
vt 0.444540 0.041126
vt 0.955538 0.593516
vt 0.555807 0.408324
s 0
usemtl Material
f 38/1/1 40/2/1 23/3/1
f 22/4/1 47/5/1 4/6/1
f 32/7/2 34/8/2 14/9/2
f 27/10/2 28/11/2 8/12/2
f 50/13/2 52/14/2 2/15/2
f 17/16/2 46/17/2 45/18/2
f 44/19/3 3/20/3 6/21/3
f 35/22/1 37/23/1 20/24/1
f 13/25/2 14/26/2 15/27/2
f 16/28/2 17/16/2 18/29/2
f 19/30/1 20/24/1 21/31/1
f 22/4/1 23/32/1 24/33/1
f 29/34/2 30/35/2 31/36/2
f 32/37/2 33/38/2 34/39/2
f 35/22/1 36/40/1 37/23/1
f 38/41/1 39/42/1 40/43/1
f 41/44/1 42/45/1 43/46/1
f 44/47/2 45/18/2 46/17/2
f 47/5/1 48/48/1 49/6/1
f 50/13/2 51/49/2 52/14/2
f 8/50/3 49/51/3 48/52/3
f 44/53/4 47/54/4 45/55/4
f 41/56/3 44/19/3 51/57/3
f 40/2/1 24/33/1 23/3/1
f 23/3/1 19/58/1 36/59/1
f 19/58/5 21/60/5 37/61/5
f 36/59/1 19/58/1 37/61/1
f 36/59/1 38/1/1 23/3/1
f 26/62/6 23/63/6 27/64/6
f 22/4/7 24/33/7 40/43/7
f 40/43/1 39/42/1 22/4/1
f 39/42/1 47/5/1 22/4/1
f 47/5/2 49/6/2 4/6/2
f 36/65/6 30/66/6 38/67/6
f 34/8/2 15/68/2 14/9/2
f 14/9/2 16/69/2 30/70/2
f 16/69/8 18/29/8 31/36/8
f 30/70/2 16/69/2 31/36/2
f 30/70/2 32/7/2 14/9/2
f 11/71/1 6/72/1 10/73/1
f 7/74/2 25/75/2 26/76/2
f 2/15/2 13/25/2 33/38/2
f 13/25/9 15/27/9 34/39/9
f 33/38/2 13/25/2 34/39/2
f 33/38/2 50/13/2 2/15/2
f 45/18/2 29/34/2 17/16/2
f 29/34/2 31/36/2 17/16/2
f 31/36/2 18/29/2 17/16/2
f 17/16/2 3/17/2 46/17/2
f 33/77/10 42/78/10 50/79/10
f 32/80/11 35/81/11 33/77/11
f 6/21/3 5/82/3 51/57/3
f 5/82/3 2/83/3 52/84/3
f 5/82/3 52/84/3 51/57/3
f 6/21/3 51/57/3 44/19/3
f 44/19/2 46/20/2 3/20/2
f 6/72/1 9/85/1 10/73/1
f 11/71/1 12/86/1 5/87/1
f 37/23/12 21/31/12 20/24/12
f 20/24/1 1/88/1 35/22/1
f 1/88/1 43/46/1 42/45/1
f 35/22/1 1/88/1 42/45/1
f 11/89/6 16/90/6 14/91/6
f 11/92/11 13/93/11 12/94/11
f 8/95/13 22/96/13 4/97/13
f 29/98/14 38/96/14 30/99/14
f 9/100/13 3/53/13 17/99/13
f 13/93/10 5/101/10 12/94/10
f 22/96/14 27/102/14 23/103/14
f 9/104/14 16/90/14 10/105/14
f 39/106/13 45/55/13 47/54/13
f 1/107/10 25/108/10 7/109/10
f 41/56/15 50/110/15 42/111/15
f 26/76/2 8/12/2 7/74/2
f 1/112/3 7/113/3 43/114/3
f 7/113/3 8/50/3 41/56/3
f 43/114/3 7/113/3 41/56/3
f 48/52/3 41/56/3 8/50/3
f 8/50/2 4/51/2 49/51/2
f 19/115/11 25/108/11 20/116/11
f 44/53/4 48/97/4 47/54/4
f 41/56/3 48/52/3 44/19/3
f 26/62/6 19/117/6 23/63/6
f 36/65/6 32/118/6 30/66/6
f 11/71/1 5/87/1 6/72/1
f 33/77/10 35/81/10 42/78/10
f 32/80/11 36/119/11 35/81/11
f 11/89/6 10/105/6 16/90/6
f 11/92/11 14/120/11 13/93/11
f 8/95/13 28/121/13 22/96/13
f 29/98/14 39/106/14 38/96/14
f 9/100/13 6/122/13 3/53/13
f 13/93/10 2/123/10 5/101/10
f 22/96/14 28/121/14 27/102/14
f 9/104/14 17/124/14 16/90/14
f 39/106/13 29/98/13 45/55/13
f 1/107/10 20/116/10 25/108/10
f 41/56/15 51/57/15 50/110/15
f 26/76/2 27/10/2 8/12/2
f 19/115/11 26/125/11 25/108/11
