# Blender 3.6.2
# www.blender.org
mtllib pillar_687x04.mtl
o Pillar
v 0.450000 0.000000 -0.362500
v 0.562500 0.000000 -0.250000
v 0.562500 0.000000 0.537500
v 0.450000 0.000000 0.650000
v -0.450000 0.000000 -0.250000
v -0.337500 0.000000 -0.362500
v -0.337500 0.000000 0.650000
v -0.450000 0.000000 0.537500
v 0.450000 0.266666 0.650000
v 0.562500 0.266666 0.537500
v 0.482950 0.266666 0.570451
v -0.450000 0.266666 0.537500
v -0.337500 0.266666 0.650000
v -0.370450 0.266666 0.570451
v 0.562500 0.266666 -0.250000
v 0.450000 0.266666 -0.362500
v 0.482950 0.266666 -0.282951
v -0.337500 0.266666 -0.362500
v -0.450000 0.266666 -0.250000
v -0.370450 0.266666 -0.282951
v 0.562500 4.799999 0.537500
v 0.450000 4.799999 0.650000
v 0.482950 4.799999 0.570451
v -0.337500 4.799999 0.650000
v -0.450000 4.799999 0.537500
v -0.370450 4.799999 0.570451
v 0.450000 4.799999 -0.362500
v 0.562500 4.799999 -0.250000
v 0.482950 4.799999 -0.282951
v -0.450000 4.799999 -0.250000
v -0.337500 4.799999 -0.362500
v -0.370450 4.799999 -0.282951
v 0.450000 5.066667 0.650000
v 0.562500 5.066667 0.537500
v -0.450000 5.066667 0.537500
v -0.337500 5.066667 0.650000
v 0.562500 5.066667 -0.250000
v 0.450000 5.066667 -0.362500
v -0.337500 5.066667 -0.362500
v -0.450000 5.066667 -0.250000
v 0.337500 0.266666 -0.250000
v 0.450000 0.266666 -0.137500
v 0.482919 0.266666 -0.282919
v 0.450000 0.266666 0.425000
v 0.337500 0.266666 0.537500
v 0.482919 0.266666 0.570419
v -0.337500 0.266666 -0.137500
v -0.225000 0.266666 -0.250000
v -0.370419 0.266666 -0.282919
v -0.225000 0.266666 0.537500
v -0.337500 0.266666 0.425000
v -0.370419 0.266666 0.570419
v 0.337500 4.799999 0.537500
v 0.450000 4.799999 0.425000
v 0.482919 4.799999 0.570419
v -0.337500 4.799999 0.425000
v -0.225000 4.799999 0.537500
v -0.370419 4.799999 0.570419
v 0.450000 4.799999 -0.137500
v 0.337500 4.799999 -0.250000
v 0.482919 4.799999 -0.282919
v -0.225000 4.799999 -0.250000
v -0.337500 4.799999 -0.137500
v -0.370419 4.799999 -0.282919
vn -0.0000 -1.0000 -0.0000
vn -0.0000 1.0000 -0.0000
vn -0.0000 -0.0000 1.0000
vn 0.7071 -0.0000 -0.7071
vn -0.0000 -0.0000 -1.0000
vn -1.0000 -0.0000 -0.0000
vn 0.7071 -0.0000 0.7071
vn 0.0083 1.0000 -0.0000
vn -0.0083 1.0000 -0.0000
vn 1.0000 -0.0000 -0.0000
vn -0.7071 -0.0000 0.7071
vn -0.7071 -0.0000 -0.7071
vt 0.892876 0.223216
vt 0.878665 0.223216
vt 0.880695 0.221186
vt 0.796096 0.204374
vt 0.796096 0.061413
vt 0.816483 0.081836
vt 0.979581 0.061413
vt 0.979581 0.204374
vt 0.959193 0.183951
vt 0.816483 0.040990
vt 0.959193 0.040990
vt 0.938806 0.061413
vt 0.959193 0.224797
vt 0.816483 0.224797
vt 0.836870 0.204374
vt 0.878665 0.204945
vt 0.892876 0.204945
vt 0.890846 0.206975
vt 0.894906 0.206975
vt 0.894906 0.221186
vt 0.892876 0.219155
vt 0.876635 0.221186
vt 0.876635 0.206975
vt 0.878665 0.209005
vt 0.969387 0.051202
vt 0.965165 0.055432
vt 0.806289 0.051202
vt 0.810512 0.055432
vt 0.969387 0.214585
vt 0.959193 0.224797
vt 0.965165 0.210355
vt 0.806289 0.214585
vt 0.810512 0.210355
vt 0.893470 0.221780
vt 0.878070 0.221780
vt 0.893470 0.206380
vt 0.878070 0.206380
vt 0.938806 0.204374
vt 0.959193 0.204374
vt 0.965159 0.210350
vt 0.959193 0.061413
vt 0.965159 0.055437
vt 0.816483 0.183951
vt 0.816483 0.204374
vt 0.810517 0.210350
vt 0.816483 0.061413
vt 0.810517 0.055437
vt 0.890846 0.221186
vt 0.893470 0.221780
vt 0.878665 0.219155
vt 0.878071 0.221780
vt 0.892876 0.209005
vt 0.893470 0.206381
vt 0.880695 0.206975
vt 0.878071 0.206381
vt 0.847222 0.722222
vt 0.825617 0.722222
vt 0.652778 0.722222
vt 0.674383 0.722222
vt 0.428859 0.020727
vt 0.571564 0.020727
vt 0.571564 0.041126
vt 0.428859 0.041126
vt 0.810512 0.055432
vt 0.550919 0.612315
vt 0.571129 0.612315
vt 0.571129 0.958247
vt 0.550919 0.958247
vt 0.799035 0.155996
vt 0.799035 0.144941
vt 0.800614 0.143362
vt 0.811669 0.143362
vt 0.813248 0.144941
vt 0.813248 0.155996
vt 0.811669 0.157575
vt 0.800614 0.157575
vt 0.408627 0.571068
vt 0.428932 0.408627
vt 0.591373 0.428932
vt 0.571068 0.591373
vt 0.550919 0.612378
vt 0.550919 0.959388
vt 0.449874 0.959388
vt 0.449874 0.612378
vt 0.387405 0.550983
vt 0.040972 0.550983
vt 0.040972 0.449161
vt 0.387405 0.449161
vt 0.428859 0.408324
vt 0.428859 0.387924
vt 0.571210 0.387924
vt 0.571210 0.408324
vt 0.965165 0.210355
vt 0.965159 0.210350
vt 0.959193 0.081836
vt 0.965165 0.055432
vt 0.550874 0.041126
vt 0.571210 0.041126
vt 0.571210 0.387924
vt 0.550874 0.387924
vt 0.591373 0.571068
vt 0.428932 0.591373
vt 0.408627 0.428932
vt 0.571068 0.408627
vt 0.836870 0.061413
vt 0.810518 0.055437
vt 0.810512 0.055432
vt 0.571128 0.591966
vt 0.571129 0.612378
vt 0.429665 0.612378
vt 0.429665 0.591966
vt 0.810518 0.210350
vt 0.407783 0.571347
vt 0.387405 0.571347
vt 0.387405 0.428797
vt 0.407783 0.428797
vt 0.652778 0.527778
vt 0.652778 0.527778
vt 0.674383 0.527778
vt 0.847222 0.527778
vt 0.825617 0.527778
vt 0.592268 0.428788
vt 0.612667 0.428788
vt 0.612667 0.572357
vt 0.592268 0.572357
vt 0.959283 0.591591
vt 0.959442 0.572357
vt 0.979841 0.572357
vt 0.979681 0.591591
vt 0.652778 0.722222
vt 0.652778 0.700617
vt 0.652778 0.527778
vt 0.652778 0.549383
vt 0.847222 0.527778
vt 0.847222 0.549383
vt 0.020594 0.428797
vt 0.020594 0.408433
vt 0.040972 0.408433
vt 0.040972 0.428797
vt 0.591950 0.041126
vt 0.591950 0.020727
vt 0.040726 0.571347
vt 0.040726 0.591711
vt 0.020594 0.591711
vt 0.020594 0.571347
vt 0.387405 0.408433
vt 0.407783 0.408433
vt 0.407783 0.591711
vt 0.387405 0.591711
vt 0.387405 0.571347
vt 0.040972 0.571347
vt 0.571129 0.979217
vt 0.429665 0.979217
vt 0.429665 0.959388
vt 0.571129 0.959388
vt 0.040972 0.428797
vt 0.387405 0.428797
vt 0.612667 0.449298
vt 0.959442 0.449298
vt 0.959442 0.551847
vt 0.612667 0.551847
vt 0.591338 0.591966
vt 0.591338 0.612315
vt 0.449194 0.387924
vt 0.449194 0.041126
vt 0.979841 0.428789
vt 0.959442 0.428789
vt 0.591545 0.387924
vt 0.591545 0.408324
vt 0.040972 0.571347
s 0
usemtl Material
f 22/1/1 24/2/1 57/3/1
f 19/4/2 12/5/2 51/6/2
f 10/7/2 15/8/2 42/9/2
f 13/10/2 9/11/2 45/12/2
f 16/13/2 18/14/2 48/15/2
f 31/16/1 27/17/1 60/18/1
f 28/19/1 21/20/1 54/21/1
f 25/22/1 30/23/1 63/24/1
f 9/11/2 10/25/2 11/26/2
f 12/5/2 13/27/2 14/28/2
f 15/29/2 16/30/2 17/31/2
f 18/32/2 19/4/2 20/33/2
f 21/20/1 22/1/1 23/34/1
f 24/2/1 25/22/1 26/35/1
f 27/17/1 28/19/1 29/36/1
f 30/23/1 31/16/1 32/37/1
f 41/38/2 42/39/2 43/40/2
f 44/41/2 45/12/2 46/42/2
f 47/43/2 48/44/2 49/45/2
f 50/46/2 51/6/2 52/47/2
f 53/48/1 54/21/1 55/49/1
f 56/50/1 57/3/1 58/51/1
f 59/52/1 60/18/1 61/53/1
f 62/54/1 63/24/1 64/55/1
f 26/56/1 58/56/1 24/57/1
f 58/51/1 57/3/1 24/2/1
f 57/3/1 53/48/1 22/1/1
f 53/48/1 55/49/1 22/1/1
f 55/58/1 23/58/1 22/59/1
f 7/60/3 4/61/3 9/62/3 13/63/3
f 14/64/2 52/47/2 12/5/2
f 52/47/2 51/6/2 12/5/2
f 51/6/2 47/43/2 19/4/2
f 47/43/2 49/45/2 19/4/2
f 49/45/2 20/33/2 19/4/2
f 60/65/4 59/66/4 42/67/4 41/68/4
f 8/69/1 5/70/1 6/71/1
f 6/71/1 1/72/1 2/73/1
f 2/73/1 3/74/1 4/75/1
f 4/75/1 7/76/1 8/69/1
f 40/77/2 36/78/2 34/79/2 38/80/2
f 60/81/5 41/82/5 48/83/5 62/84/5
f 63/85/6 47/86/6 51/87/6 56/88/6
f 36/89/3 24/90/3 22/91/3 33/92/3
f 17/93/2 43/94/2 15/8/2
f 43/94/2 42/9/2 15/8/2
f 42/9/2 44/95/2 10/7/2
f 44/95/2 46/42/2 10/7/2
f 46/42/2 11/96/2 10/7/2
f 45/97/7 44/98/7 54/99/7 53/100/7
f 34/79/2 37/101/2 38/80/2
f 38/80/2 39/102/2 40/77/2
f 40/77/2 35/103/2 36/78/2
f 36/78/2 33/104/2 34/79/2
f 11/26/8 46/42/8 9/11/8
f 46/42/2 45/12/2 9/11/2
f 45/12/2 50/105/2 13/10/2
f 50/105/2 52/106/2 13/10/2
f 52/106/9 14/107/9 13/10/9
f 38/108/5 27/109/5 31/110/5 39/111/5
f 20/33/9 49/112/9 18/14/9
f 49/112/2 48/15/2 18/14/2
f 48/15/2 41/38/2 16/13/2
f 41/38/2 43/40/2 16/13/2
f 43/40/8 17/31/8 16/13/8
f 40/113/6 30/114/6 25/115/6 35/116/6
f 29/117/1 61/118/1 27/119/1
f 61/53/1 60/18/1 27/17/1
f 60/18/1 62/54/1 31/16/1
f 62/54/1 64/55/1 31/16/1
f 64/120/1 32/120/1 31/121/1
f 34/122/10 21/123/10 28/124/10 37/125/10
f 16/126/4 15/127/4 2/128/4 1/129/4
f 23/58/1 55/130/1 21/131/1
f 55/49/1 54/21/1 21/20/1
f 54/21/1 59/52/1 28/19/1
f 59/52/1 61/53/1 28/19/1
f 61/132/1 29/132/1 28/133/1
f 32/120/1 64/134/1 30/135/1
f 64/55/1 63/24/1 30/23/1
f 63/24/1 56/50/1 25/22/1
f 56/50/1 58/51/1 25/22/1
f 58/51/1 26/35/1 25/22/1
f 8/136/11 7/137/11 13/138/11 12/139/11
f 10/140/7 9/62/7 4/61/7 3/141/7
f 19/142/12 18/143/12 6/144/12 5/145/12
f 25/115/11 24/146/11 36/147/11 35/116/11
f 40/113/12 39/148/12 31/149/12 30/114/12
f 63/85/12 62/150/12 48/151/12 47/86/12
f 2/73/1 4/75/1 8/69/1 6/71/1
f 1/152/5 6/153/5 18/154/5 16/155/5
f 51/87/11 50/156/11 57/157/11 56/88/11
f 54/158/10 44/159/10 42/160/10 59/161/10
f 38/108/4 37/162/4 28/163/4 27/66/4
f 57/164/3 50/165/3 45/97/3 53/100/3
f 3/166/10 2/128/10 15/127/10 10/167/10
f 22/91/7 21/168/7 34/169/7 33/92/7
f 5/145/6 8/136/6 12/139/6 19/170/6
