{
	"asset":{
		"generator":"Khronos glTF Blender I/O v4.4.55",
		"version":"2.0"
	},
	"scene":0,
	"scenes":[
		{
			"name":"Scene",
			"nodes":[
				0
			]
		}
	],
	"nodes":[
		{
			"mesh":0,
			"name":"planetary_path_755x00"
		}
	],
	"materials":[
		{
			"doubleSided":true,
			"name":"685_machanism",
			"pbrMetallicRoughness":{
				"baseColorTexture":{
					"index":0
				},
				"metallicFactor":0,
				"roughnessFactor":0.5
			}
		}
	],
	"meshes":[
		{
			"name":"Plane",
			"primitives":[
				{
					"attributes":{
						"POSITION":0,
						"NORMAL":1,
						"TEXCOORD_0":2
					},
					"indices":3,
					"material":0
				}
			]
		}
	],
	"textures":[
		{
			"sampler":0,
			"source":0
		}
	],
	"images":[
		{
			"mimeType":"image/png",
			"name":"685mechanism",
			"uri":"685mechanism.png"
		}
	],
	"accessors":[
		{
			"bufferView":0,
			"componentType":5126,
			"count":4880,
			"max":[
				9.576420783996582,
				0.3003207743167877,
				9.765329360961914
			],
			"min":[
				-9.6216402053833,
				-0.01766982674598694,
				-9.432730674743652
			],
			"type":"VEC3"
		},
		{
			"bufferView":1,
			"componentType":5126,
			"count":4880,
			"type":"VEC3"
		},
		{
			"bufferView":2,
			"componentType":5126,
			"count":4880,
			"type":"VEC2"
		},
		{
			"bufferView":3,
			"componentType":5123,
			"count":29160,
			"type":"SCALAR"
		}
	],
	"bufferViews":[
		{
			"buffer":0,
			"byteLength":58560,
			"byteOffset":0,
			"target":34962
		},
		{
			"buffer":0,
			"byteLength":58560,
			"byteOffset":58560,
			"target":34962
		},
		{
			"buffer":0,
			"byteLength":39040,
			"byteOffset":117120,
			"target":34962
		},
		{
			"buffer":0,
			"byteLength":58320,
			"byteOffset":156160,
			"target":34963
		}
	],
	"samplers":[
		{
			"magFilter":9728,
			"minFilter":9984
		}
	],
	"buffers":[
		{
			"byteLength":214480,
			"uri":"planetary_path_755x00.bin"
		}
	]
}
