{
	"asset":{
		"generator":"Khronos glTF Blender I/O v4.4.55",
		"version":"2.0"
	},
	"scene":0,
	"scenes":[
		{
			"name":"Scene",
			"nodes":[
				0
			]
		}
	],
	"nodes":[
		{
			"mesh":0,
			"name":"pot_944x00"
		}
	],
	"materials":[
		{
			"doubleSided":true,
			"name":"944pot",
			"pbrMetallicRoughness":{
				"baseColorTexture":{
					"index":0
				},
				"metallicFactor":0,
				"roughnessFactor":0.5
			}
		}
	],
	"meshes":[
		{
			"name":"Cylinder.028",
			"primitives":[
				{
					"attributes":{
						"POSITION":0,
						"NORMAL":1,
						"TEXCOORD_0":2,
						"TANGENT":3
					},
					"indices":4,
					"material":0
				}
			]
		}
	],
	"textures":[
		{
			"sampler":0,
			"source":0
		}
	],
	"images":[
		{
			"mimeType":"image/png",
			"name":"944pot",
			"uri":"944pot.png"
		}
	],
	"accessors":[
		{
			"bufferView":0,
			"componentType":5126,
			"count":170,
			"max":[
				-0.06305592507123947,
				0.3158305287361145,
				-0.0354236364364624
			],
			"min":[
				-1.9369441270828247,
				0.004169449210166931,
				-1.1645764112472534
			],
			"type":"VEC3"
		},
		{
			"bufferView":1,
			"componentType":5126,
			"count":170,
			"type":"VEC3"
		},
		{
			"bufferView":2,
			"componentType":5126,
			"count":170,
			"type":"VEC2"
		},
		{
			"bufferView":3,
			"componentType":5126,
			"count":170,
			"type":"VEC4"
		},
		{
			"bufferView":4,
			"componentType":5123,
			"count":276,
			"type":"SCALAR"
		}
	],
	"bufferViews":[
		{
			"buffer":0,
			"byteLength":2040,
			"byteOffset":0,
			"target":34962
		},
		{
			"buffer":0,
			"byteLength":2040,
			"byteOffset":2040,
			"target":34962
		},
		{
			"buffer":0,
			"byteLength":1360,
			"byteOffset":4080,
			"target":34962
		},
		{
			"buffer":0,
			"byteLength":2720,
			"byteOffset":5440,
			"target":34962
		},
		{
			"buffer":0,
			"byteLength":552,
			"byteOffset":8160,
			"target":34963
		}
	],
	"samplers":[
		{
			"magFilter":9728,
			"minFilter":9984
		}
	],
	"buffers":[
		{
			"byteLength":8712,
			"uri":"pot_944x00.bin"
		}
	]
}
