{
	"asset":{
		"generator":"Khronos glTF Blender I/O v4.4.55",
		"version":"2.0"
	},
	"scene":0,
	"scenes":[
		{
			"name":"Scene",
			"nodes":[
				0
			]
		}
	],
	"nodes":[
		{
			"mesh":0,
			"name":"pot_944x04"
		}
	],
	"materials":[
		{
			"doubleSided":true,
			"name":"944pot",
			"pbrMetallicRoughness":{
				"baseColorTexture":{
					"index":0
				},
				"metallicFactor":0,
				"roughnessFactor":0.5
			}
		}
	],
	"meshes":[
		{
			"name":"Cylinder.032",
			"primitives":[
				{
					"attributes":{
						"POSITION":0,
						"NORMAL":1,
						"TEXCOORD_0":2,
						"TANGENT":3
					},
					"indices":4,
					"material":0
				}
			]
		}
	],
	"textures":[
		{
			"sampler":0,
			"source":0
		}
	],
	"images":[
		{
			"mimeType":"image/png",
			"name":"944pot",
			"uri":"944pot.png"
		}
	],
	"accessors":[
		{
			"bufferView":0,
			"componentType":5126,
			"count":341,
			"max":[
				-0.02447172999382019,
				0.6500000357627869,
				0
			],
			"min":[
				-0.9755282402038574,
				0,
				-1
			],
			"type":"VEC3"
		},
		{
			"bufferView":1,
			"componentType":5126,
			"count":341,
			"type":"VEC3"
		},
		{
			"bufferView":2,
			"componentType":5126,
			"count":341,
			"type":"VEC2"
		},
		{
			"bufferView":3,
			"componentType":5126,
			"count":341,
			"type":"VEC4"
		},
		{
			"bufferView":4,
			"componentType":5123,
			"count":528,
			"type":"SCALAR"
		}
	],
	"bufferViews":[
		{
			"buffer":0,
			"byteLength":4092,
			"byteOffset":0,
			"target":34962
		},
		{
			"buffer":0,
			"byteLength":4092,
			"byteOffset":4092,
			"target":34962
		},
		{
			"buffer":0,
			"byteLength":2728,
			"byteOffset":8184,
			"target":34962
		},
		{
			"buffer":0,
			"byteLength":5456,
			"byteOffset":10912,
			"target":34962
		},
		{
			"buffer":0,
			"byteLength":1056,
			"byteOffset":16368,
			"target":34963
		}
	],
	"samplers":[
		{
			"magFilter":9728,
			"minFilter":9984
		}
	],
	"buffers":[
		{
			"byteLength":17424,
			"uri":"pot_944x04.bin"
		}
	]
}
