{
	"asset":{
		"generator":"Khronos glTF Blender I/O v4.4.55",
		"version":"2.0"
	},
	"scene":0,
	"scenes":[
		{
			"name":"Scene",
			"nodes":[
				0
			]
		}
	],
	"nodes":[
		{
			"mesh":0,
			"name":"potions_340x00"
		}
	],
	"materials":[
		{
			"doubleSided":true,
			"name":"potions_340",
			"pbrMetallicRoughness":{
				"baseColorTexture":{
					"index":0
				},
				"metallicFactor":0,
				"roughnessFactor":0.5
			}
		},
		{
			"alphaMode":"BLEND",
			"doubleSided":true,
			"name":"glass",
			"pbrMetallicRoughness":{
				"baseColorFactor":[
					1,
					1,
					1,
					0.29999998211860657
				],
				"baseColorTexture":{
					"index":1
				},
				"metallicFactor":0,
				"roughnessFactor":0.5
			}
		}
	],
	"meshes":[
		{
			"name":"Icosphere",
			"primitives":[
				{
					"attributes":{
						"POSITION":0,
						"NORMAL":1,
						"TEXCOORD_0":2
					},
					"indices":3,
					"material":0
				},
				{
					"attributes":{
						"POSITION":4,
						"NORMAL":5,
						"TEXCOORD_0":6
					},
					"indices":7,
					"material":1
				}
			]
		}
	],
	"textures":[
		{
			"sampler":0,
			"source":0
		},
		{
			"sampler":0,
			"source":1
		}
	],
	"images":[
		{
			"mimeType":"image/png",
			"name":"340potions",
			"uri":"340potions.png"
		},
		{
			"mimeType":"image/png",
			"name":"887test_tubes",
			"uri":"887test_tubes.png"
		}
	],
	"accessors":[
		{
			"bufferView":0,
			"componentType":5126,
			"count":299,
			"max":[
				0.22754104435443878,
				0.9484487771987915,
				0.23925046622753143
			],
			"min":[
				-0.22754105925559998,
				0.022667348384857178,
				-0.23925046622753143
			],
			"type":"VEC3"
		},
		{
			"bufferView":1,
			"componentType":5126,
			"count":299,
			"type":"VEC3"
		},
		{
			"bufferView":2,
			"componentType":5126,
			"count":299,
			"type":"VEC2"
		},
		{
			"bufferView":3,
			"componentType":5123,
			"count":360,
			"type":"SCALAR"
		},
		{
			"bufferView":4,
			"componentType":5126,
			"count":282,
			"max":[
				0.24848058819770813,
				0.8323623538017273,
				0.2612675726413727
			],
			"min":[
				-0.24848061800003052,
				0.0011872351169586182,
				-0.2612675726413727
			],
			"type":"VEC3"
		},
		{
			"bufferView":5,
			"componentType":5126,
			"count":282,
			"type":"VEC3"
		},
		{
			"bufferView":6,
			"componentType":5126,
			"count":282,
			"type":"VEC2"
		},
		{
			"bufferView":7,
			"componentType":5123,
			"count":294,
			"type":"SCALAR"
		}
	],
	"bufferViews":[
		{
			"buffer":0,
			"byteLength":3588,
			"byteOffset":0,
			"target":34962
		},
		{
			"buffer":0,
			"byteLength":3588,
			"byteOffset":3588,
			"target":34962
		},
		{
			"buffer":0,
			"byteLength":2392,
			"byteOffset":7176,
			"target":34962
		},
		{
			"buffer":0,
			"byteLength":720,
			"byteOffset":9568,
			"target":34963
		},
		{
			"buffer":0,
			"byteLength":3384,
			"byteOffset":10288,
			"target":34962
		},
		{
			"buffer":0,
			"byteLength":3384,
			"byteOffset":13672,
			"target":34962
		},
		{
			"buffer":0,
			"byteLength":2256,
			"byteOffset":17056,
			"target":34962
		},
		{
			"buffer":0,
			"byteLength":588,
			"byteOffset":19312,
			"target":34963
		}
	],
	"samplers":[
		{
			"magFilter":9728,
			"minFilter":9984
		}
	],
	"buffers":[
		{
			"byteLength":19900,
			"uri":"potions_340x00.bin"
		}
	]
}
