{
	"asset":{
		"generator":"Khronos glTF Blender I/O v4.4.55",
		"version":"2.0"
	},
	"scene":0,
	"scenes":[
		{
			"name":"Scene",
			"nodes":[
				12
			]
		}
	],
	"nodes":[
		{
			"name":"Bone"
		},
		{
			"name":"Bone1",
			"translation":[
				-0.008595463819801807,
				0.1676115244626999,
				2.2520090681155125e-08
			]
		},
		{
			"name":"Bone2",
			"translation":[
				-1.9965946674346924,
				0,
				0
			]
		},
		{
			"name":"Bone3",
			"translation":[
				1.998733401298523,
				0,
				0
			]
		},
		{
			"name":"Bone4",
			"translation":[
				-0.9286073446273804,
				0,
				0
			]
		},
		{
			"name":"Bone5",
			"translation":[
				1.2000986337661743,
				0,
				0
			]
		},
		{
			"mesh":0,
			"name":"Base",
			"skin":0
		},
		{
			"mesh":1,
			"name":"bonk",
			"skin":0
		},
		{
			"mesh":2,
			"name":"curtainleft",
			"skin":0
		},
		{
			"mesh":3,
			"name":"curtainright",
			"skin":0
		},
		{
			"mesh":4,
			"name":"puppet1",
			"skin":0
		},
		{
			"mesh":5,
			"name":"puppet2",
			"skin":0
		},
		{
			"children":[
				6,
				7,
				8,
				9,
				10,
				11,
				0,
				1,
				2,
				3,
				4,
				5
			],
			"name":"Armature"
		}
	],
	"animations":[
		{
			"channels":[
				{
					"sampler":0,
					"target":{
						"node":0,
						"path":"translation"
					}
				},
				{
					"sampler":1,
					"target":{
						"node":0,
						"path":"rotation"
					}
				},
				{
					"sampler":2,
					"target":{
						"node":0,
						"path":"scale"
					}
				},
				{
					"sampler":3,
					"target":{
						"node":1,
						"path":"translation"
					}
				},
				{
					"sampler":4,
					"target":{
						"node":1,
						"path":"rotation"
					}
				},
				{
					"sampler":5,
					"target":{
						"node":1,
						"path":"scale"
					}
				},
				{
					"sampler":6,
					"target":{
						"node":2,
						"path":"translation"
					}
				},
				{
					"sampler":7,
					"target":{
						"node":2,
						"path":"rotation"
					}
				},
				{
					"sampler":8,
					"target":{
						"node":2,
						"path":"scale"
					}
				},
				{
					"sampler":9,
					"target":{
						"node":3,
						"path":"translation"
					}
				},
				{
					"sampler":10,
					"target":{
						"node":3,
						"path":"rotation"
					}
				},
				{
					"sampler":11,
					"target":{
						"node":3,
						"path":"scale"
					}
				},
				{
					"sampler":12,
					"target":{
						"node":4,
						"path":"translation"
					}
				},
				{
					"sampler":13,
					"target":{
						"node":4,
						"path":"rotation"
					}
				},
				{
					"sampler":14,
					"target":{
						"node":4,
						"path":"scale"
					}
				},
				{
					"sampler":15,
					"target":{
						"node":5,
						"path":"translation"
					}
				},
				{
					"sampler":16,
					"target":{
						"node":5,
						"path":"rotation"
					}
				},
				{
					"sampler":17,
					"target":{
						"node":5,
						"path":"scale"
					}
				}
			],
			"name":"idle",
			"samplers":[
				{
					"input":36,
					"interpolation":"LINEAR",
					"output":37
				},
				{
					"input":36,
					"interpolation":"LINEAR",
					"output":38
				},
				{
					"input":36,
					"interpolation":"LINEAR",
					"output":39
				},
				{
					"input":36,
					"interpolation":"LINEAR",
					"output":40
				},
				{
					"input":36,
					"interpolation":"LINEAR",
					"output":41
				},
				{
					"input":36,
					"interpolation":"LINEAR",
					"output":42
				},
				{
					"input":36,
					"interpolation":"LINEAR",
					"output":43
				},
				{
					"input":36,
					"interpolation":"LINEAR",
					"output":44
				},
				{
					"input":36,
					"interpolation":"LINEAR",
					"output":45
				},
				{
					"input":36,
					"interpolation":"LINEAR",
					"output":46
				},
				{
					"input":36,
					"interpolation":"LINEAR",
					"output":47
				},
				{
					"input":36,
					"interpolation":"LINEAR",
					"output":48
				},
				{
					"input":36,
					"interpolation":"LINEAR",
					"output":49
				},
				{
					"input":36,
					"interpolation":"LINEAR",
					"output":50
				},
				{
					"input":36,
					"interpolation":"LINEAR",
					"output":51
				},
				{
					"input":36,
					"interpolation":"LINEAR",
					"output":52
				},
				{
					"input":36,
					"interpolation":"LINEAR",
					"output":53
				},
				{
					"input":36,
					"interpolation":"LINEAR",
					"output":54
				}
			]
		}
	],
	"materials":[
		{
			"doubleSided":true,
			"name":"Material",
			"pbrMetallicRoughness":{
				"baseColorTexture":{
					"index":0
				},
				"metallicFactor":0,
				"roughnessFactor":0.5
			}
		}
	],
	"meshes":[
		{
			"name":"Cube.001",
			"primitives":[
				{
					"attributes":{
						"POSITION":0,
						"NORMAL":1,
						"TEXCOORD_0":2,
						"JOINTS_0":3,
						"WEIGHTS_0":4
					},
					"indices":5,
					"material":0
				}
			]
		},
		{
			"name":"Cube.004",
			"primitives":[
				{
					"attributes":{
						"POSITION":7,
						"NORMAL":8,
						"TEXCOORD_0":9,
						"JOINTS_0":10,
						"WEIGHTS_0":11
					},
					"indices":12,
					"material":0
				}
			]
		},
		{
			"name":"Plane",
			"primitives":[
				{
					"attributes":{
						"POSITION":13,
						"NORMAL":14,
						"TEXCOORD_0":15,
						"JOINTS_0":16,
						"WEIGHTS_0":17
					},
					"indices":18,
					"material":0
				}
			]
		},
		{
			"name":"Plane.001",
			"primitives":[
				{
					"attributes":{
						"POSITION":19,
						"NORMAL":20,
						"TEXCOORD_0":21,
						"JOINTS_0":22,
						"WEIGHTS_0":23
					},
					"indices":18,
					"material":0
				}
			]
		},
		{
			"name":"Cube.002",
			"primitives":[
				{
					"attributes":{
						"POSITION":24,
						"NORMAL":25,
						"TEXCOORD_0":26,
						"JOINTS_0":27,
						"WEIGHTS_0":28
					},
					"indices":29,
					"material":0
				}
			]
		},
		{
			"name":"Cube.003",
			"primitives":[
				{
					"attributes":{
						"POSITION":30,
						"NORMAL":31,
						"TEXCOORD_0":32,
						"JOINTS_0":33,
						"WEIGHTS_0":34
					},
					"indices":35,
					"material":0
				}
			]
		}
	],
	"textures":[
		{
			"sampler":0,
			"source":0
		}
	],
	"images":[
		{
			"mimeType":"image/png",
			"name":"503puppet_show",
			"uri":"503puppet_show.png"
		}
	],
	"skins":[
		{
			"inverseBindMatrices":6,
			"joints":[
				0,
				1,
				2,
				3,
				4,
				5
			],
			"name":"Armature"
		}
	],
	"accessors":[
		{
			"bufferView":0,
			"componentType":5126,
			"count":258,
			"max":[
				2.5,
				4.988813877105713,
				0.5
			],
			"min":[
				-2.5,
				-0.011186003684997559,
				-0.5
			],
			"type":"VEC3"
		},
		{
			"bufferView":1,
			"componentType":5126,
			"count":258,
			"type":"VEC3"
		},
		{
			"bufferView":2,
			"componentType":5126,
			"count":258,
			"type":"VEC2"
		},
		{
			"bufferView":3,
			"componentType":5121,
			"count":258,
			"type":"VEC4"
		},
		{
			"bufferView":4,
			"componentType":5126,
			"count":258,
			"type":"VEC4"
		},
		{
			"bufferView":5,
			"componentType":5123,
			"count":546,
			"type":"SCALAR"
		},
		{
			"bufferView":6,
			"componentType":5126,
			"count":6,
			"type":"MAT4"
		},
		{
			"bufferView":7,
			"componentType":5126,
			"count":192,
			"max":[
				0.5742244720458984,
				1.273963451385498,
				0.20751795172691345
			],
			"min":[
				-0.6249440312385559,
				0.06782913208007812,
				0.0256030410528183
			],
			"type":"VEC3"
		},
		{
			"bufferView":8,
			"componentType":5126,
			"count":192,
			"type":"VEC3"
		},
		{
			"bufferView":9,
			"componentType":5126,
			"count":192,
			"type":"VEC2"
		},
		{
			"bufferView":10,
			"componentType":5121,
			"count":192,
			"type":"VEC4"
		},
		{
			"bufferView":11,
			"componentType":5126,
			"count":192,
			"type":"VEC4"
		},
		{
			"bufferView":12,
			"componentType":5123,
			"count":468,
			"type":"SCALAR"
		},
		{
			"bufferView":13,
			"componentType":5126,
			"count":48,
			"max":[
				1.0633331864892898e-15,
				4.490407466888428,
				0.29841962456703186
			],
			"min":[
				-1.9983808994293213,
				1.3050860166549683,
				0.2984195053577423
			],
			"type":"VEC3"
		},
		{
			"bufferView":14,
			"componentType":5126,
			"count":48,
			"type":"VEC3"
		},
		{
			"bufferView":15,
			"componentType":5126,
			"count":48,
			"type":"VEC2"
		},
		{
			"bufferView":16,
			"componentType":5121,
			"count":48,
			"type":"VEC4"
		},
		{
			"bufferView":17,
			"componentType":5126,
			"count":48,
			"type":"VEC4"
		},
		{
			"bufferView":18,
			"componentType":5123,
			"count":72,
			"type":"SCALAR"
		},
		{
			"bufferView":19,
			"componentType":5126,
			"count":48,
			"max":[
				1.9937107563018799,
				4.490407466888428,
				0.29841962456703186
			],
			"min":[
				7.450580596923828e-09,
				1.3050860166549683,
				0.2984195053577423
			],
			"type":"VEC3"
		},
		{
			"bufferView":20,
			"componentType":5126,
			"count":48,
			"type":"VEC3"
		},
		{
			"bufferView":21,
			"componentType":5126,
			"count":48,
			"type":"VEC2"
		},
		{
			"bufferView":22,
			"componentType":5121,
			"count":48,
			"type":"VEC4"
		},
		{
			"bufferView":23,
			"componentType":5126,
			"count":48,
			"type":"VEC4"
		},
		{
			"bufferView":24,
			"componentType":5126,
			"count":180,
			"max":[
				-0.673599898815155,
				2.703413724899292,
				0.07674926519393921
			],
			"min":[
				-1.7104512453079224,
				0.890288233757019,
				-0.07674890756607056
			],
			"type":"VEC3"
		},
		{
			"bufferView":25,
			"componentType":5126,
			"count":180,
			"type":"VEC3"
		},
		{
			"bufferView":26,
			"componentType":5126,
			"count":180,
			"type":"VEC2"
		},
		{
			"bufferView":27,
			"componentType":5121,
			"count":180,
			"type":"VEC4"
		},
		{
			"bufferView":28,
			"componentType":5126,
			"count":180,
			"type":"VEC4"
		},
		{
			"bufferView":29,
			"componentType":5123,
			"count":492,
			"type":"SCALAR"
		},
		{
			"bufferView":30,
			"componentType":5126,
			"count":174,
			"max":[
				2.1347787380218506,
				2.6896018981933594,
				0.1129128709435463
			],
			"min":[
				0.7461382150650024,
				0.8631609678268433,
				-0.11291251331567764
			],
			"type":"VEC3"
		},
		{
			"bufferView":31,
			"componentType":5126,
			"count":174,
			"type":"VEC3"
		},
		{
			"bufferView":32,
			"componentType":5126,
			"count":174,
			"type":"VEC2"
		},
		{
			"bufferView":33,
			"componentType":5121,
			"count":174,
			"type":"VEC4"
		},
		{
			"bufferView":34,
			"componentType":5126,
			"count":174,
			"type":"VEC4"
		},
		{
			"bufferView":35,
			"componentType":5123,
			"count":432,
			"type":"SCALAR"
		},
		{
			"bufferView":36,
			"componentType":5126,
			"count":101,
			"max":[
				4.166666666666667
			],
			"min":[
				0
			],
			"type":"SCALAR"
		},
		{
			"bufferView":37,
			"componentType":5126,
			"count":101,
			"type":"VEC3"
		},
		{
			"bufferView":38,
			"componentType":5126,
			"count":101,
			"type":"VEC4"
		},
		{
			"bufferView":39,
			"componentType":5126,
			"count":101,
			"type":"VEC3"
		},
		{
			"bufferView":40,
			"componentType":5126,
			"count":101,
			"type":"VEC3"
		},
		{
			"bufferView":41,
			"componentType":5126,
			"count":101,
			"type":"VEC4"
		},
		{
			"bufferView":42,
			"componentType":5126,
			"count":101,
			"type":"VEC3"
		},
		{
			"bufferView":43,
			"componentType":5126,
			"count":101,
			"type":"VEC3"
		},
		{
			"bufferView":44,
			"componentType":5126,
			"count":101,
			"type":"VEC4"
		},
		{
			"bufferView":45,
			"componentType":5126,
			"count":101,
			"type":"VEC3"
		},
		{
			"bufferView":46,
			"componentType":5126,
			"count":101,
			"type":"VEC3"
		},
		{
			"bufferView":47,
			"componentType":5126,
			"count":101,
			"type":"VEC4"
		},
		{
			"bufferView":48,
			"componentType":5126,
			"count":101,
			"type":"VEC3"
		},
		{
			"bufferView":49,
			"componentType":5126,
			"count":101,
			"type":"VEC3"
		},
		{
			"bufferView":50,
			"componentType":5126,
			"count":101,
			"type":"VEC4"
		},
		{
			"bufferView":51,
			"componentType":5126,
			"count":101,
			"type":"VEC3"
		},
		{
			"bufferView":52,
			"componentType":5126,
			"count":101,
			"type":"VEC3"
		},
		{
			"bufferView":53,
			"componentType":5126,
			"count":101,
			"type":"VEC4"
		},
		{
			"bufferView":54,
			"componentType":5126,
			"count":101,
			"type":"VEC3"
		}
	],
	"bufferViews":[
		{
			"buffer":0,
			"byteLength":3096,
			"byteOffset":0,
			"target":34962
		},
		{
			"buffer":0,
			"byteLength":3096,
			"byteOffset":3096,
			"target":34962
		},
		{
			"buffer":0,
			"byteLength":2064,
			"byteOffset":6192,
			"target":34962
		},
		{
			"buffer":0,
			"byteLength":1032,
			"byteOffset":8256,
			"target":34962
		},
		{
			"buffer":0,
			"byteLength":4128,
			"byteOffset":9288,
			"target":34962
		},
		{
			"buffer":0,
			"byteLength":1092,
			"byteOffset":13416,
			"target":34963
		},
		{
			"buffer":0,
			"byteLength":384,
			"byteOffset":14508
		},
		{
			"buffer":0,
			"byteLength":2304,
			"byteOffset":14892,
			"target":34962
		},
		{
			"buffer":0,
			"byteLength":2304,
			"byteOffset":17196,
			"target":34962
		},
		{
			"buffer":0,
			"byteLength":1536,
			"byteOffset":19500,
			"target":34962
		},
		{
			"buffer":0,
			"byteLength":768,
			"byteOffset":21036,
			"target":34962
		},
		{
			"buffer":0,
			"byteLength":3072,
			"byteOffset":21804,
			"target":34962
		},
		{
			"buffer":0,
			"byteLength":936,
			"byteOffset":24876,
			"target":34963
		},
		{
			"buffer":0,
			"byteLength":576,
			"byteOffset":25812,
			"target":34962
		},
		{
			"buffer":0,
			"byteLength":576,
			"byteOffset":26388,
			"target":34962
		},
		{
			"buffer":0,
			"byteLength":384,
			"byteOffset":26964,
			"target":34962
		},
		{
			"buffer":0,
			"byteLength":192,
			"byteOffset":27348,
			"target":34962
		},
		{
			"buffer":0,
			"byteLength":768,
			"byteOffset":27540,
			"target":34962
		},
		{
			"buffer":0,
			"byteLength":144,
			"byteOffset":28308,
			"target":34963
		},
		{
			"buffer":0,
			"byteLength":576,
			"byteOffset":28452,
			"target":34962
		},
		{
			"buffer":0,
			"byteLength":576,
			"byteOffset":29028,
			"target":34962
		},
		{
			"buffer":0,
			"byteLength":384,
			"byteOffset":29604,
			"target":34962
		},
		{
			"buffer":0,
			"byteLength":192,
			"byteOffset":29988,
			"target":34962
		},
		{
			"buffer":0,
			"byteLength":768,
			"byteOffset":30180,
			"target":34962
		},
		{
			"buffer":0,
			"byteLength":2160,
			"byteOffset":30948,
			"target":34962
		},
		{
			"buffer":0,
			"byteLength":2160,
			"byteOffset":33108,
			"target":34962
		},
		{
			"buffer":0,
			"byteLength":1440,
			"byteOffset":35268,
			"target":34962
		},
		{
			"buffer":0,
			"byteLength":720,
			"byteOffset":36708,
			"target":34962
		},
		{
			"buffer":0,
			"byteLength":2880,
			"byteOffset":37428,
			"target":34962
		},
		{
			"buffer":0,
			"byteLength":984,
			"byteOffset":40308,
			"target":34963
		},
		{
			"buffer":0,
			"byteLength":2088,
			"byteOffset":41292,
			"target":34962
		},
		{
			"buffer":0,
			"byteLength":2088,
			"byteOffset":43380,
			"target":34962
		},
		{
			"buffer":0,
			"byteLength":1392,
			"byteOffset":45468,
			"target":34962
		},
		{
			"buffer":0,
			"byteLength":696,
			"byteOffset":46860,
			"target":34962
		},
		{
			"buffer":0,
			"byteLength":2784,
			"byteOffset":47556,
			"target":34962
		},
		{
			"buffer":0,
			"byteLength":864,
			"byteOffset":50340,
			"target":34963
		},
		{
			"buffer":0,
			"byteLength":404,
			"byteOffset":51204
		},
		{
			"buffer":0,
			"byteLength":1212,
			"byteOffset":51608
		},
		{
			"buffer":0,
			"byteLength":1616,
			"byteOffset":52820
		},
		{
			"buffer":0,
			"byteLength":1212,
			"byteOffset":54436
		},
		{
			"buffer":0,
			"byteLength":1212,
			"byteOffset":55648
		},
		{
			"buffer":0,
			"byteLength":1616,
			"byteOffset":56860
		},
		{
			"buffer":0,
			"byteLength":1212,
			"byteOffset":58476
		},
		{
			"buffer":0,
			"byteLength":1212,
			"byteOffset":59688
		},
		{
			"buffer":0,
			"byteLength":1616,
			"byteOffset":60900
		},
		{
			"buffer":0,
			"byteLength":1212,
			"byteOffset":62516
		},
		{
			"buffer":0,
			"byteLength":1212,
			"byteOffset":63728
		},
		{
			"buffer":0,
			"byteLength":1616,
			"byteOffset":64940
		},
		{
			"buffer":0,
			"byteLength":1212,
			"byteOffset":66556
		},
		{
			"buffer":0,
			"byteLength":1212,
			"byteOffset":67768
		},
		{
			"buffer":0,
			"byteLength":1616,
			"byteOffset":68980
		},
		{
			"buffer":0,
			"byteLength":1212,
			"byteOffset":70596
		},
		{
			"buffer":0,
			"byteLength":1212,
			"byteOffset":71808
		},
		{
			"buffer":0,
			"byteLength":1616,
			"byteOffset":73020
		},
		{
			"buffer":0,
			"byteLength":1212,
			"byteOffset":74636
		}
	],
	"samplers":[
		{
			"magFilter":9728,
			"minFilter":9984
		}
	],
	"buffers":[
		{
			"byteLength":75848,
			"uri":"puppetshow_503x00.bin"
		}
	]
}
