{
	"asset":{
		"generator":"Khronos glTF Blender I/O v4.4.55",
		"version":"2.0"
	},
	"scene":0,
	"scenes":[
		{
			"name":"Scene",
			"nodes":[
				0
			]
		}
	],
	"nodes":[
		{
			"mesh":0,
			"name":"RatRace_763x0"
		}
	],
	"materials":[
		{
			"doubleSided":true,
			"name":"RatRace",
			"pbrMetallicRoughness":{
				"baseColorTexture":{
					"index":0
				},
				"metallicFactor":0,
				"roughnessFactor":0.5
			}
		},
		{
			"doubleSided":true,
			"name":"TriplesNumbers",
			"pbrMetallicRoughness":{
				"baseColorTexture":{
					"index":1
				},
				"metallicFactor":0,
				"roughnessFactor":0.5
			}
		}
	],
	"meshes":[
		{
			"name":"RatRace",
			"primitives":[
				{
					"attributes":{
						"POSITION":0,
						"TEXCOORD_0":1
					},
					"indices":2,
					"material":0
				},
				{
					"attributes":{
						"POSITION":3,
						"TEXCOORD_0":4
					},
					"indices":5,
					"material":1
				}
			]
		}
	],
	"textures":[
		{
			"sampler":0,
			"source":0
		},
		{
			"sampler":0,
			"source":1
		}
	],
	"images":[
		{
			"mimeType":"image/png",
			"name":"763the_rat_race_game",
			"uri":"763the_rat_race_game.png"
		},
		{
			"mimeType":"image/png",
			"name":"814the_triples_game",
			"uri":"814the_triples_game.png"
		}
	],
	"accessors":[
		{
			"bufferView":0,
			"componentType":5126,
			"count":236,
			"max":[
				0,
				1.9580838680267334,
				0
			],
			"min":[
				-8,
				1.5580838918685913,
				-4
			],
			"type":"VEC3"
		},
		{
			"bufferView":1,
			"componentType":5126,
			"count":236,
			"type":"VEC2"
		},
		{
			"bufferView":2,
			"componentType":5123,
			"count":888,
			"type":"SCALAR"
		},
		{
			"bufferView":3,
			"componentType":5126,
			"count":616,
			"max":[
				-0.1463843137025833,
				1.4821105003356934,
				-0.14638423919677734
			],
			"min":[
				-7.853615760803223,
				-0.082111656665802,
				-3.7536163330078125
			],
			"type":"VEC3"
		},
		{
			"bufferView":4,
			"componentType":5126,
			"count":616,
			"type":"VEC2"
		},
		{
			"bufferView":5,
			"componentType":5123,
			"count":1296,
			"type":"SCALAR"
		}
	],
	"bufferViews":[
		{
			"buffer":0,
			"byteLength":2832,
			"byteOffset":0,
			"target":34962
		},
		{
			"buffer":0,
			"byteLength":1888,
			"byteOffset":2832,
			"target":34962
		},
		{
			"buffer":0,
			"byteLength":1776,
			"byteOffset":4720,
			"target":34963
		},
		{
			"buffer":0,
			"byteLength":7392,
			"byteOffset":6496,
			"target":34962
		},
		{
			"buffer":0,
			"byteLength":4928,
			"byteOffset":13888,
			"target":34962
		},
		{
			"buffer":0,
			"byteLength":2592,
			"byteOffset":18816,
			"target":34963
		}
	],
	"samplers":[
		{
			"magFilter":9728,
			"minFilter":9984
		}
	],
	"buffers":[
		{
			"byteLength":21408,
			"uri":"ratrace_763x00.bin"
		}
	]
}
