{
	"asset":{
		"generator":"Khronos glTF Blender I/O v4.4.55",
		"version":"2.0"
	},
	"scene":0,
	"scenes":[
		{
			"name":"Scene",
			"nodes":[
				0
			]
		}
	],
	"nodes":[
		{
			"mesh":0,
			"name":"Rock_341x08"
		}
	],
	"materials":[
		{
			"doubleSided":true,
			"name":"rock_01",
			"pbrMetallicRoughness":{
				"baseColorTexture":{
					"index":0
				},
				"metallicFactor":0,
				"roughnessFactor":0.5
			}
		}
	],
	"meshes":[
		{
			"name":"Plane.011",
			"primitives":[
				{
					"attributes":{
						"POSITION":0,
						"TEXCOORD_0":1
					},
					"indices":2,
					"material":0
				}
			]
		}
	],
	"textures":[
		{
			"sampler":0,
			"source":0
		}
	],
	"images":[
		{
			"mimeType":"image/png",
			"name":"341rock",
			"uri":"341rock.png"
		}
	],
	"accessors":[
		{
			"bufferView":0,
			"componentType":5126,
			"count":184,
			"max":[
				-0.07066559791564941,
				1.3261353969573975,
				-0.16632449626922607
			],
			"min":[
				-2.389925718307495,
				-1.8160810100198432e-07,
				-1.9147998094558716
			],
			"type":"VEC3"
		},
		{
			"bufferView":1,
			"componentType":5126,
			"count":184,
			"type":"VEC2"
		},
		{
			"bufferView":2,
			"componentType":5123,
			"count":1092,
			"type":"SCALAR"
		}
	],
	"bufferViews":[
		{
			"buffer":0,
			"byteLength":2208,
			"byteOffset":0,
			"target":34962
		},
		{
			"buffer":0,
			"byteLength":1472,
			"byteOffset":2208,
			"target":34962
		},
		{
			"buffer":0,
			"byteLength":2184,
			"byteOffset":3680,
			"target":34963
		}
	],
	"samplers":[
		{
			"magFilter":9728,
			"minFilter":9984
		}
	],
	"buffers":[
		{
			"byteLength":5864,
			"uri":"Rock_341x08.bin"
		}
	]
}
