{
	"asset":{
		"generator":"Khronos glTF Blender I/O v4.4.55",
		"version":"2.0"
	},
	"scene":0,
	"scenes":[
		{
			"name":"Scene",
			"nodes":[
				0
			]
		}
	],
	"nodes":[
		{
			"mesh":0,
			"name":"Rock_341x05"
		}
	],
	"materials":[
		{
			"doubleSided":true,
			"name":"rock_01",
			"pbrMetallicRoughness":{
				"baseColorTexture":{
					"index":0
				},
				"metallicFactor":0,
				"roughnessFactor":0.5
			}
		}
	],
	"meshes":[
		{
			"name":"Plane.009",
			"primitives":[
				{
					"attributes":{
						"POSITION":0,
						"TEXCOORD_0":1
					},
					"indices":2,
					"material":0
				}
			]
		}
	],
	"textures":[
		{
			"sampler":0,
			"source":0
		}
	],
	"images":[
		{
			"mimeType":"image/png",
			"name":"341rock",
			"uri":"341rock.png"
		}
	],
	"accessors":[
		{
			"bufferView":0,
			"componentType":5126,
			"count":194,
			"max":[
				-0.0869598388671875,
				0.7502986788749695,
				-0.09930813312530518
			],
			"min":[
				-1.7209233045578003,
				0.008131518959999084,
				-1.6723920106887817
			],
			"type":"VEC3"
		},
		{
			"bufferView":1,
			"componentType":5126,
			"count":194,
			"type":"VEC2"
		},
		{
			"bufferView":2,
			"componentType":5123,
			"count":864,
			"type":"SCALAR"
		}
	],
	"bufferViews":[
		{
			"buffer":0,
			"byteLength":2328,
			"byteOffset":0,
			"target":34962
		},
		{
			"buffer":0,
			"byteLength":1552,
			"byteOffset":2328,
			"target":34962
		},
		{
			"buffer":0,
			"byteLength":1728,
			"byteOffset":3880,
			"target":34963
		}
	],
	"samplers":[
		{
			"magFilter":9728,
			"minFilter":9984
		}
	],
	"buffers":[
		{
			"byteLength":5608,
			"uri":"Rock_341x05.bin"
		}
	]
}
