{
	"asset":{
		"generator":"Khronos glTF Blender I/O v4.4.55",
		"version":"2.0"
	},
	"scene":0,
	"scenes":[
		{
			"name":"Scene",
			"nodes":[
				0
			]
		}
	],
	"nodes":[
		{
			"mesh":0,
			"name":"Rock_331x00"
		}
	],
	"materials":[
		{
			"doubleSided":true,
			"name":"rock_00",
			"pbrMetallicRoughness":{
				"baseColorTexture":{
					"index":0
				},
				"metallicFactor":0,
				"roughnessFactor":0.5
			}
		}
	],
	"meshes":[
		{
			"name":"Plane.023",
			"primitives":[
				{
					"attributes":{
						"POSITION":0,
						"TEXCOORD_0":1
					},
					"indices":2,
					"material":0
				}
			]
		}
	],
	"textures":[
		{
			"sampler":0,
			"source":0
		}
	],
	"images":[
		{
			"mimeType":"image/png",
			"name":"331rock",
			"uri":"331rock.png"
		}
	],
	"accessors":[
		{
			"bufferView":0,
			"componentType":5126,
			"count":412,
			"max":[
				1.4336721897125244,
				0.42928096652030945,
				0.9445192813873291
			],
			"min":[
				0.012981176376342773,
				0.01846586912870407,
				0.011708974838256836
			],
			"type":"VEC3"
		},
		{
			"bufferView":1,
			"componentType":5126,
			"count":412,
			"type":"VEC2"
		},
		{
			"bufferView":2,
			"componentType":5123,
			"count":2460,
			"type":"SCALAR"
		}
	],
	"bufferViews":[
		{
			"buffer":0,
			"byteLength":4944,
			"byteOffset":0,
			"target":34962
		},
		{
			"buffer":0,
			"byteLength":3296,
			"byteOffset":4944,
			"target":34962
		},
		{
			"buffer":0,
			"byteLength":4920,
			"byteOffset":8240,
			"target":34963
		}
	],
	"samplers":[
		{
			"magFilter":9728,
			"minFilter":9984
		}
	],
	"buffers":[
		{
			"byteLength":13160,
			"uri":"Rock_331x00.bin"
		}
	]
}
