{
	"asset":{
		"generator":"Khronos glTF Blender I/O v4.4.55",
		"version":"2.0"
	},
	"scene":0,
	"scenes":[
		{
			"name":"Scene",
			"nodes":[
				0
			]
		}
	],
	"nodes":[
		{
			"mesh":0,
			"name":"Rock_331x04"
		}
	],
	"materials":[
		{
			"doubleSided":true,
			"name":"rock_00",
			"pbrMetallicRoughness":{
				"baseColorTexture":{
					"index":0
				},
				"metallicFactor":0,
				"roughnessFactor":0.5
			}
		}
	],
	"meshes":[
		{
			"name":"Plane.016",
			"primitives":[
				{
					"attributes":{
						"POSITION":0,
						"TEXCOORD_0":1
					},
					"indices":2,
					"material":0
				}
			]
		}
	],
	"textures":[
		{
			"sampler":0,
			"source":0
		}
	],
	"images":[
		{
			"mimeType":"image/png",
			"name":"331rock",
			"uri":"331rock.png"
		}
	],
	"accessors":[
		{
			"bufferView":0,
			"componentType":5126,
			"count":136,
			"max":[
				0.6269032955169678,
				0.20590150356292725,
				0.6174626350402832
			],
			"min":[
				0.028943359851837158,
				0.0074604228138923645,
				0.02063673734664917
			],
			"type":"VEC3"
		},
		{
			"bufferView":1,
			"componentType":5126,
			"count":136,
			"type":"VEC2"
		},
		{
			"bufferView":2,
			"componentType":5123,
			"count":804,
			"type":"SCALAR"
		}
	],
	"bufferViews":[
		{
			"buffer":0,
			"byteLength":1632,
			"byteOffset":0,
			"target":34962
		},
		{
			"buffer":0,
			"byteLength":1088,
			"byteOffset":1632,
			"target":34962
		},
		{
			"buffer":0,
			"byteLength":1608,
			"byteOffset":2720,
			"target":34963
		}
	],
	"samplers":[
		{
			"magFilter":9728,
			"minFilter":9984
		}
	],
	"buffers":[
		{
			"byteLength":4328,
			"uri":"Rock_331x04.bin"
		}
	]
}
