# Blender 4.4.0
# www.blender.org
mtllib ropepole_blue_0420x10.mtl
o Ropepole_Blue
v 0.000000 0.000000 -0.100000
v 0.076876 0.000000 -0.076876
v 0.100000 0.000000 0.000000
v 0.076876 0.000000 0.076876
v 0.000000 0.000000 0.100000
v -0.076876 0.000000 0.076876
v -0.100000 0.000000 0.000000
v -0.076876 0.000000 -0.076876
v 0.070116 2.109046 -0.070116
v -0.000000 2.109046 -0.101291
v 0.093902 2.194332 -0.093902
v -0.000000 2.194332 -0.132797
v -0.070116 2.109046 -0.070116
v -0.101291 2.109046 0.000000
v -0.093902 2.194332 -0.093902
v -0.132797 2.194332 0.000000
v -0.070116 2.109046 0.070116
v -0.000000 2.109046 0.101291
v -0.093902 2.194332 0.093902
v -0.000000 2.194332 0.132797
v 0.070116 2.109046 0.070116
v 0.101291 2.109046 0.000000
v 0.093902 2.194332 0.093902
v 0.132797 2.194332 0.000000
v 0.076670 2.271002 -0.076670
v -0.000000 2.288233 -0.093902
v -0.076670 2.271002 -0.076670
v 0.093902 2.288233 0.000000
v -0.000000 2.327128 0.000000
v -0.093902 2.288233 0.000000
v 0.076670 2.271002 0.076670
v -0.000000 2.288233 0.093902
v -0.076670 2.271002 0.076670
v -0.000000 1.938889 -0.100822
v -0.000000 1.811008 -0.100623
v 0.073611 1.811008 -0.073611
v 0.072573 1.938879 -0.072573
v 0.100623 1.811008 0.000000
v 0.100822 1.938889 0.000000
v 0.073611 1.811008 0.073611
v 0.072573 1.938879 0.072573
v -0.000000 1.811008 0.100623
v -0.000000 1.938889 0.100822
v -0.073611 1.811008 0.073611
v -0.072573 1.938879 0.072573
v -0.100623 1.811008 0.000000
v -0.100822 1.938889 0.000000
v -0.073611 1.811008 -0.073611
v -0.072573 1.938879 -0.072573
vn -0.2880 0.0022 -0.9576
vn 0.9576 0.0022 0.2880
vn 0.2880 0.0022 0.9576
vn -0.2880 0.0022 0.9576
vn -0.9576 0.0022 0.2880
vn -0.9576 0.0022 -0.2880
vn 0.2880 0.0022 -0.9576
vn 0.3813 -0.3455 -0.8575
vn -0.3622 -0.3230 -0.8744
vn 0.3672 0.2817 -0.8865
vn -0.2817 0.3672 -0.8865
vn -0.8575 -0.3455 -0.3813
vn -0.8744 -0.3230 0.3622
vn -0.8865 0.2817 -0.3672
vn -0.8865 0.3672 0.2817
vn -0.3813 -0.3455 0.8575
vn 0.3622 -0.3230 0.8744
vn -0.3672 0.2817 0.8865
vn 0.2817 0.3672 0.8865
vn 0.8575 -0.3455 0.3813
vn 0.8744 -0.3230 -0.3622
vn 0.8865 0.2817 0.3672
vn 0.8865 0.3672 -0.2817
vn 0.3672 0.8865 -0.2817
vn -0.2817 0.8865 -0.3672
vn 0.3672 0.8865 0.2817
vn -0.2817 0.8865 0.3672
vn 0.9576 0.0022 -0.2880
vn -0.9317 0.0187 -0.3627
vn -0.9317 0.0187 0.3627
vn -0.3627 0.0187 0.9317
vn 0.3627 0.0187 0.9317
vn 0.9317 0.0187 0.3627
vn 0.9317 0.0187 -0.3627
vn 0.3627 0.0187 -0.9317
vn -0.3445 0.0104 -0.9387
vn -0.9319 -0.0014 -0.3627
vn -0.9387 0.0104 0.3445
vn -0.3627 -0.0014 0.9319
vn 0.3445 0.0104 0.9387
vn 0.9319 -0.0014 0.3627
vn 0.9387 0.0104 -0.3445
vn 0.3627 -0.0014 -0.9319
vn -0.3627 0.0187 -0.9317
vn -0.3445 -0.0003 -0.9388
vn 0.9388 -0.0003 0.3445
vn 0.3445 -0.0003 0.9388
vn -0.3445 -0.0003 0.9388
vn -0.9388 -0.0003 0.3445
vn -0.9388 -0.0003 -0.3445
vn 0.3445 -0.0003 -0.9388
vn 0.3622 -0.3230 -0.8744
vn -0.3813 -0.3455 -0.8575
vn 0.2817 0.3672 -0.8865
vn -0.3672 0.2817 -0.8865
vn -0.8744 -0.3230 -0.3622
vn -0.8575 -0.3455 0.3813
vn -0.8865 0.3672 -0.2817
vn -0.8865 0.2817 0.3672
vn -0.3622 -0.3230 0.8744
vn 0.3813 -0.3455 0.8575
vn -0.2817 0.3672 0.8865
vn 0.3672 0.2817 0.8865
vn 0.8744 -0.3230 0.3622
vn 0.8575 -0.3455 -0.3813
vn 0.8865 0.3672 0.2817
vn 0.8865 0.2817 -0.3672
vn 0.2817 0.8865 -0.3672
vn -0.3672 0.8865 -0.2817
vn 0.2817 0.8865 0.3672
vn -0.3672 0.8865 0.2817
vn 0.9388 -0.0003 -0.3445
vn -0.9137 -0.0025 -0.4063
vn -0.9137 -0.0025 0.4063
vn -0.4063 -0.0025 0.9137
vn 0.4063 -0.0025 0.9137
vn 0.9137 -0.0025 0.4063
vn 0.9137 -0.0025 -0.4063
vn 0.4063 -0.0025 -0.9137
vn -0.3627 -0.0014 -0.9319
vn -0.9387 0.0104 -0.3445
vn -0.9319 -0.0014 0.3627
vn -0.3445 0.0104 0.9387
vn 0.3627 -0.0014 0.9319
vn 0.9387 0.0104 0.3445
vn 0.9319 -0.0014 -0.3627
vn 0.3445 0.0104 -0.9387
vn -0.4063 -0.0025 -0.9137
vt 0.156323 0.348546
vt 0.148562 0.187999
vt 0.156323 0.187999
vt 0.133041 0.187999
vt 0.125280 0.348546
vt 0.125280 0.187999
vt 0.187366 0.348546
vt 0.179605 0.187999
vt 0.187366 0.187999
vt 0.171844 0.348546
vt 0.171844 0.187999
vt 0.164084 0.187999
vt 0.140802 0.348546
vt 0.140802 0.187999
vt 0.148562 0.374969
vt 0.140802 0.383063
vt 0.140802 0.374969
vt 0.156323 0.383063
vt 0.148562 0.383063
vt 0.140802 0.391134
vt 0.156323 0.391134
vt 0.148562 0.391134
vt 0.164084 0.374969
vt 0.156323 0.374969
vt 0.171844 0.383063
vt 0.164084 0.383063
vt 0.171844 0.391134
vt 0.164084 0.391134
vt 0.179605 0.374969
vt 0.171844 0.374969
vt 0.187366 0.383063
vt 0.179605 0.383063
vt 0.187366 0.391134
vt 0.179605 0.391134
vt 0.133041 0.374969
vt 0.125280 0.383063
vt 0.125280 0.374969
vt 0.133041 0.383063
vt 0.125280 0.391134
vt 0.133041 0.391134
vt 0.187366 0.406033
vt 0.179605 0.398583
vt 0.187366 0.398583
vt 0.171844 0.406033
vt 0.179605 0.406033
vt 0.164084 0.359882
vt 0.156323 0.359882
vt 0.171844 0.359882
vt 0.179605 0.359882
vt 0.187366 0.374969
vt 0.187366 0.359882
vt 0.133041 0.359882
vt 0.125280 0.359882
vt 0.140802 0.359882
vt 0.148562 0.359882
vt 0.148562 0.348546
vt 0.164084 0.348546
vt 0.179605 0.348546
vt 0.133041 0.348546
vt 0.171844 0.398583
s 0
usemtl Fence
f 48/1/1 1/2/1 8/3/1
f 3/4/2 40/5/2 4/6/2
f 40/7/3 5/8/3 4/9/3
f 5/8/4 44/10/4 6/11/4
f 44/10/5 7/12/5 6/11/5
f 7/12/6 48/1/6 8/3/6
f 1/2/7 36/13/7 2/14/7
f 10/15/8 11/16/8 9/17/8
f 10/15/9 15/18/9 12/19/9
f 12/19/10 25/20/10 11/16/10
f 12/19/11 27/21/11 26/22/11
f 14/23/12 15/18/12 13/24/12
f 14/23/13 19/25/13 16/26/13
f 16/26/14 27/21/14 15/18/14
f 16/26/15 33/27/15 30/28/15
f 18/29/16 19/25/16 17/30/16
f 18/29/17 23/31/17 20/32/17
f 20/32/18 33/27/18 19/25/18
f 20/32/19 31/33/19 32/34/19
f 22/35/20 23/36/20 21/37/20
f 22/35/21 11/16/21 24/38/21
f 24/38/22 31/39/22 23/36/22
f 24/38/23 25/20/23 28/40/23
f 25/41/24 29/42/24 28/43/24
f 27/44/25 29/42/25 26/45/25
f 29/42/26 31/33/26 28/43/26
f 29/42/27 33/27/27 32/34/27
f 36/13/28 3/4/28 2/14/28
f 47/46/29 13/24/29 49/47/29
f 17/30/30 47/46/30 45/48/30
f 43/49/31 17/30/31 45/48/31
f 21/50/32 43/49/32 41/51/32
f 39/52/33 21/37/33 41/53/33
f 9/17/34 39/52/34 37/54/34
f 34/55/35 9/17/35 37/54/35
f 49/47/36 35/56/36 48/1/36
f 49/47/37 46/57/37 47/46/37
f 45/48/38 46/57/38 44/10/38
f 45/48/39 42/58/39 43/49/39
f 41/51/40 42/58/40 40/7/40
f 41/53/41 38/59/41 39/52/41
f 37/54/42 38/59/42 36/13/42
f 37/54/43 35/56/43 34/55/43
f 13/24/44 34/55/44 49/47/44
f 48/1/45 35/56/45 1/2/45
f 3/4/46 38/59/46 40/5/46
f 40/7/47 42/58/47 5/8/47
f 5/8/48 42/58/48 44/10/48
f 44/10/49 46/57/49 7/12/49
f 7/12/50 46/57/50 48/1/50
f 1/2/51 35/56/51 36/13/51
f 10/15/52 12/19/52 11/16/52
f 10/15/53 13/24/53 15/18/53
f 12/19/54 26/22/54 25/20/54
f 12/19/55 15/18/55 27/21/55
f 14/23/56 16/26/56 15/18/56
f 14/23/57 17/30/57 19/25/57
f 16/26/58 30/28/58 27/21/58
f 16/26/59 19/25/59 33/27/59
f 18/29/60 20/32/60 19/25/60
f 18/29/61 21/50/61 23/31/61
f 20/32/62 32/34/62 33/27/62
f 20/32/63 23/31/63 31/33/63
f 22/35/64 24/38/64 23/36/64
f 22/35/65 9/17/65 11/16/65
f 24/38/66 28/40/66 31/39/66
f 24/38/67 11/16/67 25/20/67
f 25/41/68 26/45/68 29/42/68
f 27/44/69 30/60/69 29/42/69
f 29/42/70 32/34/70 31/33/70
f 29/42/71 30/60/71 33/27/71
f 36/13/72 38/59/72 3/4/72
f 47/46/73 14/23/73 13/24/73
f 17/30/74 14/23/74 47/46/74
f 43/49/75 18/29/75 17/30/75
f 21/50/76 18/29/76 43/49/76
f 39/52/77 22/35/77 21/37/77
f 9/17/78 22/35/78 39/52/78
f 34/55/79 10/15/79 9/17/79
f 49/47/80 34/55/80 35/56/80
f 49/47/81 48/1/81 46/57/81
f 45/48/82 47/46/82 46/57/82
f 45/48/83 44/10/83 42/58/83
f 41/51/84 43/49/84 42/58/84
f 41/53/85 40/5/85 38/59/85
f 37/54/86 39/52/86 38/59/86
f 37/54/87 36/13/87 35/56/87
f 13/24/88 10/15/88 34/55/88
