# Blender 4.4.0
# www.blender.org
mtllib rope_brown_0378x04.mtl
o Rope_Brown.001
v -1.104212 1.845898 -0.085884
v -1.088147 1.880394 0.006040
v -1.104212 1.845898 0.097964
v -1.142998 1.762617 0.136040
v -1.181784 1.679336 0.097964
v -1.197850 1.644840 0.006040
v -1.181785 1.679336 -0.085884
v -1.142998 1.762617 -0.123960
v -0.758075 1.712632 -0.086107
v -0.746916 1.749037 0.005817
v -0.758075 1.712632 0.097741
v -0.785015 1.624745 0.135817
v -0.811956 1.536857 0.097741
v -0.823115 1.500453 0.005817
v -0.811956 1.536857 -0.086106
v -0.785015 1.624745 -0.124183
v -0.393355 1.625157 -0.086107
v -0.387361 1.662758 0.005817
v -0.393355 1.625157 0.097741
v -0.407826 1.534379 0.135817
v -0.422296 1.443602 0.097741
v -0.428290 1.406000 0.005817
v -0.422296 1.443601 -0.086106
v -0.407826 1.534379 -0.124183
v 0.000104 1.593192 -0.086107
v 0.000148 1.631268 0.005817
v 0.000104 1.593192 0.097741
v -0.000000 1.501269 0.135817
v -0.000105 1.409345 0.097741
v -0.000148 1.371269 0.005817
v -0.000105 1.409345 -0.086106
v -0.000000 1.501269 -0.124183
v 0.394114 1.624305 -0.086107
v 0.388242 1.661926 0.005817
v 0.394114 1.624305 0.097741
v 0.408290 1.533481 0.135817
v 0.422466 1.442657 0.097741
v 0.428337 1.405036 0.005817
v 0.422466 1.442657 -0.086106
v 0.408290 1.533481 -0.124183
v 0.759538 1.710305 -0.086107
v 0.748471 1.746737 0.005817
v 0.759538 1.710305 0.097741
v 0.786254 1.622349 0.135817
v 0.812970 1.534393 0.097741
v 0.824036 1.497960 0.005817
v 0.812970 1.534393 -0.086106
v 0.786254 1.622349 -0.124183
v 1.102418 1.836818 -0.086237
v 1.086055 1.871166 0.005686
v 1.102418 1.836818 0.097610
v 1.141922 1.753895 0.135686
v 1.181426 1.670972 0.097610
v 1.197789 1.636624 0.005686
v 1.181426 1.670972 -0.086237
v 1.141922 1.753895 -0.124314
v -1.213336 1.869695 -0.060568
v -1.172310 1.878242 -0.085884
v -1.201201 1.894461 0.006040
v -1.155563 1.912419 0.006040
v -1.213336 1.869695 0.072647
v -1.172310 1.878242 0.097964
v -1.242625 1.809921 0.100230
v -1.212739 1.795731 0.136040
v -1.271913 1.750147 0.072647
v -1.253169 1.713220 0.097964
v -1.284048 1.725382 0.006040
v -1.269915 1.679043 0.006040
v -1.271913 1.750147 -0.060568
v -1.253169 1.713220 -0.085884
v -1.212739 1.795731 -0.123960
v -1.242625 1.809921 -0.088150
v 1.222030 1.866657 -0.060922
v 1.180792 1.874806 -0.086237
v 1.209544 1.891246 0.005686
v 1.163561 1.908739 0.005686
v 1.222030 1.866657 0.072294
v 1.180792 1.874806 0.097610
v 1.252165 1.807313 0.099876
v 1.222391 1.792886 0.135686
v 1.282300 1.747969 0.072294
v 1.263990 1.710966 0.097610
v 1.294786 1.723380 0.005686
v 1.281221 1.677033 0.005686
v 1.282300 1.747969 -0.060922
v 1.263990 1.710966 -0.086237
v 1.252165 1.807313 -0.088503
v 1.222391 1.792886 -0.124314
v -1.250221 1.790767 0.084540
v -1.250221 1.790767 0.059540
v -1.240528 1.810127 0.047040
v -1.230835 1.829486 0.059540
v -1.230835 1.829486 0.084540
v -1.240528 1.810127 0.097040
v -1.280935 1.830357 -0.084960
v -1.271242 1.849717 -0.072460
v -1.271242 1.849717 -0.047460
v -1.280935 1.830357 -0.034960
v -1.290628 1.810997 -0.047460
v -1.290628 1.810997 -0.072460
v -1.338473 1.859164 -0.058307
v -1.320877 1.874567 -0.049468
v -1.305070 1.866653 -0.031791
v -1.306859 1.843336 -0.022952
v -1.324455 1.827933 -0.031791
v -1.340263 1.835847 -0.049468
v -1.362306 1.871097 0.006040
v -1.341436 1.884860 0.006040
v -1.319082 1.873668 0.006040
v -1.317597 1.848712 0.006040
v -1.338467 1.834949 0.006040
v -1.360822 1.846141 0.006040
v -1.338473 1.859164 0.070386
v -1.320877 1.874567 0.061548
v -1.305070 1.866653 0.043870
v -1.306859 1.843336 0.035031
v -1.324455 1.827933 0.043870
v -1.340263 1.835847 0.061548
v -1.280935 1.830357 0.097040
v -1.271242 1.849717 0.084540
v -1.271242 1.849717 0.059540
v -1.280935 1.830357 0.047040
v -1.290628 1.810997 0.059540
v -1.290628 1.810997 0.084540
v -1.250221 1.790767 -0.072460
v -1.250221 1.790767 -0.047460
v -1.240528 1.810127 -0.034960
v -1.230835 1.829486 -0.047460
v -1.230835 1.829486 -0.072460
v -1.240528 1.810127 -0.084960
v 1.261076 1.783393 -0.072814
v 1.261076 1.783393 -0.047814
v 1.251383 1.802752 -0.035314
v 1.241690 1.822112 -0.047814
v 1.241690 1.822112 -0.072814
v 1.251383 1.802752 -0.085314
v 1.291790 1.822983 0.096686
v 1.282097 1.842343 0.084186
v 1.282097 1.842343 0.059186
v 1.291790 1.822983 0.046686
v 1.301483 1.803623 0.059186
v 1.301483 1.803623 0.084186
v 1.349328 1.851790 0.070033
v 1.331732 1.867193 0.061194
v 1.315925 1.859279 0.043517
v 1.317714 1.835962 0.034678
v 1.335310 1.820559 0.043517
v 1.351117 1.828473 0.061194
v 1.373161 1.863723 0.005686
v 1.352291 1.877486 0.005686
v 1.329936 1.866294 0.005686
v 1.328452 1.841338 0.005686
v 1.349322 1.827574 0.005686
v 1.371677 1.838767 0.005686
v 1.349328 1.851790 -0.058660
v 1.331732 1.867193 -0.049821
v 1.315925 1.859279 -0.032144
v 1.317714 1.835962 -0.023305
v 1.335310 1.820559 -0.032144
v 1.351117 1.828473 -0.049821
v 1.291790 1.822983 -0.085314
v 1.282097 1.842343 -0.072814
v 1.282097 1.842343 -0.047814
v 1.291790 1.822983 -0.035314
v 1.301483 1.803623 -0.047814
v 1.301483 1.803623 -0.072814
v 1.261076 1.783393 0.084186
v 1.261076 1.783393 0.059186
v 1.251383 1.802752 0.046686
v 1.241690 1.822112 0.059186
v 1.241690 1.822112 0.084186
v 1.251383 1.802752 0.096686
vn 0.2073 0.6674 -0.7153
vn -0.0037 -0.0085 -1.0000
vn 0.2770 0.6458 -0.7115
vn 0.2970 0.9549 -0.0001
vn 0.3942 0.9190 0.0001
vn 0.2078 0.6673 0.7152
vn 0.2774 0.6456 0.7115
vn -0.0031 -0.0087 1.0000
vn -0.2806 -0.6542 0.7023
vn -0.0046 -0.0155 0.9999
vn -0.3947 -0.9188 0.0001
vn -0.2121 -0.6829 0.6991
vn -0.2810 -0.6541 -0.7023
vn -0.2967 -0.9550 -0.0001
vn -0.0051 -0.0153 -0.9999
vn 0.1099 0.6887 -0.7166
vn 0.1576 0.9875 -0.0000
vn 0.1099 0.6887 0.7166
vn -0.0029 -0.0185 0.9998
vn -0.1126 -0.7073 0.6979
vn -0.1126 -0.7073 -0.6979
vn -0.2124 -0.6827 -0.6991
vn -0.0029 -0.0185 -0.9998
vn 0.0008 0.6971 -0.7170
vn 0.0011 1.0000 -0.0000
vn 0.0008 0.6971 0.7170
vn -0.0000 -0.0194 0.9998
vn -0.1572 -0.9876 -0.0000
vn -0.0008 -0.7166 0.6975
vn -0.0008 -0.7166 -0.6975
vn -0.0000 -0.0194 -0.9998
vn 0.0028 -0.0183 -0.9998
vn -0.1077 0.6892 -0.7165
vn -0.1077 0.6892 0.7165
vn 0.0028 -0.0183 0.9998
vn 0.1103 -0.7076 0.6980
vn 0.1541 -0.9881 -0.0000
vn -0.0011 -1.0000 -0.0000
vn 0.1103 -0.7076 -0.6980
vn 0.0042 -0.0144 -0.9999
vn -0.1544 0.9880 -0.0000
vn -0.2017 0.6699 -0.7146
vn -0.2014 0.6699 0.7146
vn 0.0045 -0.0143 0.9999
vn 0.2063 -0.6841 0.6996
vn 0.2887 -0.9574 -0.0000
vn 0.2061 -0.6842 -0.6996
vn -0.2749 0.6453 -0.7127
vn -0.3912 0.9203 -0.0000
vn -0.2880 0.9576 -0.0000
vn -0.2746 0.6455 0.7127
vn 0.0044 -0.0109 0.9999
vn 0.2799 -0.6560 0.7009
vn 0.2797 -0.6561 -0.7010
vn 0.0041 -0.0111 -0.9999
vn 0.6643 0.6810 0.3081
vn 0.9419 0.1275 0.3108
vn 0.9419 0.1275 -0.3108
vn 0.0402 0.7540 -0.6557
vn 0.0402 0.7540 0.6557
vn 0.3297 0.1653 0.9295
vn 0.3928 -0.9196 -0.0000
vn 0.6204 -0.4259 0.6586
vn 0.6204 -0.4259 -0.6586
vn 0.3297 0.1653 -0.9295
vn -0.0793 0.9969 -0.0000
vn -0.3318 0.1612 -0.9295
vn -0.6163 -0.4324 -0.6581
vn -0.7344 -0.6787 -0.0000
vn -0.6163 -0.4324 0.6581
vn -0.3318 0.1612 0.9295
vn -0.0479 0.7531 0.6562
vn -0.0479 0.7531 -0.6562
vn 0.0694 0.9976 -0.0000
vn -0.6730 0.6722 -0.3086
vn -0.6173 0.7867 -0.0000
vn -0.6730 0.6722 0.3086
vn -0.8079 0.3945 0.4377
vn -0.9436 0.1153 0.3103
vn -0.9436 0.1153 -0.3103
vn -1.0000 -0.0007 -0.0000
vn -0.8079 0.3945 -0.4377
vn 0.6643 0.6810 -0.3081
vn 0.6074 0.7944 -0.0000
vn 0.8025 0.4054 0.4377
vn 0.7411 -0.6714 -0.0000
vn 0.9999 0.0118 -0.0000
vn 0.8025 0.4054 -0.4377
vn -0.0912 0.5720 -0.8152
vn 0.4477 0.8942 -0.0000
vn 0.5126 0.2697 0.8152
vn 0.0912 -0.5720 0.8152
vn -0.4477 -0.8942 -0.0000
vn -0.5126 -0.2697 -0.8152
vn -0.5182 0.7858 -0.3377
vn 0.9396 0.0559 0.3376
vn 0.5182 -0.7858 0.3376
vn -0.9396 -0.0559 -0.3376
vn -0.5182 0.7858 0.3376
vn 0.9396 0.0559 -0.3377
vn 0.5182 -0.7858 -0.3377
vn -0.9396 -0.0559 0.3377
vn -0.0912 0.5720 0.8152
vn 0.5126 0.2697 -0.8152
vn 0.0912 -0.5720 -0.8152
vn -0.5126 -0.2697 0.8152
vn -0.2238 -0.4471 0.8660
vn 0.2238 0.4471 -0.8660
vn 0.2238 0.4471 0.8660
vn -0.2238 -0.4471 -0.8660
vn 0.0912 0.5720 0.8152
vn -0.4477 0.8942 -0.0000
vn -0.5126 0.2697 -0.8152
vn -0.0912 -0.5720 -0.8152
vn 0.4477 -0.8942 -0.0000
vn 0.5126 -0.2697 0.8152
vn 0.5182 0.7858 0.3377
vn -0.9396 0.0559 -0.3377
vn -0.5182 -0.7858 -0.3377
vn 0.9396 -0.0559 0.3376
vn 0.5182 0.7858 -0.3376
vn -0.9396 0.0559 0.3377
vn -0.5182 -0.7858 0.3377
vn 0.9396 -0.0559 -0.3377
vn 0.0912 0.5720 -0.8152
vn -0.5126 0.2697 0.8152
vn -0.0912 -0.5720 0.8152
vn 0.5126 -0.2697 -0.8152
vn 0.2238 -0.4471 -0.8660
vn -0.2238 0.4471 0.8660
vn -0.2238 0.4471 -0.8660
vn 0.2238 -0.4471 0.8660
vn -0.5182 0.7858 -0.3376
vn 0.9396 0.0559 0.3377
vn 0.5182 -0.7858 0.3377
vn -0.9396 -0.0559 -0.3377
vn 0.5182 -0.7858 -0.3376
vn 0.5182 0.7858 0.3376
vn -0.5182 -0.7858 -0.3376
vn 0.9396 -0.0559 0.3377
vn 0.5182 0.7858 -0.3377
vt 0.023572 0.593506
vt 0.015788 0.624703
vt 0.023572 0.624703
vt 0.031357 0.593506
vt 0.031357 0.624703
vt 0.039142 0.593506
vt 0.039142 0.624703
vt 0.046926 0.624703
vt 0.054711 0.624703
vt 0.046926 0.593506
vt 0.062496 0.624703
vt 0.054711 0.593506
vt 0.008003 0.624703
vt 0.000219 0.593506
vt 0.000219 0.624703
vt 0.015788 0.593506
vt 0.023572 0.562308
vt 0.031357 0.562308
vt 0.039142 0.562308
vt 0.046926 0.562308
vt 0.062496 0.593506
vt 0.054711 0.562308
vt 0.008003 0.562308
vt 0.008003 0.593506
vt 0.015788 0.562308
vt 0.023572 0.531110
vt 0.031357 0.531110
vt 0.039142 0.531110
vt 0.046926 0.531110
vt 0.062496 0.562308
vt 0.054711 0.531110
vt 0.008003 0.531110
vt 0.000219 0.562308
vt 0.015788 0.531110
vt 0.015788 0.499913
vt 0.023572 0.499913
vt 0.039142 0.499913
vt 0.046926 0.499913
vt 0.054711 0.499913
vt 0.062496 0.499913
vt 0.062496 0.531110
vt 0.000219 0.499913
vt 0.000219 0.531110
vt 0.008003 0.499913
vt 0.015788 0.468715
vt 0.031357 0.499913
vt 0.023572 0.468715
vt 0.039142 0.468715
vt 0.046926 0.468715
vt 0.054711 0.468715
vt 0.062496 0.468715
vt 0.000219 0.468715
vt 0.008003 0.468715
vt 0.023572 0.437518
vt 0.031357 0.437518
vt 0.031357 0.468715
vt 0.039142 0.437518
vt 0.046926 0.437518
vt 0.054711 0.437518
vt 0.008003 0.437518
vt 0.015788 0.437518
vt 0.050290 0.419169
vt 0.050930 0.427918
vt 0.041723 0.428286
vt 0.037847 0.417067
vt 0.031983 0.423712
vt 0.035026 0.415069
vt 0.059369 0.423712
vt 0.052640 0.416522
vt 0.054578 0.414058
vt 0.056627 0.432417
vt 0.056187 0.423712
vt 0.045886 0.436989
vt 0.053874 0.430245
vt 0.039274 0.430927
vt 0.036775 0.433361
vt 0.035697 0.423712
vt 0.045886 0.413713
vt 0.045886 0.410497
vt 0.004475 0.390283
vt 0.005225 0.379691
vt 0.007551 0.382280
vt 0.007551 0.382280
vt 0.014720 0.375418
vt 0.014720 0.379023
vt 0.022059 0.382799
vt 0.014720 0.379023
vt 0.024528 0.380646
vt 0.025068 0.390283
vt 0.028414 0.390283
vt 0.022715 0.397126
vt 0.025068 0.390283
vt 0.007279 0.397569
vt 0.001251 0.390283
vt 0.004475 0.390283
vt 0.025167 0.399231
vt 0.014720 0.400736
vt 0.014720 0.400736
vt 0.005042 0.399951
vt 0.010117 0.394766
vt 0.014720 0.396702
vt 0.019659 0.394581
vt 0.021298 0.390283
vt 0.019436 0.385379
vt 0.010353 0.385220
vt 0.014720 0.383195
vt 0.008327 0.390283
vt 0.040937 0.419422
vt 0.035697 0.423712
vt 0.037847 0.417067
vt 0.045886 0.417393
vt 0.052640 0.416522
vt 0.053874 0.430245
vt 0.052525 0.423712
vt 0.045886 0.433563
vt 0.045886 0.433563
vt 0.045886 0.429947
vt 0.039274 0.430927
vt 0.039488 0.423712
vt 0.012661 0.427541
vt 0.018694 0.416916
vt 0.018694 0.427541
vt 0.024727 0.416916
vt 0.024727 0.427541
vt 0.030760 0.416916
vt 0.030760 0.427541
vt 0.036793 0.416916
vt 0.036793 0.427541
vt 0.000596 0.427541
vt 0.006629 0.416916
vt 0.006629 0.427541
vt 0.012661 0.416916
vt 0.018694 0.406291
vt 0.024727 0.406291
vt 0.030760 0.406291
vt 0.000596 0.406291
vt 0.000596 0.416916
vt 0.006629 0.406291
vt 0.012661 0.395665
vt 0.012661 0.406291
vt 0.024727 0.395665
vt 0.030760 0.395665
vt 0.036793 0.395665
vt 0.036793 0.406291
vt 0.000596 0.395665
vt 0.006629 0.395665
vt 0.012661 0.385040
vt 0.018694 0.395665
vt 0.018694 0.385040
vt 0.024727 0.385040
vt 0.030760 0.385040
vt 0.000596 0.385040
vt 0.030760 0.437047
vt 0.024727 0.375534
vt 0.018694 0.437047
vt 0.006629 0.375534
vt 0.006629 0.385040
vt 0.000596 0.437047
vt 0.030760 0.375534
vt 0.024727 0.437047
vt 0.012661 0.375534
vt 0.018694 0.375534
vt 0.012661 0.437047
vt 0.006629 0.437047
vt 0.036793 0.385040
vt 0.036793 0.375534
vt 0.062496 0.437518
vt 0.000219 0.437518
vt 0.014720 0.403930
vt 0.036793 0.437047
vt 0.000596 0.375534
s 1
usemtl Fence
f 9/1/1 8/2/2 1/3/3
f 10/4/4 1/3/3 2/5/5
f 11/6/6 2/5/5 3/7/7
f 4/8/8 11/6/6 3/7/7
f 5/9/9 12/10/10 4/8/8
f 6/11/11 13/12/12 5/9/9
f 7/13/13 14/14/14 6/15/11
f 16/16/15 7/13/13 8/2/2
f 17/17/16 16/16/15 9/1/1
f 18/18/17 9/1/1 10/4/4
f 11/6/6 18/18/17 10/4/4
f 12/10/10 19/19/18 11/6/6
f 13/12/12 20/20/19 12/10/10
f 14/21/14 21/22/20 13/12/12
f 23/23/21 14/14/14 15/24/22
f 24/25/23 15/24/22 16/16/15
f 25/26/24 24/25/23 17/17/16
f 26/27/25 17/17/16 18/18/17
f 19/19/18 26/27/25 18/18/17
f 20/20/19 27/28/26 19/19/18
f 21/22/20 28/29/27 20/20/19
f 22/30/28 29/31/29 21/22/20
f 31/32/30 22/33/28 23/23/21
f 32/34/31 23/23/21 24/25/23
f 25/26/24 40/35/32 32/34/31
f 26/27/25 33/36/33 25/26/24
f 35/37/34 26/27/25 27/28/26
f 36/38/35 27/28/26 28/29/27
f 37/39/36 28/29/27 29/31/29
f 38/40/37 29/31/29 30/41/38
f 31/32/30 38/42/37 30/43/38
f 32/34/31 39/44/39 31/32/30
f 33/36/33 48/45/40 40/35/32
f 34/46/41 41/47/42 33/36/33
f 43/48/43 34/46/41 35/37/34
f 44/49/44 35/37/34 36/38/35
f 45/50/45 36/38/35 37/39/36
f 46/51/46 37/39/36 38/40/37
f 39/44/39 46/52/46 38/42/37
f 40/35/32 47/53/47 39/44/39
f 49/54/48 48/45/40 41/47/42
f 50/55/49 41/47/42 42/56/50
f 43/48/43 50/55/49 42/56/50
f 44/49/44 51/57/51 43/48/43
f 45/50/45 52/58/52 44/49/44
f 46/51/46 53/59/53 45/50/45
f 55/60/54 46/52/46 47/53/47
f 56/61/55 47/53/47 48/45/40
f 77/62/56 81/63/57 85/64/58
f 74/65/59 56/66/55 49/67/48
f 52/68/52 78/69/60 51/70/51
f 53/71/53 80/72/61 52/68/52
f 54/73/62 82/74/63 53/71/53
f 86/75/64 54/73/62 55/76/54
f 88/77/65 55/76/54 56/66/55
f 76/78/66 49/67/48 50/79/49
f 71/80/67 7/81/13 70/82/68
f 70/83/68 6/84/11 68/85/69
f 6/84/11 66/86/70 68/87/69
f 5/88/9 64/89/71 66/86/70
f 4/90/8 62/91/72 64/92/71
f 58/93/73 8/94/2 71/95/67
f 3/96/7 60/97/74 62/91/72
f 60/98/74 1/99/3 58/93/73
f 51/70/51 76/78/66 50/79/49
f 71/95/67 57/100/75 58/93/73
f 59/101/76 58/93/73 57/100/75
f 59/101/76 62/91/72 60/97/74
f 61/102/77 64/92/71 62/91/72
f 63/103/78 66/86/70 64/89/71
f 65/104/79 68/87/69 66/86/70
f 69/105/80 68/85/69 67/106/81
f 72/107/82 70/82/68 69/105/80
f 73/108/83 88/109/65 74/65/59
f 74/110/59 75/111/84 73/108/83
f 78/112/60 75/111/84 76/78/66
f 80/72/61 77/62/56 78/69/60
f 82/113/63 79/114/85 80/72/61
f 84/115/86 81/63/57 82/74/63
f 84/116/86 85/64/58 83/117/87
f 86/118/64 87/119/88 85/64/58
f 65/104/79 61/102/77 57/100/75
s 0
f 95/120/89 102/121/89 96/122/89
f 96/122/90 103/123/90 97/124/90
f 97/124/91 104/125/91 98/126/91
f 98/126/92 105/127/92 99/128/92
f 99/129/93 106/130/93 100/131/93
f 100/131/94 101/132/94 95/120/94
f 101/132/95 108/133/95 102/121/95
f 102/121/90 109/134/90 103/123/90
f 109/134/96 104/125/96 103/123/96
f 110/135/97 105/127/97 104/125/97
f 111/136/93 106/130/93 105/137/93
f 112/138/98 101/132/98 106/130/98
f 113/139/99 108/133/99 107/140/99
f 108/133/90 115/141/90 109/134/90
f 109/134/100 116/142/100 110/135/100
f 110/135/101 117/143/101 111/144/101
f 117/145/93 112/138/93 111/136/93
f 118/146/102 107/140/102 112/138/102
f 119/147/103 114/148/103 113/139/103
f 120/149/90 115/141/90 114/148/90
f 121/150/104 116/142/104 115/141/104
f 122/151/105 117/143/105 116/142/105
f 123/152/93 118/146/93 117/145/93
f 118/146/106 119/147/106 113/139/106
f 99/128/107 127/153/107 98/126/107
f 120/149/90 92/154/90 121/150/90
f 97/124/90 129/155/90 96/122/90
f 123/152/93 89/156/93 124/157/93
f 100/131/93 126/158/93 99/129/93
f 122/151/108 92/154/108 91/159/108
f 97/124/109 127/153/109 128/160/109
f 120/149/109 94/161/109 93/162/109
f 124/157/107 94/161/107 119/147/107
f 95/120/108 129/155/108 130/163/108
f 100/131/110 130/163/110 125/164/110
f 123/165/110 91/159/110 90/166/110
f 137/120/111 144/121/111 138/122/111
f 138/122/112 145/123/112 139/124/112
f 139/124/113 146/125/113 140/126/113
f 146/125/114 141/128/114 140/126/114
f 141/129/115 148/130/115 142/131/115
f 148/130/116 137/120/116 142/131/116
f 143/132/117 150/133/117 144/121/117
f 144/121/112 151/134/112 145/123/112
f 145/123/118 152/135/118 146/125/118
f 152/135/119 147/127/119 146/125/119
f 147/137/115 154/138/115 148/130/115
f 148/130/120 149/140/120 143/132/120
f 155/139/121 150/133/121 149/140/121
f 150/133/112 157/141/112 151/134/112
f 151/134/122 158/142/122 152/135/122
f 158/142/123 153/144/123 152/135/123
f 159/145/115 154/138/115 153/136/115
f 154/138/124 155/139/124 149/140/124
f 161/147/125 156/148/125 155/139/125
f 162/149/112 157/141/112 156/148/112
f 163/150/126 158/142/126 157/141/126
f 158/142/127 165/165/127 159/143/127
f 165/152/115 160/146/115 159/145/115
f 160/146/128 161/147/128 155/139/128
f 141/128/129 169/153/129 140/126/129
f 162/149/112 134/154/112 163/150/112
f 139/124/112 171/155/112 138/122/112
f 165/152/115 131/156/115 166/157/115
f 142/131/115 168/158/115 141/129/115
f 164/151/130 134/154/130 133/159/130
f 139/124/131 169/153/131 170/160/131
f 162/149/131 136/161/131 135/162/131
f 166/157/129 136/161/129 161/147/129
f 137/120/130 171/155/130 172/163/130
f 142/131/132 172/163/132 167/164/132
f 165/165/132 133/159/132 132/166/132
s 1
f 9/1/1 16/16/15 8/2/2
f 10/4/4 9/1/1 1/3/3
f 11/6/6 10/4/4 2/5/5
f 4/8/8 12/10/10 11/6/6
f 5/9/9 13/12/12 12/10/10
f 6/11/11 14/21/14 13/12/12
f 7/13/13 15/24/22 14/14/14
f 16/16/15 15/24/22 7/13/13
f 17/17/16 24/25/23 16/16/15
f 18/18/17 17/17/16 9/1/1
f 11/6/6 19/19/18 18/18/17
f 12/10/10 20/20/19 19/19/18
f 13/12/12 21/22/20 20/20/19
f 14/21/14 22/30/28 21/22/20
f 23/23/21 22/33/28 14/14/14
f 24/25/23 23/23/21 15/24/22
f 25/26/24 32/34/31 24/25/23
f 26/27/25 25/26/24 17/17/16
f 19/19/18 27/28/26 26/27/25
f 20/20/19 28/29/27 27/28/26
f 21/22/20 29/31/29 28/29/27
f 22/30/28 30/41/38 29/31/29
f 31/32/30 30/43/38 22/33/28
f 32/34/31 31/32/30 23/23/21
f 25/26/24 33/36/33 40/35/32
f 26/27/25 34/46/41 33/36/33
f 35/37/34 34/46/41 26/27/25
f 36/38/35 35/37/34 27/28/26
f 37/39/36 36/38/35 28/29/27
f 38/40/37 37/39/36 29/31/29
f 31/32/30 39/44/39 38/42/37
f 32/34/31 40/35/32 39/44/39
f 33/36/33 41/47/42 48/45/40
f 34/46/41 42/56/50 41/47/42
f 43/48/43 42/56/50 34/46/41
f 44/49/44 43/48/43 35/37/34
f 45/50/45 44/49/44 36/38/35
f 46/51/46 45/50/45 37/39/36
f 39/44/39 47/53/47 46/52/46
f 40/35/32 48/45/40 47/53/47
f 49/54/48 56/61/55 48/45/40
f 50/55/49 49/54/48 41/47/42
f 43/48/43 51/57/51 50/55/49
f 44/49/44 52/58/52 51/57/51
f 45/50/45 53/59/53 52/58/52
f 46/51/46 54/167/62 53/59/53
f 55/60/54 54/168/62 46/52/46
f 56/61/55 55/60/54 47/53/47
f 85/64/58 87/119/88 73/108/83
f 73/108/83 75/111/84 77/62/56
f 77/62/56 79/114/85 81/63/57
f 81/63/57 83/117/87 85/64/58
f 85/64/58 73/108/83 77/62/56
f 74/65/59 88/109/65 56/66/55
f 52/68/52 80/72/61 78/69/60
f 53/71/53 82/113/63 80/72/61
f 54/73/62 84/115/86 82/74/63
f 86/75/64 84/116/86 54/73/62
f 88/77/65 86/118/64 55/76/54
f 76/78/66 74/110/59 49/67/48
f 71/80/67 8/94/2 7/81/13
f 70/83/68 7/81/13 6/84/11
f 6/84/11 5/88/9 66/86/70
f 5/88/9 4/90/8 64/89/71
f 4/90/8 3/96/7 62/91/72
f 58/93/73 1/99/3 8/94/2
f 3/96/7 2/169/5 60/97/74
f 60/98/74 2/169/5 1/99/3
f 51/70/51 78/112/60 76/78/66
f 71/95/67 72/107/82 57/100/75
f 59/101/76 60/98/74 58/93/73
f 59/101/76 61/102/77 62/91/72
f 61/102/77 63/103/78 64/92/71
f 63/103/78 65/104/79 66/86/70
f 65/104/79 67/106/81 68/87/69
f 69/105/80 70/83/68 68/85/69
f 72/107/82 71/80/67 70/82/68
f 73/108/83 87/119/88 88/109/65
f 74/110/59 76/78/66 75/111/84
f 78/112/60 77/62/56 75/111/84
f 80/72/61 79/114/85 77/62/56
f 82/113/63 81/63/57 79/114/85
f 84/115/86 83/117/87 81/63/57
f 84/116/86 86/75/64 85/64/58
f 86/118/64 88/77/65 87/119/88
f 57/100/75 72/107/82 69/105/80
f 69/105/80 67/106/81 65/104/79
f 65/104/79 63/103/78 61/102/77
f 61/102/77 59/101/76 57/100/75
f 57/100/75 69/105/80 65/104/79
s 0
f 95/120/89 101/132/89 102/121/89
f 96/122/90 102/121/90 103/123/90
f 97/124/91 103/123/91 104/125/91
f 98/126/92 104/125/92 105/127/92
f 99/129/93 105/137/93 106/130/93
f 100/131/94 106/130/94 101/132/94
f 101/132/133 107/140/133 108/133/133
f 102/121/90 108/133/90 109/134/90
f 109/134/134 110/135/134 104/125/134
f 110/135/135 111/144/135 105/127/135
f 111/136/93 112/138/93 106/130/93
f 112/138/136 107/140/136 101/132/136
f 113/139/99 114/148/99 108/133/99
f 108/133/90 114/148/90 115/141/90
f 109/134/100 115/141/100 116/142/100
f 110/135/137 116/142/137 117/143/137
f 117/145/93 118/146/93 112/138/93
f 118/146/102 113/139/102 107/140/102
f 119/147/103 120/149/103 114/148/103
f 120/149/90 121/150/90 115/141/90
f 121/150/104 122/151/104 116/142/104
f 122/151/105 123/165/105 117/143/105
f 123/152/93 124/157/93 118/146/93
f 118/146/106 124/157/106 119/147/106
f 99/128/107 126/170/107 127/153/107
f 120/149/90 93/162/90 92/154/90
f 97/124/90 128/160/90 129/155/90
f 123/152/93 90/171/93 89/156/93
f 100/131/93 125/164/93 126/158/93
f 122/151/108 121/150/108 92/154/108
f 97/124/109 98/126/109 127/153/109
f 120/149/109 119/147/109 94/161/109
f 124/157/107 89/156/107 94/161/107
f 95/120/108 96/122/108 129/155/108
f 100/131/110 95/120/110 130/163/110
f 123/165/110 122/151/110 91/159/110
f 137/120/111 143/132/111 144/121/111
f 138/122/112 144/121/112 145/123/112
f 139/124/113 145/123/113 146/125/113
f 146/125/114 147/127/114 141/128/114
f 141/129/115 147/137/115 148/130/115
f 148/130/116 143/132/116 137/120/116
f 143/132/138 149/140/138 150/133/138
f 144/121/112 150/133/112 151/134/112
f 145/123/118 151/134/118 152/135/118
f 152/135/139 153/144/139 147/127/139
f 147/137/115 153/136/115 154/138/115
f 148/130/140 154/138/140 149/140/140
f 155/139/141 156/148/141 150/133/141
f 150/133/112 156/148/112 157/141/112
f 151/134/122 157/141/122 158/142/122
f 158/142/123 159/143/123 153/144/123
f 159/145/115 160/146/115 154/138/115
f 154/138/124 160/146/124 155/139/124
f 161/147/125 162/149/125 156/148/125
f 162/149/112 163/150/112 157/141/112
f 163/150/126 164/151/126 158/142/126
f 158/142/127 164/151/127 165/165/127
f 165/152/115 166/157/115 160/146/115
f 160/146/128 166/157/128 161/147/128
f 141/128/129 168/170/129 169/153/129
f 162/149/112 135/162/112 134/154/112
f 139/124/112 170/160/112 171/155/112
f 165/152/115 132/171/115 131/156/115
f 142/131/115 167/164/115 168/158/115
f 164/151/130 163/150/130 134/154/130
f 139/124/131 140/126/131 169/153/131
f 162/149/131 161/147/131 136/161/131
f 166/157/129 131/156/129 136/161/129
f 137/120/130 138/122/130 171/155/130
f 142/131/132 137/120/132 172/163/132
f 165/165/132 164/151/132 133/159/132
