{
	"asset":{
		"generator":"Khronos glTF Blender I/O v5.2.39",
		"version":"2.0"
	},
	"scene":0,
	"scenes":[
		{
			"name":"Scene",
			"nodes":[
				4
			]
		}
	],
	"nodes":[
		{
			"name":"bone1"
		},
		{
			"name":"bone2"
		},
		{
			"mesh":0,
			"name":"RouletteTable_725x0",
			"skin":0
		},
		{
			"mesh":1,
			"name":"RouletteTable_725x0.001",
			"skin":0
		},
		{
			"children":[
				2,
				3,
				0,
				1
			],
			"name":"Armature",
			"rotation":[
				0,
				-0.9702954888343811,
				0,
				0.24192292988300323
			]
		}
	],
	"animations":[
		{
			"channels":[
				{
					"sampler":0,
					"target":{
						"node":0,
						"path":"translation"
					}
				},
				{
					"sampler":1,
					"target":{
						"node":0,
						"path":"rotation"
					}
				},
				{
					"sampler":2,
					"target":{
						"node":0,
						"path":"scale"
					}
				},
				{
					"sampler":3,
					"target":{
						"node":1,
						"path":"translation"
					}
				},
				{
					"sampler":4,
					"target":{
						"node":1,
						"path":"rotation"
					}
				},
				{
					"sampler":5,
					"target":{
						"node":1,
						"path":"scale"
					}
				}
			],
			"name":"idle",
			"samplers":[
				{
					"input":11,
					"interpolation":"LINEAR",
					"output":12
				},
				{
					"input":11,
					"interpolation":"LINEAR",
					"output":13
				},
				{
					"input":11,
					"interpolation":"LINEAR",
					"output":14
				},
				{
					"input":11,
					"interpolation":"LINEAR",
					"output":12
				},
				{
					"input":11,
					"interpolation":"LINEAR",
					"output":15
				},
				{
					"input":11,
					"interpolation":"LINEAR",
					"output":16
				}
			]
		}
	],
	"materials":[
		{
			"doubleSided":true,
			"name":"RouletteWheel",
			"pbrMetallicRoughness":{
				"baseColorTexture":{
					"index":0
				},
				"metallicFactor":0,
				"roughnessFactor":0.5
			}
		}
	],
	"meshes":[
		{
			"name":"roulette",
			"primitives":[
				{
					"attributes":{
						"POSITION":0,
						"TEXCOORD_0":1,
						"JOINTS_0":2,
						"WEIGHTS_0":3
					},
					"indices":4,
					"material":0
				}
			]
		},
		{
			"name":"roulette.001",
			"primitives":[
				{
					"attributes":{
						"POSITION":6,
						"TEXCOORD_0":7,
						"JOINTS_0":8,
						"WEIGHTS_0":9
					},
					"indices":10,
					"material":0
				}
			]
		}
	],
	"textures":[
		{
			"sampler":0,
			"source":0
		}
	],
	"images":[
		{
			"mimeType":"image/png",
			"name":"725virtue_roulette_wheel",
			"uri":"725virtue_roulette_wheel.png"
		}
	],
	"skins":[
		{
			"inverseBindMatrices":5,
			"joints":[
				0,
				1
			],
			"name":"Armature"
		}
	],
	"accessors":[
		{
			"bufferView":0,
			"componentType":5126,
			"count":376,
			"max":[
				1.3986458778381348,
				1.901641607284546,
				1.4032719135284424
			],
			"min":[
				-1.3968490362167358,
				0.020991981029510498,
				-1.4077248573303223
			],
			"type":"VEC3"
		},
		{
			"bufferView":1,
			"componentType":5126,
			"count":376,
			"type":"VEC2"
		},
		{
			"bufferView":2,
			"componentType":5121,
			"count":376,
			"type":"VEC4"
		},
		{
			"bufferView":3,
			"componentType":5126,
			"count":376,
			"type":"VEC4"
		},
		{
			"bufferView":4,
			"componentType":5123,
			"count":726,
			"type":"SCALAR"
		},
		{
			"bufferView":5,
			"componentType":5126,
			"count":2,
			"type":"MAT4"
		},
		{
			"bufferView":6,
			"componentType":5126,
			"count":160,
			"max":[
				1.2238667011260986,
				2.2597599029541016,
				1.2241204977035522
			],
			"min":[
				-1.2244348526000977,
				1.9049324989318848,
				-1.2241811752319336
			],
			"type":"VEC3"
		},
		{
			"bufferView":7,
			"componentType":5126,
			"count":160,
			"type":"VEC2"
		},
		{
			"bufferView":8,
			"componentType":5121,
			"count":160,
			"type":"VEC4"
		},
		{
			"bufferView":9,
			"componentType":5126,
			"count":160,
			"type":"VEC4"
		},
		{
			"bufferView":10,
			"componentType":5123,
			"count":378,
			"type":"SCALAR"
		},
		{
			"bufferView":11,
			"componentType":5126,
			"count":57,
			"max":[
				2.3333333333333335
			],
			"min":[
				0
			],
			"type":"SCALAR"
		},
		{
			"bufferView":12,
			"componentType":5126,
			"count":57,
			"type":"VEC3"
		},
		{
			"bufferView":13,
			"componentType":5126,
			"count":57,
			"type":"VEC4"
		},
		{
			"bufferView":14,
			"componentType":5126,
			"count":57,
			"type":"VEC3"
		},
		{
			"bufferView":15,
			"componentType":5126,
			"count":57,
			"type":"VEC4"
		},
		{
			"bufferView":16,
			"componentType":5126,
			"count":57,
			"type":"VEC3"
		}
	],
	"bufferViews":[
		{
			"buffer":0,
			"byteLength":4512,
			"byteOffset":0,
			"target":34962
		},
		{
			"buffer":0,
			"byteLength":3008,
			"byteOffset":4512,
			"target":34962
		},
		{
			"buffer":0,
			"byteLength":1504,
			"byteOffset":7520,
			"target":34962
		},
		{
			"buffer":0,
			"byteLength":6016,
			"byteOffset":9024,
			"target":34962
		},
		{
			"buffer":0,
			"byteLength":1452,
			"byteOffset":15040,
			"target":34963
		},
		{
			"buffer":0,
			"byteLength":128,
			"byteOffset":16492
		},
		{
			"buffer":0,
			"byteLength":1920,
			"byteOffset":16620,
			"target":34962
		},
		{
			"buffer":0,
			"byteLength":1280,
			"byteOffset":18540,
			"target":34962
		},
		{
			"buffer":0,
			"byteLength":640,
			"byteOffset":19820,
			"target":34962
		},
		{
			"buffer":0,
			"byteLength":2560,
			"byteOffset":20460,
			"target":34962
		},
		{
			"buffer":0,
			"byteLength":756,
			"byteOffset":23020,
			"target":34963
		},
		{
			"buffer":0,
			"byteLength":228,
			"byteOffset":23776
		},
		{
			"buffer":0,
			"byteLength":684,
			"byteOffset":24004
		},
		{
			"buffer":0,
			"byteLength":912,
			"byteOffset":24688
		},
		{
			"buffer":0,
			"byteLength":684,
			"byteOffset":25600
		},
		{
			"buffer":0,
			"byteLength":912,
			"byteOffset":26284
		},
		{
			"buffer":0,
			"byteLength":684,
			"byteOffset":27196
		}
	],
	"samplers":[
		{
			"magFilter":9728,
			"minFilter":9984
		}
	],
	"buffers":[
		{
			"byteLength":27880,
			"uri":"roulette_725x00.bin"
		}
	]
}
