{
	"asset":{
		"generator":"Khronos glTF Blender I/O v4.4.55",
		"version":"2.0"
	},
	"scene":0,
	"scenes":[
		{
			"name":"Scene",
			"nodes":[
				0
			]
		}
	],
	"nodes":[
		{
			"mesh":0,
			"name":"scorchmark_7"
		}
	],
	"materials":[
		{
			"alphaMode":"BLEND",
			"doubleSided":true,
			"name":"Material",
			"pbrMetallicRoughness":{
				"baseColorTexture":{
					"index":0
				},
				"metallicFactor":0,
				"roughnessFactor":0.5
			}
		}
	],
	"meshes":[
		{
			"name":"Plane.010",
			"primitives":[
				{
					"attributes":{
						"POSITION":0,
						"NORMAL":1,
						"TEXCOORD_0":2
					},
					"indices":3,
					"material":0
				}
			]
		}
	],
	"textures":[
		{
			"sampler":0,
			"source":0
		}
	],
	"images":[
		{
			"mimeType":"image/png",
			"name":"204-209dirtscorch",
			"uri":"204-209dirtscorch.png"
		}
	],
	"accessors":[
		{
			"bufferView":0,
			"componentType":5126,
			"count":1505,
			"max":[
				1.7190744876861572,
				0.19986075162887573,
				1.6319918632507324
			],
			"min":[
				0.004788696765899658,
				0,
				0.012944281101226807
			],
			"type":"VEC3"
		},
		{
			"bufferView":1,
			"componentType":5126,
			"count":1505,
			"type":"VEC3"
		},
		{
			"bufferView":2,
			"componentType":5126,
			"count":1505,
			"type":"VEC2"
		},
		{
			"bufferView":3,
			"componentType":5123,
			"count":3492,
			"type":"SCALAR"
		}
	],
	"bufferViews":[
		{
			"buffer":0,
			"byteLength":18060,
			"byteOffset":0,
			"target":34962
		},
		{
			"buffer":0,
			"byteLength":18060,
			"byteOffset":18060,
			"target":34962
		},
		{
			"buffer":0,
			"byteLength":12040,
			"byteOffset":36120,
			"target":34962
		},
		{
			"buffer":0,
			"byteLength":6984,
			"byteOffset":48160,
			"target":34963
		}
	],
	"samplers":[
		{
			"magFilter":9728,
			"minFilter":9984
		}
	],
	"buffers":[
		{
			"byteLength":55144,
			"uri":"scorchmark_7.bin"
		}
	]
}
