{
	"asset":{
		"generator":"Khronos glTF Blender I/O v4.4.55",
		"version":"2.0"
	},
	"scene":0,
	"scenes":[
		{
			"name":"Scene",
			"nodes":[
				0
			]
		}
	],
	"nodes":[
		{
			"mesh":0,
			"name":"scorchmark_4"
		}
	],
	"materials":[
		{
			"alphaMode":"BLEND",
			"doubleSided":true,
			"name":"Material",
			"pbrMetallicRoughness":{
				"baseColorTexture":{
					"index":0
				},
				"metallicFactor":0,
				"roughnessFactor":0.5
			}
		}
	],
	"meshes":[
		{
			"name":"Plane.007",
			"primitives":[
				{
					"attributes":{
						"POSITION":0,
						"NORMAL":1,
						"TEXCOORD_0":2
					},
					"indices":3,
					"material":0
				}
			]
		}
	],
	"textures":[
		{
			"sampler":0,
			"source":0
		}
	],
	"images":[
		{
			"mimeType":"image/png",
			"name":"204-209dirtscorch",
			"uri":"204-209dirtscorch.png"
		}
	],
	"accessors":[
		{
			"bufferView":0,
			"componentType":5126,
			"count":1656,
			"max":[
				2.291884660720825,
				0.09298375993967056,
				1.436938762664795
			],
			"min":[
				0.0017455421620979905,
				0,
				0.008366926573216915
			],
			"type":"VEC3"
		},
		{
			"bufferView":1,
			"componentType":5126,
			"count":1656,
			"type":"VEC3"
		},
		{
			"bufferView":2,
			"componentType":5126,
			"count":1656,
			"type":"VEC2"
		},
		{
			"bufferView":3,
			"componentType":5123,
			"count":3516,
			"type":"SCALAR"
		}
	],
	"bufferViews":[
		{
			"buffer":0,
			"byteLength":19872,
			"byteOffset":0,
			"target":34962
		},
		{
			"buffer":0,
			"byteLength":19872,
			"byteOffset":19872,
			"target":34962
		},
		{
			"buffer":0,
			"byteLength":13248,
			"byteOffset":39744,
			"target":34962
		},
		{
			"buffer":0,
			"byteLength":7032,
			"byteOffset":52992,
			"target":34963
		}
	],
	"samplers":[
		{
			"magFilter":9728,
			"minFilter":9984
		}
	],
	"buffers":[
		{
			"byteLength":60024,
			"uri":"scorchmark_4.bin"
		}
	]
}
