{
	"asset":{
		"generator":"Khronos glTF Blender I/O v4.4.55",
		"version":"2.0"
	},
	"scene":0,
	"scenes":[
		{
			"name":"Scene",
			"nodes":[
				0
			]
		}
	],
	"nodes":[
		{
			"mesh":0,
			"name":"scorchmark_5"
		}
	],
	"materials":[
		{
			"alphaMode":"BLEND",
			"doubleSided":true,
			"name":"Material",
			"pbrMetallicRoughness":{
				"baseColorTexture":{
					"index":0
				},
				"metallicFactor":0,
				"roughnessFactor":0.5
			}
		}
	],
	"meshes":[
		{
			"name":"Plane.008",
			"primitives":[
				{
					"attributes":{
						"POSITION":0,
						"NORMAL":1,
						"TEXCOORD_0":2
					},
					"indices":3,
					"material":0
				}
			]
		}
	],
	"textures":[
		{
			"sampler":0,
			"source":0
		}
	],
	"images":[
		{
			"mimeType":"image/png",
			"name":"204-209dirtscorch",
			"uri":"204-209dirtscorch.png"
		}
	],
	"accessors":[
		{
			"bufferView":0,
			"componentType":5126,
			"count":1836,
			"max":[
				2.389636993408203,
				0.10154371708631516,
				1.4321471452713013
			],
			"min":[
				0.004218967631459236,
				0,
				0.003575606970116496
			],
			"type":"VEC3"
		},
		{
			"bufferView":1,
			"componentType":5126,
			"count":1836,
			"type":"VEC3"
		},
		{
			"bufferView":2,
			"componentType":5126,
			"count":1836,
			"type":"VEC2"
		},
		{
			"bufferView":3,
			"componentType":5123,
			"count":3840,
			"type":"SCALAR"
		}
	],
	"bufferViews":[
		{
			"buffer":0,
			"byteLength":22032,
			"byteOffset":0,
			"target":34962
		},
		{
			"buffer":0,
			"byteLength":22032,
			"byteOffset":22032,
			"target":34962
		},
		{
			"buffer":0,
			"byteLength":14688,
			"byteOffset":44064,
			"target":34962
		},
		{
			"buffer":0,
			"byteLength":7680,
			"byteOffset":58752,
			"target":34963
		}
	],
	"samplers":[
		{
			"magFilter":9728,
			"minFilter":9984
		}
	],
	"buffers":[
		{
			"byteLength":66432,
			"uri":"scorchmark_5.bin"
		}
	]
}
