# Blender 3.6.2
# www.blender.org
mtllib scroll_797_02.mtl
o Spiral
v 0.455529 -0.129626 0.006860
v 0.455529 -0.129980 0.018962
v 0.455529 -0.128349 0.031337
v 0.455529 -0.124683 0.043028
v 0.455529 -0.119094 0.053057
v 0.455529 -0.111855 0.060506
v 0.455529 -0.103394 0.064593
v 0.455529 -0.094265 0.064745
v 0.455529 -0.085112 0.060659
v 0.455529 -0.076625 0.052338
v 0.455529 -0.069491 0.040115
v 0.455529 -0.064332 0.024642
v 0.455529 -0.061662 0.006860
v 0.455529 -0.061837 -0.012059
v 0.455529 -0.065016 -0.030785
v 0.455529 -0.071145 -0.047930
v 0.455529 -0.079945 -0.062144
v 0.455529 -0.090922 -0.072223
v 0.455529 -0.103394 -0.077207
v 0.455529 -0.116536 -0.076463
v 0.455529 -0.129427 -0.069746
v 0.455529 -0.141124 -0.057240
v 0.455529 -0.150722 -0.039563
v 0.455529 -0.157429 -0.017738
v 0.455529 -0.160627 0.006860
v 0.455529 -0.159925 0.032594
v 0.455529 -0.155197 0.057671
v 0.455529 -0.146604 0.080270
v 0.455529 -0.134594 0.098669
v 0.455529 -0.119879 0.111380
v 0.455529 -0.103394 0.117261
v 0.455529 -0.086241 0.115619
v 0.455529 -0.069611 0.106271
v 0.455529 -0.054704 0.089581
v 0.455529 -0.042643 0.066449
v 0.455529 -0.034387 0.038274
v 0.455529 -0.030661 0.006860
v 0.455529 -0.031892 -0.025690
v 0.455529 -0.038168 -0.057119
v 0.455529 -0.049224 -0.085172
v 0.455529 -0.064444 -0.107756
v 0.455529 -0.082898 -0.123097
v 0.455529 -0.103394 -0.129876
v 0.455529 -0.124559 -0.127337
v 0.455529 -0.144928 -0.115358
v 0.455529 -0.163045 -0.094482
v 0.455529 -0.177570 -0.065897
v 0.455529 -0.187374 -0.031370
v 0.455529 -0.191628 0.006860
v 0.455529 -0.189869 0.046225
v 0.455529 -0.182044 0.084006
v 0.455529 -0.168525 0.117512
v 0.455529 -0.150095 0.144281
v 0.455529 -0.127903 0.162254
v 0.455529 -0.103394 0.169930
v 0.455529 -0.078218 0.166493
v 0.455529 -0.054111 0.151884
v 0.455529 -0.032783 0.126823
v 0.455529 -0.015795 0.092784
v 0.455529 -0.004443 0.051905
v 0.455529 0.000340 0.006860
v 0.455529 -0.001947 -0.039322
v 0.455529 -0.011321 -0.083453
v 0.455529 -0.027303 -0.122414
v 0.455529 -0.048944 -0.153368
v 0.455529 -0.074874 -0.173971
v 0.455529 -0.103394 -0.182545
v 0.455529 -0.132583 -0.178211
v 0.455529 -0.160428 -0.160970
v 0.455529 -0.184966 -0.131725
v 0.455529 -0.204417 -0.092232
v 0.455529 -0.217319 -0.045002
v 0.455529 -0.222629 0.006860
v 0.455529 -0.222629 0.169929
l 1 2
l 2 3
l 3 4
l 4 5
l 5 6
l 6 7
l 7 8
l 8 9
l 9 10
l 10 11
l 11 12
l 12 13
l 13 14
l 14 15
l 15 16
l 16 17
l 17 18
l 18 19
l 19 20
l 20 21
l 21 22
l 22 23
l 23 24
l 24 25
l 25 26
l 26 27
l 27 28
l 28 29
l 29 30
l 30 31
l 31 32
l 32 33
l 33 34
l 34 35
l 35 36
l 36 37
l 37 38
l 38 39
l 39 40
l 40 41
l 41 42
l 42 43
l 43 44
l 44 45
l 45 46
l 46 47
l 47 48
l 48 49
l 49 50
l 50 51
l 51 52
l 52 53
l 53 54
l 54 55
l 55 56
l 56 57
l 57 58
l 58 59
l 59 60
l 60 61
l 61 62
l 62 63
l 63 64
l 64 65
l 65 66
l 66 67
l 67 68
l 68 69
l 69 70
l 70 71
l 71 72
l 72 73
l 73 74
o Paper
v 0.000000 0.004749 0.351506
v 0.911058 0.004749 0.351506
v 0.000000 0.075891 0.324325
v 0.911058 0.075891 0.324325
v 0.000000 0.088148 0.335145
v 0.000000 0.100957 0.344783
v 0.000000 0.115359 0.349294
v 0.000000 0.129888 0.351189
v 0.000000 0.144609 0.349180
v 0.000000 0.158457 0.342924
v 0.000000 0.171915 0.334769
v 0.000000 0.183226 0.322247
v 0.000000 0.194298 0.309237
v 0.000000 0.202539 0.292971
v 0.000000 0.210701 0.276616
v 0.000000 0.216141 0.258435
v 0.000000 0.221252 0.240033
v 0.000000 0.224318 0.220951
v 0.000000 0.226379 0.201534
v 0.000000 0.227378 0.182066
v 0.000000 0.226409 0.162500
v 0.000000 0.225440 0.142934
v 0.000000 0.221461 0.124053
v 0.000000 0.217452 0.105178
v 0.000000 0.211449 0.087378
v 0.000000 0.204381 0.070150
v 0.000000 0.196147 0.054033
v 0.000000 0.186090 0.039648
v 0.000000 0.175404 0.026290
v 0.000000 0.162713 0.016206
v 0.000000 0.149681 0.007246
v 0.000000 0.135249 0.002908
v 0.000000 0.120757 0.000000
v 0.000000 0.106051 0.002184
v 0.000000 0.091649 0.005803
v 0.000000 0.078242 0.014104
v 0.000000 0.065214 0.023164
v 0.000000 0.054212 0.036277
v 0.000000 0.043210 0.049390
v 0.000000 0.034911 0.065571
v 0.000000 0.026823 0.081991
v 0.000000 0.020330 0.099465
v 0.000000 0.015293 0.117903
v 0.000000 0.010257 0.136340
v 0.000000 0.008148 0.155731
v 0.000000 0.006158 0.175161
v 0.000000 0.004749 0.194643
v 0.000000 0.004749 0.214250
v 0.000000 0.004749 0.233858
v 0.000000 0.004749 0.253466
v 0.000000 0.004749 0.273074
v 0.000000 0.004749 0.292682
v 0.000000 0.004749 0.312290
v 0.000000 0.004749 0.331898
v 0.911058 0.004749 0.331898
v 0.911058 0.004749 0.312290
v 0.911058 0.004749 0.292682
v 0.911058 0.004749 0.273074
v 0.911058 0.004749 0.253466
v 0.911058 0.004749 0.233858
v 0.911058 0.004749 0.214251
v 0.911058 0.004749 0.194643
v 0.911058 0.006158 0.175161
v 0.911058 0.008148 0.155731
v 0.911058 0.010257 0.136340
v 0.911058 0.015293 0.117903
v 0.911058 0.020330 0.099465
v 0.911058 0.026823 0.081991
v 0.911058 0.034911 0.065571
v 0.911058 0.043210 0.049390
v 0.911058 0.054212 0.036277
v 0.911058 0.065214 0.023164
v 0.911058 0.078242 0.014104
v 0.911058 0.091649 0.005803
v 0.911058 0.106051 0.002184
v 0.911058 0.120757 0.000000
v 0.911058 0.135249 0.002908
v 0.911058 0.149681 0.007246
v 0.911058 0.162713 0.016206
v 0.911058 0.175405 0.026290
v 0.911058 0.186090 0.039648
v 0.911058 0.196147 0.054033
v 0.911058 0.204382 0.070150
v 0.911058 0.211449 0.087377
v 0.911058 0.217452 0.105178
v 0.911058 0.221461 0.124053
v 0.911058 0.225440 0.142934
v 0.911058 0.226409 0.162500
v 0.911058 0.227378 0.182066
v 0.911058 0.226379 0.201534
v 0.911058 0.224318 0.220951
v 0.911058 0.221252 0.240033
v 0.911058 0.216141 0.258435
v 0.911058 0.210701 0.276616
v 0.911058 0.202539 0.292971
v 0.911058 0.194298 0.309237
v 0.911058 0.183226 0.322247
v 0.911058 0.171915 0.334769
v 0.911058 0.158457 0.342924
v 0.911058 0.144609 0.349180
v 0.911058 0.129888 0.351189
v 0.911058 0.115359 0.349294
v 0.911058 0.100957 0.344783
v 0.911058 0.088148 0.335145
v 0.387850 0.221448 0.118899
v 0.127548 0.221448 0.118899
v 0.387850 0.165694 0.340054
v 0.127548 0.165694 0.340054
v 0.387850 0.180526 0.378427
v 0.387850 0.252675 0.106785
v 0.127548 0.252675 0.106785
v 0.127548 0.180526 0.378427
v 0.387850 0.221623 0.242684
v 0.127548 0.221623 0.242684
v 0.387850 0.252789 0.255069
v 0.127548 0.252789 0.255069
v 0.127548 0.200846 0.298860
v 0.127548 0.227017 0.324477
v 0.387850 0.200846 0.298860
v 0.387850 0.227017 0.324477
v 0.387850 0.228356 0.180794
v 0.387850 0.260894 0.180823
v 0.127548 0.228356 0.180794
v 0.127548 0.260894 0.180823
v 0.387850 0.226802 0.149419
v 0.387850 0.259025 0.143440
v 0.127548 0.226802 0.149419
v 0.127548 0.259025 0.143440
v 0.127548 0.226320 0.211998
v 0.127548 0.258524 0.218154
v 0.387850 0.226320 0.211998
v 0.387850 0.258524 0.218154
v 0.387850 0.213418 0.272216
v 0.387850 0.242705 0.291000
v 0.127548 0.213418 0.272216
v 0.127548 0.242705 0.291000
v 0.127548 0.184980 0.322030
v 0.127548 0.206468 0.354403
v 0.387850 0.184980 0.322030
v 0.387850 0.206468 0.354403
v 0.911058 0.038328 0.351515
v 0.650756 0.038328 0.351515
v 0.911058 0.050052 0.121232
v 0.650756 0.050052 0.121232
v 0.911058 0.020031 0.104607
v 0.911058 0.005790 0.351506
v 0.650756 0.005790 0.351506
v 0.650756 0.020031 0.104607
v 0.911058 0.038283 0.228813
v 0.650756 0.038283 0.228813
v 0.911058 0.005789 0.226577
v 0.650756 0.005789 0.226577
v 0.650756 0.040479 0.170885
v 0.650756 0.008307 0.164438
v 0.911058 0.040479 0.170885
v 0.911058 0.008307 0.164438
v 0.911058 0.038316 0.290164
v 0.911058 0.005790 0.289042
v 0.650756 0.038316 0.290164
v 0.650756 0.005790 0.289042
v 0.911058 0.038325 0.320839
v 0.911058 0.005790 0.320274
v 0.650756 0.038325 0.320839
v 0.650756 0.005790 0.320274
v 0.650756 0.038302 0.259489
v 0.650756 0.005789 0.257809
v 0.911058 0.038302 0.259489
v 0.911058 0.005789 0.257809
v 0.911058 0.038257 0.198137
v 0.911058 0.005788 0.195345
v 0.650756 0.038257 0.198137
v 0.650756 0.005788 0.195345
v 0.650756 0.043512 0.144810
v 0.650756 0.012051 0.133812
v 0.911058 0.043512 0.144810
v 0.911058 0.012051 0.133812
v 0.358391 0.250030 0.234440
v 0.359744 0.186343 0.349579
v 0.454135 0.242786 0.240540
v 0.424589 0.185768 0.355392
v 0.531286 0.225618 0.265551
v 0.463067 0.181210 0.368937
v 0.588122 0.199777 0.309306
v 0.485928 0.174199 0.388155
v 0.623531 0.169927 0.364796
v 0.503312 0.162851 0.417827
v 0.643975 0.139947 0.425480
v 0.517785 0.146066 0.462266
v 0.657455 0.111064 0.489812
v 0.530374 0.125401 0.520791
v 0.669976 0.083787 0.557930
v 0.544100 0.103123 0.591037
v 0.686262 0.058791 0.629814
v 0.563270 0.081340 0.670795
v 0.710569 0.036907 0.705285
v 0.592653 0.062000 0.758018
v 0.747175 0.019060 0.784252
v 0.637000 0.046960 0.850569
v 0.800699 0.006318 0.866720
v 0.700720 0.037930 0.946215
v 0.876175 -0.000027 0.952490
v 0.787807 0.036401 1.042927
v 0.676839 0.032005 0.357734
v 0.681296 0.027995 0.226285
v 0.622025 0.031679 0.361255
v 0.597053 0.027907 0.232116
v 0.581988 0.031070 0.374157
v 0.524004 0.027264 0.256097
v 0.551345 0.030247 0.395172
v 0.463659 0.026163 0.297145
v 0.525090 0.029191 0.426171
v 0.417156 0.024791 0.351032
v 0.501442 0.027892 0.469224
v 0.382403 0.023324 0.413335
v 0.480171 0.026413 0.524322
v 0.355760 0.021864 0.481708
v 0.460716 0.024856 0.590076
v 0.333915 0.020479 0.555186
v 0.441865 0.023327 0.664781
v 0.314211 0.019226 0.633118
v 0.421982 0.021930 0.746815
v 0.294412 0.018169 0.714773
v 0.399200 0.020765 0.834694
v 0.272515 0.017375 0.799280
v 0.371527 0.019928 0.927021
v 0.246640 0.016915 0.885681
v 0.336970 0.019517 1.022247
v 0.214908 0.016857 0.973171
vn -0.0000 0.6618 -0.7497
vn -0.0000 1.0000 -0.0000
vn -0.0000 0.9974 0.0722
vn -0.0000 0.9948 0.1019
vn -0.0000 0.9941 0.1081
vn -0.0000 0.9647 0.2635
vn -0.0000 0.9374 0.3483
vn -0.0000 0.8971 0.4418
vn -0.0000 0.8898 0.4564
vn -0.0000 0.7661 0.6428
vn -0.0000 0.5709 0.8210
vn -0.0000 0.5264 0.8502
vn -0.0000 0.2437 0.9698
vn -0.0000 0.1469 0.9892
vn -0.0000 -0.1967 0.9805
vn -0.0000 -0.2879 0.9577
vn -0.0000 -0.5666 0.8240
vn -0.0000 -0.6221 0.7830
vn -0.0000 -0.7809 0.6247
vn -0.0000 -0.8196 0.5730
vn -0.0000 -0.8905 0.4550
vn -0.0000 -0.9252 0.3795
vn -0.0000 -0.9476 0.3196
vn -0.0000 -0.9782 0.2078
vn -0.0000 -0.9785 0.2062
vn -0.0000 -0.9988 0.0495
vn -0.0000 -0.9987 -0.0512
vn -0.0000 -0.9944 -0.1056
vn -0.0000 -0.9873 -0.1586
vn -0.0000 -0.9635 -0.2676
vn -0.0000 -0.9580 -0.2867
vn -0.0000 -0.8948 -0.4465
vn -0.0000 -0.8921 -0.4519
vn -0.0000 -0.7616 -0.6481
vn -0.0000 -0.7421 -0.6703
vn -0.0000 -0.5183 -0.8552
vn -0.0000 -0.4117 -0.9113
vn -0.0000 -0.1352 -0.9908
vn -0.0000 0.1294 -0.9916
vn -0.0000 0.2989 -0.9543
vn -0.0000 0.6012 -0.7991
vn -0.0000 -0.6828 -0.7306
vn -0.0000 0.6795 0.7337
vn -0.0000 -0.9328 0.3605
vn -0.0000 -0.3617 -0.9323
vn -1.0000 -0.0000 -0.0000
vn 1.0000 -0.0000 -0.0000
vn -0.0000 0.9881 0.1535
vn -0.0000 -0.9885 -0.1513
vn -0.0000 0.9055 0.4243
vn -0.0000 -0.9044 -0.4267
vn -0.0000 0.9988 -0.0499
vn -0.0000 0.9853 -0.1707
vn -0.0000 -0.9850 0.1728
vn -0.0000 -0.9979 -0.0651
vn -0.0000 0.9980 0.0634
vn -0.0000 -0.9635 -0.2677
vn -0.0000 0.9628 0.2702
vn -0.0000 0.8244 0.5661
vn -0.0000 -0.8251 -0.5650
vn -0.0000 0.9636 0.2673
vn -0.0000 -0.9646 -0.2636
vn -0.0000 0.4845 -0.8748
vn -0.0000 -0.0003 1.0000
vn -0.0000 -1.0000 -0.0000
vn -0.0000 1.0000 -0.0006
vn -0.0000 -0.9967 -0.0812
vn -0.0000 0.9967 0.0812
vn -0.0000 1.0000 -0.0003
vn -0.0000 1.0000 -0.0001
vn -0.0000 1.0000 -0.0005
vn -0.0000 1.0000 -0.0008
vn -0.0000 -0.9926 -0.1213
vn -0.0000 0.9933 0.1155
vn 0.0086 0.8850 0.4655
vn 0.0172 0.8937 0.4483
vn 0.0415 0.9077 0.4175
vn 0.0757 0.9156 0.3949
vn 0.0756 0.9156 0.3949
vn 0.1122 0.9197 0.3762
vn 0.1121 0.9197 0.3762
vn 0.1478 0.9240 0.3526
vn 0.1825 0.9305 0.3177
vn 0.2146 0.9394 0.2672
vn 0.2404 0.9502 0.1985
vn 0.2543 0.9607 0.1115
vn 0.2513 0.9679 0.0104
vn 0.2298 0.9685 -0.0961
vn 0.2142 0.9653 -0.1491
vn -0.0050 0.9996 -0.0295
vn -0.0120 0.9996 -0.0269
vn -0.0253 0.9995 -0.0198
vn -0.0353 0.9993 -0.0100
vn -0.0402 0.9992 -0.0008
vn -0.0410 0.9991 0.0057
vn -0.0396 0.9992 0.0089
vn -0.0371 0.9993 0.0094
vn -0.0341 0.9994 0.0081
vn -0.0308 0.9995 0.0054
vn -0.0272 0.9996 0.0017
vn -0.0232 0.9997 -0.0027
vn -0.0211 0.9998 -0.0051
vt 0.664951 0.742918
vt 0.788256 0.742918
vt 0.788256 0.745517
vt 0.664951 0.745517
vt 0.664951 0.612987
vt 0.788256 0.612987
vt 0.788256 0.615586
vt 0.664951 0.615586
vt 0.788256 0.618184
vt 0.664951 0.618184
vt 0.788256 0.620783
vt 0.664951 0.620783
vt 0.788256 0.623381
vt 0.664951 0.623381
vt 0.788256 0.625980
vt 0.664951 0.625980
vt 0.788256 0.628579
vt 0.664951 0.628579
vt 0.788256 0.631177
vt 0.664951 0.631177
vt 0.788256 0.633776
vt 0.664951 0.633776
vt 0.788256 0.636375
vt 0.664951 0.636375
vt 0.788256 0.638973
vt 0.664951 0.638973
vt 0.788256 0.641572
vt 0.664951 0.641572
vt 0.788256 0.644170
vt 0.664951 0.644170
vt 0.788256 0.646769
vt 0.664951 0.646769
vt 0.788256 0.649368
vt 0.664951 0.649368
vt 0.788256 0.651966
vt 0.664951 0.651966
vt 0.788256 0.654565
vt 0.664951 0.654565
vt 0.788256 0.657164
vt 0.664951 0.657164
vt 0.788256 0.659762
vt 0.664951 0.659762
vt 0.788256 0.662361
vt 0.664951 0.662361
vt 0.788256 0.664959
vt 0.664951 0.664959
vt 0.788256 0.667558
vt 0.664951 0.667558
vt 0.788256 0.670157
vt 0.664951 0.670157
vt 0.788256 0.672755
vt 0.664951 0.672755
vt 0.788256 0.675354
vt 0.664951 0.675354
vt 0.788256 0.677953
vt 0.664951 0.677953
vt 0.788256 0.680551
vt 0.664951 0.680551
vt 0.788256 0.683150
vt 0.664951 0.683150
vt 0.788256 0.685749
vt 0.664951 0.685749
vt 0.788256 0.688347
vt 0.664951 0.688347
vt 0.788256 0.690946
vt 0.664951 0.690946
vt 0.788256 0.693544
vt 0.664951 0.693544
vt 0.788256 0.696143
vt 0.664951 0.696143
vt 0.788256 0.698742
vt 0.664951 0.698742
vt 0.788256 0.701340
vt 0.664951 0.701340
vt 0.788256 0.703939
vt 0.664951 0.703939
vt 0.788256 0.706537
vt 0.664951 0.706537
vt 0.788256 0.709136
vt 0.664951 0.709136
vt 0.788256 0.711735
vt 0.664951 0.711735
vt 0.788256 0.714333
vt 0.664951 0.714333
vt 0.788256 0.716932
vt 0.664951 0.716932
vt 0.788256 0.719531
vt 0.664951 0.719531
vt 0.788256 0.722129
vt 0.664951 0.722129
vt 0.788256 0.724728
vt 0.664951 0.724728
vt 0.788256 0.727326
vt 0.664951 0.727326
vt 0.788256 0.729925
vt 0.664951 0.729925
vt 0.788256 0.732524
vt 0.664951 0.732524
vt 0.788256 0.735122
vt 0.664951 0.735122
vt 0.788256 0.737721
vt 0.664951 0.737721
vt 0.788256 0.740320
vt 0.664951 0.740320
vt 0.868128 0.781259
vt 0.868128 0.785699
vt 0.905643 0.785699
vt 0.905643 0.781259
vt 0.868128 0.750178
vt 0.905643 0.750178
vt 0.868128 0.754618
vt 0.868128 0.772379
vt 0.868128 0.767939
vt 0.905643 0.763499
vt 0.905643 0.767939
vt 0.868128 0.763499
vt 0.868128 0.776819
vt 0.905643 0.772379
vt 0.905643 0.776819
vt 0.868128 0.759058
vt 0.905643 0.759058
vt 0.905643 0.754618
vt 0.924824 0.540435
vt 0.924824 0.536023
vt 0.961970 0.536023
vt 0.961970 0.540435
vt 0.924824 0.571318
vt 0.961970 0.571318
vt 0.924824 0.566906
vt 0.924824 0.549259
vt 0.924824 0.553671
vt 0.961970 0.558083
vt 0.961970 0.553671
vt 0.924824 0.558083
vt 0.924824 0.544847
vt 0.961970 0.549259
vt 0.961970 0.544847
vt 0.924824 0.562495
vt 0.961970 0.562495
vt 0.961970 0.566906
vt 0.907992 0.746082
vt 0.909938 0.745984
vt 0.910825 0.747929
vt 0.907951 0.748032
vt 0.911093 0.745754
vt 0.913141 0.747505
vt 0.911779 0.745429
vt 0.914846 0.746764
vt 0.912301 0.744926
vt 0.915909 0.745824
vt 0.912735 0.744174
vt 0.916523 0.744797
vt 0.913113 0.743182
vt 0.916927 0.743707
vt 0.913525 0.741993
vt 0.917303 0.742553
vt 0.914100 0.740642
vt 0.917792 0.741336
vt 0.914982 0.739164
vt 0.918521 0.740057
vt 0.916313 0.737597
vt 0.919620 0.738720
vt 0.918226 0.735977
vt 0.921227 0.737323
vt 0.920840 0.734339
vt 0.923492 0.735871
vt 0.923009 0.552813
vt 0.920179 0.552697
vt 0.921018 0.550112
vt 0.922860 0.550182
vt 0.917725 0.552217
vt 0.919673 0.549853
vt 0.915698 0.551395
vt 0.918644 0.549433
vt 0.914136 0.550316
vt 0.917762 0.548812
vt 0.912968 0.549069
vt 0.916967 0.547950
vt 0.912073 0.547700
vt 0.916253 0.546847
vt 0.911339 0.546229
vt 0.915599 0.545531
vt 0.910677 0.544669
vt 0.914966 0.544035
vt 0.910012 0.543035
vt 0.914298 0.542393
vt 0.909276 0.541343
vt 0.913532 0.540634
vt 0.908407 0.539613
vt 0.912602 0.538786
vt 0.907341 0.537862
vt 0.911442 0.536880
s 0
usemtl Material.001
f 79/1/1 178/2/1 78/3/1 77/4/1
f 75/5/2 76/6/2 129/7/2 128/8/2
f 128/8/2 129/7/2 130/9/2 127/10/2
f 127/10/2 130/9/2 131/11/2 126/12/2
f 126/12/2 131/11/2 132/13/2 125/14/2
f 125/14/2 132/13/2 133/15/2 124/16/2
f 124/16/2 133/15/2 134/17/2 123/18/2
f 123/18/2 134/17/2 135/19/2 122/20/2
f 122/20/2 135/19/2 136/21/2 121/22/2
f 121/22/3 136/21/3 137/23/3 120/24/3
f 120/24/4 137/23/4 138/25/4 119/26/4
f 119/26/5 138/25/5 139/27/5 118/28/5
f 118/28/6 139/27/6 140/29/6 117/30/6
f 117/30/6 140/29/6 141/31/6 116/32/6
f 116/32/7 141/31/7 142/33/7 115/34/7
f 115/34/8 142/33/8 143/35/8 114/36/8
f 114/36/9 143/35/9 144/37/9 113/38/9
f 113/38/10 144/37/10 145/39/10 112/40/10
f 112/40/10 145/39/10 146/41/10 111/42/10
f 111/42/11 146/41/11 147/43/11 110/44/11
f 110/44/12 147/43/12 148/45/12 109/46/12
f 109/46/13 148/45/13 149/47/13 108/48/13
f 108/48/14 149/47/14 150/49/14 107/50/14
f 107/50/15 150/49/15 151/51/15 106/52/15
f 106/52/16 151/51/16 152/53/16 105/54/16
f 105/54/17 152/53/17 153/55/17 104/56/17
f 104/56/18 153/55/18 154/57/18 103/58/18
f 103/58/19 154/57/19 155/59/19 102/60/19
f 102/60/20 155/59/20 156/61/20 101/62/20
f 101/62/21 156/61/21 157/63/21 100/64/21
f 100/64/22 157/63/22 158/65/22 99/66/22
f 99/66/23 158/65/23 159/67/23 98/68/23
f 98/68/24 159/67/24 160/69/24 97/70/24
f 97/70/25 160/69/25 161/71/25 96/72/25
f 96/72/26 161/71/26 162/73/26 95/74/26
f 95/74/26 162/73/26 163/75/26 94/76/26
f 94/76/27 163/75/27 164/77/27 93/78/27
f 93/78/28 164/77/28 165/79/28 92/80/28
f 92/80/29 165/79/29 166/81/29 91/82/29
f 91/82/30 166/81/30 167/83/30 90/84/30
f 90/84/31 167/83/31 168/85/31 89/86/31
f 89/86/32 168/85/32 169/87/32 88/88/32
f 88/88/33 169/87/33 170/89/33 87/90/33
f 87/90/34 170/89/34 171/91/34 86/92/34
f 86/92/35 171/91/35 172/93/35 85/94/35
f 85/94/36 172/93/36 173/95/36 84/96/36
f 84/96/37 173/95/37 174/97/37 83/98/37
f 83/98/38 174/97/38 175/99/38 82/100/38
f 82/100/39 175/99/39 176/101/39 81/102/39
f 81/102/40 176/101/40 177/103/40 80/104/40
f 80/104/41 177/103/41 178/2/41 79/1/41
f 213/105/42 181/106/42 182/107/42 211/108/42
f 214/105/43 212/108/43 186/107/43 183/106/43
f 182/107/44 181/106/44 183/106/44 186/107/44
f 179/109/45 180/110/45 185/110/45 184/109/45
f 211/108/46 182/107/46 186/107/46 212/108/46
f 199/111/47 179/109/47 184/109/47 200/111/47
f 207/112/47 187/113/47 189/113/47 208/112/47
f 203/114/46 188/115/46 190/115/46 204/114/46
f 206/116/48 204/114/48 190/115/48 189/113/48
f 205/116/49 187/113/49 188/115/49 203/114/49
f 213/105/47 193/117/47 194/117/47 214/105/47
f 209/118/46 191/119/46 192/119/46 210/118/46
f 208/112/50 210/118/50 192/119/50 194/117/50
f 207/112/51 193/117/51 191/119/51 209/118/51
f 199/111/26 195/120/26 197/121/26 201/122/26
f 200/111/52 202/122/52 198/121/52 196/120/52
f 201/122/46 197/121/46 198/121/46 202/122/46
f 205/116/47 195/120/47 196/120/47 206/116/47
f 180/110/46 201/122/46 202/122/46 185/110/46
f 184/109/53 185/110/53 202/122/53 200/111/53
f 179/109/54 199/111/54 201/122/54 180/110/54
f 195/120/47 199/111/47 200/111/47 196/120/47
f 187/113/47 205/116/47 206/116/47 189/113/47
f 195/120/55 205/116/55 203/114/55 197/121/55
f 196/120/56 198/121/56 204/114/56 206/116/56
f 197/121/46 203/114/46 204/114/46 198/121/46
f 187/113/57 207/112/57 209/118/57 188/115/57
f 189/113/58 190/115/58 210/118/58 208/112/58
f 188/115/46 209/118/46 210/118/46 190/115/46
f 193/117/47 207/112/47 208/112/47 194/117/47
f 181/106/47 213/105/47 214/105/47 183/106/47
f 191/119/46 211/108/46 212/108/46 192/119/46
f 194/117/59 192/119/59 212/108/59 214/105/59
f 193/117/60 213/105/60 211/108/60 191/119/60
f 249/123/61 217/124/61 218/125/61 247/126/61
f 250/123/62 248/126/62 222/125/62 219/124/62
f 218/125/63 217/124/63 219/124/63 222/125/63
f 215/127/64 216/128/64 221/128/64 220/127/64
f 247/126/46 218/125/46 222/125/46 248/126/46
f 235/129/47 215/127/47 220/127/47 236/129/47
f 243/130/47 223/131/47 225/131/47 244/130/47
f 239/132/46 224/133/46 226/133/46 240/132/46
f 242/134/65 240/132/65 226/133/65 225/131/65
f 241/134/66 223/131/66 224/133/66 239/132/66
f 249/123/47 229/135/47 230/135/47 250/123/47
f 245/136/46 227/137/46 228/137/46 246/136/46
f 244/130/67 246/136/67 228/137/67 230/135/67
f 243/130/68 229/135/68 227/137/68 245/136/68
f 235/129/69 231/138/69 233/139/69 237/140/69
f 236/129/65 238/140/65 234/139/65 232/138/65
f 237/140/46 233/139/46 234/139/46 238/140/46
f 241/134/47 231/138/47 232/138/47 242/134/47
f 216/128/46 237/140/46 238/140/46 221/128/46
f 220/127/65 221/128/65 238/140/65 236/129/65
f 215/127/70 235/129/70 237/140/70 216/128/70
f 231/138/47 235/129/47 236/129/47 232/138/47
f 223/131/47 241/134/47 242/134/47 225/131/47
f 231/138/71 241/134/71 239/132/71 233/139/71
f 232/138/65 234/139/65 240/132/65 242/134/65
f 233/139/46 239/132/46 240/132/46 234/139/46
f 223/131/72 243/130/72 245/136/72 224/133/72
f 225/131/65 226/133/65 246/136/65 244/130/65
f 224/133/46 245/136/46 246/136/46 226/133/46
f 229/135/47 243/130/47 244/130/47 230/135/47
f 217/124/47 249/123/47 250/123/47 219/124/47
f 227/137/46 247/126/46 248/126/46 228/137/46
f 230/135/73 228/137/73 248/126/73 250/123/73
f 229/135/74 249/123/74 247/126/74 227/137/74
s 1
f 252/141/75 254/142/76 253/143/76 251/144/75
f 254/142/76 256/145/77 255/146/77 253/143/76
f 256/145/77 258/147/78 257/148/79 255/146/77
f 258/147/78 260/149/80 259/150/81 257/148/79
f 260/149/80 262/151/82 261/152/82 259/150/81
f 262/151/82 264/153/83 263/154/83 261/152/82
f 264/153/83 266/155/84 265/156/84 263/154/83
f 266/155/84 268/157/85 267/158/85 265/156/84
f 268/157/85 270/159/86 269/160/86 267/158/85
f 270/159/86 272/161/87 271/162/87 269/160/86
f 272/161/87 274/163/88 273/164/88 271/162/87
f 274/163/88 276/165/89 275/166/89 273/164/88
f 278/167/90 280/168/91 279/169/91 277/170/90
f 280/168/91 282/171/92 281/172/92 279/169/91
f 282/171/92 284/173/93 283/174/93 281/172/92
f 284/173/93 286/175/94 285/176/94 283/174/93
f 286/175/94 288/177/95 287/178/95 285/176/94
f 288/177/95 290/179/96 289/180/96 287/178/95
f 290/179/96 292/181/97 291/182/97 289/180/96
f 292/181/97 294/183/98 293/184/98 291/182/97
f 294/183/98 296/185/99 295/186/99 293/184/98
f 296/185/99 298/187/100 297/188/100 295/186/99
f 298/187/100 300/189/101 299/190/101 297/188/100
f 300/189/101 302/191/102 301/192/102 299/190/101
