# Blender 3.6.2
# www.blender.org
mtllib scroll_797_03.mtl
o Paper
v -0.125000 0.004749 0.355393
v 0.786058 0.004749 0.355393
v -0.125000 0.004749 -0.644608
v 0.786058 0.004749 -0.644608
v -0.125000 0.004749 -0.625000
v -0.125000 0.004749 -0.605393
v -0.125000 0.004749 -0.585785
v -0.125000 0.004749 -0.566177
v -0.125000 0.004749 -0.546569
v -0.125000 0.004749 -0.526961
v -0.125000 0.004749 -0.507353
v -0.125000 0.004749 -0.487745
v -0.125000 0.004749 -0.468137
v -0.125000 0.004749 -0.448530
v -0.125000 0.004749 -0.428922
v -0.125000 0.004749 -0.409314
v -0.125000 0.004749 -0.389706
v -0.125000 0.004749 -0.370098
v -0.125000 0.004749 -0.350491
v -0.125000 0.004749 -0.330883
v -0.125000 0.004749 -0.311275
v -0.125000 0.004749 -0.291667
v -0.125000 0.004749 -0.272059
v -0.125000 0.004749 -0.252451
v -0.125000 0.004749 -0.232843
v -0.125000 0.004749 -0.213235
v -0.125000 0.004749 -0.193628
v -0.125000 0.004749 -0.174020
v -0.125000 0.004749 -0.154412
v -0.125000 0.004749 -0.134804
v -0.125000 0.004749 -0.115196
v -0.125000 0.004749 -0.095588
v -0.125000 0.004749 -0.075981
v -0.125000 0.004749 -0.056372
v -0.125000 0.004749 -0.036765
v -0.125000 0.004749 -0.017157
v -0.125000 0.004749 0.002451
v -0.125000 0.004749 0.022059
v -0.125000 0.004749 0.041667
v -0.125000 0.004749 0.061275
v -0.125000 0.004749 0.080882
v -0.125000 0.004749 0.100490
v -0.125000 0.004749 0.120098
v -0.125000 0.004749 0.139706
v -0.125000 0.004749 0.159314
v -0.125000 0.004749 0.178922
v -0.125000 0.004749 0.198530
v -0.125000 0.004749 0.218137
v -0.125000 0.004749 0.237745
v -0.125000 0.004749 0.257353
v -0.125000 0.004749 0.276961
v -0.125000 0.004749 0.296569
v -0.125000 0.004749 0.316177
v -0.125000 0.004749 0.335785
v 0.786058 0.004749 0.335785
v 0.786058 0.004749 0.316177
v 0.786058 0.004749 0.296569
v 0.786058 0.004749 0.276961
v 0.786058 0.004749 0.257353
v 0.786058 0.004749 0.237745
v 0.786058 0.004749 0.218137
v 0.786058 0.004749 0.198530
v 0.786058 0.004749 0.178922
v 0.786058 0.004749 0.159314
v 0.786058 0.004749 0.139706
v 0.786058 0.004749 0.120098
v 0.786058 0.004749 0.100490
v 0.786058 0.004749 0.080882
v 0.786058 0.004749 0.061275
v 0.786058 0.004749 0.041667
v 0.786058 0.004749 0.022059
v 0.786058 0.004749 0.002451
v 0.786058 0.004749 -0.017157
v 0.786058 0.004749 -0.036765
v 0.786058 0.004749 -0.056372
v 0.786058 0.004749 -0.075980
v 0.786058 0.004749 -0.095588
v 0.786058 0.004749 -0.115196
v 0.786058 0.004749 -0.134804
v 0.786058 0.004749 -0.154412
v 0.786058 0.004749 -0.174020
v 0.786058 0.004749 -0.193628
v 0.786058 0.004749 -0.213235
v 0.786058 0.004749 -0.232843
v 0.786058 0.004749 -0.252451
v 0.786058 0.004749 -0.272059
v 0.786058 0.004749 -0.291667
v 0.786058 0.004749 -0.311275
v 0.786058 0.004749 -0.330882
v 0.786058 0.004749 -0.350491
v 0.786058 0.004749 -0.370098
v 0.786058 0.004749 -0.389706
v 0.786058 0.004749 -0.409314
v 0.786058 0.004749 -0.428922
v 0.786058 0.004749 -0.448529
v 0.786058 0.004749 -0.468137
v 0.786058 0.004749 -0.487745
v 0.786058 0.004749 -0.507353
v 0.786058 0.004749 -0.526961
v 0.786058 0.004749 -0.546569
v 0.786058 0.004749 -0.566177
v 0.786058 0.004749 -0.585785
v 0.786058 0.004749 -0.605392
v 0.786058 0.004749 -0.625000
v 0.262850 0.003708 -0.267108
v 0.002548 0.003708 -0.267108
v 0.262850 0.003708 -0.517108
v 0.002548 0.003708 -0.517108
v 0.262850 -0.028830 -0.517108
v 0.262850 -0.028830 -0.267108
v 0.002548 -0.028830 -0.267108
v 0.002548 -0.028830 -0.517108
v 0.262850 0.003708 -0.392108
v 0.002548 0.003708 -0.392108
v 0.262850 -0.028830 -0.392108
v 0.002548 -0.028830 -0.392108
v 0.002548 0.003708 -0.454608
v 0.002548 -0.028830 -0.454608
v 0.262850 0.003708 -0.454608
v 0.262850 -0.028830 -0.454608
v 0.262850 0.003708 -0.329608
v 0.262850 -0.028830 -0.329608
v 0.002548 0.003708 -0.329608
v 0.002548 -0.028830 -0.329608
v 0.262850 0.003708 -0.298358
v 0.262850 -0.028830 -0.298358
v 0.002548 0.003708 -0.298358
v 0.002548 -0.028830 -0.298358
v 0.002548 0.003708 -0.360858
v 0.002548 -0.028830 -0.360858
v 0.262850 0.003708 -0.360858
v 0.262850 -0.028830 -0.360858
v 0.262850 0.003708 -0.423358
v 0.262850 -0.028830 -0.423358
v 0.002548 0.003708 -0.423358
v 0.002548 -0.028830 -0.423358
v 0.002548 0.003708 -0.485858
v 0.002548 -0.028830 -0.485858
v 0.262850 0.003708 -0.485858
v 0.262850 -0.028830 -0.485858
v 0.786058 0.038328 0.355392
v 0.525755 0.038328 0.355392
v 0.786058 0.038328 0.105392
v 0.525755 0.038328 0.105392
v 0.786058 0.005790 0.105392
v 0.786058 0.005790 0.355392
v 0.525755 0.005790 0.355392
v 0.525755 0.005790 0.105392
v 0.786058 0.038328 0.230392
v 0.525755 0.038328 0.230392
v 0.786058 0.005790 0.230392
v 0.525755 0.005790 0.230392
v 0.525755 0.038328 0.167892
v 0.525755 0.005790 0.167892
v 0.786058 0.038328 0.167892
v 0.786058 0.005790 0.167892
v 0.786058 0.038328 0.292892
v 0.786058 0.005790 0.292892
v 0.525755 0.038328 0.292892
v 0.525755 0.005790 0.292892
v 0.786058 0.038328 0.324142
v 0.786058 0.005790 0.324142
v 0.525755 0.038328 0.324142
v 0.525755 0.005790 0.324142
v 0.525755 0.038328 0.261642
v 0.525755 0.005790 0.261642
v 0.786058 0.038328 0.261642
v 0.786058 0.005790 0.261642
v 0.786058 0.038328 0.199142
v 0.786058 0.005790 0.199142
v 0.525755 0.038328 0.199142
v 0.525755 0.005790 0.199142
v 0.525755 0.038328 0.136642
v 0.525755 0.005790 0.136642
v 0.786058 0.038328 0.136642
v 0.786058 0.005790 0.136642
v 0.513391 0.000000 0.207991
v 0.514743 0.000000 0.330347
v 0.609134 0.000000 0.216332
v 0.579589 0.000000 0.334974
v 0.686286 0.000000 0.231351
v 0.618066 0.000000 0.343871
v 0.743121 0.000000 0.292725
v 0.640928 0.000000 0.374977
v 0.778530 0.000000 0.342379
v 0.658312 0.000000 0.395410
v 0.798975 0.000000 0.403063
v 0.672784 0.000000 0.439850
v 0.812455 0.000000 0.467396
v 0.685374 0.000000 0.498374
v 0.824976 0.000000 0.535513
v 0.699100 0.000000 0.568620
v 0.841262 0.000000 0.607398
v 0.718270 0.000000 0.648378
v 0.865569 0.000000 0.682868
v 0.747653 0.000000 0.735602
v 0.902175 0.000000 0.761835
v 0.792000 0.000000 0.828152
v 0.955699 0.000000 0.844303
v 0.855720 0.000000 0.923799
v 1.031175 0.000000 0.930073
v 0.942806 0.000000 1.020511
v 0.551839 0.032005 0.361620
v 0.556296 0.027995 0.230171
v 0.497024 0.031679 0.365141
v 0.472053 0.027907 0.236002
v 0.456987 0.031070 0.378043
v 0.399004 0.027264 0.259983
v 0.426345 0.030247 0.399058
v 0.338659 0.026163 0.301031
v 0.400090 0.029191 0.430057
v 0.292156 0.024791 0.354919
v 0.376442 0.027892 0.473110
v 0.257403 0.023324 0.417221
v 0.355171 0.026413 0.528208
v 0.230759 0.021864 0.485594
v 0.335715 0.024856 0.593962
v 0.208915 0.020479 0.559072
v 0.316865 0.023327 0.668667
v 0.189211 0.019226 0.637004
v 0.296982 0.021930 0.750701
v 0.169412 0.018169 0.718659
v 0.274200 0.020765 0.838580
v 0.147514 0.017375 0.803166
v 0.246526 0.019928 0.930907
v 0.121640 0.016915 0.889567
v 0.211970 0.019517 1.026133
v 0.089907 0.016857 0.977057
vn -0.0000 1.0000 -0.0000
vn -0.0000 -1.0000 -0.0000
vn -0.0000 -0.0000 -1.0000
vn -0.0000 -0.0000 1.0000
vn -1.0000 -0.0000 -0.0000
vn 1.0000 -0.0000 -0.0000
vn -0.0050 0.9996 -0.0295
vn -0.0120 0.9996 -0.0269
vn -0.0253 0.9995 -0.0198
vn -0.0353 0.9993 -0.0100
vn -0.0402 0.9992 -0.0008
vn -0.0410 0.9991 0.0057
vn -0.0396 0.9992 0.0089
vn -0.0371 0.9993 0.0094
vn -0.0341 0.9994 0.0081
vn -0.0308 0.9995 0.0054
vn -0.0272 0.9996 0.0017
vn -0.0232 0.9997 -0.0027
vn -0.0211 0.9998 -0.0051
vt 0.661169 0.550384
vt 0.791755 0.550384
vt 0.791755 0.553136
vt 0.661169 0.553136
vt 0.661169 0.412780
vt 0.791755 0.412780
vt 0.791755 0.415533
vt 0.661169 0.415533
vt 0.791755 0.418285
vt 0.661169 0.418285
vt 0.791755 0.421037
vt 0.661169 0.421037
vt 0.791755 0.423789
vt 0.661169 0.423789
vt 0.791755 0.426541
vt 0.661169 0.426541
vt 0.791755 0.429293
vt 0.661169 0.429293
vt 0.791755 0.432045
vt 0.661169 0.432045
vt 0.791755 0.434797
vt 0.661169 0.434797
vt 0.791755 0.437549
vt 0.661169 0.437549
vt 0.791755 0.440301
vt 0.661169 0.440301
vt 0.791755 0.443053
vt 0.661169 0.443053
vt 0.791755 0.445805
vt 0.661169 0.445805
vt 0.791755 0.448557
vt 0.661169 0.448557
vt 0.791755 0.451310
vt 0.661169 0.451310
vt 0.791755 0.454062
vt 0.661169 0.454062
vt 0.791755 0.456814
vt 0.661169 0.456814
vt 0.791755 0.459566
vt 0.661169 0.459566
vt 0.791755 0.462318
vt 0.661169 0.462318
vt 0.791755 0.465070
vt 0.661169 0.465070
vt 0.791755 0.467822
vt 0.661169 0.467822
vt 0.791755 0.470574
vt 0.661169 0.470574
vt 0.791755 0.473326
vt 0.661169 0.473326
vt 0.791755 0.476078
vt 0.661169 0.476078
vt 0.791755 0.478830
vt 0.661169 0.478830
vt 0.791755 0.481582
vt 0.661169 0.481582
vt 0.791755 0.484334
vt 0.661169 0.484335
vt 0.791755 0.487087
vt 0.661169 0.487087
vt 0.791755 0.489839
vt 0.661169 0.489839
vt 0.791755 0.492591
vt 0.661169 0.492591
vt 0.791755 0.495343
vt 0.661169 0.495343
vt 0.791755 0.498095
vt 0.661169 0.498095
vt 0.791755 0.500847
vt 0.661169 0.500847
vt 0.791755 0.503599
vt 0.661169 0.503599
vt 0.791755 0.506351
vt 0.661169 0.506351
vt 0.791755 0.509103
vt 0.661169 0.509103
vt 0.791755 0.511855
vt 0.661169 0.511855
vt 0.791755 0.514607
vt 0.661169 0.514607
vt 0.791755 0.517359
vt 0.661169 0.517359
vt 0.791755 0.520111
vt 0.661169 0.520111
vt 0.791755 0.522863
vt 0.661169 0.522863
vt 0.791755 0.525616
vt 0.661169 0.525616
vt 0.791755 0.528368
vt 0.661169 0.528368
vt 0.791755 0.531120
vt 0.661169 0.531120
vt 0.791755 0.533872
vt 0.661169 0.533872
vt 0.791755 0.536624
vt 0.661169 0.536624
vt 0.791755 0.539376
vt 0.661169 0.539376
vt 0.791755 0.542128
vt 0.661169 0.542128
vt 0.791755 0.544880
vt 0.661169 0.544880
vt 0.791755 0.547632
vt 0.661169 0.547632
vt 0.868128 0.781259
vt 0.868128 0.785699
vt 0.905643 0.785699
vt 0.905643 0.781259
vt 0.868128 0.750178
vt 0.905643 0.750178
vt 0.868128 0.754618
vt 0.868128 0.772379
vt 0.868128 0.767939
vt 0.905643 0.763499
vt 0.905643 0.767939
vt 0.868128 0.763499
vt 0.868128 0.776819
vt 0.905643 0.772379
vt 0.905643 0.776819
vt 0.868128 0.759058
vt 0.905643 0.759058
vt 0.905643 0.754618
vt 0.924824 0.540435
vt 0.924824 0.536023
vt 0.961970 0.536023
vt 0.961970 0.540435
vt 0.924824 0.571318
vt 0.961970 0.571318
vt 0.924824 0.566906
vt 0.924824 0.549259
vt 0.924824 0.553671
vt 0.961970 0.558083
vt 0.961970 0.553671
vt 0.924824 0.558083
vt 0.924824 0.544847
vt 0.961970 0.549259
vt 0.961970 0.544847
vt 0.924824 0.562495
vt 0.961970 0.562495
vt 0.961970 0.566906
vt 0.907992 0.746082
vt 0.909938 0.745984
vt 0.910825 0.747929
vt 0.907951 0.748032
vt 0.911093 0.745754
vt 0.913141 0.747505
vt 0.911779 0.745429
vt 0.914846 0.746764
vt 0.912301 0.744926
vt 0.915909 0.745824
vt 0.912735 0.744174
vt 0.916523 0.744797
vt 0.913113 0.743182
vt 0.916927 0.743707
vt 0.913525 0.741993
vt 0.917303 0.742553
vt 0.914100 0.740642
vt 0.917792 0.741336
vt 0.914982 0.739164
vt 0.918521 0.740057
vt 0.916313 0.737597
vt 0.919620 0.738720
vt 0.918226 0.735977
vt 0.921227 0.737323
vt 0.920840 0.734339
vt 0.923492 0.735871
vt 0.923009 0.552813
vt 0.920179 0.552697
vt 0.921018 0.550112
vt 0.922860 0.550182
vt 0.917725 0.552217
vt 0.919673 0.549853
vt 0.915698 0.551395
vt 0.918644 0.549433
vt 0.914136 0.550316
vt 0.917762 0.548812
vt 0.912968 0.549069
vt 0.916967 0.547950
vt 0.912073 0.547700
vt 0.916253 0.546847
vt 0.911339 0.546229
vt 0.915599 0.545531
vt 0.910677 0.544669
vt 0.914966 0.544035
vt 0.910012 0.543035
vt 0.914298 0.542393
vt 0.909276 0.541343
vt 0.913532 0.540634
vt 0.908407 0.539613
vt 0.912602 0.538786
vt 0.907341 0.537862
vt 0.911442 0.536880
s 0
usemtl Material.002
f 5/1/1 104/2/1 4/3/1 3/4/1
f 1/5/1 2/6/1 55/7/1 54/8/1
f 54/8/1 55/7/1 56/9/1 53/10/1
f 53/10/1 56/9/1 57/11/1 52/12/1
f 52/12/1 57/11/1 58/13/1 51/14/1
f 51/14/1 58/13/1 59/15/1 50/16/1
f 50/16/1 59/15/1 60/17/1 49/18/1
f 49/18/1 60/17/1 61/19/1 48/20/1
f 48/20/1 61/19/1 62/21/1 47/22/1
f 47/22/1 62/21/1 63/23/1 46/24/1
f 46/24/1 63/23/1 64/25/1 45/26/1
f 45/26/1 64/25/1 65/27/1 44/28/1
f 44/28/1 65/27/1 66/29/1 43/30/1
f 43/30/1 66/29/1 67/31/1 42/32/1
f 42/32/1 67/31/1 68/33/1 41/34/1
f 41/34/1 68/33/1 69/35/1 40/36/1
f 40/36/1 69/35/1 70/37/1 39/38/1
f 39/38/1 70/37/1 71/39/1 38/40/1
f 38/40/1 71/39/1 72/41/1 37/42/1
f 37/42/1 72/41/1 73/43/1 36/44/1
f 36/44/1 73/43/1 74/45/1 35/46/1
f 35/46/1 74/45/1 75/47/1 34/48/1
f 34/48/1 75/47/1 76/49/1 33/50/1
f 33/50/1 76/49/1 77/51/1 32/52/1
f 32/52/1 77/51/1 78/53/1 31/54/1
f 31/54/1 78/53/1 79/55/1 30/56/1
f 30/56/1 79/55/1 80/57/1 29/58/1
f 29/58/1 80/57/1 81/59/1 28/60/1
f 28/60/1 81/59/1 82/61/1 27/62/1
f 27/62/1 82/61/1 83/63/1 26/64/1
f 26/64/1 83/63/1 84/65/1 25/66/1
f 25/66/1 84/65/1 85/67/1 24/68/1
f 24/68/1 85/67/1 86/69/1 23/70/1
f 23/70/1 86/69/1 87/71/1 22/72/1
f 22/72/1 87/71/1 88/73/1 21/74/1
f 21/74/1 88/73/1 89/75/1 20/76/1
f 20/76/1 89/75/1 90/77/1 19/78/1
f 19/78/1 90/77/1 91/79/1 18/80/1
f 18/80/1 91/79/1 92/81/1 17/82/1
f 17/82/1 92/81/1 93/83/1 16/84/1
f 16/84/1 93/83/1 94/85/1 15/86/1
f 15/86/1 94/85/1 95/87/1 14/88/1
f 14/88/1 95/87/1 96/89/1 13/90/1
f 13/90/1 96/89/1 97/91/1 12/92/1
f 12/92/1 97/91/1 98/93/1 11/94/1
f 11/94/1 98/93/1 99/95/1 10/96/1
f 10/96/1 99/95/1 100/97/1 9/98/1
f 9/98/1 100/97/1 101/99/1 8/100/1
f 8/100/1 101/99/1 102/101/1 7/102/1
f 7/102/1 102/101/1 103/103/1 6/104/1
f 6/104/1 103/103/1 104/2/1 5/1/1
usemtl Material.001
f 139/105/1 107/106/1 108/107/1 137/108/1
f 140/105/2 138/108/2 112/107/2 109/106/2
f 108/107/3 107/106/3 109/106/3 112/107/3
f 105/109/4 106/110/4 111/110/4 110/109/4
f 137/108/5 108/107/5 112/107/5 138/108/5
f 125/111/6 105/109/6 110/109/6 126/111/6
f 133/112/6 113/113/6 115/113/6 134/112/6
f 129/114/5 114/115/5 116/115/5 130/114/5
f 132/116/2 130/114/2 116/115/2 115/113/2
f 131/116/1 113/113/1 114/115/1 129/114/1
f 139/105/6 119/117/6 120/117/6 140/105/6
f 135/118/5 117/119/5 118/119/5 136/118/5
f 134/112/2 136/118/2 118/119/2 120/117/2
f 133/112/1 119/117/1 117/119/1 135/118/1
f 125/111/1 121/120/1 123/121/1 127/122/1
f 126/111/2 128/122/2 124/121/2 122/120/2
f 127/122/5 123/121/5 124/121/5 128/122/5
f 131/116/6 121/120/6 122/120/6 132/116/6
f 106/110/5 127/122/5 128/122/5 111/110/5
f 110/109/2 111/110/2 128/122/2 126/111/2
f 105/109/1 125/111/1 127/122/1 106/110/1
f 121/120/6 125/111/6 126/111/6 122/120/6
f 113/113/6 131/116/6 132/116/6 115/113/6
f 121/120/1 131/116/1 129/114/1 123/121/1
f 122/120/2 124/121/2 130/114/2 132/116/2
f 123/121/5 129/114/5 130/114/5 124/121/5
f 113/113/1 133/112/1 135/118/1 114/115/1
f 115/113/2 116/115/2 136/118/2 134/112/2
f 114/115/5 135/118/5 136/118/5 116/115/5
f 119/117/6 133/112/6 134/112/6 120/117/6
f 107/106/6 139/105/6 140/105/6 109/106/6
f 117/119/5 137/108/5 138/108/5 118/119/5
f 120/117/2 118/119/2 138/108/2 140/105/2
f 119/117/1 139/105/1 137/108/1 117/119/1
f 175/123/1 143/124/1 144/125/1 173/126/1
f 176/123/2 174/126/2 148/125/2 145/124/2
f 144/125/3 143/124/3 145/124/3 148/125/3
f 141/127/4 142/128/4 147/128/4 146/127/4
f 173/126/5 144/125/5 148/125/5 174/126/5
f 161/129/6 141/127/6 146/127/6 162/129/6
f 169/130/6 149/131/6 151/131/6 170/130/6
f 165/132/5 150/133/5 152/133/5 166/132/5
f 168/134/2 166/132/2 152/133/2 151/131/2
f 167/134/1 149/131/1 150/133/1 165/132/1
f 175/123/6 155/135/6 156/135/6 176/123/6
f 171/136/5 153/137/5 154/137/5 172/136/5
f 170/130/2 172/136/2 154/137/2 156/135/2
f 169/130/1 155/135/1 153/137/1 171/136/1
f 161/129/1 157/138/1 159/139/1 163/140/1
f 162/129/2 164/140/2 160/139/2 158/138/2
f 163/140/5 159/139/5 160/139/5 164/140/5
f 167/134/6 157/138/6 158/138/6 168/134/6
f 142/128/5 163/140/5 164/140/5 147/128/5
f 146/127/2 147/128/2 164/140/2 162/129/2
f 141/127/1 161/129/1 163/140/1 142/128/1
f 157/138/6 161/129/6 162/129/6 158/138/6
f 149/131/6 167/134/6 168/134/6 151/131/6
f 157/138/1 167/134/1 165/132/1 159/139/1
f 158/138/2 160/139/2 166/132/2 168/134/2
f 159/139/5 165/132/5 166/132/5 160/139/5
f 149/131/1 169/130/1 171/136/1 150/133/1
f 151/131/2 152/133/2 172/136/2 170/130/2
f 150/133/5 171/136/5 172/136/5 152/133/5
f 155/135/6 169/130/6 170/130/6 156/135/6
f 143/124/6 175/123/6 176/123/6 145/124/6
f 153/137/5 173/126/5 174/126/5 154/137/5
f 156/135/2 154/137/2 174/126/2 176/123/2
f 155/135/1 175/123/1 173/126/1 153/137/1
s 1
f 178/141/1 180/142/1 179/143/1 177/144/1
f 180/142/1 182/145/1 181/146/1 179/143/1
f 182/145/1 184/147/1 183/148/1 181/146/1
f 184/147/1 186/149/1 185/150/1 183/148/1
f 186/149/1 188/151/1 187/152/1 185/150/1
f 188/151/1 190/153/1 189/154/1 187/152/1
f 190/153/1 192/155/1 191/156/1 189/154/1
f 192/155/1 194/157/1 193/158/1 191/156/1
f 194/157/1 196/159/1 195/160/1 193/158/1
f 196/159/1 198/161/1 197/162/1 195/160/1
f 198/161/1 200/163/1 199/164/1 197/162/1
f 200/163/1 202/165/1 201/166/1 199/164/1
f 204/167/7 206/168/8 205/169/8 203/170/7
f 206/168/8 208/171/9 207/172/9 205/169/8
f 208/171/9 210/173/10 209/174/10 207/172/9
f 210/173/10 212/175/11 211/176/11 209/174/10
f 212/175/11 214/177/12 213/178/12 211/176/11
f 214/177/12 216/179/13 215/180/13 213/178/12
f 216/179/13 218/181/14 217/182/14 215/180/13
f 218/181/14 220/183/15 219/184/15 217/182/14
f 220/183/15 222/185/16 221/186/16 219/184/15
f 222/185/16 224/187/17 223/188/17 221/186/16
f 224/187/17 226/189/18 225/190/18 223/188/17
f 226/189/18 228/191/19 227/192/19 225/190/18
