# Blender 3.6.2
# www.blender.org
mtllib scroll_797_03.mtl
o Paper
v -0.118029 0.004749 0.325496
v 0.793029 0.004749 0.325496
v -0.118029 0.004749 -0.674505
v 0.793029 0.004749 -0.674505
v -0.118029 0.004749 -0.654897
v -0.118029 0.004749 -0.635289
v -0.118029 0.004749 -0.615681
v -0.118029 0.004749 -0.596073
v -0.118029 0.004749 -0.576465
v -0.118029 0.004749 -0.556857
v -0.118029 0.004749 -0.537250
v -0.118029 0.004749 -0.517642
v -0.118029 0.004749 -0.498034
v -0.118029 0.004749 -0.478426
v -0.118029 0.004749 -0.458818
v -0.118029 0.004749 -0.439210
v -0.118029 0.004749 -0.419603
v -0.118029 0.004749 -0.399995
v -0.118029 0.004749 -0.380387
v -0.118029 0.004749 -0.360779
v -0.118029 0.004749 -0.341171
v -0.118029 0.004749 -0.321563
v -0.118029 0.004749 -0.301955
v -0.118029 0.004749 -0.282348
v -0.118029 0.004749 -0.262740
v -0.118029 0.004749 -0.243132
v -0.118029 0.004749 -0.223524
v -0.118029 0.004749 -0.203916
v -0.118029 0.004749 -0.184308
v -0.118029 0.004749 -0.164700
v -0.118029 0.004749 -0.145092
v -0.118029 0.004749 -0.125485
v -0.118029 0.004749 -0.105877
v -0.118029 0.004749 -0.086269
v -0.118029 0.004749 -0.066661
v -0.118029 0.004749 -0.047053
v -0.118029 0.004749 -0.027446
v -0.118029 0.004749 -0.007838
v -0.118029 0.004749 0.011770
v -0.118029 0.004749 0.031378
v -0.118029 0.004749 0.050986
v -0.118029 0.004749 0.070594
v -0.118029 0.004749 0.090201
v -0.118029 0.004749 0.109810
v -0.118029 0.004749 0.129417
v -0.118029 0.004749 0.149025
v -0.118029 0.004749 0.168633
v -0.118029 0.004749 0.188241
v -0.118029 0.004749 0.207849
v -0.118029 0.004749 0.227457
v -0.118029 0.004749 0.247064
v -0.118029 0.004749 0.266672
v -0.118029 0.004749 0.286280
v -0.118029 0.004749 0.305888
v 0.793029 0.004749 0.305888
v 0.793029 0.004749 0.286280
v 0.793029 0.004749 0.266672
v 0.793029 0.004749 0.247064
v 0.793029 0.004749 0.227457
v 0.793029 0.004749 0.207849
v 0.793029 0.004749 0.188241
v 0.793029 0.004749 0.168633
v 0.793029 0.004749 0.149025
v 0.793029 0.004749 0.129417
v 0.793029 0.004749 0.109810
v 0.793029 0.004749 0.090202
v 0.793029 0.004749 0.070594
v 0.793029 0.004749 0.050986
v 0.793029 0.004749 0.031378
v 0.793029 0.004749 0.011770
v 0.793029 0.004749 -0.007838
v 0.793029 0.004749 -0.027445
v 0.793029 0.004749 -0.047053
v 0.793029 0.004749 -0.066661
v 0.793029 0.004749 -0.086269
v 0.793029 0.004749 -0.105877
v 0.793029 0.004749 -0.125485
v 0.793029 0.004749 -0.145092
v 0.793029 0.004749 -0.164700
v 0.793029 0.004749 -0.184308
v 0.793029 0.004749 -0.203916
v 0.793029 0.004749 -0.223524
v 0.793029 0.004749 -0.243132
v 0.793029 0.004749 -0.262740
v 0.793029 0.004749 -0.282347
v 0.793029 0.004749 -0.301955
v 0.793029 0.004749 -0.321563
v 0.793029 0.004749 -0.341171
v 0.793029 0.004749 -0.360779
v 0.793029 0.004749 -0.380387
v 0.793029 0.004749 -0.399995
v 0.793029 0.004749 -0.419603
v 0.793029 0.004749 -0.439210
v 0.793029 0.004749 -0.458818
v 0.793029 0.004749 -0.478426
v 0.793029 0.004749 -0.498034
v 0.793029 0.004749 -0.517642
v 0.793029 0.004749 -0.537250
v 0.793029 0.004749 -0.556857
v 0.793029 0.004749 -0.576465
v 0.793029 0.004749 -0.596073
v 0.793029 0.004749 -0.615681
v 0.793029 0.004749 -0.635289
v 0.793029 0.004749 -0.654897
v 0.269821 0.003708 -0.297004
v 0.009519 0.003708 -0.297004
v 0.269821 0.003708 -0.547005
v 0.009519 0.003708 -0.547005
v 0.269821 -0.028830 -0.547005
v 0.269821 -0.028830 -0.297004
v 0.009519 -0.028830 -0.297004
v 0.009519 -0.028830 -0.547005
v 0.269821 0.003708 -0.422004
v 0.009519 0.003708 -0.422004
v 0.269821 -0.028830 -0.422004
v 0.009519 -0.028830 -0.422004
v 0.009519 0.003708 -0.484505
v 0.009519 -0.028830 -0.484505
v 0.269821 0.003708 -0.484505
v 0.269821 -0.028830 -0.484505
v 0.269821 0.003708 -0.359504
v 0.269821 -0.028830 -0.359504
v 0.009519 0.003708 -0.359504
v 0.009519 -0.028830 -0.359504
v 0.269821 0.003708 -0.328254
v 0.269821 -0.028830 -0.328254
v 0.009519 0.003708 -0.328254
v 0.009519 -0.028830 -0.328254
v 0.009519 0.003708 -0.390754
v 0.009519 -0.028830 -0.390754
v 0.269821 0.003708 -0.390754
v 0.269821 -0.028830 -0.390754
v 0.269821 0.003708 -0.453254
v 0.269821 -0.028830 -0.453254
v 0.009519 0.003708 -0.453254
v 0.009519 -0.028830 -0.453254
v 0.009519 0.003708 -0.515754
v 0.009519 -0.028830 -0.515754
v 0.269821 0.003708 -0.515754
v 0.269821 -0.028830 -0.515754
v 0.793029 0.038328 0.325496
v 0.532727 0.038328 0.325496
v 0.793029 0.038328 0.075496
v 0.532727 0.038328 0.075496
v 0.793029 0.005790 0.075496
v 0.793029 0.005790 0.325496
v 0.532727 0.005790 0.325496
v 0.532727 0.005790 0.075496
v 0.793029 0.038328 0.200496
v 0.532727 0.038328 0.200496
v 0.793029 0.005790 0.200496
v 0.532727 0.005790 0.200496
v 0.532727 0.038328 0.137996
v 0.532727 0.005790 0.137996
v 0.793029 0.038328 0.137996
v 0.793029 0.005790 0.137996
v 0.793029 0.038328 0.262996
v 0.793029 0.005790 0.262996
v 0.532727 0.038328 0.262996
v 0.532727 0.005790 0.262996
v 0.793029 0.038328 0.294246
v 0.793029 0.005790 0.294246
v 0.532727 0.038328 0.294246
v 0.532727 0.005790 0.294246
v 0.532727 0.038328 0.231746
v 0.532727 0.005790 0.231746
v 0.793029 0.038328 0.231746
v 0.793029 0.005790 0.231746
v 0.793029 0.038328 0.169246
v 0.793029 0.005790 0.169246
v 0.532727 0.038328 0.169246
v 0.532727 0.005790 0.169246
v 0.532727 0.038328 0.106746
v 0.532727 0.005790 0.106746
v 0.793029 0.038328 0.106746
v 0.793029 0.005790 0.106746
v 0.520362 0.000000 0.178094
v 0.521715 0.000000 0.300451
v 0.616106 0.000000 0.186435
v 0.586560 0.000000 0.305078
v 0.693257 0.000000 0.201454
v 0.625038 0.000000 0.313975
v 0.750093 0.000000 0.262829
v 0.647899 0.000000 0.345080
v 0.785502 0.000000 0.312483
v 0.665283 0.000000 0.365514
v 0.805946 0.000000 0.373167
v 0.679756 0.000000 0.409953
v 0.819426 0.000000 0.437499
v 0.692345 0.000000 0.468478
v 0.831947 0.000000 0.505617
v 0.706071 0.000000 0.538724
v 0.848233 0.000000 0.577501
v 0.725241 0.000000 0.618482
v 0.872540 0.000000 0.652972
v 0.754624 0.000000 0.705705
v 0.909146 0.000000 0.731939
v 0.798971 0.000000 0.798256
v 0.962670 0.000000 0.814406
v 0.862691 0.000000 0.893902
v 1.038146 0.000000 0.900177
v 0.949778 0.000000 0.990614
v 0.558810 0.032005 0.331724
v 0.563267 0.027995 0.200275
v 0.503996 0.031679 0.335245
v 0.479024 0.027907 0.206105
v 0.463958 0.031070 0.348147
v 0.405975 0.027264 0.230087
v 0.433316 0.030247 0.369161
v 0.345630 0.026163 0.271135
v 0.407061 0.029191 0.400160
v 0.299127 0.024791 0.325022
v 0.383413 0.027892 0.443214
v 0.264374 0.023324 0.387325
v 0.362142 0.026413 0.498312
v 0.237731 0.021864 0.455698
v 0.342687 0.024856 0.564066
v 0.215886 0.020479 0.529175
v 0.323836 0.023327 0.638771
v 0.196182 0.019226 0.607108
v 0.303953 0.021930 0.720805
v 0.176383 0.018169 0.688763
v 0.281171 0.020765 0.808683
v 0.154486 0.017375 0.773270
v 0.253498 0.019928 0.901011
v 0.128611 0.016915 0.859670
v 0.218941 0.019517 0.996236
v 0.096879 0.016857 0.947160
vn -0.0000 1.0000 -0.0000
vn -0.0000 -1.0000 -0.0000
vn -0.0000 -0.0000 -1.0000
vn -0.0000 -0.0000 1.0000
vn -1.0000 -0.0000 -0.0000
vn 1.0000 -0.0000 -0.0000
vn -0.0043 0.9996 -0.0292
vn -0.0147 0.9995 -0.0274
vn -0.0079 0.9995 -0.0308
vn -0.0105 0.9996 -0.0264
vn -0.0270 0.9995 -0.0187
vn -0.0345 0.9993 -0.0119
vn -0.0234 0.9995 -0.0207
vn -0.0399 0.9992 -0.0027
vn -0.0371 0.9993 -0.0067
vn -0.0411 0.9991 0.0038
vn -0.0410 0.9992 0.0025
vn -0.0399 0.9992 0.0071
vn -0.0411 0.9991 0.0083
vn -0.0375 0.9993 0.0079
vn -0.0393 0.9992 0.0110
vn -0.0346 0.9994 0.0067
vn -0.0367 0.9993 0.0112
vn -0.0313 0.9995 0.0041
vn -0.0337 0.9994 0.0097
vn -0.0277 0.9996 0.0004
vn -0.0304 0.9995 0.0068
vn -0.0236 0.9997 -0.0040
vn -0.0268 0.9996 0.0030
vn -0.0212 0.9998 -0.0055
vn -0.0228 0.9997 -0.0015
vn -0.0205 0.9998 -0.0031
vt 0.791755 0.550384
vt 0.661169 0.553136
vt 0.661169 0.550384
vt 0.791755 0.412780
vt 0.661169 0.415533
vt 0.661169 0.412780
vt 0.791755 0.415533
vt 0.661169 0.418285
vt 0.791755 0.418285
vt 0.661169 0.421037
vt 0.791755 0.421037
vt 0.661169 0.423789
vt 0.791755 0.423789
vt 0.661169 0.426541
vt 0.791755 0.426541
vt 0.661169 0.429293
vt 0.791755 0.429293
vt 0.661169 0.432045
vt 0.791755 0.432045
vt 0.661169 0.434797
vt 0.791755 0.434797
vt 0.661169 0.437549
vt 0.791755 0.437549
vt 0.661169 0.440301
vt 0.791755 0.440301
vt 0.661169 0.443053
vt 0.791755 0.443053
vt 0.661169 0.445805
vt 0.791755 0.448557
vt 0.661169 0.448557
vt 0.661169 0.451310
vt 0.791755 0.451310
vt 0.661169 0.454062
vt 0.791755 0.454062
vt 0.661169 0.456814
vt 0.791755 0.456814
vt 0.661169 0.459566
vt 0.791755 0.459566
vt 0.661169 0.462318
vt 0.791755 0.462318
vt 0.661169 0.465070
vt 0.791755 0.465070
vt 0.661169 0.467822
vt 0.791755 0.467822
vt 0.661169 0.470574
vt 0.791755 0.470574
vt 0.661169 0.473326
vt 0.791755 0.476078
vt 0.661169 0.476078
vt 0.661169 0.478830
vt 0.791755 0.478830
vt 0.661169 0.481582
vt 0.791755 0.481582
vt 0.661169 0.484335
vt 0.791755 0.484334
vt 0.661169 0.487087
vt 0.791755 0.487087
vt 0.661169 0.489839
vt 0.791755 0.489839
vt 0.661169 0.492591
vt 0.791755 0.492591
vt 0.661169 0.495343
vt 0.791755 0.495343
vt 0.661169 0.498095
vt 0.791755 0.498095
vt 0.661169 0.500847
vt 0.791755 0.500847
vt 0.661169 0.503599
vt 0.791755 0.503599
vt 0.661169 0.506351
vt 0.791755 0.506351
vt 0.661169 0.509103
vt 0.791755 0.509103
vt 0.661169 0.511855
vt 0.791755 0.511855
vt 0.661169 0.514607
vt 0.791755 0.514607
vt 0.661169 0.517359
vt 0.791755 0.517359
vt 0.661169 0.520111
vt 0.791755 0.520111
vt 0.661169 0.522863
vt 0.791755 0.522863
vt 0.661169 0.525616
vt 0.791755 0.525616
vt 0.661169 0.528368
vt 0.791755 0.528368
vt 0.661169 0.531120
vt 0.791755 0.531120
vt 0.661169 0.533872
vt 0.791755 0.533872
vt 0.661169 0.536624
vt 0.791755 0.536624
vt 0.661169 0.539376
vt 0.791755 0.539376
vt 0.661169 0.542128
vt 0.791755 0.542128
vt 0.661169 0.544880
vt 0.791755 0.544880
vt 0.661169 0.547632
vt 0.791755 0.547632
vt 0.868128 0.785699
vt 0.905643 0.781259
vt 0.868128 0.781259
vt 0.905643 0.785699
vt 0.905643 0.750178
vt 0.868128 0.750178
vt 0.868128 0.754618
vt 0.868128 0.767939
vt 0.868128 0.772379
vt 0.905643 0.767939
vt 0.905643 0.763499
vt 0.868128 0.763499
vt 0.868128 0.776819
vt 0.905643 0.776819
vt 0.905643 0.772379
vt 0.868128 0.759058
vt 0.905643 0.754618
vt 0.905643 0.759058
vt 0.924824 0.536023
vt 0.961970 0.540435
vt 0.924824 0.540435
vt 0.961970 0.536023
vt 0.961970 0.571318
vt 0.924824 0.571318
vt 0.924824 0.566906
vt 0.924824 0.553671
vt 0.924824 0.549259
vt 0.961970 0.553671
vt 0.961970 0.558083
vt 0.924824 0.558083
vt 0.924824 0.544847
vt 0.961970 0.544847
vt 0.961970 0.549259
vt 0.924824 0.562495
vt 0.961970 0.566906
vt 0.961970 0.562495
vt 0.909938 0.745984
vt 0.907951 0.748032
vt 0.907992 0.746082
vt 0.911093 0.745754
vt 0.910825 0.747929
vt 0.914846 0.746764
vt 0.913141 0.747505
vt 0.912301 0.744926
vt 0.911779 0.745429
vt 0.916523 0.744797
vt 0.915909 0.745824
vt 0.912735 0.744174
vt 0.916927 0.743707
vt 0.913113 0.743182
vt 0.917303 0.742553
vt 0.913525 0.741993
vt 0.917792 0.741336
vt 0.914100 0.740642
vt 0.918521 0.740057
vt 0.914982 0.739164
vt 0.919620 0.738720
vt 0.916313 0.737597
vt 0.921227 0.737323
vt 0.918226 0.735977
vt 0.923492 0.735871
vt 0.923009 0.552813
vt 0.921018 0.550112
vt 0.922860 0.550182
vt 0.920179 0.552697
vt 0.919673 0.549853
vt 0.915698 0.551395
vt 0.917725 0.552217
vt 0.914136 0.550316
vt 0.918644 0.549433
vt 0.912968 0.549069
vt 0.917762 0.548812
vt 0.912073 0.547700
vt 0.916967 0.547950
vt 0.911339 0.546229
vt 0.916253 0.546847
vt 0.910677 0.544669
vt 0.915599 0.545531
vt 0.910012 0.543035
vt 0.914966 0.544035
vt 0.909276 0.541343
vt 0.914298 0.542393
vt 0.908407 0.539613
vt 0.913532 0.540634
vt 0.907341 0.537862
vt 0.912602 0.538786
vt 0.791755 0.553136
vt 0.791755 0.445805
vt 0.791755 0.473326
vt 0.920840 0.734339
vt 0.911442 0.536880
s 0
usemtl Material.001
f 104/1/1 3/2/1 5/3/1
f 2/4/1 54/5/1 1/6/1
f 55/7/1 53/8/1 54/5/1
f 56/9/1 52/10/1 53/8/1
f 57/11/1 51/12/1 52/10/1
f 58/13/1 50/14/1 51/12/1
f 59/15/1 49/16/1 50/14/1
f 60/17/1 48/18/1 49/16/1
f 61/19/1 47/20/1 48/18/1
f 62/21/1 46/22/1 47/20/1
f 63/23/1 45/24/1 46/22/1
f 64/25/1 44/26/1 45/24/1
f 65/27/1 43/28/1 44/26/1
f 43/28/1 67/29/1 42/30/1
f 67/29/1 41/31/1 42/30/1
f 68/32/1 40/33/1 41/31/1
f 69/34/1 39/35/1 40/33/1
f 70/36/1 38/37/1 39/35/1
f 71/38/1 37/39/1 38/37/1
f 72/40/1 36/41/1 37/39/1
f 73/42/1 35/43/1 36/41/1
f 74/44/1 34/45/1 35/43/1
f 75/46/1 33/47/1 34/45/1
f 33/47/1 77/48/1 32/49/1
f 77/48/1 31/50/1 32/49/1
f 78/51/1 30/52/1 31/50/1
f 79/53/1 29/54/1 30/52/1
f 80/55/1 28/56/1 29/54/1
f 81/57/1 27/58/1 28/56/1
f 82/59/1 26/60/1 27/58/1
f 83/61/1 25/62/1 26/60/1
f 84/63/1 24/64/1 25/62/1
f 85/65/1 23/66/1 24/64/1
f 86/67/1 22/68/1 23/66/1
f 87/69/1 21/70/1 22/68/1
f 88/71/1 20/72/1 21/70/1
f 89/73/1 19/74/1 20/72/1
f 90/75/1 18/76/1 19/74/1
f 91/77/1 17/78/1 18/76/1
f 92/79/1 16/80/1 17/78/1
f 93/81/1 15/82/1 16/80/1
f 94/83/1 14/84/1 15/82/1
f 95/85/1 13/86/1 14/84/1
f 96/87/1 12/88/1 13/86/1
f 97/89/1 11/90/1 12/88/1
f 98/91/1 10/92/1 11/90/1
f 99/93/1 9/94/1 10/92/1
f 100/95/1 8/96/1 9/94/1
f 101/97/1 7/98/1 8/96/1
f 102/99/1 6/100/1 7/98/1
f 103/101/1 5/3/1 6/100/1
f 107/102/1 137/103/1 139/104/1
f 138/103/2 109/102/2 140/104/2
f 107/102/3 112/105/3 108/105/3
f 106/106/4 110/107/4 105/107/4
f 108/105/5 138/103/5 137/103/5
f 105/107/6 126/108/6 125/108/6
f 113/109/6 134/110/6 133/110/6
f 114/111/5 130/112/5 129/112/5
f 130/112/2 115/109/2 132/113/2
f 113/109/1 129/112/1 131/113/1
f 119/114/6 140/104/6 139/104/6
f 117/115/5 136/116/5 135/116/5
f 136/116/2 120/114/2 134/110/2
f 119/114/1 135/116/1 133/110/1
f 121/117/1 127/118/1 125/108/1
f 128/118/2 122/117/2 126/108/2
f 123/119/5 128/118/5 127/118/5
f 121/117/6 132/113/6 131/113/6
f 127/118/5 111/106/5 106/106/5
f 111/106/2 126/108/2 110/107/2
f 125/108/1 106/106/1 105/107/1
f 125/108/6 122/117/6 121/117/6
f 131/113/6 115/109/6 113/109/6
f 131/113/1 123/119/1 121/117/1
f 124/119/2 132/113/2 122/117/2
f 129/112/5 124/119/5 123/119/5
f 133/110/1 114/111/1 113/109/1
f 116/111/2 134/110/2 115/109/2
f 135/116/5 116/111/5 114/111/5
f 133/110/6 120/114/6 119/114/6
f 139/104/6 109/102/6 107/102/6
f 137/103/5 118/115/5 117/115/5
f 118/115/2 140/104/2 120/114/2
f 139/104/1 117/115/1 119/114/1
f 143/120/1 173/121/1 175/122/1
f 174/121/2 145/120/2 176/122/2
f 143/120/3 148/123/3 144/123/3
f 142/124/4 146/125/4 141/125/4
f 144/123/5 174/121/5 173/121/5
f 141/125/6 162/126/6 161/126/6
f 149/127/6 170/128/6 169/128/6
f 150/129/5 166/130/5 165/130/5
f 166/130/2 151/127/2 168/131/2
f 149/127/1 165/130/1 167/131/1
f 155/132/6 176/122/6 175/122/6
f 153/133/5 172/134/5 171/134/5
f 172/134/2 156/132/2 170/128/2
f 155/132/1 171/134/1 169/128/1
f 157/135/1 163/136/1 161/126/1
f 164/136/2 158/135/2 162/126/2
f 159/137/5 164/136/5 163/136/5
f 157/135/6 168/131/6 167/131/6
f 163/136/5 147/124/5 142/124/5
f 147/124/2 162/126/2 146/125/2
f 161/126/1 142/124/1 141/125/1
f 161/126/6 158/135/6 157/135/6
f 167/131/6 151/127/6 149/127/6
f 167/131/1 159/137/1 157/135/1
f 160/137/2 168/131/2 158/135/2
f 165/130/5 160/137/5 159/137/5
f 169/128/1 150/129/1 149/127/1
f 152/129/2 170/128/2 151/127/2
f 171/134/5 152/129/5 150/129/5
f 169/128/6 156/132/6 155/132/6
f 175/122/6 145/120/6 143/120/6
f 173/121/5 154/133/5 153/133/5
f 154/133/2 176/122/2 156/132/2
f 175/122/1 153/133/1 155/132/1
s 1
f 180/138/1 177/139/1 178/140/1
f 182/141/1 179/142/1 180/138/1
f 182/141/1 183/143/1 181/144/1
f 186/145/1 183/143/1 184/146/1
f 186/145/1 187/147/1 185/148/1
f 188/149/1 189/150/1 187/147/1
f 190/151/1 191/152/1 189/150/1
f 192/153/1 193/154/1 191/152/1
f 194/155/1 195/156/1 193/154/1
f 196/157/1 197/158/1 195/156/1
f 198/159/1 199/160/1 197/158/1
f 200/161/1 201/162/1 199/160/1
f 204/163/7 205/164/8 203/165/9
f 206/166/10 207/167/11 205/164/8
f 210/168/12 207/167/11 208/169/13
f 212/170/14 209/171/15 210/168/12
f 214/172/16 211/173/17 212/170/14
f 216/174/18 213/175/19 214/172/16
f 218/176/20 215/177/21 216/174/18
f 220/178/22 217/179/23 218/176/20
f 222/180/24 219/181/25 220/178/22
f 224/182/26 221/183/27 222/180/24
f 226/184/28 223/185/29 224/182/26
f 228/186/30 225/187/31 226/184/28
s 0
f 104/1/1 4/188/1 3/2/1
f 2/4/1 55/7/1 54/5/1
f 55/7/1 56/9/1 53/8/1
f 56/9/1 57/11/1 52/10/1
f 57/11/1 58/13/1 51/12/1
f 58/13/1 59/15/1 50/14/1
f 59/15/1 60/17/1 49/16/1
f 60/17/1 61/19/1 48/18/1
f 61/19/1 62/21/1 47/20/1
f 62/21/1 63/23/1 46/22/1
f 63/23/1 64/25/1 45/24/1
f 64/25/1 65/27/1 44/26/1
f 65/27/1 66/189/1 43/28/1
f 43/28/1 66/189/1 67/29/1
f 67/29/1 68/32/1 41/31/1
f 68/32/1 69/34/1 40/33/1
f 69/34/1 70/36/1 39/35/1
f 70/36/1 71/38/1 38/37/1
f 71/38/1 72/40/1 37/39/1
f 72/40/1 73/42/1 36/41/1
f 73/42/1 74/44/1 35/43/1
f 74/44/1 75/46/1 34/45/1
f 75/46/1 76/190/1 33/47/1
f 33/47/1 76/190/1 77/48/1
f 77/48/1 78/51/1 31/50/1
f 78/51/1 79/53/1 30/52/1
f 79/53/1 80/55/1 29/54/1
f 80/55/1 81/57/1 28/56/1
f 81/57/1 82/59/1 27/58/1
f 82/59/1 83/61/1 26/60/1
f 83/61/1 84/63/1 25/62/1
f 84/63/1 85/65/1 24/64/1
f 85/65/1 86/67/1 23/66/1
f 86/67/1 87/69/1 22/68/1
f 87/69/1 88/71/1 21/70/1
f 88/71/1 89/73/1 20/72/1
f 89/73/1 90/75/1 19/74/1
f 90/75/1 91/77/1 18/76/1
f 91/77/1 92/79/1 17/78/1
f 92/79/1 93/81/1 16/80/1
f 93/81/1 94/83/1 15/82/1
f 94/83/1 95/85/1 14/84/1
f 95/85/1 96/87/1 13/86/1
f 96/87/1 97/89/1 12/88/1
f 97/89/1 98/91/1 11/90/1
f 98/91/1 99/93/1 10/92/1
f 99/93/1 100/95/1 9/94/1
f 100/95/1 101/97/1 8/96/1
f 101/97/1 102/99/1 7/98/1
f 102/99/1 103/101/1 6/100/1
f 103/101/1 104/1/1 5/3/1
f 107/102/1 108/105/1 137/103/1
f 138/103/2 112/105/2 109/102/2
f 107/102/3 109/102/3 112/105/3
f 106/106/4 111/106/4 110/107/4
f 108/105/5 112/105/5 138/103/5
f 105/107/6 110/107/6 126/108/6
f 113/109/6 115/109/6 134/110/6
f 114/111/5 116/111/5 130/112/5
f 130/112/2 116/111/2 115/109/2
f 113/109/1 114/111/1 129/112/1
f 119/114/6 120/114/6 140/104/6
f 117/115/5 118/115/5 136/116/5
f 136/116/2 118/115/2 120/114/2
f 119/114/1 117/115/1 135/116/1
f 121/117/1 123/119/1 127/118/1
f 128/118/2 124/119/2 122/117/2
f 123/119/5 124/119/5 128/118/5
f 121/117/6 122/117/6 132/113/6
f 127/118/5 128/118/5 111/106/5
f 111/106/2 128/118/2 126/108/2
f 125/108/1 127/118/1 106/106/1
f 125/108/6 126/108/6 122/117/6
f 131/113/6 132/113/6 115/109/6
f 131/113/1 129/112/1 123/119/1
f 124/119/2 130/112/2 132/113/2
f 129/112/5 130/112/5 124/119/5
f 133/110/1 135/116/1 114/111/1
f 116/111/2 136/116/2 134/110/2
f 135/116/5 136/116/5 116/111/5
f 133/110/6 134/110/6 120/114/6
f 139/104/6 140/104/6 109/102/6
f 137/103/5 138/103/5 118/115/5
f 118/115/2 138/103/2 140/104/2
f 139/104/1 137/103/1 117/115/1
f 143/120/1 144/123/1 173/121/1
f 174/121/2 148/123/2 145/120/2
f 143/120/3 145/120/3 148/123/3
f 142/124/4 147/124/4 146/125/4
f 144/123/5 148/123/5 174/121/5
f 141/125/6 146/125/6 162/126/6
f 149/127/6 151/127/6 170/128/6
f 150/129/5 152/129/5 166/130/5
f 166/130/2 152/129/2 151/127/2
f 149/127/1 150/129/1 165/130/1
f 155/132/6 156/132/6 176/122/6
f 153/133/5 154/133/5 172/134/5
f 172/134/2 154/133/2 156/132/2
f 155/132/1 153/133/1 171/134/1
f 157/135/1 159/137/1 163/136/1
f 164/136/2 160/137/2 158/135/2
f 159/137/5 160/137/5 164/136/5
f 157/135/6 158/135/6 168/131/6
f 163/136/5 164/136/5 147/124/5
f 147/124/2 164/136/2 162/126/2
f 161/126/1 163/136/1 142/124/1
f 161/126/6 162/126/6 158/135/6
f 167/131/6 168/131/6 151/127/6
f 167/131/1 165/130/1 159/137/1
f 160/137/2 166/130/2 168/131/2
f 165/130/5 166/130/5 160/137/5
f 169/128/1 171/134/1 150/129/1
f 152/129/2 172/134/2 170/128/2
f 171/134/5 172/134/5 152/129/5
f 169/128/6 170/128/6 156/132/6
f 175/122/6 176/122/6 145/120/6
f 173/121/5 174/121/5 154/133/5
f 154/133/2 174/121/2 176/122/2
f 175/122/1 173/121/1 153/133/1
s 1
f 180/138/1 179/142/1 177/139/1
f 182/141/1 181/144/1 179/142/1
f 182/141/1 184/146/1 183/143/1
f 186/145/1 185/148/1 183/143/1
f 186/145/1 188/149/1 187/147/1
f 188/149/1 190/151/1 189/150/1
f 190/151/1 192/153/1 191/152/1
f 192/153/1 194/155/1 193/154/1
f 194/155/1 196/157/1 195/156/1
f 196/157/1 198/159/1 197/158/1
f 198/159/1 200/161/1 199/160/1
f 200/161/1 202/191/1 201/162/1
f 204/163/7 206/166/10 205/164/8
f 206/166/10 208/169/13 207/167/11
f 210/168/12 209/171/15 207/167/11
f 212/170/14 211/173/17 209/171/15
f 214/172/16 213/175/19 211/173/17
f 216/174/18 215/177/21 213/175/19
f 218/176/20 217/179/23 215/177/21
f 220/178/22 219/181/25 217/179/23
f 222/180/24 221/183/27 219/181/25
f 224/182/26 223/185/29 221/183/27
f 226/184/28 225/187/31 223/185/29
f 228/186/30 227/192/32 225/187/31
