# Blender 3.6.2
# www.blender.org
mtllib sealed_box_798x00.mtl
o Box.001
v 0.982143 0.333333 0.400000
v 0.982143 0.333333 0.850000
v 0.267857 0.333333 0.400000
v 0.267857 0.333333 0.850000
v 1.125000 0.666667 0.250000
v 1.125000 0.166667 0.250000
v 1.125000 0.666667 1.000000
v 1.125000 0.166667 1.000000
v 0.125000 0.666667 0.250000
v 0.125000 0.166667 0.250000
v 0.125000 0.666667 1.000000
v 0.125000 0.166667 1.000000
v 0.982143 0.666667 0.850000
v 0.267857 0.666667 0.850000
v 0.267857 0.666667 0.400000
v 0.982143 0.666667 0.400000
v 1.187500 0.833333 0.187500
v 1.187500 0.666667 0.187500
v 1.187500 0.833333 1.062500
v 1.187500 0.666667 1.062500
v 0.062500 0.833333 0.187500
v 0.062500 0.666667 0.187500
v 0.062500 0.833333 1.062500
v 0.062500 0.666667 1.062500
v 0.375000 0.166667 0.250000
v 0.375000 0.000000 0.250000
v 0.375000 0.166667 1.000000
v 0.375000 0.000000 1.000000
v 0.125000 0.166667 0.250000
v 0.125000 0.000000 0.250000
v 0.125000 0.166667 1.000000
v 0.125000 0.000000 1.000000
v 1.125000 0.166667 0.250000
v 1.125000 0.000000 0.250000
v 1.125000 0.166667 1.000000
v 1.125000 0.000000 1.000000
v 0.875000 0.166667 0.250000
v 0.875000 0.000000 0.250000
v 0.875000 0.166667 1.000000
v 0.875000 0.000000 1.000000
v 0.750000 0.854167 0.916667
v 0.750000 0.854167 1.078125
v 0.750000 0.666667 1.078125
v 0.500000 0.854167 0.916667
v 0.500000 0.854167 1.078125
v 0.500000 0.666667 1.078125
v 0.750000 0.666667 1.062500
v 0.500000 0.833333 1.062500
v 0.500000 0.666667 1.062500
v 0.750000 0.833333 1.062500
v 0.500000 0.833333 0.916667
v 0.750000 0.833333 0.916667
v 0.498750 0.836630 1.066875
v 0.751250 0.836630 1.066875
v 0.498750 0.668296 0.183125
v 0.751250 0.668296 0.183125
v 0.498750 0.836630 0.183125
v 0.751250 0.836630 0.183125
v 0.498750 0.163297 0.246250
v 0.751250 0.163297 0.246250
v 0.498750 0.163297 1.003750
v 0.751250 0.163297 1.003750
v 0.498750 0.668297 1.066875
v 0.751250 0.668297 1.066875
v 0.498750 0.836630 1.066875
v 0.751250 0.836630 1.066875
v 0.498750 0.836630 0.916667
v 0.751250 0.836630 0.916667
vn -0.0000 -0.0000 -1.0000
vn 1.0000 -0.0000 -0.0000
vn -0.0000 1.0000 -0.0000
vn -1.0000 -0.0000 -0.0000
vn -0.0000 -0.0000 1.0000
vn -0.0000 -1.0000 -0.0000
vn -0.0000 -0.1240 -0.9923
vn -0.0000 -0.1240 0.9923
vt 0.261958 0.302345
vt 0.293456 0.302345
vt 0.261958 0.330693
vt 0.358297 0.302345
vt 0.395789 0.346012
vt 0.358297 0.346012
vt 0.293456 0.330693
vt 0.309014 0.401880
vt 0.313043 0.377701
vt 0.313043 0.395835
vt 0.449999 0.428463
vt 0.049893 0.214966
vt 0.449999 0.214966
vt 0.550083 0.928650
vt 0.699966 0.500053
vt 0.699966 0.928650
vt 0.294557 0.298732
vt 0.256956 0.339019
vt 0.256956 0.298732
vt 0.550120 0.928251
vt 0.699889 0.500295
vt 0.699889 0.928251
vt 0.214782 0.423136
vt 0.136785 0.367424
vt 0.214782 0.367424
vt 0.333192 0.377701
vt 0.309014 0.371656
vt 0.337222 0.371656
vt 0.050121 0.928596
vt 0.499874 0.500850
vt 0.499874 0.928596
vt 0.500008 0.571262
vt 0.050122 0.500283
vt 0.500008 0.500283
vt 0.095455 0.511221
vt 0.055847 0.558438
vt 0.055806 0.511223
vt 0.434182 0.159688
vt 0.366872 0.200702
vt 0.366872 0.159688
vt 0.464180 0.627487
vt 0.492070 0.509973
vt 0.492070 0.627487
vt 0.140346 0.843012
vt 0.109426 0.798188
vt 0.140346 0.798188
vt 0.098156 0.193836
vt 0.127208 0.193836
vt 0.098156 0.166167
vt 0.127208 0.166167
vt 0.385342 0.188784
vt 0.414394 0.188784
vt 0.385342 0.161115
vt 0.414394 0.161115
vt 0.750075 0.429309
vt 0.849982 0.357396
vt 0.849982 0.429309
vt 0.849991 0.357032
vt 0.750128 0.285645
vt 0.849991 0.285645
vt 0.766806 0.333280
vt 0.766806 0.319446
vt 0.774069 0.319446
vt 0.795977 0.319542
vt 0.754142 0.339463
vt 0.754142 0.319542
vt 0.625000 0.847222
vt 0.500000 0.902778
vt 0.625000 0.902778
vt 0.777778 0.750000
vt 0.722222 0.714286
vt 0.722222 0.750000
vt 0.375000 0.625000
vt 0.125000 0.750000
vt 0.125000 0.625000
vt 0.920052 0.393248
vt 0.932603 0.428708
vt 0.907502 0.428708
vt 0.750197 0.928460
vt 0.850033 0.857277
vt 0.850033 0.928460
vt 0.849956 0.429648
vt 0.750070 0.785551
vt 0.750070 0.429648
vt 0.778529 0.925522
vt 0.823599 0.861825
vt 0.823599 0.925522
vt 0.811546 0.079980
vt 0.782204 0.135602
vt 0.782204 0.079980
vt 0.849857 0.071637
vt 0.750088 0.214232
vt 0.750088 0.071637
vt 0.817524 0.160155
vt 0.775271 0.200396
vt 0.775271 0.160155
vt 0.849264 0.435434
vt 0.750468 0.491403
vt 0.750468 0.435434
vt 0.395789 0.302345
vt 0.333192 0.395835
vt 0.337222 0.401880
vt 0.049893 0.428463
vt 0.550083 0.500053
vt 0.294557 0.339019
vt 0.550120 0.500295
vt 0.136785 0.423136
vt 0.050121 0.500850
vt 0.050122 0.571262
vt 0.095495 0.558436
vt 0.434182 0.200702
vt 0.464180 0.509973
vt 0.109426 0.843012
vt 0.750075 0.357396
vt 0.750128 0.357032
vt 0.774069 0.305611
vt 0.781332 0.305611
vt 0.781332 0.333280
vt 0.795977 0.339463
vt 0.500000 0.847222
vt 0.777778 0.714286
vt 0.375000 0.750000
vt 0.907502 0.357788
vt 0.920052 0.357788
vt 0.932603 0.393248
vt 0.750197 0.857277
vt 0.849956 0.785551
vt 0.778529 0.861825
vt 0.811546 0.135602
vt 0.849857 0.214232
vt 0.817524 0.200396
vt 0.849264 0.491403
s 0
usemtl Material
f 4/1/1 13/2/1 2/2/1
f 3/3/2 14/1/2 4/1/2
f 4/4/3 1/5/3 3/6/3
f 2/2/4 16/7/4 1/7/4
f 1/7/5 15/3/5 3/3/5
f 9/8/3 14/9/3 15/10/3
f 7/11/5 12/12/5 8/13/5
f 11/14/4 10/15/4 12/16/4
f 6/17/6 12/18/6 10/19/6
f 5/20/2 8/21/2 6/22/2
f 9/23/1 6/24/1 10/25/1
f 13/26/3 11/27/3 7/28/3
f 21/29/3 19/30/3 17/31/3
f 19/32/5 24/33/5 20/34/5
f 23/35/4 22/36/4 24/37/4
f 18/38/6 24/39/6 22/40/6
f 17/41/2 20/42/2 18/43/2
f 21/44/1 18/45/1 22/46/1
f 29/47/3 27/48/3 25/48/3
f 27/48/5 32/49/5 28/50/5
f 31/47/4 30/49/4 32/49/4
f 26/50/6 32/49/6 30/49/6
f 25/48/2 28/50/2 26/50/2
f 29/47/1 26/50/1 30/49/1
f 37/51/3 35/52/3 33/52/3
f 35/52/5 40/53/5 36/54/5
f 39/51/4 38/53/4 40/53/4
f 34/54/6 40/53/6 38/53/6
f 33/52/2 36/54/2 34/54/2
f 37/51/1 34/54/1 38/53/1
f 44/55/3 42/56/3 41/57/3
f 42/58/5 46/59/5 43/60/5
f 44/61/4 51/62/4 48/63/4
f 51/64/1 41/65/1 52/66/1
f 50/67/1 49/68/1 48/69/1
f 48/70/6 52/71/6 50/72/6
f 47/73/6 46/74/6 49/75/6
f 50/76/2 41/77/2 42/78/2
f 58/79/1 55/80/1 57/81/1
f 68/82/3 57/83/3 67/84/3
f 56/85/7 59/86/7 55/87/7
f 60/88/6 61/89/6 59/90/6
f 62/91/8 63/92/8 61/93/8
f 64/94/5 65/95/5 63/96/5
f 54/97/3 67/98/3 53/99/3
f 4/1/1 14/1/1 13/2/1
f 3/3/2 15/3/2 14/1/2
f 4/4/3 2/100/3 1/5/3
f 2/2/4 13/2/4 16/7/4
f 1/7/5 16/7/5 15/3/5
f 16/101/3 5/102/3 9/8/3
f 9/8/3 11/27/3 14/9/3
f 15/10/3 16/101/3 9/8/3
f 7/11/5 11/103/5 12/12/5
f 11/14/4 9/104/4 10/15/4
f 6/17/6 8/105/6 12/18/6
f 5/20/2 7/106/2 8/21/2
f 9/23/1 5/107/1 6/24/1
f 5/102/3 16/101/3 13/26/3
f 13/26/3 14/9/3 11/27/3
f 7/28/3 5/102/3 13/26/3
f 21/29/3 23/108/3 19/30/3
f 19/32/5 23/109/5 24/33/5
f 23/35/4 21/110/4 22/36/4
f 18/38/6 20/111/6 24/39/6
f 17/41/2 19/112/2 20/42/2
f 21/44/1 17/113/1 18/45/1
f 29/47/3 31/47/3 27/48/3
f 27/48/5 31/47/5 32/49/5
f 31/47/4 29/47/4 30/49/4
f 26/50/6 28/50/6 32/49/6
f 25/48/2 27/48/2 28/50/2
f 29/47/1 25/48/1 26/50/1
f 37/51/3 39/51/3 35/52/3
f 35/52/5 39/51/5 40/53/5
f 39/51/4 37/51/4 38/53/4
f 34/54/6 36/54/6 40/53/6
f 33/52/2 35/52/2 36/54/2
f 37/51/1 33/52/1 34/54/1
f 44/55/3 45/114/3 42/56/3
f 42/58/5 45/115/5 46/59/5
f 49/116/4 46/117/4 48/63/4
f 46/117/4 45/118/4 48/63/4
f 45/118/4 44/61/4 48/63/4
f 51/64/1 44/119/1 41/65/1
f 50/67/1 47/120/1 49/68/1
f 48/70/6 51/121/6 52/71/6
f 47/73/6 43/122/6 46/74/6
f 43/123/2 47/124/2 50/76/2
f 50/76/2 52/125/2 41/77/2
f 42/78/2 43/123/2 50/76/2
f 58/79/1 56/126/1 55/80/1
f 68/82/3 58/127/3 57/83/3
f 56/85/7 60/128/7 59/86/7
f 60/88/6 62/129/6 61/89/6
f 62/91/8 64/130/8 63/92/8
f 64/94/5 66/131/5 65/95/5
f 54/97/3 68/132/3 67/98/3
