{
	"asset":{
		"generator":"Khronos glTF Blender I/O v4.4.55",
		"version":"2.0"
	},
	"scene":0,
	"scenes":[
		{
			"name":"Scene",
			"nodes":[
				0,
				1,
				2,
				3,
				4
			]
		}
	],
	"nodes":[
		{
			"mesh":0,
			"name":"Cube.001"
		},
		{
			"mesh":1,
			"name":"Cube.002"
		},
		{
			"mesh":2,
			"name":"Cube.003"
		},
		{
			"mesh":3,
			"name":"Cube.004"
		},
		{
			"mesh":4,
			"name":"Cube.005",
			"rotation":[
				-0.313782662153244,
				0,
				0,
				0.9494948387145996
			]
		}
	],
	"materials":[
		{
			"alphaMode":"BLEND",
			"doubleSided":true,
			"name":"Material",
			"pbrMetallicRoughness":{
				"baseColorTexture":{
					"index":0
				},
				"metallicFactor":0,
				"roughnessFactor":0.5
			}
		}
	],
	"meshes":[
		{
			"name":"Cube.001",
			"primitives":[
				{
					"attributes":{
						"POSITION":0,
						"NORMAL":1,
						"TEXCOORD_0":2
					},
					"indices":3,
					"material":0
				}
			]
		},
		{
			"name":"Cube.002",
			"primitives":[
				{
					"attributes":{
						"POSITION":4,
						"NORMAL":5,
						"TEXCOORD_0":6
					},
					"indices":7,
					"material":0
				}
			]
		},
		{
			"name":"Cube.003",
			"primitives":[
				{
					"attributes":{
						"POSITION":8,
						"NORMAL":9,
						"TEXCOORD_0":10
					},
					"indices":11,
					"material":0
				}
			]
		},
		{
			"name":"Cube.004",
			"primitives":[
				{
					"attributes":{
						"POSITION":12,
						"NORMAL":13,
						"TEXCOORD_0":14
					},
					"indices":15,
					"material":0
				}
			]
		},
		{
			"name":"Cube.005",
			"primitives":[
				{
					"attributes":{
						"POSITION":16,
						"NORMAL":17,
						"TEXCOORD_0":18
					},
					"indices":19,
					"material":0
				}
			]
		}
	],
	"textures":[
		{
			"sampler":0,
			"source":0
		}
	],
	"images":[
		{
			"mimeType":"image/png",
			"name":"shape414",
			"uri":"shape414.png"
		}
	],
	"accessors":[
		{
			"bufferView":0,
			"componentType":5126,
			"count":138,
			"max":[
				0.5670590996742249,
				0.9207798838615417,
				3.4928150177001953
			],
			"min":[
				-0.012852158397436142,
				0.8040309548377991,
				0.43886303901672363
			],
			"type":"VEC3"
		},
		{
			"bufferView":1,
			"componentType":5126,
			"count":138,
			"type":"VEC3"
		},
		{
			"bufferView":2,
			"componentType":5126,
			"count":138,
			"type":"VEC2"
		},
		{
			"bufferView":3,
			"componentType":5123,
			"count":276,
			"type":"SCALAR"
		},
		{
			"bufferView":4,
			"componentType":5126,
			"count":932,
			"max":[
				1.5898784399032593,
				0.6192654967308044,
				2.633190631866455
			],
			"min":[
				-0.1702222228050232,
				0.009696349501609802,
				0.4756651520729065
			],
			"type":"VEC3"
		},
		{
			"bufferView":5,
			"componentType":5126,
			"count":932,
			"type":"VEC3"
		},
		{
			"bufferView":6,
			"componentType":5126,
			"count":932,
			"type":"VEC2"
		},
		{
			"bufferView":7,
			"componentType":5123,
			"count":2250,
			"type":"SCALAR"
		},
		{
			"bufferView":8,
			"componentType":5126,
			"count":306,
			"max":[
				-0.2459205985069275,
				2.6234757900238037,
				0.4234952926635742
			],
			"min":[
				-1.054852843284607,
				1.9545050859451294,
				-0.025849349796772003
			],
			"type":"VEC3"
		},
		{
			"bufferView":9,
			"componentType":5126,
			"count":306,
			"type":"VEC3"
		},
		{
			"bufferView":10,
			"componentType":5126,
			"count":306,
			"type":"VEC2"
		},
		{
			"bufferView":11,
			"componentType":5123,
			"count":840,
			"type":"SCALAR"
		},
		{
			"bufferView":12,
			"componentType":5126,
			"count":1330,
			"max":[
				1.95524001121521,
				2.2766430377960205,
				0.538750410079956
			],
			"min":[
				-1.979712963104248,
				0.23481446504592896,
				0.07705902308225632
			],
			"type":"VEC3"
		},
		{
			"bufferView":13,
			"componentType":5126,
			"count":1330,
			"type":"VEC3"
		},
		{
			"bufferView":14,
			"componentType":5126,
			"count":1330,
			"type":"VEC2"
		},
		{
			"bufferView":15,
			"componentType":5123,
			"count":3276,
			"type":"SCALAR"
		},
		{
			"bufferView":16,
			"componentType":5126,
			"count":356,
			"max":[
				1.036157488822937,
				0.5002840757369995,
				0.7289758920669556
			],
			"min":[
				-0.2951522171497345,
				-0.2709628939628601,
				0.38569727540016174
			],
			"type":"VEC3"
		},
		{
			"bufferView":17,
			"componentType":5126,
			"count":356,
			"type":"VEC3"
		},
		{
			"bufferView":18,
			"componentType":5126,
			"count":356,
			"type":"VEC2"
		},
		{
			"bufferView":19,
			"componentType":5123,
			"count":963,
			"type":"SCALAR"
		}
	],
	"bufferViews":[
		{
			"buffer":0,
			"byteLength":1656,
			"byteOffset":0,
			"target":34962
		},
		{
			"buffer":0,
			"byteLength":1656,
			"byteOffset":1656,
			"target":34962
		},
		{
			"buffer":0,
			"byteLength":1104,
			"byteOffset":3312,
			"target":34962
		},
		{
			"buffer":0,
			"byteLength":552,
			"byteOffset":4416,
			"target":34963
		},
		{
			"buffer":0,
			"byteLength":11184,
			"byteOffset":4968,
			"target":34962
		},
		{
			"buffer":0,
			"byteLength":11184,
			"byteOffset":16152,
			"target":34962
		},
		{
			"buffer":0,
			"byteLength":7456,
			"byteOffset":27336,
			"target":34962
		},
		{
			"buffer":0,
			"byteLength":4500,
			"byteOffset":34792,
			"target":34963
		},
		{
			"buffer":0,
			"byteLength":3672,
			"byteOffset":39292,
			"target":34962
		},
		{
			"buffer":0,
			"byteLength":3672,
			"byteOffset":42964,
			"target":34962
		},
		{
			"buffer":0,
			"byteLength":2448,
			"byteOffset":46636,
			"target":34962
		},
		{
			"buffer":0,
			"byteLength":1680,
			"byteOffset":49084,
			"target":34963
		},
		{
			"buffer":0,
			"byteLength":15960,
			"byteOffset":50764,
			"target":34962
		},
		{
			"buffer":0,
			"byteLength":15960,
			"byteOffset":66724,
			"target":34962
		},
		{
			"buffer":0,
			"byteLength":10640,
			"byteOffset":82684,
			"target":34962
		},
		{
			"buffer":0,
			"byteLength":6552,
			"byteOffset":93324,
			"target":34963
		},
		{
			"buffer":0,
			"byteLength":4272,
			"byteOffset":99876,
			"target":34962
		},
		{
			"buffer":0,
			"byteLength":4272,
			"byteOffset":104148,
			"target":34962
		},
		{
			"buffer":0,
			"byteLength":2848,
			"byteOffset":108420,
			"target":34962
		},
		{
			"buffer":0,
			"byteLength":1926,
			"byteOffset":111268,
			"target":34963
		}
	],
	"samplers":[
		{
			"magFilter":9728,
			"minFilter":9984
		}
	],
	"buffers":[
		{
			"byteLength":113196,
			"uri":"shape414.bin"
		}
	]
}
