{
	"asset":{
		"generator":"Khronos glTF Blender I/O v4.4.55",
		"version":"2.0"
	},
	"scene":0,
	"scenes":[
		{
			"name":"Scene",
			"nodes":[
				0
			]
		}
	],
	"nodes":[
		{
			"mesh":0,
			"name":"ship_figure_head_00"
		}
	],
	"materials":[
		{
			"doubleSided":true,
			"name":"Material.004",
			"pbrMetallicRoughness":{
				"baseColorTexture":{
					"index":0
				},
				"metallicFactor":0,
				"roughnessFactor":0.5
			}
		}
	],
	"meshes":[
		{
			"name":"Circle",
			"primitives":[
				{
					"attributes":{
						"POSITION":0,
						"NORMAL":1,
						"TEXCOORD_0":2,
						"TANGENT":3
					},
					"indices":4,
					"material":0
				}
			]
		}
	],
	"textures":[
		{
			"sampler":0,
			"source":0
		}
	],
	"images":[
		{
			"mimeType":"image/png",
			"name":"665prow",
			"uri":"665prow.png"
		}
	],
	"accessors":[
		{
			"bufferView":0,
			"componentType":5126,
			"count":1000,
			"max":[
				0.5876857042312622,
				6.404052734375,
				0.7923914194107056
			],
			"min":[
				-0.5876857042312622,
				-0.0013402027543634176,
				-2.726323127746582
			],
			"type":"VEC3"
		},
		{
			"bufferView":1,
			"componentType":5126,
			"count":1000,
			"type":"VEC3"
		},
		{
			"bufferView":2,
			"componentType":5126,
			"count":1000,
			"type":"VEC2"
		},
		{
			"bufferView":3,
			"componentType":5126,
			"count":1000,
			"type":"VEC4"
		},
		{
			"bufferView":4,
			"componentType":5123,
			"count":2250,
			"type":"SCALAR"
		}
	],
	"bufferViews":[
		{
			"buffer":0,
			"byteLength":12000,
			"byteOffset":0,
			"target":34962
		},
		{
			"buffer":0,
			"byteLength":12000,
			"byteOffset":12000,
			"target":34962
		},
		{
			"buffer":0,
			"byteLength":8000,
			"byteOffset":24000,
			"target":34962
		},
		{
			"buffer":0,
			"byteLength":16000,
			"byteOffset":32000,
			"target":34962
		},
		{
			"buffer":0,
			"byteLength":4500,
			"byteOffset":48000,
			"target":34963
		}
	],
	"samplers":[
		{
			"magFilter":9728,
			"minFilter":9984
		}
	],
	"buffers":[
		{
			"byteLength":52500,
			"uri":"ship_figure_head_00.bin"
		}
	]
}
