{
	"asset":{
		"generator":"Khronos glTF Blender I/O v4.4.55",
		"version":"2.0"
	},
	"scene":0,
	"scenes":[
		{
			"name":"Scene",
			"nodes":[
				0
			]
		}
	],
	"nodes":[
		{
			"mesh":0,
			"name":"ship_base"
		}
	],
	"materials":[
		{
			"doubleSided":true,
			"name":"Deck",
			"pbrMetallicRoughness":{
				"baseColorTexture":{
					"index":0
				},
				"metallicFactor":0,
				"roughnessFactor":0.5
			}
		},
		{
			"doubleSided":true,
			"name":"1017ship",
			"pbrMetallicRoughness":{
				"baseColorTexture":{
					"index":1
				},
				"metallicFactor":0.3181818425655365,
				"roughnessFactor":0.5
			}
		},
		{
			"doubleSided":true,
			"name":"775rails",
			"pbrMetallicRoughness":{
				"baseColorTexture":{
					"index":2
				},
				"metallicFactor":0,
				"roughnessFactor":0.5
			}
		}
	],
	"meshes":[
		{
			"name":"Ship",
			"primitives":[
				{
					"attributes":{
						"POSITION":0,
						"NORMAL":1,
						"TEXCOORD_0":2,
						"TANGENT":3
					},
					"indices":4,
					"material":0
				},
				{
					"attributes":{
						"POSITION":5,
						"NORMAL":6,
						"TEXCOORD_0":7,
						"TANGENT":8
					},
					"indices":9,
					"material":1
				},
				{
					"attributes":{
						"POSITION":10,
						"NORMAL":11,
						"TEXCOORD_0":12,
						"TANGENT":13
					},
					"indices":14,
					"material":2
				}
			]
		}
	],
	"textures":[
		{
			"sampler":0,
			"source":0
		},
		{
			"sampler":0,
			"source":1
		},
		{
			"sampler":0,
			"source":2
		}
	],
	"images":[
		{
			"mimeType":"image/png",
			"name":"700deck",
			"uri":"700deck.png"
		},
		{
			"mimeType":"image/png",
			"name":"1017ship",
			"uri":"1017ship.png"
		},
		{
			"mimeType":"image/png",
			"name":"775ship_rails",
			"uri":"775ship_rails.png"
		},
		{
			"mimeType":"image/png",
			"name":"251sails",
			"uri":"251sails.png"
		},
		{
			"mimeType":"image/png",
			"name":"292seat",
			"uri":"292seat.png"
		},
		{
			"mimeType":"image/png",
			"name":"405ships_hold",
			"uri":"405ships_hold.png"
		},
		{
			"mimeType":"image/png",
			"name":"665prow",
			"uri":"665prow.png"
		},
		{
			"mimeType":"image/png",
			"name":"ceca612fa7837f40be12cf5146f4bd3d",
			"uri":"ceca612fa7837f40be12cf5146f4bd3d.png"
		},
		{
			"mimeType":"image/png",
			"name":"glow_baseColor",
			"uri":"glow_baseColor.png"
		},
		{
			"mimeType":"image/png",
			"name":"glow_metallicRoughness",
			"uri":"glow_metallicRoughness.png"
		},
		{
			"mimeType":"image/png",
			"name":"sail1_baseColor",
			"uri":"sail1_baseColor.png"
		},
		{
			"mimeType":"image/png",
			"name":"sail1_metallicRoughness",
			"uri":"sail1_metallicRoughness.png"
		},
		{
			"mimeType":"image/png",
			"name":"sail1_normal",
			"uri":"sail1_normal.png"
		},
		{
			"mimeType":"image/png",
			"name":"shields_baseColor",
			"uri":"shields_baseColor.png"
		},
		{
			"mimeType":"image/png",
			"name":"shields_metallicRoughness",
			"uri":"shields_metallicRoughness.png"
		},
		{
			"mimeType":"image/png",
			"name":"shields_normal",
			"uri":"shields_normal.png"
		},
		{
			"mimeType":"image/png",
			"name":"stuff_baseColor",
			"uri":"stuff_baseColor.png"
		},
		{
			"mimeType":"image/png",
			"name":"stuff_emissive",
			"uri":"stuff_emissive.png"
		},
		{
			"mimeType":"image/png",
			"name":"stuff_metallicRoughness",
			"uri":"stuff_metallicRoughness.png"
		},
		{
			"mimeType":"image/png",
			"name":"stuff_normal",
			"uri":"stuff_normal.png"
		},
		{
			"mimeType":"image/png",
			"name":"trimsheet_baseColor",
			"uri":"trimsheet_baseColor.png"
		},
		{
			"mimeType":"image/png",
			"name":"trimsheet_metallicRoughness",
			"uri":"trimsheet_metallicRoughness.png"
		},
		{
			"mimeType":"image/png",
			"name":"trimsheet_normal",
			"uri":"trimsheet_normal.png"
		},
		{
			"mimeType":"image/png",
			"name":"woodplanks_baseColor",
			"uri":"woodplanks_baseColor.png"
		},
		{
			"mimeType":"image/png",
			"name":"woodplanks_metallicRoughness",
			"uri":"woodplanks_metallicRoughness.png"
		},
		{
			"mimeType":"image/png",
			"name":"woodplanks_normal",
			"uri":"woodplanks_normal.png"
		}
	],
	"accessors":[
		{
			"bufferView":0,
			"componentType":5126,
			"count":226,
			"max":[
				2.000000476837158,
				1.0003535747528076,
				10.733332633972168
			],
			"min":[
				-2.000030517578125,
				-2.660921760710977e-10,
				-10.723335266113281
			],
			"type":"VEC3"
		},
		{
			"bufferView":1,
			"componentType":5126,
			"count":226,
			"type":"VEC3"
		},
		{
			"bufferView":2,
			"componentType":5126,
			"count":226,
			"type":"VEC2"
		},
		{
			"bufferView":3,
			"componentType":5126,
			"count":226,
			"type":"VEC4"
		},
		{
			"bufferView":4,
			"componentType":5123,
			"count":576,
			"type":"SCALAR"
		},
		{
			"bufferView":5,
			"componentType":5126,
			"count":359,
			"max":[
				2.999999523162842,
				4.360390663146973,
				11.133333206176758
			],
			"min":[
				-3.0000250339508057,
				-7.450580596923828e-09,
				-11.123334884643555
			],
			"type":"VEC3"
		},
		{
			"bufferView":6,
			"componentType":5126,
			"count":359,
			"type":"VEC3"
		},
		{
			"bufferView":7,
			"componentType":5126,
			"count":359,
			"type":"VEC2"
		},
		{
			"bufferView":8,
			"componentType":5126,
			"count":359,
			"type":"VEC4"
		},
		{
			"bufferView":9,
			"componentType":5123,
			"count":672,
			"type":"SCALAR"
		},
		{
			"bufferView":10,
			"componentType":5126,
			"count":2669,
			"max":[
				3.1098134517669678,
				3.001960039138794,
				11
			],
			"min":[
				-3.1098134517669678,
				-7.450580596923828e-09,
				-11
			],
			"type":"VEC3"
		},
		{
			"bufferView":11,
			"componentType":5126,
			"count":2669,
			"type":"VEC3"
		},
		{
			"bufferView":12,
			"componentType":5126,
			"count":2669,
			"type":"VEC2"
		},
		{
			"bufferView":13,
			"componentType":5126,
			"count":2669,
			"type":"VEC4"
		},
		{
			"bufferView":14,
			"componentType":5123,
			"count":5292,
			"type":"SCALAR"
		}
	],
	"bufferViews":[
		{
			"buffer":0,
			"byteLength":2712,
			"byteOffset":0,
			"target":34962
		},
		{
			"buffer":0,
			"byteLength":2712,
			"byteOffset":2712,
			"target":34962
		},
		{
			"buffer":0,
			"byteLength":1808,
			"byteOffset":5424,
			"target":34962
		},
		{
			"buffer":0,
			"byteLength":3616,
			"byteOffset":7232,
			"target":34962
		},
		{
			"buffer":0,
			"byteLength":1152,
			"byteOffset":10848,
			"target":34963
		},
		{
			"buffer":0,
			"byteLength":4308,
			"byteOffset":12000,
			"target":34962
		},
		{
			"buffer":0,
			"byteLength":4308,
			"byteOffset":16308,
			"target":34962
		},
		{
			"buffer":0,
			"byteLength":2872,
			"byteOffset":20616,
			"target":34962
		},
		{
			"buffer":0,
			"byteLength":5744,
			"byteOffset":23488,
			"target":34962
		},
		{
			"buffer":0,
			"byteLength":1344,
			"byteOffset":29232,
			"target":34963
		},
		{
			"buffer":0,
			"byteLength":32028,
			"byteOffset":30576,
			"target":34962
		},
		{
			"buffer":0,
			"byteLength":32028,
			"byteOffset":62604,
			"target":34962
		},
		{
			"buffer":0,
			"byteLength":21352,
			"byteOffset":94632,
			"target":34962
		},
		{
			"buffer":0,
			"byteLength":42704,
			"byteOffset":115984,
			"target":34962
		},
		{
			"buffer":0,
			"byteLength":10584,
			"byteOffset":158688,
			"target":34963
		}
	],
	"samplers":[
		{
			"magFilter":9728,
			"minFilter":9984
		}
	],
	"buffers":[
		{
			"byteLength":169272,
			"uri":"ship_base.bin"
		}
	]
}
