{
	"asset":{
		"generator":"Khronos glTF Blender I/O v4.4.55",
		"version":"2.0"
	},
	"scene":0,
	"scenes":[
		{
			"name":"Scene",
			"nodes":[
				0
			]
		}
	],
	"nodes":[
		{
			"mesh":0,
			"name":"ship_figure_head_02"
		}
	],
	"materials":[
		{
			"name":"ship_figure_head_00",
			"pbrMetallicRoughness":{
				"baseColorTexture":{
					"index":0
				},
				"metallicFactor":0,
				"roughnessFactor":0.5
			}
		}
	],
	"meshes":[
		{
			"name":"ship_figure_head_02",
			"primitives":[
				{
					"attributes":{
						"POSITION":0,
						"NORMAL":1,
						"TEXCOORD_0":2,
						"TANGENT":3
					},
					"indices":4,
					"material":0
				}
			]
		}
	],
	"textures":[
		{
			"sampler":0,
			"source":0
		}
	],
	"images":[
		{
			"mimeType":"image/png",
			"name":"665prow",
			"uri":"665prow.png"
		}
	],
	"accessors":[
		{
			"bufferView":0,
			"componentType":5126,
			"count":1772,
			"max":[
				2.142794609069824,
				9.244297981262207,
				0.9644168019294739
			],
			"min":[
				-1.236804723739624,
				2.4772369861602783,
				-3.323359727859497
			],
			"type":"VEC3"
		},
		{
			"bufferView":1,
			"componentType":5126,
			"count":1772,
			"type":"VEC3"
		},
		{
			"bufferView":2,
			"componentType":5126,
			"count":1772,
			"type":"VEC2"
		},
		{
			"bufferView":3,
			"componentType":5126,
			"count":1772,
			"type":"VEC4"
		},
		{
			"bufferView":4,
			"componentType":5123,
			"count":4044,
			"type":"SCALAR"
		}
	],
	"bufferViews":[
		{
			"buffer":0,
			"byteLength":21264,
			"byteOffset":0,
			"target":34962
		},
		{
			"buffer":0,
			"byteLength":21264,
			"byteOffset":21264,
			"target":34962
		},
		{
			"buffer":0,
			"byteLength":14176,
			"byteOffset":42528,
			"target":34962
		},
		{
			"buffer":0,
			"byteLength":28352,
			"byteOffset":56704,
			"target":34962
		},
		{
			"buffer":0,
			"byteLength":8088,
			"byteOffset":85056,
			"target":34963
		}
	],
	"samplers":[
		{
			"magFilter":9728,
			"minFilter":9984
		}
	],
	"buffers":[
		{
			"byteLength":93144,
			"uri":"ship_figure_head_02.bin"
		}
	]
}
