{
	"asset":{
		"generator":"Khronos glTF Blender I/O v4.4.55",
		"version":"2.0"
	},
	"scene":0,
	"scenes":[
		{
			"name":"Scene",
			"nodes":[
				0
			]
		}
	],
	"nodes":[
		{
			"mesh":0,
			"name":"ship_gangplank_down",
			"rotation":[
				0,
				0,
				-0.0005092024803161621,
				1
			]
		}
	],
	"materials":[
		{
			"doubleSided":true,
			"name":"775rails",
			"pbrMetallicRoughness":{
				"baseColorTexture":{
					"index":0
				},
				"metallicFactor":0,
				"roughnessFactor":0.5
			}
		}
	],
	"meshes":[
		{
			"name":"Cube.002",
			"primitives":[
				{
					"attributes":{
						"POSITION":0,
						"NORMAL":1,
						"TEXCOORD_0":2,
						"TANGENT":3
					},
					"indices":4,
					"material":0
				}
			]
		}
	],
	"textures":[
		{
			"sampler":0,
			"source":0
		}
	],
	"images":[
		{
			"mimeType":"image/png",
			"name":"775ship_rails",
			"uri":"775ship_rails.png"
		},
		{
			"mimeType":"image/png",
			"name":"1017ship",
			"uri":"1017ship.png"
		},
		{
			"mimeType":"image/png",
			"name":"251sails",
			"uri":"251sails.png"
		},
		{
			"mimeType":"image/png",
			"name":"292seat",
			"uri":"292seat.png"
		},
		{
			"mimeType":"image/png",
			"name":"405ships_hold",
			"uri":"405ships_hold.png"
		},
		{
			"mimeType":"image/png",
			"name":"665prow",
			"uri":"665prow.png"
		},
		{
			"mimeType":"image/png",
			"name":"700deck",
			"uri":"700deck.png"
		},
		{
			"mimeType":"image/png",
			"name":"ceca612fa7837f40be12cf5146f4bd3d",
			"uri":"ceca612fa7837f40be12cf5146f4bd3d.png"
		},
		{
			"mimeType":"image/png",
			"name":"glow_baseColor",
			"uri":"glow_baseColor.png"
		},
		{
			"mimeType":"image/png",
			"name":"glow_metallicRoughness",
			"uri":"glow_metallicRoughness.png"
		},
		{
			"mimeType":"image/png",
			"name":"sail1_baseColor",
			"uri":"sail1_baseColor.png"
		},
		{
			"mimeType":"image/png",
			"name":"sail1_metallicRoughness",
			"uri":"sail1_metallicRoughness.png"
		},
		{
			"mimeType":"image/png",
			"name":"sail1_normal",
			"uri":"sail1_normal.png"
		},
		{
			"mimeType":"image/png",
			"name":"shields_baseColor",
			"uri":"shields_baseColor.png"
		},
		{
			"mimeType":"image/png",
			"name":"shields_metallicRoughness",
			"uri":"shields_metallicRoughness.png"
		},
		{
			"mimeType":"image/png",
			"name":"shields_normal",
			"uri":"shields_normal.png"
		},
		{
			"mimeType":"image/png",
			"name":"stuff_baseColor",
			"uri":"stuff_baseColor.png"
		},
		{
			"mimeType":"image/png",
			"name":"stuff_emissive",
			"uri":"stuff_emissive.png"
		},
		{
			"mimeType":"image/png",
			"name":"stuff_metallicRoughness",
			"uri":"stuff_metallicRoughness.png"
		},
		{
			"mimeType":"image/png",
			"name":"stuff_normal",
			"uri":"stuff_normal.png"
		},
		{
			"mimeType":"image/png",
			"name":"trimsheet_baseColor",
			"uri":"trimsheet_baseColor.png"
		},
		{
			"mimeType":"image/png",
			"name":"trimsheet_metallicRoughness",
			"uri":"trimsheet_metallicRoughness.png"
		},
		{
			"mimeType":"image/png",
			"name":"trimsheet_normal",
			"uri":"trimsheet_normal.png"
		},
		{
			"mimeType":"image/png",
			"name":"woodplanks_baseColor",
			"uri":"woodplanks_baseColor.png"
		},
		{
			"mimeType":"image/png",
			"name":"woodplanks_metallicRoughness",
			"uri":"woodplanks_metallicRoughness.png"
		},
		{
			"mimeType":"image/png",
			"name":"woodplanks_normal",
			"uri":"woodplanks_normal.png"
		}
	],
	"accessors":[
		{
			"bufferView":0,
			"componentType":5126,
			"count":46,
			"max":[
				2.3641409873962402,
				0.6650189161300659,
				1.9281368255615234
			],
			"min":[
				-0.6761758923530579,
				-0.30537939071655273,
				-2.0571441650390625
			],
			"type":"VEC3"
		},
		{
			"bufferView":1,
			"componentType":5126,
			"count":46,
			"type":"VEC3"
		},
		{
			"bufferView":2,
			"componentType":5126,
			"count":46,
			"type":"VEC2"
		},
		{
			"bufferView":3,
			"componentType":5126,
			"count":46,
			"type":"VEC4"
		},
		{
			"bufferView":4,
			"componentType":5123,
			"count":84,
			"type":"SCALAR"
		}
	],
	"bufferViews":[
		{
			"buffer":0,
			"byteLength":552,
			"byteOffset":0,
			"target":34962
		},
		{
			"buffer":0,
			"byteLength":552,
			"byteOffset":552,
			"target":34962
		},
		{
			"buffer":0,
			"byteLength":368,
			"byteOffset":1104,
			"target":34962
		},
		{
			"buffer":0,
			"byteLength":736,
			"byteOffset":1472,
			"target":34962
		},
		{
			"buffer":0,
			"byteLength":168,
			"byteOffset":2208,
			"target":34963
		}
	],
	"samplers":[
		{
			"magFilter":9728,
			"minFilter":9984
		}
	],
	"buffers":[
		{
			"byteLength":2376,
			"uri":"ship_gangplank_down.bin"
		}
	]
}
