{
	"asset":{
		"generator":"Khronos glTF Blender I/O v4.4.55",
		"version":"2.0"
	},
	"scene":0,
	"scenes":[
		{
			"name":"Scene",
			"nodes":[
				0
			]
		}
	],
	"nodes":[
		{
			"mesh":0,
			"name":"ship_figure_head_01"
		}
	],
	"materials":[
		{
			"name":"ship_figure_head_00",
			"pbrMetallicRoughness":{
				"baseColorTexture":{
					"index":0
				},
				"metallicFactor":0,
				"roughnessFactor":0.5
			}
		}
	],
	"meshes":[
		{
			"name":"ship_figure_head_01",
			"primitives":[
				{
					"attributes":{
						"POSITION":0,
						"NORMAL":1,
						"TEXCOORD_0":2,
						"TANGENT":3
					},
					"indices":4,
					"material":0
				}
			]
		}
	],
	"textures":[
		{
			"sampler":0,
			"source":0
		}
	],
	"images":[
		{
			"mimeType":"image/png",
			"name":"665prow",
			"uri":"665prow.png"
		}
	],
	"accessors":[
		{
			"bufferView":0,
			"componentType":5126,
			"count":3896,
			"max":[
				1.882793664932251,
				9.258089065551758,
				0.3963327705860138
			],
			"min":[
				-1.9363653659820557,
				2.389969825744629,
				-2.974651336669922
			],
			"type":"VEC3"
		},
		{
			"bufferView":1,
			"componentType":5126,
			"count":3896,
			"type":"VEC3"
		},
		{
			"bufferView":2,
			"componentType":5126,
			"count":3896,
			"type":"VEC2"
		},
		{
			"bufferView":3,
			"componentType":5126,
			"count":3896,
			"type":"VEC4"
		},
		{
			"bufferView":4,
			"componentType":5123,
			"count":3960,
			"type":"SCALAR"
		}
	],
	"bufferViews":[
		{
			"buffer":0,
			"byteLength":46752,
			"byteOffset":0,
			"target":34962
		},
		{
			"buffer":0,
			"byteLength":46752,
			"byteOffset":46752,
			"target":34962
		},
		{
			"buffer":0,
			"byteLength":31168,
			"byteOffset":93504,
			"target":34962
		},
		{
			"buffer":0,
			"byteLength":62336,
			"byteOffset":124672,
			"target":34962
		},
		{
			"buffer":0,
			"byteLength":7920,
			"byteOffset":187008,
			"target":34963
		}
	],
	"samplers":[
		{
			"magFilter":9728,
			"minFilter":9984
		}
	],
	"buffers":[
		{
			"byteLength":194928,
			"uri":"ship_figure_head_01.bin"
		}
	]
}
