{
	"asset":{
		"generator":"Khronos glTF Blender I/O v4.4.55",
		"version":"2.0"
	},
	"scene":0,
	"scenes":[
		{
			"name":"Scene",
			"nodes":[
				0
			]
		}
	],
	"nodes":[
		{
			"mesh":0,
			"name":"ship_figure_head_03"
		}
	],
	"materials":[
		{
			"name":"ship_figure_head_00",
			"pbrMetallicRoughness":{
				"baseColorTexture":{
					"index":0
				},
				"metallicFactor":0,
				"roughnessFactor":0.5
			}
		}
	],
	"meshes":[
		{
			"name":"ship_figure_head_03",
			"primitives":[
				{
					"attributes":{
						"POSITION":0,
						"NORMAL":1,
						"TEXCOORD_0":2,
						"TANGENT":3
					},
					"indices":4,
					"material":0
				}
			]
		}
	],
	"textures":[
		{
			"sampler":0,
			"source":0
		}
	],
	"images":[
		{
			"mimeType":"image/png",
			"name":"665prow",
			"uri":"665prow.png"
		}
	],
	"accessors":[
		{
			"bufferView":0,
			"componentType":5126,
			"count":3125,
			"max":[
				0.5385184288024902,
				9.141977310180664,
				0.16673408448696136
			],
			"min":[
				-0.5385184288024902,
				3.448129653930664,
				-2.3551602363586426
			],
			"type":"VEC3"
		},
		{
			"bufferView":1,
			"componentType":5126,
			"count":3125,
			"type":"VEC3"
		},
		{
			"bufferView":2,
			"componentType":5126,
			"count":3125,
			"type":"VEC2"
		},
		{
			"bufferView":3,
			"componentType":5126,
			"count":3125,
			"type":"VEC4"
		},
		{
			"bufferView":4,
			"componentType":5123,
			"count":4491,
			"type":"SCALAR"
		}
	],
	"bufferViews":[
		{
			"buffer":0,
			"byteLength":37500,
			"byteOffset":0,
			"target":34962
		},
		{
			"buffer":0,
			"byteLength":37500,
			"byteOffset":37500,
			"target":34962
		},
		{
			"buffer":0,
			"byteLength":25000,
			"byteOffset":75000,
			"target":34962
		},
		{
			"buffer":0,
			"byteLength":50000,
			"byteOffset":100000,
			"target":34962
		},
		{
			"buffer":0,
			"byteLength":8982,
			"byteOffset":150000,
			"target":34963
		}
	],
	"samplers":[
		{
			"magFilter":9728,
			"minFilter":9984
		}
	],
	"buffers":[
		{
			"byteLength":158984,
			"uri":"ship_figure_head_03.bin"
		}
	]
}
