{
	"asset":{
		"generator":"Khronos glTF Blender I/O v4.4.55",
		"version":"2.0"
	},
	"scene":0,
	"scenes":[
		{
			"name":"Scene",
			"nodes":[
				0
			]
		}
	],
	"nodes":[
		{
			"mesh":0,
			"name":"Ship"
		}
	],
	"materials":[
		{
			"doubleSided":true,
			"name":"Deck",
			"pbrMetallicRoughness":{
				"baseColorTexture":{
					"index":0
				},
				"metallicFactor":0,
				"roughnessFactor":0.5
			}
		},
		{
			"doubleSided":true,
			"name":"1017ship",
			"pbrMetallicRoughness":{
				"baseColorTexture":{
					"index":1
				},
				"metallicFactor":0.3181818425655365,
				"roughnessFactor":0.5
			}
		},
		{
			"doubleSided":true,
			"name":"775rails",
			"pbrMetallicRoughness":{
				"baseColorTexture":{
					"index":2
				},
				"metallicFactor":0,
				"roughnessFactor":0.5
			}
		}
	],
	"meshes":[
		{
			"name":"Ship",
			"primitives":[
				{
					"attributes":{
						"POSITION":0,
						"NORMAL":1,
						"TEXCOORD_0":2
					},
					"indices":3,
					"material":0
				},
				{
					"attributes":{
						"POSITION":4,
						"NORMAL":5,
						"TEXCOORD_0":6
					},
					"indices":7,
					"material":1
				},
				{
					"attributes":{
						"POSITION":8,
						"NORMAL":9,
						"TEXCOORD_0":10
					},
					"indices":11,
					"material":2
				}
			]
		}
	],
	"textures":[
		{
			"sampler":0,
			"source":0
		},
		{
			"sampler":0,
			"source":1
		},
		{
			"sampler":0,
			"source":2
		}
	],
	"images":[
		{
			"mimeType":"image/png",
			"name":"700deck",
			"uri":"700deck.png"
		},
		{
			"mimeType":"image/png",
			"name":"1017ship",
			"uri":"1017ship.png"
		},
		{
			"mimeType":"image/png",
			"name":"775ship_rails",
			"uri":"775ship_rails.png"
		}
	],
	"accessors":[
		{
			"bufferView":0,
			"componentType":5126,
			"count":206,
			"max":[
				1.940576434135437,
				8.002098083496094,
				10
			],
			"min":[
				-2.0594234466552734,
				0,
				-10
			],
			"type":"VEC3"
		},
		{
			"bufferView":1,
			"componentType":5126,
			"count":206,
			"type":"VEC3"
		},
		{
			"bufferView":2,
			"componentType":5126,
			"count":206,
			"type":"VEC2"
		},
		{
			"bufferView":3,
			"componentType":5123,
			"count":564,
			"type":"SCALAR"
		},
		{
			"bufferView":4,
			"componentType":5126,
			"count":212,
			"max":[
				2.940577507019043,
				3.0045979022979736,
				11
			],
			"min":[
				-3.0595040321350098,
				-7.450580596923828e-09,
				-11
			],
			"type":"VEC3"
		},
		{
			"bufferView":5,
			"componentType":5126,
			"count":212,
			"type":"VEC3"
		},
		{
			"bufferView":6,
			"componentType":5126,
			"count":212,
			"type":"VEC2"
		},
		{
			"bufferView":7,
			"componentType":5123,
			"count":396,
			"type":"SCALAR"
		},
		{
			"bufferView":8,
			"componentType":5126,
			"count":339,
			"max":[
				2.940577507019043,
				8.002098083496094,
				10
			],
			"min":[
				-3.059506416320801,
				-7.450580596923828e-09,
				-10
			],
			"type":"VEC3"
		},
		{
			"bufferView":9,
			"componentType":5126,
			"count":339,
			"type":"VEC3"
		},
		{
			"bufferView":10,
			"componentType":5126,
			"count":339,
			"type":"VEC2"
		},
		{
			"bufferView":11,
			"componentType":5123,
			"count":780,
			"type":"SCALAR"
		}
	],
	"bufferViews":[
		{
			"buffer":0,
			"byteLength":2472,
			"byteOffset":0,
			"target":34962
		},
		{
			"buffer":0,
			"byteLength":2472,
			"byteOffset":2472,
			"target":34962
		},
		{
			"buffer":0,
			"byteLength":1648,
			"byteOffset":4944,
			"target":34962
		},
		{
			"buffer":0,
			"byteLength":1128,
			"byteOffset":6592,
			"target":34963
		},
		{
			"buffer":0,
			"byteLength":2544,
			"byteOffset":7720,
			"target":34962
		},
		{
			"buffer":0,
			"byteLength":2544,
			"byteOffset":10264,
			"target":34962
		},
		{
			"buffer":0,
			"byteLength":1696,
			"byteOffset":12808,
			"target":34962
		},
		{
			"buffer":0,
			"byteLength":792,
			"byteOffset":14504,
			"target":34963
		},
		{
			"buffer":0,
			"byteLength":4068,
			"byteOffset":15296,
			"target":34962
		},
		{
			"buffer":0,
			"byteLength":4068,
			"byteOffset":19364,
			"target":34962
		},
		{
			"buffer":0,
			"byteLength":2712,
			"byteOffset":23432,
			"target":34962
		},
		{
			"buffer":0,
			"byteLength":1560,
			"byteOffset":26144,
			"target":34963
		}
	],
	"samplers":[
		{
			"magFilter":9728,
			"minFilter":9984
		}
	],
	"buffers":[
		{
			"byteLength":27704,
			"uri":"ship.bin"
		}
	]
}
