{
	"asset":{
		"generator":"Khronos glTF Blender I/O v4.4.55",
		"version":"2.0"
	},
	"scene":0,
	"scenes":[
		{
			"name":"Scene",
			"nodes":[
				0
			]
		}
	],
	"nodes":[
		{
			"mesh":0,
			"name":"sign_360x04"
		}
	],
	"materials":[
		{
			"doubleSided":true,
			"name":"InnSign",
			"pbrMetallicRoughness":{
				"baseColorTexture":{
					"index":0
				},
				"metallicFactor":0,
				"roughnessFactor":0.5
			}
		},
		{
			"doubleSided":true,
			"name":"Material",
			"pbrMetallicRoughness":{
				"baseColorTexture":{
					"index":1
				},
				"metallicFactor":0,
				"roughnessFactor":0.5
			}
		}
	],
	"meshes":[
		{
			"name":"ShipwrightSign.011",
			"primitives":[
				{
					"attributes":{
						"POSITION":0,
						"NORMAL":1,
						"TEXCOORD_0":2
					},
					"indices":3,
					"material":0
				},
				{
					"attributes":{
						"POSITION":4,
						"NORMAL":5,
						"TEXCOORD_0":6
					},
					"indices":7,
					"material":1
				}
			]
		}
	],
	"textures":[
		{
			"sampler":0,
			"source":0
		},
		{
			"sampler":0,
			"source":1
		}
	],
	"images":[
		{
			"mimeType":"image/png",
			"name":"InnSign",
			"uri":"InnSign.png"
		},
		{
			"mimeType":"image/png",
			"name":"360sign",
			"uri":"360sign.png"
		},
		{
			"mimeType":"image/png",
			"name":"0292-19-throne",
			"uri":"0292-19-throne.png"
		},
		{
			"mimeType":"image/png",
			"name":"1000table",
			"uri":"1000table.png"
		},
		{
			"mimeType":"image/png",
			"name":"1001table",
			"uri":"1001table.png"
		},
		{
			"mimeType":"image/png",
			"name":"1002table",
			"uri":"1002table.png"
		},
		{
			"mimeType":"image/png",
			"name":"1003table",
			"uri":"1003table.png"
		},
		{
			"mimeType":"image/png",
			"name":"258keg",
			"uri":"258keg.png"
		},
		{
			"mimeType":"image/png",
			"name":"292seat",
			"uri":"292seat.png"
		},
		{
			"mimeType":"image/png",
			"name":"333table",
			"uri":"333table.png"
		},
		{
			"mimeType":"image/png",
			"name":"336light_source",
			"uri":"336light_source.png"
		},
		{
			"mimeType":"image/png",
			"name":"434cask",
			"uri":"434cask.png"
		},
		{
			"mimeType":"image/png",
			"name":"633table",
			"uri":"633table.png"
		},
		{
			"mimeType":"image/png",
			"name":"664stove",
			"uri":"664stove.png"
		},
		{
			"mimeType":"image/png",
			"name":"873chair",
			"uri":"873chair.png"
		},
		{
			"mimeType":"image/png",
			"name":"890table",
			"uri":"890table.png"
		},
		{
			"mimeType":"image/png",
			"name":"897seat",
			"uri":"897seat.png"
		},
		{
			"mimeType":"image/png",
			"name":"964table",
			"uri":"964table.png"
		},
		{
			"mimeType":"image/png",
			"name":"ApothecarySign",
			"uri":"ApothecarySign.png"
		},
		{
			"mimeType":"image/png",
			"name":"Arms.Combined.00",
			"uri":"Arms_Combined_00.png"
		},
		{
			"mimeType":"image/png",
			"name":"bag_802_texture",
			"uri":"bag_802_texture.png"
		},
		{
			"mimeType":"image/png",
			"name":"BakerySign",
			"uri":"BakerySign.png"
		},
		{
			"mimeType":"image/png",
			"name":"Body.Combined.00",
			"uri":"Body_Combined_00.png"
		},
		{
			"mimeType":"image/png",
			"name":"bottle",
			"uri":"bottle.png"
		},
		{
			"mimeType":"image/png",
			"name":"chest_800_texture_atlas",
			"uri":"chest_800_texture_atlas.png"
		},
		{
			"mimeType":"image/png",
			"name":"FellowSymbol",
			"uri":"FellowSymbol.png"
		},
		{
			"mimeType":"image/png",
			"name":"Head.Combined.00",
			"uri":"Head_Combined_00.png"
		},
		{
			"mimeType":"image/png",
			"name":"HorseSign",
			"uri":"HorseSign.png"
		},
		{
			"mimeType":"image/png",
			"name":"KeySign",
			"uri":"KeySign.png"
		},
		{
			"mimeType":"image/png",
			"name":"lighter-flame-element-realistic-burning-fire-image",
			"uri":"lighter-flame-element-realistic-burning-fire-image.png"
		},
		{
			"mimeType":"image/png",
			"name":"pew_texture_atlas",
			"uri":"pew_texture_atlas.png"
		},
		{
			"mimeType":"image/png",
			"name":"scroll_797_texture_atlas",
			"uri":"scroll_797_texture_atlas.png"
		},
		{
			"mimeType":"image/png",
			"name":"SewerSign",
			"uri":"SewerSign.png"
		},
		{
			"mimeType":"image/png",
			"name":"ShipwrightSign",
			"uri":"ShipwrightSign.png"
		},
		{
			"mimeType":"image/png",
			"name":"SwordSign",
			"uri":"SwordSign.png"
		},
		{
			"mimeType":"image/png",
			"name":"TavernSign",
			"uri":"TavernSign.png"
		},
		{
			"mimeType":"image/png",
			"name":"texture_anvil",
			"uri":"texture_anvil.png"
		},
		{
			"mimeType":"image/png",
			"name":"title",
			"uri":"title.png"
		}
	],
	"accessors":[
		{
			"bufferView":0,
			"componentType":5126,
			"count":160,
			"max":[
				0.9778224229812622,
				-0.0036759679205715656,
				0.05518749728798866
			],
			"min":[
				-0.0002728148829191923,
				-1.125229001045227,
				-0.040582332760095596
			],
			"type":"VEC3"
		},
		{
			"bufferView":1,
			"componentType":5126,
			"count":160,
			"type":"VEC3"
		},
		{
			"bufferView":2,
			"componentType":5126,
			"count":160,
			"type":"VEC2"
		},
		{
			"bufferView":3,
			"componentType":5123,
			"count":342,
			"type":"SCALAR"
		},
		{
			"bufferView":4,
			"componentType":5126,
			"count":288,
			"max":[
				0.9396944046020508,
				-0.04420273005962372,
				0.034188974648714066
			],
			"min":[
				0.03815142437815666,
				-1.0861316919326782,
				0.03418891504406929
			],
			"type":"VEC3"
		},
		{
			"bufferView":5,
			"componentType":5126,
			"count":288,
			"type":"VEC3"
		},
		{
			"bufferView":6,
			"componentType":5126,
			"count":288,
			"type":"VEC2"
		},
		{
			"bufferView":7,
			"componentType":5123,
			"count":792,
			"type":"SCALAR"
		}
	],
	"bufferViews":[
		{
			"buffer":0,
			"byteLength":1920,
			"byteOffset":0,
			"target":34962
		},
		{
			"buffer":0,
			"byteLength":1920,
			"byteOffset":1920,
			"target":34962
		},
		{
			"buffer":0,
			"byteLength":1280,
			"byteOffset":3840,
			"target":34962
		},
		{
			"buffer":0,
			"byteLength":684,
			"byteOffset":5120,
			"target":34963
		},
		{
			"buffer":0,
			"byteLength":3456,
			"byteOffset":5804,
			"target":34962
		},
		{
			"buffer":0,
			"byteLength":3456,
			"byteOffset":9260,
			"target":34962
		},
		{
			"buffer":0,
			"byteLength":2304,
			"byteOffset":12716,
			"target":34962
		},
		{
			"buffer":0,
			"byteLength":1584,
			"byteOffset":15020,
			"target":34963
		}
	],
	"samplers":[
		{
			"magFilter":9728,
			"minFilter":9984
		}
	],
	"buffers":[
		{
			"byteLength":16604,
			"uri":"sign_360x04.bin"
		}
	]
}
