{
	"asset":{
		"generator":"Khronos glTF Blender I/O v5.1.18",
		"version":"2.0"
	},
	"scene":0,
	"scenes":[
		{
			"name":"Scene",
			"nodes":[
				0
			]
		}
	],
	"nodes":[
		{
			"mesh":0,
			"name":"sign_360x05"
		}
	],
	"materials":[
		{
			"alphaMode":"BLEND",
			"doubleSided":true,
			"name":"Scissors",
			"pbrMetallicRoughness":{
				"baseColorTexture":{
					"index":0
				},
				"metallicFactor":0,
				"roughnessFactor":0.5
			}
		}
	],
	"meshes":[
		{
			"name":"SewerSign",
			"primitives":[
				{
					"attributes":{
						"POSITION":0,
						"NORMAL":1,
						"TEXCOORD_0":2
					},
					"indices":3,
					"material":0
				}
			]
		}
	],
	"textures":[
		{
			"sampler":0,
			"source":0
		}
	],
	"images":[
		{
			"mimeType":"image/png",
			"name":"360_sewerSign",
			"uri":"360_sewerSign.png"
		}
	],
	"accessors":[
		{
			"bufferView":0,
			"componentType":5126,
			"count":1396,
			"max":[
				2.937260627746582,
				-0.003308976534754038,
				0.22519558668136597
			],
			"min":[
				0.004971635527908802,
				-1.7433784008026123,
				-0.26351919770240784
			],
			"type":"VEC3"
		},
		{
			"bufferView":1,
			"componentType":5126,
			"count":1396,
			"type":"VEC3"
		},
		{
			"bufferView":2,
			"componentType":5126,
			"count":1396,
			"type":"VEC2"
		},
		{
			"bufferView":3,
			"componentType":5123,
			"count":2814,
			"type":"SCALAR"
		}
	],
	"bufferViews":[
		{
			"buffer":0,
			"byteLength":16752,
			"byteOffset":0,
			"target":34962
		},
		{
			"buffer":0,
			"byteLength":16752,
			"byteOffset":16752,
			"target":34962
		},
		{
			"buffer":0,
			"byteLength":11168,
			"byteOffset":33504,
			"target":34962
		},
		{
			"buffer":0,
			"byteLength":5628,
			"byteOffset":44672,
			"target":34963
		}
	],
	"samplers":[
		{
			"magFilter":9729,
			"minFilter":9987
		}
	],
	"buffers":[
		{
			"byteLength":50300,
			"uri":"sign_360x05.bin"
		}
	]
}
