{
	"asset":{
		"generator":"Khronos glTF Blender I/O v4.4.55",
		"version":"2.0"
	},
	"scene":0,
	"scenes":[
		{
			"name":"Scene",
			"nodes":[
				0
			]
		}
	],
	"nodes":[
		{
			"mesh":0,
			"name":"sign_360x06"
		}
	],
	"materials":[
		{
			"doubleSided":true,
			"name":"Material.068",
			"pbrMetallicRoughness":{
				"baseColorTexture":{
					"index":0
				},
				"metallicFactor":0,
				"roughnessFactor":0.5
			}
		}
	],
	"meshes":[
		{
			"name":"SewerSign.001",
			"primitives":[
				{
					"attributes":{
						"POSITION":0,
						"NORMAL":1,
						"TEXCOORD_0":2
					},
					"indices":3,
					"material":0
				}
			]
		}
	],
	"textures":[
		{
			"sampler":0,
			"source":0
		}
	],
	"images":[
		{
			"mimeType":"image/png",
			"name":"SwordSign",
			"uri":"SwordSign.png"
		},
		{
			"mimeType":"image/png",
			"name":"0292-19-throne",
			"uri":"0292-19-throne.png"
		},
		{
			"mimeType":"image/png",
			"name":"1000table",
			"uri":"1000table.png"
		},
		{
			"mimeType":"image/png",
			"name":"1001table",
			"uri":"1001table.png"
		},
		{
			"mimeType":"image/png",
			"name":"1002table",
			"uri":"1002table.png"
		},
		{
			"mimeType":"image/png",
			"name":"1003table",
			"uri":"1003table.png"
		},
		{
			"mimeType":"image/png",
			"name":"258keg",
			"uri":"258keg.png"
		},
		{
			"mimeType":"image/png",
			"name":"292seat",
			"uri":"292seat.png"
		},
		{
			"mimeType":"image/png",
			"name":"333table",
			"uri":"333table.png"
		},
		{
			"mimeType":"image/png",
			"name":"336light_source",
			"uri":"336light_source.png"
		},
		{
			"mimeType":"image/png",
			"name":"360sign",
			"uri":"360sign.png"
		},
		{
			"mimeType":"image/png",
			"name":"434cask",
			"uri":"434cask.png"
		},
		{
			"mimeType":"image/png",
			"name":"633table",
			"uri":"633table.png"
		},
		{
			"mimeType":"image/png",
			"name":"664stove",
			"uri":"664stove.png"
		},
		{
			"mimeType":"image/png",
			"name":"873chair",
			"uri":"873chair.png"
		},
		{
			"mimeType":"image/png",
			"name":"890table",
			"uri":"890table.png"
		},
		{
			"mimeType":"image/png",
			"name":"897seat",
			"uri":"897seat.png"
		},
		{
			"mimeType":"image/png",
			"name":"964table",
			"uri":"964table.png"
		},
		{
			"mimeType":"image/png",
			"name":"ApothecarySign",
			"uri":"ApothecarySign.png"
		},
		{
			"mimeType":"image/png",
			"name":"Arms.Combined.00",
			"uri":"Arms_Combined_00.png"
		},
		{
			"mimeType":"image/png",
			"name":"bag_802_texture",
			"uri":"bag_802_texture.png"
		},
		{
			"mimeType":"image/png",
			"name":"BakerySign",
			"uri":"BakerySign.png"
		},
		{
			"mimeType":"image/png",
			"name":"Body.Combined.00",
			"uri":"Body_Combined_00.png"
		},
		{
			"mimeType":"image/png",
			"name":"bottle",
			"uri":"bottle.png"
		},
		{
			"mimeType":"image/png",
			"name":"chest_800_texture_atlas",
			"uri":"chest_800_texture_atlas.png"
		},
		{
			"mimeType":"image/png",
			"name":"FellowSymbol",
			"uri":"FellowSymbol.png"
		},
		{
			"mimeType":"image/png",
			"name":"Head.Combined.00",
			"uri":"Head_Combined_00.png"
		},
		{
			"mimeType":"image/png",
			"name":"HorseSign",
			"uri":"HorseSign.png"
		},
		{
			"mimeType":"image/png",
			"name":"InnSign",
			"uri":"InnSign.png"
		},
		{
			"mimeType":"image/png",
			"name":"KeySign",
			"uri":"KeySign.png"
		},
		{
			"mimeType":"image/png",
			"name":"lighter-flame-element-realistic-burning-fire-image",
			"uri":"lighter-flame-element-realistic-burning-fire-image.png"
		},
		{
			"mimeType":"image/png",
			"name":"pew_texture_atlas",
			"uri":"pew_texture_atlas.png"
		},
		{
			"mimeType":"image/png",
			"name":"scroll_797_texture_atlas",
			"uri":"scroll_797_texture_atlas.png"
		},
		{
			"mimeType":"image/png",
			"name":"SewerSign",
			"uri":"SewerSign.png"
		},
		{
			"mimeType":"image/png",
			"name":"ShipwrightSign",
			"uri":"ShipwrightSign.png"
		},
		{
			"mimeType":"image/png",
			"name":"TavernSign",
			"uri":"TavernSign.png"
		},
		{
			"mimeType":"image/png",
			"name":"texture_anvil",
			"uri":"texture_anvil.png"
		},
		{
			"mimeType":"image/png",
			"name":"title",
			"uri":"title.png"
		}
	],
	"accessors":[
		{
			"bufferView":0,
			"componentType":5126,
			"count":1457,
			"max":[
				3.5623042583465576,
				0.0006438521086238325,
				0.1479102522134781
			],
			"min":[
				-0.0029878534842282534,
				-1.653523564338684,
				-0.16900454461574554
			],
			"type":"VEC3"
		},
		{
			"bufferView":1,
			"componentType":5126,
			"count":1457,
			"type":"VEC3"
		},
		{
			"bufferView":2,
			"componentType":5126,
			"count":1457,
			"type":"VEC2"
		},
		{
			"bufferView":3,
			"componentType":5123,
			"count":2850,
			"type":"SCALAR"
		}
	],
	"bufferViews":[
		{
			"buffer":0,
			"byteLength":17484,
			"byteOffset":0,
			"target":34962
		},
		{
			"buffer":0,
			"byteLength":17484,
			"byteOffset":17484,
			"target":34962
		},
		{
			"buffer":0,
			"byteLength":11656,
			"byteOffset":34968,
			"target":34962
		},
		{
			"buffer":0,
			"byteLength":5700,
			"byteOffset":46624,
			"target":34963
		}
	],
	"samplers":[
		{
			"magFilter":9728,
			"minFilter":9984
		}
	],
	"buffers":[
		{
			"byteLength":52324,
			"uri":"sign_360x06.bin"
		}
	]
}
