{
	"asset":{
		"generator":"Khronos glTF Blender I/O v5.1.18",
		"version":"2.0"
	},
	"scene":0,
	"scenes":[
		{
			"name":"Scene",
			"nodes":[
				0
			]
		}
	],
	"nodes":[
		{
			"mesh":0,
			"name":"sign_360x03"
		}
	],
	"materials":[
		{
			"doubleSided":true,
			"name":"Material",
			"pbrMetallicRoughness":{
				"baseColorTexture":{
					"index":0
				},
				"metallicFactor":0,
				"roughnessFactor":0.5
			}
		}
	],
	"meshes":[
		{
			"name":"ShipwrightSign.005",
			"primitives":[
				{
					"attributes":{
						"POSITION":0,
						"NORMAL":1,
						"TEXCOORD_0":2
					},
					"indices":3,
					"material":0
				}
			]
		}
	],
	"textures":[
		{
			"sampler":0,
			"source":0
		}
	],
	"images":[
		{
			"mimeType":"image/png",
			"name":"360sign",
			"uri":"360sign.png"
		}
	],
	"accessors":[
		{
			"bufferView":0,
			"componentType":5126,
			"count":398,
			"max":[
				1.0997506380081177,
				-0.00579274445772171,
				0.060990110039711
			],
			"min":[
				0.00286656292155385,
				-1.0985373258590698,
				-0.046223774552345276
			],
			"type":"VEC3"
		},
		{
			"bufferView":1,
			"componentType":5126,
			"count":398,
			"type":"VEC3"
		},
		{
			"bufferView":2,
			"componentType":5126,
			"count":398,
			"type":"VEC2"
		},
		{
			"bufferView":3,
			"componentType":5123,
			"count":1002,
			"type":"SCALAR"
		}
	],
	"bufferViews":[
		{
			"buffer":0,
			"byteLength":4776,
			"byteOffset":0,
			"target":34962
		},
		{
			"buffer":0,
			"byteLength":4776,
			"byteOffset":4776,
			"target":34962
		},
		{
			"buffer":0,
			"byteLength":3184,
			"byteOffset":9552,
			"target":34962
		},
		{
			"buffer":0,
			"byteLength":2004,
			"byteOffset":12736,
			"target":34963
		}
	],
	"samplers":[
		{
			"magFilter":9728,
			"minFilter":9984
		}
	],
	"buffers":[
		{
			"byteLength":14740,
			"uri":"sign_360x03.bin"
		}
	]
}
