{
	"asset":{
		"generator":"Khronos glTF Blender I/O v5.1.18",
		"version":"2.0"
	},
	"scene":0,
	"scenes":[
		{
			"name":"Scene",
			"nodes":[
				0
			]
		}
	],
	"nodes":[
		{
			"mesh":0,
			"name":"sign_360x07"
		}
	],
	"materials":[
		{
			"doubleSided":true,
			"name":"Material.070",
			"pbrMetallicRoughness":{
				"baseColorTexture":{
					"index":0
				},
				"metallicFactor":0,
				"roughnessFactor":0.5
			}
		}
	],
	"meshes":[
		{
			"name":"ShipwrightSign.001",
			"primitives":[
				{
					"attributes":{
						"POSITION":0,
						"NORMAL":1,
						"TEXCOORD_0":2
					},
					"indices":3,
					"material":0
				}
			]
		}
	],
	"textures":[
		{
			"sampler":0,
			"source":0
		}
	],
	"images":[
		{
			"mimeType":"image/png",
			"name":"360_horseSign",
			"uri":"360_horseSign.png"
		}
	],
	"accessors":[
		{
			"bufferView":0,
			"componentType":5126,
			"count":1506,
			"max":[
				2.9705426692962646,
				-0.0010477948235347867,
				0.05966230481863022
			],
			"min":[
				-0.004117859993129969,
				-2.6963281631469727,
				-0.05388506501913071
			],
			"type":"VEC3"
		},
		{
			"bufferView":1,
			"componentType":5126,
			"count":1506,
			"type":"VEC3"
		},
		{
			"bufferView":2,
			"componentType":5126,
			"count":1506,
			"type":"VEC2"
		},
		{
			"bufferView":3,
			"componentType":5123,
			"count":3024,
			"type":"SCALAR"
		}
	],
	"bufferViews":[
		{
			"buffer":0,
			"byteLength":18072,
			"byteOffset":0,
			"target":34962
		},
		{
			"buffer":0,
			"byteLength":18072,
			"byteOffset":18072,
			"target":34962
		},
		{
			"buffer":0,
			"byteLength":12048,
			"byteOffset":36144,
			"target":34962
		},
		{
			"buffer":0,
			"byteLength":6048,
			"byteOffset":48192,
			"target":34963
		}
	],
	"samplers":[
		{
			"magFilter":9728,
			"minFilter":9984
		}
	],
	"buffers":[
		{
			"byteLength":54240,
			"uri":"sign_360x07.bin"
		}
	]
}
