{
	"asset":{
		"generator":"Khronos glTF Blender I/O v5.1.18",
		"version":"2.0"
	},
	"scene":0,
	"scenes":[
		{
			"name":"Scene",
			"nodes":[
				0
			]
		}
	],
	"nodes":[
		{
			"mesh":0,
			"name":"sign_360x06"
		}
	],
	"materials":[
		{
			"doubleSided":true,
			"name":"Material.068",
			"pbrMetallicRoughness":{
				"baseColorTexture":{
					"index":0
				},
				"metallicFactor":0,
				"roughnessFactor":0.5
			}
		}
	],
	"meshes":[
		{
			"name":"SewerSign.001",
			"primitives":[
				{
					"attributes":{
						"POSITION":0,
						"NORMAL":1,
						"TEXCOORD_0":2
					},
					"indices":3,
					"material":0
				}
			]
		}
	],
	"textures":[
		{
			"sampler":0,
			"source":0
		}
	],
	"images":[
		{
			"mimeType":"image/png",
			"name":"360_swordSign",
			"uri":"360_swordSign.png"
		}
	],
	"accessors":[
		{
			"bufferView":0,
			"componentType":5126,
			"count":1457,
			"max":[
				3.5623042583465576,
				0.0006438521086238325,
				0.1479102522134781
			],
			"min":[
				-0.0029878534842282534,
				-1.653523564338684,
				-0.16900454461574554
			],
			"type":"VEC3"
		},
		{
			"bufferView":1,
			"componentType":5126,
			"count":1457,
			"type":"VEC3"
		},
		{
			"bufferView":2,
			"componentType":5126,
			"count":1457,
			"type":"VEC2"
		},
		{
			"bufferView":3,
			"componentType":5123,
			"count":2850,
			"type":"SCALAR"
		}
	],
	"bufferViews":[
		{
			"buffer":0,
			"byteLength":17484,
			"byteOffset":0,
			"target":34962
		},
		{
			"buffer":0,
			"byteLength":17484,
			"byteOffset":17484,
			"target":34962
		},
		{
			"buffer":0,
			"byteLength":11656,
			"byteOffset":34968,
			"target":34962
		},
		{
			"buffer":0,
			"byteLength":5700,
			"byteOffset":46624,
			"target":34963
		}
	],
	"samplers":[
		{
			"magFilter":9728,
			"minFilter":9984
		}
	],
	"buffers":[
		{
			"byteLength":52324,
			"uri":"sign_360x06.bin"
		}
	]
}
