{
	"asset":{
		"generator":"Khronos glTF Blender I/O v4.4.55",
		"version":"2.0"
	},
	"scene":0,
	"scenes":[
		{
			"name":"Scene",
			"nodes":[
				0
			]
		}
	],
	"nodes":[
		{
			"mesh":0,
			"name":"small_rock_203x08"
		}
	],
	"materials":[
		{
			"doubleSided":true,
			"name":"smallrock",
			"pbrMetallicRoughness":{
				"baseColorTexture":{
					"index":0
				},
				"metallicFactor":0,
				"roughnessFactor":0.5
			}
		}
	],
	"meshes":[
		{
			"name":"Plane.063",
			"primitives":[
				{
					"attributes":{
						"POSITION":0,
						"TEXCOORD_0":1
					},
					"indices":2,
					"material":0
				}
			]
		}
	],
	"textures":[
		{
			"sampler":0,
			"source":0
		}
	],
	"images":[
		{
			"mimeType":"image/png",
			"name":"203small_rock",
			"uri":"203small_rock.png"
		}
	],
	"accessors":[
		{
			"bufferView":0,
			"componentType":5126,
			"count":166,
			"max":[
				0.8733935356140137,
				0.17670708894729614,
				0.6642290949821472
			],
			"min":[
				0.007609456777572632,
				0,
				0.01861274242401123
			],
			"type":"VEC3"
		},
		{
			"bufferView":1,
			"componentType":5126,
			"count":166,
			"type":"VEC2"
		},
		{
			"bufferView":2,
			"componentType":5123,
			"count":984,
			"type":"SCALAR"
		}
	],
	"bufferViews":[
		{
			"buffer":0,
			"byteLength":1992,
			"byteOffset":0,
			"target":34962
		},
		{
			"buffer":0,
			"byteLength":1328,
			"byteOffset":1992,
			"target":34962
		},
		{
			"buffer":0,
			"byteLength":1968,
			"byteOffset":3320,
			"target":34963
		}
	],
	"samplers":[
		{
			"magFilter":9728,
			"minFilter":9984
		}
	],
	"buffers":[
		{
			"byteLength":5288,
			"uri":"small_rock_203x08.bin"
		}
	]
}
