{
	"asset":{
		"generator":"Khronos glTF Blender I/O v4.4.55",
		"version":"2.0"
	},
	"scene":0,
	"scenes":[
		{
			"name":"Scene",
			"nodes":[
				0
			]
		}
	],
	"nodes":[
		{
			"mesh":0,
			"name":"small_rock_203x02",
			"scale":[
				0.6600404381752014,
				0.6600404381752014,
				0.6600404381752014
			]
		}
	],
	"materials":[
		{
			"doubleSided":true,
			"name":"smallrock",
			"pbrMetallicRoughness":{
				"baseColorTexture":{
					"index":0
				},
				"metallicFactor":0,
				"roughnessFactor":0.5
			}
		}
	],
	"meshes":[
		{
			"name":"Plane.057",
			"primitives":[
				{
					"attributes":{
						"POSITION":0,
						"TEXCOORD_0":1
					},
					"indices":2,
					"material":0
				}
			]
		}
	],
	"textures":[
		{
			"sampler":0,
			"source":0
		}
	],
	"images":[
		{
			"mimeType":"image/png",
			"name":"203small_rock",
			"uri":"203small_rock.png"
		}
	],
	"accessors":[
		{
			"bufferView":0,
			"componentType":5126,
			"count":110,
			"max":[
				0.9854956865310669,
				0.4776707887649536,
				0.8373606204986572
			],
			"min":[
				-0.0007181167602539062,
				2.1546903150593266e-10,
				0.014314651489257812
			],
			"type":"VEC3"
		},
		{
			"bufferView":1,
			"componentType":5126,
			"count":110,
			"type":"VEC2"
		},
		{
			"bufferView":2,
			"componentType":5123,
			"count":648,
			"type":"SCALAR"
		}
	],
	"bufferViews":[
		{
			"buffer":0,
			"byteLength":1320,
			"byteOffset":0,
			"target":34962
		},
		{
			"buffer":0,
			"byteLength":880,
			"byteOffset":1320,
			"target":34962
		},
		{
			"buffer":0,
			"byteLength":1296,
			"byteOffset":2200,
			"target":34963
		}
	],
	"samplers":[
		{
			"magFilter":9728,
			"minFilter":9984
		}
	],
	"buffers":[
		{
			"byteLength":3496,
			"uri":"small_rock_203x02.bin"
		}
	]
}
