{
	"asset":{
		"generator":"Khronos glTF Blender I/O v5.1.18",
		"version":"2.0"
	},
	"scene":0,
	"scenes":[
		{
			"name":"Scene",
			"nodes":[
				0
			]
		}
	],
	"nodes":[
		{
			"mesh":0,
			"name":"soulcage_747x1.001"
		}
	],
	"materials":[
		{
			"doubleSided":true,
			"name":"Material.003",
			"pbrMetallicRoughness":{
				"baseColorTexture":{
					"index":0
				},
				"metallicFactor":0,
				"roughnessFactor":0.5
			}
		}
	],
	"meshes":[
		{
			"name":"Plane.004",
			"primitives":[
				{
					"attributes":{
						"POSITION":0,
						"NORMAL":1,
						"TEXCOORD_0":2
					},
					"indices":3,
					"material":0
				}
			]
		}
	],
	"textures":[
		{
			"sampler":0,
			"source":0
		}
	],
	"images":[
		{
			"mimeType":"image/png",
			"name":"soulcage_747x1",
			"uri":"soulcage_747x1.png"
		}
	],
	"accessors":[
		{
			"bufferView":0,
			"componentType":5126,
			"count":886,
			"max":[
				1.3042019605636597,
				1.6278306245803833,
				2.8883583545684814
			],
			"min":[
				-1.3042019605636597,
				-0.01041954755783081,
				-2.667933464050293
			],
			"type":"VEC3"
		},
		{
			"bufferView":1,
			"componentType":5126,
			"count":886,
			"type":"VEC3"
		},
		{
			"bufferView":2,
			"componentType":5126,
			"count":886,
			"type":"VEC2"
		},
		{
			"bufferView":3,
			"componentType":5123,
			"count":1344,
			"type":"SCALAR"
		}
	],
	"bufferViews":[
		{
			"buffer":0,
			"byteLength":10632,
			"byteOffset":0,
			"target":34962
		},
		{
			"buffer":0,
			"byteLength":10632,
			"byteOffset":10632,
			"target":34962
		},
		{
			"buffer":0,
			"byteLength":7088,
			"byteOffset":21264,
			"target":34962
		},
		{
			"buffer":0,
			"byteLength":2688,
			"byteOffset":28352,
			"target":34963
		}
	],
	"samplers":[
		{
			"magFilter":9728,
			"minFilter":9984
		}
	],
	"buffers":[
		{
			"byteLength":31040,
			"uri":"soulcage_747x1.bin"
		}
	]
}
