# Blender 4.4.0
# www.blender.org
mtllib spent_light_997x06.mtl
o spent_light_997x06
v 0.040181 -0.000000 -0.097006
v 0.097006 -0.000000 -0.040181
v 0.097006 0.000000 0.040181
v 0.040181 0.000000 0.097006
v -0.040181 0.000000 0.097006
v -0.097006 0.000000 0.040181
v -0.097006 -0.000000 -0.040181
v -0.040181 -0.000000 -0.097006
v 0.061994 -0.000000 -0.149666
v 0.149666 -0.000000 -0.061994
v 0.149666 0.000000 0.061994
v 0.061994 0.000000 0.149666
v -0.061994 0.000000 0.149666
v -0.149666 0.000000 0.061994
v -0.149666 -0.000000 -0.061994
v -0.061994 -0.000000 -0.149666
v 0.022910 0.081407 -0.022910
v 0.032399 0.070991 -0.000000
v 0.022910 0.081407 0.022910
v 0.000000 0.081407 0.032399
v -0.022910 0.043217 0.022910
v -0.032399 0.081407 -0.000000
v -0.022910 0.081407 -0.022910
v 0.000000 0.081407 -0.032400
v -0.134818 0.031615 -0.055843
v -0.134818 0.031615 0.055843
v 0.040540 0.016428 -0.031019
v 0.052305 0.016428 -0.002615
v 0.022910 0.016428 0.022910
v 0.018768 0.016428 0.035676
v -0.022910 0.016428 0.022910
v -0.032399 0.016428 -0.000000
v -0.032145 0.016428 -0.036912
v -0.009235 0.016428 -0.046402
v 0.040181 0.016428 -0.097006
v 0.097006 0.016428 -0.040181
v -0.055843 0.031615 0.134818
v 0.097006 0.016428 0.040181
v 0.040181 0.016428 0.097006
v -0.040181 0.016428 0.097006
v -0.097006 0.016428 0.040181
v 0.055843 0.031615 0.134818
v -0.097006 0.016428 -0.040181
v -0.040181 0.016428 -0.097006
v 0.172629 0.031615 -0.071505
v 0.071505 0.031615 -0.172629
v 0.134818 0.031615 0.055843
v 0.071505 0.031615 0.172629
v 0.172629 0.031615 0.071505
v -0.071505 0.031615 0.172629
v -0.172629 0.031615 0.071505
v -0.055843 0.031615 -0.134818
v -0.071505 0.031615 -0.172629
v -0.172629 0.031615 -0.071505
v 0.134818 0.031615 -0.055843
v 0.055843 0.031615 -0.134818
v 0.016126 0.081407 -0.016126
v 0.022806 0.070991 -0.000000
v 0.016126 0.081407 0.016126
v 0.000000 0.081407 0.022806
v -0.016126 0.047603 0.016126
v -0.022806 0.081407 -0.000000
v -0.016126 0.081407 -0.016126
v 0.000000 0.081407 -0.022806
v 0.000000 0.067347 0.007298
v 0.018245 0.075587 -0.000000
v 0.012901 0.075587 -0.012901
v 0.012901 0.075587 0.012901
v 0.000000 0.075587 0.018245
v -0.012901 0.058513 0.012901
v -0.018245 0.075587 -0.000000
v -0.012901 0.075587 -0.012901
v 0.000000 0.075587 -0.018245
v 0.000000 0.075587 -0.000000
v 0.000000 0.067347 -0.007298
v 0.000000 0.067347 -0.000000
v 0.000000 0.142185 0.007298
v 0.000000 0.142185 -0.007298
v 0.000000 0.142185 -0.000000
v 0.000000 0.094372 -0.231728
v 0.000000 0.094372 -0.192638
v 0.000000 0.066731 -0.164997
v 0.000000 0.027641 -0.164997
v 0.000000 -0.000000 -0.192638
v 0.000000 0.066731 -0.259369
v 0.000000 -0.000000 -0.231728
v 0.000000 0.027641 -0.259369
v -0.008750 0.094372 -0.231728
v -0.008750 0.094372 -0.192638
v -0.008750 0.066731 -0.164997
v -0.008750 0.027641 -0.164997
v -0.008750 -0.000000 -0.192638
v -0.008750 0.066731 -0.259369
v -0.008750 -0.000000 -0.231728
v -0.008750 0.027641 -0.259369
v 0.008750 0.094372 -0.231728
v 0.008750 0.094372 -0.192638
v 0.008750 0.066731 -0.164997
v 0.008750 0.027641 -0.164997
v 0.008750 -0.000000 -0.192638
v 0.008750 0.066731 -0.259369
v 0.008750 -0.000000 -0.231728
v 0.008750 0.027641 -0.259369
v 0.000000 0.061374 -0.177931
v 0.000000 0.032999 -0.177931
v 0.000000 0.081438 -0.226370
v 0.000000 0.081438 -0.197995
v 0.000000 0.012934 -0.226370
v 0.000000 0.032999 -0.246435
v 0.000000 0.012934 -0.197995
v 0.000000 0.061374 -0.246435
v -0.008750 0.061374 -0.177931
v -0.008750 0.032999 -0.177931
v -0.008750 0.081438 -0.226370
v -0.008750 0.081438 -0.197995
v -0.008750 0.012934 -0.226370
v -0.008750 0.032999 -0.246435
v -0.008750 0.012934 -0.197995
v -0.008750 0.061374 -0.246435
v 0.008750 0.061374 -0.177931
v 0.008750 0.032999 -0.177931
v 0.008750 0.081438 -0.226370
v 0.008750 0.081438 -0.197995
v 0.008750 0.012934 -0.226370
v 0.008750 0.032999 -0.246435
v 0.008750 0.012934 -0.197995
v 0.008750 0.061374 -0.246435
v 0.007298 0.067347 -0.000000
v -0.007298 0.067347 -0.000000
v 0.000000 0.067347 -0.000000
v 0.007298 0.142185 -0.000000
v -0.007298 0.142185 -0.000000
v 0.000000 0.142185 -0.000000
v -0.001606 0.018173 0.047310
v -0.030616 0.030762 0.035090
v -0.065427 0.031543 0.001257
v -0.001842 0.020631 0.088559
v -0.041120 0.019293 0.072291
v -0.094526 0.020631 0.006874
v -0.061244 0.016985 -0.020530
vn -0.0000 1.0000 -0.0000
vn -0.0000 -1.0000 -0.0000
vn 0.3185 0.1789 -0.9309
vn 0.3186 0.1790 -0.9309
vn -0.9832 0.0871 -0.1602
vn -0.3100 -0.0295 0.9503
vn 0.7866 0.1177 0.6062
vn -0.3710 0.2457 -0.8956
vn -0.9239 -0.0000 0.3827
vn 0.6314 0.1105 0.7675
vn 0.8990 0.3100 -0.3094
vn 0.2635 -0.9279 0.2635
vn -0.2635 -0.9279 0.2635
vn -0.2635 -0.9279 -0.2635
vn -0.0000 -0.9279 -0.3727
vn -0.0000 -0.9279 0.3727
vn -0.8091 0.5877 -0.0000
vn -0.3727 -0.9279 -0.0000
vn 0.2635 -0.9279 -0.2635
vn 0.3727 -0.9279 -0.0000
vn -0.0000 0.5877 0.8091
vn 0.5721 0.5877 -0.5721
vn 0.8091 0.5877 -0.0000
vn -0.5721 0.5877 -0.5721
vn 0.5721 0.5877 0.5721
vn -0.0000 0.5877 -0.8091
vn -0.5721 0.5877 0.5721
vn -0.8381 0.5022 -0.2128
vn 0.1693 0.8969 -0.4085
vn 0.2127 0.5022 0.8382
vn 0.1692 0.8969 0.4086
vn -0.3100 0.5864 -0.7483
vn 0.0309 0.5007 0.8650
vn 0.0309 0.5008 0.8650
vn 0.3100 0.5864 0.7483
vn -0.0068 0.9403 -0.3402
vn -0.0068 0.9403 -0.3403
vn -0.4832 0.7302 0.4831
vn -0.4832 0.7301 0.4832
vn -0.0068 0.9403 0.3403
vn -0.3100 0.5864 0.7483
vn 0.7483 0.5864 0.3100
vn -0.8650 0.5008 -0.0309
vn -1.0000 -0.0000 -0.0000
vn -0.0000 -0.0000 1.0000
vn -0.0000 -0.7071 -0.7071
vn -0.0000 -0.7071 0.7071
vn -0.0000 0.7071 -0.7071
vn -0.0000 0.7071 0.7071
vn -0.0000 -0.0000 -1.0000
vn 1.0000 -0.0000 -0.0000
vn -0.5019 0.3455 0.7929
vn -0.4991 0.4816 0.7204
vn 0.1089 0.9858 0.1281
vn 0.1090 0.9858 0.1281
vn -0.2580 0.9334 0.2492
vn -0.5169 0.1960 0.8333
vn -0.5053 0.0339 0.8623
vn -0.4323 -0.2183 0.8749
vn -0.7923 0.4780 -0.3791
vn -0.7937 0.4750 -0.3800
vn -0.7895 0.4821 -0.3799
vn -0.3689 0.7420 -0.5597
vn -0.3988 0.7297 -0.5554
vn -0.3833 0.7323 -0.5629
vn 0.3185 0.1790 -0.9309
vn -0.9832 0.0871 -0.1601
vn -0.3100 -0.0294 0.9503
vn 0.7866 0.1177 0.6061
vn 0.6314 0.1105 0.7676
vn -0.8382 0.5022 -0.2127
vn 0.1692 0.8969 -0.4086
vn 0.2128 0.5022 0.8381
vn 0.1693 0.8969 0.4085
vn 0.1688 0.8972 0.4081
vn -0.0069 0.9403 -0.3403
vn -0.0069 0.9403 -0.3402
vn -0.4831 0.7301 0.4832
vn -0.0068 0.9403 0.3402
vn -0.8650 0.5007 -0.0309
vn -0.8650 0.5008 -0.0308
vn -0.5019 0.3456 0.7929
vn -0.4991 0.4815 0.7204
vn 0.1090 0.9857 0.1282
vn -0.2580 0.9334 0.2493
vn -0.7923 0.4781 -0.3791
vn -0.7932 0.4749 -0.3811
vt 0.877435 0.388486
vt 0.867669 0.380798
vt 0.892124 0.386955
vt 0.839168 0.384496
vt 0.808627 0.386955
vt 0.833083 0.380798
vt 0.823317 0.394129
vt 0.833083 0.401817
vt 0.808627 0.395661
vt 0.839168 0.398119
vt 0.867669 0.401817
vt 0.861584 0.384496
vt 0.848939 0.385530
vt 0.864790 0.395163
vt 0.864790 0.381540
vt 0.823317 0.388486
vt 0.861584 0.398119
vt 0.892124 0.395661
vt 0.877435 0.394129
vt 0.986442 0.391685
vt 0.865953 0.381841
vt 0.887982 0.387386
vt 0.834799 0.381841
vt 0.834799 0.400774
vt 0.812769 0.395229
vt 0.865953 0.400774
vt 0.898529 0.396329
vt 0.764481 0.399171
vt 0.775028 0.392428
vt 0.764481 0.391328
vt 0.887982 0.395229
vt 0.898130 0.391173
vt 0.882279 0.381540
vt 0.882279 0.395163
vt 0.870321 0.379186
vt 0.898529 0.386287
vt 0.802222 0.386287
vt 0.830430 0.379186
vt 0.830430 0.403429
vt 0.802222 0.396329
vt 0.870321 0.403429
vt 0.812769 0.387386
vt 0.675368 0.388939
vt 0.916861 0.387405
vt 0.916861 0.391372
vt 0.959639 0.387405
vt 0.947109 0.391372
vt 0.959639 0.391372
vt 0.929390 0.387405
vt 0.929390 0.391372
vt 0.947109 0.387405
vt 0.916861 0.395339
vt 0.959639 0.395339
vt 0.929390 0.395339
vt 0.947109 0.395339
vt 0.922724 0.391372
vt 0.922724 0.387405
vt 0.944681 0.391372
vt 0.953776 0.387405
vt 0.953776 0.391372
vt 0.931819 0.387405
vt 0.931819 0.391372
vt 0.944681 0.387405
vt 0.922724 0.395339
vt 0.953776 0.395339
vt 0.931819 0.395339
vt 0.944681 0.395339
vt 0.848939 0.391173
vt 0.775028 0.398071
vt 0.898130 0.385530
s 0
usemtl bottle_texture
f 3/1/1 12/2/1 11/3/1
f 5/4/1 14/5/1 13/6/1
f 7/7/1 16/8/1 15/9/1
f 8/10/1 9/11/1 16/8/1
f 4/12/1 13/6/1 12/2/1
f 41/13/2 44/14/2 40/15/2
f 6/16/1 15/9/1 14/5/1
f 1/17/1 10/18/1 9/11/1
f 2/19/1 11/3/1 10/18/1
f 1/17/1 5/4/1 4/12/1
f 4/12/1 2/19/1 1/17/1
f 17/20/3 34/20/4 24/20/3
f 23/20/5 32/20/5 22/20/5
f 21/20/6 30/20/6 20/20/6
f 18/20/7 29/20/7 28/20/7
f 23/20/8 34/20/8 33/20/8
f 21/20/9 32/20/9 31/20/9
f 19/20/10 30/20/10 29/20/10
f 18/20/11 27/20/11 17/20/11
f 42/21/12 38/1/12 47/22/12
f 37/23/13 41/16/13 40/4/13
f 52/24/14 43/7/14 25/25/14
f 56/26/15 44/10/15 52/24/15
f 37/23/16 39/12/16 42/21/16
f 11/3/17 45/27/17 10/18/17
f 25/28/18 41/29/18 26/30/18
f 56/26/19 36/19/19 35/17/19
f 47/22/20 36/19/20 55/31/20
f 40/4/2 35/17/2 39/12/2
f 36/32/2 39/33/2 35/34/2
f 48/35/2 47/22/2 49/36/2
f 51/37/2 37/23/2 50/38/2
f 53/39/2 25/25/2 54/40/2
f 46/41/2 52/24/2 53/39/2
f 50/38/2 42/21/2 48/35/2
f 9/11/21 53/39/21 16/8/21
f 14/5/22 50/38/22 13/6/22
f 15/9/23 51/37/23 14/5/23
f 54/40/2 26/42/2 51/37/2
f 49/36/2 55/31/2 45/27/2
f 45/27/2 56/26/2 46/41/2
f 12/2/24 49/36/24 11/3/24
f 16/8/25 54/40/25 15/9/25
f 13/6/26 48/35/26 12/2/26
f 10/18/27 46/41/27 9/11/27
f 8/10/1 6/16/1 5/4/1
f 17/20/1 64/20/1 57/20/1
f 22/20/1 63/20/1 23/20/1
f 20/20/28 61/20/28 21/20/28
f 18/20/29 59/20/29 19/20/29
f 23/20/1 64/20/1 24/20/1
f 22/20/30 61/20/30 62/20/30
f 20/20/1 59/20/1 60/20/1
f 18/20/31 57/20/31 58/20/31
f 59/20/32 69/20/32 60/20/32
f 62/20/33 70/20/34 71/20/34
f 63/20/35 73/20/35 64/20/35
f 59/20/36 66/20/36 68/20/37
f 74/20/1 67/20/1 73/20/1
f 74/20/1 72/20/1 71/20/1
f 70/20/38 74/20/38 71/20/39
f 68/20/1 74/20/1 69/20/1
f 58/20/40 67/20/40 66/20/40
f 57/20/41 73/20/41 67/20/41
f 63/20/42 71/20/42 72/20/42
f 60/20/43 70/20/43 61/20/43
f 65/43/44 79/43/44 76/43/44
f 76/43/44 78/43/44 75/43/44
f 93/44/45 87/45/45 85/45/45
f 90/46/46 81/47/46 82/48/46
f 94/49/1 84/47/1 86/50/1
f 89/51/2 80/50/2 81/47/2
f 88/49/47 85/45/47 80/50/47
f 92/51/48 83/48/48 84/47/48
f 95/44/49 86/50/49 87/45/49
f 91/46/50 82/48/50 83/48/50
f 101/52/47 80/50/47 85/45/47
f 99/53/48 84/47/48 83/48/48
f 102/54/49 87/45/49 86/50/49
f 98/53/50 83/48/50 82/48/50
f 103/52/45 85/45/45 87/45/45
f 97/55/46 82/48/46 81/47/46
f 100/55/1 86/50/1 84/47/1
f 96/54/2 81/47/2 80/50/2
f 109/56/50 119/57/50 111/56/50
f 107/58/49 112/59/49 104/60/49
f 110/58/2 116/61/2 108/62/2
f 106/62/1 115/63/1 107/58/1
f 111/56/48 114/61/48 106/62/48
f 105/60/47 118/63/47 110/58/47
f 108/62/46 117/57/46 109/56/46
f 104/60/45 113/59/45 105/60/45
f 106/62/48 127/64/48 111/56/48
f 110/58/47 121/65/47 105/60/47
f 109/56/46 124/66/46 108/62/46
f 105/60/45 120/65/45 104/60/45
f 111/56/50 125/64/50 109/56/50
f 104/60/49 123/67/49 107/58/49
f 108/62/2 126/67/2 110/58/2
f 107/58/1 122/66/1 106/62/1
f 97/55/44 122/66/44 123/67/44
f 92/51/51 116/61/51 118/63/51
f 103/52/44 124/66/44 125/64/44
f 91/46/51 118/63/51 113/59/51
f 100/55/44 124/66/44 102/54/44
f 89/51/51 112/59/51 115/63/51
f 99/53/44 126/67/44 100/55/44
f 88/49/51 119/57/51 93/44/51
f 97/55/44 120/65/44 98/53/44
f 93/44/51 117/57/51 95/44/51
f 96/54/44 127/64/44 122/66/44
f 90/46/51 113/59/51 112/59/51
f 101/52/44 125/64/44 127/64/44
f 89/51/51 114/61/51 88/49/51
f 98/53/44 121/65/44 99/53/44
f 95/44/51 116/61/51 94/49/51
f 128/43/45 133/43/45 130/43/45
f 130/43/45 132/43/45 129/43/45
f 21/20/52 134/20/52 20/20/52
f 21/20/53 136/20/53 135/20/53
f 134/20/54 138/20/54 137/20/55
f 135/20/56 139/20/56 138/20/56
f 20/20/57 134/20/58 30/20/59
f 136/20/60 23/20/61 140/20/62
f 136/20/63 140/20/64 139/20/65
f 3/1/1 4/12/1 12/2/1
f 5/4/1 6/16/1 14/5/1
f 7/7/1 8/10/1 16/8/1
f 8/10/1 1/17/1 9/11/1
f 4/12/1 5/4/1 13/6/1
f 41/13/2 43/68/2 44/14/2
f 6/16/1 7/7/1 15/9/1
f 1/17/1 2/19/1 10/18/1
f 2/19/1 3/1/1 11/3/1
f 1/17/1 8/10/1 5/4/1
f 4/12/1 3/1/1 2/19/1
f 17/20/66 27/20/66 34/20/66
f 23/20/67 33/20/67 32/20/67
f 21/20/68 31/20/68 30/20/68
f 18/20/69 19/20/69 29/20/69
f 23/20/8 24/20/8 34/20/8
f 21/20/9 22/20/9 32/20/9
f 19/20/70 20/20/70 30/20/70
f 18/20/11 28/20/11 27/20/11
f 42/21/12 39/12/12 38/1/12
f 37/23/13 26/42/13 41/16/13
f 52/24/14 44/10/14 43/7/14
f 56/26/15 35/17/15 44/10/15
f 37/23/16 40/4/16 39/12/16
f 11/3/17 49/36/17 45/27/17
f 25/28/18 43/69/18 41/29/18
f 56/26/19 55/31/19 36/19/19
f 47/22/20 38/1/20 36/19/20
f 40/4/2 44/10/2 35/17/2
f 36/32/2 38/70/2 39/33/2
f 48/35/2 42/21/2 47/22/2
f 51/37/2 26/42/2 37/23/2
f 53/39/2 52/24/2 25/25/2
f 46/41/2 56/26/2 52/24/2
f 50/38/2 37/23/2 42/21/2
f 9/11/21 46/41/21 53/39/21
f 14/5/22 51/37/22 50/38/22
f 15/9/23 54/40/23 51/37/23
f 54/40/2 25/25/2 26/42/2
f 49/36/2 47/22/2 55/31/2
f 45/27/2 55/31/2 56/26/2
f 12/2/24 48/35/24 49/36/24
f 16/8/25 53/39/25 54/40/25
f 13/6/26 50/38/26 48/35/26
f 10/18/27 45/27/27 46/41/27
f 8/10/1 7/7/1 6/16/1
f 17/20/1 24/20/1 64/20/1
f 22/20/1 62/20/1 63/20/1
f 20/20/71 60/20/71 61/20/71
f 18/20/72 58/20/72 59/20/72
f 23/20/1 63/20/1 64/20/1
f 22/20/73 21/20/73 61/20/73
f 20/20/1 19/20/1 59/20/1
f 18/20/74 17/20/75 57/20/74
f 59/20/32 68/20/32 69/20/32
f 62/20/34 61/20/34 70/20/34
f 63/20/35 72/20/35 73/20/35
f 59/20/76 58/20/76 66/20/77
f 74/20/1 66/20/1 67/20/1
f 74/20/1 73/20/1 72/20/1
f 70/20/78 69/20/78 74/20/78
f 68/20/1 66/20/1 74/20/1
f 58/20/79 57/20/79 67/20/79
f 57/20/41 64/20/41 73/20/41
f 63/20/42 62/20/42 71/20/42
f 60/20/80 69/20/81 70/20/43
f 65/43/44 77/43/44 79/43/44
f 76/43/44 79/43/44 78/43/44
f 93/44/45 95/44/45 87/45/45
f 90/46/46 89/51/46 81/47/46
f 94/49/1 92/51/1 84/47/1
f 89/51/2 88/49/2 80/50/2
f 88/49/47 93/44/47 85/45/47
f 92/51/48 91/46/48 83/48/48
f 95/44/49 94/49/49 86/50/49
f 91/46/50 90/46/50 82/48/50
f 101/52/47 96/54/47 80/50/47
f 99/53/48 100/55/48 84/47/48
f 102/54/49 103/52/49 87/45/49
f 98/53/50 99/53/50 83/48/50
f 103/52/45 101/52/45 85/45/45
f 97/55/46 98/53/46 82/48/46
f 100/55/1 102/54/1 86/50/1
f 96/54/2 97/55/2 81/47/2
f 109/56/50 117/57/50 119/57/50
f 107/58/49 115/63/49 112/59/49
f 110/58/2 118/63/2 116/61/2
f 106/62/1 114/61/1 115/63/1
f 111/56/48 119/57/48 114/61/48
f 105/60/47 113/59/47 118/63/47
f 108/62/46 116/61/46 117/57/46
f 104/60/45 112/59/45 113/59/45
f 106/62/48 122/66/48 127/64/48
f 110/58/47 126/67/47 121/65/47
f 109/56/46 125/64/46 124/66/46
f 105/60/45 121/65/45 120/65/45
f 111/56/50 127/64/50 125/64/50
f 104/60/49 120/65/49 123/67/49
f 108/62/2 124/66/2 126/67/2
f 107/58/1 123/67/1 122/66/1
f 97/55/44 96/54/44 122/66/44
f 92/51/51 94/49/51 116/61/51
f 103/52/44 102/54/44 124/66/44
f 91/46/51 92/51/51 118/63/51
f 100/55/44 126/67/44 124/66/44
f 89/51/51 90/46/51 112/59/51
f 99/53/44 121/65/44 126/67/44
f 88/49/51 114/61/51 119/57/51
f 97/55/44 123/67/44 120/65/44
f 93/44/51 119/57/51 117/57/51
f 96/54/44 101/52/44 127/64/44
f 90/46/51 91/46/51 113/59/51
f 101/52/44 103/52/44 125/64/44
f 89/51/51 115/63/51 114/61/51
f 98/53/44 120/65/44 121/65/44
f 95/44/51 117/57/51 116/61/51
f 128/43/45 131/43/45 133/43/45
f 130/43/45 133/43/45 132/43/45
f 21/20/82 135/20/82 134/20/52
f 21/20/83 22/20/83 136/20/83
f 134/20/84 135/20/84 138/20/84
f 135/20/85 136/20/85 139/20/85
f 136/20/86 22/20/87 23/20/61
