{
	"asset":{
		"generator":"Khronos glTF Blender I/O v4.4.55",
		"version":"2.0"
	},
	"scene":0,
	"scenes":[
		{
			"name":"Scene",
			"nodes":[
				0
			]
		}
	],
	"nodes":[
		{
			"mesh":0,
			"name":"spent_light_997x08"
		}
	],
	"materials":[
		{
			"alphaMode":"BLEND",
			"doubleSided":true,
			"name":"336Light",
			"pbrMetallicRoughness":{
				"baseColorTexture":{
					"index":0
				},
				"metallicFactor":0,
				"roughnessFactor":0.5
			}
		}
	],
	"meshes":[
		{
			"name":"candle_336x08.002",
			"primitives":[
				{
					"attributes":{
						"POSITION":0,
						"NORMAL":1,
						"TEXCOORD_0":2
					},
					"indices":3,
					"material":0
				}
			]
		}
	],
	"textures":[
		{
			"sampler":0,
			"source":0
		}
	],
	"images":[
		{
			"mimeType":"image/png",
			"name":"336light_source",
			"uri":"336light_source.png"
		}
	],
	"accessors":[
		{
			"bufferView":0,
			"componentType":5126,
			"count":319,
			"max":[
				0.5821195840835571,
				0.3513541519641876,
				0.11554227024316788
			],
			"min":[
				-0.5614290833473206,
				-0.0036625824868679047,
				-0.10743670910596848
			],
			"type":"VEC3"
		},
		{
			"bufferView":1,
			"componentType":5126,
			"count":319,
			"type":"VEC3"
		},
		{
			"bufferView":2,
			"componentType":5126,
			"count":319,
			"type":"VEC2"
		},
		{
			"bufferView":3,
			"componentType":5123,
			"count":600,
			"type":"SCALAR"
		}
	],
	"bufferViews":[
		{
			"buffer":0,
			"byteLength":3828,
			"byteOffset":0,
			"target":34962
		},
		{
			"buffer":0,
			"byteLength":3828,
			"byteOffset":3828,
			"target":34962
		},
		{
			"buffer":0,
			"byteLength":2552,
			"byteOffset":7656,
			"target":34962
		},
		{
			"buffer":0,
			"byteLength":1200,
			"byteOffset":10208,
			"target":34963
		}
	],
	"samplers":[
		{
			"magFilter":9728,
			"minFilter":9984
		}
	],
	"buffers":[
		{
			"byteLength":11408,
			"uri":"spent_light_997x08.bin"
		}
	]
}
