{
	"asset":{
		"generator":"Khronos glTF Blender I/O v4.4.55",
		"version":"2.0"
	},
	"scene":0,
	"scenes":[
		{
			"name":"Scene",
			"nodes":[
				0
			]
		}
	],
	"nodes":[
		{
			"mesh":0,
			"name":"spent_light_997x10"
		}
	],
	"materials":[
		{
			"alphaMode":"BLEND",
			"doubleSided":true,
			"name":"336Light",
			"pbrMetallicRoughness":{
				"baseColorTexture":{
					"index":0
				},
				"metallicFactor":0,
				"roughnessFactor":0.5
			}
		}
	],
	"meshes":[
		{
			"name":"spent_light_997x10",
			"primitives":[
				{
					"attributes":{
						"POSITION":0,
						"NORMAL":1,
						"TEXCOORD_0":2
					},
					"indices":3,
					"material":0
				}
			]
		}
	],
	"textures":[
		{
			"sampler":0,
			"source":0
		}
	],
	"images":[
		{
			"mimeType":"image/png",
			"name":"336light_source",
			"uri":"336light_source.png"
		}
	],
	"accessors":[
		{
			"bufferView":0,
			"componentType":5126,
			"count":558,
			"max":[
				0.2287990003824234,
				1.5438220500946045,
				0.2379540055990219
			],
			"min":[
				-0.2250089943408966,
				-0.0036030106712132692,
				-0.23887500166893005
			],
			"type":"VEC3"
		},
		{
			"bufferView":1,
			"componentType":5126,
			"count":558,
			"type":"VEC3"
		},
		{
			"bufferView":2,
			"componentType":5126,
			"count":558,
			"type":"VEC2"
		},
		{
			"bufferView":3,
			"componentType":5123,
			"count":822,
			"type":"SCALAR"
		}
	],
	"bufferViews":[
		{
			"buffer":0,
			"byteLength":6696,
			"byteOffset":0,
			"target":34962
		},
		{
			"buffer":0,
			"byteLength":6696,
			"byteOffset":6696,
			"target":34962
		},
		{
			"buffer":0,
			"byteLength":4464,
			"byteOffset":13392,
			"target":34962
		},
		{
			"buffer":0,
			"byteLength":1644,
			"byteOffset":17856,
			"target":34963
		}
	],
	"samplers":[
		{
			"magFilter":9728,
			"minFilter":9984
		}
	],
	"buffers":[
		{
			"byteLength":19500,
			"uri":"spent_light_997x10.bin"
		}
	]
}
