{
	"asset":{
		"generator":"Khronos glTF Blender I/O v4.4.55",
		"version":"2.0"
	},
	"scene":0,
	"scenes":[
		{
			"name":"Scene",
			"nodes":[
				0
			]
		}
	],
	"nodes":[
		{
			"mesh":0,
			"name":"spent_light_997x05"
		}
	],
	"materials":[
		{
			"alphaMode":"BLEND",
			"doubleSided":true,
			"name":"336Light",
			"pbrMetallicRoughness":{
				"baseColorTexture":{
					"index":0
				},
				"metallicFactor":0,
				"roughnessFactor":0.5
			}
		}
	],
	"meshes":[
		{
			"name":"candle_336x04.006",
			"primitives":[
				{
					"attributes":{
						"POSITION":0,
						"NORMAL":1,
						"TEXCOORD_0":2
					},
					"indices":3,
					"material":0
				}
			]
		}
	],
	"textures":[
		{
			"sampler":0,
			"source":0
		}
	],
	"images":[
		{
			"mimeType":"image/png",
			"name":"336light_source",
			"uri":"336light_source.png"
		}
	],
	"accessors":[
		{
			"bufferView":0,
			"componentType":5126,
			"count":979,
			"max":[
				0.15247930586338043,
				1.8002275228500366,
				0.644275963306427
			],
			"min":[
				-0.16642475128173828,
				0.0030119293369352818,
				-0.6511090397834778
			],
			"type":"VEC3"
		},
		{
			"bufferView":1,
			"componentType":5126,
			"count":979,
			"type":"VEC3"
		},
		{
			"bufferView":2,
			"componentType":5126,
			"count":979,
			"type":"VEC2"
		},
		{
			"bufferView":3,
			"componentType":5123,
			"count":1812,
			"type":"SCALAR"
		}
	],
	"bufferViews":[
		{
			"buffer":0,
			"byteLength":11748,
			"byteOffset":0,
			"target":34962
		},
		{
			"buffer":0,
			"byteLength":11748,
			"byteOffset":11748,
			"target":34962
		},
		{
			"buffer":0,
			"byteLength":7832,
			"byteOffset":23496,
			"target":34962
		},
		{
			"buffer":0,
			"byteLength":3624,
			"byteOffset":31328,
			"target":34963
		}
	],
	"samplers":[
		{
			"magFilter":9728,
			"minFilter":9984
		}
	],
	"buffers":[
		{
			"byteLength":34952,
			"uri":"spent_light_997x05.bin"
		}
	]
}
