{
	"asset":{
		"generator":"Khronos glTF Blender I/O v4.4.55",
		"version":"2.0"
	},
	"scene":0,
	"scenes":[
		{
			"extras":{
				"MustardUI_Settings":{},
				"gltf_action_filter":[
					{
						"keep":0,
						"action":{
							"name":"ForwardLoomAction",
							"type":"Action"
						}
					},
					{
						"keep":0,
						"action":{
							"name":"LoomLow",
							"type":"Action"
						}
					},
					{
						"keep":0,
						"action":{
							"name":"LoomUp",
							"type":"Action"
						}
					},
					{
						"keep":0,
						"action":{
							"name":"UpperLoomAction",
							"type":"Action"
						}
					},
					{
						"keep":0,
						"action":{
							"name":"ArmatureAction",
							"type":"Action"
						}
					},
					{
						"keep":0,
						"action":{
							"name":"idle",
							"type":"Action"
						}
					},
					{
						"keep":0,
						"action":{
							"name":"spinning_wheel_651x00.001Action",
							"type":"Action"
						}
					},
					{
						"keep":0,
						"action":{
							"name":"spinning_wheel_651x00.001Action.001",
							"type":"Action"
						}
					},
					{
						"keep":1,
						"action":{
							"name":"spinning_wheel_651",
							"type":"Action"
						}
					},
					{
						"keep":0,
						"action":{
							"name":"spinning_wheel_651x00Action",
							"type":"Action"
						}
					}
				],
				"gltf_action_filter_active":8
			},
			"name":"Scene",
			"nodes":[
				0
			]
		}
	],
	"nodes":[
		{
			"extras":{
				"daz_importer":{}
			},
			"mesh":0,
			"name":"spindle_thread_654x09"
		}
	],
	"materials":[
		{
			"doubleSided":true,
			"name":"thread",
			"pbrMetallicRoughness":{
				"baseColorTexture":{
					"index":0
				},
				"metallicFactor":0,
				"roughnessFactor":0.5
			}
		}
	],
	"meshes":[
		{
			"name":"Cube.011",
			"primitives":[
				{
					"attributes":{
						"POSITION":0,
						"NORMAL":1,
						"TEXCOORD_0":2
					},
					"indices":3,
					"material":0
				}
			]
		}
	],
	"textures":[
		{
			"sampler":0,
			"source":0
		}
	],
	"images":[
		{
			"mimeType":"image/png",
			"name":"654spindle_of_thread",
			"uri":"654spindle_of_thread.png"
		}
	],
	"accessors":[
		{
			"bufferView":0,
			"componentType":5126,
			"count":72,
			"max":[
				-0.3894120454788208,
				0.18416395783424377,
				0.2603364586830139
			],
			"min":[
				-0.570141077041626,
				0.004127152264118195,
				-0.5429338812828064
			],
			"type":"VEC3"
		},
		{
			"bufferView":1,
			"componentType":5126,
			"count":72,
			"type":"VEC3"
		},
		{
			"bufferView":2,
			"componentType":5126,
			"count":72,
			"type":"VEC2"
		},
		{
			"bufferView":3,
			"componentType":5123,
			"count":132,
			"type":"SCALAR"
		}
	],
	"bufferViews":[
		{
			"buffer":0,
			"byteLength":864,
			"byteOffset":0,
			"target":34962
		},
		{
			"buffer":0,
			"byteLength":864,
			"byteOffset":864,
			"target":34962
		},
		{
			"buffer":0,
			"byteLength":576,
			"byteOffset":1728,
			"target":34962
		},
		{
			"buffer":0,
			"byteLength":264,
			"byteOffset":2304,
			"target":34963
		}
	],
	"samplers":[
		{
			"magFilter":9728,
			"minFilter":9984
		}
	],
	"buffers":[
		{
			"byteLength":2568,
			"uri":"spindle_thread_654x09.bin"
		}
	]
}
