{
	"asset":{
		"generator":"Khronos glTF Blender I/O v4.4.55",
		"version":"2.0"
	},
	"scene":0,
	"scenes":[
		{
			"extras":{
				"MustardUI_Settings":{},
				"gltf_action_filter":[
					{
						"keep":0,
						"action":{
							"name":"ForwardLoomAction",
							"type":"Action"
						}
					},
					{
						"keep":1,
						"action":{
							"name":"LoomLow",
							"type":"Action"
						}
					},
					{
						"keep":1,
						"action":{
							"name":"LoomUp",
							"type":"Action"
						}
					},
					{
						"keep":0,
						"action":{
							"name":"UpperLoomAction",
							"type":"Action"
						}
					}
				],
				"gltf_action_filter_active":2
			},
			"name":"Scene",
			"nodes":[
				0
			]
		}
	],
	"nodes":[
		{
			"extras":{
				"daz_importer":{}
			},
			"mesh":0,
			"name":"spinning_wheel_651x00"
		}
	],
	"materials":[
		{
			"doubleSided":true,
			"name":"Material",
			"pbrMetallicRoughness":{
				"baseColorTexture":{
					"index":0
				},
				"metallicFactor":0,
				"roughnessFactor":0.5
			}
		}
	],
	"meshes":[
		{
			"name":"SpinningWheel",
			"primitives":[
				{
					"attributes":{
						"POSITION":0,
						"NORMAL":1,
						"TEXCOORD_0":2
					},
					"indices":3,
					"material":0
				}
			]
		}
	],
	"textures":[
		{
			"sampler":0,
			"source":0
		}
	],
	"images":[
		{
			"mimeType":"image/png",
			"name":"651spinning_wheel",
			"uri":"651spinning_wheel.png"
		}
	],
	"accessors":[
		{
			"bufferView":0,
			"componentType":5126,
			"count":1501,
			"max":[
				-0.09839564561843872,
				2.9002060890197754,
				0.5041501522064209
			],
			"min":[
				-2.9026288986206055,
				-0.006786048412322998,
				-0.5041501522064209
			],
			"type":"VEC3"
		},
		{
			"bufferView":1,
			"componentType":5126,
			"count":1501,
			"type":"VEC3"
		},
		{
			"bufferView":2,
			"componentType":5126,
			"count":1501,
			"type":"VEC2"
		},
		{
			"bufferView":3,
			"componentType":5123,
			"count":2802,
			"type":"SCALAR"
		}
	],
	"bufferViews":[
		{
			"buffer":0,
			"byteLength":18012,
			"byteOffset":0,
			"target":34962
		},
		{
			"buffer":0,
			"byteLength":18012,
			"byteOffset":18012,
			"target":34962
		},
		{
			"buffer":0,
			"byteLength":12008,
			"byteOffset":36024,
			"target":34962
		},
		{
			"buffer":0,
			"byteLength":5604,
			"byteOffset":48032,
			"target":34963
		}
	],
	"samplers":[
		{
			"magFilter":9728,
			"minFilter":9984
		}
	],
	"buffers":[
		{
			"byteLength":53636,
			"uri":"spinning_wheel_651x00.bin"
		}
	]
}
