# Blender 3.6.2
# www.blender.org
mtllib stained_glass_window_508x00.mtl
o Glass.001
v -1.937500 0.000000 -0.000000
v 1.937500 0.000000 -0.000000
v 1.937500 5.066880 0.000000
v -1.937500 5.066879 0.000000
v -1.827008 5.066879 0.000000
v -1.550041 5.224136 0.000000
v -0.544302 5.512351 0.000000
v -1.067687 5.402509 0.000000
v 0.000000 5.549440 0.000000
v 0.544302 5.512351 0.000000
v 1.067687 5.402509 0.000000
v 1.550041 5.224136 0.000000
v 1.937500 5.066879 0.000000
v 1.827008 5.066879 0.000000
v 1.937500 6.032000 -0.437500
v 1.937500 5.066879 -0.437500
v 1.937500 6.032000 0.437500
v 1.937500 5.066879 0.437500
v -1.937500 6.032000 -0.437500
v -1.937500 5.066879 -0.437500
v -1.937500 6.032000 0.437500
v -1.937500 5.066879 0.437500
v 1.827008 5.066879 0.437500
v 1.550041 5.224136 0.437500
v 1.550041 5.224136 -0.437500
v 1.827008 5.066879 -0.437500
v 1.067687 5.402510 0.437500
v 1.067687 5.402510 -0.437500
v 0.000000 5.549440 0.437500
v 0.000000 5.549440 -0.437500
v 0.544302 5.512351 0.437500
v 0.544302 5.512351 -0.437500
v -0.544302 5.512351 0.437500
v -0.544302 5.512351 -0.437500
v -1.550041 5.224136 0.437500
v -1.550041 5.224136 -0.437500
v -1.067687 5.402510 0.437500
v -1.067687 5.402510 -0.437500
v -1.827008 5.066879 0.437500
v -1.827008 5.066879 -0.437500
vn -0.0000 -0.0000 1.0000
vn -0.0000 1.0000 -0.0000
vn -1.0000 -0.0000 -0.0000
vn 1.0000 -0.0000 -0.0000
vn -0.0000 -1.0000 -0.0000
vn -0.0000 -0.0000 -1.0000
vn 0.2054 -0.9787 -0.0000
vn -0.2054 -0.9787 -0.0000
vn 0.0680 -0.9977 -0.0000
vn -0.3468 -0.9379 -0.0000
vn 0.4937 -0.8696 -0.0000
vn -0.4937 -0.8696 -0.0000
vn 0.3468 -0.9379 -0.0000
vn -0.0680 -0.9977 -0.0000
vt 0.551421 0.639200
vt 0.430508 0.643500
vt 0.860911 0.000048
vt 0.000016 1.000009
vt 0.861131 0.795021
vt 0.861131 1.000009
vt 1.000030 0.794229
vt 0.888922 1.000006
vt 0.888922 0.794229
vt 0.860978 0.764665
vt -0.000001 0.764665
vt 0.430488 0.705916
vt 0.888979 0.999956
vt 0.999998 0.794198
vt 0.999998 0.999956
vt 0.338313 0.713852
vt 0.333569 0.728472
vt 0.333569 0.713852
vt 0.000070 0.764761
vt 0.861102 0.764761
vt 0.430586 0.705916
vt 0.393388 0.728472
vt 0.370916 0.713852
vt 0.393388 0.713852
vt 0.495203 0.713852
vt 0.499947 0.728472
vt 0.495203 0.728472
vt 0.462600 0.728472
vt 0.440128 0.713852
vt 0.462600 0.713852
vt 0.416758 0.728472
vt 0.416758 0.713852
vt 0.483311 0.728472
vt 0.483311 0.713852
vt 0.350205 0.728472
vt 0.350205 0.713852
vt 0.370916 0.728472
vt 0.440128 0.728472
vt 0.000105 0.587548
vt 0.000105 0.000048
vt 0.024651 0.587548
vt 0.086177 0.605782
vt 0.860911 0.587548
vt 0.860911 0.587548
vt 0.836365 0.587548
vt 0.774839 0.605782
vt 0.667687 0.626464
vt 0.193329 0.626464
vt 0.309595 0.639200
vt 0.000016 0.795021
vt 1.000030 1.000006
vt 0.833389 0.647166
vt 0.860978 0.647166
vt -0.000001 0.647166
vt 0.027649 0.647166
vt 0.086088 0.666312
vt 0.774889 0.666312
vt 0.667715 0.688028
vt 0.193261 0.688028
vt 0.309551 0.701400
vt 0.551426 0.701400
vt 0.888979 0.794198
vt 0.338313 0.728472
vt 0.027117 0.647072
vt 0.000070 0.647072
vt 0.861102 0.647072
vt 0.833450 0.647072
vt 0.775008 0.666248
vt 0.086164 0.666248
vt 0.193344 0.687999
vt 0.667828 0.687999
vt 0.551531 0.701394
vt 0.309641 0.701394
vt 0.499947 0.713852
s 0
usemtl Material
f 10/1/1 9/2/1 2/3/1
f 19/4/2 17/5/2 15/6/2
f 21/7/3 20/8/3 22/9/3
f 17/10/1 21/11/1 29/12/1
f 15/13/4 18/14/4 16/15/4
f 40/16/5 22/17/5 20/18/5
f 19/19/6 15/20/6 30/21/6
f 33/22/7 38/23/7 34/24/7
f 26/25/5 18/26/5 23/27/5
f 27/28/8 32/29/8 28/30/8
f 29/31/9 34/24/9 30/32/9
f 24/33/10 28/30/10 25/34/10
f 35/35/11 40/16/11 36/36/11
f 24/33/12 26/25/12 23/27/12
f 37/37/13 36/36/13 38/23/13
f 31/38/14 30/32/14 32/29/14
f 4/39/1 1/40/1 5/41/1
f 1/40/1 2/3/1 9/2/1
f 5/41/1 1/40/1 6/42/1
f 2/3/1 3/43/1 13/44/1
f 14/45/1 12/46/1 2/3/1
f 12/46/1 11/47/1 2/3/1
f 2/3/1 13/44/1 14/45/1
f 8/48/1 1/40/1 7/49/1
f 8/48/1 6/42/1 1/40/1
f 9/2/1 7/49/1 1/40/1
f 11/47/1 10/1/1 2/3/1
f 19/4/2 21/50/2 17/5/2
f 21/7/3 19/51/3 20/8/3
f 23/52/1 18/53/1 17/10/1
f 21/11/1 22/54/1 39/55/1
f 21/11/1 39/55/1 35/56/1
f 24/57/1 23/52/1 17/10/1
f 27/58/1 24/57/1 17/10/1
f 21/11/1 35/56/1 37/59/1
f 21/11/1 37/59/1 33/60/1
f 31/61/1 27/58/1 17/10/1
f 21/11/1 33/60/1 29/12/1
f 29/12/1 31/61/1 17/10/1
f 15/13/4 17/62/4 18/14/4
f 40/16/5 39/63/5 22/17/5
f 40/64/6 20/65/6 19/19/6
f 15/20/6 16/66/6 26/67/6
f 15/20/6 26/67/6 25/68/6
f 36/69/6 40/64/6 19/19/6
f 38/70/6 36/69/6 19/19/6
f 15/20/6 25/68/6 28/71/6
f 15/20/6 28/71/6 32/72/6
f 34/73/6 38/70/6 19/19/6
f 15/20/6 32/72/6 30/21/6
f 30/21/6 34/73/6 19/19/6
f 33/22/7 37/37/7 38/23/7
f 26/25/5 16/74/5 18/26/5
f 27/28/8 31/38/8 32/29/8
f 29/31/9 33/22/9 34/24/9
f 24/33/10 27/28/10 28/30/10
f 35/35/11 39/63/11 40/16/11
f 24/33/12 25/34/12 26/25/12
f 37/37/13 35/35/13 36/36/13
f 31/38/14 29/31/14 30/32/14
