{
	"asset":{
		"generator":"Khronos glTF Blender I/O v4.4.55",
		"version":"2.0"
	},
	"scene":0,
	"scenes":[
		{
			"name":"Scene",
			"nodes":[
				0
			]
		}
	],
	"nodes":[
		{
			"mesh":0,
			"name":"standing_stone_634x01"
		}
	],
	"materials":[
		{
			"doubleSided":true,
			"name":"standing_stone",
			"pbrMetallicRoughness":{
				"baseColorTexture":{
					"index":0
				},
				"metallicFactor":0,
				"roughnessFactor":0.5
			}
		}
	],
	"meshes":[
		{
			"name":"stone.001",
			"primitives":[
				{
					"attributes":{
						"POSITION":0,
						"TEXCOORD_0":1
					},
					"indices":2,
					"material":0
				}
			]
		}
	],
	"textures":[
		{
			"sampler":0,
			"source":0
		}
	],
	"images":[
		{
			"mimeType":"image/png",
			"name":"634standing_stone",
			"uri":"634standing_stone.png"
		}
	],
	"accessors":[
		{
			"bufferView":0,
			"componentType":5126,
			"count":383,
			"max":[
				1.4763686656951904,
				2.671422004699707,
				1.2414520978927612
			],
			"min":[
				0.008830955252051353,
				0.0888335332274437,
				0.005963784642517567
			],
			"type":"VEC3"
		},
		{
			"bufferView":1,
			"componentType":5126,
			"count":383,
			"type":"VEC2"
		},
		{
			"bufferView":2,
			"componentType":5123,
			"count":2286,
			"type":"SCALAR"
		}
	],
	"bufferViews":[
		{
			"buffer":0,
			"byteLength":4596,
			"byteOffset":0,
			"target":34962
		},
		{
			"buffer":0,
			"byteLength":3064,
			"byteOffset":4596,
			"target":34962
		},
		{
			"buffer":0,
			"byteLength":4572,
			"byteOffset":7660,
			"target":34963
		}
	],
	"samplers":[
		{
			"magFilter":9728,
			"minFilter":9984
		}
	],
	"buffers":[
		{
			"byteLength":12232,
			"uri":"standing_stone_634x01.bin"
		}
	]
}
