{
	"asset":{
		"generator":"Khronos glTF Blender I/O v4.4.55",
		"version":"2.0"
	},
	"scene":0,
	"scenes":[
		{
			"name":"Scene",
			"nodes":[
				0
			]
		}
	],
	"nodes":[
		{
			"mesh":0,
			"name":"stone_chips_815x01"
		}
	],
	"materials":[
		{
			"doubleSided":true,
			"name":"stonechip",
			"pbrMetallicRoughness":{
				"baseColorTexture":{
					"index":0
				},
				"metallicFactor":0,
				"roughnessFactor":0.5
			}
		}
	],
	"meshes":[
		{
			"name":"Plane.066",
			"primitives":[
				{
					"attributes":{
						"POSITION":0,
						"TEXCOORD_0":1
					},
					"indices":2,
					"material":0
				}
			]
		}
	],
	"textures":[
		{
			"sampler":0,
			"source":0
		}
	],
	"images":[
		{
			"mimeType":"image/png",
			"name":"815stone_chips",
			"uri":"815stone_chips.png"
		}
	],
	"accessors":[
		{
			"bufferView":0,
			"componentType":5126,
			"count":52,
			"max":[
				0.6983070373535156,
				0.12648093700408936,
				0.35083287954330444
			],
			"min":[
				-0.0007060468196868896,
				0,
				0.0037786662578582764
			],
			"type":"VEC3"
		},
		{
			"bufferView":1,
			"componentType":5126,
			"count":52,
			"type":"VEC2"
		},
		{
			"bufferView":2,
			"componentType":5123,
			"count":300,
			"type":"SCALAR"
		}
	],
	"bufferViews":[
		{
			"buffer":0,
			"byteLength":624,
			"byteOffset":0,
			"target":34962
		},
		{
			"buffer":0,
			"byteLength":416,
			"byteOffset":624,
			"target":34962
		},
		{
			"buffer":0,
			"byteLength":600,
			"byteOffset":1040,
			"target":34963
		}
	],
	"samplers":[
		{
			"magFilter":9728,
			"minFilter":9984
		}
	],
	"buffers":[
		{
			"byteLength":1640,
			"uri":"stone_chips_815x01.bin"
		}
	]
}
