{
	"asset":{
		"generator":"Khronos glTF Blender I/O v4.4.55",
		"version":"2.0"
	},
	"scene":0,
	"scenes":[
		{
			"name":"Scene",
			"nodes":[
				0
			]
		}
	],
	"nodes":[
		{
			"mesh":0,
			"name":"sundial_284x00"
		}
	],
	"materials":[
		{
			"doubleSided":true,
			"name":"284sundial",
			"pbrMetallicRoughness":{
				"baseColorTexture":{
					"index":0
				},
				"metallicFactor":0,
				"roughnessFactor":0.5
			}
		}
	],
	"meshes":[
		{
			"name":"Cylinder",
			"primitives":[
				{
					"attributes":{
						"POSITION":0,
						"NORMAL":1,
						"TEXCOORD_0":2,
						"TANGENT":3
					},
					"indices":4,
					"material":0
				}
			]
		}
	],
	"textures":[
		{
			"sampler":0,
			"source":0
		}
	],
	"images":[
		{
			"mimeType":"image/png",
			"name":"284sundial",
			"uri":"284sundial.png"
		}
	],
	"accessors":[
		{
			"bufferView":0,
			"componentType":5126,
			"count":525,
			"max":[
				1.2298338413238525,
				2.1888303756713867,
				0.8796771764755249
			],
			"min":[
				-0.22975260019302368,
				0.0025060176849365234,
				0.19867080450057983
			],
			"type":"VEC3"
		},
		{
			"bufferView":1,
			"componentType":5126,
			"count":525,
			"type":"VEC3"
		},
		{
			"bufferView":2,
			"componentType":5126,
			"count":525,
			"type":"VEC2"
		},
		{
			"bufferView":3,
			"componentType":5126,
			"count":525,
			"type":"VEC4"
		},
		{
			"bufferView":4,
			"componentType":5123,
			"count":696,
			"type":"SCALAR"
		}
	],
	"bufferViews":[
		{
			"buffer":0,
			"byteLength":6300,
			"byteOffset":0,
			"target":34962
		},
		{
			"buffer":0,
			"byteLength":6300,
			"byteOffset":6300,
			"target":34962
		},
		{
			"buffer":0,
			"byteLength":4200,
			"byteOffset":12600,
			"target":34962
		},
		{
			"buffer":0,
			"byteLength":8400,
			"byteOffset":16800,
			"target":34962
		},
		{
			"buffer":0,
			"byteLength":1392,
			"byteOffset":25200,
			"target":34963
		}
	],
	"samplers":[
		{
			"magFilter":9728,
			"minFilter":9984
		}
	],
	"buffers":[
		{
			"byteLength":26592,
			"uri":"sundial_284x00.bin"
		}
	]
}
