# Blender 3.6.2
# www.blender.org
mtllib table_633_00.mtl
o top
v -1.824999 1.200001 -1.824999
v -1.496359 1.889929 -1.456314
v -1.824999 1.200001 -1.824999
v -1.974999 1.350001 -1.974999
v 0.875000 1.200001 -1.824999
v 0.546360 1.889929 -1.456314
v 1.025000 1.350001 -1.975000
v -1.824999 1.350001 -1.824999
v -1.824999 1.200001 0.875000
v -1.496359 1.889929 0.506314
v 0.875000 1.200001 -1.824999
v 1.025000 1.350001 -1.974999
v 0.875001 1.200001 0.875000
v 0.546360 1.889929 0.506314
v 0.875000 1.350001 -1.824999
v -1.824999 1.200001 0.875000
v -1.974999 1.350001 1.025000
v -1.824999 1.350001 0.875000
v 0.875001 1.200001 0.875000
v 1.025001 1.350001 1.025000
v 0.875001 1.350001 0.875000
v -1.974999 1.350001 -1.974999
v -1.974999 1.350001 -1.974999
v 1.025000 1.350001 -1.974999
v 1.025000 1.350001 -1.974999
v 0.875001 1.200001 0.875000
v 0.875000 1.200001 -1.824999
v -1.824999 1.200001 0.875000
v -1.824999 1.200001 -1.824999
v 0.875000 1.350001 -1.824999
v 0.875001 1.350001 0.875000
v 0.875001 1.200001 0.875000
v -1.825000 1.200001 -1.824999
v 0.875000 1.200001 -1.825000
v -1.824999 1.200001 0.875000
v 0.875000 1.350000 -1.824999
v 0.875001 1.350000 0.875000
v 0.875001 1.200001 0.875000
v 0.875000 1.200001 -1.825000
v -1.824999 1.200001 0.875000
v -1.825000 1.200001 -1.824999
v 0.875001 1.200001 0.874995
v 0.875001 1.200001 0.874992
v -1.974999 1.800001 -1.974999
v 1.025000 1.800001 -1.975000
v -1.974999 1.800001 1.025000
v 1.025001 1.800001 1.025000
v -1.787499 1.800001 -1.787499
v 0.837500 1.800001 -1.787500
v -1.787499 1.800001 0.837500
v 0.837501 1.800001 0.837500
v 0.425001 0.000000 0.425000
v 0.425001 1.200000 0.425000
v 0.875000 0.000000 0.425000
v 0.875000 1.200000 0.425000
v 0.425001 0.000000 0.875000
v 0.425001 1.200000 0.875000
v 0.875001 0.000000 0.875000
v 0.875001 1.200000 0.875000
v -1.821999 0.000000 0.425000
v -1.821999 1.200000 0.425000
v -1.371999 0.000000 0.425000
v -1.371999 1.200000 0.425000
v -1.821999 0.000000 0.875000
v -1.821999 1.200000 0.875000
v -1.371999 0.000000 0.875000
v -1.371999 1.200000 0.875000
v 0.425000 0.000000 -1.822000
v 0.425000 1.200000 -1.822000
v 0.875000 0.000000 -1.822000
v 0.875000 1.200000 -1.822000
v 0.425000 0.000000 -1.372000
v 0.425000 1.200000 -1.372000
v 0.875000 0.000000 -1.372000
v 0.875000 1.200000 -1.372000
v -1.822000 0.000000 -1.822000
v -1.822000 1.200000 -1.822000
v -1.372000 0.000000 -1.822000
v -1.372000 1.200000 -1.822000
v -1.821999 0.000000 -1.372000
v -1.821999 1.200000 -1.372000
v -1.372000 0.000000 -1.372000
v -1.372000 1.200000 -1.372000
vn -0.0000 0.9736 0.2282
vn -0.0000 1.0000 -0.0000
vn -0.0000 -1.0000 -0.0000
vn -0.0000 -0.0000 -1.0000
vn 1.0000 -0.0000 -0.0000
vn -0.0000 -0.0000 1.0000
vn -0.0000 0.9651 -0.2620
vn -0.2951 0.9555 -0.0000
vn -0.0000 0.9651 0.2620
vn 0.2951 0.9555 -0.0000
vn -1.0000 -0.0000 -0.0000
vt 0.625000 0.250000
vt 0.625000 0.000000
vt 0.362500 0.737500
vt 0.137500 0.737500
vt 0.648694 0.096624
vt 0.638771 0.101107
vt 0.649217 0.101107
vt 0.183341 0.132292
vt 0.187772 0.127860
vt 0.103571 0.132292
vt 0.232916 0.118118
vt 0.232916 0.135163
vt 0.488953 0.271300
vt 0.375000 0.271300
vt 0.375000 0.271300
vt 0.090393 0.137148
vt 0.194480 0.117974
vt 0.875000 0.500000
vt 0.375000 0.500000
vt 0.375000 0.499999
vt 0.375000 0.250000
vt 0.375000 0.250000
vt 0.375000 0.250000
vt 0.375000 0.000000
vt 0.375000 0.750000
vt 0.375000 0.500000
vt 0.375000 1.000000
vt 0.375000 0.750000
vt 0.570827 0.974096
vt 0.001116 0.998915
vt 0.028638 0.974096
vt 0.028076 0.969684
vt 0.001207 0.417189
vt 0.028076 0.446731
vt 0.031403 0.444590
vt 0.599704 0.418175
vt 0.571520 0.444590
vt 0.571912 0.444900
vt 0.600024 0.997438
vt 0.571912 0.971539
vt 0.088877 0.918579
vt 0.569019 0.969407
vt 0.031074 0.969407
vt 0.086691 0.498816
vt 0.030271 0.975699
vt 0.030271 0.445899
vt 0.512021 0.499508
vt 0.029501 0.444366
vt 0.569806 0.444366
vt 0.517015 0.496682
vt 0.574366 0.969394
vt 0.515890 0.913888
vt 0.763656 0.970485
vt 0.687450 0.970485
vt 0.687234 0.419534
vt 0.768585 0.419534
vt 0.768585 0.419534
vt 0.137500 0.512500
vt 0.137500 0.512500
vt 0.648694 0.015932
vt 0.649217 0.011449
vt 0.090393 0.117974
vt 0.362500 0.512500
vt 0.362500 0.512500
vt 0.375000 0.500000
vt 0.375000 0.500000
vt 0.599666 0.998915
vt 0.001207 0.994851
vt 0.000540 0.418175
vt 0.600024 0.416397
vt 0.517936 0.918578
vt 0.086691 0.914032
vt 0.089536 0.499508
vt 0.574366 0.445550
vt 0.029423 0.333307
vt 0.029423 0.252867
vt 0.599706 0.252867
vt 0.599706 0.333307
vt 0.194480 0.137148
vt 0.602451 0.105670
vt 0.602451 0.000639
vt 0.681302 0.000639
vt 0.681302 0.105670
vt 0.375000 0.252189
vt 0.488953 0.252189
vt 0.687450 0.418427
vt 0.763656 0.418427
vt 0.625000 0.500000
vt 0.768585 0.970169
vt 0.687234 0.970169
vt 0.699678 0.115501
vt 0.761331 0.115501
vt 0.761331 0.195004
vt 0.699678 0.195004
vt 0.875000 0.750000
vt 0.625000 0.750000
vt 0.375000 0.750000
vt 0.688575 0.111206
vt 0.800773 0.111206
vt 0.800773 0.193711
vt 0.688575 0.193711
vt 0.594444 0.255240
vt 0.594444 0.330980
vt 0.038955 0.330980
vt 0.038955 0.255240
vt 0.606515 0.093066
vt 0.606515 0.006275
vt 0.681196 0.006275
vt 0.681196 0.093066
vt 0.125000 0.750000
vt 0.125000 0.500000
vt 0.907206 0.726282
vt 0.907206 0.805188
vt 0.860183 0.805188
vt 0.860183 0.726282
vt 0.090393 0.135163
vt 0.090393 0.118118
vt 0.605952 0.101476
vt 0.605952 0.007344
vt 0.626319 0.007344
vt 0.626319 0.101476
vt 0.087534 0.917707
vt 0.087534 0.503523
vt 0.514282 0.503523
vt 0.514282 0.917707
s 0
usemtl Top
f 25/1/1 12/1/1 22/2/1
f 16/3/2 3/4/2 28/3/2
f 18/5/3 17/6/3 4/7/3
f 15/8/3 20/9/3 21/10/3
f 8/11/4 30/12/4 36/12/4
f 37/13/5 19/14/5 43/15/5
f 16/16/6 37/17/6 31/17/6
f 1/4/2 41/4/2 40/3/2
f 7/18/3 24/18/3 25/18/3
f 13/19/5 43/20/5 19/19/5
f 43/20/5 5/21/5 27/22/5
f 34/23/2 41/24/2 39/23/2
f 34/21/5 13/19/5 32/19/5
f 40/25/2 32/26/2 38/26/2
f 41/27/2 35/28/2 40/28/2
f 49/29/2 44/30/2 48/31/2
f 48/32/2 46/33/2 50/34/2
f 50/35/2 47/36/2 51/37/2
f 51/38/2 45/39/2 49/40/2
f 2/41/7 49/42/7 48/43/7
f 10/44/8 48/45/8 50/46/8
f 14/47/9 50/48/9 51/49/9
f 14/50/10 49/51/10 6/52/10
f 12/53/5 24/53/5 7/53/5
f 12/53/5 7/53/5 45/54/5
f 44/55/2 23/56/2 22/56/2
f 44/55/6 22/56/6 4/57/6
f 25/1/6 24/1/6 12/1/6
f 12/1/6 4/2/6 22/2/6
f 11/58/2 27/58/2 29/4/2
f 28/3/2 26/59/2 19/58/2
f 3/4/2 11/58/2 29/4/2
f 28/3/2 19/58/2 16/3/2
f 3/4/2 29/4/2 28/3/2
f 18/5/3 21/60/3 20/61/3
f 4/7/3 12/61/3 15/60/3
f 4/7/3 15/60/3 8/5/3
f 18/5/3 20/61/3 17/6/3
f 4/7/3 8/5/3 18/5/3
f 15/8/3 12/9/3 20/9/3
f 8/11/4 15/12/4 30/12/4
f 16/16/6 19/62/6 37/17/6
f 38/63/2 13/64/2 9/3/2
f 1/4/2 5/58/2 39/58/2
f 40/3/2 38/63/2 9/3/2
f 1/4/2 39/58/2 41/4/2
f 40/3/2 9/3/2 1/4/2
f 13/19/5 42/65/5 43/20/5
f 19/19/2 26/66/2 13/19/2
f 43/20/5 42/65/5 5/21/5
f 27/22/2 11/22/2 43/20/2
f 34/23/2 33/24/2 41/24/2
f 34/21/2 39/21/2 5/21/2
f 5/21/11 42/65/11 13/19/11
f 34/21/2 5/21/2 13/19/2
f 13/19/2 38/19/2 32/19/2
f 40/25/2 35/25/2 32/26/2
f 41/27/2 33/27/2 35/28/2
f 49/29/2 45/67/2 44/30/2
f 48/32/2 44/68/2 46/33/2
f 50/35/2 46/69/2 47/36/2
f 51/38/2 47/70/2 45/39/2
f 2/41/7 6/71/7 49/42/7
f 10/44/8 2/72/8 48/45/8
f 14/47/9 10/73/9 50/48/9
f 14/50/10 51/74/10 49/51/10
f 46/75/6 17/76/6 20/77/6 47/78/6
f 16/16/6 31/17/6 21/17/6 18/79/6
f 81/80/6 80/81/6 82/82/6 83/83/6
f 43/15/5 11/84/5 36/85/5 37/13/5
f 47/86/5 20/87/5 12/53/5 45/54/5
f 31/88/5 30/1/5 15/1/5 21/88/5
f 17/89/11 46/90/11 44/55/11 4/57/11
f 79/91/4 78/92/4 76/93/4 77/94/4
f 69/95/2 73/96/2 75/88/2 71/18/2
f 25/18/3 22/95/3 23/95/3 7/18/3
f 13/19/6 26/66/6 28/97/6 9/25/6
f 9/25/11 28/97/11 29/27/11 1/27/11
f 55/91/4 54/92/4 52/93/4 53/94/4
f 59/98/5 58/99/5 54/100/5 55/101/5
f 57/80/6 56/81/6 58/82/6 59/83/6
f 77/95/2 81/96/2 83/88/2 79/18/2
f 45/102/4 7/103/4 23/104/4 44/105/4
f 53/106/11 52/107/11 56/108/11 57/109/11
f 56/25/3 52/110/3 54/111/3 58/19/3
f 67/98/5 66/99/5 62/100/5 63/101/5
f 65/80/6 64/81/6 66/82/6 67/83/6
f 61/106/11 60/107/11 64/108/11 65/109/11
f 64/25/3 60/110/3 62/111/3 66/19/3
f 61/95/2 65/96/2 67/88/2 63/18/2
f 71/91/4 70/92/4 68/93/4 69/94/4
f 75/98/5 74/99/5 70/100/5 71/101/5
f 73/80/6 72/81/6 74/82/6 75/83/6
f 69/106/11 68/107/11 72/108/11 73/109/11
f 29/24/4 27/22/4 5/23/4 1/24/4
f 35/112/3 33/113/3 34/114/3 32/115/3
f 8/11/4 36/12/4 11/116/4 3/117/4
f 72/25/3 68/110/3 70/111/3 74/19/3
f 16/118/11 18/119/11 8/120/11 3/121/11
f 37/88/5 36/1/5 30/1/5 31/88/5
f 83/98/5 82/99/5 78/100/5 79/101/5
f 2/122/2 10/123/2 14/124/2 6/125/2
f 77/106/11 76/107/11 80/108/11 81/109/11
f 80/25/3 76/110/3 78/111/3 82/19/3
f 63/91/4 62/92/4 60/93/4 61/94/4
f 53/95/2 57/96/2 59/88/2 55/18/2
o BezierCircle
v -1.625000 6.590000 0.625000
v -1.615868 6.590000 0.489339
v -1.589268 6.590000 0.359216
v -1.546393 6.590000 0.235822
v -1.488435 6.590000 0.120352
v -1.416589 6.590000 0.013998
v -1.332047 6.590000 -0.082047
v -1.236002 6.590000 -0.166589
v -1.129648 6.590000 -0.238435
v -1.014178 6.590000 -0.296392
v -0.890784 6.590000 -0.339268
v -0.760661 6.590000 -0.365868
v -0.625000 6.590000 -0.375000
v -0.489339 6.590000 -0.365868
v -0.359216 6.590000 -0.339268
v -0.235822 6.590000 -0.296393
v -0.120352 6.590000 -0.238435
v -0.013998 6.590000 -0.166589
v 0.082047 6.590000 -0.082047
v 0.166589 6.590000 0.013998
v 0.238435 6.590000 0.120352
v 0.296392 6.590000 0.235822
v 0.339268 6.590000 0.359216
v 0.365868 6.590000 0.489339
v 0.375000 6.590000 0.625000
v 0.365868 6.590000 0.760661
v 0.339268 6.590000 0.890784
v 0.296393 6.590000 1.014178
v 0.238435 6.590000 1.129648
v 0.166589 6.590000 1.236002
v 0.082047 6.590000 1.332047
v -0.013998 6.590000 1.416589
v -0.120352 6.590000 1.488435
v -0.235822 6.590000 1.546392
v -0.359216 6.590000 1.589268
v -0.489339 6.590000 1.615868
v -0.625000 6.590000 1.625000
v -0.760661 6.590000 1.615868
v -0.890784 6.590000 1.589268
v -1.014178 6.590000 1.546393
v -1.129648 6.590000 1.488435
v -1.236002 6.590000 1.416589
v -1.332047 6.590000 1.332047
v -1.416589 6.590000 1.236002
v -1.488435 6.590000 1.129648
v -1.546392 6.590000 1.014178
v -1.589268 6.590000 0.890784
v -1.615868 6.590000 0.760660
l 84 85
l 85 86
l 86 87
l 87 88
l 88 89
l 89 90
l 90 91
l 91 92
l 92 93
l 93 94
l 94 95
l 95 96
l 96 97
l 97 98
l 98 99
l 99 100
l 100 101
l 101 102
l 102 103
l 103 104
l 104 105
l 105 106
l 106 107
l 107 108
l 108 109
l 109 110
l 110 111
l 111 112
l 112 113
l 113 114
l 114 115
l 115 116
l 116 117
l 117 118
l 118 119
l 119 120
l 120 121
l 121 122
l 122 123
l 123 124
l 124 125
l 125 126
l 126 127
l 127 128
l 128 129
l 129 130
l 130 131
l 131 84
