# Blender 4.4.0
# www.blender.org
mtllib table_0x279_005.mtl
o top
v -1.187500 0.500000 1.187500
v -1.033881 0.787470 1.050566
v -1.187500 0.500000 1.187500
v -1.250000 0.562500 1.250000
v -1.187500 0.500000 0.062500
v -1.033881 0.787470 0.199433
v -1.250000 0.562500 -0.000000
v -1.187500 0.562500 1.187500
v -0.062500 0.500000 1.187500
v -0.216119 0.787470 1.050566
v -1.187500 0.500000 0.062500
v -1.250000 0.562500 -0.000000
v -0.062500 0.500000 0.062500
v -0.216119 0.787470 0.199433
v -1.187500 0.562500 0.062500
v -0.062500 0.500000 1.187500
v 0.000000 0.562500 1.250000
v -0.062500 0.562500 1.187500
v -0.062500 0.500000 0.062500
v 0.000000 0.562500 -0.000000
v -0.062500 0.562500 0.062500
v -1.250000 0.562500 1.250000
v -1.250000 0.562500 1.250000
v -1.250000 0.562500 -0.000000
v -1.250000 0.562500 -0.000000
v -0.062500 0.500000 0.062500
v -1.187500 0.500000 0.062500
v -0.062500 0.500000 1.187500
v -1.187500 0.500000 1.187500
v -1.187500 0.562500 0.062500
v -0.062500 0.562500 0.062500
v -0.062500 0.500000 0.062500
v -1.187500 0.500000 1.187500
v -1.187500 0.500000 0.062500
v -0.062500 0.500000 1.187500
v -1.187500 0.562500 0.062500
v -0.062500 0.562500 0.062500
v -0.062500 0.500000 0.062500
v -1.187500 0.500000 0.062500
v -0.062500 0.500000 1.187500
v -1.187500 0.500000 1.187500
v -0.062502 0.500000 0.062500
v -0.062503 0.500000 0.062500
v -1.250000 0.750000 1.250000
v -1.250000 0.750000 -0.000000
v 0.000000 0.750000 1.250000
v 0.000000 0.750000 -0.000000
v -1.171875 0.750000 1.171875
v -1.171875 0.750000 0.078125
v -0.078125 0.750000 1.171875
v -0.078125 0.750000 0.078125
v -0.250000 0.000000 0.250000
v -0.250000 0.500000 0.250000
v -0.250000 0.000000 0.062500
v -0.250000 0.500000 0.062500
v -0.062500 0.000000 0.250000
v -0.062500 0.500000 0.250000
v -0.062500 0.000000 0.062500
v -0.062500 0.500000 0.062500
v -0.250000 0.000000 1.186250
v -0.250000 0.500000 1.186250
v -0.250000 0.000000 0.998750
v -0.250000 0.500000 0.998750
v -0.062500 0.000000 1.186250
v -0.062500 0.500000 1.186250
v -0.062500 0.000000 0.998750
v -0.062500 0.500000 0.998750
v -1.186250 0.000000 0.250000
v -1.186250 0.500000 0.250000
v -1.186250 0.000000 0.062500
v -1.186250 0.500000 0.062500
v -0.998750 0.000000 0.250000
v -0.998750 0.500000 0.250000
v -0.998750 0.000000 0.062500
v -0.998750 0.500000 0.062500
v -1.186250 0.000000 1.186250
v -1.186250 0.500000 1.186250
v -1.186250 0.000000 0.998750
v -1.186250 0.500000 0.998750
v -0.998750 0.000000 1.186250
v -0.998750 0.500000 1.186250
v -0.998750 0.000000 0.998750
v -0.998750 0.500000 0.998750
vn -1.0000 -0.0000 -0.0000
vn -0.0000 -0.0000 -1.0000
vn -0.0000 -0.0000 1.0000
vn 1.0000 -0.0000 -0.0000
vn -0.0000 -1.0000 -0.0000
vn -0.0000 1.0000 -0.0000
vn -0.0000 -0.0000 -0.0000
vn 1.0000 0.0001 -0.0000
vn -0.4472 -0.0000 0.8944
vn 0.4472 -0.0000 0.8944
vn -1.0000 -0.0001 -0.0000
vn -0.2620 0.9651 -0.0000
vn -0.0000 0.9555 0.2951
vn 0.2620 0.9651 -0.0000
vn -0.0000 0.9555 -0.2951
vt 0.038955 0.255240
vt 0.594444 0.330980
vt 0.038955 0.330980
vt 0.687450 0.970485
vt 0.763656 0.418427
vt 0.763656 0.970485
vt 0.599706 0.333307
vt 0.029423 0.252867
vt 0.599706 0.252867
vt 0.768585 0.419534
vt 0.768585 0.970169
vt 0.687234 0.419534
vt 0.860183 0.726282
vt 0.907206 0.805188
vt 0.860183 0.805188
vt 0.514282 0.917707
vt 0.087534 0.503523
vt 0.514282 0.503523
vt 0.625000 0.250000
vt 0.625000 0.000000
vt 0.362500 0.737500
vt 0.137500 0.737500
vt 0.648694 0.096624
vt 0.638771 0.101107
vt 0.649217 0.101107
vt 0.183341 0.132292
vt 0.187772 0.127860
vt 0.103571 0.132292
vt 0.232916 0.118118
vt 0.232916 0.135163
vt 0.090393 0.135163
vt 0.625000 0.500000
vt 0.488953 0.271300
vt 0.375000 0.271300
vt 0.194480 0.137148
vt 0.090393 0.117974
vt 0.194480 0.117974
vt 0.626319 0.101476
vt 0.605952 0.007344
vt 0.626319 0.007344
vt 0.875000 0.750000
vt 0.875000 0.500000
vt 0.375000 0.250000
vt 0.375000 0.000000
vt 0.375000 0.500000
vt 0.375000 0.499999
vt 0.375000 0.750000
vt 0.375000 1.000000
vt 0.570827 0.974096
vt 0.001116 0.998915
vt 0.028638 0.974096
vt 0.028076 0.969684
vt 0.001207 0.417189
vt 0.028076 0.446731
vt 0.031403 0.444590
vt 0.599704 0.418175
vt 0.571520 0.444590
vt 0.571912 0.444900
vt 0.600024 0.997438
vt 0.571912 0.971539
vt 0.088877 0.918579
vt 0.569019 0.969407
vt 0.031074 0.969407
vt 0.086691 0.914032
vt 0.030271 0.445899
vt 0.086691 0.498816
vt 0.089536 0.499508
vt 0.569806 0.444366
vt 0.512021 0.499508
vt 0.517015 0.496682
vt 0.574366 0.969394
vt 0.515890 0.913888
vt 0.699678 0.195004
vt 0.761331 0.115501
vt 0.761331 0.195004
vt 0.688575 0.193711
vt 0.800773 0.111206
vt 0.800773 0.193711
vt 0.681302 0.105670
vt 0.602451 0.000639
vt 0.681302 0.000639
vt 0.681196 0.093066
vt 0.606515 0.006275
vt 0.681196 0.006275
vt 0.125000 0.750000
vt 0.125000 0.500000
vt 0.625000 0.750000
vt 0.594444 0.255240
vt 0.687450 0.418427
vt 0.029423 0.333307
vt 0.687234 0.970169
vt 0.907206 0.726282
vt 0.087534 0.917707
vt 0.137500 0.512500
vt 0.648694 0.015932
vt 0.649217 0.011449
vt 0.090393 0.118118
vt 0.375000 0.252189
vt 0.488953 0.252189
vt 0.090393 0.137148
vt 0.605952 0.101476
vt 0.362500 0.512500
vt 0.599666 0.998915
vt 0.001207 0.994851
vt 0.000540 0.418175
vt 0.600024 0.416397
vt 0.517936 0.918578
vt 0.030271 0.975699
vt 0.029501 0.444366
vt 0.574366 0.445550
vt 0.699678 0.115501
vt 0.688575 0.111206
vt 0.602451 0.105670
vt 0.606515 0.093066
s 1
usemtl Top.001
f 44/1/1 7/2/1 23/3/1
f 45/4/2 20/5/2 12/6/3
f 47/7/4 17/8/4 20/9/4
f 23/10/3 17/11/3 44/12/3
f 32/13/5 33/14/5 34/15/5
f 6/16/6 10/17/6 14/18/6
s 0
f 24/19/7 12/19/7 22/20/7
f 16/21/8 3/22/2 29/22/1
s 1
f 18/23/5 17/24/5 4/25/5
f 15/26/5 20/27/5 21/28/5
f 8/29/1 15/30/9 11/31/1
s 0
f 15/19/1 31/32/8 30/19/3
f 30/19/1 37/32/8 36/19/3
s 1
f 37/33/2 19/34/2 43/34/2
f 18/35/4 19/36/4 37/37/10
f 3/38/3 18/39/3 8/40/3
s 0
f 9/21/8 1/22/2 41/22/1
f 23/41/7 25/42/7 22/41/7
f 7/42/3 24/42/3 25/42/3
f 5/43/7 29/44/7 27/43/7
f 42/45/4 43/46/11 19/45/3
f 43/46/1 42/45/8 5/43/3
f 28/47/7 13/45/7 26/45/7
f 29/48/3 9/47/3 28/47/3
f 34/43/7 41/44/7 39/43/7
s 1
f 34/43/2 42/45/6 32/45/5
s 0
f 40/47/7 32/45/7 38/45/7
f 41/48/4 35/47/3 40/47/1
s 1
f 49/49/6 44/50/6 48/51/6
f 48/52/6 46/53/6 50/54/6
f 50/55/6 47/56/6 51/57/6
f 51/58/6 45/59/6 49/60/6
f 2/61/12 49/62/12 48/63/12
f 2/64/13 50/65/13 10/66/13
f 10/67/14 51/68/14 14/69/14
f 14/70/15 49/71/15 6/72/15
f 44/1/1 45/88/1 7/2/1
f 45/4/2 47/89/2 20/5/2
f 12/6/3 24/6/2 7/6/1
f 12/6/3 7/6/1 45/4/2
f 47/7/4 46/90/4 17/8/4
f 17/11/3 46/91/3 44/12/3
f 23/10/3 22/10/2 4/10/6
f 23/10/3 4/10/6 17/11/3
f 32/13/5 35/92/5 33/14/5
f 6/16/6 2/93/6 10/17/6
s 0
f 22/20/7 25/19/7 24/19/7
f 12/19/7 4/20/7 22/20/7
f 26/94/7 19/94/7 16/21/7
f 28/21/7 26/94/7 16/21/7
f 11/94/7 27/94/7 29/22/7
f 3/22/7 11/94/7 29/22/7
f 29/22/11 28/21/2 16/21/4
s 1
f 18/23/5 21/95/5 20/96/5
f 4/25/5 12/96/5 15/95/5
f 4/25/5 15/95/5 8/23/5
f 18/23/5 20/96/5 17/24/5
f 4/25/5 8/23/5 18/23/5
f 15/26/5 12/27/5 20/27/5
f 11/31/1 3/97/1 8/29/1
f 15/30/9 30/30/2 36/30/4
f 15/30/9 36/30/4 11/31/1
s 0
f 15/19/11 21/32/3 31/32/4
f 30/19/11 31/32/3 37/32/4
s 1
f 11/98/2 36/99/2 43/34/2
f 36/99/2 37/33/2 43/34/2
f 18/35/4 16/100/4 19/36/4
f 37/37/10 31/37/2 21/37/7
f 37/37/10 21/37/7 18/35/4
f 3/38/3 16/101/3 18/39/3
s 0
f 38/102/7 13/102/7 9/21/7
f 40/21/7 38/102/7 9/21/7
f 5/94/7 39/94/7 41/22/7
f 1/22/7 5/94/7 41/22/7
f 41/22/11 40/21/2 9/21/4
f 23/41/7 7/42/7 25/42/7
f 5/43/7 1/44/7 29/44/7
f 19/45/3 26/45/3 13/45/2
f 19/45/3 13/45/4 42/45/4
f 5/43/3 27/43/3 11/43/2
f 5/43/3 11/43/1 43/46/1
f 28/47/7 9/47/7 13/45/7
f 29/48/3 1/48/3 9/47/3
f 34/43/7 33/44/7 41/44/7
s 1
f 34/43/2 39/43/2 5/43/6
f 34/43/2 5/43/6 42/45/6
f 13/45/2 38/45/2 32/45/5
f 42/45/6 13/45/2 32/45/5
s 0
f 40/47/7 35/47/7 32/45/7
f 41/48/3 33/48/1 35/47/1
s 1
f 49/49/6 45/103/6 44/50/6
f 48/52/6 44/104/6 46/53/6
f 50/55/6 46/105/6 47/56/6
f 51/58/6 47/106/6 45/59/6
f 2/61/12 6/107/12 49/62/12
f 2/64/13 48/108/13 50/65/13
f 10/67/14 50/109/14 51/68/14
f 14/70/15 51/110/15 49/71/15
usemtl Material.legs.001
f 53/73/1 54/74/1 52/75/1
f 55/76/2 58/77/2 54/78/2
f 59/79/4 56/80/4 58/81/4
f 57/82/3 52/83/3 56/84/3
f 58/45/5 52/85/5 54/86/5
f 55/42/6 57/87/6 59/32/6
f 61/73/1 62/74/1 60/75/1
f 63/76/2 66/77/2 62/78/2
f 67/79/4 64/80/4 66/81/4
f 65/82/3 60/83/3 64/84/3
f 66/45/5 60/85/5 62/86/5
f 63/42/6 65/87/6 67/32/6
f 69/73/1 70/74/1 68/75/1
f 71/76/2 74/77/2 70/78/2
f 75/79/4 72/80/4 74/81/4
f 73/82/3 68/83/3 72/84/3
f 74/45/5 68/85/5 70/86/5
f 71/42/6 73/87/6 75/32/6
f 77/73/1 78/74/1 76/75/1
f 79/76/2 82/77/2 78/78/2
f 83/79/4 80/80/4 82/81/4
f 81/82/3 76/83/3 80/84/3
f 82/45/5 76/85/5 78/86/5
f 79/42/6 81/87/6 83/32/6
f 53/73/1 55/111/1 54/74/1
f 55/76/2 59/112/2 58/77/2
f 59/79/4 57/113/4 56/80/4
f 57/82/3 53/114/3 52/83/3
f 58/45/5 56/47/5 52/85/5
f 55/42/6 53/41/6 57/87/6
f 61/73/1 63/111/1 62/74/1
f 63/76/2 67/112/2 66/77/2
f 67/79/4 65/113/4 64/80/4
f 65/82/3 61/114/3 60/83/3
f 66/45/5 64/47/5 60/85/5
f 63/42/6 61/41/6 65/87/6
f 69/73/1 71/111/1 70/74/1
f 71/76/2 75/112/2 74/77/2
f 75/79/4 73/113/4 72/80/4
f 73/82/3 69/114/3 68/83/3
f 74/45/5 72/47/5 68/85/5
f 71/42/6 69/41/6 73/87/6
f 77/73/1 79/111/1 78/74/1
f 79/76/2 83/112/2 82/77/2
f 83/79/4 81/113/4 80/80/4
f 81/82/3 77/114/3 76/83/3
f 82/45/5 80/47/5 76/85/5
f 79/42/6 77/41/6 81/87/6
