# Blender 3.6.2
# www.blender.org
mtllib table_0x279_005.mtl
o top
v -1.187500 0.500000 1.187500
v -1.033881 0.787470 1.050566
v -1.187500 0.500000 1.187500
v -1.250000 0.562500 1.250000
v -1.187500 0.500000 0.062500
v -1.033881 0.787470 0.199433
v -1.250000 0.562500 0.000000
v -1.187500 0.562500 1.187500
v -0.062500 0.500000 1.187500
v -0.216119 0.787470 1.050566
v -1.187500 0.500000 0.062500
v -1.250000 0.562500 0.000000
v -0.062500 0.500000 0.062500
v -0.216119 0.787470 0.199433
v -1.187500 0.562500 0.062500
v -0.062500 0.500000 1.187500
v -0.000000 0.562500 1.250000
v -0.062500 0.562500 1.187500
v -0.062500 0.500000 0.062500
v -0.000000 0.562500 0.000000
v -0.062500 0.562500 0.062500
v -1.250000 0.562500 1.250000
v -1.250000 0.562500 1.250000
v -1.250000 0.562500 0.000000
v -1.250000 0.562500 0.000000
v -0.062500 0.500000 0.062500
v -1.187500 0.500000 0.062500
v -0.062500 0.500000 1.187500
v -1.187500 0.500000 1.187500
v -1.187500 0.562500 0.062500
v -0.062500 0.562500 0.062500
v -0.062500 0.500000 0.062500
v -1.187500 0.500000 1.187500
v -1.187500 0.500000 0.062500
v -0.062500 0.500000 1.187500
v -1.187500 0.562500 0.062500
v -0.062500 0.562500 0.062500
v -0.062500 0.500000 0.062500
v -1.187500 0.500000 0.062500
v -0.062500 0.500000 1.187500
v -1.187500 0.500000 1.187500
v -0.062502 0.500000 0.062500
v -0.062503 0.500000 0.062500
v -1.250000 0.750000 1.250000
v -1.250000 0.750000 0.000000
v -0.000000 0.750000 1.250000
v -0.000000 0.750000 0.000000
v -1.171875 0.750000 1.171875
v -1.171875 0.750000 0.078125
v -0.078125 0.750000 1.171875
v -0.078125 0.750000 0.078125
v -0.250000 0.000000 0.250000
v -0.250000 0.500000 0.250000
v -0.250000 0.000000 0.062500
v -0.250000 0.500000 0.062500
v -0.062500 0.000000 0.250000
v -0.062500 0.500000 0.250000
v -0.062500 0.000000 0.062500
v -0.062500 0.500000 0.062500
v -0.250000 0.000000 1.186250
v -0.250000 0.500000 1.186250
v -0.250000 0.000000 0.998750
v -0.250000 0.500000 0.998750
v -0.062500 0.000000 1.186250
v -0.062500 0.500000 1.186250
v -0.062500 0.000000 0.998750
v -0.062500 0.500000 0.998750
v -1.186250 0.000000 0.250000
v -1.186250 0.500000 0.250000
v -1.186250 0.000000 0.062500
v -1.186250 0.500000 0.062500
v -0.998750 0.000000 0.250000
v -0.998750 0.500000 0.250000
v -0.998750 0.000000 0.062500
v -0.998750 0.500000 0.062500
v -1.186250 0.000000 1.186250
v -1.186250 0.500000 1.186250
v -1.186250 0.000000 0.998750
v -1.186250 0.500000 0.998750
v -0.998750 0.000000 1.186250
v -0.998750 0.500000 1.186250
v -0.998750 0.000000 0.998750
v -0.998750 0.500000 0.998750
vn -1.0000 -0.0000 -0.0000
vn -0.0000 -0.0000 -1.0000
vn 1.0000 -0.0000 -0.0000
vn -0.0000 -0.0000 1.0000
vn -0.0000 -1.0000 -0.0000
vn -0.0000 1.0000 -0.0000
vn -0.2620 0.9651 -0.0000
vn -0.0000 0.9555 0.2951
vn 0.2620 0.9651 -0.0000
vn -0.0000 0.9555 -0.2951
vt 0.038955 0.330980
vt 0.038955 0.255240
vt 0.594444 0.255240
vt 0.594444 0.330980
vt 0.763656 0.970485
vt 0.687450 0.970485
vt 0.687450 0.418427
vt 0.763656 0.418427
vt 0.599706 0.252867
vt 0.599706 0.333307
vt 0.029423 0.333307
vt 0.029423 0.252867
vt 0.768585 0.419534
vt 0.768585 0.419534
vt 0.768585 0.970169
vt 0.687234 0.970169
vt 0.687234 0.419534
vt 0.860183 0.805188
vt 0.860183 0.726282
vt 0.907206 0.726282
vt 0.907206 0.805188
vt 0.514282 0.503523
vt 0.514282 0.917707
vt 0.087534 0.917707
vt 0.087534 0.503523
vt 0.625000 0.250000
vt 0.625000 0.000000
vt 0.137500 0.512500
vt 0.362500 0.737500
vt 0.137500 0.737500
vt 0.137500 0.512500
vt 0.648694 0.096624
vt 0.648694 0.015932
vt 0.649217 0.011449
vt 0.638771 0.101107
vt 0.649217 0.101107
vt 0.103571 0.132292
vt 0.183341 0.132292
vt 0.187772 0.127860
vt 0.090393 0.118118
vt 0.232916 0.118118
vt 0.232916 0.135163
vt 0.090393 0.135163
vt 0.625000 0.500000
vt 0.488953 0.252189
vt 0.488953 0.271300
vt 0.375000 0.271300
vt 0.375000 0.271300
vt 0.375000 0.252189
vt 0.194480 0.137148
vt 0.090393 0.137148
vt 0.090393 0.117974
vt 0.194480 0.117974
vt 0.626319 0.007344
vt 0.626319 0.101476
vt 0.605952 0.101476
vt 0.605952 0.007344
vt 0.362500 0.512500
vt 0.362500 0.512500
vt 0.875000 0.750000
vt 0.875000 0.500000
vt 0.375000 0.250000
vt 0.375000 0.000000
vt 0.375000 0.250000
vt 0.375000 0.500000
vt 0.375000 0.500000
vt 0.375000 0.499999
vt 0.375000 0.500000
vt 0.375000 0.250000
vt 0.375000 0.750000
vt 0.375000 0.750000
vt 0.375000 1.000000
vt 0.375000 0.500000
vt 0.375000 0.750000
vt 0.028638 0.974096
vt 0.570827 0.974096
vt 0.599666 0.998915
vt 0.001116 0.998915
vt 0.028076 0.446731
vt 0.028076 0.969684
vt 0.001207 0.994851
vt 0.001207 0.417189
vt 0.571520 0.444590
vt 0.031403 0.444590
vt 0.000540 0.418175
vt 0.599704 0.418175
vt 0.571912 0.971539
vt 0.571912 0.444900
vt 0.600024 0.416397
vt 0.600024 0.997438
vt 0.088877 0.918579
vt 0.517936 0.918578
vt 0.569019 0.969407
vt 0.031074 0.969407
vt 0.086691 0.498816
vt 0.086691 0.914032
vt 0.030271 0.975699
vt 0.030271 0.445899
vt 0.512021 0.499508
vt 0.089536 0.499508
vt 0.029501 0.444366
vt 0.569806 0.444366
vt 0.515890 0.913888
vt 0.517015 0.496682
vt 0.574366 0.445550
vt 0.574366 0.969394
vt 0.761331 0.195004
vt 0.699678 0.195004
vt 0.699678 0.115501
vt 0.761331 0.115501
vt 0.800773 0.193711
vt 0.688575 0.193711
vt 0.688575 0.111206
vt 0.800773 0.111206
vt 0.681302 0.000639
vt 0.681302 0.105670
vt 0.602451 0.105670
vt 0.602451 0.000639
vt 0.681196 0.006275
vt 0.681196 0.093066
vt 0.606515 0.093066
vt 0.606515 0.006275
vt 0.125000 0.500000
vt 0.125000 0.750000
vt 0.625000 0.750000
s 0
usemtl Top
f 23/1/1 44/2/1 45/3/1 7/4/1
f 24/5/2 7/5/2 45/6/2 47/7/2 20/8/2 12/5/2
f 20/9/3 47/10/3 46/11/3 17/12/3
f 23/13/4 22/13/4 4/14/4 17/15/4 46/16/4 44/17/4
f 34/18/5 32/19/5 35/20/5 33/21/5
f 14/22/6 6/23/6 2/24/6 10/25/6
f 25/26/3 24/26/3 12/26/3 4/27/3 22/27/3
f 19/28/6 16/29/6 3/30/6 11/28/6 27/28/6 29/30/6 28/29/6 26/31/6
f 18/32/5 21/33/5 20/34/5 17/35/5 4/36/5 12/34/5 15/33/5 8/32/5
f 21/37/5 15/38/5 12/39/5 20/39/5
f 3/40/1 8/41/1 15/42/1 30/42/1 36/42/1 11/43/1
f 15/26/2 21/44/2 31/44/2 30/26/2
f 30/26/2 31/44/2 37/44/2 36/26/2
f 36/45/2 37/46/2 19/47/2 43/48/2 11/49/2
f 18/50/3 16/51/3 19/52/3 37/53/3 31/53/3 21/53/3
f 8/54/4 3/55/4 16/56/4 18/57/4
f 13/58/6 9/29/6 1/30/6 5/28/6 39/28/6 41/30/6 40/29/6 38/59/6
f 23/60/1 7/61/1 25/61/1 22/60/1
f 7/61/6 24/61/6 25/61/6
f 5/62/1 1/63/1 29/63/1 27/64/1
f 13/65/2 42/66/2 43/67/2 19/65/2 26/68/2
f 11/64/2 43/67/2 42/66/2 5/69/2 27/64/2
f 28/70/3 9/71/3 13/65/3 26/68/3
f 29/72/4 1/72/4 9/71/4 28/70/4
f 34/62/6 33/63/6 41/63/6 39/62/6
f 34/69/6 39/69/6 5/69/6 42/66/6 13/65/6 38/65/6 32/65/6
f 40/71/6 35/71/6 32/73/6 38/73/6
f 41/72/6 33/72/6 35/74/6 40/74/6
f 48/75/6 49/76/6 45/77/6 44/78/6
f 50/79/6 48/80/6 44/81/6 46/82/6
f 51/83/6 50/84/6 46/85/6 47/86/6
f 49/87/6 51/88/6 47/89/6 45/90/6
f 2/91/7 6/92/7 49/93/7 48/94/7
f 10/95/8 2/96/8 48/97/8 50/98/8
f 14/99/9 10/100/9 50/101/9 51/102/9
f 6/103/10 14/104/10 51/105/10 49/106/10
usemtl Material.legs
f 52/107/1 53/108/1 55/109/1 54/110/1
f 54/111/2 55/112/2 59/113/2 58/114/2
f 58/115/3 59/116/3 57/117/3 56/118/3
f 56/119/4 57/120/4 53/121/4 52/122/4
f 54/123/5 58/65/5 56/71/5 52/124/5
f 59/44/6 55/61/6 53/60/6 57/125/6
f 60/107/1 61/108/1 63/109/1 62/110/1
f 62/111/2 63/112/2 67/113/2 66/114/2
f 66/115/3 67/116/3 65/117/3 64/118/3
f 64/119/4 65/120/4 61/121/4 60/122/4
f 62/123/5 66/65/5 64/71/5 60/124/5
f 67/44/6 63/61/6 61/60/6 65/125/6
f 68/107/1 69/108/1 71/109/1 70/110/1
f 70/111/2 71/112/2 75/113/2 74/114/2
f 74/115/3 75/116/3 73/117/3 72/118/3
f 72/119/4 73/120/4 69/121/4 68/122/4
f 70/123/5 74/65/5 72/71/5 68/124/5
f 75/44/6 71/61/6 69/60/6 73/125/6
f 76/107/1 77/108/1 79/109/1 78/110/1
f 78/111/2 79/112/2 83/113/2 82/114/2
f 82/115/3 83/116/3 81/117/3 80/118/3
f 80/119/4 81/120/4 77/121/4 76/122/4
f 78/123/5 82/65/5 80/71/5 76/124/5
f 83/44/6 79/61/6 77/60/6 81/125/6
