{
	"asset":{
		"generator":"Khronos glTF Blender I/O v4.4.55",
		"version":"2.0"
	},
	"scene":0,
	"scenes":[
		{
			"name":"Scene",
			"nodes":[
				0
			]
		}
	],
	"nodes":[
		{
			"mesh":0,
			"name":"the_rack_813x00"
		}
	],
	"materials":[
		{
			"doubleSided":true,
			"name":"the_rack_813",
			"pbrMetallicRoughness":{
				"baseColorTexture":{
					"index":0
				},
				"metallicFactor":0,
				"roughnessFactor":0.5
			}
		}
	],
	"meshes":[
		{
			"name":"Cylinder.003",
			"primitives":[
				{
					"attributes":{
						"POSITION":0,
						"NORMAL":1,
						"TEXCOORD_0":2
					},
					"indices":3,
					"material":0
				}
			]
		}
	],
	"textures":[
		{
			"sampler":0,
			"source":0
		}
	],
	"images":[
		{
			"mimeType":"image/png",
			"name":"813the_rack",
			"uri":"813the_rack.png"
		}
	],
	"accessors":[
		{
			"bufferView":0,
			"componentType":5126,
			"count":1322,
			"max":[
				0.015181541442871094,
				2.810351848602295,
				2.3094499111175537
			],
			"min":[
				-11.352190017700195,
				0.011195182800292969,
				-0.13891781866550446
			],
			"type":"VEC3"
		},
		{
			"bufferView":1,
			"componentType":5126,
			"count":1322,
			"type":"VEC3"
		},
		{
			"bufferView":2,
			"componentType":5126,
			"count":1322,
			"type":"VEC2"
		},
		{
			"bufferView":3,
			"componentType":5123,
			"count":2262,
			"type":"SCALAR"
		}
	],
	"bufferViews":[
		{
			"buffer":0,
			"byteLength":15864,
			"byteOffset":0,
			"target":34962
		},
		{
			"buffer":0,
			"byteLength":15864,
			"byteOffset":15864,
			"target":34962
		},
		{
			"buffer":0,
			"byteLength":10576,
			"byteOffset":31728,
			"target":34962
		},
		{
			"buffer":0,
			"byteLength":4524,
			"byteOffset":42304,
			"target":34963
		}
	],
	"samplers":[
		{
			"magFilter":9728,
			"minFilter":9984
		}
	],
	"buffers":[
		{
			"byteLength":46828,
			"uri":"the_rack_813x00.bin"
		}
	]
}
