{
	"asset":{
		"generator":"Khronos glTF Blender I/O v4.4.55",
		"version":"2.0"
	},
	"scene":0,
	"scenes":[
		{
			"name":"Scene",
			"nodes":[
				0
			]
		}
	],
	"nodes":[
		{
			"mesh":0,
			"name":"Goat_throne"
		}
	],
	"materials":[
		{
			"doubleSided":true,
			"name":"Material.002",
			"pbrMetallicRoughness":{
				"baseColorTexture":{
					"index":0
				},
				"metallicFactor":0,
				"roughnessFactor":0.5
			}
		}
	],
	"meshes":[
		{
			"name":"skullLP_Material.002_0",
			"primitives":[
				{
					"attributes":{
						"POSITION":0,
						"NORMAL":1,
						"TEXCOORD_0":2,
						"TANGENT":3
					},
					"indices":4,
					"material":0
				}
			]
		}
	],
	"textures":[
		{
			"sampler":0,
			"source":0
		}
	],
	"images":[
		{
			"mimeType":"image/png",
			"name":"292seat",
			"uri":"292seat.png"
		}
	],
	"accessors":[
		{
			"bufferView":0,
			"componentType":5126,
			"count":6534,
			"max":[
				0.7999999523162842,
				3.3305907249450684,
				0.0012927689822390676
			],
			"min":[
				-0.7000000476837158,
				-2.1103462586324895e-06,
				-1.1074862480163574
			],
			"type":"VEC3"
		},
		{
			"bufferView":1,
			"componentType":5126,
			"count":6534,
			"type":"VEC3"
		},
		{
			"bufferView":2,
			"componentType":5126,
			"count":6534,
			"type":"VEC2"
		},
		{
			"bufferView":3,
			"componentType":5126,
			"count":6534,
			"type":"VEC4"
		},
		{
			"bufferView":4,
			"componentType":5123,
			"count":27021,
			"type":"SCALAR"
		}
	],
	"bufferViews":[
		{
			"buffer":0,
			"byteLength":78408,
			"byteOffset":0,
			"target":34962
		},
		{
			"buffer":0,
			"byteLength":78408,
			"byteOffset":78408,
			"target":34962
		},
		{
			"buffer":0,
			"byteLength":52272,
			"byteOffset":156816,
			"target":34962
		},
		{
			"buffer":0,
			"byteLength":104544,
			"byteOffset":209088,
			"target":34962
		},
		{
			"buffer":0,
			"byteLength":54042,
			"byteOffset":313632,
			"target":34963
		}
	],
	"samplers":[
		{
			"magFilter":9728,
			"minFilter":9984
		}
	],
	"buffers":[
		{
			"byteLength":367676,
			"uri":"throne_292x22.bin"
		}
	]
}
