{
	"asset":{
		"generator":"Khronos glTF Blender I/O v4.4.55",
		"version":"2.0"
	},
	"extensionsUsed":[
		"KHR_texture_transform"
	],
	"extensionsRequired":[
		"KHR_texture_transform"
	],
	"scene":0,
	"scenes":[
		{
			"name":"Scene",
			"nodes":[
				0
			]
		}
	],
	"nodes":[
		{
			"mesh":0,
			"name":"tree_932x02"
		}
	],
	"materials":[
		{
			"doubleSided":true,
			"name":"tree",
			"pbrMetallicRoughness":{
				"baseColorTexture":{
					"extensions":{
						"KHR_texture_transform":{
							"offset":[
								0,
								-6.09999942779541
							],
							"scale":[
								5.699999809265137,
								7.09999942779541
							]
						}
					},
					"index":0
				},
				"metallicFactor":0,
				"roughnessFactor":0.5
			}
		},
		{
			"alphaMode":"BLEND",
			"doubleSided":true,
			"name":"Material.004",
			"pbrMetallicRoughness":{
				"baseColorTexture":{
					"index":1
				},
				"metallicFactor":0,
				"roughnessFactor":0.5
			}
		}
	],
	"meshes":[
		{
			"name":"tree_932x02",
			"primitives":[
				{
					"attributes":{
						"POSITION":0,
						"NORMAL":1,
						"TEXCOORD_0":2
					},
					"indices":3,
					"material":0
				},
				{
					"attributes":{
						"POSITION":4,
						"NORMAL":5,
						"TEXCOORD_0":6
					},
					"indices":7,
					"material":1
				}
			]
		}
	],
	"textures":[
		{
			"sampler":0,
			"source":0
		},
		{
			"sampler":0,
			"source":1
		}
	],
	"images":[
		{
			"mimeType":"image/png",
			"name":"Bark001_1K-PNG_Color1",
			"uri":"Bark001_1K-PNG_Color1.png"
		},
		{
			"mimeType":"image/png",
			"name":"LeafSet013",
			"uri":"LeafSet013.png"
		}
	],
	"accessors":[
		{
			"bufferView":0,
			"componentType":5126,
			"count":2610,
			"max":[
				4.564647674560547,
				8.677963256835938,
				1.5323498249053955
			],
			"min":[
				-7.127074241638184,
				0.6009368896484375,
				-2.525787591934204
			],
			"type":"VEC3"
		},
		{
			"bufferView":1,
			"componentType":5126,
			"count":2610,
			"type":"VEC3"
		},
		{
			"bufferView":2,
			"componentType":5126,
			"count":2610,
			"type":"VEC2"
		},
		{
			"bufferView":3,
			"componentType":5123,
			"count":13560,
			"type":"SCALAR"
		},
		{
			"bufferView":4,
			"componentType":5126,
			"count":60679,
			"max":[
				5.569204330444336,
				10.829859733581543,
				3.734358549118042
			],
			"min":[
				-8.846020698547363,
				-1.4985685348510742,
				-4.363252639770508
			],
			"type":"VEC3"
		},
		{
			"bufferView":5,
			"componentType":5126,
			"count":60679,
			"type":"VEC3"
		},
		{
			"bufferView":6,
			"componentType":5126,
			"count":60679,
			"type":"VEC2"
		},
		{
			"bufferView":7,
			"componentType":5123,
			"count":175923,
			"type":"SCALAR"
		}
	],
	"bufferViews":[
		{
			"buffer":0,
			"byteLength":31320,
			"byteOffset":0,
			"target":34962
		},
		{
			"buffer":0,
			"byteLength":31320,
			"byteOffset":31320,
			"target":34962
		},
		{
			"buffer":0,
			"byteLength":20880,
			"byteOffset":62640,
			"target":34962
		},
		{
			"buffer":0,
			"byteLength":27120,
			"byteOffset":83520,
			"target":34963
		},
		{
			"buffer":0,
			"byteLength":728148,
			"byteOffset":110640,
			"target":34962
		},
		{
			"buffer":0,
			"byteLength":728148,
			"byteOffset":838788,
			"target":34962
		},
		{
			"buffer":0,
			"byteLength":485432,
			"byteOffset":1566936,
			"target":34962
		},
		{
			"buffer":0,
			"byteLength":351846,
			"byteOffset":2052368,
			"target":34963
		}
	],
	"samplers":[
		{
			"magFilter":9729,
			"minFilter":9987
		}
	],
	"buffers":[
		{
			"byteLength":2404216,
			"uri":"tree_932x02.bin"
		}
	]
}
