{
  "accessors": [
    {
      "bufferView": 0,
      "count": 4,
      "componentType": 5126,
      "type": "MAT4"
    },
    {
      "bufferView": 1,
      "count": 306,
      "componentType": 5123,
      "type": "SCALAR"
    },
    {
      "bufferView": 2,
      "count": 110,
      "componentType": 5126,
      "type": "VEC3",
      "min": [
        -2.8511767387390137,
        -1.4901161193847656e-8,
        -1.0
      ],
      "max": [
        -0.09653401374816895,
        1.0555981397628784,
        0.0
      ]
    },
    {
      "bufferView": 3,
      "count": 110,
      "componentType": 5126,
      "type": "VEC2"
    },
    {
      "bufferView": 4,
      "count": 110,
      "componentType": 5121,
      "type": "VEC4"
    },
    {
      "bufferView": 5,
      "count": 110,
      "componentType": 5126,
      "type": "VEC4"
    },
    {
      "bufferView": 6,
      "count": 132,
      "componentType": 5123,
      "type": "SCALAR"
    },
    {
      "bufferView": 7,
      "count": 60,
      "componentType": 5126,
      "type": "VEC3",
      "min": [
        -1.0106573104858398,
        0.46520817279815674,
        -1.0442981719970703
      ],
      "max": [
        -0.5429033041000366,
        1.557023286819458,
        0.047516822814941406
      ]
    },
    {
      "bufferView": 8,
      "count": 60,
      "componentType": 5126,
      "type": "VEC2"
    },
    {
      "bufferView": 9,
      "count": 60,
      "componentType": 5121,
      "type": "VEC4"
    },
    {
      "bufferView": 10,
      "count": 60,
      "componentType": 5126,
      "type": "VEC4"
    },
    {
      "bufferView": 11,
      "count": 60,
      "componentType": 5126,
      "type": "VEC3",
      "min": [
        -1.6372326612472534,
        0.4715319871902466,
        -1.0412428379058838
      ],
      "max": [
        -1.1694786548614502,
        1.5633471012115479,
        0.050572216510772705
      ]
    },
    {
      "bufferView": 12,
      "count": 60,
      "componentType": 5121,
      "type": "VEC4"
    },
    {
      "bufferView": 13,
      "count": 60,
      "componentType": 5126,
      "type": "VEC3",
      "min": [
        -2.27677059173584,
        0.46348726749420166,
        -1.040687084197998
      ],
      "max": [
        -1.8090165853500366,
        1.555302381515503,
        0.051128000020980835
      ]
    },
    {
      "bufferView": 14,
      "count": 60,
      "componentType": 5121,
      "type": "VEC4"
    },
    {
      "bufferView": 15,
      "count": 38,
      "componentType": 5126,
      "type": "SCALAR",
      "min": [
        0.0416666679084301
      ],
      "max": [
        1.5833333730697632
      ]
    },
    {
      "bufferView": 16,
      "count": 38,
      "componentType": 5126,
      "type": "VEC3"
    },
    {
      "bufferView": 17,
      "count": 38,
      "componentType": 5126,
      "type": "VEC4"
    },
    {
      "bufferView": 18,
      "count": 38,
      "componentType": 5126,
      "type": "VEC3"
    },
    {
      "bufferView": 19,
      "count": 38,
      "componentType": 5126,
      "type": "VEC3"
    },
    {
      "bufferView": 20,
      "count": 38,
      "componentType": 5126,
      "type": "VEC4"
    },
    {
      "bufferView": 21,
      "count": 38,
      "componentType": 5126,
      "type": "VEC3"
    },
    {
      "bufferView": 22,
      "count": 38,
      "componentType": 5126,
      "type": "VEC4"
    }
  ],
  "animations": [
    {
      "channels": [
        {
          "sampler": 0,
          "target": {
            "node": 2,
            "path": "translation"
          }
        },
        {
          "sampler": 1,
          "target": {
            "node": 2,
            "path": "rotation"
          }
        },
        {
          "sampler": 2,
          "target": {
            "node": 2,
            "path": "scale"
          }
        },
        {
          "sampler": 3,
          "target": {
            "node": 3,
            "path": "translation"
          }
        },
        {
          "sampler": 4,
          "target": {
            "node": 3,
            "path": "rotation"
          }
        },
        {
          "sampler": 5,
          "target": {
            "node": 3,
            "path": "scale"
          }
        },
        {
          "sampler": 6,
          "target": {
            "node": 4,
            "path": "translation"
          }
        },
        {
          "sampler": 7,
          "target": {
            "node": 4,
            "path": "rotation"
          }
        },
        {
          "sampler": 8,
          "target": {
            "node": 4,
            "path": "scale"
          }
        }
      ],
      "name": "idle",
      "samplers": [
        {
          "input": 15,
          "interpolation": "LINEAR",
          "output": 16
        },
        {
          "input": 15,
          "interpolation": "LINEAR",
          "output": 17
        },
        {
          "input": 15,
          "interpolation": "LINEAR",
          "output": 18
        },
        {
          "input": 15,
          "interpolation": "LINEAR",
          "output": 19
        },
        {
          "input": 15,
          "interpolation": "LINEAR",
          "output": 20
        },
        {
          "input": 15,
          "interpolation": "LINEAR",
          "output": 18
        },
        {
          "input": 15,
          "interpolation": "LINEAR",
          "output": 21
        },
        {
          "input": 15,
          "interpolation": "LINEAR",
          "output": 22
        },
        {
          "input": 15,
          "interpolation": "LINEAR",
          "output": 18
        }
      ]
    }
  ],
  "asset": {
    "generator": "gltfunroll v0.1.0",
    "version": "2.0"
  },
  "buffers": [
    {
      "byteLength": 13652,
      "uri": "triplesgame_818x001.bin"
    }
  ],
  "bufferViews": [
    {
      "buffer": 0,
      "byteLength": 256,
      "byteOffset": 0
    },
    {
      "buffer": 0,
      "byteLength": 612,
      "byteOffset": 256,
      "target": 34963
    },
    {
      "buffer": 0,
      "byteLength": 1320,
      "byteOffset": 868,
      "target": 34962
    },
    {
      "buffer": 0,
      "byteLength": 880,
      "byteOffset": 2188,
      "target": 34962
    },
    {
      "buffer": 0,
      "byteLength": 440,
      "byteOffset": 3068,
      "target": 34962
    },
    {
      "buffer": 0,
      "byteLength": 1760,
      "byteOffset": 3508,
      "target": 34962
    },
    {
      "buffer": 0,
      "byteLength": 264,
      "byteOffset": 5268,
      "target": 34963
    },
    {
      "buffer": 0,
      "byteLength": 720,
      "byteOffset": 5532,
      "target": 34962
    },
    {
      "buffer": 0,
      "byteLength": 480,
      "byteOffset": 6252,
      "target": 34962
    },
    {
      "buffer": 0,
      "byteLength": 240,
      "byteOffset": 6732,
      "target": 34962
    },
    {
      "buffer": 0,
      "byteLength": 960,
      "byteOffset": 6972,
      "target": 34962
    },
    {
      "buffer": 0,
      "byteLength": 720,
      "byteOffset": 7932,
      "target": 34962
    },
    {
      "buffer": 0,
      "byteLength": 240,
      "byteOffset": 8652,
      "target": 34962
    },
    {
      "buffer": 0,
      "byteLength": 720,
      "byteOffset": 8892,
      "target": 34962
    },
    {
      "buffer": 0,
      "byteLength": 240,
      "byteOffset": 9612,
      "target": 34962
    },
    {
      "buffer": 0,
      "byteLength": 152,
      "byteOffset": 9852
    },
    {
      "buffer": 0,
      "byteLength": 456,
      "byteOffset": 10004
    },
    {
      "buffer": 0,
      "byteLength": 608,
      "byteOffset": 10460
    },
    {
      "buffer": 0,
      "byteLength": 456,
      "byteOffset": 11068
    },
    {
      "buffer": 0,
      "byteLength": 456,
      "byteOffset": 11524
    },
    {
      "buffer": 0,
      "byteLength": 608,
      "byteOffset": 11980
    },
    {
      "buffer": 0,
      "byteLength": 456,
      "byteOffset": 12588
    },
    {
      "buffer": 0,
      "byteLength": 608,
      "byteOffset": 13044
    }
  ],
  "scene": 0,
  "images": [
    {
      "uri": "809the_triples_game.png"
    }
  ],
  "materials": [
    {
      "alphaMode": "OPAQUE",
      "doubleSided": false,
      "pbrMetallicRoughness": {
        "baseColorFactor": [
          1.0,
          1.0,
          1.0,
          1.0
        ],
        "baseColorTexture": {
          "index": 0,
          "texCoord": 0
        },
        "metallicFactor": 1.0,
        "roughnessFactor": 1.0
      },
      "emissiveFactor": [
        0.0,
        0.0,
        0.0
      ]
    }
  ],
  "meshes": [
    {
      "primitives": [
        {
          "attributes": {
            "POSITION": 2,
            "TEXCOORD_0": 3,
            "JOINTS_0": 4,
            "WEIGHTS_0": 5
          },
          "indices": 1,
          "material": 0
        },
        {
          "attributes": {
            "POSITION": 7,
            "TEXCOORD_0": 8,
            "JOINTS_0": 9,
            "WEIGHTS_0": 10
          },
          "indices": 6,
          "material": 0
        },
        {
          "attributes": {
            "POSITION": 11,
            "TEXCOORD_0": 8,
            "JOINTS_0": 12,
            "WEIGHTS_0": 10
          },
          "indices": 6,
          "material": 0
        },
        {
          "attributes": {
            "POSITION": 13,
            "TEXCOORD_0": 8,
            "JOINTS_0": 14,
            "WEIGHTS_0": 10
          },
          "indices": 6,
          "material": 0
        }
      ]
    }
  ],
  "nodes": [
    {
      "children": [
        1
      ],
      "mesh": 0,
      "name": "TriplesGame_818x00",
      "skin": 0
    },
    {
      "children": [
        2,
        3,
        4
      ],
      "name": "armature"
    },
    {
      "name": "Triples_game818xwheel3",
      "rotation": [
        0.0,
        0.0,
        0.0,
        1.0
      ],
      "scale": [
        1.0,
        1.0,
        1.0
      ],
      "translation": [
        -0.7767801,
        1.0111158,
        -0.49839061
      ]
    },
    {
      "name": "Triples_game818xwheel2",
      "rotation": [
        0.0,
        0.0,
        0.0,
        1.0
      ],
      "scale": [
        1.0,
        1.0,
        1.0
      ],
      "translation": [
        -1.4033555,
        1.0174396,
        -0.49533522
      ]
    },
    {
      "name": "Triples_game818xwheel1",
      "rotation": [
        0.0,
        0.0,
        0.0,
        1.0
      ],
      "scale": [
        1.0,
        1.0,
        1.0
      ],
      "translation": [
        -2.0428934,
        1.0093949,
        -0.49477944
      ]
    }
  ],
  "scenes": [
    {
      "nodes": [
        0
      ]
    }
  ],
  "skins": [
    {
      "inverseBindMatrices": 0,
      "joints": [
        1,
        2,
        3,
        4
      ]
    }
  ],
  "textures": [
    {
      "source": 0
    }
  ]
}
