{
	"asset":{
		"generator":"Khronos glTF Blender I/O v4.4.55",
		"version":"2.0"
	},
	"scene":0,
	"scenes":[
		{
			"name":"Scene",
			"nodes":[
				0
			]
		}
	],
	"nodes":[
		{
			"mesh":0,
			"name":"trophy_311x05",
			"translation":[
				0.7692469358444214,
				1.8835067749023438e-05,
				-0.028219416737556458
			]
		}
	],
	"materials":[
		{
			"doubleSided":true,
			"name":"Material",
			"pbrMetallicRoughness":{
				"baseColorTexture":{
					"index":0
				},
				"metallicFactor":0,
				"roughnessFactor":0.5
			}
		}
	],
	"meshes":[
		{
			"name":"Plane.005",
			"primitives":[
				{
					"attributes":{
						"POSITION":0,
						"NORMAL":1,
						"TEXCOORD_0":2
					},
					"indices":3,
					"material":0
				}
			]
		}
	],
	"textures":[
		{
			"sampler":0,
			"source":0
		}
	],
	"images":[
		{
			"mimeType":"image/png",
			"name":"311trophy",
			"uri":"311trophy.png"
		}
	],
	"accessors":[
		{
			"bufferView":0,
			"componentType":5126,
			"count":979,
			"max":[
				0.4800684154033661,
				0.7183359861373901,
				1.1159738302230835
			],
			"min":[
				-0.4963807463645935,
				0.004505515098571777,
				0.001758933998644352
			],
			"type":"VEC3"
		},
		{
			"bufferView":1,
			"componentType":5126,
			"count":979,
			"type":"VEC3"
		},
		{
			"bufferView":2,
			"componentType":5126,
			"count":979,
			"type":"VEC2"
		},
		{
			"bufferView":3,
			"componentType":5123,
			"count":1977,
			"type":"SCALAR"
		}
	],
	"bufferViews":[
		{
			"buffer":0,
			"byteLength":11748,
			"byteOffset":0,
			"target":34962
		},
		{
			"buffer":0,
			"byteLength":11748,
			"byteOffset":11748,
			"target":34962
		},
		{
			"buffer":0,
			"byteLength":7832,
			"byteOffset":23496,
			"target":34962
		},
		{
			"buffer":0,
			"byteLength":3954,
			"byteOffset":31328,
			"target":34963
		}
	],
	"samplers":[
		{
			"magFilter":9728,
			"minFilter":9984
		}
	],
	"buffers":[
		{
			"byteLength":35284,
			"uri":"trophy_311x05.bin"
		}
	]
}
