{
	"asset":{
		"generator":"Khronos glTF Blender I/O v4.4.55",
		"version":"2.0"
	},
	"scene":0,
	"scenes":[
		{
			"name":"Scene",
			"nodes":[
				0
			]
		}
	],
	"nodes":[
		{
			"mesh":0,
			"name":"trophy_311x02",
			"translation":[
				-2.0899317264556885,
				1.8835067749023438e-05,
				-0.028219416737556458
			]
		}
	],
	"materials":[
		{
			"doubleSided":true,
			"name":"Material",
			"pbrMetallicRoughness":{
				"baseColorTexture":{
					"index":0
				},
				"metallicFactor":0,
				"roughnessFactor":0.5
			}
		}
	],
	"meshes":[
		{
			"name":"Plane.002",
			"primitives":[
				{
					"attributes":{
						"POSITION":0,
						"NORMAL":1,
						"TEXCOORD_0":2
					},
					"indices":3,
					"material":0
				}
			]
		}
	],
	"textures":[
		{
			"sampler":0,
			"source":0
		}
	],
	"images":[
		{
			"mimeType":"image/png",
			"name":"311trophy",
			"uri":"311trophy.png"
		}
	],
	"accessors":[
		{
			"bufferView":0,
			"componentType":5126,
			"count":2069,
			"max":[
				0.589525580406189,
				0.8197852969169617,
				1.0017163753509521
			],
			"min":[
				-0.6138893961906433,
				0.005542933940887451,
				0.001416048500686884
			],
			"type":"VEC3"
		},
		{
			"bufferView":1,
			"componentType":5126,
			"count":2069,
			"type":"VEC3"
		},
		{
			"bufferView":2,
			"componentType":5126,
			"count":2069,
			"type":"VEC2"
		},
		{
			"bufferView":3,
			"componentType":5123,
			"count":4041,
			"type":"SCALAR"
		}
	],
	"bufferViews":[
		{
			"buffer":0,
			"byteLength":24828,
			"byteOffset":0,
			"target":34962
		},
		{
			"buffer":0,
			"byteLength":24828,
			"byteOffset":24828,
			"target":34962
		},
		{
			"buffer":0,
			"byteLength":16552,
			"byteOffset":49656,
			"target":34962
		},
		{
			"buffer":0,
			"byteLength":8082,
			"byteOffset":66208,
			"target":34963
		}
	],
	"samplers":[
		{
			"magFilter":9728,
			"minFilter":9984
		}
	],
	"buffers":[
		{
			"byteLength":74292,
			"uri":"trophy_311x02.bin"
		}
	]
}
