{
	"asset":{
		"generator":"Khronos glTF Blender I/O v4.4.55",
		"version":"2.0"
	},
	"scene":0,
	"scenes":[
		{
			"name":"Scene",
			"nodes":[
				0
			]
		}
	],
	"nodes":[
		{
			"mesh":0,
			"name":"trophy_311x04",
			"translation":[
				-0.0906057357788086,
				1.8835067749023438e-05,
				-0.028219416737556458
			]
		}
	],
	"materials":[
		{
			"doubleSided":true,
			"name":"Material",
			"pbrMetallicRoughness":{
				"baseColorTexture":{
					"index":0
				},
				"metallicFactor":0,
				"roughnessFactor":0.5
			}
		}
	],
	"meshes":[
		{
			"name":"Plane.004",
			"primitives":[
				{
					"attributes":{
						"POSITION":0,
						"NORMAL":1,
						"TEXCOORD_0":2
					},
					"indices":3,
					"material":0
				}
			]
		}
	],
	"textures":[
		{
			"sampler":0,
			"source":0
		}
	],
	"images":[
		{
			"mimeType":"image/png",
			"name":"311trophy",
			"uri":"311trophy.png"
		}
	],
	"accessors":[
		{
			"bufferView":0,
			"componentType":5126,
			"count":781,
			"max":[
				0.3271609842777252,
				0.7742236256599426,
				1.0709134340286255
			],
			"min":[
				-0.37650954723358154,
				0.005070507526397705,
				0.0018352665938436985
			],
			"type":"VEC3"
		},
		{
			"bufferView":1,
			"componentType":5126,
			"count":781,
			"type":"VEC3"
		},
		{
			"bufferView":2,
			"componentType":5126,
			"count":781,
			"type":"VEC2"
		},
		{
			"bufferView":3,
			"componentType":5123,
			"count":1542,
			"type":"SCALAR"
		}
	],
	"bufferViews":[
		{
			"buffer":0,
			"byteLength":9372,
			"byteOffset":0,
			"target":34962
		},
		{
			"buffer":0,
			"byteLength":9372,
			"byteOffset":9372,
			"target":34962
		},
		{
			"buffer":0,
			"byteLength":6248,
			"byteOffset":18744,
			"target":34962
		},
		{
			"buffer":0,
			"byteLength":3084,
			"byteOffset":24992,
			"target":34963
		}
	],
	"samplers":[
		{
			"magFilter":9728,
			"minFilter":9984
		}
	],
	"buffers":[
		{
			"byteLength":28076,
			"uri":"trophy_311x04.bin"
		}
	]
}
