{
	"asset":{
		"generator":"Khronos glTF Blender I/O v4.4.55",
		"version":"2.0"
	},
	"scene":0,
	"scenes":[
		{
			"name":"Scene",
			"nodes":[
				0
			]
		}
	],
	"nodes":[
		{
			"mesh":0,
			"name":"trophy_311x01",
			"translation":[
				-3.2257895469665527,
				1.8835067749023438e-05,
				-0.028219416737556458
			]
		}
	],
	"materials":[
		{
			"doubleSided":true,
			"name":"Material",
			"pbrMetallicRoughness":{
				"baseColorTexture":{
					"index":0
				},
				"metallicFactor":0,
				"roughnessFactor":0.5
			}
		}
	],
	"meshes":[
		{
			"name":"Plane.001",
			"primitives":[
				{
					"attributes":{
						"POSITION":0,
						"NORMAL":1,
						"TEXCOORD_0":2
					},
					"indices":3,
					"material":0
				}
			]
		}
	],
	"textures":[
		{
			"sampler":0,
			"source":0
		}
	],
	"images":[
		{
			"mimeType":"image/png",
			"name":"311trophy",
			"uri":"311trophy.png"
		}
	],
	"accessors":[
		{
			"bufferView":0,
			"componentType":5126,
			"count":1715,
			"max":[
				0.5605008006095886,
				1.172299861907959,
				1.60428786277771
			],
			"min":[
				-0.5579237341880798,
				0.007318317890167236,
				0.003485981374979019
			],
			"type":"VEC3"
		},
		{
			"bufferView":1,
			"componentType":5126,
			"count":1715,
			"type":"VEC3"
		},
		{
			"bufferView":2,
			"componentType":5126,
			"count":1715,
			"type":"VEC2"
		},
		{
			"bufferView":3,
			"componentType":5123,
			"count":3765,
			"type":"SCALAR"
		}
	],
	"bufferViews":[
		{
			"buffer":0,
			"byteLength":20580,
			"byteOffset":0,
			"target":34962
		},
		{
			"buffer":0,
			"byteLength":20580,
			"byteOffset":20580,
			"target":34962
		},
		{
			"buffer":0,
			"byteLength":13720,
			"byteOffset":41160,
			"target":34962
		},
		{
			"buffer":0,
			"byteLength":7530,
			"byteOffset":54880,
			"target":34963
		}
	],
	"samplers":[
		{
			"magFilter":9728,
			"minFilter":9984
		}
	],
	"buffers":[
		{
			"byteLength":62412,
			"uri":"trophy_311x01.bin"
		}
	]
}
