{
	"asset":{
		"generator":"Khronos glTF Blender I/O v4.4.55",
		"version":"2.0"
	},
	"scene":0,
	"scenes":[
		{
			"name":"Scene",
			"nodes":[
				0
			]
		}
	],
	"nodes":[
		{
			"mesh":0,
			"name":"trophy_311x00",
			"translation":[
				-4.077181816101074,
				0,
				0
			]
		}
	],
	"materials":[
		{
			"doubleSided":true,
			"name":"Material",
			"pbrMetallicRoughness":{
				"baseColorTexture":{
					"index":0
				},
				"metallicFactor":0,
				"roughnessFactor":0.5
			}
		}
	],
	"meshes":[
		{
			"name":"Cube.001",
			"primitives":[
				{
					"attributes":{
						"POSITION":0,
						"NORMAL":1,
						"TEXCOORD_0":2
					},
					"indices":3,
					"material":0
				}
			]
		}
	],
	"textures":[
		{
			"sampler":0,
			"source":0
		}
	],
	"images":[
		{
			"mimeType":"image/png",
			"name":"311trophy",
			"uri":"311trophy.png"
		}
	],
	"accessors":[
		{
			"bufferView":0,
			"componentType":5126,
			"count":1940,
			"max":[
				0.5428923964500427,
				1.8661667108535767,
				0.27601760625839233
			],
			"min":[
				-0.49345025420188904,
				-0.006572812795639038,
				-0.287447988986969
			],
			"type":"VEC3"
		},
		{
			"bufferView":1,
			"componentType":5126,
			"count":1940,
			"type":"VEC3"
		},
		{
			"bufferView":2,
			"componentType":5126,
			"count":1940,
			"type":"VEC2"
		},
		{
			"bufferView":3,
			"componentType":5123,
			"count":5556,
			"type":"SCALAR"
		}
	],
	"bufferViews":[
		{
			"buffer":0,
			"byteLength":23280,
			"byteOffset":0,
			"target":34962
		},
		{
			"buffer":0,
			"byteLength":23280,
			"byteOffset":23280,
			"target":34962
		},
		{
			"buffer":0,
			"byteLength":15520,
			"byteOffset":46560,
			"target":34962
		},
		{
			"buffer":0,
			"byteLength":11112,
			"byteOffset":62080,
			"target":34963
		}
	],
	"samplers":[
		{
			"magFilter":9728,
			"minFilter":9984
		}
	],
	"buffers":[
		{
			"byteLength":73192,
			"uri":"trophy_311x00.bin"
		}
	]
}
