# Blender 3.6.2
# www.blender.org
mtllib unsealed_box_799x00.mtl
o Box.001
v 0.982143 0.333333 0.400000
v 0.982143 0.333333 0.850000
v 0.267857 0.333333 0.400000
v 0.267857 0.333333 0.850000
v 1.125000 0.666667 0.250000
v 1.125000 0.166667 0.250000
v 1.125000 0.666667 1.000000
v 1.125000 0.166667 1.000000
v 0.125000 0.666667 0.250000
v 0.125000 0.166667 0.250000
v 0.125000 0.666667 1.000000
v 0.125000 0.166667 1.000000
v 0.982143 0.666667 0.850000
v 0.267857 0.666667 0.850000
v 0.267857 0.666667 0.400000
v 0.982143 0.666667 0.400000
v 1.187500 0.833333 0.187500
v 1.187500 0.666667 0.187500
v 1.187500 0.833333 1.062500
v 1.187500 0.666667 1.062500
v 0.062500 0.833333 0.187500
v 0.062500 0.666667 0.187500
v 0.062500 0.833333 1.062500
v 0.062500 0.666667 1.062500
v 0.375000 0.166667 0.250000
v 0.375000 0.000000 0.250000
v 0.375000 0.166667 1.000000
v 0.375000 0.000000 1.000000
v 0.125000 0.166667 0.250000
v 0.125000 0.000000 0.250000
v 0.125000 0.166667 1.000000
v 0.125000 0.000000 1.000000
v 1.125000 0.166667 0.250000
v 1.125000 0.000000 0.250000
v 1.125000 0.166667 1.000000
v 1.125000 0.000000 1.000000
v 0.875000 0.166667 0.250000
v 0.875000 0.000000 0.250000
v 0.875000 0.166667 1.000000
v 0.875000 0.000000 1.000000
vn -0.0000 -0.0000 -1.0000
vn 1.0000 -0.0000 -0.0000
vn -0.0000 1.0000 -0.0000
vn -1.0000 -0.0000 -0.0000
vn -0.0000 -0.0000 1.0000
vn -0.0000 -1.0000 -0.0000
vt 0.261958 0.302345
vt 0.293456 0.302345
vt 0.261958 0.330693
vt 0.358297 0.302345
vt 0.395789 0.346012
vt 0.358297 0.346012
vt 0.293456 0.330693
vt 0.309014 0.401880
vt 0.313043 0.377701
vt 0.313043 0.395835
vt 0.449999 0.428463
vt 0.049893 0.214966
vt 0.449999 0.214966
vt 0.550083 0.928650
vt 0.699966 0.500053
vt 0.699966 0.928650
vt 0.294557 0.298732
vt 0.256956 0.339019
vt 0.256956 0.298732
vt 0.550120 0.928251
vt 0.699889 0.500295
vt 0.699889 0.928251
vt 0.214782 0.423136
vt 0.136785 0.367424
vt 0.214782 0.367424
vt 0.333192 0.377701
vt 0.309014 0.371656
vt 0.337222 0.371656
vt 0.395789 0.302345
vt 0.333192 0.395835
vt 0.337222 0.401880
vt 0.049893 0.428463
vt 0.550083 0.500053
vt 0.294557 0.339019
vt 0.550120 0.500295
vt 0.136785 0.423136
vt 0.050121 0.928596
vt 0.499874 0.500850
vt 0.499874 0.928596
vt 0.500008 0.571262
vt 0.050122 0.500283
vt 0.500008 0.500283
vt 0.095455 0.511221
vt 0.055847 0.558438
vt 0.055806 0.511223
vt 0.434182 0.159688
vt 0.366872 0.200702
vt 0.366872 0.159688
vt 0.464180 0.627487
vt 0.492070 0.509973
vt 0.492070 0.627487
vt 0.140346 0.843012
vt 0.109426 0.798188
vt 0.140346 0.798188
vt 0.050121 0.500850
vt 0.050122 0.571262
vt 0.095495 0.558436
vt 0.434182 0.200702
vt 0.464180 0.509973
vt 0.109426 0.843012
vt 0.098156 0.193836
vt 0.127208 0.193836
vt 0.098156 0.166167
vt 0.127208 0.166167
vt 0.385342 0.188784
vt 0.414394 0.188784
vt 0.385342 0.161115
vt 0.414394 0.161115
s 0
usemtl Material
f 4/1/1 13/2/1 2/2/1
f 3/3/2 14/1/2 4/1/2
f 4/4/3 1/5/3 3/6/3
f 2/2/4 16/7/4 1/7/4
f 1/7/5 15/3/5 3/3/5
f 9/8/3 14/9/3 15/10/3
f 7/11/5 12/12/5 8/13/5
f 11/14/4 10/15/4 12/16/4
f 6/17/6 12/18/6 10/19/6
f 5/20/2 8/21/2 6/22/2
f 9/23/1 6/24/1 10/25/1
f 13/26/3 11/27/3 7/28/3
f 4/1/1 14/1/1 13/2/1
f 3/3/2 15/3/2 14/1/2
f 4/4/3 2/29/3 1/5/3
f 2/2/4 13/2/4 16/7/4
f 1/7/5 16/7/5 15/3/5
f 16/30/3 5/31/3 9/8/3
f 9/8/3 11/27/3 14/9/3
f 15/10/3 16/30/3 9/8/3
f 7/11/5 11/32/5 12/12/5
f 11/14/4 9/33/4 10/15/4
f 6/17/6 8/34/6 12/18/6
f 5/20/2 7/35/2 8/21/2
f 9/23/1 5/36/1 6/24/1
f 5/31/3 16/30/3 13/26/3
f 13/26/3 14/9/3 11/27/3
f 7/28/3 5/31/3 13/26/3
f 21/37/3 19/38/3 17/39/3
f 19/40/5 24/41/5 20/42/5
f 23/43/4 22/44/4 24/45/4
f 18/46/6 24/47/6 22/48/6
f 17/49/2 20/50/2 18/51/2
f 21/52/1 18/53/1 22/54/1
f 21/37/3 23/55/3 19/38/3
f 19/40/5 23/56/5 24/41/5
f 23/43/4 21/57/4 22/44/4
f 18/46/6 20/58/6 24/47/6
f 17/49/2 19/59/2 20/50/2
f 21/52/1 17/60/1 18/53/1
f 29/61/3 27/62/3 25/62/3
f 27/62/5 32/63/5 28/64/5
f 31/61/4 30/63/4 32/63/4
f 26/64/6 32/63/6 30/63/6
f 25/62/2 28/64/2 26/64/2
f 29/61/1 26/64/1 30/63/1
f 29/61/3 31/61/3 27/62/3
f 27/62/5 31/61/5 32/63/5
f 31/61/4 29/61/4 30/63/4
f 26/64/6 28/64/6 32/63/6
f 25/62/2 27/62/2 28/64/2
f 29/61/1 25/62/1 26/64/1
f 37/65/3 35/66/3 33/66/3
f 35/66/5 40/67/5 36/68/5
f 39/65/4 38/67/4 40/67/4
f 34/68/6 40/67/6 38/67/6
f 33/66/2 36/68/2 34/68/2
f 37/65/1 34/68/1 38/67/1
f 37/65/3 39/65/3 35/66/3
f 35/66/5 39/65/5 40/67/5
f 39/65/4 37/65/4 38/67/4
f 34/68/6 36/68/6 40/67/6
f 33/66/2 35/66/2 36/68/2
f 37/65/1 33/66/1 34/68/1
