{
	"asset":{
		"generator":"Khronos glTF Blender I/O v4.4.55",
		"version":"2.0"
	},
	"scene":0,
	"scenes":[
		{
			"name":"Scene",
			"nodes":[
				0
			]
		}
	],
	"nodes":[
		{
			"mesh":0,
			"name":"wall_scorchmark_2"
		}
	],
	"materials":[
		{
			"alphaMode":"BLEND",
			"doubleSided":true,
			"name":"Material",
			"pbrMetallicRoughness":{
				"baseColorTexture":{
					"index":0
				},
				"metallicFactor":0,
				"roughnessFactor":0.5
			}
		}
	],
	"meshes":[
		{
			"name":"Plane.001",
			"primitives":[
				{
					"attributes":{
						"POSITION":0,
						"NORMAL":1,
						"TEXCOORD_0":2
					},
					"indices":3,
					"material":0
				}
			]
		}
	],
	"textures":[
		{
			"sampler":0,
			"source":0
		}
	],
	"images":[
		{
			"mimeType":"image/png",
			"name":"204-209dirtscorch",
			"uri":"204-209dirtscorch.png"
		}
	],
	"accessors":[
		{
			"bufferView":0,
			"componentType":5126,
			"count":1538,
			"max":[
				1.7881393432617188e-07,
				1.9910988807678223,
				0.43743419647216797
			],
			"min":[
				-0.10174647718667984,
				-0.0034515857696533203,
				-0.43702030181884766
			],
			"type":"VEC3"
		},
		{
			"bufferView":1,
			"componentType":5126,
			"count":1538,
			"type":"VEC3"
		},
		{
			"bufferView":2,
			"componentType":5126,
			"count":1538,
			"type":"VEC2"
		},
		{
			"bufferView":3,
			"componentType":5123,
			"count":2676,
			"type":"SCALAR"
		}
	],
	"bufferViews":[
		{
			"buffer":0,
			"byteLength":18456,
			"byteOffset":0,
			"target":34962
		},
		{
			"buffer":0,
			"byteLength":18456,
			"byteOffset":18456,
			"target":34962
		},
		{
			"buffer":0,
			"byteLength":12304,
			"byteOffset":36912,
			"target":34962
		},
		{
			"buffer":0,
			"byteLength":5352,
			"byteOffset":49216,
			"target":34963
		}
	],
	"samplers":[
		{
			"magFilter":9728,
			"minFilter":9984
		}
	],
	"buffers":[
		{
			"byteLength":54568,
			"uri":"wall_scorchmark_2.bin"
		}
	]
}
