{
	"asset":{
		"generator":"Khronos glTF Blender I/O v4.4.55",
		"version":"2.0"
	},
	"scene":0,
	"scenes":[
		{
			"name":"Scene",
			"nodes":[
				0
			]
		}
	],
	"nodes":[
		{
			"mesh":0,
			"name":"wall_909x08"
		}
	],
	"materials":[
		{
			"doubleSided":true,
			"name":"308wall",
			"pbrMetallicRoughness":{
				"baseColorTexture":{
					"index":0
				},
				"metallicFactor":0,
				"roughnessFactor":0.5
			}
		}
	],
	"meshes":[
		{
			"name":"Cube.044",
			"primitives":[
				{
					"attributes":{
						"POSITION":0,
						"NORMAL":1,
						"TEXCOORD_0":2,
						"TANGENT":3
					},
					"indices":4,
					"material":0
				}
			]
		}
	],
	"textures":[
		{
			"sampler":0,
			"source":0
		}
	],
	"images":[
		{
			"mimeType":"image/png",
			"name":"308wall",
			"uri":"308wall.png"
		}
	],
	"accessors":[
		{
			"bufferView":0,
			"componentType":5126,
			"count":155,
			"max":[
				1,
				5,
				0.5
			],
			"min":[
				-1,
				-1.4901161193847656e-07,
				-0.5278676748275757
			],
			"type":"VEC3"
		},
		{
			"bufferView":1,
			"componentType":5126,
			"count":155,
			"type":"VEC3"
		},
		{
			"bufferView":2,
			"componentType":5126,
			"count":155,
			"type":"VEC2"
		},
		{
			"bufferView":3,
			"componentType":5126,
			"count":155,
			"type":"VEC4"
		},
		{
			"bufferView":4,
			"componentType":5123,
			"count":288,
			"type":"SCALAR"
		}
	],
	"bufferViews":[
		{
			"buffer":0,
			"byteLength":1860,
			"byteOffset":0,
			"target":34962
		},
		{
			"buffer":0,
			"byteLength":1860,
			"byteOffset":1860,
			"target":34962
		},
		{
			"buffer":0,
			"byteLength":1240,
			"byteOffset":3720,
			"target":34962
		},
		{
			"buffer":0,
			"byteLength":2480,
			"byteOffset":4960,
			"target":34962
		},
		{
			"buffer":0,
			"byteLength":576,
			"byteOffset":7440,
			"target":34963
		}
	],
	"samplers":[
		{
			"magFilter":9728,
			"minFilter":9984
		}
	],
	"buffers":[
		{
			"byteLength":8016,
			"uri":"wall_909x08.bin"
		}
	]
}
