{
	"asset":{
		"generator":"Khronos glTF Blender I/O v4.4.55",
		"version":"2.0"
	},
	"scene":0,
	"scenes":[
		{
			"name":"Scene",
			"nodes":[
				0
			]
		}
	],
	"nodes":[
		{
			"mesh":0,
			"name":"wall_972x03",
			"rotation":[
				0,
				1,
				0,
				7.549790126404332e-08
			]
		}
	],
	"materials":[
		{
			"doubleSided":true,
			"name":"972wall",
			"pbrMetallicRoughness":{
				"baseColorTexture":{
					"index":0
				},
				"metallicFactor":0,
				"roughnessFactor":0.5
			}
		}
	],
	"meshes":[
		{
			"name":"Cube.121",
			"primitives":[
				{
					"attributes":{
						"POSITION":0,
						"NORMAL":1,
						"TEXCOORD_0":2,
						"TANGENT":3
					},
					"indices":4,
					"material":0
				}
			]
		}
	],
	"textures":[
		{
			"sampler":0,
			"source":0
		}
	],
	"images":[
		{
			"mimeType":"image/png",
			"name":"972wall",
			"uri":"972wall.png"
		}
	],
	"accessors":[
		{
			"bufferView":0,
			"componentType":5126,
			"count":267,
			"max":[
				3.999999761581421,
				5,
				0.19999945163726807
			],
			"min":[
				-2.384185791015625e-07,
				0,
				-1.0000005960464478
			],
			"type":"VEC3"
		},
		{
			"bufferView":1,
			"componentType":5126,
			"count":267,
			"type":"VEC3"
		},
		{
			"bufferView":2,
			"componentType":5126,
			"count":267,
			"type":"VEC2"
		},
		{
			"bufferView":3,
			"componentType":5126,
			"count":267,
			"type":"VEC4"
		},
		{
			"bufferView":4,
			"componentType":5123,
			"count":720,
			"type":"SCALAR"
		}
	],
	"bufferViews":[
		{
			"buffer":0,
			"byteLength":3204,
			"byteOffset":0,
			"target":34962
		},
		{
			"buffer":0,
			"byteLength":3204,
			"byteOffset":3204,
			"target":34962
		},
		{
			"buffer":0,
			"byteLength":2136,
			"byteOffset":6408,
			"target":34962
		},
		{
			"buffer":0,
			"byteLength":4272,
			"byteOffset":8544,
			"target":34962
		},
		{
			"buffer":0,
			"byteLength":1440,
			"byteOffset":12816,
			"target":34963
		}
	],
	"samplers":[
		{
			"magFilter":9728,
			"minFilter":9984
		}
	],
	"buffers":[
		{
			"byteLength":14256,
			"uri":"wall_972x03.bin"
		}
	]
}
