{
	"asset":{
		"generator":"Khronos glTF Blender I/O v4.4.55",
		"version":"2.0"
	},
	"scene":0,
	"scenes":[
		{
			"name":"Scene",
			"nodes":[
				0
			]
		}
	],
	"nodes":[
		{
			"mesh":0,
			"name":"wall_497x04"
		}
	],
	"materials":[
		{
			"doubleSided":true,
			"name":"254wall",
			"pbrMetallicRoughness":{
				"baseColorTexture":{
					"index":0
				},
				"metallicFactor":0,
				"roughnessFactor":0.5
			}
		}
	],
	"meshes":[
		{
			"name":"Cylinder.014",
			"primitives":[
				{
					"attributes":{
						"POSITION":0,
						"NORMAL":1,
						"TEXCOORD_0":2,
						"TANGENT":3
					},
					"indices":4,
					"material":0
				},
				{
					"attributes":{
						"POSITION":5,
						"NORMAL":6,
						"TEXCOORD_0":7,
						"TANGENT":8
					},
					"indices":9,
					"material":0
				}
			]
		}
	],
	"textures":[
		{
			"sampler":0,
			"source":0
		}
	],
	"images":[
		{
			"mimeType":"image/png",
			"name":"254wall",
			"uri":"254wall.png"
		}
	],
	"accessors":[
		{
			"bufferView":0,
			"componentType":5126,
			"count":160,
			"max":[
				0.11109239608049393,
				4.902561187744141,
				0.1625058650970459
			],
			"min":[
				-0.17705589532852173,
				0.11529386043548584,
				-0.4650527238845825
			],
			"type":"VEC3"
		},
		{
			"bufferView":1,
			"componentType":5126,
			"count":160,
			"type":"VEC3"
		},
		{
			"bufferView":2,
			"componentType":5126,
			"count":160,
			"type":"VEC2"
		},
		{
			"bufferView":3,
			"componentType":5126,
			"count":160,
			"type":"VEC4"
		},
		{
			"bufferView":4,
			"componentType":5123,
			"count":252,
			"type":"SCALAR"
		},
		{
			"bufferView":5,
			"componentType":5126,
			"count":24,
			"max":[
				0.5367386341094971,
				0.1496114283800125,
				0.49707868695259094
			],
			"min":[
				-0.4724578857421875,
				0.01594749093055725,
				-0.5029213428497314
			],
			"type":"VEC3"
		},
		{
			"bufferView":6,
			"componentType":5126,
			"count":24,
			"type":"VEC3"
		},
		{
			"bufferView":7,
			"componentType":5126,
			"count":24,
			"type":"VEC2"
		},
		{
			"bufferView":8,
			"componentType":5126,
			"count":24,
			"type":"VEC4"
		},
		{
			"bufferView":9,
			"componentType":5123,
			"count":36,
			"type":"SCALAR"
		}
	],
	"bufferViews":[
		{
			"buffer":0,
			"byteLength":1920,
			"byteOffset":0,
			"target":34962
		},
		{
			"buffer":0,
			"byteLength":1920,
			"byteOffset":1920,
			"target":34962
		},
		{
			"buffer":0,
			"byteLength":1280,
			"byteOffset":3840,
			"target":34962
		},
		{
			"buffer":0,
			"byteLength":2560,
			"byteOffset":5120,
			"target":34962
		},
		{
			"buffer":0,
			"byteLength":504,
			"byteOffset":7680,
			"target":34963
		},
		{
			"buffer":0,
			"byteLength":288,
			"byteOffset":8184,
			"target":34962
		},
		{
			"buffer":0,
			"byteLength":288,
			"byteOffset":8472,
			"target":34962
		},
		{
			"buffer":0,
			"byteLength":192,
			"byteOffset":8760,
			"target":34962
		},
		{
			"buffer":0,
			"byteLength":384,
			"byteOffset":8952,
			"target":34962
		},
		{
			"buffer":0,
			"byteLength":72,
			"byteOffset":9336,
			"target":34963
		}
	],
	"samplers":[
		{
			"magFilter":9728,
			"minFilter":9984
		}
	],
	"buffers":[
		{
			"byteLength":9408,
			"uri":"wall_497x04.bin"
		}
	]
}
