{
	"asset":{
		"generator":"Khronos glTF Blender I/O v4.4.55",
		"version":"2.0"
	},
	"scene":0,
	"scenes":[
		{
			"name":"Scene",
			"nodes":[
				0
			]
		}
	],
	"nodes":[
		{
			"mesh":0,
			"name":"wall_869x08"
		}
	],
	"materials":[
		{
			"doubleSided":true,
			"name":"869wall",
			"pbrMetallicRoughness":{
				"baseColorTexture":{
					"index":0
				},
				"metallicFactor":0,
				"roughnessFactor":0.5
			}
		}
	],
	"meshes":[
		{
			"name":"Cylinder.002",
			"primitives":[
				{
					"attributes":{
						"POSITION":0,
						"NORMAL":1,
						"TEXCOORD_0":2,
						"TANGENT":3
					},
					"indices":4,
					"material":0
				}
			]
		}
	],
	"textures":[
		{
			"sampler":0,
			"source":0
		}
	],
	"images":[
		{
			"mimeType":"image/png",
			"name":"869wall",
			"uri":"869wall.png"
		}
	],
	"accessors":[
		{
			"bufferView":0,
			"componentType":5126,
			"count":610,
			"max":[
				1.9995884895324707,
				4.610179901123047,
				0.5147433280944824
			],
			"min":[
				-2.0004115104675293,
				-0.27643391489982605,
				-0.4852566719055176
			],
			"type":"VEC3"
		},
		{
			"bufferView":1,
			"componentType":5126,
			"count":610,
			"type":"VEC3"
		},
		{
			"bufferView":2,
			"componentType":5126,
			"count":610,
			"type":"VEC2"
		},
		{
			"bufferView":3,
			"componentType":5126,
			"count":610,
			"type":"VEC4"
		},
		{
			"bufferView":4,
			"componentType":5123,
			"count":960,
			"type":"SCALAR"
		}
	],
	"bufferViews":[
		{
			"buffer":0,
			"byteLength":7320,
			"byteOffset":0,
			"target":34962
		},
		{
			"buffer":0,
			"byteLength":7320,
			"byteOffset":7320,
			"target":34962
		},
		{
			"buffer":0,
			"byteLength":4880,
			"byteOffset":14640,
			"target":34962
		},
		{
			"buffer":0,
			"byteLength":9760,
			"byteOffset":19520,
			"target":34962
		},
		{
			"buffer":0,
			"byteLength":1920,
			"byteOffset":29280,
			"target":34963
		}
	],
	"samplers":[
		{
			"magFilter":9728,
			"minFilter":9984
		}
	],
	"buffers":[
		{
			"byteLength":31200,
			"uri":"wall_869x08.bin"
		}
	]
}
