{
	"asset":{
		"generator":"Khronos glTF Blender I/O v4.4.55",
		"version":"2.0"
	},
	"scene":0,
	"scenes":[
		{
			"name":"Scene",
			"nodes":[
				0
			]
		}
	],
	"nodes":[
		{
			"mesh":0,
			"name":"wall_980x01"
		}
	],
	"materials":[
		{
			"doubleSided":true,
			"name":"Material",
			"pbrMetallicRoughness":{
				"baseColorTexture":{
					"index":0
				},
				"metallicFactor":0,
				"roughnessFactor":0.5
			}
		}
	],
	"meshes":[
		{
			"name":"Cube.087",
			"primitives":[
				{
					"attributes":{
						"POSITION":0,
						"NORMAL":1,
						"TEXCOORD_0":2,
						"TANGENT":3
					},
					"indices":4,
					"material":0
				}
			]
		}
	],
	"textures":[
		{
			"sampler":0,
			"source":0
		}
	],
	"images":[
		{
			"mimeType":"image/png",
			"name":"980wall",
			"uri":"980wall.png"
		}
	],
	"accessors":[
		{
			"bufferView":0,
			"componentType":5126,
			"count":314,
			"max":[
				0.5,
				5,
				2
			],
			"min":[
				-0.9999998807907104,
				0,
				-2
			],
			"type":"VEC3"
		},
		{
			"bufferView":1,
			"componentType":5126,
			"count":314,
			"type":"VEC3"
		},
		{
			"bufferView":2,
			"componentType":5126,
			"count":314,
			"type":"VEC2"
		},
		{
			"bufferView":3,
			"componentType":5126,
			"count":314,
			"type":"VEC4"
		},
		{
			"bufferView":4,
			"componentType":5123,
			"count":876,
			"type":"SCALAR"
		}
	],
	"bufferViews":[
		{
			"buffer":0,
			"byteLength":3768,
			"byteOffset":0,
			"target":34962
		},
		{
			"buffer":0,
			"byteLength":3768,
			"byteOffset":3768,
			"target":34962
		},
		{
			"buffer":0,
			"byteLength":2512,
			"byteOffset":7536,
			"target":34962
		},
		{
			"buffer":0,
			"byteLength":5024,
			"byteOffset":10048,
			"target":34962
		},
		{
			"buffer":0,
			"byteLength":1752,
			"byteOffset":15072,
			"target":34963
		}
	],
	"samplers":[
		{
			"magFilter":9728,
			"minFilter":9984
		}
	],
	"buffers":[
		{
			"byteLength":16824,
			"uri":"wall_980x01.bin"
		}
	]
}
