{
	"asset":{
		"generator":"Khronos glTF Blender I/O v4.4.55",
		"version":"2.0"
	},
	"scene":0,
	"scenes":[
		{
			"name":"Scene",
			"nodes":[
				0
			]
		}
	],
	"nodes":[
		{
			"mesh":0,
			"name":"wall_953x02"
		}
	],
	"materials":[
		{
			"doubleSided":true,
			"name":"Material",
			"pbrMetallicRoughness":{
				"baseColorTexture":{
					"index":0
				},
				"metallicFactor":0,
				"roughnessFactor":0.5
			}
		}
	],
	"meshes":[
		{
			"name":"Cube.092",
			"primitives":[
				{
					"attributes":{
						"POSITION":0,
						"NORMAL":1,
						"TEXCOORD_0":2,
						"TANGENT":3
					},
					"indices":4,
					"material":0
				}
			]
		}
	],
	"textures":[
		{
			"sampler":0,
			"source":0
		}
	],
	"images":[
		{
			"mimeType":"image/png",
			"name":"980wall",
			"uri":"980wall.png"
		}
	],
	"accessors":[
		{
			"bufferView":0,
			"componentType":5126,
			"count":182,
			"max":[
				-1.1920928955078125e-07,
				5,
				2.000000238418579
			],
			"min":[
				-1.2000001668930054,
				0,
				0
			],
			"type":"VEC3"
		},
		{
			"bufferView":1,
			"componentType":5126,
			"count":182,
			"type":"VEC3"
		},
		{
			"bufferView":2,
			"componentType":5126,
			"count":182,
			"type":"VEC2"
		},
		{
			"bufferView":3,
			"componentType":5126,
			"count":182,
			"type":"VEC4"
		},
		{
			"bufferView":4,
			"componentType":5123,
			"count":492,
			"type":"SCALAR"
		}
	],
	"bufferViews":[
		{
			"buffer":0,
			"byteLength":2184,
			"byteOffset":0,
			"target":34962
		},
		{
			"buffer":0,
			"byteLength":2184,
			"byteOffset":2184,
			"target":34962
		},
		{
			"buffer":0,
			"byteLength":1456,
			"byteOffset":4368,
			"target":34962
		},
		{
			"buffer":0,
			"byteLength":2912,
			"byteOffset":5824,
			"target":34962
		},
		{
			"buffer":0,
			"byteLength":984,
			"byteOffset":8736,
			"target":34963
		}
	],
	"samplers":[
		{
			"magFilter":9728,
			"minFilter":9984
		}
	],
	"buffers":[
		{
			"byteLength":9720,
			"uri":"wall_953x02.bin"
		}
	]
}
