{
	"asset":{
		"generator":"Khronos glTF Blender I/O v4.4.55",
		"version":"2.0"
	},
	"scene":0,
	"scenes":[
		{
			"name":"Scene",
			"nodes":[
				0
			]
		}
	],
	"nodes":[
		{
			"mesh":0,
			"name":"wall_869x16"
		}
	],
	"materials":[
		{
			"doubleSided":true,
			"name":"869wall",
			"pbrMetallicRoughness":{
				"baseColorTexture":{
					"index":0
				},
				"metallicFactor":0,
				"roughnessFactor":0.5
			}
		}
	],
	"meshes":[
		{
			"name":"Cube.026",
			"primitives":[
				{
					"attributes":{
						"POSITION":0,
						"NORMAL":1,
						"TEXCOORD_0":2,
						"TANGENT":3
					},
					"indices":4,
					"material":0
				}
			]
		}
	],
	"textures":[
		{
			"sampler":0,
			"source":0
		}
	],
	"images":[
		{
			"mimeType":"image/png",
			"name":"869wall",
			"uri":"869wall.png"
		}
	],
	"accessors":[
		{
			"bufferView":0,
			"componentType":5126,
			"count":162,
			"max":[
				2.006582260131836,
				5,
				0.5
			],
			"min":[
				-1.9934176206588745,
				-4.76837158203125e-07,
				-0.5
			],
			"type":"VEC3"
		},
		{
			"bufferView":1,
			"componentType":5126,
			"count":162,
			"type":"VEC3"
		},
		{
			"bufferView":2,
			"componentType":5126,
			"count":162,
			"type":"VEC2"
		},
		{
			"bufferView":3,
			"componentType":5126,
			"count":162,
			"type":"VEC4"
		},
		{
			"bufferView":4,
			"componentType":5123,
			"count":300,
			"type":"SCALAR"
		}
	],
	"bufferViews":[
		{
			"buffer":0,
			"byteLength":1944,
			"byteOffset":0,
			"target":34962
		},
		{
			"buffer":0,
			"byteLength":1944,
			"byteOffset":1944,
			"target":34962
		},
		{
			"buffer":0,
			"byteLength":1296,
			"byteOffset":3888,
			"target":34962
		},
		{
			"buffer":0,
			"byteLength":2592,
			"byteOffset":5184,
			"target":34962
		},
		{
			"buffer":0,
			"byteLength":600,
			"byteOffset":7776,
			"target":34963
		}
	],
	"samplers":[
		{
			"magFilter":9728,
			"minFilter":9984
		}
	],
	"buffers":[
		{
			"byteLength":8376,
			"uri":"wall_869x16.bin"
		}
	]
}
