{
	"asset":{
		"generator":"Khronos glTF Blender I/O v4.4.55",
		"version":"2.0"
	},
	"scene":0,
	"scenes":[
		{
			"name":"Scene",
			"nodes":[
				0
			]
		}
	],
	"nodes":[
		{
			"mesh":0,
			"name":"wall_345x04"
		}
	],
	"materials":[
		{
			"doubleSided":true,
			"name":"254wall",
			"pbrMetallicRoughness":{
				"baseColorTexture":{
					"index":0
				},
				"metallicFactor":0,
				"roughnessFactor":0.5
			}
		}
	],
	"meshes":[
		{
			"name":"Cylinder.005",
			"primitives":[
				{
					"attributes":{
						"POSITION":0,
						"NORMAL":1,
						"TEXCOORD_0":2,
						"TANGENT":3
					},
					"indices":4,
					"material":0
				},
				{
					"attributes":{
						"POSITION":5,
						"NORMAL":6,
						"TEXCOORD_0":7,
						"TANGENT":8
					},
					"indices":9,
					"material":0
				}
			]
		}
	],
	"textures":[
		{
			"sampler":0,
			"source":0
		}
	],
	"images":[
		{
			"mimeType":"image/png",
			"name":"254wall",
			"uri":"254wall.png"
		}
	],
	"accessors":[
		{
			"bufferView":0,
			"componentType":5126,
			"count":120,
			"max":[
				0.8543335795402527,
				4.656911849975586,
				0.12790659070014954
			],
			"min":[
				-0.7779305577278137,
				-0.03540271520614624,
				-0.07847559452056885
			],
			"type":"VEC3"
		},
		{
			"bufferView":1,
			"componentType":5126,
			"count":120,
			"type":"VEC3"
		},
		{
			"bufferView":2,
			"componentType":5126,
			"count":120,
			"type":"VEC2"
		},
		{
			"bufferView":3,
			"componentType":5126,
			"count":120,
			"type":"VEC4"
		},
		{
			"bufferView":4,
			"componentType":5123,
			"count":192,
			"type":"SCALAR"
		},
		{
			"bufferView":5,
			"componentType":5126,
			"count":72,
			"max":[
				0.9889170527458191,
				3.7180309295654297,
				0.5102358460426331
			],
			"min":[
				-0.9735110402107239,
				-0.27643391489982605,
				-0.48976415395736694
			],
			"type":"VEC3"
		},
		{
			"bufferView":6,
			"componentType":5126,
			"count":72,
			"type":"VEC3"
		},
		{
			"bufferView":7,
			"componentType":5126,
			"count":72,
			"type":"VEC2"
		},
		{
			"bufferView":8,
			"componentType":5126,
			"count":72,
			"type":"VEC4"
		},
		{
			"bufferView":9,
			"componentType":5123,
			"count":108,
			"type":"SCALAR"
		}
	],
	"bufferViews":[
		{
			"buffer":0,
			"byteLength":1440,
			"byteOffset":0,
			"target":34962
		},
		{
			"buffer":0,
			"byteLength":1440,
			"byteOffset":1440,
			"target":34962
		},
		{
			"buffer":0,
			"byteLength":960,
			"byteOffset":2880,
			"target":34962
		},
		{
			"buffer":0,
			"byteLength":1920,
			"byteOffset":3840,
			"target":34962
		},
		{
			"buffer":0,
			"byteLength":384,
			"byteOffset":5760,
			"target":34963
		},
		{
			"buffer":0,
			"byteLength":864,
			"byteOffset":6144,
			"target":34962
		},
		{
			"buffer":0,
			"byteLength":864,
			"byteOffset":7008,
			"target":34962
		},
		{
			"buffer":0,
			"byteLength":576,
			"byteOffset":7872,
			"target":34962
		},
		{
			"buffer":0,
			"byteLength":1152,
			"byteOffset":8448,
			"target":34962
		},
		{
			"buffer":0,
			"byteLength":216,
			"byteOffset":9600,
			"target":34963
		}
	],
	"samplers":[
		{
			"magFilter":9728,
			"minFilter":9984
		}
	],
	"buffers":[
		{
			"byteLength":9816,
			"uri":"wall_345x04.bin"
		}
	]
}
