{
	"asset":{
		"generator":"Khronos glTF Blender I/O v4.4.55",
		"version":"2.0"
	},
	"scene":0,
	"scenes":[
		{
			"name":"Scene",
			"nodes":[
				0
			]
		}
	],
	"nodes":[
		{
			"mesh":0,
			"name":"wall_879x20"
		}
	],
	"materials":[
		{
			"doubleSided":true,
			"name":"254wall",
			"pbrMetallicRoughness":{
				"baseColorTexture":{
					"index":0
				},
				"metallicFactor":0,
				"roughnessFactor":0.5
			}
		}
	],
	"meshes":[
		{
			"name":"Cylinder.022",
			"primitives":[
				{
					"attributes":{
						"POSITION":0,
						"NORMAL":1,
						"TEXCOORD_0":2,
						"TANGENT":3
					},
					"indices":4,
					"material":0
				},
				{
					"attributes":{
						"POSITION":5,
						"NORMAL":6,
						"TEXCOORD_0":7,
						"TANGENT":8
					},
					"indices":9,
					"material":0
				}
			]
		}
	],
	"textures":[
		{
			"sampler":0,
			"source":0
		}
	],
	"images":[
		{
			"mimeType":"image/png",
			"name":"254wall",
			"uri":"254wall.png"
		}
	],
	"accessors":[
		{
			"bufferView":0,
			"componentType":5126,
			"count":30,
			"max":[
				0.039085790514945984,
				4.961475849151611,
				0.0633106455206871
			],
			"min":[
				-0.1672964096069336,
				0.016529321670532227,
				-0.15369221568107605
			],
			"type":"VEC3"
		},
		{
			"bufferView":1,
			"componentType":5126,
			"count":30,
			"type":"VEC3"
		},
		{
			"bufferView":2,
			"componentType":5126,
			"count":30,
			"type":"VEC2"
		},
		{
			"bufferView":3,
			"componentType":5126,
			"count":30,
			"type":"VEC4"
		},
		{
			"bufferView":4,
			"componentType":5123,
			"count":48,
			"type":"SCALAR"
		},
		{
			"bufferView":5,
			"componentType":5126,
			"count":104,
			"max":[
				0.18730974197387695,
				4.022594928741455,
				0.14566271007061005
			],
			"min":[
				-0.5291693806648254,
				1.0514986515045166,
				-0.5331105589866638
			],
			"type":"VEC3"
		},
		{
			"bufferView":6,
			"componentType":5126,
			"count":104,
			"type":"VEC3"
		},
		{
			"bufferView":7,
			"componentType":5126,
			"count":104,
			"type":"VEC2"
		},
		{
			"bufferView":8,
			"componentType":5126,
			"count":104,
			"type":"VEC4"
		},
		{
			"bufferView":9,
			"componentType":5123,
			"count":144,
			"type":"SCALAR"
		}
	],
	"bufferViews":[
		{
			"buffer":0,
			"byteLength":360,
			"byteOffset":0,
			"target":34962
		},
		{
			"buffer":0,
			"byteLength":360,
			"byteOffset":360,
			"target":34962
		},
		{
			"buffer":0,
			"byteLength":240,
			"byteOffset":720,
			"target":34962
		},
		{
			"buffer":0,
			"byteLength":480,
			"byteOffset":960,
			"target":34962
		},
		{
			"buffer":0,
			"byteLength":96,
			"byteOffset":1440,
			"target":34963
		},
		{
			"buffer":0,
			"byteLength":1248,
			"byteOffset":1536,
			"target":34962
		},
		{
			"buffer":0,
			"byteLength":1248,
			"byteOffset":2784,
			"target":34962
		},
		{
			"buffer":0,
			"byteLength":832,
			"byteOffset":4032,
			"target":34962
		},
		{
			"buffer":0,
			"byteLength":1664,
			"byteOffset":4864,
			"target":34962
		},
		{
			"buffer":0,
			"byteLength":288,
			"byteOffset":6528,
			"target":34963
		}
	],
	"samplers":[
		{
			"magFilter":9728,
			"minFilter":9984
		}
	],
	"buffers":[
		{
			"byteLength":6816,
			"uri":"wall_879x20.bin"
		}
	]
}
