{
	"asset":{
		"generator":"Khronos glTF Blender I/O v4.4.55",
		"version":"2.0"
	},
	"scene":0,
	"scenes":[
		{
			"name":"Scene",
			"nodes":[
				0
			]
		}
	],
	"nodes":[
		{
			"mesh":0,
			"name":"wall_909x06"
		}
	],
	"materials":[
		{
			"doubleSided":true,
			"name":"254wall",
			"pbrMetallicRoughness":{
				"baseColorTexture":{
					"index":0
				},
				"metallicFactor":0,
				"roughnessFactor":0.5
			}
		}
	],
	"meshes":[
		{
			"name":"Cylinder.008",
			"primitives":[
				{
					"attributes":{
						"POSITION":0,
						"NORMAL":1,
						"TEXCOORD_0":2,
						"TANGENT":3
					},
					"indices":4,
					"material":0
				},
				{
					"attributes":{
						"POSITION":5,
						"NORMAL":6,
						"TEXCOORD_0":7,
						"TANGENT":8
					},
					"indices":9,
					"material":0
				}
			]
		}
	],
	"textures":[
		{
			"sampler":0,
			"source":0
		}
	],
	"images":[
		{
			"mimeType":"image/png",
			"name":"254wall",
			"uri":"254wall.png"
		}
	],
	"accessors":[
		{
			"bufferView":0,
			"componentType":5126,
			"count":274,
			"max":[
				0.9024488925933838,
				4.610179901123047,
				0.18460258841514587
			],
			"min":[
				-0.9096630811691284,
				-0.17708754539489746,
				-0.10889947414398193
			],
			"type":"VEC3"
		},
		{
			"bufferView":1,
			"componentType":5126,
			"count":274,
			"type":"VEC3"
		},
		{
			"bufferView":2,
			"componentType":5126,
			"count":274,
			"type":"VEC2"
		},
		{
			"bufferView":3,
			"componentType":5126,
			"count":274,
			"type":"VEC4"
		},
		{
			"bufferView":4,
			"componentType":5123,
			"count":432,
			"type":"SCALAR"
		},
		{
			"bufferView":5,
			"componentType":5126,
			"count":24,
			"max":[
				1.000446081161499,
				-0.1427699774503708,
				0.526925802230835
			],
			"min":[
				-0.997112512588501,
				-0.27643391489982605,
				-0.47307419776916504
			],
			"type":"VEC3"
		},
		{
			"bufferView":6,
			"componentType":5126,
			"count":24,
			"type":"VEC3"
		},
		{
			"bufferView":7,
			"componentType":5126,
			"count":24,
			"type":"VEC2"
		},
		{
			"bufferView":8,
			"componentType":5126,
			"count":24,
			"type":"VEC4"
		},
		{
			"bufferView":9,
			"componentType":5123,
			"count":36,
			"type":"SCALAR"
		}
	],
	"bufferViews":[
		{
			"buffer":0,
			"byteLength":3288,
			"byteOffset":0,
			"target":34962
		},
		{
			"buffer":0,
			"byteLength":3288,
			"byteOffset":3288,
			"target":34962
		},
		{
			"buffer":0,
			"byteLength":2192,
			"byteOffset":6576,
			"target":34962
		},
		{
			"buffer":0,
			"byteLength":4384,
			"byteOffset":8768,
			"target":34962
		},
		{
			"buffer":0,
			"byteLength":864,
			"byteOffset":13152,
			"target":34963
		},
		{
			"buffer":0,
			"byteLength":288,
			"byteOffset":14016,
			"target":34962
		},
		{
			"buffer":0,
			"byteLength":288,
			"byteOffset":14304,
			"target":34962
		},
		{
			"buffer":0,
			"byteLength":192,
			"byteOffset":14592,
			"target":34962
		},
		{
			"buffer":0,
			"byteLength":384,
			"byteOffset":14784,
			"target":34962
		},
		{
			"buffer":0,
			"byteLength":72,
			"byteOffset":15168,
			"target":34963
		}
	],
	"samplers":[
		{
			"magFilter":9728,
			"minFilter":9984
		}
	],
	"buffers":[
		{
			"byteLength":15240,
			"uri":"wall_909x06.bin"
		}
	]
}
