{
	"asset":{
		"generator":"Khronos glTF Blender I/O v4.3.47",
		"version":"2.0"
	},
	"scene":0,
	"scenes":[
		{
			"name":"Scene",
			"nodes":[
				60
			]
		}
	],
	"nodes":[
		{
			"name":"rotor",
			"rotation":[
				-8.557136332854043e-09,
				1.7114272665708086e-08,
				-2.928983286277023e-16,
				1
			],
			"translation":[
				0,
				1.399999976158142,
				0
			]
		},
		{
			"name":"water_f00",
			"translation":[
				0.13219508528709412,
				0.0,
				0.025768976658582687
			],
			"rotation":[
				0.0,
				0.0,
				0.0,
				1.0
			],
			"scale":[
				1.0,
				1.0,
				1.0
			]
		},
		{
			"name":"water_f01",
			"translation":[
				0.0036644372157752514,
				0.0,
				0.09019481390714645
			],
			"rotation":[
				0.0,
				0.0,
				0.0,
				1.0
			],
			"scale":[
				1.0,
				1.0,
				1.0
			]
		},
		{
			"name":"water_f02",
			"translation":[
				-0.16872192919254303,
				0.0,
				0.05530053749680519
			],
			"rotation":[
				0.0,
				0.0,
				0.0,
				1.0
			],
			"scale":[
				1.0,
				1.0,
				1.0
			]
		},
		{
			"name":"water_f03",
			"translation":[
				-0.003873263020068407,
				0.0,
				0.0638086199760437
			],
			"rotation":[
				0.0,
				0.0,
				0.0,
				1.0
			],
			"scale":[
				1.0,
				1.0,
				1.0
			]
		},
		{
			"name":"water_f04",
			"translation":[
				-0.10198695957660675,
				0.0,
				0.04655610769987106
			],
			"rotation":[
				0.0,
				0.0,
				0.0,
				1.0
			],
			"scale":[
				1.0,
				1.0,
				1.0
			]
		},
		{
			"name":"water_f05",
			"translation":[
				-0.01334860734641552,
				0.0,
				0.05921298265457153
			],
			"rotation":[
				0.0,
				0.0,
				0.0,
				1.0
			],
			"scale":[
				1.0,
				1.0,
				1.0
			]
		},
		{
			"name":"water_f06",
			"translation":[
				0.032256823033094406,
				0.0,
				0.056499384343624115
			],
			"rotation":[
				0.0,
				0.0,
				0.0,
				1.0
			],
			"scale":[
				1.0,
				1.0,
				1.0
			]
		},
		{
			"name":"water_f07",
			"translation":[
				0.08077086508274078,
				0.0,
				0.05934784188866615
			],
			"rotation":[
				0.0,
				0.0,
				0.0,
				1.0
			],
			"scale":[
				1.0,
				1.0,
				1.0
			]
		},
		{
			"name":"water_f08",
			"translation":[
				0.1253533661365509,
				0.0,
				0.06552283465862274
			],
			"rotation":[
				0.0,
				0.0,
				0.0,
				1.0
			],
			"scale":[
				1.0,
				1.0,
				1.0
			]
		},
		{
			"name":"canal_glisten",
			"translation":[
				0.15052367746829987,
				0.0,
				0.02582731284201145
			],
			"rotation":[
				0.0,
				0.0,
				0.0,
				1.0
			],
			"scale":[
				1.0,
				1.0,
				1.0
			]
		},
		{
			"name":"pw_e00",
			"translation":[
				1.2756404876708984,
				0.20638408660888663,
				-0.006308411248028278
			],
			"rotation":[
				0.0,
				0.0,
				0.3826834261417389,
				-0.9238795042037964
			],
			"scale":[
				0.0,
				0.0,
				0.0
			]
		},
		{
			"name":"pw_e01",
			"translation":[
				1.2789742946624756,
				0.20305039882659903,
				-0.016584159806370735
			],
			"rotation":[
				0.0,
				0.0,
				0.3826834261417389,
				-0.9238795042037964
			],
			"scale":[
				0.0,
				0.0,
				0.0
			]
		},
		{
			"name":"pw_e02",
			"translation":[
				1.281984806060791,
				0.20003976821899405,
				-0.010263156145811081
			],
			"rotation":[
				0.0,
				0.0,
				0.3826834261417389,
				-0.9238795042037964
			],
			"scale":[
				0.0,
				0.0,
				0.0
			]
		},
		{
			"name":"pw_e03",
			"translation":[
				1.282223105430603,
				0.19980146884918204,
				-0.012640449218451977
			],
			"rotation":[
				0.0,
				0.0,
				0.3826834261417389,
				-0.9238795042037964
			],
			"scale":[
				0.0,
				0.0,
				0.0
			]
		},
		{
			"name":"pw_e04",
			"translation":[
				1.2799400091171265,
				0.20208444595336905,
				-0.00030120526207610965
			],
			"rotation":[
				0.0,
				0.0,
				0.3826834261417389,
				-0.9238795042037964
			],
			"scale":[
				0.0,
				0.0,
				0.0
			]
		},
		{
			"name":"pw_e05",
			"translation":[
				1.273168921470642,
				0.20885577201843253,
				0.0003246734559070319
			],
			"rotation":[
				0.0,
				0.0,
				0.0,
				1.0
			],
			"scale":[
				0.0,
				0.0,
				0.0
			]
		},
		{
			"name":"pw_e06",
			"translation":[
				1.2871633768081665,
				0.1948606014251708,
				0.004577468615025282
			],
			"rotation":[
				0.0,
				0.0,
				0.0,
				1.0
			],
			"scale":[
				0.0,
				0.0,
				0.0
			]
		},
		{
			"name":"pw_e07",
			"translation":[
				1.2950551509857178,
				0.18696870803833,
				0.010606063529849052
			],
			"rotation":[
				0.0,
				0.0,
				0.0,
				1.0
			],
			"scale":[
				0.0,
				0.0,
				0.0
			]
		},
		{
			"name":"pw_e08",
			"translation":[
				1.3030818700790405,
				0.1789423465728759,
				0.021721312776207924
			],
			"rotation":[
				0.0,
				0.0,
				0.0,
				1.0
			],
			"scale":[
				0.0,
				0.0,
				0.0
			]
		},
		{
			"name":"pw_e09",
			"translation":[
				1.3049653768539429,
				0.177058720588684,
				0.03214285895228386
			],
			"rotation":[
				0.0,
				0.0,
				0.0,
				1.0
			],
			"scale":[
				0.0,
				0.0,
				0.0
			]
		},
		{
			"name":"pw_e10",
			"translation":[
				1.3070051670074463,
				0.17501904964447013,
				0.03750000521540642
			],
			"rotation":[
				0.0,
				0.0,
				0.0,
				1.0
			],
			"scale":[
				0.0,
				0.0,
				0.0
			]
		},
		{
			"name":"pw_e11",
			"translation":[
				1.3093849420547485,
				0.17263939380645743,
				0.05000000074505806
			],
			"rotation":[
				0.0,
				0.0,
				0.0,
				1.0
			],
			"scale":[
				0.0,
				0.0,
				0.0
			]
		},
		{
			"name":"pw_e12",
			"translation":[
				1.3113936185836792,
				0.17063047885894767,
				0.06477272510528564
			],
			"rotation":[
				0.0,
				0.0,
				0.0,
				1.0
			],
			"scale":[
				0.0,
				0.0,
				0.0
			]
		},
		{
			"name":"pw_e13",
			"translation":[
				1.3116483688354492,
				0.17037572860717765,
				0.07987804710865021
			],
			"rotation":[
				0.0,
				0.0,
				0.0,
				1.0
			],
			"scale":[
				0.0,
				0.0,
				0.0
			]
		},
		{
			"name":"pw_e14",
			"translation":[
				1.3039833307266235,
				0.17804076671600333,
				0.09166666865348816
			],
			"rotation":[
				0.0,
				0.0,
				0.0,
				1.0
			],
			"scale":[
				0.0,
				0.0,
				0.0
			]
		},
		{
			"name":"pw_e15",
			"translation":[
				1.2686283588409424,
				0.21339621543884268,
				0.09166666865348816
			],
			"rotation":[
				0.0,
				0.0,
				0.0,
				1.0
			],
			"scale":[
				0.0,
				0.0,
				0.0
			]
		},
		{
			"name":"pw_e16",
			"translation":[
				1.239974021911621,
				0.24204995632171622,
				0.09264706820249557
			],
			"rotation":[
				0.0,
				0.0,
				0.0,
				1.0
			],
			"scale":[
				0.0,
				0.0,
				0.0
			]
		},
		{
			"name":"pw_e17",
			"translation":[
				1.2099483013153076,
				0.2720768690109252,
				0.10000000149011612
			],
			"rotation":[
				0.0,
				0.0,
				0.0,
				1.0
			],
			"scale":[
				0.0,
				0.0,
				0.0
			]
		},
		{
			"name":"pw_e18",
			"translation":[
				1.1829897165298462,
				0.2990349769592284,
				0.10500000417232513
			],
			"rotation":[
				0.0,
				0.0,
				0.0,
				1.0
			],
			"scale":[
				0.0,
				0.0,
				0.0
			]
		},
		{
			"name":"pw_e19",
			"translation":[
				1.1635444164276123,
				0.31848015785217276,
				0.1160714253783226
			],
			"rotation":[
				0.0,
				0.0,
				0.0,
				1.0
			],
			"scale":[
				0.0,
				0.0,
				0.0
			]
		},
		{
			"name":"pw_e20",
			"translation":[
				1.1506260633468628,
				0.3313983917236327,
				0.13846156001091003
			],
			"rotation":[
				0.0,
				0.0,
				0.0,
				1.0
			],
			"scale":[
				0.0,
				0.0,
				0.0
			]
		},
		{
			"name":"pw_e21",
			"translation":[
				1.1517592668533325,
				0.33026530742645255,
				0.15833334624767303
			],
			"rotation":[
				0.0,
				0.0,
				0.0,
				1.0
			],
			"scale":[
				0.0,
				0.0,
				0.0
			]
		},
		{
			"name":"pw_e22",
			"translation":[
				1.1514912843704224,
				0.33053293228149405,
				0.17954546213150024
			],
			"rotation":[
				0.0,
				0.0,
				0.0,
				1.0
			],
			"scale":[
				0.0,
				0.0,
				0.0
			]
		},
		{
			"name":"pw_e23",
			"translation":[
				1.151170015335083,
				0.3308544397354125,
				0.20499999821186066
			],
			"rotation":[
				0.0,
				0.0,
				0.0,
				1.0
			],
			"scale":[
				0.0,
				0.0,
				0.0
			]
		},
		{
			"name":"pw_e24",
			"translation":[
				1.1547054052352905,
				0.327319049835205,
				0.22500000894069672
			],
			"rotation":[
				0.0,
				0.0,
				0.0,
				1.0
			],
			"scale":[
				0.0,
				0.0,
				0.0
			]
		},
		{
			"name":"pw_e25",
			"translation":[
				1.1569150686264038,
				0.3251093864440917,
				0.24687501788139343
			],
			"rotation":[
				0.0,
				0.0,
				0.0,
				1.0
			],
			"scale":[
				0.0,
				0.0,
				0.0
			]
		},
		{
			"name":"pw_e26",
			"translation":[
				1.154705286026001,
				0.327319049835205,
				0.267857164144516
			],
			"rotation":[
				0.0,
				0.0,
				0.0,
				1.0
			],
			"scale":[
				0.0,
				0.0,
				0.0
			]
		},
		{
			"name":"pw_drip0",
			"translation":[
				1.3668373823165894,
				0.11518695205450058,
				0.32499998807907104
			],
			"rotation":[
				0.0,
				0.0,
				0.0,
				1.0
			],
			"scale":[
				0.0,
				0.0,
				0.0
			]
		},
		{
			"name":"pw_drip1",
			"translation":[
				1.3668373823165894,
				0.11518695205450058,
				0.02500000037252903
			],
			"rotation":[
				0.0,
				0.0,
				0.0,
				1.0
			],
			"scale":[
				0.0,
				0.0,
				0.0
			]
		},
		{
			"name":"pw_drip2",
			"translation":[
				1.3668373823165894,
				0.11518695205450058,
				-0.125
			],
			"rotation":[
				0.0,
				0.0,
				0.0,
				1.0
			],
			"scale":[
				0.0,
				0.0,
				0.0
			]
		},
		{
			"name":"pw_drip3",
			"translation":[
				1.875,
				1.4579999446868896,
				0.42500001192092896
			],
			"rotation":[
				0.0,
				0.0,
				0.0,
				1.0
			],
			"scale":[
				0.0,
				0.0,
				0.0
			]
		},
		{
			"name":"pw_drip4",
			"translation":[
				1.0373256206512451,
				2.519350051879883,
				0.22499999403953552
			],
			"rotation":[
				0.0,
				0.0,
				0.0,
				1.0
			],
			"scale":[
				0.0,
				0.0,
				0.0
			]
		},
		{
			"name":"pw_drip5",
			"translation":[
				1.4736149311065674,
				0.2392037808895111,
				0.22499999403953552
			],
			"rotation":[
				0.0,
				0.0,
				0.0,
				1.0
			],
			"scale":[
				0.0,
				0.0,
				0.0
			]
		},
		{
			"name":"pw_drip6",
			"translation":[
				0.9679598808288574,
				2.643801689147949,
				-0.17499999701976776
			],
			"rotation":[
				0.0,
				0.0,
				0.0,
				1.0
			],
			"scale":[
				0.0,
				0.0,
				0.0
			]
		},
		{
			"name":"pw_drip7",
			"translation":[
				1.569177508354187,
				0.37205496430397034,
				0.02500000037252903
			],
			"rotation":[
				0.0,
				0.0,
				0.0,
				1.0
			],
			"scale":[
				0.0,
				0.0,
				0.0
			]
		},
		{
			"name":"pw_drip8",
			"translation":[
				0.8271932005882263,
				2.682474374771118,
				-0.07500000298023224
			],
			"rotation":[
				0.0,
				0.0,
				0.0,
				1.0
			],
			"scale":[
				0.0,
				0.0,
				0.0
			]
		},
		{
			"name":"pw_drip9",
			"translation":[
				1.6527975797653198,
				0.5127294659614563,
				0.22499999403953552
			],
			"rotation":[
				0.0,
				0.0,
				0.0,
				1.0
			],
			"scale":[
				0.0,
				0.0,
				0.0
			]
		},
		{
			"mesh":0,
			"name":"Waterwheel",
			"skin":0
		},
		{
			"mesh":1,
			"name":"canal_water_f00",
			"skin":0
		},
		{
			"mesh":2,
			"name":"canal_water_f01",
			"skin":0
		},
		{
			"mesh":3,
			"name":"canal_water_f02",
			"skin":0
		},
		{
			"mesh":4,
			"name":"canal_water_f03",
			"skin":0
		},
		{
			"mesh":5,
			"name":"canal_water_f04",
			"skin":0
		},
		{
			"mesh":6,
			"name":"canal_water_f05",
			"skin":0
		},
		{
			"mesh":7,
			"name":"canal_water_f06",
			"skin":0
		},
		{
			"mesh":8,
			"name":"canal_water_f07",
			"skin":0
		},
		{
			"mesh":9,
			"name":"canal_water_f08",
			"skin":0
		},
		{
			"mesh":10,
			"name":"canal_glisten",
			"skin":0
		},
		{
			"mesh":11,
			"name":"paddle_water",
			"skin":0
		},
		{
			"name":"Armature",
			"children":[
				48,
				49,
				50,
				51,
				52,
				53,
				54,
				55,
				56,
				57,
				58,
				59,
				0,
				1,
				2,
				3,
				4,
				5,
				6,
				7,
				8,
				9,
				10,
				11,
				12,
				13,
				14,
				15,
				16,
				17,
				18,
				19,
				20,
				21,
				22,
				23,
				24,
				25,
				26,
				27,
				28,
				29,
				30,
				31,
				32,
				33,
				34,
				35,
				36,
				37,
				38,
				39,
				40,
				41,
				42,
				43,
				44,
				45,
				46,
				47
			]
		}
	],
	"animations":[
		{
			"channels":[
				{
					"sampler":0,
					"target":{
						"node":0,
						"path":"translation"
					}
				},
				{
					"sampler":1,
					"target":{
						"node":0,
						"path":"rotation"
					}
				},
				{
					"sampler":2,
					"target":{
						"node":0,
						"path":"scale"
					}
				},
				{
					"sampler":5,
					"target":{
						"node":1,
						"path":"translation"
					}
				},
				{
					"sampler":3,
					"target":{
						"node":1,
						"path":"rotation"
					}
				},
				{
					"sampler":4,
					"target":{
						"node":1,
						"path":"scale"
					}
				},
				{
					"sampler":6,
					"target":{
						"node":2,
						"path":"translation"
					}
				},
				{
					"sampler":3,
					"target":{
						"node":2,
						"path":"rotation"
					}
				},
				{
					"sampler":4,
					"target":{
						"node":2,
						"path":"scale"
					}
				},
				{
					"sampler":7,
					"target":{
						"node":3,
						"path":"translation"
					}
				},
				{
					"sampler":3,
					"target":{
						"node":3,
						"path":"rotation"
					}
				},
				{
					"sampler":4,
					"target":{
						"node":3,
						"path":"scale"
					}
				},
				{
					"sampler":8,
					"target":{
						"node":4,
						"path":"translation"
					}
				},
				{
					"sampler":3,
					"target":{
						"node":4,
						"path":"rotation"
					}
				},
				{
					"sampler":4,
					"target":{
						"node":4,
						"path":"scale"
					}
				},
				{
					"sampler":9,
					"target":{
						"node":5,
						"path":"translation"
					}
				},
				{
					"sampler":3,
					"target":{
						"node":5,
						"path":"rotation"
					}
				},
				{
					"sampler":4,
					"target":{
						"node":5,
						"path":"scale"
					}
				},
				{
					"sampler":10,
					"target":{
						"node":6,
						"path":"translation"
					}
				},
				{
					"sampler":3,
					"target":{
						"node":6,
						"path":"rotation"
					}
				},
				{
					"sampler":4,
					"target":{
						"node":6,
						"path":"scale"
					}
				},
				{
					"sampler":11,
					"target":{
						"node":7,
						"path":"translation"
					}
				},
				{
					"sampler":3,
					"target":{
						"node":7,
						"path":"rotation"
					}
				},
				{
					"sampler":4,
					"target":{
						"node":7,
						"path":"scale"
					}
				},
				{
					"sampler":12,
					"target":{
						"node":8,
						"path":"translation"
					}
				},
				{
					"sampler":3,
					"target":{
						"node":8,
						"path":"rotation"
					}
				},
				{
					"sampler":4,
					"target":{
						"node":8,
						"path":"scale"
					}
				},
				{
					"sampler":13,
					"target":{
						"node":9,
						"path":"translation"
					}
				},
				{
					"sampler":3,
					"target":{
						"node":9,
						"path":"rotation"
					}
				},
				{
					"sampler":4,
					"target":{
						"node":9,
						"path":"scale"
					}
				},
				{
					"sampler":14,
					"target":{
						"node":10,
						"path":"translation"
					}
				},
				{
					"sampler":3,
					"target":{
						"node":10,
						"path":"rotation"
					}
				},
				{
					"sampler":4,
					"target":{
						"node":10,
						"path":"scale"
					}
				},
				{
					"sampler":15,
					"target":{
						"node":11,
						"path":"translation"
					}
				},
				{
					"sampler":16,
					"target":{
						"node":11,
						"path":"rotation"
					}
				},
				{
					"sampler":17,
					"target":{
						"node":11,
						"path":"scale"
					}
				},
				{
					"sampler":18,
					"target":{
						"node":12,
						"path":"translation"
					}
				},
				{
					"sampler":19,
					"target":{
						"node":12,
						"path":"rotation"
					}
				},
				{
					"sampler":20,
					"target":{
						"node":12,
						"path":"scale"
					}
				},
				{
					"sampler":21,
					"target":{
						"node":13,
						"path":"translation"
					}
				},
				{
					"sampler":22,
					"target":{
						"node":13,
						"path":"rotation"
					}
				},
				{
					"sampler":23,
					"target":{
						"node":13,
						"path":"scale"
					}
				},
				{
					"sampler":24,
					"target":{
						"node":14,
						"path":"translation"
					}
				},
				{
					"sampler":25,
					"target":{
						"node":14,
						"path":"rotation"
					}
				},
				{
					"sampler":26,
					"target":{
						"node":14,
						"path":"scale"
					}
				},
				{
					"sampler":27,
					"target":{
						"node":15,
						"path":"translation"
					}
				},
				{
					"sampler":28,
					"target":{
						"node":15,
						"path":"rotation"
					}
				},
				{
					"sampler":29,
					"target":{
						"node":15,
						"path":"scale"
					}
				},
				{
					"sampler":30,
					"target":{
						"node":16,
						"path":"translation"
					}
				},
				{
					"sampler":31,
					"target":{
						"node":16,
						"path":"rotation"
					}
				},
				{
					"sampler":32,
					"target":{
						"node":16,
						"path":"scale"
					}
				},
				{
					"sampler":33,
					"target":{
						"node":17,
						"path":"translation"
					}
				},
				{
					"sampler":34,
					"target":{
						"node":17,
						"path":"rotation"
					}
				},
				{
					"sampler":35,
					"target":{
						"node":17,
						"path":"scale"
					}
				},
				{
					"sampler":36,
					"target":{
						"node":18,
						"path":"translation"
					}
				},
				{
					"sampler":37,
					"target":{
						"node":18,
						"path":"rotation"
					}
				},
				{
					"sampler":38,
					"target":{
						"node":18,
						"path":"scale"
					}
				},
				{
					"sampler":39,
					"target":{
						"node":19,
						"path":"translation"
					}
				},
				{
					"sampler":40,
					"target":{
						"node":19,
						"path":"rotation"
					}
				},
				{
					"sampler":41,
					"target":{
						"node":19,
						"path":"scale"
					}
				},
				{
					"sampler":42,
					"target":{
						"node":20,
						"path":"translation"
					}
				},
				{
					"sampler":43,
					"target":{
						"node":20,
						"path":"rotation"
					}
				},
				{
					"sampler":44,
					"target":{
						"node":20,
						"path":"scale"
					}
				},
				{
					"sampler":45,
					"target":{
						"node":21,
						"path":"translation"
					}
				},
				{
					"sampler":46,
					"target":{
						"node":21,
						"path":"rotation"
					}
				},
				{
					"sampler":47,
					"target":{
						"node":21,
						"path":"scale"
					}
				},
				{
					"sampler":48,
					"target":{
						"node":22,
						"path":"translation"
					}
				},
				{
					"sampler":49,
					"target":{
						"node":22,
						"path":"rotation"
					}
				},
				{
					"sampler":50,
					"target":{
						"node":22,
						"path":"scale"
					}
				},
				{
					"sampler":51,
					"target":{
						"node":23,
						"path":"translation"
					}
				},
				{
					"sampler":52,
					"target":{
						"node":23,
						"path":"rotation"
					}
				},
				{
					"sampler":53,
					"target":{
						"node":23,
						"path":"scale"
					}
				},
				{
					"sampler":54,
					"target":{
						"node":24,
						"path":"translation"
					}
				},
				{
					"sampler":55,
					"target":{
						"node":24,
						"path":"rotation"
					}
				},
				{
					"sampler":56,
					"target":{
						"node":24,
						"path":"scale"
					}
				},
				{
					"sampler":57,
					"target":{
						"node":25,
						"path":"translation"
					}
				},
				{
					"sampler":58,
					"target":{
						"node":25,
						"path":"rotation"
					}
				},
				{
					"sampler":59,
					"target":{
						"node":25,
						"path":"scale"
					}
				},
				{
					"sampler":60,
					"target":{
						"node":26,
						"path":"translation"
					}
				},
				{
					"sampler":61,
					"target":{
						"node":26,
						"path":"rotation"
					}
				},
				{
					"sampler":62,
					"target":{
						"node":26,
						"path":"scale"
					}
				},
				{
					"sampler":63,
					"target":{
						"node":27,
						"path":"translation"
					}
				},
				{
					"sampler":64,
					"target":{
						"node":27,
						"path":"rotation"
					}
				},
				{
					"sampler":65,
					"target":{
						"node":27,
						"path":"scale"
					}
				},
				{
					"sampler":66,
					"target":{
						"node":28,
						"path":"translation"
					}
				},
				{
					"sampler":67,
					"target":{
						"node":28,
						"path":"rotation"
					}
				},
				{
					"sampler":68,
					"target":{
						"node":28,
						"path":"scale"
					}
				},
				{
					"sampler":69,
					"target":{
						"node":29,
						"path":"translation"
					}
				},
				{
					"sampler":70,
					"target":{
						"node":29,
						"path":"rotation"
					}
				},
				{
					"sampler":71,
					"target":{
						"node":29,
						"path":"scale"
					}
				},
				{
					"sampler":72,
					"target":{
						"node":30,
						"path":"translation"
					}
				},
				{
					"sampler":73,
					"target":{
						"node":30,
						"path":"rotation"
					}
				},
				{
					"sampler":74,
					"target":{
						"node":30,
						"path":"scale"
					}
				},
				{
					"sampler":75,
					"target":{
						"node":31,
						"path":"translation"
					}
				},
				{
					"sampler":76,
					"target":{
						"node":31,
						"path":"rotation"
					}
				},
				{
					"sampler":77,
					"target":{
						"node":31,
						"path":"scale"
					}
				},
				{
					"sampler":78,
					"target":{
						"node":32,
						"path":"translation"
					}
				},
				{
					"sampler":79,
					"target":{
						"node":32,
						"path":"rotation"
					}
				},
				{
					"sampler":80,
					"target":{
						"node":32,
						"path":"scale"
					}
				},
				{
					"sampler":81,
					"target":{
						"node":33,
						"path":"translation"
					}
				},
				{
					"sampler":82,
					"target":{
						"node":33,
						"path":"rotation"
					}
				},
				{
					"sampler":83,
					"target":{
						"node":33,
						"path":"scale"
					}
				},
				{
					"sampler":84,
					"target":{
						"node":34,
						"path":"translation"
					}
				},
				{
					"sampler":85,
					"target":{
						"node":34,
						"path":"rotation"
					}
				},
				{
					"sampler":86,
					"target":{
						"node":34,
						"path":"scale"
					}
				},
				{
					"sampler":87,
					"target":{
						"node":35,
						"path":"translation"
					}
				},
				{
					"sampler":88,
					"target":{
						"node":35,
						"path":"rotation"
					}
				},
				{
					"sampler":89,
					"target":{
						"node":35,
						"path":"scale"
					}
				},
				{
					"sampler":90,
					"target":{
						"node":36,
						"path":"translation"
					}
				},
				{
					"sampler":91,
					"target":{
						"node":36,
						"path":"rotation"
					}
				},
				{
					"sampler":92,
					"target":{
						"node":36,
						"path":"scale"
					}
				},
				{
					"sampler":93,
					"target":{
						"node":37,
						"path":"translation"
					}
				},
				{
					"sampler":94,
					"target":{
						"node":37,
						"path":"rotation"
					}
				},
				{
					"sampler":95,
					"target":{
						"node":37,
						"path":"scale"
					}
				},
				{
					"sampler":96,
					"target":{
						"node":38,
						"path":"translation"
					}
				},
				{
					"sampler":97,
					"target":{
						"node":38,
						"path":"rotation"
					}
				},
				{
					"sampler":98,
					"target":{
						"node":38,
						"path":"scale"
					}
				},
				{
					"sampler":99,
					"target":{
						"node":39,
						"path":"translation"
					}
				},
				{
					"sampler":100,
					"target":{
						"node":39,
						"path":"rotation"
					}
				},
				{
					"sampler":101,
					"target":{
						"node":39,
						"path":"scale"
					}
				},
				{
					"sampler":102,
					"target":{
						"node":40,
						"path":"translation"
					}
				},
				{
					"sampler":103,
					"target":{
						"node":40,
						"path":"rotation"
					}
				},
				{
					"sampler":104,
					"target":{
						"node":40,
						"path":"scale"
					}
				},
				{
					"sampler":105,
					"target":{
						"node":41,
						"path":"translation"
					}
				},
				{
					"sampler":106,
					"target":{
						"node":41,
						"path":"rotation"
					}
				},
				{
					"sampler":107,
					"target":{
						"node":41,
						"path":"scale"
					}
				},
				{
					"sampler":108,
					"target":{
						"node":42,
						"path":"translation"
					}
				},
				{
					"sampler":109,
					"target":{
						"node":42,
						"path":"rotation"
					}
				},
				{
					"sampler":110,
					"target":{
						"node":42,
						"path":"scale"
					}
				},
				{
					"sampler":111,
					"target":{
						"node":43,
						"path":"translation"
					}
				},
				{
					"sampler":112,
					"target":{
						"node":43,
						"path":"rotation"
					}
				},
				{
					"sampler":113,
					"target":{
						"node":43,
						"path":"scale"
					}
				},
				{
					"sampler":114,
					"target":{
						"node":44,
						"path":"translation"
					}
				},
				{
					"sampler":115,
					"target":{
						"node":44,
						"path":"rotation"
					}
				},
				{
					"sampler":116,
					"target":{
						"node":44,
						"path":"scale"
					}
				},
				{
					"sampler":117,
					"target":{
						"node":45,
						"path":"translation"
					}
				},
				{
					"sampler":118,
					"target":{
						"node":45,
						"path":"rotation"
					}
				},
				{
					"sampler":119,
					"target":{
						"node":45,
						"path":"scale"
					}
				},
				{
					"sampler":120,
					"target":{
						"node":46,
						"path":"translation"
					}
				},
				{
					"sampler":121,
					"target":{
						"node":46,
						"path":"rotation"
					}
				},
				{
					"sampler":122,
					"target":{
						"node":46,
						"path":"scale"
					}
				},
				{
					"sampler":123,
					"target":{
						"node":47,
						"path":"translation"
					}
				},
				{
					"sampler":124,
					"target":{
						"node":47,
						"path":"rotation"
					}
				},
				{
					"sampler":125,
					"target":{
						"node":47,
						"path":"scale"
					}
				}
			],
			"name":"idle",
			"samplers":[
				{
					"input":7,
					"interpolation":"LINEAR",
					"output":8
				},
				{
					"input":9,
					"interpolation":"LINEAR",
					"output":10
				},
				{
					"input":7,
					"interpolation":"LINEAR",
					"output":11
				},
				{
					"input":79,
					"interpolation":"LINEAR",
					"output":80
				},
				{
					"input":79,
					"interpolation":"LINEAR",
					"output":81
				},
				{
					"input":82,
					"interpolation":"LINEAR",
					"output":83
				},
				{
					"input":84,
					"interpolation":"LINEAR",
					"output":85
				},
				{
					"input":86,
					"interpolation":"LINEAR",
					"output":87
				},
				{
					"input":88,
					"interpolation":"LINEAR",
					"output":89
				},
				{
					"input":90,
					"interpolation":"LINEAR",
					"output":91
				},
				{
					"input":92,
					"interpolation":"LINEAR",
					"output":93
				},
				{
					"input":94,
					"interpolation":"LINEAR",
					"output":95
				},
				{
					"input":96,
					"interpolation":"LINEAR",
					"output":97
				},
				{
					"input":98,
					"interpolation":"LINEAR",
					"output":99
				},
				{
					"input":100,
					"interpolation":"LINEAR",
					"output":101
				},
				{
					"input":102,
					"interpolation":"LINEAR",
					"output":103
				},
				{
					"input":102,
					"interpolation":"LINEAR",
					"output":104
				},
				{
					"input":102,
					"interpolation":"LINEAR",
					"output":105
				},
				{
					"input":106,
					"interpolation":"LINEAR",
					"output":107
				},
				{
					"input":106,
					"interpolation":"LINEAR",
					"output":108
				},
				{
					"input":106,
					"interpolation":"LINEAR",
					"output":109
				},
				{
					"input":110,
					"interpolation":"LINEAR",
					"output":111
				},
				{
					"input":110,
					"interpolation":"LINEAR",
					"output":112
				},
				{
					"input":110,
					"interpolation":"LINEAR",
					"output":113
				},
				{
					"input":114,
					"interpolation":"LINEAR",
					"output":115
				},
				{
					"input":114,
					"interpolation":"LINEAR",
					"output":116
				},
				{
					"input":114,
					"interpolation":"LINEAR",
					"output":117
				},
				{
					"input":118,
					"interpolation":"LINEAR",
					"output":119
				},
				{
					"input":118,
					"interpolation":"LINEAR",
					"output":120
				},
				{
					"input":118,
					"interpolation":"LINEAR",
					"output":121
				},
				{
					"input":122,
					"interpolation":"LINEAR",
					"output":123
				},
				{
					"input":122,
					"interpolation":"LINEAR",
					"output":124
				},
				{
					"input":122,
					"interpolation":"LINEAR",
					"output":125
				},
				{
					"input":126,
					"interpolation":"LINEAR",
					"output":127
				},
				{
					"input":126,
					"interpolation":"LINEAR",
					"output":128
				},
				{
					"input":126,
					"interpolation":"LINEAR",
					"output":129
				},
				{
					"input":130,
					"interpolation":"LINEAR",
					"output":131
				},
				{
					"input":130,
					"interpolation":"LINEAR",
					"output":132
				},
				{
					"input":130,
					"interpolation":"LINEAR",
					"output":133
				},
				{
					"input":134,
					"interpolation":"LINEAR",
					"output":135
				},
				{
					"input":134,
					"interpolation":"LINEAR",
					"output":136
				},
				{
					"input":134,
					"interpolation":"LINEAR",
					"output":137
				},
				{
					"input":138,
					"interpolation":"LINEAR",
					"output":139
				},
				{
					"input":138,
					"interpolation":"LINEAR",
					"output":140
				},
				{
					"input":138,
					"interpolation":"LINEAR",
					"output":141
				},
				{
					"input":142,
					"interpolation":"LINEAR",
					"output":143
				},
				{
					"input":142,
					"interpolation":"LINEAR",
					"output":144
				},
				{
					"input":142,
					"interpolation":"LINEAR",
					"output":145
				},
				{
					"input":146,
					"interpolation":"LINEAR",
					"output":147
				},
				{
					"input":146,
					"interpolation":"LINEAR",
					"output":148
				},
				{
					"input":146,
					"interpolation":"LINEAR",
					"output":149
				},
				{
					"input":150,
					"interpolation":"LINEAR",
					"output":151
				},
				{
					"input":150,
					"interpolation":"LINEAR",
					"output":152
				},
				{
					"input":150,
					"interpolation":"LINEAR",
					"output":153
				},
				{
					"input":154,
					"interpolation":"LINEAR",
					"output":155
				},
				{
					"input":154,
					"interpolation":"LINEAR",
					"output":156
				},
				{
					"input":154,
					"interpolation":"LINEAR",
					"output":157
				},
				{
					"input":158,
					"interpolation":"LINEAR",
					"output":159
				},
				{
					"input":158,
					"interpolation":"LINEAR",
					"output":160
				},
				{
					"input":158,
					"interpolation":"LINEAR",
					"output":161
				},
				{
					"input":162,
					"interpolation":"LINEAR",
					"output":163
				},
				{
					"input":162,
					"interpolation":"LINEAR",
					"output":164
				},
				{
					"input":162,
					"interpolation":"LINEAR",
					"output":165
				},
				{
					"input":166,
					"interpolation":"LINEAR",
					"output":167
				},
				{
					"input":166,
					"interpolation":"LINEAR",
					"output":168
				},
				{
					"input":166,
					"interpolation":"LINEAR",
					"output":169
				},
				{
					"input":170,
					"interpolation":"LINEAR",
					"output":171
				},
				{
					"input":170,
					"interpolation":"LINEAR",
					"output":172
				},
				{
					"input":170,
					"interpolation":"LINEAR",
					"output":173
				},
				{
					"input":174,
					"interpolation":"LINEAR",
					"output":175
				},
				{
					"input":174,
					"interpolation":"LINEAR",
					"output":176
				},
				{
					"input":174,
					"interpolation":"LINEAR",
					"output":177
				},
				{
					"input":178,
					"interpolation":"LINEAR",
					"output":179
				},
				{
					"input":178,
					"interpolation":"LINEAR",
					"output":180
				},
				{
					"input":178,
					"interpolation":"LINEAR",
					"output":181
				},
				{
					"input":182,
					"interpolation":"LINEAR",
					"output":183
				},
				{
					"input":182,
					"interpolation":"LINEAR",
					"output":184
				},
				{
					"input":182,
					"interpolation":"LINEAR",
					"output":185
				},
				{
					"input":186,
					"interpolation":"LINEAR",
					"output":187
				},
				{
					"input":186,
					"interpolation":"LINEAR",
					"output":188
				},
				{
					"input":186,
					"interpolation":"LINEAR",
					"output":189
				},
				{
					"input":190,
					"interpolation":"LINEAR",
					"output":191
				},
				{
					"input":190,
					"interpolation":"LINEAR",
					"output":192
				},
				{
					"input":190,
					"interpolation":"LINEAR",
					"output":193
				},
				{
					"input":194,
					"interpolation":"LINEAR",
					"output":195
				},
				{
					"input":194,
					"interpolation":"LINEAR",
					"output":196
				},
				{
					"input":194,
					"interpolation":"LINEAR",
					"output":197
				},
				{
					"input":198,
					"interpolation":"LINEAR",
					"output":199
				},
				{
					"input":198,
					"interpolation":"LINEAR",
					"output":200
				},
				{
					"input":198,
					"interpolation":"LINEAR",
					"output":201
				},
				{
					"input":202,
					"interpolation":"LINEAR",
					"output":203
				},
				{
					"input":202,
					"interpolation":"LINEAR",
					"output":204
				},
				{
					"input":202,
					"interpolation":"LINEAR",
					"output":205
				},
				{
					"input":206,
					"interpolation":"LINEAR",
					"output":207
				},
				{
					"input":206,
					"interpolation":"LINEAR",
					"output":208
				},
				{
					"input":206,
					"interpolation":"LINEAR",
					"output":209
				},
				{
					"input":210,
					"interpolation":"LINEAR",
					"output":211
				},
				{
					"input":210,
					"interpolation":"LINEAR",
					"output":212
				},
				{
					"input":210,
					"interpolation":"LINEAR",
					"output":213
				},
				{
					"input":214,
					"interpolation":"LINEAR",
					"output":215
				},
				{
					"input":214,
					"interpolation":"LINEAR",
					"output":216
				},
				{
					"input":214,
					"interpolation":"LINEAR",
					"output":217
				},
				{
					"input":218,
					"interpolation":"LINEAR",
					"output":219
				},
				{
					"input":218,
					"interpolation":"LINEAR",
					"output":220
				},
				{
					"input":218,
					"interpolation":"LINEAR",
					"output":221
				},
				{
					"input":222,
					"interpolation":"LINEAR",
					"output":223
				},
				{
					"input":222,
					"interpolation":"LINEAR",
					"output":224
				},
				{
					"input":222,
					"interpolation":"LINEAR",
					"output":225
				},
				{
					"input":226,
					"interpolation":"LINEAR",
					"output":227
				},
				{
					"input":226,
					"interpolation":"LINEAR",
					"output":228
				},
				{
					"input":226,
					"interpolation":"LINEAR",
					"output":229
				},
				{
					"input":230,
					"interpolation":"LINEAR",
					"output":231
				},
				{
					"input":230,
					"interpolation":"LINEAR",
					"output":232
				},
				{
					"input":230,
					"interpolation":"LINEAR",
					"output":233
				},
				{
					"input":234,
					"interpolation":"LINEAR",
					"output":235
				},
				{
					"input":234,
					"interpolation":"LINEAR",
					"output":236
				},
				{
					"input":234,
					"interpolation":"LINEAR",
					"output":237
				},
				{
					"input":238,
					"interpolation":"LINEAR",
					"output":239
				},
				{
					"input":238,
					"interpolation":"LINEAR",
					"output":240
				},
				{
					"input":238,
					"interpolation":"LINEAR",
					"output":241
				},
				{
					"input":242,
					"interpolation":"LINEAR",
					"output":243
				},
				{
					"input":242,
					"interpolation":"LINEAR",
					"output":244
				},
				{
					"input":242,
					"interpolation":"LINEAR",
					"output":245
				},
				{
					"input":246,
					"interpolation":"LINEAR",
					"output":247
				},
				{
					"input":246,
					"interpolation":"LINEAR",
					"output":248
				},
				{
					"input":246,
					"interpolation":"LINEAR",
					"output":249
				}
			]
		}
	],
	"materials":[
		{
			"doubleSided":true,
			"name":"Material.005",
			"pbrMetallicRoughness":{
				"baseColorTexture":{
					"index":0
				},
				"metallicFactor":0,
				"roughnessFactor":0.5
			}
		},
		{
			"doubleSided":true,
			"name":"canal_water_f00",
			"alphaMode":"MASK",
			"alphaCutoff":0.5,
			"pbrMetallicRoughness":{
				"baseColorTexture":{
					"index":0
				},
				"metallicFactor":0,
				"roughnessFactor":0.5
			}
		},
		{
			"doubleSided":true,
			"name":"canal_water_f01",
			"alphaMode":"MASK",
			"alphaCutoff":0.5,
			"pbrMetallicRoughness":{
				"baseColorTexture":{
					"index":0
				},
				"metallicFactor":0,
				"roughnessFactor":0.5
			}
		},
		{
			"doubleSided":true,
			"name":"canal_water_f02",
			"alphaMode":"MASK",
			"alphaCutoff":0.5,
			"pbrMetallicRoughness":{
				"baseColorTexture":{
					"index":0
				},
				"metallicFactor":0,
				"roughnessFactor":0.5
			}
		},
		{
			"doubleSided":true,
			"name":"canal_water_f03",
			"alphaMode":"MASK",
			"alphaCutoff":0.5,
			"pbrMetallicRoughness":{
				"baseColorTexture":{
					"index":0
				},
				"metallicFactor":0,
				"roughnessFactor":0.5
			}
		},
		{
			"doubleSided":true,
			"name":"canal_water_f04",
			"alphaMode":"MASK",
			"alphaCutoff":0.5,
			"pbrMetallicRoughness":{
				"baseColorTexture":{
					"index":0
				},
				"metallicFactor":0,
				"roughnessFactor":0.5
			}
		},
		{
			"doubleSided":true,
			"name":"canal_water_f05",
			"alphaMode":"MASK",
			"alphaCutoff":0.5,
			"pbrMetallicRoughness":{
				"baseColorTexture":{
					"index":0
				},
				"metallicFactor":0,
				"roughnessFactor":0.5
			}
		},
		{
			"doubleSided":true,
			"name":"canal_water_f06",
			"alphaMode":"MASK",
			"alphaCutoff":0.5,
			"pbrMetallicRoughness":{
				"baseColorTexture":{
					"index":0
				},
				"metallicFactor":0,
				"roughnessFactor":0.5
			}
		},
		{
			"doubleSided":true,
			"name":"canal_water_f07",
			"alphaMode":"MASK",
			"alphaCutoff":0.5,
			"pbrMetallicRoughness":{
				"baseColorTexture":{
					"index":0
				},
				"metallicFactor":0,
				"roughnessFactor":0.5
			}
		},
		{
			"doubleSided":true,
			"name":"canal_water_f08",
			"alphaMode":"MASK",
			"alphaCutoff":0.5,
			"pbrMetallicRoughness":{
				"baseColorTexture":{
					"index":0
				},
				"metallicFactor":0,
				"roughnessFactor":0.5
			}
		},
		{
			"doubleSided":true,
			"name":"canal_glisten",
			"alphaMode":"MASK",
			"alphaCutoff":0.5,
			"pbrMetallicRoughness":{
				"baseColorTexture":{
					"index":0
				},
				"metallicFactor":0,
				"roughnessFactor":0.5
			}
		},
		{
			"doubleSided":true,
			"name":"paddle_water",
			"alphaMode":"MASK",
			"alphaCutoff":0.5,
			"pbrMetallicRoughness":{
				"baseColorTexture":{
					"index":0
				},
				"metallicFactor":0,
				"roughnessFactor":0.5
			}
		}
	],
	"meshes":[
		{
			"name":"Cylinder.003",
			"primitives":[
				{
					"attributes":{
						"POSITION":0,
						"NORMAL":1,
						"TEXCOORD_0":2,
						"JOINTS_0":3,
						"WEIGHTS_0":4
					},
					"indices":5,
					"material":0
				}
			]
		},
		{
			"name":"canal_water_f00",
			"primitives":[
				{
					"attributes":{
						"POSITION":13,
						"NORMAL":14,
						"TEXCOORD_0":15,
						"JOINTS_0":16,
						"WEIGHTS_0":17
					},
					"indices":18,
					"material":1
				}
			]
		},
		{
			"name":"canal_water_f01",
			"primitives":[
				{
					"attributes":{
						"POSITION":19,
						"NORMAL":20,
						"TEXCOORD_0":21,
						"JOINTS_0":22,
						"WEIGHTS_0":23
					},
					"indices":24,
					"material":2
				}
			]
		},
		{
			"name":"canal_water_f02",
			"primitives":[
				{
					"attributes":{
						"POSITION":25,
						"NORMAL":26,
						"TEXCOORD_0":27,
						"JOINTS_0":28,
						"WEIGHTS_0":29
					},
					"indices":30,
					"material":3
				}
			]
		},
		{
			"name":"canal_water_f03",
			"primitives":[
				{
					"attributes":{
						"POSITION":31,
						"NORMAL":32,
						"TEXCOORD_0":33,
						"JOINTS_0":34,
						"WEIGHTS_0":35
					},
					"indices":36,
					"material":4
				}
			]
		},
		{
			"name":"canal_water_f04",
			"primitives":[
				{
					"attributes":{
						"POSITION":37,
						"NORMAL":38,
						"TEXCOORD_0":39,
						"JOINTS_0":40,
						"WEIGHTS_0":41
					},
					"indices":42,
					"material":5
				}
			]
		},
		{
			"name":"canal_water_f05",
			"primitives":[
				{
					"attributes":{
						"POSITION":43,
						"NORMAL":44,
						"TEXCOORD_0":45,
						"JOINTS_0":46,
						"WEIGHTS_0":47
					},
					"indices":48,
					"material":6
				}
			]
		},
		{
			"name":"canal_water_f06",
			"primitives":[
				{
					"attributes":{
						"POSITION":49,
						"NORMAL":50,
						"TEXCOORD_0":51,
						"JOINTS_0":52,
						"WEIGHTS_0":53
					},
					"indices":54,
					"material":7
				}
			]
		},
		{
			"name":"canal_water_f07",
			"primitives":[
				{
					"attributes":{
						"POSITION":55,
						"NORMAL":56,
						"TEXCOORD_0":57,
						"JOINTS_0":58,
						"WEIGHTS_0":59
					},
					"indices":60,
					"material":8
				}
			]
		},
		{
			"name":"canal_water_f08",
			"primitives":[
				{
					"attributes":{
						"POSITION":61,
						"NORMAL":62,
						"TEXCOORD_0":63,
						"JOINTS_0":64,
						"WEIGHTS_0":65
					},
					"indices":66,
					"material":9
				}
			]
		},
		{
			"name":"canal_glisten",
			"primitives":[
				{
					"attributes":{
						"POSITION":67,
						"NORMAL":68,
						"TEXCOORD_0":69,
						"JOINTS_0":70,
						"WEIGHTS_0":71
					},
					"indices":72,
					"material":10
				}
			]
		},
		{
			"name":"paddle_water",
			"primitives":[
				{
					"attributes":{
						"POSITION":73,
						"NORMAL":74,
						"TEXCOORD_0":75,
						"JOINTS_0":76,
						"WEIGHTS_0":77
					},
					"indices":78,
					"material":11
				}
			]
		}
	],
	"textures":[
		{
			"sampler":0,
			"source":0
		}
	],
	"images":[
		{
			"mimeType":"image/png",
			"name":"water_wheel_942x00",
			"uri":"water_wheel_942x00.png"
		}
	],
	"skins":[
		{
			"inverseBindMatrices":12,
			"joints":[
				0,
				1,
				2,
				3,
				4,
				5,
				6,
				7,
				8,
				9,
				10,
				11,
				12,
				13,
				14,
				15,
				16,
				17,
				18,
				19,
				20,
				21,
				22,
				23,
				24,
				25,
				26,
				27,
				28,
				29,
				30,
				31,
				32,
				33,
				34,
				35,
				36,
				37,
				38,
				39,
				40,
				41,
				42,
				43,
				44,
				45,
				46,
				47
			],
			"name":"Armature"
		}
	],
	"accessors":[
		{
			"bufferView":0,
			"componentType":5126,
			"count":1186,
			"max":[
				1.9000002145767212,
				3.299999713897705,
				0.4550003409385681
			],
			"min":[
				-1.9000000953674316,
				-0.5,
				-0.4550003111362457
			],
			"type":"VEC3"
		},
		{
			"bufferView":1,
			"componentType":5126,
			"count":1186,
			"type":"VEC3"
		},
		{
			"bufferView":2,
			"componentType":5126,
			"count":1186,
			"type":"VEC2"
		},
		{
			"bufferView":3,
			"componentType":5121,
			"count":1186,
			"type":"VEC4"
		},
		{
			"bufferView":4,
			"componentType":5126,
			"count":1186,
			"type":"VEC4"
		},
		{
			"bufferView":5,
			"componentType":5123,
			"count":2592,
			"type":"SCALAR"
		},
		{
			"bufferView":6,
			"componentType":5126,
			"count":1,
			"type":"MAT4"
		},
		{
			"bufferView":7,
			"componentType":5126,
			"count":2,
			"max":[
				3
			],
			"min":[
				0
			],
			"type":"SCALAR"
		},
		{
			"bufferView":8,
			"componentType":5126,
			"count":2,
			"type":"VEC3"
		},
		{
			"bufferView":9,
			"componentType":5126,
			"count":73,
			"max":[
				3
			],
			"min":[
				0
			],
			"type":"SCALAR"
		},
		{
			"bufferView":10,
			"componentType":5126,
			"count":73,
			"type":"VEC4"
		},
		{
			"bufferView":11,
			"componentType":5126,
			"count":2,
			"type":"VEC3"
		},
		{
			"bufferView":12,
			"componentType":5126,
			"count":48,
			"type":"MAT4"
		},
		{
			"bufferView":13,
			"componentType":5126,
			"count":620,
			"type":"VEC3",
			"max":[
				1.6845232248306274,
				0.0,
				0.7998600006103516
			],
			"min":[
				-1.4418118000030518,
				0.0,
				-0.6258066892623901
			]
		},
		{
			"bufferView":14,
			"componentType":5126,
			"count":620,
			"type":"VEC3"
		},
		{
			"bufferView":15,
			"componentType":5126,
			"count":620,
			"type":"VEC2"
		},
		{
			"bufferView":16,
			"componentType":5121,
			"count":620,
			"type":"VEC4"
		},
		{
			"bufferView":17,
			"componentType":5126,
			"count":620,
			"type":"VEC4"
		},
		{
			"bufferView":18,
			"componentType":5123,
			"count":930,
			"type":"SCALAR"
		},
		{
			"bufferView":19,
			"componentType":5126,
			"count":1116,
			"type":"VEC3",
			"max":[
				1.6515299081802368,
				0.0,
				0.8568866848945618
			],
			"min":[
				-1.336952805519104,
				0.0,
				-0.6828333139419556
			]
		},
		{
			"bufferView":20,
			"componentType":5126,
			"count":1116,
			"type":"VEC3"
		},
		{
			"bufferView":21,
			"componentType":5126,
			"count":1116,
			"type":"VEC2"
		},
		{
			"bufferView":22,
			"componentType":5121,
			"count":1116,
			"type":"VEC4"
		},
		{
			"bufferView":23,
			"componentType":5126,
			"count":1116,
			"type":"VEC4"
		},
		{
			"bufferView":24,
			"componentType":5123,
			"count":1674,
			"type":"SCALAR"
		},
		{
			"bufferView":25,
			"componentType":5126,
			"count":852,
			"type":"VEC3",
			"max":[
				1.6515299081802368,
				0.0,
				0.7998600006103516
			],
			"min":[
				-1.4645233154296875,
				0.0,
				-0.6828333139419556
			]
		},
		{
			"bufferView":26,
			"componentType":5126,
			"count":852,
			"type":"VEC3"
		},
		{
			"bufferView":27,
			"componentType":5126,
			"count":852,
			"type":"VEC2"
		},
		{
			"bufferView":28,
			"componentType":5121,
			"count":852,
			"type":"VEC4"
		},
		{
			"bufferView":29,
			"componentType":5126,
			"count":852,
			"type":"VEC4"
		},
		{
			"bufferView":30,
			"componentType":5123,
			"count":1278,
			"type":"SCALAR"
		},
		{
			"bufferView":31,
			"componentType":5126,
			"count":1120,
			"type":"VEC3",
			"max":[
				1.6845232248306274,
				0.0,
				0.8568866848945618
			],
			"min":[
				-1.336952805519104,
				0.0,
				-0.6828333139419556
			]
		},
		{
			"bufferView":32,
			"componentType":5126,
			"count":1120,
			"type":"VEC3"
		},
		{
			"bufferView":33,
			"componentType":5126,
			"count":1120,
			"type":"VEC2"
		},
		{
			"bufferView":34,
			"componentType":5121,
			"count":1120,
			"type":"VEC4"
		},
		{
			"bufferView":35,
			"componentType":5126,
			"count":1120,
			"type":"VEC4"
		},
		{
			"bufferView":36,
			"componentType":5123,
			"count":1680,
			"type":"SCALAR"
		},
		{
			"bufferView":37,
			"componentType":5126,
			"count":1116,
			"type":"VEC3",
			"max":[
				1.6515299081802368,
				0.0,
				0.7998600006103516
			],
			"min":[
				-1.4645233154296875,
				0.0,
				-0.6828333139419556
			]
		},
		{
			"bufferView":38,
			"componentType":5126,
			"count":1116,
			"type":"VEC3"
		},
		{
			"bufferView":39,
			"componentType":5126,
			"count":1116,
			"type":"VEC2"
		},
		{
			"bufferView":40,
			"componentType":5121,
			"count":1116,
			"type":"VEC4"
		},
		{
			"bufferView":41,
			"componentType":5126,
			"count":1116,
			"type":"VEC4"
		},
		{
			"bufferView":42,
			"componentType":5123,
			"count":1674,
			"type":"SCALAR"
		},
		{
			"bufferView":43,
			"componentType":5126,
			"count":1304,
			"type":"VEC3",
			"max":[
				1.6515299081802368,
				0.0,
				0.8568866848945618
			],
			"min":[
				-1.336952805519104,
				0.0,
				-0.7398599982261658
			]
		},
		{
			"bufferView":44,
			"componentType":5126,
			"count":1304,
			"type":"VEC3"
		},
		{
			"bufferView":45,
			"componentType":5126,
			"count":1304,
			"type":"VEC2"
		},
		{
			"bufferView":46,
			"componentType":5121,
			"count":1304,
			"type":"VEC4"
		},
		{
			"bufferView":47,
			"componentType":5126,
			"count":1304,
			"type":"VEC4"
		},
		{
			"bufferView":48,
			"componentType":5123,
			"count":1956,
			"type":"SCALAR"
		},
		{
			"bufferView":49,
			"componentType":5126,
			"count":1076,
			"type":"VEC3",
			"max":[
				1.6515299081802368,
				0.0,
				0.8568866848945618
			],
			"min":[
				-1.4418118000030518,
				0.0,
				-0.6828333139419556
			]
		},
		{
			"bufferView":50,
			"componentType":5126,
			"count":1076,
			"type":"VEC3"
		},
		{
			"bufferView":51,
			"componentType":5126,
			"count":1076,
			"type":"VEC2"
		},
		{
			"bufferView":52,
			"componentType":5121,
			"count":1076,
			"type":"VEC4"
		},
		{
			"bufferView":53,
			"componentType":5126,
			"count":1076,
			"type":"VEC4"
		},
		{
			"bufferView":54,
			"componentType":5123,
			"count":1614,
			"type":"SCALAR"
		},
		{
			"bufferView":55,
			"componentType":5126,
			"count":820,
			"type":"VEC3",
			"max":[
				1.6845232248306274,
				0.0,
				0.7428333163261414
			],
			"min":[
				-1.4418118000030518,
				0.0,
				-0.6258066892623901
			]
		},
		{
			"bufferView":56,
			"componentType":5126,
			"count":820,
			"type":"VEC3"
		},
		{
			"bufferView":57,
			"componentType":5126,
			"count":820,
			"type":"VEC2"
		},
		{
			"bufferView":58,
			"componentType":5121,
			"count":820,
			"type":"VEC4"
		},
		{
			"bufferView":59,
			"componentType":5126,
			"count":820,
			"type":"VEC4"
		},
		{
			"bufferView":60,
			"componentType":5123,
			"count":1230,
			"type":"SCALAR"
		},
		{
			"bufferView":61,
			"componentType":5126,
			"count":960,
			"type":"VEC3",
			"max":[
				1.6845232248306274,
				0.0,
				0.8568866848945618
			],
			"min":[
				-1.336952805519104,
				0.0,
				-0.6828333139419556
			]
		},
		{
			"bufferView":62,
			"componentType":5126,
			"count":960,
			"type":"VEC3"
		},
		{
			"bufferView":63,
			"componentType":5126,
			"count":960,
			"type":"VEC2"
		},
		{
			"bufferView":64,
			"componentType":5121,
			"count":960,
			"type":"VEC4"
		},
		{
			"bufferView":65,
			"componentType":5126,
			"count":960,
			"type":"VEC4"
		},
		{
			"bufferView":66,
			"componentType":5123,
			"count":1440,
			"type":"SCALAR"
		},
		{
			"bufferView":67,
			"componentType":5126,
			"count":492,
			"type":"VEC3",
			"max":[
				1.6845232248306274,
				0.0,
				0.9139133095741272
			],
			"min":[
				-1.389382243156433,
				0.0,
				-0.8539133071899414
			]
		},
		{
			"bufferView":68,
			"componentType":5126,
			"count":492,
			"type":"VEC3"
		},
		{
			"bufferView":69,
			"componentType":5126,
			"count":492,
			"type":"VEC2"
		},
		{
			"bufferView":70,
			"componentType":5121,
			"count":492,
			"type":"VEC4"
		},
		{
			"bufferView":71,
			"componentType":5126,
			"count":492,
			"type":"VEC4"
		},
		{
			"bufferView":72,
			"componentType":5123,
			"count":738,
			"type":"SCALAR"
		},
		{
			"bufferView":73,
			"componentType":5126,
			"count":5548,
			"type":"VEC3",
			"max":[
				1.899999976158142,
				2.70747447013855,
				0.45000001788139343
			],
			"min":[
				0.8021932244300842,
				0.0901869535446167,
				-0.44999998807907104
			]
		},
		{
			"bufferView":74,
			"componentType":5126,
			"count":5548,
			"type":"VEC3"
		},
		{
			"bufferView":75,
			"componentType":5126,
			"count":5548,
			"type":"VEC2"
		},
		{
			"bufferView":76,
			"componentType":5121,
			"count":5548,
			"type":"VEC4"
		},
		{
			"bufferView":77,
			"componentType":5126,
			"count":5548,
			"type":"VEC4"
		},
		{
			"bufferView":78,
			"componentType":5123,
			"count":8322,
			"type":"SCALAR"
		},
		{
			"bufferView":79,
			"componentType":5126,
			"count":73,
			"type":"SCALAR",
			"max":[
				2.9589040279388428
			],
			"min":[
				0.0
			]
		},
		{
			"bufferView":80,
			"componentType":5126,
			"count":73,
			"type":"VEC4"
		},
		{
			"bufferView":81,
			"componentType":5126,
			"count":73,
			"type":"VEC3"
		},
		{
			"bufferView":82,
			"componentType":5126,
			"count":34,
			"type":"SCALAR",
			"max":[
				3.0
			],
			"min":[
				0.0
			]
		},
		{
			"bufferView":83,
			"componentType":5126,
			"count":34,
			"type":"VEC3"
		},
		{
			"bufferView":84,
			"componentType":5126,
			"count":34,
			"type":"SCALAR",
			"max":[
				3.0
			],
			"min":[
				0.0
			]
		},
		{
			"bufferView":85,
			"componentType":5126,
			"count":34,
			"type":"VEC3"
		},
		{
			"bufferView":86,
			"componentType":5126,
			"count":34,
			"type":"SCALAR",
			"max":[
				3.0
			],
			"min":[
				0.0
			]
		},
		{
			"bufferView":87,
			"componentType":5126,
			"count":34,
			"type":"VEC3"
		},
		{
			"bufferView":88,
			"componentType":5126,
			"count":34,
			"type":"SCALAR",
			"max":[
				3.0
			],
			"min":[
				0.0
			]
		},
		{
			"bufferView":89,
			"componentType":5126,
			"count":34,
			"type":"VEC3"
		},
		{
			"bufferView":90,
			"componentType":5126,
			"count":34,
			"type":"SCALAR",
			"max":[
				3.0
			],
			"min":[
				0.0
			]
		},
		{
			"bufferView":91,
			"componentType":5126,
			"count":34,
			"type":"VEC3"
		},
		{
			"bufferView":92,
			"componentType":5126,
			"count":34,
			"type":"SCALAR",
			"max":[
				3.0
			],
			"min":[
				0.0
			]
		},
		{
			"bufferView":93,
			"componentType":5126,
			"count":34,
			"type":"VEC3"
		},
		{
			"bufferView":94,
			"componentType":5126,
			"count":34,
			"type":"SCALAR",
			"max":[
				3.0
			],
			"min":[
				0.0
			]
		},
		{
			"bufferView":95,
			"componentType":5126,
			"count":34,
			"type":"VEC3"
		},
		{
			"bufferView":96,
			"componentType":5126,
			"count":34,
			"type":"SCALAR",
			"max":[
				3.0
			],
			"min":[
				0.0
			]
		},
		{
			"bufferView":97,
			"componentType":5126,
			"count":34,
			"type":"VEC3"
		},
		{
			"bufferView":98,
			"componentType":5126,
			"count":33,
			"type":"SCALAR",
			"max":[
				3.0
			],
			"min":[
				0.0
			]
		},
		{
			"bufferView":99,
			"componentType":5126,
			"count":33,
			"type":"VEC3"
		},
		{
			"bufferView":100,
			"componentType":5126,
			"count":73,
			"type":"SCALAR",
			"max":[
				3.0
			],
			"min":[
				0.0
			]
		},
		{
			"bufferView":101,
			"componentType":5126,
			"count":73,
			"type":"VEC3"
		},
		{
			"bufferView":102,
			"componentType":5126,
			"count":42,
			"type":"SCALAR",
			"max":[
				3.0
			],
			"min":[
				0.0
			]
		},
		{
			"bufferView":103,
			"componentType":5126,
			"count":42,
			"type":"VEC3"
		},
		{
			"bufferView":104,
			"componentType":5126,
			"count":42,
			"type":"VEC4"
		},
		{
			"bufferView":105,
			"componentType":5126,
			"count":42,
			"type":"VEC3"
		},
		{
			"bufferView":106,
			"componentType":5126,
			"count":42,
			"type":"SCALAR",
			"max":[
				3.0
			],
			"min":[
				0.0
			]
		},
		{
			"bufferView":107,
			"componentType":5126,
			"count":42,
			"type":"VEC3"
		},
		{
			"bufferView":108,
			"componentType":5126,
			"count":42,
			"type":"VEC4"
		},
		{
			"bufferView":109,
			"componentType":5126,
			"count":42,
			"type":"VEC3"
		},
		{
			"bufferView":110,
			"componentType":5126,
			"count":42,
			"type":"SCALAR",
			"max":[
				3.0
			],
			"min":[
				0.0
			]
		},
		{
			"bufferView":111,
			"componentType":5126,
			"count":42,
			"type":"VEC3"
		},
		{
			"bufferView":112,
			"componentType":5126,
			"count":42,
			"type":"VEC4"
		},
		{
			"bufferView":113,
			"componentType":5126,
			"count":42,
			"type":"VEC3"
		},
		{
			"bufferView":114,
			"componentType":5126,
			"count":42,
			"type":"SCALAR",
			"max":[
				3.0
			],
			"min":[
				0.0
			]
		},
		{
			"bufferView":115,
			"componentType":5126,
			"count":42,
			"type":"VEC3"
		},
		{
			"bufferView":116,
			"componentType":5126,
			"count":42,
			"type":"VEC4"
		},
		{
			"bufferView":117,
			"componentType":5126,
			"count":42,
			"type":"VEC3"
		},
		{
			"bufferView":118,
			"componentType":5126,
			"count":41,
			"type":"SCALAR",
			"max":[
				3.0
			],
			"min":[
				0.0
			]
		},
		{
			"bufferView":119,
			"componentType":5126,
			"count":41,
			"type":"VEC3"
		},
		{
			"bufferView":120,
			"componentType":5126,
			"count":41,
			"type":"VEC4"
		},
		{
			"bufferView":121,
			"componentType":5126,
			"count":41,
			"type":"VEC3"
		},
		{
			"bufferView":122,
			"componentType":5126,
			"count":41,
			"type":"SCALAR",
			"max":[
				3.0
			],
			"min":[
				0.0
			]
		},
		{
			"bufferView":123,
			"componentType":5126,
			"count":41,
			"type":"VEC3"
		},
		{
			"bufferView":124,
			"componentType":5126,
			"count":41,
			"type":"VEC4"
		},
		{
			"bufferView":125,
			"componentType":5126,
			"count":41,
			"type":"VEC3"
		},
		{
			"bufferView":126,
			"componentType":5126,
			"count":42,
			"type":"SCALAR",
			"max":[
				3.0
			],
			"min":[
				0.0
			]
		},
		{
			"bufferView":127,
			"componentType":5126,
			"count":42,
			"type":"VEC3"
		},
		{
			"bufferView":128,
			"componentType":5126,
			"count":42,
			"type":"VEC4"
		},
		{
			"bufferView":129,
			"componentType":5126,
			"count":42,
			"type":"VEC3"
		},
		{
			"bufferView":130,
			"componentType":5126,
			"count":42,
			"type":"SCALAR",
			"max":[
				3.0
			],
			"min":[
				0.0
			]
		},
		{
			"bufferView":131,
			"componentType":5126,
			"count":42,
			"type":"VEC3"
		},
		{
			"bufferView":132,
			"componentType":5126,
			"count":42,
			"type":"VEC4"
		},
		{
			"bufferView":133,
			"componentType":5126,
			"count":42,
			"type":"VEC3"
		},
		{
			"bufferView":134,
			"componentType":5126,
			"count":42,
			"type":"SCALAR",
			"max":[
				3.0
			],
			"min":[
				0.0
			]
		},
		{
			"bufferView":135,
			"componentType":5126,
			"count":42,
			"type":"VEC3"
		},
		{
			"bufferView":136,
			"componentType":5126,
			"count":42,
			"type":"VEC4"
		},
		{
			"bufferView":137,
			"componentType":5126,
			"count":42,
			"type":"VEC3"
		},
		{
			"bufferView":138,
			"componentType":5126,
			"count":42,
			"type":"SCALAR",
			"max":[
				3.0
			],
			"min":[
				0.0
			]
		},
		{
			"bufferView":139,
			"componentType":5126,
			"count":42,
			"type":"VEC3"
		},
		{
			"bufferView":140,
			"componentType":5126,
			"count":42,
			"type":"VEC4"
		},
		{
			"bufferView":141,
			"componentType":5126,
			"count":42,
			"type":"VEC3"
		},
		{
			"bufferView":142,
			"componentType":5126,
			"count":42,
			"type":"SCALAR",
			"max":[
				3.0
			],
			"min":[
				0.0
			]
		},
		{
			"bufferView":143,
			"componentType":5126,
			"count":42,
			"type":"VEC3"
		},
		{
			"bufferView":144,
			"componentType":5126,
			"count":42,
			"type":"VEC4"
		},
		{
			"bufferView":145,
			"componentType":5126,
			"count":42,
			"type":"VEC3"
		},
		{
			"bufferView":146,
			"componentType":5126,
			"count":42,
			"type":"SCALAR",
			"max":[
				3.0
			],
			"min":[
				0.0
			]
		},
		{
			"bufferView":147,
			"componentType":5126,
			"count":42,
			"type":"VEC3"
		},
		{
			"bufferView":148,
			"componentType":5126,
			"count":42,
			"type":"VEC4"
		},
		{
			"bufferView":149,
			"componentType":5126,
			"count":42,
			"type":"VEC3"
		},
		{
			"bufferView":150,
			"componentType":5126,
			"count":42,
			"type":"SCALAR",
			"max":[
				3.0
			],
			"min":[
				0.0
			]
		},
		{
			"bufferView":151,
			"componentType":5126,
			"count":42,
			"type":"VEC3"
		},
		{
			"bufferView":152,
			"componentType":5126,
			"count":42,
			"type":"VEC4"
		},
		{
			"bufferView":153,
			"componentType":5126,
			"count":42,
			"type":"VEC3"
		},
		{
			"bufferView":154,
			"componentType":5126,
			"count":41,
			"type":"SCALAR",
			"max":[
				3.0
			],
			"min":[
				0.0
			]
		},
		{
			"bufferView":155,
			"componentType":5126,
			"count":41,
			"type":"VEC3"
		},
		{
			"bufferView":156,
			"componentType":5126,
			"count":41,
			"type":"VEC4"
		},
		{
			"bufferView":157,
			"componentType":5126,
			"count":41,
			"type":"VEC3"
		},
		{
			"bufferView":158,
			"componentType":5126,
			"count":41,
			"type":"SCALAR",
			"max":[
				3.0
			],
			"min":[
				0.0
			]
		},
		{
			"bufferView":159,
			"componentType":5126,
			"count":41,
			"type":"VEC3"
		},
		{
			"bufferView":160,
			"componentType":5126,
			"count":41,
			"type":"VEC4"
		},
		{
			"bufferView":161,
			"componentType":5126,
			"count":41,
			"type":"VEC3"
		},
		{
			"bufferView":162,
			"componentType":5126,
			"count":42,
			"type":"SCALAR",
			"max":[
				3.0
			],
			"min":[
				0.0
			]
		},
		{
			"bufferView":163,
			"componentType":5126,
			"count":42,
			"type":"VEC3"
		},
		{
			"bufferView":164,
			"componentType":5126,
			"count":42,
			"type":"VEC4"
		},
		{
			"bufferView":165,
			"componentType":5126,
			"count":42,
			"type":"VEC3"
		},
		{
			"bufferView":166,
			"componentType":5126,
			"count":42,
			"type":"SCALAR",
			"max":[
				3.0
			],
			"min":[
				0.0
			]
		},
		{
			"bufferView":167,
			"componentType":5126,
			"count":42,
			"type":"VEC3"
		},
		{
			"bufferView":168,
			"componentType":5126,
			"count":42,
			"type":"VEC4"
		},
		{
			"bufferView":169,
			"componentType":5126,
			"count":42,
			"type":"VEC3"
		},
		{
			"bufferView":170,
			"componentType":5126,
			"count":42,
			"type":"SCALAR",
			"max":[
				3.0
			],
			"min":[
				0.0
			]
		},
		{
			"bufferView":171,
			"componentType":5126,
			"count":42,
			"type":"VEC3"
		},
		{
			"bufferView":172,
			"componentType":5126,
			"count":42,
			"type":"VEC4"
		},
		{
			"bufferView":173,
			"componentType":5126,
			"count":42,
			"type":"VEC3"
		},
		{
			"bufferView":174,
			"componentType":5126,
			"count":42,
			"type":"SCALAR",
			"max":[
				3.0
			],
			"min":[
				0.0
			]
		},
		{
			"bufferView":175,
			"componentType":5126,
			"count":42,
			"type":"VEC3"
		},
		{
			"bufferView":176,
			"componentType":5126,
			"count":42,
			"type":"VEC4"
		},
		{
			"bufferView":177,
			"componentType":5126,
			"count":42,
			"type":"VEC3"
		},
		{
			"bufferView":178,
			"componentType":5126,
			"count":42,
			"type":"SCALAR",
			"max":[
				3.0
			],
			"min":[
				0.0
			]
		},
		{
			"bufferView":179,
			"componentType":5126,
			"count":42,
			"type":"VEC3"
		},
		{
			"bufferView":180,
			"componentType":5126,
			"count":42,
			"type":"VEC4"
		},
		{
			"bufferView":181,
			"componentType":5126,
			"count":42,
			"type":"VEC3"
		},
		{
			"bufferView":182,
			"componentType":5126,
			"count":42,
			"type":"SCALAR",
			"max":[
				3.0
			],
			"min":[
				0.0
			]
		},
		{
			"bufferView":183,
			"componentType":5126,
			"count":42,
			"type":"VEC3"
		},
		{
			"bufferView":184,
			"componentType":5126,
			"count":42,
			"type":"VEC4"
		},
		{
			"bufferView":185,
			"componentType":5126,
			"count":42,
			"type":"VEC3"
		},
		{
			"bufferView":186,
			"componentType":5126,
			"count":42,
			"type":"SCALAR",
			"max":[
				3.0
			],
			"min":[
				0.0
			]
		},
		{
			"bufferView":187,
			"componentType":5126,
			"count":42,
			"type":"VEC3"
		},
		{
			"bufferView":188,
			"componentType":5126,
			"count":42,
			"type":"VEC4"
		},
		{
			"bufferView":189,
			"componentType":5126,
			"count":42,
			"type":"VEC3"
		},
		{
			"bufferView":190,
			"componentType":5126,
			"count":41,
			"type":"SCALAR",
			"max":[
				3.0
			],
			"min":[
				0.0
			]
		},
		{
			"bufferView":191,
			"componentType":5126,
			"count":41,
			"type":"VEC3"
		},
		{
			"bufferView":192,
			"componentType":5126,
			"count":41,
			"type":"VEC4"
		},
		{
			"bufferView":193,
			"componentType":5126,
			"count":41,
			"type":"VEC3"
		},
		{
			"bufferView":194,
			"componentType":5126,
			"count":41,
			"type":"SCALAR",
			"max":[
				3.0
			],
			"min":[
				0.0
			]
		},
		{
			"bufferView":195,
			"componentType":5126,
			"count":41,
			"type":"VEC3"
		},
		{
			"bufferView":196,
			"componentType":5126,
			"count":41,
			"type":"VEC4"
		},
		{
			"bufferView":197,
			"componentType":5126,
			"count":41,
			"type":"VEC3"
		},
		{
			"bufferView":198,
			"componentType":5126,
			"count":42,
			"type":"SCALAR",
			"max":[
				3.0
			],
			"min":[
				0.0
			]
		},
		{
			"bufferView":199,
			"componentType":5126,
			"count":42,
			"type":"VEC3"
		},
		{
			"bufferView":200,
			"componentType":5126,
			"count":42,
			"type":"VEC4"
		},
		{
			"bufferView":201,
			"componentType":5126,
			"count":42,
			"type":"VEC3"
		},
		{
			"bufferView":202,
			"componentType":5126,
			"count":42,
			"type":"SCALAR",
			"max":[
				3.0
			],
			"min":[
				0.0
			]
		},
		{
			"bufferView":203,
			"componentType":5126,
			"count":42,
			"type":"VEC3"
		},
		{
			"bufferView":204,
			"componentType":5126,
			"count":42,
			"type":"VEC4"
		},
		{
			"bufferView":205,
			"componentType":5126,
			"count":42,
			"type":"VEC3"
		},
		{
			"bufferView":206,
			"componentType":5126,
			"count":42,
			"type":"SCALAR",
			"max":[
				3.0
			],
			"min":[
				0.0
			]
		},
		{
			"bufferView":207,
			"componentType":5126,
			"count":42,
			"type":"VEC3"
		},
		{
			"bufferView":208,
			"componentType":5126,
			"count":42,
			"type":"VEC4"
		},
		{
			"bufferView":209,
			"componentType":5126,
			"count":42,
			"type":"VEC3"
		},
		{
			"bufferView":210,
			"componentType":5126,
			"count":71,
			"type":"SCALAR",
			"max":[
				3.0
			],
			"min":[
				0.0
			]
		},
		{
			"bufferView":211,
			"componentType":5126,
			"count":71,
			"type":"VEC3"
		},
		{
			"bufferView":212,
			"componentType":5126,
			"count":71,
			"type":"VEC4"
		},
		{
			"bufferView":213,
			"componentType":5126,
			"count":71,
			"type":"VEC3"
		},
		{
			"bufferView":214,
			"componentType":5126,
			"count":71,
			"type":"SCALAR",
			"max":[
				3.0
			],
			"min":[
				0.0
			]
		},
		{
			"bufferView":215,
			"componentType":5126,
			"count":71,
			"type":"VEC3"
		},
		{
			"bufferView":216,
			"componentType":5126,
			"count":71,
			"type":"VEC4"
		},
		{
			"bufferView":217,
			"componentType":5126,
			"count":71,
			"type":"VEC3"
		},
		{
			"bufferView":218,
			"componentType":5126,
			"count":71,
			"type":"SCALAR",
			"max":[
				3.0
			],
			"min":[
				0.0
			]
		},
		{
			"bufferView":219,
			"componentType":5126,
			"count":71,
			"type":"VEC3"
		},
		{
			"bufferView":220,
			"componentType":5126,
			"count":71,
			"type":"VEC4"
		},
		{
			"bufferView":221,
			"componentType":5126,
			"count":71,
			"type":"VEC3"
		},
		{
			"bufferView":222,
			"componentType":5126,
			"count":71,
			"type":"SCALAR",
			"max":[
				3.0
			],
			"min":[
				0.0
			]
		},
		{
			"bufferView":223,
			"componentType":5126,
			"count":71,
			"type":"VEC3"
		},
		{
			"bufferView":224,
			"componentType":5126,
			"count":71,
			"type":"VEC4"
		},
		{
			"bufferView":225,
			"componentType":5126,
			"count":71,
			"type":"VEC3"
		},
		{
			"bufferView":226,
			"componentType":5126,
			"count":65,
			"type":"SCALAR",
			"max":[
				3.0
			],
			"min":[
				0.0
			]
		},
		{
			"bufferView":227,
			"componentType":5126,
			"count":65,
			"type":"VEC3"
		},
		{
			"bufferView":228,
			"componentType":5126,
			"count":65,
			"type":"VEC4"
		},
		{
			"bufferView":229,
			"componentType":5126,
			"count":65,
			"type":"VEC3"
		},
		{
			"bufferView":230,
			"componentType":5126,
			"count":68,
			"type":"SCALAR",
			"max":[
				3.0
			],
			"min":[
				0.0
			]
		},
		{
			"bufferView":231,
			"componentType":5126,
			"count":68,
			"type":"VEC3"
		},
		{
			"bufferView":232,
			"componentType":5126,
			"count":68,
			"type":"VEC4"
		},
		{
			"bufferView":233,
			"componentType":5126,
			"count":68,
			"type":"VEC3"
		},
		{
			"bufferView":234,
			"componentType":5126,
			"count":68,
			"type":"SCALAR",
			"max":[
				3.0
			],
			"min":[
				0.0
			]
		},
		{
			"bufferView":235,
			"componentType":5126,
			"count":68,
			"type":"VEC3"
		},
		{
			"bufferView":236,
			"componentType":5126,
			"count":68,
			"type":"VEC4"
		},
		{
			"bufferView":237,
			"componentType":5126,
			"count":68,
			"type":"VEC3"
		},
		{
			"bufferView":238,
			"componentType":5126,
			"count":68,
			"type":"SCALAR",
			"max":[
				3.0
			],
			"min":[
				0.0
			]
		},
		{
			"bufferView":239,
			"componentType":5126,
			"count":68,
			"type":"VEC3"
		},
		{
			"bufferView":240,
			"componentType":5126,
			"count":68,
			"type":"VEC4"
		},
		{
			"bufferView":241,
			"componentType":5126,
			"count":68,
			"type":"VEC3"
		},
		{
			"bufferView":242,
			"componentType":5126,
			"count":56,
			"type":"SCALAR",
			"max":[
				3.0
			],
			"min":[
				0.0
			]
		},
		{
			"bufferView":243,
			"componentType":5126,
			"count":56,
			"type":"VEC3"
		},
		{
			"bufferView":244,
			"componentType":5126,
			"count":56,
			"type":"VEC4"
		},
		{
			"bufferView":245,
			"componentType":5126,
			"count":56,
			"type":"VEC3"
		},
		{
			"bufferView":246,
			"componentType":5126,
			"count":56,
			"type":"SCALAR",
			"max":[
				3.0
			],
			"min":[
				0.0
			]
		},
		{
			"bufferView":247,
			"componentType":5126,
			"count":56,
			"type":"VEC3"
		},
		{
			"bufferView":248,
			"componentType":5126,
			"count":56,
			"type":"VEC4"
		},
		{
			"bufferView":249,
			"componentType":5126,
			"count":56,
			"type":"VEC3"
		}
	],
	"bufferViews":[
		{
			"buffer":0,
			"byteLength":14232,
			"byteOffset":0,
			"target":34962
		},
		{
			"buffer":0,
			"byteLength":14232,
			"byteOffset":14232,
			"target":34962
		},
		{
			"buffer":0,
			"byteLength":9488,
			"byteOffset":28464,
			"target":34962
		},
		{
			"buffer":0,
			"byteLength":4744,
			"byteOffset":37952,
			"target":34962
		},
		{
			"buffer":0,
			"byteLength":18976,
			"byteOffset":42696,
			"target":34962
		},
		{
			"buffer":0,
			"byteLength":5184,
			"byteOffset":61672,
			"target":34963
		},
		{
			"buffer":0,
			"byteLength":64,
			"byteOffset":66856
		},
		{
			"buffer":0,
			"byteLength":8,
			"byteOffset":66920
		},
		{
			"buffer":0,
			"byteLength":24,
			"byteOffset":66928
		},
		{
			"buffer":0,
			"byteLength":292,
			"byteOffset":66952
		},
		{
			"buffer":0,
			"byteLength":1168,
			"byteOffset":67244
		},
		{
			"buffer":0,
			"byteLength":24,
			"byteOffset":68412
		},
		{
			"buffer":0,
			"byteOffset":68436,
			"byteLength":3072
		},
		{
			"buffer":0,
			"byteOffset":71508,
			"byteLength":7440,
			"target":34962
		},
		{
			"buffer":0,
			"byteOffset":78948,
			"byteLength":7440,
			"target":34962
		},
		{
			"buffer":0,
			"byteOffset":86388,
			"byteLength":4960,
			"target":34962
		},
		{
			"buffer":0,
			"byteOffset":91348,
			"byteLength":2480,
			"target":34962,
			"byteStride":4
		},
		{
			"buffer":0,
			"byteOffset":93828,
			"byteLength":9920,
			"target":34962
		},
		{
			"buffer":0,
			"byteOffset":103748,
			"byteLength":1860,
			"target":34963
		},
		{
			"buffer":0,
			"byteOffset":105608,
			"byteLength":13392,
			"target":34962
		},
		{
			"buffer":0,
			"byteOffset":119000,
			"byteLength":13392,
			"target":34962
		},
		{
			"buffer":0,
			"byteOffset":132392,
			"byteLength":8928,
			"target":34962
		},
		{
			"buffer":0,
			"byteOffset":141320,
			"byteLength":4464,
			"target":34962,
			"byteStride":4
		},
		{
			"buffer":0,
			"byteOffset":145784,
			"byteLength":17856,
			"target":34962
		},
		{
			"buffer":0,
			"byteOffset":163640,
			"byteLength":3348,
			"target":34963
		},
		{
			"buffer":0,
			"byteOffset":166988,
			"byteLength":10224,
			"target":34962
		},
		{
			"buffer":0,
			"byteOffset":177212,
			"byteLength":10224,
			"target":34962
		},
		{
			"buffer":0,
			"byteOffset":187436,
			"byteLength":6816,
			"target":34962
		},
		{
			"buffer":0,
			"byteOffset":194252,
			"byteLength":3408,
			"target":34962,
			"byteStride":4
		},
		{
			"buffer":0,
			"byteOffset":197660,
			"byteLength":13632,
			"target":34962
		},
		{
			"buffer":0,
			"byteOffset":211292,
			"byteLength":2556,
			"target":34963
		},
		{
			"buffer":0,
			"byteOffset":213848,
			"byteLength":13440,
			"target":34962
		},
		{
			"buffer":0,
			"byteOffset":227288,
			"byteLength":13440,
			"target":34962
		},
		{
			"buffer":0,
			"byteOffset":240728,
			"byteLength":8960,
			"target":34962
		},
		{
			"buffer":0,
			"byteOffset":249688,
			"byteLength":4480,
			"target":34962,
			"byteStride":4
		},
		{
			"buffer":0,
			"byteOffset":254168,
			"byteLength":17920,
			"target":34962
		},
		{
			"buffer":0,
			"byteOffset":272088,
			"byteLength":3360,
			"target":34963
		},
		{
			"buffer":0,
			"byteOffset":275448,
			"byteLength":13392,
			"target":34962
		},
		{
			"buffer":0,
			"byteOffset":288840,
			"byteLength":13392,
			"target":34962
		},
		{
			"buffer":0,
			"byteOffset":302232,
			"byteLength":8928,
			"target":34962
		},
		{
			"buffer":0,
			"byteOffset":311160,
			"byteLength":4464,
			"target":34962,
			"byteStride":4
		},
		{
			"buffer":0,
			"byteOffset":315624,
			"byteLength":17856,
			"target":34962
		},
		{
			"buffer":0,
			"byteOffset":333480,
			"byteLength":3348,
			"target":34963
		},
		{
			"buffer":0,
			"byteOffset":336828,
			"byteLength":15648,
			"target":34962
		},
		{
			"buffer":0,
			"byteOffset":352476,
			"byteLength":15648,
			"target":34962
		},
		{
			"buffer":0,
			"byteOffset":368124,
			"byteLength":10432,
			"target":34962
		},
		{
			"buffer":0,
			"byteOffset":378556,
			"byteLength":5216,
			"target":34962,
			"byteStride":4
		},
		{
			"buffer":0,
			"byteOffset":383772,
			"byteLength":20864,
			"target":34962
		},
		{
			"buffer":0,
			"byteOffset":404636,
			"byteLength":3912,
			"target":34963
		},
		{
			"buffer":0,
			"byteOffset":408548,
			"byteLength":12912,
			"target":34962
		},
		{
			"buffer":0,
			"byteOffset":421460,
			"byteLength":12912,
			"target":34962
		},
		{
			"buffer":0,
			"byteOffset":434372,
			"byteLength":8608,
			"target":34962
		},
		{
			"buffer":0,
			"byteOffset":442980,
			"byteLength":4304,
			"target":34962,
			"byteStride":4
		},
		{
			"buffer":0,
			"byteOffset":447284,
			"byteLength":17216,
			"target":34962
		},
		{
			"buffer":0,
			"byteOffset":464500,
			"byteLength":3228,
			"target":34963
		},
		{
			"buffer":0,
			"byteOffset":467728,
			"byteLength":9840,
			"target":34962
		},
		{
			"buffer":0,
			"byteOffset":477568,
			"byteLength":9840,
			"target":34962
		},
		{
			"buffer":0,
			"byteOffset":487408,
			"byteLength":6560,
			"target":34962
		},
		{
			"buffer":0,
			"byteOffset":493968,
			"byteLength":3280,
			"target":34962,
			"byteStride":4
		},
		{
			"buffer":0,
			"byteOffset":497248,
			"byteLength":13120,
			"target":34962
		},
		{
			"buffer":0,
			"byteOffset":510368,
			"byteLength":2460,
			"target":34963
		},
		{
			"buffer":0,
			"byteOffset":512828,
			"byteLength":11520,
			"target":34962
		},
		{
			"buffer":0,
			"byteOffset":524348,
			"byteLength":11520,
			"target":34962
		},
		{
			"buffer":0,
			"byteOffset":535868,
			"byteLength":7680,
			"target":34962
		},
		{
			"buffer":0,
			"byteOffset":543548,
			"byteLength":3840,
			"target":34962,
			"byteStride":4
		},
		{
			"buffer":0,
			"byteOffset":547388,
			"byteLength":15360,
			"target":34962
		},
		{
			"buffer":0,
			"byteOffset":562748,
			"byteLength":2880,
			"target":34963
		},
		{
			"buffer":0,
			"byteOffset":565628,
			"byteLength":5904,
			"target":34962
		},
		{
			"buffer":0,
			"byteOffset":571532,
			"byteLength":5904,
			"target":34962
		},
		{
			"buffer":0,
			"byteOffset":577436,
			"byteLength":3936,
			"target":34962
		},
		{
			"buffer":0,
			"byteOffset":581372,
			"byteLength":1968,
			"target":34962,
			"byteStride":4
		},
		{
			"buffer":0,
			"byteOffset":583340,
			"byteLength":7872,
			"target":34962
		},
		{
			"buffer":0,
			"byteOffset":591212,
			"byteLength":1476,
			"target":34963
		},
		{
			"buffer":0,
			"byteOffset":592688,
			"byteLength":66576,
			"target":34962
		},
		{
			"buffer":0,
			"byteOffset":659264,
			"byteLength":66576,
			"target":34962
		},
		{
			"buffer":0,
			"byteOffset":725840,
			"byteLength":44384,
			"target":34962
		},
		{
			"buffer":0,
			"byteOffset":770224,
			"byteLength":22192,
			"target":34962,
			"byteStride":4
		},
		{
			"buffer":0,
			"byteOffset":792416,
			"byteLength":88768,
			"target":34962
		},
		{
			"buffer":0,
			"byteOffset":881184,
			"byteLength":16644,
			"target":34963
		},
		{
			"buffer":0,
			"byteOffset":897828,
			"byteLength":292
		},
		{
			"buffer":0,
			"byteOffset":898120,
			"byteLength":1168
		},
		{
			"buffer":0,
			"byteOffset":899288,
			"byteLength":876
		},
		{
			"buffer":0,
			"byteOffset":900164,
			"byteLength":136
		},
		{
			"buffer":0,
			"byteOffset":900300,
			"byteLength":408
		},
		{
			"buffer":0,
			"byteOffset":900708,
			"byteLength":136
		},
		{
			"buffer":0,
			"byteOffset":900844,
			"byteLength":408
		},
		{
			"buffer":0,
			"byteOffset":901252,
			"byteLength":136
		},
		{
			"buffer":0,
			"byteOffset":901388,
			"byteLength":408
		},
		{
			"buffer":0,
			"byteOffset":901796,
			"byteLength":136
		},
		{
			"buffer":0,
			"byteOffset":901932,
			"byteLength":408
		},
		{
			"buffer":0,
			"byteOffset":902340,
			"byteLength":136
		},
		{
			"buffer":0,
			"byteOffset":902476,
			"byteLength":408
		},
		{
			"buffer":0,
			"byteOffset":902884,
			"byteLength":136
		},
		{
			"buffer":0,
			"byteOffset":903020,
			"byteLength":408
		},
		{
			"buffer":0,
			"byteOffset":903428,
			"byteLength":136
		},
		{
			"buffer":0,
			"byteOffset":903564,
			"byteLength":408
		},
		{
			"buffer":0,
			"byteOffset":903972,
			"byteLength":136
		},
		{
			"buffer":0,
			"byteOffset":904108,
			"byteLength":408
		},
		{
			"buffer":0,
			"byteOffset":904516,
			"byteLength":132
		},
		{
			"buffer":0,
			"byteOffset":904648,
			"byteLength":396
		},
		{
			"buffer":0,
			"byteOffset":905044,
			"byteLength":292
		},
		{
			"buffer":0,
			"byteOffset":905336,
			"byteLength":876
		},
		{
			"buffer":0,
			"byteOffset":906212,
			"byteLength":168
		},
		{
			"buffer":0,
			"byteOffset":906380,
			"byteLength":504
		},
		{
			"buffer":0,
			"byteOffset":906884,
			"byteLength":672
		},
		{
			"buffer":0,
			"byteOffset":907556,
			"byteLength":504
		},
		{
			"buffer":0,
			"byteOffset":908060,
			"byteLength":168
		},
		{
			"buffer":0,
			"byteOffset":908228,
			"byteLength":504
		},
		{
			"buffer":0,
			"byteOffset":908732,
			"byteLength":672
		},
		{
			"buffer":0,
			"byteOffset":909404,
			"byteLength":504
		},
		{
			"buffer":0,
			"byteOffset":909908,
			"byteLength":168
		},
		{
			"buffer":0,
			"byteOffset":910076,
			"byteLength":504
		},
		{
			"buffer":0,
			"byteOffset":910580,
			"byteLength":672
		},
		{
			"buffer":0,
			"byteOffset":911252,
			"byteLength":504
		},
		{
			"buffer":0,
			"byteOffset":911756,
			"byteLength":168
		},
		{
			"buffer":0,
			"byteOffset":911924,
			"byteLength":504
		},
		{
			"buffer":0,
			"byteOffset":912428,
			"byteLength":672
		},
		{
			"buffer":0,
			"byteOffset":913100,
			"byteLength":504
		},
		{
			"buffer":0,
			"byteOffset":913604,
			"byteLength":164
		},
		{
			"buffer":0,
			"byteOffset":913768,
			"byteLength":492
		},
		{
			"buffer":0,
			"byteOffset":914260,
			"byteLength":656
		},
		{
			"buffer":0,
			"byteOffset":914916,
			"byteLength":492
		},
		{
			"buffer":0,
			"byteOffset":915408,
			"byteLength":164
		},
		{
			"buffer":0,
			"byteOffset":915572,
			"byteLength":492
		},
		{
			"buffer":0,
			"byteOffset":916064,
			"byteLength":656
		},
		{
			"buffer":0,
			"byteOffset":916720,
			"byteLength":492
		},
		{
			"buffer":0,
			"byteOffset":917212,
			"byteLength":168
		},
		{
			"buffer":0,
			"byteOffset":917380,
			"byteLength":504
		},
		{
			"buffer":0,
			"byteOffset":917884,
			"byteLength":672
		},
		{
			"buffer":0,
			"byteOffset":918556,
			"byteLength":504
		},
		{
			"buffer":0,
			"byteOffset":919060,
			"byteLength":168
		},
		{
			"buffer":0,
			"byteOffset":919228,
			"byteLength":504
		},
		{
			"buffer":0,
			"byteOffset":919732,
			"byteLength":672
		},
		{
			"buffer":0,
			"byteOffset":920404,
			"byteLength":504
		},
		{
			"buffer":0,
			"byteOffset":920908,
			"byteLength":168
		},
		{
			"buffer":0,
			"byteOffset":921076,
			"byteLength":504
		},
		{
			"buffer":0,
			"byteOffset":921580,
			"byteLength":672
		},
		{
			"buffer":0,
			"byteOffset":922252,
			"byteLength":504
		},
		{
			"buffer":0,
			"byteOffset":922756,
			"byteLength":168
		},
		{
			"buffer":0,
			"byteOffset":922924,
			"byteLength":504
		},
		{
			"buffer":0,
			"byteOffset":923428,
			"byteLength":672
		},
		{
			"buffer":0,
			"byteOffset":924100,
			"byteLength":504
		},
		{
			"buffer":0,
			"byteOffset":924604,
			"byteLength":168
		},
		{
			"buffer":0,
			"byteOffset":924772,
			"byteLength":504
		},
		{
			"buffer":0,
			"byteOffset":925276,
			"byteLength":672
		},
		{
			"buffer":0,
			"byteOffset":925948,
			"byteLength":504
		},
		{
			"buffer":0,
			"byteOffset":926452,
			"byteLength":168
		},
		{
			"buffer":0,
			"byteOffset":926620,
			"byteLength":504
		},
		{
			"buffer":0,
			"byteOffset":927124,
			"byteLength":672
		},
		{
			"buffer":0,
			"byteOffset":927796,
			"byteLength":504
		},
		{
			"buffer":0,
			"byteOffset":928300,
			"byteLength":168
		},
		{
			"buffer":0,
			"byteOffset":928468,
			"byteLength":504
		},
		{
			"buffer":0,
			"byteOffset":928972,
			"byteLength":672
		},
		{
			"buffer":0,
			"byteOffset":929644,
			"byteLength":504
		},
		{
			"buffer":0,
			"byteOffset":930148,
			"byteLength":164
		},
		{
			"buffer":0,
			"byteOffset":930312,
			"byteLength":492
		},
		{
			"buffer":0,
			"byteOffset":930804,
			"byteLength":656
		},
		{
			"buffer":0,
			"byteOffset":931460,
			"byteLength":492
		},
		{
			"buffer":0,
			"byteOffset":931952,
			"byteLength":164
		},
		{
			"buffer":0,
			"byteOffset":932116,
			"byteLength":492
		},
		{
			"buffer":0,
			"byteOffset":932608,
			"byteLength":656
		},
		{
			"buffer":0,
			"byteOffset":933264,
			"byteLength":492
		},
		{
			"buffer":0,
			"byteOffset":933756,
			"byteLength":168
		},
		{
			"buffer":0,
			"byteOffset":933924,
			"byteLength":504
		},
		{
			"buffer":0,
			"byteOffset":934428,
			"byteLength":672
		},
		{
			"buffer":0,
			"byteOffset":935100,
			"byteLength":504
		},
		{
			"buffer":0,
			"byteOffset":935604,
			"byteLength":168
		},
		{
			"buffer":0,
			"byteOffset":935772,
			"byteLength":504
		},
		{
			"buffer":0,
			"byteOffset":936276,
			"byteLength":672
		},
		{
			"buffer":0,
			"byteOffset":936948,
			"byteLength":504
		},
		{
			"buffer":0,
			"byteOffset":937452,
			"byteLength":168
		},
		{
			"buffer":0,
			"byteOffset":937620,
			"byteLength":504
		},
		{
			"buffer":0,
			"byteOffset":938124,
			"byteLength":672
		},
		{
			"buffer":0,
			"byteOffset":938796,
			"byteLength":504
		},
		{
			"buffer":0,
			"byteOffset":939300,
			"byteLength":168
		},
		{
			"buffer":0,
			"byteOffset":939468,
			"byteLength":504
		},
		{
			"buffer":0,
			"byteOffset":939972,
			"byteLength":672
		},
		{
			"buffer":0,
			"byteOffset":940644,
			"byteLength":504
		},
		{
			"buffer":0,
			"byteOffset":941148,
			"byteLength":168
		},
		{
			"buffer":0,
			"byteOffset":941316,
			"byteLength":504
		},
		{
			"buffer":0,
			"byteOffset":941820,
			"byteLength":672
		},
		{
			"buffer":0,
			"byteOffset":942492,
			"byteLength":504
		},
		{
			"buffer":0,
			"byteOffset":942996,
			"byteLength":168
		},
		{
			"buffer":0,
			"byteOffset":943164,
			"byteLength":504
		},
		{
			"buffer":0,
			"byteOffset":943668,
			"byteLength":672
		},
		{
			"buffer":0,
			"byteOffset":944340,
			"byteLength":504
		},
		{
			"buffer":0,
			"byteOffset":944844,
			"byteLength":168
		},
		{
			"buffer":0,
			"byteOffset":945012,
			"byteLength":504
		},
		{
			"buffer":0,
			"byteOffset":945516,
			"byteLength":672
		},
		{
			"buffer":0,
			"byteOffset":946188,
			"byteLength":504
		},
		{
			"buffer":0,
			"byteOffset":946692,
			"byteLength":164
		},
		{
			"buffer":0,
			"byteOffset":946856,
			"byteLength":492
		},
		{
			"buffer":0,
			"byteOffset":947348,
			"byteLength":656
		},
		{
			"buffer":0,
			"byteOffset":948004,
			"byteLength":492
		},
		{
			"buffer":0,
			"byteOffset":948496,
			"byteLength":164
		},
		{
			"buffer":0,
			"byteOffset":948660,
			"byteLength":492
		},
		{
			"buffer":0,
			"byteOffset":949152,
			"byteLength":656
		},
		{
			"buffer":0,
			"byteOffset":949808,
			"byteLength":492
		},
		{
			"buffer":0,
			"byteOffset":950300,
			"byteLength":168
		},
		{
			"buffer":0,
			"byteOffset":950468,
			"byteLength":504
		},
		{
			"buffer":0,
			"byteOffset":950972,
			"byteLength":672
		},
		{
			"buffer":0,
			"byteOffset":951644,
			"byteLength":504
		},
		{
			"buffer":0,
			"byteOffset":952148,
			"byteLength":168
		},
		{
			"buffer":0,
			"byteOffset":952316,
			"byteLength":504
		},
		{
			"buffer":0,
			"byteOffset":952820,
			"byteLength":672
		},
		{
			"buffer":0,
			"byteOffset":953492,
			"byteLength":504
		},
		{
			"buffer":0,
			"byteOffset":953996,
			"byteLength":168
		},
		{
			"buffer":0,
			"byteOffset":954164,
			"byteLength":504
		},
		{
			"buffer":0,
			"byteOffset":954668,
			"byteLength":672
		},
		{
			"buffer":0,
			"byteOffset":955340,
			"byteLength":504
		},
		{
			"buffer":0,
			"byteOffset":955844,
			"byteLength":284
		},
		{
			"buffer":0,
			"byteOffset":956128,
			"byteLength":852
		},
		{
			"buffer":0,
			"byteOffset":956980,
			"byteLength":1136
		},
		{
			"buffer":0,
			"byteOffset":958116,
			"byteLength":852
		},
		{
			"buffer":0,
			"byteOffset":958968,
			"byteLength":284
		},
		{
			"buffer":0,
			"byteOffset":959252,
			"byteLength":852
		},
		{
			"buffer":0,
			"byteOffset":960104,
			"byteLength":1136
		},
		{
			"buffer":0,
			"byteOffset":961240,
			"byteLength":852
		},
		{
			"buffer":0,
			"byteOffset":962092,
			"byteLength":284
		},
		{
			"buffer":0,
			"byteOffset":962376,
			"byteLength":852
		},
		{
			"buffer":0,
			"byteOffset":963228,
			"byteLength":1136
		},
		{
			"buffer":0,
			"byteOffset":964364,
			"byteLength":852
		},
		{
			"buffer":0,
			"byteOffset":965216,
			"byteLength":284
		},
		{
			"buffer":0,
			"byteOffset":965500,
			"byteLength":852
		},
		{
			"buffer":0,
			"byteOffset":966352,
			"byteLength":1136
		},
		{
			"buffer":0,
			"byteOffset":967488,
			"byteLength":852
		},
		{
			"buffer":0,
			"byteOffset":968340,
			"byteLength":260
		},
		{
			"buffer":0,
			"byteOffset":968600,
			"byteLength":780
		},
		{
			"buffer":0,
			"byteOffset":969380,
			"byteLength":1040
		},
		{
			"buffer":0,
			"byteOffset":970420,
			"byteLength":780
		},
		{
			"buffer":0,
			"byteOffset":971200,
			"byteLength":272
		},
		{
			"buffer":0,
			"byteOffset":971472,
			"byteLength":816
		},
		{
			"buffer":0,
			"byteOffset":972288,
			"byteLength":1088
		},
		{
			"buffer":0,
			"byteOffset":973376,
			"byteLength":816
		},
		{
			"buffer":0,
			"byteOffset":974192,
			"byteLength":272
		},
		{
			"buffer":0,
			"byteOffset":974464,
			"byteLength":816
		},
		{
			"buffer":0,
			"byteOffset":975280,
			"byteLength":1088
		},
		{
			"buffer":0,
			"byteOffset":976368,
			"byteLength":816
		},
		{
			"buffer":0,
			"byteOffset":977184,
			"byteLength":272
		},
		{
			"buffer":0,
			"byteOffset":977456,
			"byteLength":816
		},
		{
			"buffer":0,
			"byteOffset":978272,
			"byteLength":1088
		},
		{
			"buffer":0,
			"byteOffset":979360,
			"byteLength":816
		},
		{
			"buffer":0,
			"byteOffset":980176,
			"byteLength":224
		},
		{
			"buffer":0,
			"byteOffset":980400,
			"byteLength":672
		},
		{
			"buffer":0,
			"byteOffset":981072,
			"byteLength":896
		},
		{
			"buffer":0,
			"byteOffset":981968,
			"byteLength":672
		},
		{
			"buffer":0,
			"byteOffset":982640,
			"byteLength":224
		},
		{
			"buffer":0,
			"byteOffset":982864,
			"byteLength":672
		},
		{
			"buffer":0,
			"byteOffset":983536,
			"byteLength":896
		},
		{
			"buffer":0,
			"byteOffset":984432,
			"byteLength":672
		}
	],
	"samplers":[
		{
			"magFilter":9729,
			"minFilter":9987
		}
	],
	"buffers":[
		{
			"byteLength":985104,
			"uri":"water_wheel_942x00.bin"
		}
	]
}
