{
	"asset":{
		"generator":"Khronos glTF Blender I/O v4.3.47",
		"version":"2.0"
	},
	"scene":0,
	"scenes":[
		{
			"name":"Scene",
			"nodes":[
				2
			]
		}
	],
	"nodes":[
		{
			"name":"rotor",
			"rotation":[
				-8.557136332854043e-09,
				1.7114272665708086e-08,
				-2.928983286277023e-16,
				1
			],
			"translation":[
				0,
				1.399999976158142,
				0
			]
		},
		{
			"mesh":0,
			"name":"Waterwheel",
			"skin":0
		},
		{
			"children":[
				1,
				0
			],
			"name":"Armature"
		}
	],
	"animations":[
		{
			"channels":[
				{
					"sampler":0,
					"target":{
						"node":0,
						"path":"translation"
					}
				},
				{
					"sampler":1,
					"target":{
						"node":0,
						"path":"rotation"
					}
				},
				{
					"sampler":2,
					"target":{
						"node":0,
						"path":"scale"
					}
				}
			],
			"name":"idle",
			"samplers":[
				{
					"input":7,
					"interpolation":"LINEAR",
					"output":8
				},
				{
					"input":9,
					"interpolation":"LINEAR",
					"output":10
				},
				{
					"input":7,
					"interpolation":"LINEAR",
					"output":11
				}
			]
		}
	],
	"materials":[
		{
			"doubleSided":true,
			"name":"Material.005",
			"pbrMetallicRoughness":{
				"baseColorTexture":{
					"index":0
				},
				"metallicFactor":0,
				"roughnessFactor":0.5
			}
		}
	],
	"meshes":[
		{
			"name":"Cylinder.003",
			"primitives":[
				{
					"attributes":{
						"POSITION":0,
						"NORMAL":1,
						"TEXCOORD_0":2,
						"JOINTS_0":3,
						"WEIGHTS_0":4
					},
					"indices":5,
					"material":0
				}
			]
		}
	],
	"textures":[
		{
			"sampler":0,
			"source":0
		}
	],
	"images":[
		{
			"mimeType":"image/png",
			"name":"palette",
			"uri":"palette.png"
		}
	],
	"skins":[
		{
			"inverseBindMatrices":6,
			"joints":[
				0
			],
			"name":"Armature"
		}
	],
	"accessors":[
		{
			"bufferView":0,
			"componentType":5126,
			"count":1186,
			"max":[
				1.9000002145767212,
				3.299999713897705,
				0.4550003409385681
			],
			"min":[
				-1.9000000953674316,
				-0.5,
				-0.4550003111362457
			],
			"type":"VEC3"
		},
		{
			"bufferView":1,
			"componentType":5126,
			"count":1186,
			"type":"VEC3"
		},
		{
			"bufferView":2,
			"componentType":5126,
			"count":1186,
			"type":"VEC2"
		},
		{
			"bufferView":3,
			"componentType":5121,
			"count":1186,
			"type":"VEC4"
		},
		{
			"bufferView":4,
			"componentType":5126,
			"count":1186,
			"type":"VEC4"
		},
		{
			"bufferView":5,
			"componentType":5123,
			"count":2592,
			"type":"SCALAR"
		},
		{
			"bufferView":6,
			"componentType":5126,
			"count":1,
			"type":"MAT4"
		},
		{
			"bufferView":7,
			"componentType":5126,
			"count":2,
			"max":[
				3
			],
			"min":[
				0
			],
			"type":"SCALAR"
		},
		{
			"bufferView":8,
			"componentType":5126,
			"count":2,
			"type":"VEC3"
		},
		{
			"bufferView":9,
			"componentType":5126,
			"count":73,
			"max":[
				3
			],
			"min":[
				0
			],
			"type":"SCALAR"
		},
		{
			"bufferView":10,
			"componentType":5126,
			"count":73,
			"type":"VEC4"
		},
		{
			"bufferView":11,
			"componentType":5126,
			"count":2,
			"type":"VEC3"
		}
	],
	"bufferViews":[
		{
			"buffer":0,
			"byteLength":14232,
			"byteOffset":0,
			"target":34962
		},
		{
			"buffer":0,
			"byteLength":14232,
			"byteOffset":14232,
			"target":34962
		},
		{
			"buffer":0,
			"byteLength":9488,
			"byteOffset":28464,
			"target":34962
		},
		{
			"buffer":0,
			"byteLength":4744,
			"byteOffset":37952,
			"target":34962
		},
		{
			"buffer":0,
			"byteLength":18976,
			"byteOffset":42696,
			"target":34962
		},
		{
			"buffer":0,
			"byteLength":5184,
			"byteOffset":61672,
			"target":34963
		},
		{
			"buffer":0,
			"byteLength":64,
			"byteOffset":66856
		},
		{
			"buffer":0,
			"byteLength":8,
			"byteOffset":66920
		},
		{
			"buffer":0,
			"byteLength":24,
			"byteOffset":66928
		},
		{
			"buffer":0,
			"byteLength":292,
			"byteOffset":66952
		},
		{
			"buffer":0,
			"byteLength":1168,
			"byteOffset":67244
		},
		{
			"buffer":0,
			"byteLength":24,
			"byteOffset":68412
		}
	],
	"samplers":[
		{
			"magFilter":9729,
			"minFilter":9987
		}
	],
	"buffers":[
		{
			"byteLength":68436,
			"uri":"water_wheel_942x00.bin"
		}
	]
}
