{
	"asset":{
		"generator":"Khronos glTF Blender I/O v4.4.55",
		"version":"2.0"
	},
	"scene":0,
	"scenes":[
		{
			"name":"Scene",
			"nodes":[
				0
			]
		}
	],
	"nodes":[
		{
			"mesh":0,
			"name":"Well_470x1"
		}
	],
	"materials":[
		{
			"doubleSided":true,
			"name":"Well",
			"pbrMetallicRoughness":{
				"baseColorTexture":{
					"index":0
				},
				"metallicFactor":0,
				"roughnessFactor":0.5
			}
		},
		{
			"doubleSided":true,
			"name":"wellup",
			"pbrMetallicRoughness":{
				"baseColorTexture":{
					"index":1
				},
				"metallicFactor":0,
				"roughnessFactor":0.5
			}
		}
	],
	"meshes":[
		{
			"name":"Well_470x1",
			"primitives":[
				{
					"attributes":{
						"POSITION":0,
						"TEXCOORD_0":1
					},
					"indices":2,
					"material":0
				},
				{
					"attributes":{
						"POSITION":3,
						"TEXCOORD_0":4
					},
					"indices":5,
					"material":1
				}
			]
		}
	],
	"textures":[
		{
			"sampler":0,
			"source":0
		},
		{
			"sampler":0,
			"source":1
		}
	],
	"images":[
		{
			"mimeType":"image/png",
			"name":"Well_Bottom",
			"uri":"Well_Bottom.png"
		},
		{
			"mimeType":"image/png",
			"name":"Well_Top2",
			"uri":"Well_Top2.png"
		}
	],
	"accessors":[
		{
			"bufferView":0,
			"componentType":5126,
			"count":215,
			"max":[
				-0.5230995416641235,
				3.9715194702148438,
				0.004645228385925293
			],
			"min":[
				-3.853905200958252,
				-0.0012100879102945328,
				-2.9799041748046875
			],
			"type":"VEC3"
		},
		{
			"bufferView":1,
			"componentType":5126,
			"count":215,
			"type":"VEC2"
		},
		{
			"bufferView":2,
			"componentType":5123,
			"count":600,
			"type":"SCALAR"
		},
		{
			"bufferView":3,
			"componentType":5126,
			"count":994,
			"max":[
				-0.38662004470825195,
				4.147947788238525,
				0.13601982593536377
			],
			"min":[
				-4.207862854003906,
				-0.0012100879102945328,
				-3.111278772354126
			],
			"type":"VEC3"
		},
		{
			"bufferView":4,
			"componentType":5126,
			"count":994,
			"type":"VEC2"
		},
		{
			"bufferView":5,
			"componentType":5123,
			"count":2748,
			"type":"SCALAR"
		}
	],
	"bufferViews":[
		{
			"buffer":0,
			"byteLength":2580,
			"byteOffset":0,
			"target":34962
		},
		{
			"buffer":0,
			"byteLength":1720,
			"byteOffset":2580,
			"target":34962
		},
		{
			"buffer":0,
			"byteLength":1200,
			"byteOffset":4300,
			"target":34963
		},
		{
			"buffer":0,
			"byteLength":11928,
			"byteOffset":5500,
			"target":34962
		},
		{
			"buffer":0,
			"byteLength":7952,
			"byteOffset":17428,
			"target":34962
		},
		{
			"buffer":0,
			"byteLength":5496,
			"byteOffset":25380,
			"target":34963
		}
	],
	"samplers":[
		{
			"magFilter":9728,
			"minFilter":9984
		}
	],
	"buffers":[
		{
			"byteLength":30876,
			"uri":"Well_470x1.bin"
		}
	]
}
