{
	"asset":{
		"generator":"Khronos glTF Blender I/O v4.4.55",
		"version":"2.0"
	},
	"scene":0,
	"scenes":[
		{
			"name":"Scene",
			"nodes":[
				0
			]
		}
	],
	"nodes":[
		{
			"mesh":0,
			"name":"Well_470x0"
		}
	],
	"materials":[
		{
			"doubleSided":true,
			"name":"Well",
			"pbrMetallicRoughness":{
				"baseColorTexture":{
					"index":0
				},
				"metallicFactor":0,
				"roughnessFactor":0.5
			}
		},
		{
			"doubleSided":true,
			"name":"Wellup1",
			"pbrMetallicRoughness":{
				"baseColorTexture":{
					"index":1
				},
				"metallicFactor":0,
				"roughnessFactor":0.5
			}
		}
	],
	"meshes":[
		{
			"name":"Well_470x0",
			"primitives":[
				{
					"attributes":{
						"POSITION":0,
						"TEXCOORD_0":1
					},
					"indices":2,
					"material":0
				},
				{
					"attributes":{
						"POSITION":3,
						"TEXCOORD_0":4
					},
					"indices":5,
					"material":1
				}
			]
		}
	],
	"textures":[
		{
			"sampler":0,
			"source":0
		},
		{
			"sampler":0,
			"source":1
		}
	],
	"images":[
		{
			"mimeType":"image/png",
			"name":"Well_Bottom",
			"uri":"well_bottom.png"
		},
		{
			"mimeType":"image/png",
			"name":"Well_Top1",
			"uri":"well_top1.png"
		}
	],
	"accessors":[
		{
			"bufferView":0,
			"componentType":5126,
			"count":179,
			"max":[
				-0.5230995416641235,
				3.9715194702148438,
				-0.0026470753364264965
			],
			"min":[
				-3.853905200958252,
				0,
				-2.972611904144287
			],
			"type":"VEC3"
		},
		{
			"bufferView":1,
			"componentType":5126,
			"count":179,
			"type":"VEC2"
		},
		{
			"bufferView":2,
			"componentType":5123,
			"count":492,
			"type":"SCALAR"
		},
		{
			"bufferView":3,
			"componentType":5126,
			"count":865,
			"max":[
				-0.38662004470825195,
				4.147947788238525,
				-1.0796353816986084
			],
			"min":[
				-4.207862854003906,
				0,
				-1.9174668788909912
			],
			"type":"VEC3"
		},
		{
			"bufferView":4,
			"componentType":5126,
			"count":865,
			"type":"VEC2"
		},
		{
			"bufferView":5,
			"componentType":5123,
			"count":2352,
			"type":"SCALAR"
		}
	],
	"bufferViews":[
		{
			"buffer":0,
			"byteLength":2148,
			"byteOffset":0,
			"target":34962
		},
		{
			"buffer":0,
			"byteLength":1432,
			"byteOffset":2148,
			"target":34962
		},
		{
			"buffer":0,
			"byteLength":984,
			"byteOffset":3580,
			"target":34963
		},
		{
			"buffer":0,
			"byteLength":10380,
			"byteOffset":4564,
			"target":34962
		},
		{
			"buffer":0,
			"byteLength":6920,
			"byteOffset":14944,
			"target":34962
		},
		{
			"buffer":0,
			"byteLength":4704,
			"byteOffset":21864,
			"target":34963
		}
	],
	"samplers":[
		{
			"magFilter":9728,
			"minFilter":9984
		}
	],
	"buffers":[
		{
			"byteLength":26568,
			"uri":"well_470x00.bin"
		}
	]
}
