{
	"asset":{
		"generator":"Khronos glTF Blender I/O v4.4.55",
		"version":"2.0"
	},
	"scene":0,
	"scenes":[
		{
			"name":"Scene",
			"nodes":[
				0
			]
		}
	],
	"nodes":[
		{
			"mesh":0,
			"name":"well_470x00"
		}
	],
	"materials":[
		{
			"doubleSided":true,
			"name":"Well",
			"pbrMetallicRoughness":{
				"baseColorTexture":{
					"index":0
				},
				"metallicFactor":0,
				"roughnessFactor":0.5
			}
		},
		{
			"doubleSided":true,
			"name":"Wellup1",
			"pbrMetallicRoughness":{
				"baseColorTexture":{
					"index":1
				},
				"metallicFactor":0,
				"roughnessFactor":0.5
			}
		}
	],
	"meshes":[
		{
			"name":"Well_470x0",
			"primitives":[
				{
					"attributes":{
						"POSITION":0,
						"NORMAL":1,
						"TEXCOORD_0":2
					},
					"indices":3,
					"material":0
				},
				{
					"attributes":{
						"POSITION":4,
						"NORMAL":5,
						"TEXCOORD_0":6
					},
					"indices":7,
					"material":1
				}
			]
		}
	],
	"textures":[
		{
			"sampler":0,
			"source":0
		},
		{
			"sampler":0,
			"source":1
		}
	],
	"images":[
		{
			"mimeType":"image/png",
			"name":"470well",
			"uri":"470well.png"
		},
		{
			"mimeType":"image/png",
			"name":"740well",
			"uri":"740well.png"
		}
	],
	"accessors":[
		{
			"bufferView":0,
			"componentType":5126,
			"count":209,
			"max":[
				1.4834541082382202,
				3.9715194702148438,
				1.4227272272109985
			],
			"min":[
				-1.4758567810058594,
				0,
				-1.5472376346588135
			],
			"type":"VEC3"
		},
		{
			"bufferView":1,
			"componentType":5126,
			"count":209,
			"type":"VEC3"
		},
		{
			"bufferView":2,
			"componentType":5126,
			"count":209,
			"type":"VEC2"
		},
		{
			"bufferView":3,
			"componentType":5123,
			"count":378,
			"type":"SCALAR"
		},
		{
			"bufferView":4,
			"componentType":5126,
			"count":476,
			"max":[
				1.6199336051940918,
				4.017771244049072,
				0.2430356740951538
			],
			"min":[
				-2.1011199951171875,
				0,
				-0.3462972640991211
			],
			"type":"VEC3"
		},
		{
			"bufferView":5,
			"componentType":5126,
			"count":476,
			"type":"VEC3"
		},
		{
			"bufferView":6,
			"componentType":5126,
			"count":476,
			"type":"VEC2"
		},
		{
			"bufferView":7,
			"componentType":5123,
			"count":744,
			"type":"SCALAR"
		}
	],
	"bufferViews":[
		{
			"buffer":0,
			"byteLength":2508,
			"byteOffset":0,
			"target":34962
		},
		{
			"buffer":0,
			"byteLength":2508,
			"byteOffset":2508,
			"target":34962
		},
		{
			"buffer":0,
			"byteLength":1672,
			"byteOffset":5016,
			"target":34962
		},
		{
			"buffer":0,
			"byteLength":756,
			"byteOffset":6688,
			"target":34963
		},
		{
			"buffer":0,
			"byteLength":5712,
			"byteOffset":7444,
			"target":34962
		},
		{
			"buffer":0,
			"byteLength":5712,
			"byteOffset":13156,
			"target":34962
		},
		{
			"buffer":0,
			"byteLength":3808,
			"byteOffset":18868,
			"target":34962
		},
		{
			"buffer":0,
			"byteLength":1488,
			"byteOffset":22676,
			"target":34963
		}
	],
	"samplers":[
		{
			"magFilter":9728,
			"minFilter":9984
		}
	],
	"buffers":[
		{
			"byteLength":24164,
			"uri":"well_470x00.bin"
		}
	]
}
