{
	"asset":{
		"generator":"Khronos glTF Blender I/O v4.4.55",
		"version":"2.0"
	},
	"scene":0,
	"scenes":[
		{
			"name":"Scene",
			"nodes":[
				0
			]
		}
	],
	"nodes":[
		{
			"mesh":0,
			"name":"winch_949x00"
		}
	],
	"materials":[
		{
			"doubleSided":true,
			"name":"winch_949",
			"pbrMetallicRoughness":{
				"baseColorTexture":{
					"index":0
				},
				"metallicFactor":0,
				"roughnessFactor":0.5
			}
		}
	],
	"meshes":[
		{
			"name":"Cylinder",
			"primitives":[
				{
					"attributes":{
						"POSITION":0,
						"NORMAL":1,
						"TEXCOORD_0":2
					},
					"indices":3,
					"material":0
				}
			]
		}
	],
	"textures":[
		{
			"sampler":0,
			"source":0
		}
	],
	"images":[
		{
			"mimeType":"image/png",
			"name":"949winch",
			"uri":"949winch.png"
		}
	],
	"accessors":[
		{
			"bufferView":0,
			"componentType":5126,
			"count":1588,
			"max":[
				1.5452542304992676,
				1.5640313625335693,
				0.7513328790664673
			],
			"min":[
				-1.5452542304992676,
				0.004095286130905151,
				-0.812493622303009
			],
			"type":"VEC3"
		},
		{
			"bufferView":1,
			"componentType":5126,
			"count":1588,
			"type":"VEC3"
		},
		{
			"bufferView":2,
			"componentType":5126,
			"count":1588,
			"type":"VEC2"
		},
		{
			"bufferView":3,
			"componentType":5123,
			"count":2670,
			"type":"SCALAR"
		}
	],
	"bufferViews":[
		{
			"buffer":0,
			"byteLength":19056,
			"byteOffset":0,
			"target":34962
		},
		{
			"buffer":0,
			"byteLength":19056,
			"byteOffset":19056,
			"target":34962
		},
		{
			"buffer":0,
			"byteLength":12704,
			"byteOffset":38112,
			"target":34962
		},
		{
			"buffer":0,
			"byteLength":5340,
			"byteOffset":50816,
			"target":34963
		}
	],
	"samplers":[
		{
			"magFilter":9728,
			"minFilter":9984
		}
	],
	"buffers":[
		{
			"byteLength":56156,
			"uri":"winch_949x00.bin"
		}
	]
}
