# Blender 3.6.2
# www.blender.org
mtllib window_438x02.mtl
o Window
v -1.937500 0.000000 0.250000
v 1.937500 0.000000 0.250000
v -1.937500 2.800000 0.250000
v 1.937500 2.800000 0.250000
v -1.937500 2.800000 0.250000
v 1.937500 2.800000 0.250000
v -1.937500 2.800000 -0.250000
v 1.937500 2.800000 -0.250000
v -1.937500 0.000000 -0.250000
v 1.937500 0.000000 -0.250000
v -1.937500 2.800000 -0.250000
v 1.937500 2.800000 -0.250000
vn -0.0000 -0.0000 1.0000
vn -0.0000 1.0000 -0.0000
vt 0.967707 0.000256
vt -0.000012 0.666685
vt -0.000012 0.000256
vt 0.967707 0.666685
vt 1.000000 0.666961
vt 0.000037 1.000104
vt 0.000037 0.666961
vt 1.000000 1.000104
s 0
usemtl Material
f 2/1/1 3/2/1 1/3/1
f 2/1/1 4/4/1 3/2/1
f 6/5/2 7/6/2 5/7/2
f 6/5/2 8/8/2 7/6/2
f 10/1/1 11/2/1 9/3/1
f 10/1/1 12/4/1 11/2/1
