# Blender 3.6.2
# www.blender.org
mtllib window_438x05.mtl
o Plane.004
v -1.937500 0.010000 0.375000
v 1.937500 0.010000 0.375000
v -1.937500 0.010000 0.000000
v 1.937500 0.010000 0.000000
v -1.937500 0.135000 0.000000
v -1.937500 0.135000 0.375000
v 1.937500 0.135000 0.375000
v 1.937500 0.135000 0.000000
v -1.937500 0.000000 -0.000000
v 1.937500 0.000000 -0.000000
v -1.937500 2.800000 0.000000
v 1.937500 2.800000 0.000000
v -1.937500 2.925000 0.125000
v 1.937500 2.925000 0.125000
v -1.937500 2.925000 -0.125000
v 1.937500 2.925000 -0.125000
v -1.937500 2.800000 0.125000
v 1.937500 2.800000 0.125000
v -1.937500 2.800000 -0.125000
v 1.937500 2.800000 -0.125000
vn -0.0000 -1.0000 -0.0000
vn -0.0000 1.0000 -0.0000
vn -0.0000 -0.0000 -1.0000
vn -0.0000 -0.0000 1.0000
vn 1.0000 -0.0000 -0.0000
vn -1.0000 -0.0000 -0.0000
vt 0.969570 0.052848
vt 0.030421 0.052848
vt 0.030421 0.210603
vt 0.969570 0.210603
vt 0.969595 0.266435
vt 0.030371 0.894776
vt 0.030371 0.266435
vt 0.969595 0.894776
vt 0.999524 0.895204
vt 0.000222 0.999803
vt 0.000222 0.895204
vt 0.999524 0.999803
vt 0.999524 0.894816
vt 0.000222 0.894816
vt 0.000222 0.999232
vt 0.999524 0.999232
vt 0.007977 0.919585
vt 0.007977 0.964067
vt 0.999524 0.936226
vt 0.000222 0.936226
vt 0.990055 0.976143
vt 0.990055 0.906886
vt 0.000222 0.999232
s 0
usemtl Material
f 2/1/1 1/2/1 3/3/1
f 2/1/1 3/3/1 4/4/1
f 7/1/2 5/3/2 6/2/2
f 7/1/2 8/4/2 5/3/2
f 4/4/3 3/3/3 5/3/3 8/4/3
f 1/2/4 2/1/4 7/1/4 6/2/4
f 2/1/5 4/4/5 8/4/5 7/1/5
f 3/3/6 1/2/6 6/2/6 5/3/6
f 10/5/4 11/6/4 9/7/4
f 10/5/4 12/8/4 11/6/4
f 14/9/2 15/10/2 13/11/2
f 14/9/2 16/12/2 15/10/2
f 18/13/1 17/14/1 19/15/1
f 18/13/1 19/15/1 20/16/1
f 13/17/6 15/18/6 19/18/6 17/17/6
f 14/19/4 13/20/4 17/20/4 18/19/4
f 16/21/5 14/22/5 18/22/5 20/21/5
f 15/23/3 16/16/3 20/16/3 19/23/3
