{
	"asset":{
		"generator":"Khronos glTF Blender I/O v4.4.55",
		"version":"2.0"
	},
	"scene":0,
	"scenes":[
		{
			"name":"Scene",
			"nodes":[
				0
			]
		}
	],
	"nodes":[
		{
			"mesh":0,
			"name":"wine_press_656x00"
		}
	],
	"materials":[
		{
			"doubleSided":true,
			"name":"Material",
			"pbrMetallicRoughness":{
				"baseColorTexture":{
					"index":0
				},
				"metallicFactor":0,
				"roughnessFactor":0.5
			}
		}
	],
	"meshes":[
		{
			"name":"Cube.001",
			"primitives":[
				{
					"attributes":{
						"POSITION":0,
						"NORMAL":1,
						"TEXCOORD_0":2,
						"TANGENT":3
					},
					"indices":4,
					"material":0
				}
			]
		}
	],
	"textures":[
		{
			"sampler":0,
			"source":0
		}
	],
	"images":[
		{
			"mimeType":"image/png",
			"name":"656wine_press",
			"uri":"656wine_press.png"
		}
	],
	"accessors":[
		{
			"bufferView":0,
			"componentType":5126,
			"count":938,
			"max":[
				1.4890234470367432,
				2.8372247219085693,
				1.4868106842041016
			],
			"min":[
				-1.4927115440368652,
				0.0064026713371276855,
				-1.4823851585388184
			],
			"type":"VEC3"
		},
		{
			"bufferView":1,
			"componentType":5126,
			"count":938,
			"type":"VEC3"
		},
		{
			"bufferView":2,
			"componentType":5126,
			"count":938,
			"type":"VEC2"
		},
		{
			"bufferView":3,
			"componentType":5126,
			"count":938,
			"type":"VEC4"
		},
		{
			"bufferView":4,
			"componentType":5123,
			"count":1668,
			"type":"SCALAR"
		}
	],
	"bufferViews":[
		{
			"buffer":0,
			"byteLength":11256,
			"byteOffset":0,
			"target":34962
		},
		{
			"buffer":0,
			"byteLength":11256,
			"byteOffset":11256,
			"target":34962
		},
		{
			"buffer":0,
			"byteLength":7504,
			"byteOffset":22512,
			"target":34962
		},
		{
			"buffer":0,
			"byteLength":15008,
			"byteOffset":30016,
			"target":34962
		},
		{
			"buffer":0,
			"byteLength":3336,
			"byteOffset":45024,
			"target":34963
		}
	],
	"samplers":[
		{
			"magFilter":9728,
			"minFilter":9984
		}
	],
	"buffers":[
		{
			"byteLength":48360,
			"uri":"wine_press_656x00.bin"
		}
	]
}
