# Blender 3.6.2
# www.blender.org
mtllib wooden_bench_001.mtl
o Side_1
v 0.347876 0.761729 1.680000
v 0.347876 0.761729 1.580000
v 0.102125 0.761729 1.680000
v 0.102125 0.761729 1.580000
v 0.450000 0.850000 1.680000
v 0.450000 0.850000 1.580000
v 0.000000 0.850000 1.580000
v 0.000000 0.850000 1.680000
v 0.317876 0.731729 1.642446
v 0.312276 0.731729 1.617554
v 0.137724 0.731729 1.617555
v 0.132124 0.731729 1.642446
v 0.450000 0.000000 1.680000
v 0.450000 0.000000 1.580000
v 0.000000 0.000000 1.680000
v 0.000000 0.000000 1.580000
v 0.347876 0.000000 1.680000
v 0.347876 0.000000 1.580000
v 0.102125 0.000000 1.580000
v 0.102125 0.000000 1.680000
v 0.312276 0.000000 1.617554
v 0.137724 0.000000 1.617554
v 0.132124 0.000000 1.642446
v 0.317876 0.000000 1.642446
v 0.347875 0.761729 0.100000
v 0.347875 0.761729 0.000000
v 0.102124 0.761729 0.100000
v 0.102124 0.761729 0.000000
v 0.450000 0.850000 0.100000
v 0.450000 0.850000 0.000000
v -0.000000 0.850000 0.000000
v -0.000000 0.850000 0.100000
v 0.317876 0.731729 0.062446
v 0.312276 0.731729 0.037554
v 0.137724 0.731729 0.037554
v 0.132124 0.731729 0.062446
v 0.450000 0.000000 0.100000
v 0.450000 0.000000 0.000000
v -0.000000 0.000000 0.100000
v -0.000000 0.000000 0.000000
v 0.347875 0.000000 0.100000
v 0.347875 0.000000 0.000000
v 0.102124 0.000000 0.000000
v 0.102124 0.000000 0.100000
v 0.312276 0.000000 0.037554
v 0.137724 0.000000 0.037554
v 0.132124 0.000000 0.062446
v 0.317876 0.000000 0.062446
v 0.430000 0.275000 0.037600
v 0.430000 0.325000 0.037600
v 0.430000 0.275000 1.621600
v 0.430000 0.325000 1.621600
v 0.030000 0.275000 0.037600
v 0.030000 0.325000 0.037600
v 0.030000 0.275000 1.621600
v 0.030000 0.325000 1.621600
v 0.054500 0.275000 0.037600
v 0.054500 0.775000 0.037600
v 0.054500 0.275000 1.621600
v 0.054500 0.775000 1.621600
v 0.029500 0.275000 0.037600
v 0.029500 0.775000 0.037600
v 0.029500 0.275000 1.621600
v 0.029500 0.775000 1.621600
v 0.066250 0.525000 0.037600
v 0.066250 0.775000 0.037600
v 0.066250 0.525000 1.621600
v 0.066250 0.775000 1.621600
v 0.053750 0.525000 0.037600
v 0.053750 0.775000 0.037600
v 0.053750 0.525000 1.621600
v 0.053750 0.775000 1.621600
v 0.030250 0.574990 0.037600
v 0.030250 0.774990 0.037600
v 0.030250 0.574990 1.621600
v 0.030250 0.774990 1.621600
v 0.017750 0.574990 0.037600
v 0.017750 0.774990 0.037600
v 0.017750 0.574990 1.621600
v 0.017750 0.774990 1.621600
vn 1.0000 -0.0000 -0.0000
vn -1.0000 -0.0000 -0.0000
vn -0.0000 1.0000 -0.0000
vn -0.0000 -0.0000 1.0000
vn -0.0000 -0.0000 -1.0000
vn -0.7813 -0.0000 0.6241
vn -0.7257 -0.0000 -0.6880
vn -0.0000 -0.7813 -0.6242
vn 0.7257 -0.0000 -0.6880
vn 0.7813 -0.0000 0.6241
vn -0.0000 -0.7813 0.6242
vn -0.0000 -1.0000 -0.0000
vt 0.342027 0.625514
vt 0.288034 0.625514
vt 0.288034 0.000302
vt 0.342027 0.000302
vt 0.288592 0.001286
vt 0.288592 0.621619
vt 0.339249 0.621619
vt 0.339249 0.001286
vt 0.255965 0.684755
vt 0.000322 0.684755
vt 0.000322 0.564957
vt 0.255965 0.564957
vt 0.215187 0.079979
vt 0.215187 0.476369
vt 0.215187 0.040004
vt 0.031896 0.481918
vt 0.031896 0.065874
vt 0.031896 0.023917
vt 0.074078 0.530020
vt 0.188363 0.530020
vt 0.213313 0.486681
vt 0.213313 0.010384
vt 0.213313 0.054017
vt 0.030141 0.033373
vt 0.030141 0.464937
vt 0.030141 0.072908
vt 0.217763 0.526636
vt 0.020372 0.526636
vt 0.169992 0.443132
vt 0.088139 0.443132
vt 0.088139 0.009400
vt 0.169992 0.009400
vt 0.170046 0.003270
vt 0.170046 0.436727
vt 0.088329 0.436727
vt 0.088329 0.003270
vt 0.185695 0.035674
vt 0.185695 0.467843
vt 0.186384 0.020817
vt 0.186384 0.401179
vt 0.156188 0.471112
vt 0.095222 0.471112
vt 0.072998 0.391403
vt 0.072998 0.022785
vt 0.072998 0.022786
vt 0.073195 0.425757
vt 0.073195 0.027387
vt 0.159529 0.476563
vt 0.097387 0.476563
vt 0.787936 0.857624
vt 0.750482 0.857624
vt 0.750482 0.894299
vt 0.787936 0.894299
vt 0.793657 0.880526
vt 0.872344 0.880526
vt 0.878065 0.894299
vt 0.915519 0.894299
vt 0.915519 0.857624
vt 0.878065 0.857624
vt 0.878065 0.871397
vt 0.787936 0.871397
vt 0.373052 0.058845
vt 0.373052 0.003712
vt 0.599665 0.003712
vt 0.599665 0.058844
vt 0.741649 0.562462
vt 0.887386 0.562462
vt 0.887386 0.708199
vt 0.741649 0.708199
vt 0.887386 0.853936
vt 0.741649 0.853936
vt 0.887386 0.999673
vt 0.741649 0.999673
vt 0.370857 0.004661
vt 0.370857 0.502726
vt 0.599585 0.502726
vt 0.599585 0.004661
vt 0.376766 0.484614
vt 0.376766 0.014359
vt 0.595045 0.014359
vt 0.595045 0.484614
vt 0.599806 0.562965
vt 0.599806 0.752620
vt 0.371188 0.752620
vt 0.371188 0.562965
vt 0.657145 0.890191
vt 0.657145 0.571391
vt 0.723768 0.571391
vt 0.723768 0.890191
vt 0.940867 0.503274
vt 0.940867 0.913133
vt 0.715358 0.913133
vt 0.715358 0.503274
vt 0.200848 0.923216
vt 0.200848 0.604417
vt 0.267470 0.604417
vt 0.267470 0.923216
vt 0.268123 0.923216
vt 0.268123 0.604417
vt 0.334746 0.604417
vt 0.334746 0.923216
vt 0.599669 0.980588
vt 0.599669 0.958021
vt 0.373474 0.958021
vt 0.373470 0.980588
vt 0.599657 0.744774
vt 0.599657 1.006452
vt 0.371241 1.006452
vt 0.371241 0.744774
vt 0.000327 0.319126
vt 0.000327 0.000327
vt 0.066949 0.000327
vt 0.066949 0.319126
vt 0.133572 0.000327
vt 0.133572 0.319126
vt 0.200195 0.000327
vt 0.200195 0.319126
vt 0.066949 0.637926
vt 0.133572 0.637926
vt 0.599919 0.938970
vt 0.599919 0.956275
vt 0.372053 0.956275
vt 0.372052 0.938970
vt 0.496047 0.891351
vt 0.496047 0.572552
vt 0.562669 0.572552
vt 0.562669 0.891351
vt 0.629292 0.572552
vt 0.629292 0.891351
vt 0.946176 0.749503
vt 0.946176 0.935572
vt 0.715530 0.935572
vt 0.715530 0.749503
vt 0.415064 0.922522
vt 0.415064 0.603723
vt 0.481687 0.603723
vt 0.481687 0.922522
vt 0.415064 0.603069
vt 0.415064 0.000327
vt 0.441293 0.000327
vt 0.441293 0.603069
vt 0.371549 0.983286
vt 0.371549 1.002422
vt 0.600510 1.002422
vt 0.600510 0.983286
s 0
usemtl Bench
f 6/1/1 5/2/1 13/3/1 14/4/1
f 15/5/2 8/6/2 7/7/2 16/8/2
f 6/9/3 7/10/3 8/11/3 5/12/3
f 13/13/4 5/14/4 1/14/4 17/15/4
f 2/16/5 6/16/5 14/17/5 18/18/5
f 2/19/5 4/20/5 7/20/5 6/19/5
f 7/21/5 4/21/5 19/22/5 16/23/5
f 20/24/4 3/25/4 8/25/4 15/26/4
f 3/27/4 1/28/4 5/28/4 8/27/4
f 11/29/5 10/30/5 21/31/5 22/32/5
f 24/33/4 9/34/4 12/35/4 23/36/4
f 17/37/6 1/38/6 9/38/6 24/37/6
f 21/39/7 10/40/7 2/40/7 18/39/7
f 4/41/8 2/42/8 10/42/8 11/41/8
f 4/43/9 11/43/9 22/44/9 19/45/9
f 12/46/10 3/46/10 20/47/10 23/47/10
f 1/48/11 3/49/11 12/49/11 9/48/11
f 20/50/12 15/51/12 16/52/12 19/53/12 22/54/12 21/55/12 18/56/12 14/57/12 13/58/12 17/59/12 24/60/12 23/61/12
f 30/1/1 29/2/1 37/3/1 38/4/1
f 39/5/2 32/6/2 31/7/2 40/8/2
f 30/9/3 31/10/3 32/11/3 29/12/3
f 37/13/4 29/14/4 25/14/4 41/15/4
f 26/16/5 30/16/5 38/17/5 42/18/5
f 26/19/5 28/20/5 31/20/5 30/19/5
f 31/21/5 28/21/5 43/22/5 40/23/5
f 44/24/4 27/25/4 32/25/4 39/26/4
f 27/27/4 25/28/4 29/28/4 32/27/4
f 35/29/5 34/30/5 45/31/5 46/32/5
f 48/33/4 33/34/4 36/35/4 47/36/4
f 41/37/6 25/38/6 33/38/6 48/37/6
f 45/39/7 34/40/7 26/40/7 42/39/7
f 28/41/8 26/42/8 34/42/8 35/41/8
f 28/43/9 35/43/9 46/44/9 43/45/9
f 36/46/10 27/46/10 44/47/10 47/47/10
f 25/48/11 27/49/11 36/49/11 33/48/11
f 44/50/12 39/51/12 40/52/12 43/53/12 46/54/12 45/55/12 42/56/12 38/57/12 37/58/12 41/59/12 48/60/12 47/61/12
usemtl Bench
f 49/62/1 50/63/1 52/64/1 51/65/1
f 51/66/4 52/67/4 56/68/4 55/69/4
f 55/69/2 56/68/2 54/70/2 53/71/2
f 53/71/5 54/70/5 50/72/5 49/73/5
f 51/74/12 55/75/12 53/76/12 49/77/12
f 56/78/3 52/79/3 50/80/3 54/81/3
f 57/82/1 58/83/1 60/84/1 59/85/1
f 59/86/4 60/87/4 64/88/4 63/89/4
f 63/90/2 64/91/2 62/92/2 61/93/2
f 61/94/5 62/95/5 58/96/5 57/97/5
f 59/98/12 63/99/12 61/100/12 57/101/12
f 64/102/3 60/103/3 58/104/3 62/105/3
f 65/106/1 66/107/1 68/108/1 67/109/1
f 67/110/4 68/111/4 72/112/4 71/113/4
f 71/113/2 72/112/2 70/114/2 69/115/2
f 69/115/5 70/114/5 66/116/5 65/117/5
f 67/118/12 71/113/12 69/115/12 65/119/12
f 72/120/3 68/121/3 66/122/3 70/123/3
f 73/124/1 74/125/1 76/126/1 75/127/1
f 75/127/4 76/126/4 80/128/4 79/129/4
f 79/130/2 80/131/2 78/132/2 77/133/2
f 77/134/5 78/135/5 74/136/5 73/137/5
f 75/138/12 79/139/12 77/140/12 73/141/12
f 80/142/3 76/143/3 74/144/3 78/145/3
