# Blender 4.0.1
# www.blender.org
mtllib wood_long_table.mtl
o Wood_Long_Table
v 0.000000 1.211959 1.849872
v 0.000000 1.211959 -1.850020
v 0.000000 1.311959 1.849936
v 0.000000 1.311959 -1.849998
v -1.000000 1.211959 0.000000
v -1.000000 1.311959 0.000000
v 1.000000 1.211959 0.000000
v 1.000000 1.311959 0.000000
v -1.000000 1.311959 -1.000000
v 1.000000 1.211959 -1.000000
v -1.000000 1.211959 -1.000000
v 1.000000 1.311959 -1.000000
v -1.000000 1.211959 1.000000
v 1.000000 1.311959 1.000000
v -1.000000 1.311959 1.000000
v 1.000000 1.211959 1.000000
v 0.000000 1.211959 -2.000000
v 0.000000 1.311959 -2.000000
v 0.000000 1.211959 2.000000
v 0.000000 1.311959 2.000000
v 0.000000 1.311959 0.000000
v 0.000000 1.211959 0.000000
v 0.000000 1.211959 -1.000000
v 0.000000 1.311959 -1.000000
v 0.000000 1.311959 1.000000
v 0.000000 1.211959 1.000000
v -0.850000 1.211959 2.000000
v -1.000000 1.211959 1.850000
v -1.000000 1.311959 1.850000
v -0.850000 1.311959 2.000000
v -1.000000 1.211959 -1.850000
v -0.850000 1.211959 -2.000000
v -0.850000 1.311959 -2.000000
v -1.000000 1.311959 -1.850000
v 1.000000 1.211959 1.850000
v 0.850000 1.211959 2.000000
v 0.850000 1.311959 2.000000
v 1.000000 1.311959 1.850000
v 0.850000 1.211959 -2.000000
v 1.000000 1.211959 -1.850000
v 1.000000 1.311959 -1.850000
v 0.850000 1.311959 -2.000000
v 0.850000 0.991959 1.659208
v 0.850000 0.991959 1.850000
v 0.850000 0.000000 1.850000
v 0.850000 0.000000 1.659208
v 0.665567 0.991959 1.659208
v 0.665567 0.991959 1.850000
v 0.665567 0.000000 1.659208
v 0.665567 0.000000 1.850000
v 0.000000 0.991959 1.659208
v 0.000000 0.991959 1.850000
v 0.850000 1.211959 1.659208
v 0.850000 1.211959 1.850000
v 0.665567 1.211959 1.659208
v 0.665567 1.211959 1.850000
v 0.000000 1.211959 1.659208
v 0.000000 1.211959 1.850000
v -0.850000 0.991959 1.659208
v -0.850000 0.991959 1.850000
v -0.850000 0.000000 1.850000
v -0.850000 0.000000 1.659208
v -0.665567 0.991959 1.659208
v -0.665567 0.991959 1.850000
v -0.665567 0.000000 1.659208
v -0.665567 0.000000 1.850000
v -0.850000 1.211959 1.659208
v -0.850000 1.211959 1.850000
v -0.665567 1.211959 1.659208
v -0.665567 1.211959 1.850000
v 0.850000 0.991959 -1.659208
v 0.850000 0.991959 -1.850000
v 0.850000 0.000000 -1.850000
v 0.850000 0.000000 -1.659208
v 0.665567 0.991959 -1.659208
v 0.665567 0.991959 -1.850000
v 0.665567 0.000000 -1.659208
v 0.665567 0.000000 -1.850000
v 0.000000 0.991959 -1.659208
v 0.000000 0.991959 -1.850000
v 0.850000 1.211959 -1.659208
v 0.850000 1.211959 -1.850000
v 0.665567 1.211959 -1.659208
v 0.665567 1.211959 -1.850000
v 0.000000 1.211959 -1.659208
v 0.000000 1.211959 -1.850000
v -0.850000 0.991959 -1.659208
v -0.850000 0.991959 -1.850000
v -0.850000 0.000000 -1.850000
v -0.850000 0.000000 -1.659208
v -0.665567 0.991959 -1.659208
v -0.665567 0.991959 -1.850000
v -0.665567 0.000000 -1.659208
v -0.665567 0.000000 -1.850000
v -0.850000 1.211959 -1.659208
v -0.850000 1.211959 -1.850000
v -0.665567 1.211959 -1.659208
v -0.665567 1.211959 -1.850000
vn -0.0000 1.0000 -0.0000
vn 1.0000 -0.0000 -0.0000
vn -0.0000 -0.0000 -1.0000
vn -0.0000 -1.0000 -0.0000
vn -1.0000 -0.0000 -0.0000
vn -0.0000 -0.0000 1.0000
vn -0.7071 -0.0000 0.7071
vn -0.7071 -0.0000 -0.7071
vn 0.7071 -0.0000 -0.7071
vn 0.7071 -0.0000 0.7071
vt 0.997739 0.842832
vt 0.997739 0.943190
vt 0.979463 0.960900
vt 0.979463 0.842832
vt 0.979463 0.719096
vt 0.875902 0.842832
vt 0.875902 0.719096
vt 0.632228 0.719096
vt 0.632228 0.842832
vt 0.528674 0.842832
vt 0.528666 0.719096
vt 0.632228 0.960900
vt 0.528666 0.960900
vt 0.863356 0.863489
vt 0.875902 0.960900
vt 0.754065 0.960900
vt 0.754065 0.842832
vt 0.875902 0.842832
vt 0.754065 0.842832
vt 0.997739 0.943190
vt 0.979466 0.842832
vt 0.632228 0.842832
vt 0.754065 0.719096
vt 0.632228 0.719096
vt 0.754065 0.719096
vt 0.875902 0.719096
vt 0.528666 0.960900
vt 0.528682 0.842832
vt 0.979463 0.719096
vt 0.528666 0.719096
vt 0.997739 0.737656
vt 0.510391 0.943190
vt 0.510391 0.842832
vt 0.510391 0.737656
vt 0.997739 0.737656
vt 0.510391 0.842832
vt 0.510391 0.737656
vt 0.071437 0.945773
vt 0.071437 0.902456
vt 0.319442 0.902456
vt 0.319442 0.945773
vt 0.319442 0.992679
vt 0.071437 0.992679
vt 0.071437 0.992679
vt 0.071437 0.992679
vt 0.071437 0.945773
vt 0.319442 0.945773
vt 0.319442 0.992679
vt 0.320647 0.599705
s 0
usemtl Wood_Texture
f 18/1/1 33/2/1 34/3/1 4/4/1
f 41/5/1 4/4/1 24/6/1 12/7/1
f 14/8/1 25/9/1 3/10/1 38/11/1
f 25/9/1 15/12/1 29/13/1 3/10/1
f 16/14/2 14/14/2 38/14/2 35/14/2
f 32/14/3 33/14/3 18/14/3 17/14/3
f 24/6/1 9/15/1 6/16/1 21/17/1
f 23/18/4 10/15/4 7/16/4 22/19/4
f 10/14/2 12/14/2 8/14/2 7/14/2
f 13/14/5 15/14/5 6/14/5 5/14/5
f 17/1/4 39/20/4 40/3/4 2/21/4
f 17/14/3 18/14/3 42/14/3 39/14/3
f 36/14/6 37/14/6 20/14/6 19/14/6
f 5/14/5 6/14/5 9/14/5 11/14/5
f 19/14/6 20/14/6 30/14/6 27/14/6
f 21/17/1 6/16/1 15/12/1 25/9/1
f 22/19/4 7/16/4 16/12/4 26/22/4
f 7/14/2 8/14/2 14/14/2 16/14/2
f 5/23/4 22/19/4 26/22/4 13/24/4
f 8/25/1 21/17/1 25/9/1 14/8/1
f 11/14/5 9/14/5 34/14/5 31/14/5
f 11/26/4 23/18/4 22/19/4 5/23/4
f 12/7/1 24/6/1 21/17/1 8/25/1
f 40/14/2 41/14/2 12/14/2 10/14/2
f 28/14/5 29/14/5 15/14/5 13/14/5
f 26/22/4 16/12/4 35/27/4 1/28/4
f 31/29/4 2/21/4 23/18/4 11/26/4
f 27/14/7 30/14/7 29/14/7 28/14/7
f 33/14/8 32/14/8 31/14/8 34/14/8
f 41/14/9 40/14/9 39/14/9 42/14/9
f 37/14/10 36/14/10 35/14/10 38/14/10
f 13/24/4 26/22/4 1/28/4 28/30/4
f 4/4/1 34/3/1 9/15/1 24/6/1
f 4/4/1 41/5/1 42/31/1 18/1/1
f 3/10/1 29/13/1 30/32/1 20/33/1
f 38/11/1 3/10/1 20/33/1 37/34/1
f 2/21/4 40/3/4 10/15/4 23/18/4
f 2/21/4 31/29/4 32/35/4 17/1/4
f 28/30/4 1/28/4 19/36/4 27/37/4
f 1/28/4 35/27/4 36/32/4 19/36/4
f 43/38/2 44/39/2 45/40/2 46/41/2
f 47/38/5 49/41/5 50/42/5 48/43/5
f 46/41/3 49/42/3 47/44/3 43/38/3
f 44/45/6 48/46/6 50/47/6 45/48/6
f 45/49/4 50/49/4 49/49/4 46/49/4
f 47/38/4 48/43/4 52/43/4 51/38/4
f 51/38/5 52/43/5 58/43/5 57/38/5
f 48/46/6 44/45/6 54/45/6 56/46/6
f 43/38/3 47/44/3 55/44/3 53/38/3
f 44/39/2 43/38/2 53/38/2 54/39/2
f 47/44/3 51/38/3 57/38/3 55/44/3
f 48/46/6 56/46/6 58/43/6 52/43/6
f 59/38/5 62/41/5 61/40/5 60/39/5
f 63/38/2 64/43/2 66/42/2 65/41/2
f 62/41/3 59/38/3 63/44/3 65/42/3
f 60/45/6 61/48/6 66/47/6 64/46/6
f 61/49/4 62/49/4 65/49/4 66/49/4
f 63/38/4 51/38/4 52/43/4 64/43/4
f 64/46/6 70/46/6 68/45/6 60/45/6
f 59/38/3 67/38/3 69/44/3 63/44/3
f 60/39/5 68/39/5 67/38/5 59/38/5
f 63/44/3 69/44/3 57/38/3 51/38/3
f 64/46/6 52/43/6 58/43/6 70/46/6
f 71/38/2 74/41/2 73/40/2 72/39/2
f 75/38/5 76/43/5 78/42/5 77/41/5
f 74/41/6 71/38/6 75/44/6 77/42/6
f 72/45/3 73/48/3 78/47/3 76/46/3
f 73/49/4 74/49/4 77/49/4 78/49/4
f 75/38/4 79/38/4 80/43/4 76/43/4
f 79/38/5 85/38/5 86/43/5 80/43/5
f 76/46/3 84/46/3 82/45/3 72/45/3
f 71/38/6 81/38/6 83/44/6 75/44/6
f 72/39/2 82/39/2 81/38/2 71/38/2
f 75/44/6 83/44/6 85/38/6 79/38/6
f 76/46/3 80/43/3 86/43/3 84/46/3
f 87/38/5 88/39/5 89/40/5 90/41/5
f 91/38/2 93/41/2 94/42/2 92/43/2
f 90/41/6 93/42/6 91/44/6 87/38/6
f 88/45/3 92/46/3 94/47/3 89/48/3
f 89/49/4 94/49/4 93/49/4 90/49/4
f 91/38/4 92/43/4 80/43/4 79/38/4
f 92/46/3 88/45/3 96/45/3 98/46/3
f 87/38/6 91/44/6 97/44/6 95/38/6
f 88/39/5 87/38/5 95/38/5 96/39/5
f 91/44/6 79/38/6 85/38/6 97/44/6
f 92/46/3 98/46/3 86/43/3 80/43/3
